<?xml version="1.0" encoding="utf-8"?>
<!-- Generator: Adobe Illustrator 23.0.3, SVG Export Plug-In . SVG Version: 6.00 Build 0)  -->
<svg version="1.1" id="Layer_1" xmlns="http://www.w3.org/2000/svg" xmlns:xlink="http://www.w3.org/1999/xlink" x="0px" y="0px"
	 width="636px" height="369px" viewBox="0 0 636 369" style="enable-background:new 0 0 636 369;" xml:space="preserve">
<style type="text/css">
	.st0{fill:#401F1E;}
	.st1{fill:url(#SVGID_1_);}
</style>
<g>
	<g>
		<path class="st0" d="M627.1,113.5l3-0.6v-4.5c-0.6-0.9-2.2-1-3.2-0.8l0,3h-5c0,0,4.9-8.3,0-8.6c0,0-2.4,1.4-3.1,0v-1.8
			c0,0-6.3-1.8-8,0c0,0-2.3,3.9,0,5.1l3.1,0c0.5,1.7-0.6,4-1.5,5.3c0,0-0.6,1.3-1.3,0c0.3-2.4-0.8-5.7-2.7-7.3
			c-1-0.9-2.8,0.8-2.2,1.9H603c2.2-3,0.6-3.1,0.5-3.1c0,0-2.3-0.4-3.4,0.4l-2.7-0.7v-1.6c0,0-1.9-1.6-3,0l-0.5,1.1
			c0,0-1.7-0.2-1.5-1.7l2.2-3.4c0,0,1.4,0.7,2.8,0c0.8-1.2,0.8-2,0-2.3h-5.7c-0.4-1-2.4-1-2.3-0.7c0,0-3,1.5,1.8,5.2
			c-1.9,3.3-2.9,2.8-4.9,6.1l-2,0.7l-1.1-0.3v-5.6h2.2v-4.1c-3.7-1.2,2.4-2.2,0.8-4.3c-2.9-3.6-9.7,4.6-10.4,5.4
			c-1.1,0.8-2.2-1.5-1.6-2.4H570v-4.9h-11.1l-1.7,1.9l0-3c-1.4-0.5-3,0-4.5,0l-0.5,1.1l-1.5-3.1h-5v-3l-2.1,1.1l-6-3.4l0.7-1.6h-2.6
			l-0.9,0.8l-1.5-1.7l0.9-0.1l1.4-0.1l3.9-0.1l5.3-6.1c0.3,1.1,2.1,1.4,3,1.1l0-3.1h4.1v3.1c1-0.5,2.9,1,2,1.9h3.2l0-5h1.8l3.1-4.3
			l-1.9-4.5l1.1-2.2l-3.1-1.2l-1.2-4.3c-2.4-0.4-9.7-0.3-12,0c-0.3-2.3-3.5-4.3-5.3-5.2l4.2-6.1V37l0.7-1.1l-4.9,0.1
			c-2.3-18.2,2.8-6.2-6.3-20.5h-5.8l-1.1-3.1l-2.3-0.4c0-2.7-1.5-5.8,0-7.7c-3.5,0.5-8,0.2-11.2-1.5L511.7,0h-6.8
			c0.8,3.2-2.7,4.8-5.3,5.1l-2.7,3c-0.8,0.3-0.8-1.6-0.7-1.9c-3.1,1.7-5.6,5.9-6.5,9.2l-1.6-0.3V9.3l-4-2.4
			c-0.8-0.6-0.5-2.3,0.3-2.7c-3.5,0.5-8,0.2-11.2-1.5L472.2,0h-6.8c0.8,3.2-2.7,4.8-5.3,5.1l-2.7,3c-0.8,0.3-0.8-1.6-0.7-1.9
			c-3.1,1.7-5.6,5.9-6.5,9.2l-1.6-0.3V9.3l-6.5-3.2c-3,1.1-6.3,1.9-9.6,2c-1,2.3-3.3,5.2-6.1,4.2c-1.4,2.1-1.6,5.5-1.3,8l3.1,4.8
			l-1.1,6.6l-4.3,1.9l-6.8-1.9l-3.8,2.3l-0.9-2.2l-5-1.5v-1.6c-5.4-2.9-12.1-6.1-18.4-5.1c-2.5,2.1-2.7,6.1-6.3,7
			c0,1.7,0.1,3.7-0.3,5.3c-1.8-1.8-5.9-1.5-8.1-1.2l-1.5-3l-5-1.5v-1.6c-5.4-2.9-12.1-6.1-18.4-5.1c-2.5,2.1-2.7,6.1-6.3,7
			c0,1.7,0.1,3.7-0.3,5.3c-2.1,1.3-5.2,2.6-7.7,1.9l-1.2,4.3l-3.9,1.9l-2.1-1.9l-9.1,0.8l-0.3,3.6c-0.2-1.9-4.1-1.2-3.1,1.7
			l-1.7-2.1l0.7-1c-0.1-2.7-6,2.5-3.9-2.3l-2.5,1.1c-0.4-0.7-3-1.7-3.6-1.1c-1.2,1.2,1.8,3.5,0.8,4.2l-4.4,1.1l-3.4-2.3
			c-0.8,1,0.7,3.4,1.8,2.5c-3.4,2.7-6.7,5.1-11.1,5.7l-1.9,1.5v8.7l5,5.3c-1.4-1-1.5,3.3,0,2.4v4.5l-5,1.5v1.8c1,1,3.1-1.7,4,0h2.8
			l1.5-6.9l1.7,1.1c0.7,2.8-0.3,6.9-2.2,9h-6.9l-1.2,4.3c-0.8,0.5-7.2,0.6-7.8,0v3.6h-8.9l-1.7,1.9l0-3c-1.4-0.5-3,0-4.5,0l-0.5,1.1
			l-1.5-3.1h-5v-3l-2.1,1.1l-6-3.4l0.7-1.6h-2.6l-0.9,0.8l-1.5-1.7l0.9-0.1l1.4-0.1l3.9-0.1l5.3-6.1c0.3,1.1,2.1,1.4,3,1.1l0-3.1
			h4.1v3.1c1-0.5,2.9,1,2,1.9h3.2l0-5h1.8l3.1-4.3l-1.9-4.5l1.1-2.2l-3.1-1.2l-1.2-4.3c-2.4-0.4-9.7-0.3-12,0
			c-0.3-2.3-3.5-4.3-5.3-5.2l4.2-6.1v-4.9l0.7-1.1l-4.9,0.1c-2.3-18.1,2.8-6.2-6.3-20.5h-5.8l-1.1-3.1l-2.3-0.4c0-2.8-1.5-5.8,0-7.7
			c-3.5,0.5-8,0.2-11.2-1.5l-1.2-2.8h-6.8c0.8,3.2-2.7,4.8-5.3,5.1l-2.7,3c-0.8,0.3-0.8-1.6-0.7-1.9c-3.1,1.7-5.6,5.9-6.5,9.2
			l-1.6-0.3V11l-6.5-3.2c-3,1.1-6.3,1.9-9.6,2c-1,2.3-3.3,5.2-6.1,4.2c-1.4,2.1-1.6,5.5-1.3,8l3.1,4.8l-1.1,6.6l-4.3,1.9l-6.8-1.9
			l-6.7,3.1l-1.6-1.1H152l-1.6,1.1l-3.1-1.2l-4.5,1.2l-4.3,6.2H136c-2.6-5.3-8.1-6.4-13.5-6.2l-1.5-3l-5-1.5v-1.6
			c-5.4-2.9-12.1-6.1-18.4-5.1c-2.5,2.1-2.7,6.1-6.3,7c0,1.7,0.1,3.7-0.3,5.3c-2.1,1.3-5.2,2.6-7.7,1.9l-1.2,4.3l-3.9,1.9l-2.1-1.9
			l-9.1,0.8l-0.3,3.6c-0.2-1.9-4.1-1.2-3.1,1.7L62,47.8l0.7-1c-0.1-2.7-6,2.5-3.9-2.3l-2.5,1.1c-0.4-0.7-3-1.7-3.6-1.1
			c-1.2,1.2,1.8,3.5,0.8,4.2l-4.4,1.1l-3.4-2.3c-0.8,1,0.7,3.4,1.8,2.5c-3.4,2.7-6.7,5.1-11.1,5.7l-1.9,1.5V66l5,5.3
			c-1.4-1-1.5,3.3,0,2.4v4.5l-5,1.5v1.8c1,1,3.1-1.7,4,0h2.8l1.5-6.9l1.7,1.1c0.7,2.8-0.3,6.9-2.2,9h-6.9l-1.2,4.3
			c-0.8,0.5-7.2,0.6-7.8,0V97c-2.4,1.1-2.1-2.2-4.2-1.1l-4.1,5.3c0.4-1.5-2.6-0.8-3.1,0l-3.2-1.1c-0.3,0.8,0,2.6,1.1,2.8l-3.1-0.1
			c0.3,2.3,0.6,7.7-1.1,9.6L0,114.3c-0.1-0.1,0.1-0.2,0-0.2v62.2c0.5,0.1,0.7,0.4,0,1.3h6l1.7-2.3c-1.2,2.8,4.1,2.4,2.3,4.3l3.1,0
			v1.9h6.2c-0.9,0.9,0.9,2.8,1.8,1.8l1.5-2.7c1.3-0.7,3.7,0.4,3.9,1.9v-4.2c-0.4-0.2-1.4-0.2-1.1-0.5c0.8-1.2,2.7,0.5,2,1.5h3
			c-0.5-1,1.1-2.8,2-1.9v5.1l-0.4,0.5l-0.2,0.3h3.6c2,0,1.4-3.2,0.1-3.8l3-2l0.4-2.3c2.7,0.2,6-9.5,8.2-5.5c1.9,3.5-4.7,2.4-2.3,4.9
			l4.2,0v2.9c2.1,2.2,1.8-4.6,3.5-2.3l3.5,2.3h2.9l1.1-2.3h6.9c-2,0.1,3.4,2.3,1.2,0l3.9-1.9c1.7-1.1,0.6,3.4,3.1,2.2v2.8
			c1.2,0.4,4.2-2.2,3.1,1.2l3,1.7c-0.9,0.5-2.4,0.3-3.1-0.5l-3.1,2.6h14.2l2.8-1.8c1-0.6,2.3,1,1.6,1.9h6.1c-2.1-0.6,3-1.5,0.9,0
			h3.8c0-0.8,1.5-0.8,1.5,0h91.8l1.2-0.7l31.3,0.8l0.8-0.8h7.7l0.8,0.7h25.8l-1.9-3.8l0.2-1.7l0.3,0v1.9h2.4l0,0.8h3.2l0.4-0.6
			c-0.4,0.8,0.8,2,1.6,1.8v1.5h7.7c0.2-0.8,1.7-0.8,1.9,0h11.5c0.2-1.4-0.6-7.2-0.5-8.6c1-0.4,2.7-0.4,1.3,1.1h2.9l0.7-1l0.7,0.7
			c0.3,0.3,0.1,2.5-0.8,2.2v4.8c0.6,0.6,2.6,1.1,3.1,0v-6.2c0.6,0.4,1,0.8,0.3,1.5l2.1,0l1.6,5.5h7.2c-2.3-0.8,2.9-2.3,1.3,0h5.7
			l-2-0.6c-0.3-1.1-0.7-2.3-0.8-3.6c0.7,0.4,1.3,1,1.4,1.8v-4.2c-0.4-0.2-1.4-0.2-1.1-0.5c0.8-1.2,2.7,0.5,2,1.5h3
			c-0.5-1,1.1-2.8,2-1.9c0,5.7-2.1,5.9,3,5.8l1.2-0.8c0.7-1.4-1.9-3.5-0.8-4.2c1-0.7,3.9-1.3,3.1,1.2l3,1.7
			c-0.9,0.5-2.4,0.3-3.1-0.5l-2.2,1.9l-0.9,0.7h14.2l2.8-1.8c1-0.6,2.3,1,1.6,1.9h6.1c-2.1-0.6,3-1.5,0.9,0h3.8c0-0.8,1.5-0.8,1.5,0
			h131.3c0.7-0.8,30,0,32.5,0c0.5-1.2,1.5,8.8,16.4,5.6c28.2,3.2,32.6-5.6,32.6-5.6c0.2-0.8,3.7,3.2,3.9,4l9.5-4.1
			c0.3-2.7,0.7-11,0.9-8.2l3.7,0.5c0.1,0.5,0.2,1.8-0.3,2.1v4.8c0.6,0.6,2.6,1.1,3.1,0v-3.1c0.7,0.6,2,0.5,2.7,0l1.2,3.9h7.2
			c-2.3-0.8,2.9-2.3,1.3,0h5.7l-2-0.6c-0.8-2.6-1.7-6.3,0.3-8.2h3.6l0.8,0.8h3.4l3.3-3.8c0.9-0.6,1.3,1.4,1,1.9
			c2.3,1.3,5.4,2.3,8.1,2.3v3.9h3c-0.1-1.2,5.9-1.2,5.8,0l0,0v-65.9C634,112.8,628.8,114.4,627.1,113.5z"/>
	</g>
	<linearGradient id="SVGID_1_" gradientUnits="userSpaceOnUse" x1="318.0092" y1="369" x2="318.0092" y2="115.1323">
		<stop  offset="0" style="stop-color:#F89828"/>
		<stop  offset="1" style="stop-color:#F8A240"/>
	</linearGradient>
	<path class="st1" d="M0,147.7h3.6v-2.5l11.1-3.5l1.7,1c6.5-2.1-2.4-5.1-2.4-5.1l5.8-3.1h-3.2l-3.9-4.7l0.9-2.3l7-1.3l1.2-1.7
		l2.5,0.6c0,0,0.6-0.8,1.4-1.5c0.8-0.8,4.2-1,4.2-1l2,2.4c0,0,1.8-0.3,2.1-0.6c0.3-0.4,1.3,1,1.3,1l0.8,2.3l2.7-0.8l2.1,1.8l1,1.9
		l-0.2,0c2.6,1,5.1,1.4,7.1-0.2l-4.3-3l-0.7-3l4.9,0.1l7.5,3.8l-1.2-1.1c3.2-3.9,3.9,5.2,9.3,5.4l0.9-3.2l-1-0.6l11.3-0.7l1.3-1.4
		c5.4-1.1,10.5,1.4,14.9,4l0.7-1l6.5-8.9l1.6-0.1v-2.9l4-1.2l-0.3-1.3l12.9,6l1.3-1.4c5.4-1.1,10.5,1.4,14.9,4l0.7-1l6.5,4.6
		l1.6-0.1v-2.9c7.5-1.9,13.6,10.4,20.7,13.1l1.3,4l-3.1,2.4l1.1,3.3c4.8,2.2,10.5-1.8,15,1.1l0.9-1.1l5-0.8v-0.8
		c9.2-2.5,16.2-4.3,24.8,1c-3.3,3.1,7.4,2.2,8.5,2.1l1.5-1.5l5-0.8v-0.8c9.2-2.5,16.2-4.3,24.8,1l0.3,2.7l7.8,1l1.2,2.1l4,0.9l2.1-1
		l9.1,0.4l0.3,2.1c4.4,2.2,9.7-1.5,14-2.1l-0.9,2.1l7.8-0.6l-1.9,1.2c4.2,1.7,9.1,1.6,13.2,3.6v4.4l-5,2.7l0,3.4l5,0.8v0.9l-6.9,0
		l-1.5-3.5l-1.7,3l2.3,2.1h7c1.2,0,12.4,1.9,9,4h9l1.7,1c6.5-2.1,13.1-3.6,19.8-5.2l-0.8-0.8l5-0.5l-6.2-0.2
		c-3.6-2.4-7.8-4.7-12.5-4.1v1.5l-2,0.2v0.8h-3.2l-4.9-4.7l1.9-2.3l-1.2-1.1c7.1-1.6,15.9-0.8,21.8-5.4l-4.3-3l-0.7-3l4.9,0.1v-3.6
		l-1.2-1.1c3.2-3.9,11.4-7.5,16.7-7.3l0.9-3.2l-1-0.6l11.3-0.7l1.3-1.4c5.4-1.1,10.5,1.4,14.9,4l0.7-1l6.5,4.6l1.6-0.1v-2.9
		c7.5-1.9,15.3-1.2,22.4,1.5l1.3,4l-3.1,2.4l1.1,3.3l33.8,1.5l4.3,3.1c4.8-2.2,10.7-4.3,16.1-3.1l1.5-1.5l5-0.8v-0.8
		c9.2-2.5,16.2-4.3,24.8,1l0.3,2.7l7.8,1l1.2,2.1l4,0.9l2.1-1l9.1,0.4l0.3,2.1c0.7,0.4,1.5,0.6,2.2,0.6l-2.3-3.3
		c-0.4-2.2-0.2-5.3,1.3-7.2c2.8,0.9,5.2-1.7,6.2-3.8c3.2,0,6.6-0.8,9.6-1.8l6.6,2.9v5.2l1.6,0.2c0.9-3,3.4-6.8,6.5-8.4
		c-0.1,0.3-0.2,2,0.7,1.7l2.7-2.7c2.6-0.3,6.1-1.7,5.3-4.6h6.9l1.3,2.5c3.2,1.5,7.8,1.7,11.3,1.3c-0.9,0.4-1.2,1.9-0.3,2.4l4,2.2
		v5.2l1.6,0.2c0.9-3,3.4-6.8,6.5-8.4c-0.1,0.3-0.2,2,0.7,1.7l2.7-2.7c2.6-0.3,6.1-1.7,5.3-4.6h6.9l1.3,2.5c3.2,1.5,7.8,1.7,11.3,1.3
		c-1.5,1.8,0,4.5,0,7l2.3,0.3l1.1,2.8h5.8c0.8,1.2,1.6,2.2,2.2,3V369H0V147.7z"/>
</g>
</svg>
