<?xml version="1.0" encoding="utf-8"?>
<!-- Generator: Adobe Illustrator 23.0.3, SVG Export Plug-In . SVG Version: 6.00 Build 0)  -->
<svg version="1.1" id="Layer_3" xmlns="http://www.w3.org/2000/svg" xmlns:xlink="http://www.w3.org/1999/xlink" x="0px" y="0px"
	 width="1822px" height="56px" viewBox="0 0 1822 56" style="enable-background:new 0 0 1822 56;" xml:space="preserve">
<style type="text/css">
	.st0{fill:#F2CEBF;}
</style>
<g>
	<g>
		<rect x="595.8" y="11.9" class="st0" width="634" height="1"/>
		<polygon class="st0" points="1229,44.7 598,34.3 598.1,33.3 1229,43.7 		"/>
		<rect x="1175.4" y="8.8" class="st0" width="4.2" height="47.2"/>
		<rect x="1119" y="8.7" class="st0" width="4" height="45.8"/>
		<rect x="1067.9" y="8.7" class="st0" width="3.8" height="44.5"/>
		<rect x="1016.7" y="8.7" class="st0" width="3.7" height="43.2"/>
		<rect x="966.6" y="8.6" class="st0" width="3.5" height="41.9"/>
		<rect x="922.7" y="8.6" class="st0" width="3.4" height="40.5"/>
		<rect x="876.8" y="8.6" class="st0" width="3.2" height="39.2"/>
		<rect x="832.9" y="8.5" class="st0" width="3" height="37.9"/>
		<rect x="789.1" y="8.5" class="st0" width="2.9" height="36.6"/>
		<rect x="745.2" y="8.5" class="st0" width="2.7" height="35.2"/>
		<rect x="708.6" y="8.4" class="st0" width="2.6" height="33.9"/>
		<rect x="646.1" y="8.4" class="st0" width="2.4" height="32.6"/>
		<rect x="612.4" y="8.3" class="st0" width="2.1" height="29.9"/>
		<rect x="675.2" y="8.4" class="st0" width="2.4" height="32.6"/>
		<polygon class="st0" points="1229.8,29.5 598.6,24.2 598.6,23.1 1229.8,28.4 		"/>
	</g>
	<g>
		<rect x="1229.8" y="12" class="st0" width="592.2" height="1"/>
		<polygon class="st0" points="1229,44.7 1822,34.1 1822,33.1 1229,43.7 		"/>
		<rect x="1238.3" y="8.8" class="st0" width="4.2" height="47.2"/>
		<rect x="1294.8" y="8.8" class="st0" width="4" height="45.8"/>
		<rect x="1346.1" y="8.8" class="st0" width="3.8" height="44.5"/>
		<rect x="1397.4" y="8.7" class="st0" width="3.7" height="43.2"/>
		<rect x="1447.6" y="8.7" class="st0" width="3.5" height="41.9"/>
		<rect x="1491.7" y="8.7" class="st0" width="3.4" height="40.5"/>
		<rect x="1537.8" y="8.6" class="st0" width="3.2" height="39.2"/>
		<rect x="1581.8" y="8.6" class="st0" width="3" height="37.9"/>
		<rect x="1625.8" y="8.6" class="st0" width="2.9" height="36.6"/>
		<rect x="1669.8" y="8.5" class="st0" width="2.7" height="35.2"/>
		<rect x="1706.6" y="8.5" class="st0" width="2.6" height="33.9"/>
		<rect x="1769.3" y="8.5" class="st0" width="2.4" height="32.6"/>
		<rect x="1801.9" y="8.4" class="st0" width="2.2" height="31.3"/>
		<rect x="1740.2" y="8.5" class="st0" width="2.4" height="32.6"/>
		<polygon class="st0" points="1229.8,29.5 1822,23.4 1822,22.3 1229.8,28.4 		"/>
	</g>
	<g>
		<polygon class="st0" points="0,33.1 598.1,33.3 598,34.3 0,34.1 		"/>
		<polygon class="st0" points="0,12 316,8.5 595.8,11.9 595.8,13 316,9.5 0,13 		"/>
		<rect x="14.9" y="6.4" class="st0" width="4.2" height="31.3"/>
		<rect x="71.4" y="2.8" class="st0" width="4" height="34.9"/>
		<rect x="122.7" y="5.1" class="st0" width="3.8" height="32.6"/>
		<rect x="174" y="4.5" class="st0" width="3.7" height="33.3"/>
		<rect x="224.3" y="3.9" class="st0" width="3.5" height="33.9"/>
		<rect x="268.3" y="1.3" class="st0" width="3.4" height="36.6"/>
		<rect x="314.4" y="0.6" class="st0" width="3.2" height="37.2"/>
		<rect x="358.4" y="0" class="st0" width="3" height="37.9"/>
		<rect x="402.5" y="1.4" class="st0" width="2.9" height="36.6"/>
		<rect x="446.5" y="2.7" class="st0" width="2.7" height="35.2"/>
		<rect x="483.2" y="4.1" class="st0" width="2.6" height="33.9"/>
		<rect x="546" y="5.4" class="st0" width="2.4" height="32.6"/>
		<rect x="578.5" y="6.8" class="st0" width="2.2" height="31.3"/>
		<rect x="516.8" y="5.4" class="st0" width="2.4" height="32.6"/>
		<polygon class="st0" points="0,22.3 316,21.1 598.6,23.1 598.6,24.2 316,22.1 0,23.4 		"/>
	</g>
</g>
</svg>
