<?xml version="1.0" encoding="utf-8"?>
<!-- Generator: Adobe Illustrator 23.0.3, SVG Export Plug-In . SVG Version: 6.00 Build 0)  -->
<svg version="1.1" id="Layer_1" xmlns="http://www.w3.org/2000/svg" xmlns:xlink="http://www.w3.org/1999/xlink" x="0px" y="0px"
	 width="6380.1px" height="369px" viewBox="0 0 6380.1 369" style="enable-background:new 0 0 6380.1 369;" xml:space="preserve">
<style type="text/css">
	.st0{fill:#5E2C1D;}
	.st1{fill:#F89828;}
</style>
<g>
	<path class="st0" d="M0.2,147.7h3.6v-2.5l11.1-3.5l1.7,1c6.5-2.1-2.4-5.1-2.4-5.1l5.8-3.1h-3.2l-3.9-4.7l0.9-2.3l7-1.3l1.2-1.7
		l2.5,0.6c0,0,0.6-0.8,1.4-1.5c0.8-0.8,4.2-1,4.2-1l2,2.4c0,0,1.8-0.3,2.1-0.6c0.3-0.4,1.3,1,1.3,1l0.8,2.3l2.7-0.8l2.1,1.8l1,1.9
		h-0.2c2.6,1,5.1,1.4,7.1-0.2l-4.3-3l-0.7-3l4.9,0.1l7.5,3.8l-1.2-1.1c3.2-3.9,3.9,5.2,9.3,5.4l0.9-3.2l-1-0.6l11.3-0.7l1.3-1.4
		c5.4-1.1,10.5,1.4,14.9,4l0.7-1l6.5-8.9l1.6-0.1v-2.9l4-1.2l-0.3-1.3l12.9,6l1.3-1.4c5.4-1.1,10.5,1.4,14.9,4l0.7-1l6.5,4.6
		l1.6-0.1v-2.9c7.5-1.9,13.6,10.4,20.6,13.1l1.3,4l-3.1,2.4l1.1,3.3c4.8,2.2,10.5-1.8,15,1.1l0.9-1.1l5-0.8v-0.8
		c9.2-2.5,16.2-4.3,24.7,1c-3.3,3.1,7.4,2.2,8.5,2.1l1.5-1.5l5-0.8v-0.8c9.2-2.5,16.2-4.3,24.7,1l0.3,2.7l7.8,1l1.2,2.1l4,0.9l2.1-1
		l9.1,0.4l0.3,2.1c4.4,2.2,9.7-1.5,14-2.1l-0.9,2.1l7.8-0.6l-1.9,1.2c4.2,1.7,9.1,1.6,13.2,3.6v4.4l-5,2.7v3.4l5,0.8v0.9h-6.9
		l-1.5-3.5l-1.7,3l2.3,2.1h7c1.2,0,12.4,1.9,9,4h4v-0.2c-0.4-0.2-1.4-0.2-1.1-0.5c0.6-0.9,1.8-0.2,2.1,0.7h2.9
		c0.3-0.9,1.3-1.8,2-1.1c0,0.6,0,1.1-0.1,1.6l0.9,0.5c0.8-0.3,1.6-0.5,2.3-0.7c0-0.2,0-0.5,0.3-0.6c0.7-0.5,2.2-0.9,2.9-0.3
		c4.7-1.3,9.4-2.4,14.2-3.6l-0.8-0.8l5-0.5l-6.2-0.2c-3.6-2.4-7.8-4.7-12.5-4.1v1.5l-2,0.2v0.8H323l-4.9-4.7l1.9-2.3l-1.2-1.1
		c7.1-1.6,15.9-0.8,21.7-5.4l-4.3-3l-0.7-3l4.9,0.1v-3.6l-1.2-1.1c3.2-3.9,11.4-7.5,16.7-7.3l0.9-3.2l-1-0.6l11.3-0.7l1.3-1.4
		c5.4-1.1,10.5,1.4,14.9,4l0.7-1l6.5,4.6l1.6-0.1v-2.9c7.5-1.9,15.3-1.2,22.3,1.5l1.3,4l-3.1,2.4l1.1,3.3l33.7,1.5l4.3,3.1
		c4.8-2.2,10.7-4.3,16.1-3.1l1.5-1.5l5-0.8v-0.8c9.2-2.5,16.2-4.3,24.7,1l0.3,2.7l7.8,1l1.2,2.1l4,0.9l2.1-1l9.1,0.4l0.3,2.1
		c0.7,0.4,1.5,0.6,2.2,0.6l-2.3-3.3c-0.4-2.2-0.2-5.3,1.3-7.2c2.8,0.9,5.2-1.7,6.2-3.8c3.2,0,6.6-0.8,9.6-1.8l6.6,2.9v5.2l1.6,0.2
		c0.9-3,3.4-6.8,6.5-8.4c-0.1,0.3-0.2,2,0.7,1.7l2.7-2.7c2.6-0.3,6.1-1.7,5.3-4.6h6.9l1.3,2.5c3.2,1.5,7.8,1.7,11.3,1.3
		c-0.9,0.4-1.2,1.9-0.3,2.4l4,2.2v5.2l1.6,0.2c0.9-3,3.4-6.8,6.5-8.4c-0.1,0.3-0.2,2,0.7,1.7l2.7-2.7c2.6-0.3,6.1-1.7,5.3-4.6h6.9
		l1.3,2.5c3.2,1.5,7.8,1.7,11.3,1.3c-1.5,1.8,0,4.5,0,7l2.3,0.3l1.1,2.8h5.8c0.8,1.1,4.6,1.9,5.5,2.7V111
		c-3.4,1.4-11.7,2.8-12.2,2.5l3-0.6v-4.5c-0.6-0.9-2.2-1-3.2-0.8v3h-5c0,0,4.9-8.3,0-8.6c0,0-2.4,1.4-3.1,0v-1.8c0,0-6.3-1.8-8,0
		c0,0-2.3,3.9,0,5.1h3.1c0.5,1.7-0.6,4-1.5,5.3c0,0-0.6,1.3-1.3,0c0.3-2.4-0.8-5.7-2.7-7.3c-1-0.9-2.8,0.8-2.2,1.9h-3.2
		c2.2-3,0.6-3.1,0.5-3.1c0,0-2.3-0.4-3.4,0.4l-2.7-0.7v-1.6c0,0-1.9-1.6-3,0l-0.5,1.1c0,0-1.7-0.2-1.5-1.7l2.2-3.4
		c0,0,1.4,0.7,2.8,0c0.8-1.2,0.8-2,0-2.3h-5.7c-0.4-1-2.4-1-2.3-0.7c0,0-3,1.5,1.8,5.2c-1.9,3.3-2.9,2.8-4.9,6.1l-2,0.7l-1.1-0.3
		v-5.6h2.2v-4.1c-3.7-1.2,2.4-2.2,0.8-4.3c-2.9-3.6-9.7,4.6-10.4,5.4c-1.1,0.8-2.2-1.5-1.6-2.4h-4.2V89h-11.1l-1.7,1.9v-3
		c-1.4-0.5-3,0-4.5,0L551,89l-1.5-3.1h-5v-3l-2.1,1.1l-6-3.4l0.7-1.6h-2.6l-0.9,0.8l-1.5-1.7l0.9-0.1l1.4-0.1l3.9-0.1l5.3-6.1
		c0.3,1.1,2.1,1.4,3,1.1v-3.1h4.1v3.1c1-0.5,2.9,1,2,1.9h3.2v-5h1.8l3.1-4.3l-1.9-4.5l1.1-2.2l-3.1-1.2l-1.2-4.3
		c-2.4-0.4-9.7-0.3-12,0c-0.3-2.3-3.5-4.3-5.3-5.2l4.2-6.1V37l0.7-1.1l-4.9,0.1c-2.3-18.2,2.8-6.2-6.3-20.5h-5.8l-1.1-3.1L523,12
		c0-2.7-1.5-5.8,0-7.7c-3.5,0.5-8,0.2-11.2-1.5L510.6,0h-6.8c0.8,3.2-2.7,4.8-5.3,5.1l-2.7,3c-0.8,0.3-0.8-1.6-0.7-1.9
		c-3.1,1.7-5.6,5.9-6.5,9.2l-1.6-0.3V9.3l-4-2.4c-0.8-0.6-0.5-2.3,0.3-2.7c-3.5,0.5-8,0.2-11.2-1.5l-1-2.7h-6.8
		c0.8,3.2-2.7,4.8-5.3,5.1l-2.7,3c-0.8,0.3-0.8-1.6-0.7-1.9c-3.1,1.7-5.6,5.9-6.5,9.2l-1.6-0.3V9.3l-6.5-3.2c-3,1.1-6.3,1.9-9.6,2
		c-1,2.3-3.3,5.2-6.1,4.2c-1.4,2.1-1.6,5.5-1.3,8l3.1,4.8l-1.1,6.6l-4.3,1.9l-6.8-1.9l-3.8,2.3l-0.9-2.2l-5-1.5v-1.6
		c-5.4-2.9-12.1-6.1-18.4-5.1c-2.5,2.1-2.7,6.1-6.3,7c0,1.7,0.1,3.7-0.3,5.3c-1.8-1.8-5.9-1.5-8.1-1.2l-1.5-3l-5-1.5v-1.6
		c-5.4-2.9-12.1-6.1-18.4-5.1c-2.5,2.1-2.7,6.1-6.3,7c0,1.7,0.1,3.7-0.3,5.3c-2.1,1.3-5.2,2.6-7.7,1.9l-1.2,4.3l-3.9,1.9l-2.1-1.9
		l-9.1,0.8l-0.3,3.6c-0.2-1.9-4.1-1.2-3.1,1.7L312,46l0.7-1c-0.1-2.7-6,2.5-3.9-2.3l-2.5,1.1c-0.4-0.7-3-1.7-3.6-1.1
		c-1.2,1.2,1.8,3.5,0.8,4.2l-4.4,1.1l-3.4-2.3c-0.8,1,0.7,3.4,1.8,2.5c-3.4,2.7-6.7,5.1-11.1,5.7l-1.9,1.5v8.7l5,5.3
		c-1.4-1-1.5,3.3,0,2.4v4.5l-5,1.5v1.8c1,1,3.1-1.7,4,0h2.8l1.5-6.9l1.7,1.1c0.7,2.8-0.3,6.9-2.2,9h-6.9l-1.2,4.3
		c-0.8,0.5-7.2,0.6-7.8,0v3.6h-8.9l-1.7,1.9v-3c-1.4-0.5-3,0-4.5,0l-0.5,1.1l-1.5-3.1h-5v-3l-2.1,1.1l-6-3.4l0.7-1.6h-2.6l-0.9,0.8
		l-1.5-1.7l0.9-0.1l1.4-0.1l3.9-0.1l5.3-6.1c0.3,1.1,2.1,1.4,3,1.1v-3.1h4.1v3.1c1-0.5,2.9,1,2,1.9h3.2v-5h1.8l3.1-4.3l-1.9-4.5
		l1.1-2.2l-3.1-1.2l-1.2-4.3c-2.4-0.4-9.7-0.3-12,0c-0.3-2.3-3.5-4.3-5.3-5.2l4.2-6.1v-4.9l0.7-1.1l-4.9,0.1
		c-2.3-18.1,2.8-6.2-6.3-20.5h-5.8l-1.1-3.1l-2.3-0.4c0-2.8-1.5-5.8,0-7.7c-3.5,0.5-8,0.2-11.2-1.5l-1.2-2.8h-6.8
		c0.8,3.2-2.7,4.8-5.3,5.1l-2.7,3c-0.8,0.3-0.8-1.6-0.7-1.9c-3.1,1.7-5.6,5.9-6.5,9.2l-1.6-0.3V11l-6.5-3.2c-3,1.1-6.3,1.9-9.6,2
		c-1,2.3-3.3,5.2-6.1,4.2c-1.4,2.1-1.6,5.5-1.3,8l3.1,4.8l-1.1,6.6l-4.3,1.9l-6.8-1.9l-6.7,3.1l-1.6-1.1h-4.4l-1.6,1.1l-3.1-1.2
		l-4.5,1.2l-4.3,6.2h-2.5c-2.6-5.3-8.1-6.4-13.5-6.2l-1.5-3l-5-1.5v-1.6c-5.4-2.9-12.1-6.1-18.4-5.1c-2.5,2.1-2.7,6.1-6.3,7
		c0,1.7,0.1,3.7-0.3,5.3c-2.1,1.3-5.2,2.6-7.7,1.9L82,43.8l-3.9,1.9L76,43.8L67,44.6l-0.3,3.6c-0.2-1.9-4.1-1.2-3.1,1.7L62,47.8
		l0.7-1c-0.1-2.7-6,2.5-3.9-2.3l-2.5,1.1c-0.4-0.7-3-1.7-3.6-1.1c-1.2,1.2,1.8,3.5,0.8,4.2l-4.4,1.1l-3.4-2.3
		c-0.8,1,0.7,3.4,1.8,2.5c-3.4,2.7-6.7,5.1-11.1,5.7l-1.9,1.5V66l5,5.3c-1.4-1-1.5,3.3,0,2.4v4.5l-5,1.5v1.8c1,1,3.1-1.7,4,0h2.8
		l1.5-6.9l1.7,1.1c0.7,2.8-0.3,6.9-2.2,9h-6.9L34.2,89c-0.8,0.5-7.2,0.6-7.8,0v8c-2.4,1.1-2.1-2.2-4.2-1.1l-4.1,5.3
		c0.4-1.5-2.6-0.8-3.1,0l-3.2-1.1c-0.3,0.8,0,2.6,1.1,2.8l-3.1-0.1c0.3,2.3,0.6,7.7-1.1,9.6l-8.7,1.9L0.2,147.7z"/>
	<path class="st1" d="M0,147.7h3.8v-2.5l11.1-3.5l1.7,1c6.5-2.1-2.4-5.1-2.4-5.1l5.8-3.1h-3.2l-3.9-4.7l0.9-2.3l7-1.3l1.2-1.7
		l2.5,0.6c0,0,0.6-0.8,1.4-1.5c0.8-0.8,4.2-1,4.2-1l2,2.4c0,0,1.8-0.3,2.1-0.6c0.3-0.4,1.3,1,1.3,1l0.8,2.3l2.7-0.8l2.1,1.8l1,1.9
		h-0.2c2.6,1,5.1,1.4,7.1-0.2l-4.3-3l-0.7-3l4.9,0.1l7.5,3.8l-1.2-1.1c3.2-3.9,3.9,5.2,9.3,5.4l0.9-3.2l-1-0.6l11.3-0.7l1.3-1.4
		c5.4-1.1,10.5,1.4,14.9,4l0.7-1l6.5-8.9l1.6-0.1v-2.9l4-1.2l-0.3-1.3l12.9,6l1.3-1.4c5.4-1.1,10.5,1.4,14.9,4l0.7-1l6.5,4.6
		l1.6-0.1v-2.9c7.5-1.9,13.6,10.4,20.6,13.1l1.3,4l-3.1,2.4l1.1,3.3c4.8,2.2,10.5-1.8,15,1.1l0.9-1.1l5-0.8v-0.8
		c9.2-2.5,16.2-4.3,24.7,1c-3.3,3.1,7.4,2.2,8.5,2.1l1.5-1.5l5-0.8v-0.8c9.2-2.5,16.2-4.3,24.7,1l0.3,2.7l7.8,1l1.2,2.1l4,0.9l2.1-1
		l9.1,0.4l0.3,2.1c4.4,2.2,9.7-1.5,14-2.1l-0.9,2.1l7.8-0.6l-1.9,1.2c4.2,1.7,9.1,1.6,13.2,3.6v4.4l-5,2.7v3.4l5,0.8v0.9h-6.9
		l-1.5-3.5l-1.7,3l2.3,2.1h7c1.2,0,12.4,1.9,9,4h9l1.7,1c6.5-2.1,13.1-3.6,19.7-5.2l-0.8-0.8l5-0.5l-6.2-0.2
		c-3.6-2.4-7.8-4.7-12.5-4.1v1.5l-2,0.2v0.8H323l-4.9-4.7l1.9-2.3l-1.2-1.1c7.1-1.6,15.9-0.8,21.7-5.4l-4.3-3l-0.7-3l4.9,0.1v-3.6
		l-1.2-1.1c3.2-3.9,11.4-7.5,16.7-7.3l0.9-3.2l-1-0.6l11.3-0.7l1.3-1.4c5.4-1.1,10.5,1.4,14.9,4l0.7-1l6.5,4.6l1.6-0.1v-2.9
		c7.5-1.9,15.3-1.2,22.3,1.5l1.3,4l-3.1,2.4l1.1,3.3l33.7,1.5l4.3,3.1c4.8-2.2,10.7-4.3,16.1-3.1l1.5-1.5l5-0.8v-0.8
		c9.2-2.5,16.2-4.3,24.7,1l0.3,2.7l7.8,1l1.2,2.1l4,0.9l2.1-1l9.1,0.4l0.3,2.1c0.7,0.4,1.5,0.6,2.2,0.6l-2.3-3.3
		c-0.4-2.2-0.2-5.3,1.3-7.2c2.8,0.9,5.2-1.7,6.2-3.8c3.2,0,6.6-0.8,9.6-1.8l6.6,2.9v5.2l1.6,0.2c0.9-3,3.4-6.8,6.5-8.4
		c-0.1,0.3-0.2,2,0.7,1.7l2.7-2.7c2.6-0.3,6.1-1.7,5.3-4.6h6.9l1.3,2.5c3.2,1.5,7.8,1.7,11.3,1.3c-0.9,0.4-1.2,1.9-0.3,2.4l4,2.2
		v5.2l1.6,0.2c0.9-3,3.4-6.8,6.5-8.4c-0.1,0.3-0.2,2,0.7,1.7l2.7-2.7c2.6-0.3,6.1-1.7,5.3-4.6h6.9l1.3,2.5c3.2,1.5,7.8,1.7,11.3,1.3
		c-1.5,1.8,0,4.5,0,7l2.3,0.3l1.1,2.8h5.8c0.8,1.2,5,2,5.6,2.8v218H0V147.7z"/>
</g>
<g>
	<path class="st0" d="M638.2,147.7h3.6v-2.5l11.1-3.5l1.7,1c6.5-2.1-2.4-5.1-2.4-5.1l5.8-3.1h-3.2l-3.9-4.7l0.9-2.3l7-1.3l1.2-1.7
		l2.5,0.6c0,0,0.6-0.8,1.4-1.5c0.8-0.8,4.2-1,4.2-1l2,2.4c0,0,1.8-0.3,2.1-0.6c0.3-0.4,1.3,1,1.3,1l0.8,2.3l2.7-0.8l2.1,1.8l1,1.9
		h-0.2c2.6,1,5.1,1.4,7.1-0.2l-4.3-3l-0.7-3l4.9,0.1l7.5,3.8l-1.2-1.1c3.2-3.9,3.9,5.2,9.3,5.4l0.9-3.2l-1-0.6l11.3-0.7l1.3-1.4
		c5.4-1.1,10.5,1.4,14.9,4l0.7-1l6.5-8.9l1.6-0.1v-2.9l4-1.2l-0.3-1.3l12.9,6l1.3-1.4c5.4-1.1,10.5,1.4,14.9,4l0.7-1l6.5,4.6
		l1.6-0.1v-2.9c7.5-1.9,13.6,10.4,20.6,13.1l1.3,4l-3.1,2.4l1.1,3.3c4.8,2.2,10.5-1.8,15,1.1l0.9-1.1l5-0.8v-0.8
		c9.2-2.5,16.2-4.3,24.7,1c-3.3,3.1,7.4,2.2,8.5,2.1l1.5-1.5l5-0.8v-0.8c9.2-2.5,16.2-4.3,24.7,1l0.3,2.7l7.8,1l1.2,2.1l4,0.9l2.1-1
		l9.1,0.4l0.3,2.1c4.4,2.2,9.7-1.5,14-2.1l-0.9,2.1l7.8-0.6l-1.9,1.2c4.2,1.7,9.1,1.6,13.2,3.6v4.4l-5,2.7v3.4l5,0.8v0.9h-6.9
		l-1.5-3.5l-1.7,3l2.3,2.1h7c1.2,0,12.4,1.9,9,4h4v-0.2c-0.4-0.2-1.4-0.2-1.1-0.5c0.6-0.9,1.8-0.2,2.1,0.7h2.9
		c0.3-0.9,1.3-1.8,2-1.1c0,0.6,0,1.1-0.1,1.6l0.9,0.5c0.8-0.3,1.6-0.5,2.3-0.7c0-0.2,0-0.5,0.3-0.6c0.7-0.5,2.2-0.9,2.9-0.3
		c4.7-1.3,9.4-2.4,14.2-3.6l-0.8-0.8l5-0.5l-6.2-0.2c-3.6-2.4-7.8-4.7-12.5-4.1v1.5l-2,0.2v0.8H961l-4.9-4.7l1.9-2.3l-1.2-1.1
		c7.1-1.6,15.9-0.8,21.7-5.4l-4.3-3l-0.7-3l4.9,0.1v-3.6l-1.2-1.1c3.2-3.9,11.4-7.5,16.7-7.3l0.9-3.2l-1-0.6l11.3-0.7l1.3-1.4
		c5.4-1.1,10.5,1.4,14.9,4l0.7-1l6.5,4.6l1.6-0.1v-2.9c7.5-1.9,15.3-1.2,22.3,1.5l1.3,4l-3.1,2.4l1.1,3.3l33.7,1.5l4.3,3.1
		c4.8-2.2,10.7-4.3,16.1-3.1l1.5-1.5l5-0.8v-0.8c9.2-2.5,16.2-4.3,24.7,1l0.3,2.7l7.8,1l1.2,2.1l4,0.9l2.1-1l9.1,0.4l0.3,2.1
		c0.7,0.4,1.5,0.6,2.2,0.6l-2.3-3.3c-0.4-2.2-0.2-5.3,1.3-7.2c2.8,0.9,5.2-1.7,6.2-3.8c3.2,0,6.6-0.8,9.6-1.8l6.6,2.9v5.2l1.6,0.2
		c0.9-3,3.4-6.8,6.5-8.4c-0.1,0.3-0.2,2,0.7,1.7l2.7-2.7c2.6-0.3,6.1-1.7,5.3-4.6h6.9l1.3,2.5c3.2,1.5,7.8,1.7,11.3,1.3
		c-0.9,0.4-1.2,1.9-0.3,2.4l4,2.2v5.2l1.6,0.2c0.9-3,3.4-6.8,6.5-8.4c-0.1,0.3-0.2,2,0.7,1.7l2.7-2.7c2.6-0.3,6.1-1.7,5.3-4.6h6.9
		l1.3,2.5c3.2,1.5,7.8,1.7,11.3,1.3c-1.5,1.8,0,4.5,0,7l2.3,0.3l1.1,2.8h5.8c0.8,1.1,4.6,1.9,5.5,2.7V111
		c-3.4,1.4-11.7,2.8-12.2,2.5l3-0.6v-4.5c-0.6-0.9-2.2-1-3.2-0.8v3h-5c0,0,4.9-8.3,0-8.6c0,0-2.4,1.4-3.1,0v-1.8c0,0-6.3-1.8-8,0
		c0,0-2.3,3.9,0,5.1h3.1c0.5,1.7-0.6,4-1.5,5.3c0,0-0.6,1.3-1.3,0c0.3-2.4-0.8-5.7-2.7-7.3c-1-0.9-2.8,0.8-2.2,1.9h-3.2
		c2.2-3,0.6-3.1,0.5-3.1c0,0-2.3-0.4-3.4,0.4l-2.7-0.7v-1.6c0,0-1.9-1.6-3,0l-0.5,1.1c0,0-1.7-0.2-1.5-1.7l2.2-3.4
		c0,0,1.4,0.7,2.8,0c0.8-1.2,0.8-2,0-2.3h-5.7c-0.4-1-2.4-1-2.3-0.7c0,0-3,1.5,1.8,5.2c-1.9,3.3-2.9,2.8-4.9,6.1l-2,0.7l-1.1-0.3
		v-5.6h2.2v-4.1c-3.7-1.2,2.4-2.2,0.8-4.3c-2.9-3.6-9.7,4.6-10.4,5.4c-1.1,0.8-2.2-1.5-1.6-2.4h-4.2V89h-11.1l-1.7,1.9v-3
		c-1.4-0.5-3,0-4.5,0L1189,89l-1.5-3.1h-5v-3l-2.1,1.1l-6-3.4l0.7-1.6h-2.6l-0.9,0.8l-1.5-1.7l0.9-0.1l1.4-0.1l3.9-0.1l5.3-6.1
		c0.3,1.1,2.1,1.4,3,1.1v-3.1h4.1v3.1c1-0.5,2.9,1,2,1.9h3.2v-5h1.8l3.1-4.3l-1.9-4.5l1.1-2.2l-3.1-1.2l-1.2-4.3
		c-2.4-0.4-9.7-0.3-12,0c-0.3-2.3-3.5-4.3-5.3-5.2l4.2-6.1V37l0.7-1.1l-4.9,0.1c-2.3-18.2,2.8-6.2-6.3-20.5h-5.8l-1.1-3.1L1161,12
		c0-2.7-1.5-5.8,0-7.7c-3.5,0.5-8,0.2-11.2-1.5l-1.2-2.8h-6.8c0.8,3.2-2.7,4.8-5.3,5.1l-2.7,3c-0.8,0.3-0.8-1.6-0.7-1.9
		c-3.1,1.7-5.6,5.9-6.5,9.2l-1.6-0.3V9.3l-4-2.4c-0.8-0.6-0.5-2.3,0.3-2.7c-3.5,0.5-8,0.2-11.2-1.5l-1-2.7h-6.8
		c0.8,3.2-2.7,4.8-5.3,5.1l-2.7,3c-0.8,0.3-0.8-1.6-0.7-1.9c-3.1,1.7-5.6,5.9-6.5,9.2l-1.6-0.3V9.3l-6.5-3.2c-3,1.1-6.3,1.9-9.6,2
		c-1,2.3-3.3,5.2-6.1,4.2c-1.4,2.1-1.6,5.5-1.3,8l3.1,4.8l-1.1,6.6l-4.3,1.9l-6.8-1.9l-3.8,2.3l-0.9-2.2l-5-1.5v-1.6
		c-5.4-2.9-12.1-6.1-18.4-5.1c-2.5,2.1-2.7,6.1-6.3,7c0,1.7,0.1,3.7-0.3,5.3c-1.8-1.8-5.9-1.5-8.1-1.2l-1.5-3l-5-1.5v-1.6
		c-5.4-2.9-12.1-6.1-18.4-5.1c-2.5,2.1-2.7,6.1-6.3,7c0,1.7,0.1,3.7-0.3,5.3c-2.1,1.3-5.2,2.6-7.7,1.9l-1.2,4.3l-3.9,1.9l-2.1-1.9
		l-9.1,0.8l-0.3,3.6c-0.2-1.9-4.1-1.2-3.1,1.7L950,46l0.7-1c-0.1-2.7-6,2.5-3.9-2.3l-2.5,1.1c-0.4-0.7-3-1.7-3.6-1.1
		c-1.2,1.2,1.8,3.5,0.8,4.2l-4.4,1.1l-3.4-2.3c-0.8,1,0.7,3.4,1.8,2.5c-3.4,2.7-6.7,5.1-11.1,5.7l-1.9,1.5v8.7l5,5.3
		c-1.4-1-1.5,3.3,0,2.4v4.5l-5,1.5v1.8c1,1,3.1-1.7,4,0h2.8l1.5-6.9l1.7,1.1c0.7,2.8-0.3,6.9-2.2,9h-6.9l-1.2,4.3
		c-0.8,0.5-7.2,0.6-7.8,0v3.6h-8.9l-1.7,1.9v-3c-1.4-0.5-3,0-4.5,0l-0.5,1.1l-1.5-3.1h-5v-3l-2.1,1.1l-6-3.4l0.7-1.6h-2.6l-0.9,0.8
		l-1.5-1.7l0.9-0.1l1.4-0.1l3.9-0.1l5.3-6.1c0.3,1.1,2.1,1.4,3,1.1v-3.1h4.1v3.1c1-0.5,2.9,1,2,1.9h3.2v-5h1.8l3.1-4.3l-1.9-4.5
		l1.1-2.2l-3.1-1.2l-1.2-4.3c-2.4-0.4-9.7-0.3-12,0c-0.3-2.3-3.5-4.3-5.3-5.2l4.2-6.1v-4.9l0.7-1.1l-4.9,0.1
		c-2.3-18.1,2.8-6.2-6.3-20.5h-5.8l-1.1-3.1l-2.3-0.4c0-2.8-1.5-5.8,0-7.7c-3.5,0.5-8,0.2-11.2-1.5l-1.2-2.8h-6.8
		c0.8,3.2-2.7,4.8-5.3,5.1l-2.7,3c-0.8,0.3-0.8-1.6-0.7-1.9c-3.1,1.7-5.6,5.9-6.5,9.2l-1.6-0.3V11l-6.5-3.2c-3,1.1-6.3,1.9-9.6,2
		c-1,2.3-3.3,5.2-6.1,4.2c-1.4,2.1-1.6,5.5-1.3,8l3.1,4.8l-1.1,6.6l-4.3,1.9l-6.8-1.9l-6.7,3.1l-1.6-1.1h-4.4l-1.6,1.1l-3.1-1.2
		l-4.5,1.2l-4.3,6.2h-2.5c-2.6-5.3-8.1-6.4-13.5-6.2l-1.5-3l-5-1.5v-1.6c-5.4-2.9-12.1-6.1-18.4-5.1c-2.5,2.1-2.7,6.1-6.3,7
		c0,1.7,0.1,3.7-0.3,5.3c-2.1,1.3-5.2,2.6-7.7,1.9l-1.2,4.3l-3.9,1.9l-2.1-1.9l-9.1,0.8l-0.3,3.6c-0.2-1.9-4.1-1.2-3.1,1.7l-1.6-2.1
		l0.7-1c-0.1-2.7-6,2.5-3.9-2.3l-2.5,1.1c-0.4-0.7-3-1.7-3.6-1.1c-1.2,1.2,1.8,3.5,0.8,4.2l-4.4,1.1l-3.4-2.3
		c-0.8,1,0.7,3.4,1.8,2.5c-3.4,2.7-6.7,5.1-11.1,5.7l-1.9,1.5V66l5,5.3c-1.4-1-1.5,3.3,0,2.4v4.5l-5,1.5v1.8c1,1,3.1-1.7,4,0h2.8
		l1.5-6.9l1.7,1.1c0.7,2.8-0.3,6.9-2.2,9h-6.9l-1.2,4.3c-0.8,0.5-7.2,0.6-7.8,0v8c-2.4,1.1-2.1-2.2-4.2-1.1l-4.1,5.3
		c0.4-1.5-2.6-0.8-3.1,0l-3.2-1.1c-0.3,0.8,0,2.6,1.1,2.8l-3.1-0.1c0.3,2.3,0.6,7.7-1.1,9.6l-8.7,1.9L638.2,147.7z"/>
	<path class="st1" d="M638,147.7h3.8v-2.5l11.1-3.5l1.7,1c6.5-2.1-2.4-5.1-2.4-5.1l5.8-3.1h-3.2l-3.9-4.7l0.9-2.3l7-1.3l1.2-1.7
		l2.5,0.6c0,0,0.6-0.8,1.4-1.5c0.8-0.8,4.2-1,4.2-1l2,2.4c0,0,1.8-0.3,2.1-0.6c0.3-0.4,1.3,1,1.3,1l0.8,2.3l2.7-0.8l2.1,1.8l1,1.9
		h-0.2c2.6,1,5.1,1.4,7.1-0.2l-4.3-3l-0.7-3l4.9,0.1l7.5,3.8l-1.2-1.1c3.2-3.9,3.9,5.2,9.3,5.4l0.9-3.2l-1-0.6l11.3-0.7l1.3-1.4
		c5.4-1.1,10.5,1.4,14.9,4l0.7-1l6.5-8.9l1.6-0.1v-2.9l4-1.2l-0.3-1.3l12.9,6l1.3-1.4c5.4-1.1,10.5,1.4,14.9,4l0.7-1l6.5,4.6
		l1.6-0.1v-2.9c7.5-1.9,13.6,10.4,20.6,13.1l1.3,4l-3.1,2.4l1.1,3.3c4.8,2.2,10.5-1.8,15,1.1l0.9-1.1l5-0.8v-0.8
		c9.2-2.5,16.2-4.3,24.7,1c-3.3,3.1,7.4,2.2,8.5,2.1l1.5-1.5l5-0.8v-0.8c9.2-2.5,16.2-4.3,24.7,1l0.3,2.7l7.8,1l1.2,2.1l4,0.9l2.1-1
		l9.1,0.4l0.3,2.1c4.4,2.2,9.7-1.5,14-2.1l-0.9,2.1l7.8-0.6l-1.9,1.2c4.2,1.7,9.1,1.6,13.2,3.6v4.4l-5,2.7v3.4l5,0.8v0.9h-6.9
		l-1.5-3.5l-1.7,3l2.3,2.1h7c1.2,0,12.4,1.9,9,4h9l1.7,1c6.5-2.1,13.1-3.6,19.7-5.2l-0.8-0.8l5-0.5l-6.2-0.2
		c-3.6-2.4-7.8-4.7-12.5-4.1v1.5l-2,0.2v0.8H961l-4.9-4.7l1.9-2.3l-1.2-1.1c7.1-1.6,15.9-0.8,21.7-5.4l-4.3-3l-0.7-3l4.9,0.1v-3.6
		l-1.2-1.1c3.2-3.9,11.4-7.5,16.7-7.3l0.9-3.2l-1-0.6l11.3-0.7l1.3-1.4c5.4-1.1,10.5,1.4,14.9,4l0.7-1l6.5,4.6l1.6-0.1v-2.9
		c7.5-1.9,15.3-1.2,22.3,1.5l1.3,4l-3.1,2.4l1.1,3.3l33.7,1.5l4.3,3.1c4.8-2.2,10.7-4.3,16.1-3.1l1.5-1.5l5-0.8v-0.8
		c9.2-2.5,16.2-4.3,24.7,1l0.3,2.7l7.8,1l1.2,2.1l4,0.9l2.1-1l9.1,0.4l0.3,2.1c0.7,0.4,1.5,0.6,2.2,0.6l-2.3-3.3
		c-0.4-2.2-0.2-5.3,1.3-7.2c2.8,0.9,5.2-1.7,6.2-3.8c3.2,0,6.6-0.8,9.6-1.8l6.6,2.9v5.2l1.6,0.2c0.9-3,3.4-6.8,6.5-8.4
		c-0.1,0.3-0.2,2,0.7,1.7l2.7-2.7c2.6-0.3,6.1-1.7,5.3-4.6h6.9l1.3,2.5c3.2,1.5,7.8,1.7,11.3,1.3c-0.9,0.4-1.2,1.9-0.3,2.4l4,2.2
		v5.2l1.6,0.2c0.9-3,3.4-6.8,6.5-8.4c-0.1,0.3-0.2,2,0.7,1.7l2.7-2.7c2.6-0.3,6.1-1.7,5.3-4.6h6.9l1.3,2.5c3.2,1.5,7.8,1.7,11.3,1.3
		c-1.5,1.8,0,4.5,0,7l2.3,0.3l1.1,2.8h5.8c0.8,1.2,5,2,5.6,2.8v218H638V147.7z"/>
</g>
<g>
	<path class="st0" d="M1276.2,147.7h3.6v-2.5l11.1-3.5l1.7,1c6.5-2.1-2.4-5.1-2.4-5.1l5.8-3.1h-3.2l-3.9-4.7l0.9-2.3l7-1.3l1.2-1.7
		l2.5,0.6c0,0,0.6-0.8,1.4-1.5c0.8-0.8,4.2-1,4.2-1l2,2.4c0,0,1.8-0.3,2.1-0.6c0.3-0.4,1.3,1,1.3,1l0.8,2.3l2.7-0.8l2.1,1.8l1,1.9
		h-0.2c2.6,1,5.1,1.4,7.1-0.2l-4.3-3l-0.7-3l4.9,0.1l7.5,3.8l-1.2-1.1c3.2-3.9,3.9,5.2,9.3,5.4l0.9-3.2l-1-0.6l11.3-0.7l1.3-1.4
		c5.4-1.1,10.5,1.4,14.9,4l0.7-1l6.5-8.9l1.6-0.1v-2.9l4-1.2l-0.3-1.3l12.9,6l1.3-1.4c5.4-1.1,10.5,1.4,14.9,4l0.7-1l6.5,4.6
		l1.6-0.1v-2.9c7.5-1.9,13.6,10.4,20.6,13.1l1.3,4l-3.1,2.4l1.1,3.3c4.8,2.2,10.5-1.8,15,1.1l0.9-1.1l5-0.8v-0.8
		c9.2-2.5,16.2-4.3,24.7,1c-3.3,3.1,7.4,2.2,8.5,2.1l1.5-1.5l5-0.8v-0.8c9.2-2.5,16.2-4.3,24.7,1l0.3,2.7l7.8,1l1.2,2.1l4,0.9l2.1-1
		l9.1,0.4l0.3,2.1c4.4,2.2,9.7-1.5,14-2.1l-0.9,2.1l7.8-0.6l-1.9,1.2c4.2,1.7,9.1,1.6,13.2,3.6v4.4l-5,2.7v3.4l5,0.8v0.9h-6.9
		l-1.5-3.5l-1.7,3l2.3,2.1h7c1.2,0,12.4,1.9,9,4h4v-0.2c-0.4-0.2-1.4-0.2-1.1-0.5c0.6-0.9,1.8-0.2,2.1,0.7h2.9
		c0.3-0.9,1.3-1.8,2-1.1c0,0.6,0,1.1-0.1,1.6l0.9,0.5c0.8-0.3,1.6-0.5,2.3-0.7c0-0.2,0-0.5,0.3-0.6c0.7-0.5,2.2-0.9,2.9-0.3
		c4.7-1.3,9.4-2.4,14.2-3.6l-0.8-0.8l5-0.5l-6.2-0.2c-3.6-2.4-7.8-4.7-12.5-4.1v1.5l-2,0.2v0.8h-3.2l-4.9-4.7l1.9-2.3l-1.2-1.1
		c7.1-1.6,15.9-0.8,21.7-5.4l-4.3-3l-0.7-3l4.9,0.1v-3.6l-1.2-1.1c3.2-3.9,11.4-7.5,16.7-7.3l0.9-3.2l-1-0.6l11.3-0.7l1.3-1.4
		c5.4-1.1,10.5,1.4,14.9,4l0.7-1l6.5,4.6l1.6-0.1v-2.9c7.5-1.9,15.3-1.2,22.3,1.5l1.3,4l-3.1,2.4l1.1,3.3l33.7,1.5l4.3,3.1
		c4.8-2.2,10.7-4.3,16.1-3.1l1.5-1.5l5-0.8v-0.8c9.2-2.5,16.2-4.3,24.7,1l0.3,2.7l7.8,1l1.2,2.1l4,0.9l2.1-1l9.1,0.4l0.3,2.1
		c0.7,0.4,1.5,0.6,2.2,0.6l-2.3-3.3c-0.4-2.2-0.2-5.3,1.3-7.2c2.8,0.9,5.2-1.7,6.2-3.8c3.2,0,6.6-0.8,9.6-1.8l6.6,2.9v5.2l1.6,0.2
		c0.9-3,3.4-6.8,6.5-8.4c-0.1,0.3-0.2,2,0.7,1.7l2.7-2.7c2.6-0.3,6.1-1.7,5.3-4.6h6.9l1.3,2.5c3.2,1.5,7.8,1.7,11.3,1.3
		c-0.9,0.4-1.2,1.9-0.3,2.4l4,2.2v5.2l1.6,0.2c0.9-3,3.4-6.8,6.5-8.4c-0.1,0.3-0.2,2,0.7,1.7l2.7-2.7c2.6-0.3,6.1-1.7,5.3-4.6h6.9
		l1.3,2.5c3.2,1.5,7.8,1.7,11.3,1.3c-1.5,1.8,0,4.5,0,7l2.3,0.3l1.1,2.8h5.8c0.8,1.1,4.6,1.9,5.5,2.7V111
		c-3.4,1.4-11.7,2.8-12.2,2.5l3-0.6v-4.5c-0.6-0.9-2.2-1-3.2-0.8v3h-5c0,0,4.9-8.3,0-8.6c0,0-2.4,1.4-3.1,0v-1.8c0,0-6.3-1.8-8,0
		c0,0-2.3,3.9,0,5.1h3.1c0.5,1.7-0.6,4-1.5,5.3c0,0-0.6,1.3-1.3,0c0.3-2.4-0.8-5.7-2.7-7.3c-1-0.9-2.8,0.8-2.2,1.9h-3.2
		c2.2-3,0.6-3.1,0.5-3.1c0,0-2.3-0.4-3.4,0.4l-2.7-0.7v-1.6c0,0-1.9-1.6-3,0l-0.5,1.1c0,0-1.7-0.2-1.5-1.7l2.2-3.4
		c0,0,1.4,0.7,2.8,0c0.8-1.2,0.8-2,0-2.3h-5.7c-0.4-1-2.4-1-2.3-0.7c0,0-3,1.5,1.8,5.2c-1.9,3.3-2.9,2.8-4.9,6.1l-2,0.7l-1.1-0.3
		v-5.6h2.2v-4.1c-3.7-1.2,2.4-2.2,0.8-4.3c-2.9-3.6-9.7,4.6-10.4,5.4c-1.1,0.8-2.2-1.5-1.6-2.4h-4.2V89h-11.1l-1.7,1.9v-3
		c-1.4-0.5-3,0-4.5,0L1827,89l-1.5-3.1h-5v-3l-2.1,1.1l-6-3.4l0.7-1.6h-2.6l-0.9,0.8l-1.5-1.7l0.9-0.1l1.4-0.1l3.9-0.1l5.3-6.1
		c0.3,1.1,2.1,1.4,3,1.1v-3.1h4.1v3.1c1-0.5,2.9,1,2,1.9h3.2v-5h1.8l3.1-4.3l-1.9-4.5l1.1-2.2l-3.1-1.2l-1.2-4.3
		c-2.4-0.4-9.7-0.3-12,0c-0.3-2.3-3.5-4.3-5.3-5.2l4.2-6.1V37l0.7-1.1l-4.9,0.1c-2.3-18.2,2.8-6.2-6.3-20.5h-5.8l-1.1-3.1L1799,12
		c0-2.7-1.5-5.8,0-7.7c-3.5,0.5-8,0.2-11.2-1.5l-1.2-2.8h-6.8c0.8,3.2-2.7,4.8-5.3,5.1l-2.7,3c-0.8,0.3-0.8-1.6-0.7-1.9
		c-3.1,1.7-5.6,5.9-6.5,9.2l-1.6-0.3V9.3l-4-2.4c-0.8-0.6-0.5-2.3,0.3-2.7c-3.5,0.5-8,0.2-11.2-1.5l-1-2.7h-6.8
		c0.8,3.2-2.7,4.8-5.3,5.1l-2.7,3c-0.8,0.3-0.8-1.6-0.7-1.9c-3.1,1.7-5.6,5.9-6.5,9.2l-1.6-0.3V9.3l-6.5-3.2c-3,1.1-6.3,1.9-9.6,2
		c-1,2.3-3.3,5.2-6.1,4.2c-1.4,2.1-1.6,5.5-1.3,8l3.1,4.8l-1.1,6.6l-4.3,1.9l-6.8-1.9l-3.8,2.3l-0.9-2.2l-5-1.5v-1.6
		c-5.4-2.9-12.1-6.1-18.4-5.1c-2.5,2.1-2.7,6.1-6.3,7c0,1.7,0.1,3.7-0.3,5.3c-1.8-1.8-5.9-1.5-8.1-1.2l-1.5-3l-5-1.5v-1.6
		c-5.4-2.9-12.1-6.1-18.4-5.1c-2.5,2.1-2.7,6.1-6.3,7c0,1.7,0.1,3.7-0.3,5.3c-2.1,1.3-5.2,2.6-7.7,1.9l-1.2,4.3l-3.9,1.9l-2.1-1.9
		l-9.1,0.8l-0.3,3.6c-0.2-1.9-4.1-1.2-3.1,1.7L1588,46l0.7-1c-0.1-2.7-6,2.5-3.9-2.3l-2.5,1.1c-0.4-0.7-3-1.7-3.6-1.1
		c-1.2,1.2,1.8,3.5,0.8,4.2l-4.4,1.1l-3.4-2.3c-0.8,1,0.7,3.4,1.8,2.5c-3.4,2.7-6.7,5.1-11.1,5.7l-1.9,1.5v8.7l5,5.3
		c-1.4-1-1.5,3.3,0,2.4v4.5l-5,1.5v1.8c1,1,3.1-1.7,4,0h2.8l1.5-6.9l1.7,1.1c0.7,2.8-0.3,6.9-2.2,9h-6.9l-1.2,4.3
		c-0.8,0.5-7.2,0.6-7.8,0v3.6h-8.9l-1.7,1.9v-3c-1.4-0.5-3,0-4.5,0l-0.5,1.1l-1.5-3.1h-5v-3l-2.1,1.1l-6-3.4l0.7-1.6h-2.6l-0.9,0.8
		l-1.5-1.7l0.9-0.1l1.4-0.1l3.9-0.1l5.3-6.1c0.3,1.1,2.1,1.4,3,1.1v-3.1h4.1v3.1c1-0.5,2.9,1,2,1.9h3.2v-5h1.8l3.1-4.3l-1.9-4.5
		l1.1-2.2l-3.1-1.2l-1.2-4.3c-2.4-0.4-9.7-0.3-12,0c-0.3-2.3-3.5-4.3-5.3-5.2l4.2-6.1v-4.9l0.7-1.1l-4.9,0.1
		c-2.3-18.1,2.8-6.2-6.3-20.5h-5.8l-1.1-3.1l-2.3-0.4c0-2.8-1.5-5.8,0-7.7c-3.5,0.5-8,0.2-11.2-1.5l-1.2-2.8h-6.8
		c0.8,3.2-2.7,4.8-5.3,5.1l-2.7,3c-0.8,0.3-0.8-1.6-0.7-1.9c-3.1,1.7-5.6,5.9-6.5,9.2l-1.6-0.3V11l-6.5-3.2c-3,1.1-6.3,1.9-9.6,2
		c-1,2.3-3.3,5.2-6.1,4.2c-1.4,2.1-1.6,5.5-1.3,8l3.1,4.8l-1.1,6.6l-4.3,1.9l-6.8-1.9l-6.7,3.1l-1.6-1.1h-4.4l-1.6,1.1l-3.1-1.2
		l-4.5,1.2l-4.3,6.2h-2.5c-2.6-5.3-8.1-6.4-13.5-6.2l-1.5-3l-5-1.5v-1.6c-5.4-2.9-12.1-6.1-18.4-5.1c-2.5,2.1-2.7,6.1-6.3,7
		c0,1.7,0.1,3.7-0.3,5.3c-2.1,1.3-5.2,2.6-7.7,1.9l-1.2,4.3l-3.9,1.9l-2.1-1.9l-9.1,0.8l-0.3,3.6c-0.2-1.9-4.1-1.2-3.1,1.7l-1.6-2.1
		l0.7-1c-0.1-2.7-6,2.5-3.9-2.3l-2.5,1.1c-0.4-0.7-3-1.7-3.6-1.1c-1.2,1.2,1.8,3.5,0.8,4.2l-4.4,1.1l-3.4-2.3
		c-0.8,1,0.7,3.4,1.8,2.5c-3.4,2.7-6.7,5.1-11.1,5.7l-1.9,1.5V66l5,5.3c-1.4-1-1.5,3.3,0,2.4v4.5l-5,1.5v1.8c1,1,3.1-1.7,4,0h2.8
		l1.5-6.9l1.7,1.1c0.7,2.8-0.3,6.9-2.2,9h-6.9l-1.2,4.3c-0.8,0.5-7.2,0.6-7.8,0v8c-2.4,1.1-2.1-2.2-4.2-1.1l-4.1,5.3
		c0.4-1.5-2.6-0.8-3.1,0l-3.2-1.1c-0.3,0.8,0,2.6,1.1,2.8l-3.1-0.1c0.3,2.3,0.6,7.7-1.1,9.6l-8.7,1.9L1276.2,147.7z"/>
	<path class="st1" d="M1276,147.7h3.8v-2.5l11.1-3.5l1.7,1c6.5-2.1-2.4-5.1-2.4-5.1l5.8-3.1h-3.2l-3.9-4.7l0.9-2.3l7-1.3l1.2-1.7
		l2.5,0.6c0,0,0.6-0.8,1.4-1.5c0.8-0.8,4.2-1,4.2-1l2,2.4c0,0,1.8-0.3,2.1-0.6c0.3-0.4,1.3,1,1.3,1l0.8,2.3l2.7-0.8l2.1,1.8l1,1.9
		h-0.2c2.6,1,5.1,1.4,7.1-0.2l-4.3-3l-0.7-3l4.9,0.1l7.5,3.8l-1.2-1.1c3.2-3.9,3.9,5.2,9.3,5.4l0.9-3.2l-1-0.6l11.3-0.7l1.3-1.4
		c5.4-1.1,10.5,1.4,14.9,4l0.7-1l6.5-8.9l1.6-0.1v-2.9l4-1.2l-0.3-1.3l12.9,6l1.3-1.4c5.4-1.1,10.5,1.4,14.9,4l0.7-1l6.5,4.6
		l1.6-0.1v-2.9c7.5-1.9,13.6,10.4,20.6,13.1l1.3,4l-3.1,2.4l1.1,3.3c4.8,2.2,10.5-1.8,15,1.1l0.9-1.1l5-0.8v-0.8
		c9.2-2.5,16.2-4.3,24.7,1c-3.3,3.1,7.4,2.2,8.5,2.1l1.5-1.5l5-0.8v-0.8c9.2-2.5,16.2-4.3,24.7,1l0.3,2.7l7.8,1l1.2,2.1l4,0.9l2.1-1
		l9.1,0.4l0.3,2.1c4.4,2.2,9.7-1.5,14-2.1l-0.9,2.1l7.8-0.6l-1.9,1.2c4.2,1.7,9.1,1.6,13.2,3.6v4.4l-5,2.7v3.4l5,0.8v0.9h-6.9
		l-1.5-3.5l-1.7,3l2.3,2.1h7c1.2,0,12.4,1.9,9,4h9l1.7,1c6.5-2.1,13.1-3.6,19.7-5.2l-0.8-0.8l5-0.5l-6.2-0.2
		c-3.6-2.4-7.8-4.7-12.5-4.1v1.5l-2,0.2v0.8h-3.2l-4.9-4.7l1.9-2.3l-1.2-1.1c7.1-1.6,15.9-0.8,21.7-5.4l-4.3-3l-0.7-3l4.9,0.1v-3.6
		l-1.2-1.1c3.2-3.9,11.4-7.5,16.7-7.3l0.9-3.2l-1-0.6l11.3-0.7l1.3-1.4c5.4-1.1,10.5,1.4,14.9,4l0.7-1l6.5,4.6l1.6-0.1v-2.9
		c7.5-1.9,15.3-1.2,22.3,1.5l1.3,4l-3.1,2.4l1.1,3.3l33.7,1.5l4.3,3.1c4.8-2.2,10.7-4.3,16.1-3.1l1.5-1.5l5-0.8v-0.8
		c9.2-2.5,16.2-4.3,24.7,1l0.3,2.7l7.8,1l1.2,2.1l4,0.9l2.1-1l9.1,0.4l0.3,2.1c0.7,0.4,1.5,0.6,2.2,0.6l-2.3-3.3
		c-0.4-2.2-0.2-5.3,1.3-7.2c2.8,0.9,5.2-1.7,6.2-3.8c3.2,0,6.6-0.8,9.6-1.8l6.6,2.9v5.2l1.6,0.2c0.9-3,3.4-6.8,6.5-8.4
		c-0.1,0.3-0.2,2,0.7,1.7l2.7-2.7c2.6-0.3,6.1-1.7,5.3-4.6h6.9l1.3,2.5c3.2,1.5,7.8,1.7,11.3,1.3c-0.9,0.4-1.2,1.9-0.3,2.4l4,2.2
		v5.2l1.6,0.2c0.9-3,3.4-6.8,6.5-8.4c-0.1,0.3-0.2,2,0.7,1.7l2.7-2.7c2.6-0.3,6.1-1.7,5.3-4.6h6.9l1.3,2.5c3.2,1.5,7.8,1.7,11.3,1.3
		c-1.5,1.8,0,4.5,0,7l2.3,0.3l1.1,2.8h5.8c0.8,1.2,5,2,5.6,2.8v218H1276V147.7z"/>
</g>
<g>
	<path class="st0" d="M1914.2,147.7h3.6v-2.5l11.1-3.5l1.7,1c6.5-2.1-2.4-5.1-2.4-5.1l5.8-3.1h-3.2l-3.9-4.7l0.9-2.3l7-1.3l1.2-1.7
		l2.5,0.6c0,0,0.6-0.8,1.4-1.5c0.8-0.8,4.2-1,4.2-1l2,2.4c0,0,1.8-0.3,2.1-0.6c0.3-0.4,1.3,1,1.3,1l0.8,2.3l2.7-0.8l2.1,1.8l1,1.9
		h-0.2c2.6,1,5.1,1.4,7.1-0.2l-4.3-3l-0.7-3l4.9,0.1l7.5,3.8l-1.2-1.1c3.2-3.9,3.9,5.2,9.3,5.4l0.9-3.2l-1-0.6l11.3-0.7l1.3-1.4
		c5.4-1.1,10.5,1.4,14.9,4l0.7-1l6.5-8.9l1.6-0.1v-2.9l4-1.2l-0.3-1.3l12.9,6l1.3-1.4c5.4-1.1,10.5,1.4,14.9,4l0.7-1l6.5,4.6
		l1.6-0.1v-2.9c7.5-1.9,13.6,10.4,20.6,13.1l1.3,4l-3.1,2.4l1.1,3.3c4.8,2.2,10.5-1.8,15,1.1l0.9-1.1l5-0.8v-0.8
		c9.2-2.5,16.2-4.3,24.7,1c-3.3,3.1,7.4,2.2,8.5,2.1l1.5-1.5l5-0.8v-0.8c9.2-2.5,16.2-4.3,24.7,1l0.3,2.7l7.8,1l1.2,2.1l4,0.9l2.1-1
		l9.1,0.4l0.3,2.1c4.4,2.2,9.7-1.5,14-2.1l-0.9,2.1l7.8-0.6l-1.9,1.2c4.2,1.7,9.1,1.6,13.2,3.6v4.4l-5,2.7v3.4l5,0.8v0.9h-6.9
		l-1.5-3.5l-1.7,3l2.3,2.1h7c1.2,0,12.4,1.9,9,4h4v-0.2c-0.4-0.2-1.4-0.2-1.1-0.5c0.6-0.9,1.8-0.2,2.1,0.7h2.9
		c0.3-0.9,1.3-1.8,2-1.1c0,0.6,0,1.1-0.1,1.6l0.9,0.5c0.8-0.3,1.6-0.5,2.3-0.7c0-0.2,0-0.5,0.3-0.6c0.7-0.5,2.2-0.9,2.9-0.3
		c4.7-1.3,9.4-2.4,14.2-3.6l-0.8-0.8l5-0.5l-6.2-0.2c-3.6-2.4-7.8-4.7-12.5-4.1v1.5l-2,0.2v0.8h-3.2l-4.9-4.7l1.9-2.3l-1.2-1.1
		c7.1-1.6,15.9-0.8,21.7-5.4l-4.3-3l-0.7-3l4.9,0.1v-3.6l-1.2-1.1c3.2-3.9,11.4-7.5,16.7-7.3l0.9-3.2l-1-0.6l11.3-0.7l1.3-1.4
		c5.4-1.1,10.5,1.4,14.9,4l0.7-1l6.5,4.6l1.6-0.1v-2.9c7.5-1.9,15.3-1.2,22.3,1.5l1.3,4l-3.1,2.4l1.1,3.3l33.7,1.5l4.3,3.1
		c4.8-2.2,10.7-4.3,16.1-3.1l1.5-1.5l5-0.8v-0.8c9.2-2.5,16.2-4.3,24.7,1l0.3,2.7l7.8,1l1.2,2.1l4,0.9l2.1-1l9.1,0.4l0.3,2.1
		c0.7,0.4,1.5,0.6,2.2,0.6l-2.3-3.3c-0.4-2.2-0.2-5.3,1.3-7.2c2.8,0.9,5.2-1.7,6.2-3.8c3.2,0,6.6-0.8,9.6-1.8l6.6,2.9v5.2l1.6,0.2
		c0.9-3,3.4-6.8,6.5-8.4c-0.1,0.3-0.2,2,0.7,1.7l2.7-2.7c2.6-0.3,6.1-1.7,5.3-4.6h6.9l1.3,2.5c3.2,1.5,7.8,1.7,11.3,1.3
		c-0.9,0.4-1.2,1.9-0.3,2.4l4,2.2v5.2l1.6,0.2c0.9-3,3.4-6.8,6.5-8.4c-0.1,0.3-0.2,2,0.7,1.7l2.7-2.7c2.6-0.3,6.1-1.7,5.3-4.6h6.9
		l1.3,2.5c3.2,1.5,7.8,1.7,11.3,1.3c-1.5,1.8,0,4.5,0,7l2.3,0.3l1.1,2.8h5.8c0.8,1.1,4.6,1.9,5.5,2.7V111
		c-3.4,1.4-11.7,2.8-12.2,2.5l3-0.6v-4.5c-0.6-0.9-2.2-1-3.2-0.8v3h-5c0,0,4.9-8.3,0-8.6c0,0-2.4,1.4-3.1,0v-1.8c0,0-6.3-1.8-8,0
		c0,0-2.3,3.9,0,5.1h3.1c0.5,1.7-0.6,4-1.5,5.3c0,0-0.6,1.3-1.3,0c0.3-2.4-0.8-5.7-2.7-7.3c-1-0.9-2.8,0.8-2.2,1.9h-3.2
		c2.2-3,0.6-3.1,0.5-3.1c0,0-2.3-0.4-3.4,0.4l-2.7-0.7v-1.6c0,0-1.9-1.6-3,0l-0.5,1.1c0,0-1.7-0.2-1.5-1.7l2.2-3.4
		c0,0,1.4,0.7,2.8,0c0.8-1.2,0.8-2,0-2.3h-5.7c-0.4-1-2.4-1-2.3-0.7c0,0-3,1.5,1.8,5.2c-1.9,3.3-2.9,2.8-4.9,6.1l-2,0.7l-1.1-0.3
		v-5.6h2.2v-4.1c-3.7-1.2,2.4-2.2,0.8-4.3c-2.9-3.6-9.7,4.6-10.4,5.4c-1.1,0.8-2.2-1.5-1.6-2.4h-4.2V89h-11.1l-1.7,1.9v-3
		c-1.4-0.5-3,0-4.5,0L2465,89l-1.5-3.1h-5v-3l-2.1,1.1l-6-3.4l0.7-1.6h-2.6l-0.9,0.8l-1.5-1.7l0.9-0.1l1.4-0.1l3.9-0.1l5.3-6.1
		c0.3,1.1,2.1,1.4,3,1.1v-3.1h4.1v3.1c1-0.5,2.9,1,2,1.9h3.2v-5h1.8l3.1-4.3l-1.9-4.5l1.1-2.2l-3.1-1.2l-1.2-4.3
		c-2.4-0.4-9.7-0.3-12,0c-0.3-2.3-3.5-4.3-5.3-5.2l4.2-6.1V37l0.7-1.1l-4.9,0.1c-2.3-18.2,2.8-6.2-6.3-20.5h-5.8l-1.1-3.1L2437,12
		c0-2.7-1.5-5.8,0-7.7c-3.5,0.5-8,0.2-11.2-1.5l-1.2-2.8h-6.8c0.8,3.2-2.7,4.8-5.3,5.1l-2.7,3c-0.8,0.3-0.8-1.6-0.7-1.9
		c-3.1,1.7-5.6,5.9-6.5,9.2l-1.6-0.3V9.3l-4-2.4c-0.8-0.6-0.5-2.3,0.3-2.7c-3.5,0.5-8,0.2-11.2-1.5l-1-2.7h-6.8
		c0.8,3.2-2.7,4.8-5.3,5.1l-2.7,3c-0.8,0.3-0.8-1.6-0.7-1.9c-3.1,1.7-5.6,5.9-6.5,9.2l-1.6-0.3V9.3l-6.5-3.2c-3,1.1-6.3,1.9-9.6,2
		c-1,2.3-3.3,5.2-6.1,4.2c-1.4,2.1-1.6,5.5-1.3,8l3.1,4.8l-1.1,6.6l-4.3,1.9l-6.8-1.9l-3.8,2.3l-0.9-2.2l-5-1.5v-1.6
		c-5.4-2.9-12.1-6.1-18.4-5.1c-2.5,2.1-2.7,6.1-6.3,7c0,1.7,0.1,3.7-0.3,5.3c-1.8-1.8-5.9-1.5-8.1-1.2l-1.5-3l-5-1.5v-1.6
		c-5.4-2.9-12.1-6.1-18.4-5.1c-2.5,2.1-2.7,6.1-6.3,7c0,1.7,0.1,3.7-0.3,5.3c-2.1,1.3-5.2,2.6-7.7,1.9l-1.2,4.3l-3.9,1.9l-2.1-1.9
		l-9.1,0.8l-0.3,3.6c-0.2-1.9-4.1-1.2-3.1,1.7L2226,46l0.7-1c-0.1-2.7-6,2.5-3.9-2.3l-2.5,1.1c-0.4-0.7-3-1.7-3.6-1.1
		c-1.2,1.2,1.8,3.5,0.8,4.2l-4.4,1.1l-3.4-2.3c-0.8,1,0.7,3.4,1.8,2.5c-3.4,2.7-6.7,5.1-11.1,5.7l-1.9,1.5v8.7l5,5.3
		c-1.4-1-1.5,3.3,0,2.4v4.5l-5,1.5v1.8c1,1,3.1-1.7,4,0h2.8l1.5-6.9l1.7,1.1c0.7,2.8-0.3,6.9-2.2,9h-6.9l-1.2,4.3
		c-0.8,0.5-7.2,0.6-7.8,0v3.6h-8.9l-1.7,1.9v-3c-1.4-0.5-3,0-4.5,0l-0.5,1.1l-1.5-3.1h-5v-3l-2.1,1.1l-6-3.4l0.7-1.6h-2.6l-0.9,0.8
		l-1.5-1.7l0.9-0.1l1.4-0.1l3.9-0.1l5.3-6.1c0.3,1.1,2.1,1.4,3,1.1v-3.1h4.1v3.1c1-0.5,2.9,1,2,1.9h3.2v-5h1.8l3.1-4.3l-1.9-4.5
		l1.1-2.2l-3.1-1.2l-1.2-4.3c-2.4-0.4-9.7-0.3-12,0c-0.3-2.3-3.5-4.3-5.3-5.2l4.2-6.1v-4.9l0.7-1.1l-4.9,0.1
		c-2.3-18.1,2.8-6.2-6.3-20.5h-5.8l-1.1-3.1l-2.3-0.4c0-2.8-1.5-5.8,0-7.7c-3.5,0.5-8,0.2-11.2-1.5l-1.2-2.8h-6.8
		c0.8,3.2-2.7,4.8-5.3,5.1l-2.7,3c-0.8,0.3-0.8-1.6-0.7-1.9c-3.1,1.7-5.6,5.9-6.5,9.2l-1.6-0.3V11l-6.5-3.2c-3,1.1-6.3,1.9-9.6,2
		c-1,2.3-3.3,5.2-6.1,4.2c-1.4,2.1-1.6,5.5-1.3,8l3.1,4.8l-1.1,6.6l-4.3,1.9l-6.8-1.9l-6.7,3.1l-1.6-1.1h-4.4l-1.6,1.1l-3.1-1.2
		l-4.5,1.2l-4.3,6.2h-2.5c-2.6-5.3-8.1-6.4-13.5-6.2l-1.5-3l-5-1.5v-1.6c-5.4-2.9-12.1-6.1-18.4-5.1c-2.5,2.1-2.7,6.1-6.3,7
		c0,1.7,0.1,3.7-0.3,5.3c-2.1,1.3-5.2,2.6-7.7,1.9l-1.2,4.3l-3.9,1.9l-2.1-1.9l-9.1,0.8l-0.3,3.6c-0.2-1.9-4.1-1.2-3.1,1.7l-1.6-2.1
		l0.7-1c-0.1-2.7-6,2.5-3.9-2.3l-2.5,1.1c-0.4-0.7-3-1.7-3.6-1.1c-1.2,1.2,1.8,3.5,0.8,4.2l-4.4,1.1l-3.4-2.3
		c-0.8,1,0.7,3.4,1.8,2.5c-3.4,2.7-6.7,5.1-11.1,5.7l-1.9,1.5V66l5,5.3c-1.4-1-1.5,3.3,0,2.4v4.5l-5,1.5v1.8c1,1,3.1-1.7,4,0h2.8
		l1.5-6.9l1.7,1.1c0.7,2.8-0.3,6.9-2.2,9h-6.9l-1.2,4.3c-0.8,0.5-7.2,0.6-7.8,0v8c-2.4,1.1-2.1-2.2-4.2-1.1l-4.1,5.3
		c0.4-1.5-2.6-0.8-3.1,0l-3.2-1.1c-0.3,0.8,0,2.6,1.1,2.8l-3.1-0.1c0.3,2.3,0.6,7.7-1.1,9.6l-8.7,1.9L1914.2,147.7z"/>
	<path class="st1" d="M1914,147.7h3.8v-2.5l11.1-3.5l1.7,1c6.5-2.1-2.4-5.1-2.4-5.1l5.8-3.1h-3.2l-3.9-4.7l0.9-2.3l7-1.3l1.2-1.7
		l2.5,0.6c0,0,0.6-0.8,1.4-1.5c0.8-0.8,4.2-1,4.2-1l2,2.4c0,0,1.8-0.3,2.1-0.6c0.3-0.4,1.3,1,1.3,1l0.8,2.3l2.7-0.8l2.1,1.8l1,1.9
		h-0.2c2.6,1,5.1,1.4,7.1-0.2l-4.3-3l-0.7-3l4.9,0.1l7.5,3.8l-1.2-1.1c3.2-3.9,3.9,5.2,9.3,5.4l0.9-3.2l-1-0.6l11.3-0.7l1.3-1.4
		c5.4-1.1,10.5,1.4,14.9,4l0.7-1l6.5-8.9l1.6-0.1v-2.9l4-1.2l-0.3-1.3l12.9,6l1.3-1.4c5.4-1.1,10.5,1.4,14.9,4l0.7-1l6.5,4.6
		l1.6-0.1v-2.9c7.5-1.9,13.6,10.4,20.6,13.1l1.3,4l-3.1,2.4l1.1,3.3c4.8,2.2,10.5-1.8,15,1.1l0.9-1.1l5-0.8v-0.8
		c9.2-2.5,16.2-4.3,24.7,1c-3.3,3.1,7.4,2.2,8.5,2.1l1.5-1.5l5-0.8v-0.8c9.2-2.5,16.2-4.3,24.7,1l0.3,2.7l7.8,1l1.2,2.1l4,0.9l2.1-1
		l9.1,0.4l0.3,2.1c4.4,2.2,9.7-1.5,14-2.1l-0.9,2.1l7.8-0.6l-1.9,1.2c4.2,1.7,9.1,1.6,13.2,3.6v4.4l-5,2.7v3.4l5,0.8v0.9h-6.9
		l-1.5-3.5l-1.7,3l2.3,2.1h7c1.2,0,12.4,1.9,9,4h9l1.7,1c6.5-2.1,13.1-3.6,19.7-5.2l-0.8-0.8l5-0.5l-6.2-0.2
		c-3.6-2.4-7.8-4.7-12.5-4.1v1.5l-2,0.2v0.8h-3.2l-4.9-4.7l1.9-2.3l-1.2-1.1c7.1-1.6,15.9-0.8,21.7-5.4l-4.3-3l-0.7-3l4.9,0.1v-3.6
		l-1.2-1.1c3.2-3.9,11.4-7.5,16.7-7.3l0.9-3.2l-1-0.6l11.3-0.7l1.3-1.4c5.4-1.1,10.5,1.4,14.9,4l0.7-1l6.5,4.6l1.6-0.1v-2.9
		c7.5-1.9,15.3-1.2,22.3,1.5l1.3,4l-3.1,2.4l1.1,3.3l33.7,1.5l4.3,3.1c4.8-2.2,10.7-4.3,16.1-3.1l1.5-1.5l5-0.8v-0.8
		c9.2-2.5,16.2-4.3,24.7,1l0.3,2.7l7.8,1l1.2,2.1l4,0.9l2.1-1l9.1,0.4l0.3,2.1c0.7,0.4,1.5,0.6,2.2,0.6l-2.3-3.3
		c-0.4-2.2-0.2-5.3,1.3-7.2c2.8,0.9,5.2-1.7,6.2-3.8c3.2,0,6.6-0.8,9.6-1.8l6.6,2.9v5.2l1.6,0.2c0.9-3,3.4-6.8,6.5-8.4
		c-0.1,0.3-0.2,2,0.7,1.7l2.7-2.7c2.6-0.3,6.1-1.7,5.3-4.6h6.9l1.3,2.5c3.2,1.5,7.8,1.7,11.3,1.3c-0.9,0.4-1.2,1.9-0.3,2.4l4,2.2
		v5.2l1.6,0.2c0.9-3,3.4-6.8,6.5-8.4c-0.1,0.3-0.2,2,0.7,1.7l2.7-2.7c2.6-0.3,6.1-1.7,5.3-4.6h6.9l1.3,2.5c3.2,1.5,7.8,1.7,11.3,1.3
		c-1.5,1.8,0,4.5,0,7l2.3,0.3l1.1,2.8h5.8c0.8,1.2,5,2,5.6,2.8v218H1914V147.7z"/>
</g>
<g>
	<path class="st0" d="M2552.2,147.7h3.6v-2.5l11.1-3.5l1.7,1c6.5-2.1-2.4-5.1-2.4-5.1l5.8-3.1h-3.2l-3.9-4.7l0.9-2.3l7-1.3l1.2-1.7
		l2.5,0.6c0,0,0.6-0.8,1.4-1.5c0.8-0.8,4.2-1,4.2-1l2,2.4c0,0,1.8-0.3,2.1-0.6c0.3-0.4,1.3,1,1.3,1l0.8,2.3l2.7-0.8l2.1,1.8l1,1.9
		h-0.2c2.6,1,5.1,1.4,7.1-0.2l-4.3-3l-0.7-3l4.9,0.1l7.5,3.8l-1.2-1.1c3.2-3.9,3.9,5.2,9.3,5.4l0.9-3.2l-1-0.6l11.3-0.7l1.3-1.4
		c5.4-1.1,10.5,1.4,14.9,4l0.7-1l6.5-8.9l1.6-0.1v-2.9l4-1.2l-0.3-1.3l12.9,6l1.3-1.4c5.4-1.1,10.5,1.4,14.9,4l0.7-1l6.5,4.6
		l1.6-0.1v-2.9c7.5-1.9,13.6,10.4,20.6,13.1l1.3,4l-3.1,2.4l1.1,3.3c4.8,2.2,10.5-1.8,15,1.1l0.9-1.1l5-0.8v-0.8
		c9.2-2.5,16.2-4.3,24.7,1c-3.3,3.1,7.4,2.2,8.5,2.1l1.5-1.5l5-0.8v-0.8c9.2-2.5,16.2-4.3,24.7,1l0.3,2.7l7.8,1l1.2,2.1l4,0.9l2.1-1
		l9.1,0.4l0.3,2.1c4.4,2.2,9.7-1.5,14-2.1l-0.9,2.1l7.8-0.6l-1.9,1.2c4.2,1.7,9.1,1.6,13.2,3.6v4.4l-5,2.7v3.4l5,0.8v0.9h-6.9
		l-1.5-3.5l-1.7,3l2.3,2.1h7c1.2,0,12.4,1.9,9,4h4v-0.2c-0.4-0.2-1.4-0.2-1.1-0.5c0.6-0.9,1.8-0.2,2.1,0.7h2.9
		c0.3-0.9,1.3-1.8,2-1.1c0,0.6,0,1.1-0.1,1.6l0.9,0.5c0.8-0.3,1.6-0.5,2.3-0.7c0-0.2,0-0.5,0.3-0.6c0.7-0.5,2.2-0.9,2.9-0.3
		c4.7-1.3,9.4-2.4,14.2-3.6l-0.8-0.8l5-0.5l-6.2-0.2c-3.6-2.4-7.8-4.7-12.5-4.1v1.5l-2,0.2v0.8h-3.2l-4.9-4.7l1.9-2.3l-1.2-1.1
		c7.1-1.6,15.9-0.8,21.7-5.4l-4.3-3l-0.7-3l4.9,0.1v-3.6l-1.2-1.1c3.2-3.9,11.4-7.5,16.7-7.3l0.9-3.2l-1-0.6l11.3-0.7l1.3-1.4
		c5.4-1.1,10.5,1.4,14.9,4l0.7-1l6.5,4.6l1.6-0.1v-2.9c7.5-1.9,15.3-1.2,22.3,1.5l1.3,4l-3.1,2.4l1.1,3.3l33.7,1.5l4.3,3.1
		c4.8-2.2,10.7-4.3,16.1-3.1l1.5-1.5l5-0.8v-0.8c9.2-2.5,16.2-4.3,24.7,1l0.3,2.7l7.8,1l1.2,2.1l4,0.9l2.1-1l9.1,0.4l0.3,2.1
		c0.7,0.4,1.5,0.6,2.2,0.6l-2.3-3.3c-0.4-2.2-0.2-5.3,1.3-7.2c2.8,0.9,5.2-1.7,6.2-3.8c3.2,0,6.6-0.8,9.6-1.8l6.6,2.9v5.2l1.6,0.2
		c0.9-3,3.4-6.8,6.5-8.4c-0.1,0.3-0.2,2,0.7,1.7l2.7-2.7c2.6-0.3,6.1-1.7,5.3-4.6h6.9l1.3,2.5c3.2,1.5,7.8,1.7,11.3,1.3
		c-0.9,0.4-1.2,1.9-0.3,2.4l4,2.2v5.2l1.6,0.2c0.9-3,3.4-6.8,6.5-8.4c-0.1,0.3-0.2,2,0.7,1.7l2.7-2.7c2.6-0.3,6.1-1.7,5.3-4.6h6.9
		l1.3,2.5c3.2,1.5,7.8,1.7,11.3,1.3c-1.5,1.8,0,4.5,0,7l2.3,0.3l1.1,2.8h5.8c0.8,1.1,4.6,1.9,5.5,2.7V111
		c-3.4,1.4-11.7,2.8-12.2,2.5l3-0.6v-4.5c-0.6-0.9-2.2-1-3.2-0.8v3h-5c0,0,4.9-8.3,0-8.6c0,0-2.4,1.4-3.1,0v-1.8c0,0-6.3-1.8-8,0
		c0,0-2.3,3.9,0,5.1h3.1c0.5,1.7-0.6,4-1.5,5.3c0,0-0.6,1.3-1.3,0c0.3-2.4-0.8-5.7-2.7-7.3c-1-0.9-2.8,0.8-2.2,1.9h-3.2
		c2.2-3,0.6-3.1,0.5-3.1c0,0-2.3-0.4-3.4,0.4l-2.7-0.7v-1.6c0,0-1.9-1.6-3,0l-0.5,1.1c0,0-1.7-0.2-1.5-1.7l2.2-3.4
		c0,0,1.4,0.7,2.8,0c0.8-1.2,0.8-2,0-2.3h-5.7c-0.4-1-2.4-1-2.3-0.7c0,0-3,1.5,1.8,5.2c-1.9,3.3-2.9,2.8-4.9,6.1l-2,0.7l-1.1-0.3
		v-5.6h2.2v-4.1c-3.7-1.2,2.4-2.2,0.8-4.3c-2.9-3.6-9.7,4.6-10.4,5.4c-1.1,0.8-2.2-1.5-1.6-2.4h-4.2V89h-11.1l-1.7,1.9v-3
		c-1.4-0.5-3,0-4.5,0L3103,89l-1.5-3.1h-5v-3l-2.1,1.1l-6-3.4l0.7-1.6h-2.6l-0.9,0.8l-1.5-1.7l0.9-0.1l1.4-0.1l3.9-0.1l5.3-6.1
		c0.3,1.1,2.1,1.4,3,1.1v-3.1h4.1v3.1c1-0.5,2.9,1,2,1.9h3.2v-5h1.8l3.1-4.3l-1.9-4.5l1.1-2.2l-3.1-1.2l-1.2-4.3
		c-2.4-0.4-9.7-0.3-12,0c-0.3-2.3-3.5-4.3-5.3-5.2l4.2-6.1V37l0.7-1.1l-4.9,0.1c-2.3-18.2,2.8-6.2-6.3-20.5h-5.8l-1.1-3.1L3075,12
		c0-2.7-1.5-5.8,0-7.7c-3.5,0.5-8,0.2-11.2-1.5l-1.2-2.8h-6.8c0.8,3.2-2.7,4.8-5.3,5.1l-2.7,3c-0.8,0.3-0.8-1.6-0.7-1.9
		c-3.1,1.7-5.6,5.9-6.5,9.2l-1.6-0.3V9.3l-4-2.4c-0.8-0.6-0.5-2.3,0.3-2.7c-3.5,0.5-8,0.2-11.2-1.5l-1-2.7h-6.8
		c0.8,3.2-2.7,4.8-5.3,5.1l-2.7,3c-0.8,0.3-0.8-1.6-0.7-1.9c-3.1,1.7-5.6,5.9-6.5,9.2l-1.6-0.3V9.3l-6.5-3.2c-3,1.1-6.3,1.9-9.6,2
		c-1,2.3-3.3,5.2-6.1,4.2c-1.4,2.1-1.6,5.5-1.3,8l3.1,4.8l-1.1,6.6l-4.3,1.9l-6.8-1.9l-3.8,2.3l-0.9-2.2l-5-1.5v-1.6
		c-5.4-2.9-12.1-6.1-18.4-5.1c-2.5,2.1-2.7,6.1-6.3,7c0,1.7,0.1,3.7-0.3,5.3c-1.8-1.8-5.9-1.5-8.1-1.2l-1.5-3l-5-1.5v-1.6
		c-5.4-2.9-12.1-6.1-18.4-5.1c-2.5,2.1-2.7,6.1-6.3,7c0,1.7,0.1,3.7-0.3,5.3c-2.1,1.3-5.2,2.6-7.7,1.9l-1.2,4.3l-3.9,1.9l-2.1-1.9
		l-9.1,0.8l-0.3,3.6c-0.2-1.9-4.1-1.2-3.1,1.7L2864,46l0.7-1c-0.1-2.7-6,2.5-3.9-2.3l-2.5,1.1c-0.4-0.7-3-1.7-3.6-1.1
		c-1.2,1.2,1.8,3.5,0.8,4.2l-4.4,1.1l-3.4-2.3c-0.8,1,0.7,3.4,1.8,2.5c-3.4,2.7-6.7,5.1-11.1,5.7l-1.9,1.5v8.7l5,5.3
		c-1.4-1-1.5,3.3,0,2.4v4.5l-5,1.5v1.8c1,1,3.1-1.7,4,0h2.8l1.5-6.9l1.7,1.1c0.7,2.8-0.3,6.9-2.2,9h-6.9l-1.2,4.3
		c-0.8,0.5-7.2,0.6-7.8,0v3.6h-8.9l-1.7,1.9v-3c-1.4-0.5-3,0-4.5,0l-0.5,1.1l-1.5-3.1h-5v-3l-2.1,1.1l-6-3.4l0.7-1.6h-2.6l-0.9,0.8
		l-1.5-1.7l0.9-0.1l1.4-0.1l3.9-0.1l5.3-6.1c0.3,1.1,2.1,1.4,3,1.1v-3.1h4.1v3.1c1-0.5,2.9,1,2,1.9h3.2v-5h1.8l3.1-4.3l-1.9-4.5
		l1.1-2.2l-3.1-1.2l-1.2-4.3c-2.4-0.4-9.7-0.3-12,0c-0.3-2.3-3.5-4.3-5.3-5.2l4.2-6.1v-4.9l0.7-1.1l-4.9,0.1
		c-2.3-18.1,2.8-6.2-6.3-20.5h-5.8l-1.1-3.1l-2.3-0.4c0-2.8-1.5-5.8,0-7.7c-3.5,0.5-8,0.2-11.2-1.5l-1.2-2.8h-6.8
		c0.8,3.2-2.7,4.8-5.3,5.1l-2.7,3c-0.8,0.3-0.8-1.6-0.7-1.9c-3.1,1.7-5.6,5.9-6.5,9.2l-1.6-0.3V11l-6.5-3.2c-3,1.1-6.3,1.9-9.6,2
		c-1,2.3-3.3,5.2-6.1,4.2c-1.4,2.1-1.6,5.5-1.3,8l3.1,4.8l-1.1,6.6l-4.3,1.9l-6.8-1.9l-6.7,3.1l-1.6-1.1h-4.4l-1.6,1.1l-3.1-1.2
		l-4.5,1.2l-4.3,6.2h-2.5c-2.6-5.3-8.1-6.4-13.5-6.2l-1.5-3l-5-1.5v-1.6c-5.4-2.9-12.1-6.1-18.4-5.1c-2.5,2.1-2.7,6.1-6.3,7
		c0,1.7,0.1,3.7-0.3,5.3c-2.1,1.3-5.2,2.6-7.7,1.9l-1.2,4.3l-3.9,1.9l-2.1-1.9l-9.1,0.8l-0.3,3.6c-0.2-1.9-4.1-1.2-3.1,1.7l-1.6-2.1
		l0.7-1c-0.1-2.7-6,2.5-3.9-2.3l-2.5,1.1c-0.4-0.7-3-1.7-3.6-1.1c-1.2,1.2,1.8,3.5,0.8,4.2l-4.4,1.1l-3.4-2.3
		c-0.8,1,0.7,3.4,1.8,2.5c-3.4,2.7-6.7,5.1-11.1,5.7l-1.9,1.5V66l5,5.3c-1.4-1-1.5,3.3,0,2.4v4.5l-5,1.5v1.8c1,1,3.1-1.7,4,0h2.8
		l1.5-6.9l1.7,1.1c0.7,2.8-0.3,6.9-2.2,9h-6.9l-1.2,4.3c-0.8,0.5-7.2,0.6-7.8,0v8c-2.4,1.1-2.1-2.2-4.2-1.1l-4.1,5.3
		c0.4-1.5-2.6-0.8-3.1,0l-3.2-1.1c-0.3,0.8,0,2.6,1.1,2.8l-3.1-0.1c0.3,2.3,0.6,7.7-1.1,9.6l-8.7,1.9L2552.2,147.7z"/>
	<path class="st1" d="M2552,147.7h3.8v-2.5l11.1-3.5l1.7,1c6.5-2.1-2.4-5.1-2.4-5.1l5.8-3.1h-3.2l-3.9-4.7l0.9-2.3l7-1.3l1.2-1.7
		l2.5,0.6c0,0,0.6-0.8,1.4-1.5c0.8-0.8,4.2-1,4.2-1l2,2.4c0,0,1.8-0.3,2.1-0.6c0.3-0.4,1.3,1,1.3,1l0.8,2.3l2.7-0.8l2.1,1.8l1,1.9
		h-0.2c2.6,1,5.1,1.4,7.1-0.2l-4.3-3l-0.7-3l4.9,0.1l7.5,3.8l-1.2-1.1c3.2-3.9,3.9,5.2,9.3,5.4l0.9-3.2l-1-0.6l11.3-0.7l1.3-1.4
		c5.4-1.1,10.5,1.4,14.9,4l0.7-1l6.5-8.9l1.6-0.1v-2.9l4-1.2l-0.3-1.3l12.9,6l1.3-1.4c5.4-1.1,10.5,1.4,14.9,4l0.7-1l6.5,4.6
		l1.6-0.1v-2.9c7.5-1.9,13.6,10.4,20.6,13.1l1.3,4l-3.1,2.4l1.1,3.3c4.8,2.2,10.5-1.8,15,1.1l0.9-1.1l5-0.8v-0.8
		c9.2-2.5,16.2-4.3,24.7,1c-3.3,3.1,7.4,2.2,8.5,2.1l1.5-1.5l5-0.8v-0.8c9.2-2.5,16.2-4.3,24.7,1l0.3,2.7l7.8,1l1.2,2.1l4,0.9l2.1-1
		l9.1,0.4l0.3,2.1c4.4,2.2,9.7-1.5,14-2.1l-0.9,2.1l7.8-0.6l-1.9,1.2c4.2,1.7,9.1,1.6,13.2,3.6v4.4l-5,2.7v3.4l5,0.8v0.9h-6.9
		l-1.5-3.5l-1.7,3l2.3,2.1h7c1.2,0,12.4,1.9,9,4h9l1.7,1c6.5-2.1,13.1-3.6,19.7-5.2l-0.8-0.8l5-0.5l-6.2-0.2
		c-3.6-2.4-7.8-4.7-12.5-4.1v1.5l-2,0.2v0.8h-3.2l-4.9-4.7l1.9-2.3l-1.2-1.1c7.1-1.6,15.9-0.8,21.7-5.4l-4.3-3l-0.7-3l4.9,0.1v-3.6
		l-1.2-1.1c3.2-3.9,11.4-7.5,16.7-7.3l0.9-3.2l-1-0.6l11.3-0.7l1.3-1.4c5.4-1.1,10.5,1.4,14.9,4l0.7-1l6.5,4.6l1.6-0.1v-2.9
		c7.5-1.9,15.3-1.2,22.3,1.5l1.3,4l-3.1,2.4l1.1,3.3l33.7,1.5l4.3,3.1c4.8-2.2,10.7-4.3,16.1-3.1l1.5-1.5l5-0.8v-0.8
		c9.2-2.5,16.2-4.3,24.7,1l0.3,2.7l7.8,1l1.2,2.1l4,0.9l2.1-1l9.1,0.4l0.3,2.1c0.7,0.4,1.5,0.6,2.2,0.6l-2.3-3.3
		c-0.4-2.2-0.2-5.3,1.3-7.2c2.8,0.9,5.2-1.7,6.2-3.8c3.2,0,6.6-0.8,9.6-1.8l6.6,2.9v5.2l1.6,0.2c0.9-3,3.4-6.8,6.5-8.4
		c-0.1,0.3-0.2,2,0.7,1.7l2.7-2.7c2.6-0.3,6.1-1.7,5.3-4.6h6.9l1.3,2.5c3.2,1.5,7.8,1.7,11.3,1.3c-0.9,0.4-1.2,1.9-0.3,2.4l4,2.2
		v5.2l1.6,0.2c0.9-3,3.4-6.8,6.5-8.4c-0.1,0.3-0.2,2,0.7,1.7l2.7-2.7c2.6-0.3,6.1-1.7,5.3-4.6h6.9l1.3,2.5c3.2,1.5,7.8,1.7,11.3,1.3
		c-1.5,1.8,0,4.5,0,7l2.3,0.3l1.1,2.8h5.8c0.8,1.2,5,2,5.6,2.8v218H2552V147.7z"/>
</g>
<g>
	<path class="st0" d="M3190.2,147.7h3.6v-2.5l11.1-3.5l1.7,1c6.5-2.1-2.4-5.1-2.4-5.1l5.8-3.1h-3.2l-3.9-4.7l0.9-2.3l7-1.3l1.2-1.7
		l2.5,0.6c0,0,0.6-0.8,1.4-1.5c0.8-0.8,4.2-1,4.2-1l2,2.4c0,0,1.8-0.3,2.1-0.6c0.3-0.4,1.3,1,1.3,1l0.8,2.3l2.7-0.8l2.1,1.8l1,1.9
		h-0.2c2.6,1,5.1,1.4,7.1-0.2l-4.3-3l-0.7-3l4.9,0.1l7.5,3.8l-1.2-1.1c3.2-3.9,3.9,5.2,9.3,5.4l0.9-3.2l-1-0.6l11.3-0.7l1.3-1.4
		c5.4-1.1,10.5,1.4,14.9,4l0.7-1l6.5-8.9l1.6-0.1v-2.9l4-1.2l-0.3-1.3l12.9,6l1.3-1.4c5.4-1.1,10.5,1.4,14.9,4l0.7-1l6.5,4.6
		l1.6-0.1v-2.9c7.5-1.9,13.6,10.4,20.6,13.1l1.3,4l-3.1,2.4l1.1,3.3c4.8,2.2,10.5-1.8,15,1.1l0.9-1.1l5-0.8v-0.8
		c9.2-2.5,16.2-4.3,24.7,1c-3.3,3.1,7.4,2.2,8.5,2.1l1.5-1.5l5-0.8v-0.8c9.2-2.5,16.2-4.3,24.7,1l0.3,2.7l7.8,1l1.2,2.1l4,0.9l2.1-1
		l9.1,0.4l0.3,2.1c4.4,2.2,9.7-1.5,14-2.1l-0.9,2.1l7.8-0.6l-1.9,1.2c4.2,1.7,9.1,1.6,13.2,3.6v4.4l-5,2.7v3.4l5,0.8v0.9h-6.9
		l-1.5-3.5l-1.7,3l2.3,2.1h7c1.2,0,12.4,1.9,9,4h4v-0.2c-0.4-0.2-1.4-0.2-1.1-0.5c0.6-0.9,1.8-0.2,2.1,0.7h2.9
		c0.3-0.9,1.3-1.8,2-1.1c0,0.6,0,1.1-0.1,1.6l0.9,0.5c0.8-0.3,1.6-0.5,2.3-0.7c0-0.2,0-0.5,0.3-0.6c0.7-0.5,2.2-0.9,2.9-0.3
		c4.7-1.3,9.4-2.4,14.2-3.6l-0.8-0.8l5-0.5l-6.2-0.2c-3.6-2.4-7.8-4.7-12.5-4.1v1.5l-2,0.2v0.8h-3.2l-4.9-4.7l1.9-2.3l-1.2-1.1
		c7.1-1.6,15.9-0.8,21.7-5.4l-4.3-3l-0.7-3l4.9,0.1v-3.6l-1.2-1.1c3.2-3.9,11.4-7.5,16.7-7.3l0.9-3.2l-1-0.6l11.3-0.7l1.3-1.4
		c5.4-1.1,10.5,1.4,14.9,4l0.7-1l6.5,4.6l1.6-0.1v-2.9c7.5-1.9,15.3-1.2,22.3,1.5l1.3,4l-3.1,2.4l1.1,3.3l33.7,1.5l4.3,3.1
		c4.8-2.2,10.7-4.3,16.1-3.1l1.5-1.5l5-0.8v-0.8c9.2-2.5,16.2-4.3,24.7,1l0.3,2.7l7.8,1l1.2,2.1l4,0.9l2.1-1l9.1,0.4l0.3,2.1
		c0.7,0.4,1.5,0.6,2.2,0.6l-2.3-3.3c-0.4-2.2-0.2-5.3,1.3-7.2c2.8,0.9,5.2-1.7,6.2-3.8c3.2,0,6.6-0.8,9.6-1.8l6.6,2.9v5.2l1.6,0.2
		c0.9-3,3.4-6.8,6.5-8.4c-0.1,0.3-0.2,2,0.7,1.7l2.7-2.7c2.6-0.3,6.1-1.7,5.3-4.6h6.9l1.3,2.5c3.2,1.5,7.8,1.7,11.3,1.3
		c-0.9,0.4-1.2,1.9-0.3,2.4l4,2.2v5.2l1.6,0.2c0.9-3,3.4-6.8,6.5-8.4c-0.1,0.3-0.2,2,0.7,1.7l2.7-2.7c2.6-0.3,6.1-1.7,5.3-4.6h6.9
		l1.3,2.5c3.2,1.5,7.8,1.7,11.3,1.3c-1.5,1.8,0,4.5,0,7l2.3,0.3l1.1,2.8h5.8c0.8,1.1,4.6,1.9,5.5,2.7V111
		c-3.4,1.4-11.7,2.8-12.2,2.5l3-0.6v-4.5c-0.6-0.9-2.2-1-3.2-0.8v3h-5c0,0,4.9-8.3,0-8.6c0,0-2.4,1.4-3.1,0v-1.8c0,0-6.3-1.8-8,0
		c0,0-2.3,3.9,0,5.1h3.1c0.5,1.7-0.6,4-1.5,5.3c0,0-0.6,1.3-1.3,0c0.3-2.4-0.8-5.7-2.7-7.3c-1-0.9-2.8,0.8-2.2,1.9h-3.2
		c2.2-3,0.6-3.1,0.5-3.1c0,0-2.3-0.4-3.4,0.4l-2.7-0.7v-1.6c0,0-1.9-1.6-3,0l-0.5,1.1c0,0-1.7-0.2-1.5-1.7l2.2-3.4
		c0,0,1.4,0.7,2.8,0c0.8-1.2,0.8-2,0-2.3h-5.7c-0.4-1-2.4-1-2.3-0.7c0,0-3,1.5,1.8,5.2c-1.9,3.3-2.9,2.8-4.9,6.1l-2,0.7l-1.1-0.3
		v-5.6h2.2v-4.1c-3.7-1.2,2.4-2.2,0.8-4.3c-2.9-3.6-9.7,4.6-10.4,5.4c-1.1,0.8-2.2-1.5-1.6-2.4h-4.2V89h-11.1l-1.7,1.9v-3
		c-1.4-0.5-3,0-4.5,0L3741,89l-1.5-3.1h-5v-3l-2.1,1.1l-6-3.4l0.7-1.6h-2.6l-0.9,0.8l-1.5-1.7l0.9-0.1l1.4-0.1l3.9-0.1l5.3-6.1
		c0.3,1.1,2.1,1.4,3,1.1v-3.1h4.1v3.1c1-0.5,2.9,1,2,1.9h3.2v-5h1.8l3.1-4.3l-1.9-4.5l1.1-2.2l-3.1-1.2l-1.2-4.3
		c-2.4-0.4-9.7-0.3-12,0c-0.3-2.3-3.5-4.3-5.3-5.2l4.2-6.1V37l0.7-1.1l-4.9,0.1c-2.3-18.2,2.8-6.2-6.3-20.5h-5.8l-1.1-3.1L3713,12
		c0-2.7-1.5-5.8,0-7.7c-3.5,0.5-8,0.2-11.2-1.5l-1.2-2.8h-6.8c0.8,3.2-2.7,4.8-5.3,5.1l-2.7,3c-0.8,0.3-0.8-1.6-0.7-1.9
		c-3.1,1.7-5.6,5.9-6.5,9.2l-1.6-0.3V9.3l-4-2.4c-0.8-0.6-0.5-2.3,0.3-2.7c-3.5,0.5-8,0.2-11.2-1.5l-1-2.7h-6.8
		c0.8,3.2-2.7,4.8-5.3,5.1l-2.7,3c-0.8,0.3-0.8-1.6-0.7-1.9c-3.1,1.7-5.6,5.9-6.5,9.2l-1.6-0.3V9.3l-6.5-3.2c-3,1.1-6.3,1.9-9.6,2
		c-1,2.3-3.3,5.2-6.1,4.2c-1.4,2.1-1.6,5.5-1.3,8l3.1,4.8l-1.1,6.6l-4.3,1.9l-6.8-1.9l-3.8,2.3l-0.9-2.2l-5-1.5v-1.6
		c-5.4-2.9-12.1-6.1-18.4-5.1c-2.5,2.1-2.7,6.1-6.3,7c0,1.7,0.1,3.7-0.3,5.3c-1.8-1.8-5.9-1.5-8.1-1.2l-1.5-3l-5-1.5v-1.6
		c-5.4-2.9-12.1-6.1-18.4-5.1c-2.5,2.1-2.7,6.1-6.3,7c0,1.7,0.1,3.7-0.3,5.3c-2.1,1.3-5.2,2.6-7.7,1.9l-1.2,4.3l-3.9,1.9l-2.1-1.9
		l-9.1,0.8l-0.3,3.6c-0.2-1.9-4.1-1.2-3.1,1.7L3502,46l0.7-1c-0.1-2.7-6,2.5-3.9-2.3l-2.5,1.1c-0.4-0.7-3-1.7-3.6-1.1
		c-1.2,1.2,1.8,3.5,0.8,4.2l-4.4,1.1l-3.4-2.3c-0.8,1,0.7,3.4,1.8,2.5c-3.4,2.7-6.7,5.1-11.1,5.7l-1.9,1.5v8.7l5,5.3
		c-1.4-1-1.5,3.3,0,2.4v4.5l-5,1.5v1.8c1,1,3.1-1.7,4,0h2.8l1.5-6.9l1.7,1.1c0.7,2.8-0.3,6.9-2.2,9h-6.9l-1.2,4.3
		c-0.8,0.5-7.2,0.6-7.8,0v3.6h-8.9l-1.7,1.9v-3c-1.4-0.5-3,0-4.5,0l-0.5,1.1l-1.5-3.1h-5v-3l-2.1,1.1l-6-3.4l0.7-1.6h-2.6l-0.9,0.8
		l-1.5-1.7l0.9-0.1l1.4-0.1l3.9-0.1l5.3-6.1c0.3,1.1,2.1,1.4,3,1.1v-3.1h4.1v3.1c1-0.5,2.9,1,2,1.9h3.2v-5h1.8l3.1-4.3l-1.9-4.5
		l1.1-2.2l-3.1-1.2l-1.2-4.3c-2.4-0.4-9.7-0.3-12,0c-0.3-2.3-3.5-4.3-5.3-5.2l4.2-6.1v-4.9l0.7-1.1l-4.9,0.1
		c-2.3-18.1,2.8-6.2-6.3-20.5h-5.8l-1.1-3.1l-2.3-0.4c0-2.8-1.5-5.8,0-7.7c-3.5,0.5-8,0.2-11.2-1.5l-1.2-2.8h-6.8
		c0.8,3.2-2.7,4.8-5.3,5.1l-2.7,3c-0.8,0.3-0.8-1.6-0.7-1.9c-3.1,1.7-5.6,5.9-6.5,9.2l-1.6-0.3V11l-6.5-3.2c-3,1.1-6.3,1.9-9.6,2
		c-1,2.3-3.3,5.2-6.1,4.2c-1.4,2.1-1.6,5.5-1.3,8l3.1,4.8l-1.1,6.6l-4.3,1.9l-6.8-1.9l-6.7,3.1l-1.6-1.1h-4.4l-1.6,1.1l-3.1-1.2
		l-4.5,1.2l-4.3,6.2h-2.5c-2.6-5.3-8.1-6.4-13.5-6.2l-1.5-3l-5-1.5v-1.6c-5.4-2.9-12.1-6.1-18.4-5.1c-2.5,2.1-2.7,6.1-6.3,7
		c0,1.7,0.1,3.7-0.3,5.3c-2.1,1.3-5.2,2.6-7.7,1.9l-1.2,4.3l-3.9,1.9l-2.1-1.9l-9.1,0.8l-0.3,3.6c-0.2-1.9-4.1-1.2-3.1,1.7l-1.6-2.1
		l0.7-1c-0.1-2.7-6,2.5-3.9-2.3l-2.5,1.1c-0.4-0.7-3-1.7-3.6-1.1c-1.2,1.2,1.8,3.5,0.8,4.2l-4.4,1.1l-3.4-2.3
		c-0.8,1,0.7,3.4,1.8,2.5c-3.4,2.7-6.7,5.1-11.1,5.7l-1.9,1.5V66l5,5.3c-1.4-1-1.5,3.3,0,2.4v4.5l-5,1.5v1.8c1,1,3.1-1.7,4,0h2.8
		l1.5-6.9l1.7,1.1c0.7,2.8-0.3,6.9-2.2,9h-6.9l-1.2,4.3c-0.8,0.5-7.2,0.6-7.8,0v8c-2.4,1.1-2.1-2.2-4.2-1.1l-4.1,5.3
		c0.4-1.5-2.6-0.8-3.1,0l-3.2-1.1c-0.3,0.8,0,2.6,1.1,2.8l-3.1-0.1c0.3,2.3,0.6,7.7-1.1,9.6l-8.7,1.9L3190.2,147.7z"/>
	<path class="st1" d="M3190,147.7h3.8v-2.5l11.1-3.5l1.7,1c6.5-2.1-2.4-5.1-2.4-5.1l5.8-3.1h-3.2l-3.9-4.7l0.9-2.3l7-1.3l1.2-1.7
		l2.5,0.6c0,0,0.6-0.8,1.4-1.5c0.8-0.8,4.2-1,4.2-1l2,2.4c0,0,1.8-0.3,2.1-0.6c0.3-0.4,1.3,1,1.3,1l0.8,2.3l2.7-0.8l2.1,1.8l1,1.9
		h-0.2c2.6,1,5.1,1.4,7.1-0.2l-4.3-3l-0.7-3l4.9,0.1l7.5,3.8l-1.2-1.1c3.2-3.9,3.9,5.2,9.3,5.4l0.9-3.2l-1-0.6l11.3-0.7l1.3-1.4
		c5.4-1.1,10.5,1.4,14.9,4l0.7-1l6.5-8.9l1.6-0.1v-2.9l4-1.2l-0.3-1.3l12.9,6l1.3-1.4c5.4-1.1,10.5,1.4,14.9,4l0.7-1l6.5,4.6
		l1.6-0.1v-2.9c7.5-1.9,13.6,10.4,20.6,13.1l1.3,4l-3.1,2.4l1.1,3.3c4.8,2.2,10.5-1.8,15,1.1l0.9-1.1l5-0.8v-0.8
		c9.2-2.5,16.2-4.3,24.7,1c-3.3,3.1,7.4,2.2,8.5,2.1l1.5-1.5l5-0.8v-0.8c9.2-2.5,16.2-4.3,24.7,1l0.3,2.7l7.8,1l1.2,2.1l4,0.9l2.1-1
		l9.1,0.4l0.3,2.1c4.4,2.2,9.7-1.5,14-2.1l-0.9,2.1l7.8-0.6l-1.9,1.2c4.2,1.7,9.1,1.6,13.2,3.6v4.4l-5,2.7v3.4l5,0.8v0.9h-6.9
		l-1.5-3.5l-1.7,3l2.3,2.1h7c1.2,0,12.4,1.9,9,4h9l1.7,1c6.5-2.1,13.1-3.6,19.7-5.2l-0.8-0.8l5-0.5l-6.2-0.2
		c-3.6-2.4-7.8-4.7-12.5-4.1v1.5l-2,0.2v0.8h-3.2l-4.9-4.7l1.9-2.3l-1.2-1.1c7.1-1.6,15.9-0.8,21.7-5.4l-4.3-3l-0.7-3l4.9,0.1v-3.6
		l-1.2-1.1c3.2-3.9,11.4-7.5,16.7-7.3l0.9-3.2l-1-0.6l11.3-0.7l1.3-1.4c5.4-1.1,10.5,1.4,14.9,4l0.7-1l6.5,4.6l1.6-0.1v-2.9
		c7.5-1.9,15.3-1.2,22.3,1.5l1.3,4l-3.1,2.4l1.1,3.3l33.7,1.5l4.3,3.1c4.8-2.2,10.7-4.3,16.1-3.1l1.5-1.5l5-0.8v-0.8
		c9.2-2.5,16.2-4.3,24.7,1l0.3,2.7l7.8,1l1.2,2.1l4,0.9l2.1-1l9.1,0.4l0.3,2.1c0.7,0.4,1.5,0.6,2.2,0.6l-2.3-3.3
		c-0.4-2.2-0.2-5.3,1.3-7.2c2.8,0.9,5.2-1.7,6.2-3.8c3.2,0,6.6-0.8,9.6-1.8l6.6,2.9v5.2l1.6,0.2c0.9-3,3.4-6.8,6.5-8.4
		c-0.1,0.3-0.2,2,0.7,1.7l2.7-2.7c2.6-0.3,6.1-1.7,5.3-4.6h6.9l1.3,2.5c3.2,1.5,7.8,1.7,11.3,1.3c-0.9,0.4-1.2,1.9-0.3,2.4l4,2.2
		v5.2l1.6,0.2c0.9-3,3.4-6.8,6.5-8.4c-0.1,0.3-0.2,2,0.7,1.7l2.7-2.7c2.6-0.3,6.1-1.7,5.3-4.6h6.9l1.3,2.5c3.2,1.5,7.8,1.7,11.3,1.3
		c-1.5,1.8,0,4.5,0,7l2.3,0.3l1.1,2.8h5.8c0.8,1.2,5,2,5.6,2.8v218H3190V147.7z"/>
</g>
<g>
	<path class="st0" d="M3828.2,147.7h3.6v-2.5l11.1-3.5l1.7,1c6.5-2.1-2.4-5.1-2.4-5.1l5.8-3.1h-3.2l-3.9-4.7l0.9-2.3l7-1.3l1.2-1.7
		l2.5,0.6c0,0,0.6-0.8,1.4-1.5c0.8-0.8,4.2-1,4.2-1l2,2.4c0,0,1.8-0.3,2.1-0.6c0.3-0.4,1.3,1,1.3,1l0.8,2.3l2.7-0.8l2.1,1.8l1,1.9
		h-0.2c2.6,1,5.1,1.4,7.1-0.2l-4.3-3l-0.7-3l4.9,0.1l7.5,3.8l-1.2-1.1c3.2-3.9,3.9,5.2,9.3,5.4l0.9-3.2l-1-0.6l11.3-0.7l1.3-1.4
		c5.4-1.1,10.5,1.4,14.9,4l0.7-1l6.5-8.9l1.6-0.1v-2.9l4-1.2l-0.3-1.3l12.9,6l1.3-1.4c5.4-1.1,10.5,1.4,14.9,4l0.7-1l6.5,4.6
		l1.6-0.1v-2.9c7.5-1.9,13.6,10.4,20.6,13.1l1.3,4l-3.1,2.4l1.1,3.3c4.8,2.2,10.5-1.8,15,1.1l0.9-1.1l5-0.8v-0.8
		c9.2-2.5,16.2-4.3,24.7,1c-3.3,3.1,7.4,2.2,8.5,2.1l1.5-1.5l5-0.8v-0.8c9.2-2.5,16.2-4.3,24.7,1l0.3,2.7l7.8,1l1.2,2.1l4,0.9l2.1-1
		l9.1,0.4l0.3,2.1c4.4,2.2,9.7-1.5,14-2.1l-0.9,2.1l7.8-0.6l-1.9,1.2c4.2,1.7,9.1,1.6,13.2,3.6v4.4l-5,2.7v3.4l5,0.8v0.9h-6.9
		l-1.5-3.5l-1.7,3l2.3,2.1h7c1.2,0,12.4,1.9,9,4h4v-0.2c-0.4-0.2-1.4-0.2-1.1-0.5c0.6-0.9,1.8-0.2,2.1,0.7h2.9
		c0.3-0.9,1.3-1.8,2-1.1c0,0.6,0,1.1-0.1,1.6l0.9,0.5c0.8-0.3,1.6-0.5,2.3-0.7c0-0.2,0-0.5,0.3-0.6c0.7-0.5,2.2-0.9,2.9-0.3
		c4.7-1.3,9.4-2.4,14.2-3.6l-0.8-0.8l5-0.5l-6.2-0.2c-3.6-2.4-7.8-4.7-12.5-4.1v1.5l-2,0.2v0.8h-3.2l-4.9-4.7l1.9-2.3l-1.2-1.1
		c7.1-1.6,15.9-0.8,21.7-5.4l-4.3-3l-0.7-3l4.9,0.1v-3.6l-1.2-1.1c3.2-3.9,11.4-7.5,16.7-7.3l0.9-3.2l-1-0.6l11.3-0.7l1.3-1.4
		c5.4-1.1,10.5,1.4,14.9,4l0.7-1l6.5,4.6l1.6-0.1v-2.9c7.5-1.9,15.3-1.2,22.3,1.5l1.3,4l-3.1,2.4l1.1,3.3l33.7,1.5l4.3,3.1
		c4.8-2.2,10.7-4.3,16.1-3.1l1.5-1.5l5-0.8v-0.8c9.2-2.5,16.2-4.3,24.7,1l0.3,2.7l7.8,1l1.2,2.1l4,0.9l2.1-1l9.1,0.4l0.3,2.1
		c0.7,0.4,1.5,0.6,2.2,0.6l-2.3-3.3c-0.4-2.2-0.2-5.3,1.3-7.2c2.8,0.9,5.2-1.7,6.2-3.8c3.2,0,6.6-0.8,9.6-1.8l6.6,2.9v5.2l1.6,0.2
		c0.9-3,3.4-6.8,6.5-8.4c-0.1,0.3-0.2,2,0.7,1.7l2.7-2.7c2.6-0.3,6.1-1.7,5.3-4.6h6.9l1.3,2.5c3.2,1.5,7.8,1.7,11.3,1.3
		c-0.9,0.4-1.2,1.9-0.3,2.4l4,2.2v5.2l1.6,0.2c0.9-3,3.4-6.8,6.5-8.4c-0.1,0.3-0.2,2,0.7,1.7l2.7-2.7c2.6-0.3,6.1-1.7,5.3-4.6h6.9
		l1.3,2.5c3.2,1.5,7.8,1.7,11.3,1.3c-1.5,1.8,0,4.5,0,7l2.3,0.3l1.1,2.8h5.8c0.8,1.1,4.6,1.9,5.5,2.7V111
		c-3.4,1.4-11.7,2.8-12.2,2.5l3-0.6v-4.5c-0.6-0.9-2.2-1-3.2-0.8v3h-5c0,0,4.9-8.3,0-8.6c0,0-2.4,1.4-3.1,0v-1.8c0,0-6.3-1.8-8,0
		c0,0-2.3,3.9,0,5.1h3.1c0.5,1.7-0.6,4-1.5,5.3c0,0-0.6,1.3-1.3,0c0.3-2.4-0.8-5.7-2.7-7.3c-1-0.9-2.8,0.8-2.2,1.9h-3.2
		c2.2-3,0.6-3.1,0.5-3.1c0,0-2.3-0.4-3.4,0.4l-2.7-0.7v-1.6c0,0-1.9-1.6-3,0l-0.5,1.1c0,0-1.7-0.2-1.5-1.7l2.2-3.4
		c0,0,1.4,0.7,2.8,0c0.8-1.2,0.8-2,0-2.3h-5.7c-0.4-1-2.4-1-2.3-0.7c0,0-3,1.5,1.8,5.2c-1.9,3.3-2.9,2.8-4.9,6.1l-2,0.7l-1.1-0.3
		v-5.6h2.2v-4.1c-3.7-1.2,2.4-2.2,0.8-4.3c-2.9-3.6-9.7,4.6-10.4,5.4c-1.1,0.8-2.2-1.5-1.6-2.4h-4.2V89h-11.1l-1.7,1.9v-3
		c-1.4-0.5-3,0-4.5,0L4379,89l-1.5-3.1h-5v-3l-2.1,1.1l-6-3.4l0.7-1.6h-2.6l-0.9,0.8l-1.5-1.7l0.9-0.1l1.4-0.1l3.9-0.1l5.3-6.1
		c0.3,1.1,2.1,1.4,3,1.1v-3.1h4.1v3.1c1-0.5,2.9,1,2,1.9h3.2v-5h1.8l3.1-4.3l-1.9-4.5l1.1-2.2l-3.1-1.2l-1.2-4.3
		c-2.4-0.4-9.7-0.3-12,0c-0.3-2.3-3.5-4.3-5.3-5.2l4.2-6.1V37l0.7-1.1l-4.9,0.1c-2.3-18.2,2.8-6.2-6.3-20.5h-5.8l-1.1-3.1L4351,12
		c0-2.7-1.5-5.8,0-7.7c-3.5,0.5-8,0.2-11.2-1.5l-1.2-2.8h-6.8c0.8,3.2-2.7,4.8-5.3,5.1l-2.7,3c-0.8,0.3-0.8-1.6-0.7-1.9
		c-3.1,1.7-5.6,5.9-6.5,9.2l-1.6-0.3V9.3l-4-2.4c-0.8-0.6-0.5-2.3,0.3-2.7c-3.5,0.5-8,0.2-11.2-1.5l-1-2.7h-6.8
		c0.8,3.2-2.7,4.8-5.3,5.1l-2.7,3c-0.8,0.3-0.8-1.6-0.7-1.9c-3.1,1.7-5.6,5.9-6.5,9.2l-1.6-0.3V9.3l-6.5-3.2c-3,1.1-6.3,1.9-9.6,2
		c-1,2.3-3.3,5.2-6.1,4.2c-1.4,2.1-1.6,5.5-1.3,8l3.1,4.8l-1.1,6.6l-4.3,1.9l-6.8-1.9l-3.8,2.3l-0.9-2.2l-5-1.5v-1.6
		c-5.4-2.9-12.1-6.1-18.4-5.1c-2.5,2.1-2.7,6.1-6.3,7c0,1.7,0.1,3.7-0.3,5.3c-1.8-1.8-5.9-1.5-8.1-1.2l-1.5-3l-5-1.5v-1.6
		c-5.4-2.9-12.1-6.1-18.4-5.1c-2.5,2.1-2.7,6.1-6.3,7c0,1.7,0.1,3.7-0.3,5.3c-2.1,1.3-5.2,2.6-7.7,1.9l-1.2,4.3l-3.9,1.9l-2.1-1.9
		l-9.1,0.8l-0.3,3.6c-0.2-1.9-4.1-1.2-3.1,1.7L4140,46l0.7-1c-0.1-2.7-6,2.5-3.9-2.3l-2.5,1.1c-0.4-0.7-3-1.7-3.6-1.1
		c-1.2,1.2,1.8,3.5,0.8,4.2l-4.4,1.1l-3.4-2.3c-0.8,1,0.7,3.4,1.8,2.5c-3.4,2.7-6.7,5.1-11.1,5.7l-1.9,1.5v8.7l5,5.3
		c-1.4-1-1.5,3.3,0,2.4v4.5l-5,1.5v1.8c1,1,3.1-1.7,4,0h2.8l1.5-6.9l1.7,1.1c0.7,2.8-0.3,6.9-2.2,9h-6.9l-1.2,4.3
		c-0.8,0.5-7.2,0.6-7.8,0v3.6h-8.9l-1.7,1.9v-3c-1.4-0.5-3,0-4.5,0l-0.5,1.1l-1.5-3.1h-5v-3l-2.1,1.1l-6-3.4l0.7-1.6h-2.6l-0.9,0.8
		l-1.5-1.7l0.9-0.1l1.4-0.1l3.9-0.1l5.3-6.1c0.3,1.1,2.1,1.4,3,1.1v-3.1h4.1v3.1c1-0.5,2.9,1,2,1.9h3.2v-5h1.8l3.1-4.3l-1.9-4.5
		l1.1-2.2l-3.1-1.2l-1.2-4.3c-2.4-0.4-9.7-0.3-12,0c-0.3-2.3-3.5-4.3-5.3-5.2l4.2-6.1v-4.9l0.7-1.1l-4.9,0.1
		c-2.3-18.1,2.8-6.2-6.3-20.5h-5.8l-1.1-3.1l-2.3-0.4c0-2.8-1.5-5.8,0-7.7c-3.5,0.5-8,0.2-11.2-1.5l-1.2-2.8h-6.8
		c0.8,3.2-2.7,4.8-5.3,5.1l-2.7,3c-0.8,0.3-0.8-1.6-0.7-1.9c-3.1,1.7-5.6,5.9-6.5,9.2l-1.6-0.3V11l-6.5-3.2c-3,1.1-6.3,1.9-9.6,2
		c-1,2.3-3.3,5.2-6.1,4.2c-1.4,2.1-1.6,5.5-1.3,8l3.1,4.8l-1.1,6.6l-4.3,1.9l-6.8-1.9l-6.7,3.1l-1.6-1.1h-4.4l-1.6,1.1l-3.1-1.2
		l-4.5,1.2l-4.3,6.2h-2.5c-2.6-5.3-8.1-6.4-13.5-6.2l-1.5-3l-5-1.5v-1.6c-5.4-2.9-12.1-6.1-18.4-5.1c-2.5,2.1-2.7,6.1-6.3,7
		c0,1.7,0.1,3.7-0.3,5.3c-2.1,1.3-5.2,2.6-7.7,1.9l-1.2,4.3l-3.9,1.9l-2.1-1.9l-9.1,0.8l-0.3,3.6c-0.2-1.9-4.1-1.2-3.1,1.7l-1.6-2.1
		l0.7-1c-0.1-2.7-6,2.5-3.9-2.3l-2.5,1.1c-0.4-0.7-3-1.7-3.6-1.1c-1.2,1.2,1.8,3.5,0.8,4.2l-4.4,1.1l-3.4-2.3
		c-0.8,1,0.7,3.4,1.8,2.5c-3.4,2.7-6.7,5.1-11.1,5.7l-1.9,1.5V66l5,5.3c-1.4-1-1.5,3.3,0,2.4v4.5l-5,1.5v1.8c1,1,3.1-1.7,4,0h2.8
		l1.5-6.9l1.7,1.1c0.7,2.8-0.3,6.9-2.2,9h-6.9l-1.2,4.3c-0.8,0.5-7.2,0.6-7.8,0v8c-2.4,1.1-2.1-2.2-4.2-1.1l-4.1,5.3
		c0.4-1.5-2.6-0.8-3.1,0l-3.2-1.1c-0.3,0.8,0,2.6,1.1,2.8l-3.1-0.1c0.3,2.3,0.6,7.7-1.1,9.6l-8.7,1.9L3828.2,147.7z"/>
	<path class="st1" d="M3828,147.7h3.8v-2.5l11.1-3.5l1.7,1c6.5-2.1-2.4-5.1-2.4-5.1l5.8-3.1h-3.2l-3.9-4.7l0.9-2.3l7-1.3l1.2-1.7
		l2.5,0.6c0,0,0.6-0.8,1.4-1.5c0.8-0.8,4.2-1,4.2-1l2,2.4c0,0,1.8-0.3,2.1-0.6c0.3-0.4,1.3,1,1.3,1l0.8,2.3l2.7-0.8l2.1,1.8l1,1.9
		h-0.2c2.6,1,5.1,1.4,7.1-0.2l-4.3-3l-0.7-3l4.9,0.1l7.5,3.8l-1.2-1.1c3.2-3.9,3.9,5.2,9.3,5.4l0.9-3.2l-1-0.6l11.3-0.7l1.3-1.4
		c5.4-1.1,10.5,1.4,14.9,4l0.7-1l6.5-8.9l1.6-0.1v-2.9l4-1.2l-0.3-1.3l12.9,6l1.3-1.4c5.4-1.1,10.5,1.4,14.9,4l0.7-1l6.5,4.6
		l1.6-0.1v-2.9c7.5-1.9,13.6,10.4,20.6,13.1l1.3,4l-3.1,2.4l1.1,3.3c4.8,2.2,10.5-1.8,15,1.1l0.9-1.1l5-0.8v-0.8
		c9.2-2.5,16.2-4.3,24.7,1c-3.3,3.1,7.4,2.2,8.5,2.1l1.5-1.5l5-0.8v-0.8c9.2-2.5,16.2-4.3,24.7,1l0.3,2.7l7.8,1l1.2,2.1l4,0.9l2.1-1
		l9.1,0.4l0.3,2.1c4.4,2.2,9.7-1.5,14-2.1l-0.9,2.1l7.8-0.6l-1.9,1.2c4.2,1.7,9.1,1.6,13.2,3.6v4.4l-5,2.7v3.4l5,0.8v0.9h-6.9
		l-1.5-3.5l-1.7,3l2.3,2.1h7c1.2,0,12.4,1.9,9,4h9l1.7,1c6.5-2.1,13.1-3.6,19.7-5.2l-0.8-0.8l5-0.5l-6.2-0.2
		c-3.6-2.4-7.8-4.7-12.5-4.1v1.5l-2,0.2v0.8h-3.2l-4.9-4.7l1.9-2.3l-1.2-1.1c7.1-1.6,15.9-0.8,21.7-5.4l-4.3-3l-0.7-3l4.9,0.1v-3.6
		l-1.2-1.1c3.2-3.9,11.4-7.5,16.7-7.3l0.9-3.2l-1-0.6l11.3-0.7l1.3-1.4c5.4-1.1,10.5,1.4,14.9,4l0.7-1l6.5,4.6l1.6-0.1v-2.9
		c7.5-1.9,15.3-1.2,22.3,1.5l1.3,4l-3.1,2.4l1.1,3.3l33.7,1.5l4.3,3.1c4.8-2.2,10.7-4.3,16.1-3.1l1.5-1.5l5-0.8v-0.8
		c9.2-2.5,16.2-4.3,24.7,1l0.3,2.7l7.8,1l1.2,2.1l4,0.9l2.1-1l9.1,0.4l0.3,2.1c0.7,0.4,1.5,0.6,2.2,0.6l-2.3-3.3
		c-0.4-2.2-0.2-5.3,1.3-7.2c2.8,0.9,5.2-1.7,6.2-3.8c3.2,0,6.6-0.8,9.6-1.8l6.6,2.9v5.2l1.6,0.2c0.9-3,3.4-6.8,6.5-8.4
		c-0.1,0.3-0.2,2,0.7,1.7l2.7-2.7c2.6-0.3,6.1-1.7,5.3-4.6h6.9l1.3,2.5c3.2,1.5,7.8,1.7,11.3,1.3c-0.9,0.4-1.2,1.9-0.3,2.4l4,2.2
		v5.2l1.6,0.2c0.9-3,3.4-6.8,6.5-8.4c-0.1,0.3-0.2,2,0.7,1.7l2.7-2.7c2.6-0.3,6.1-1.7,5.3-4.6h6.9l1.3,2.5c3.2,1.5,7.8,1.7,11.3,1.3
		c-1.5,1.8,0,4.5,0,7l2.3,0.3l1.1,2.8h5.8c0.8,1.2,5,2,5.6,2.8v218H3828V147.7z"/>
</g>
<g>
	<path class="st0" d="M4466.2,147.7h3.6v-2.5l11.1-3.5l1.7,1c6.5-2.1-2.4-5.1-2.4-5.1l5.8-3.1h-3.2l-3.9-4.7l0.9-2.3l7-1.3l1.2-1.7
		l2.5,0.6c0,0,0.6-0.8,1.4-1.5c0.8-0.8,4.2-1,4.2-1l2,2.4c0,0,1.8-0.3,2.1-0.6c0.3-0.4,1.3,1,1.3,1l0.8,2.3l2.7-0.8l2.1,1.8l1,1.9
		h-0.2c2.6,1,5.1,1.4,7.1-0.2l-4.3-3l-0.7-3l4.9,0.1l7.5,3.8l-1.2-1.1c3.2-3.9,3.9,5.2,9.3,5.4l0.9-3.2l-1-0.6l11.3-0.7l1.3-1.4
		c5.4-1.1,10.5,1.4,14.9,4l0.7-1l6.5-8.9l1.6-0.1v-2.9l4-1.2l-0.3-1.3l12.9,6l1.3-1.4c5.4-1.1,10.5,1.4,14.9,4l0.7-1l6.5,4.6
		l1.6-0.1v-2.9c7.5-1.9,13.6,10.4,20.6,13.1l1.3,4l-3.1,2.4l1.1,3.3c4.8,2.2,10.5-1.8,15,1.1l0.9-1.1l5-0.8v-0.8
		c9.2-2.5,16.2-4.3,24.7,1c-3.3,3.1,7.4,2.2,8.5,2.1l1.5-1.5l5-0.8v-0.8c9.2-2.5,16.2-4.3,24.7,1l0.3,2.7l7.8,1l1.2,2.1l4,0.9l2.1-1
		l9.1,0.4l0.3,2.1c4.4,2.2,9.7-1.5,14-2.1l-0.9,2.1l7.8-0.6l-1.9,1.2c4.2,1.7,9.1,1.6,13.2,3.6v4.4l-5,2.7v3.4l5,0.8v0.9h-6.9
		l-1.5-3.5l-1.7,3l2.3,2.1h7c1.2,0,12.4,1.9,9,4h4v-0.2c-0.4-0.2-1.4-0.2-1.1-0.5c0.6-0.9,1.8-0.2,2.1,0.7h2.9
		c0.3-0.9,1.3-1.8,2-1.1c0,0.6,0,1.1-0.1,1.6l0.9,0.5c0.8-0.3,1.6-0.5,2.3-0.7c0-0.2,0-0.5,0.3-0.6c0.7-0.5,2.2-0.9,2.9-0.3
		c4.7-1.3,9.4-2.4,14.2-3.6l-0.8-0.8l5-0.5l-6.2-0.2c-3.6-2.4-7.8-4.7-12.5-4.1v1.5l-2,0.2v0.8h-3.2l-4.9-4.7l1.9-2.3l-1.2-1.1
		c7.1-1.6,15.9-0.8,21.7-5.4l-4.3-3l-0.7-3l4.9,0.1v-3.6l-1.2-1.1c3.2-3.9,11.4-7.5,16.7-7.3l0.9-3.2l-1-0.6l11.3-0.7l1.3-1.4
		c5.4-1.1,10.5,1.4,14.9,4l0.7-1l6.5,4.6l1.6-0.1v-2.9c7.5-1.9,15.3-1.2,22.3,1.5l1.3,4l-3.1,2.4l1.1,3.3l33.7,1.5l4.3,3.1
		c4.8-2.2,10.7-4.3,16.1-3.1l1.5-1.5l5-0.8v-0.8c9.2-2.5,16.2-4.3,24.7,1l0.3,2.7l7.8,1l1.2,2.1l4,0.9l2.1-1l9.1,0.4l0.3,2.1
		c0.7,0.4,1.5,0.6,2.2,0.6l-2.3-3.3c-0.4-2.2-0.2-5.3,1.3-7.2c2.8,0.9,5.2-1.7,6.2-3.8c3.2,0,6.6-0.8,9.6-1.8l6.6,2.9v5.2l1.6,0.2
		c0.9-3,3.4-6.8,6.5-8.4c-0.1,0.3-0.2,2,0.7,1.7l2.7-2.7c2.6-0.3,6.1-1.7,5.3-4.6h6.9l1.3,2.5c3.2,1.5,7.8,1.7,11.3,1.3
		c-0.9,0.4-1.2,1.9-0.3,2.4l4,2.2v5.2l1.6,0.2c0.9-3,3.4-6.8,6.5-8.4c-0.1,0.3-0.2,2,0.7,1.7l2.7-2.7c2.6-0.3,6.1-1.7,5.3-4.6h6.9
		l1.3,2.5c3.2,1.5,7.8,1.7,11.3,1.3c-1.5,1.8,0,4.5,0,7l2.3,0.3l1.1,2.8h5.8c0.8,1.1,4.6,1.9,5.5,2.7V111
		c-3.4,1.4-11.7,2.8-12.2,2.5l3-0.6v-4.5c-0.6-0.9-2.2-1-3.2-0.8v3h-5c0,0,4.9-8.3,0-8.6c0,0-2.4,1.4-3.1,0v-1.8c0,0-6.3-1.8-8,0
		c0,0-2.3,3.9,0,5.1h3.1c0.5,1.7-0.6,4-1.5,5.3c0,0-0.6,1.3-1.3,0c0.3-2.4-0.8-5.7-2.7-7.3c-1-0.9-2.8,0.8-2.2,1.9h-3.2
		c2.2-3,0.6-3.1,0.5-3.1c0,0-2.3-0.4-3.4,0.4l-2.7-0.7v-1.6c0,0-1.9-1.6-3,0l-0.5,1.1c0,0-1.7-0.2-1.5-1.7l2.2-3.4
		c0,0,1.4,0.7,2.8,0c0.8-1.2,0.8-2,0-2.3h-5.7c-0.4-1-2.4-1-2.3-0.7c0,0-3,1.5,1.8,5.2c-1.9,3.3-2.9,2.8-4.9,6.1l-2,0.7l-1.1-0.3
		v-5.6h2.2v-4.1c-3.7-1.2,2.4-2.2,0.8-4.3c-2.9-3.6-9.7,4.6-10.4,5.4c-1.1,0.8-2.2-1.5-1.6-2.4h-4.2V89h-11.1l-1.7,1.9v-3
		c-1.4-0.5-3,0-4.5,0L5017,89l-1.5-3.1h-5v-3l-2.1,1.1l-6-3.4l0.7-1.6h-2.6l-0.9,0.8l-1.5-1.7l0.9-0.1l1.4-0.1l3.9-0.1l5.3-6.1
		c0.3,1.1,2.1,1.4,3,1.1v-3.1h4.1v3.1c1-0.5,2.9,1,2,1.9h3.2v-5h1.8l3.1-4.3l-1.9-4.5l1.1-2.2l-3.1-1.2l-1.2-4.3
		c-2.4-0.4-9.7-0.3-12,0c-0.3-2.3-3.5-4.3-5.3-5.2l4.2-6.1V37l0.7-1.1l-4.9,0.1c-2.3-18.2,2.8-6.2-6.3-20.5h-5.8l-1.1-3.1L4989,12
		c0-2.7-1.5-5.8,0-7.7c-3.5,0.5-8,0.2-11.2-1.5l-1.2-2.8h-6.8c0.8,3.2-2.7,4.8-5.3,5.1l-2.7,3c-0.8,0.3-0.8-1.6-0.7-1.9
		c-3.1,1.7-5.6,5.9-6.5,9.2l-1.6-0.3V9.3l-4-2.4c-0.8-0.6-0.5-2.3,0.3-2.7c-3.5,0.5-8,0.2-11.2-1.5l-1-2.7h-6.8
		c0.8,3.2-2.7,4.8-5.3,5.1l-2.7,3c-0.8,0.3-0.8-1.6-0.7-1.9c-3.1,1.7-5.6,5.9-6.5,9.2l-1.6-0.3V9.3l-6.5-3.2c-3,1.1-6.3,1.9-9.6,2
		c-1,2.3-3.3,5.2-6.1,4.2c-1.4,2.1-1.6,5.5-1.3,8l3.1,4.8l-1.1,6.6l-4.3,1.9l-6.8-1.9l-3.8,2.3l-0.9-2.2l-5-1.5v-1.6
		c-5.4-2.9-12.1-6.1-18.4-5.1c-2.5,2.1-2.7,6.1-6.3,7c0,1.7,0.1,3.7-0.3,5.3c-1.8-1.8-5.9-1.5-8.1-1.2l-1.5-3l-5-1.5v-1.6
		c-5.4-2.9-12.1-6.1-18.4-5.1c-2.5,2.1-2.7,6.1-6.3,7c0,1.7,0.1,3.7-0.3,5.3c-2.1,1.3-5.2,2.6-7.7,1.9l-1.2,4.3l-3.9,1.9l-2.1-1.9
		l-9.1,0.8l-0.3,3.6c-0.2-1.9-4.1-1.2-3.1,1.7L4778,46l0.7-1c-0.1-2.7-6,2.5-3.9-2.3l-2.5,1.1c-0.4-0.7-3-1.7-3.6-1.1
		c-1.2,1.2,1.8,3.5,0.8,4.2l-4.4,1.1l-3.4-2.3c-0.8,1,0.7,3.4,1.8,2.5c-3.4,2.7-6.7,5.1-11.1,5.7l-1.9,1.5v8.7l5,5.3
		c-1.4-1-1.5,3.3,0,2.4v4.5l-5,1.5v1.8c1,1,3.1-1.7,4,0h2.8l1.5-6.9l1.7,1.1c0.7,2.8-0.3,6.9-2.2,9h-6.9l-1.2,4.3
		c-0.8,0.5-7.2,0.6-7.8,0v3.6h-8.9l-1.7,1.9v-3c-1.4-0.5-3,0-4.5,0l-0.5,1.1l-1.5-3.1h-5v-3l-2.1,1.1l-6-3.4l0.7-1.6h-2.6l-0.9,0.8
		l-1.5-1.7l0.9-0.1l1.4-0.1l3.9-0.1l5.3-6.1c0.3,1.1,2.1,1.4,3,1.1v-3.1h4.1v3.1c1-0.5,2.9,1,2,1.9h3.2v-5h1.8l3.1-4.3l-1.9-4.5
		l1.1-2.2l-3.1-1.2l-1.2-4.3c-2.4-0.4-9.7-0.3-12,0c-0.3-2.3-3.5-4.3-5.3-5.2l4.2-6.1v-4.9l0.7-1.1l-4.9,0.1
		c-2.3-18.1,2.8-6.2-6.3-20.5h-5.8l-1.1-3.1l-2.3-0.4c0-2.8-1.5-5.8,0-7.7c-3.5,0.5-8,0.2-11.2-1.5l-1.2-2.8h-6.8
		c0.8,3.2-2.7,4.8-5.3,5.1l-2.7,3c-0.8,0.3-0.8-1.6-0.7-1.9c-3.1,1.7-5.6,5.9-6.5,9.2l-1.6-0.3V11l-6.5-3.2c-3,1.1-6.3,1.9-9.6,2
		c-1,2.3-3.3,5.2-6.1,4.2c-1.4,2.1-1.6,5.5-1.3,8l3.1,4.8l-1.1,6.6l-4.3,1.9l-6.8-1.9l-6.7,3.1l-1.6-1.1h-4.4l-1.6,1.1l-3.1-1.2
		l-4.5,1.2l-4.3,6.2h-2.5c-2.6-5.3-8.1-6.4-13.5-6.2l-1.5-3l-5-1.5v-1.6c-5.4-2.9-12.1-6.1-18.4-5.1c-2.5,2.1-2.7,6.1-6.3,7
		c0,1.7,0.1,3.7-0.3,5.3c-2.1,1.3-5.2,2.6-7.7,1.9l-1.2,4.3l-3.9,1.9l-2.1-1.9l-9.1,0.8l-0.3,3.6c-0.2-1.9-4.1-1.2-3.1,1.7l-1.6-2.1
		l0.7-1c-0.1-2.7-6,2.5-3.9-2.3l-2.5,1.1c-0.4-0.7-3-1.7-3.6-1.1c-1.2,1.2,1.8,3.5,0.8,4.2l-4.4,1.1l-3.4-2.3
		c-0.8,1,0.7,3.4,1.8,2.5c-3.4,2.7-6.7,5.1-11.1,5.7l-1.9,1.5V66l5,5.3c-1.4-1-1.5,3.3,0,2.4v4.5l-5,1.5v1.8c1,1,3.1-1.7,4,0h2.8
		l1.5-6.9l1.7,1.1c0.7,2.8-0.3,6.9-2.2,9h-6.9l-1.2,4.3c-0.8,0.5-7.2,0.6-7.8,0v8c-2.4,1.1-2.1-2.2-4.2-1.1l-4.1,5.3
		c0.4-1.5-2.6-0.8-3.1,0l-3.2-1.1c-0.3,0.8,0,2.6,1.1,2.8l-3.1-0.1c0.3,2.3,0.6,7.7-1.1,9.6l-8.7,1.9L4466.2,147.7z"/>
	<path class="st1" d="M4466,147.7h3.8v-2.5l11.1-3.5l1.7,1c6.5-2.1-2.4-5.1-2.4-5.1l5.8-3.1h-3.2l-3.9-4.7l0.9-2.3l7-1.3l1.2-1.7
		l2.5,0.6c0,0,0.6-0.8,1.4-1.5c0.8-0.8,4.2-1,4.2-1l2,2.4c0,0,1.8-0.3,2.1-0.6c0.3-0.4,1.3,1,1.3,1l0.8,2.3l2.7-0.8l2.1,1.8l1,1.9
		h-0.2c2.6,1,5.1,1.4,7.1-0.2l-4.3-3l-0.7-3l4.9,0.1l7.5,3.8l-1.2-1.1c3.2-3.9,3.9,5.2,9.3,5.4l0.9-3.2l-1-0.6l11.3-0.7l1.3-1.4
		c5.4-1.1,10.5,1.4,14.9,4l0.7-1l6.5-8.9l1.6-0.1v-2.9l4-1.2l-0.3-1.3l12.9,6l1.3-1.4c5.4-1.1,10.5,1.4,14.9,4l0.7-1l6.5,4.6
		l1.6-0.1v-2.9c7.5-1.9,13.6,10.4,20.6,13.1l1.3,4l-3.1,2.4l1.1,3.3c4.8,2.2,10.5-1.8,15,1.1l0.9-1.1l5-0.8v-0.8
		c9.2-2.5,16.2-4.3,24.7,1c-3.3,3.1,7.4,2.2,8.5,2.1l1.5-1.5l5-0.8v-0.8c9.2-2.5,16.2-4.3,24.7,1l0.3,2.7l7.8,1l1.2,2.1l4,0.9l2.1-1
		l9.1,0.4l0.3,2.1c4.4,2.2,9.7-1.5,14-2.1l-0.9,2.1l7.8-0.6l-1.9,1.2c4.2,1.7,9.1,1.6,13.2,3.6v4.4l-5,2.7v3.4l5,0.8v0.9h-6.9
		l-1.5-3.5l-1.7,3l2.3,2.1h7c1.2,0,12.4,1.9,9,4h9l1.7,1c6.5-2.1,13.1-3.6,19.7-5.2l-0.8-0.8l5-0.5l-6.2-0.2
		c-3.6-2.4-7.8-4.7-12.5-4.1v1.5l-2,0.2v0.8h-3.2l-4.9-4.7l1.9-2.3l-1.2-1.1c7.1-1.6,15.9-0.8,21.7-5.4l-4.3-3l-0.7-3l4.9,0.1v-3.6
		l-1.2-1.1c3.2-3.9,11.4-7.5,16.7-7.3l0.9-3.2l-1-0.6l11.3-0.7l1.3-1.4c5.4-1.1,10.5,1.4,14.9,4l0.7-1l6.5,4.6l1.6-0.1v-2.9
		c7.5-1.9,15.3-1.2,22.3,1.5l1.3,4l-3.1,2.4l1.1,3.3l33.7,1.5l4.3,3.1c4.8-2.2,10.7-4.3,16.1-3.1l1.5-1.5l5-0.8v-0.8
		c9.2-2.5,16.2-4.3,24.7,1l0.3,2.7l7.8,1l1.2,2.1l4,0.9l2.1-1l9.1,0.4l0.3,2.1c0.7,0.4,1.5,0.6,2.2,0.6l-2.3-3.3
		c-0.4-2.2-0.2-5.3,1.3-7.2c2.8,0.9,5.2-1.7,6.2-3.8c3.2,0,6.6-0.8,9.6-1.8l6.6,2.9v5.2l1.6,0.2c0.9-3,3.4-6.8,6.5-8.4
		c-0.1,0.3-0.2,2,0.7,1.7l2.7-2.7c2.6-0.3,6.1-1.7,5.3-4.6h6.9l1.3,2.5c3.2,1.5,7.8,1.7,11.3,1.3c-0.9,0.4-1.2,1.9-0.3,2.4l4,2.2
		v5.2l1.6,0.2c0.9-3,3.4-6.8,6.5-8.4c-0.1,0.3-0.2,2,0.7,1.7l2.7-2.7c2.6-0.3,6.1-1.7,5.3-4.6h6.9l1.3,2.5c3.2,1.5,7.8,1.7,11.3,1.3
		c-1.5,1.8,0,4.5,0,7l2.3,0.3l1.1,2.8h5.8c0.8,1.2,5,2,5.6,2.8v218H4466V147.7z"/>
</g>
<g>
	<path class="st0" d="M5104.2,147.7h3.6v-2.5l11.1-3.5l1.7,1c6.5-2.1-2.4-5.1-2.4-5.1l5.8-3.1h-3.2l-3.9-4.7l0.9-2.3l7-1.3l1.2-1.7
		l2.5,0.6c0,0,0.6-0.8,1.4-1.5c0.8-0.8,4.2-1,4.2-1l2,2.4c0,0,1.8-0.3,2.1-0.6c0.3-0.4,1.3,1,1.3,1l0.8,2.3l2.7-0.8l2.1,1.8l1,1.9
		h-0.2c2.6,1,5.1,1.4,7.1-0.2l-4.3-3l-0.7-3l4.9,0.1l7.5,3.8l-1.2-1.1c3.2-3.9,3.9,5.2,9.3,5.4l0.9-3.2l-1-0.6l11.3-0.7l1.3-1.4
		c5.4-1.1,10.5,1.4,14.9,4l0.7-1l6.5-8.9l1.6-0.1v-2.9l4-1.2l-0.3-1.3l12.9,6l1.3-1.4c5.4-1.1,10.5,1.4,14.9,4l0.7-1l6.5,4.6
		l1.6-0.1v-2.9c7.5-1.9,13.6,10.4,20.6,13.1l1.3,4l-3.1,2.4l1.1,3.3c4.8,2.2,10.5-1.8,15,1.1l0.9-1.1l5-0.8v-0.8
		c9.2-2.5,16.2-4.3,24.7,1c-3.3,3.1,7.4,2.2,8.5,2.1l1.5-1.5l5-0.8v-0.8c9.2-2.5,16.2-4.3,24.7,1l0.3,2.7l7.8,1l1.2,2.1l4,0.9l2.1-1
		l9.1,0.4l0.3,2.1c4.4,2.2,9.7-1.5,14-2.1l-0.9,2.1l7.8-0.6l-1.9,1.2c4.2,1.7,9.1,1.6,13.2,3.6v4.4l-5,2.7v3.4l5,0.8v0.9h-6.9
		l-1.5-3.5l-1.7,3l2.3,2.1h7c1.2,0,12.4,1.9,9,4h4v-0.2c-0.4-0.2-1.4-0.2-1.1-0.5c0.6-0.9,1.8-0.2,2.1,0.7h2.9
		c0.3-0.9,1.3-1.8,2-1.1c0,0.6,0,1.1-0.1,1.6l0.9,0.5c0.8-0.3,1.6-0.5,2.3-0.7c0-0.2,0-0.5,0.3-0.6c0.7-0.5,2.2-0.9,2.9-0.3
		c4.7-1.3,9.4-2.4,14.2-3.6l-0.8-0.8l5-0.5l-6.2-0.2c-3.6-2.4-7.8-4.7-12.5-4.1v1.5l-2,0.2v0.8h-3.2l-4.9-4.7l1.9-2.3l-1.2-1.1
		c7.1-1.6,15.9-0.8,21.7-5.4l-4.3-3l-0.7-3l4.9,0.1v-3.6l-1.2-1.1c3.2-3.9,11.4-7.5,16.7-7.3l0.9-3.2l-1-0.6l11.3-0.7l1.3-1.4
		c5.4-1.1,10.5,1.4,14.9,4l0.7-1l6.5,4.6l1.6-0.1v-2.9c7.5-1.9,15.3-1.2,22.3,1.5l1.3,4l-3.1,2.4l1.1,3.3l33.7,1.5l4.3,3.1
		c4.8-2.2,10.7-4.3,16.1-3.1l1.5-1.5l5-0.8v-0.8c9.2-2.5,16.2-4.3,24.7,1l0.3,2.7l7.8,1l1.2,2.1l4,0.9l2.1-1l9.1,0.4l0.3,2.1
		c0.7,0.4,1.5,0.6,2.2,0.6l-2.3-3.3c-0.4-2.2-0.2-5.3,1.3-7.2c2.8,0.9,5.2-1.7,6.2-3.8c3.2,0,6.6-0.8,9.6-1.8l6.6,2.9v5.2l1.6,0.2
		c0.9-3,3.4-6.8,6.5-8.4c-0.1,0.3-0.2,2,0.7,1.7l2.7-2.7c2.6-0.3,6.1-1.7,5.3-4.6h6.9l1.3,2.5c3.2,1.5,7.8,1.7,11.3,1.3
		c-0.9,0.4-1.2,1.9-0.3,2.4l4,2.2v5.2l1.6,0.2c0.9-3,3.4-6.8,6.5-8.4c-0.1,0.3-0.2,2,0.7,1.7l2.7-2.7c2.6-0.3,6.1-1.7,5.3-4.6h6.9
		l1.3,2.5c3.2,1.5,7.8,1.7,11.3,1.3c-1.5,1.8,0,4.5,0,7l2.3,0.3l1.1,2.8h5.8c0.8,1.1,4.6,1.9,5.5,2.7V111
		c-3.4,1.4-11.7,2.8-12.2,2.5l3-0.6v-4.5c-0.6-0.9-2.2-1-3.2-0.8v3h-5c0,0,4.9-8.3,0-8.6c0,0-2.4,1.4-3.1,0v-1.8c0,0-6.3-1.8-8,0
		c0,0-2.3,3.9,0,5.1h3.1c0.5,1.7-0.6,4-1.5,5.3c0,0-0.6,1.3-1.3,0c0.3-2.4-0.8-5.7-2.7-7.3c-1-0.9-2.8,0.8-2.2,1.9h-3.2
		c2.2-3,0.6-3.1,0.5-3.1c0,0-2.3-0.4-3.4,0.4l-2.7-0.7v-1.6c0,0-1.9-1.6-3,0l-0.5,1.1c0,0-1.7-0.2-1.5-1.7l2.2-3.4
		c0,0,1.4,0.7,2.8,0c0.8-1.2,0.8-2,0-2.3h-5.7c-0.4-1-2.4-1-2.3-0.7c0,0-3,1.5,1.8,5.2c-1.9,3.3-2.9,2.8-4.9,6.1l-2,0.7l-1.1-0.3
		v-5.6h2.2v-4.1c-3.7-1.2,2.4-2.2,0.8-4.3c-2.9-3.6-9.7,4.6-10.4,5.4c-1.1,0.8-2.2-1.5-1.6-2.4h-4.2V89h-11.1l-1.7,1.9v-3
		c-1.4-0.5-3,0-4.5,0L5655,89l-1.5-3.1h-5v-3l-2.1,1.1l-6-3.4l0.7-1.6h-2.6l-0.9,0.8l-1.5-1.7l0.9-0.1l1.4-0.1l3.9-0.1l5.3-6.1
		c0.3,1.1,2.1,1.4,3,1.1v-3.1h4.1v3.1c1-0.5,2.9,1,2,1.9h3.2v-5h1.8l3.1-4.3l-1.9-4.5l1.1-2.2l-3.1-1.2l-1.2-4.3
		c-2.4-0.4-9.7-0.3-12,0c-0.3-2.3-3.5-4.3-5.3-5.2l4.2-6.1V37l0.7-1.1l-4.9,0.1c-2.3-18.2,2.8-6.2-6.3-20.5h-5.8l-1.1-3.1L5627,12
		c0-2.7-1.5-5.8,0-7.7c-3.5,0.5-8,0.2-11.2-1.5l-1.2-2.8h-6.8c0.8,3.2-2.7,4.8-5.3,5.1l-2.7,3c-0.8,0.3-0.8-1.6-0.7-1.9
		c-3.1,1.7-5.6,5.9-6.5,9.2l-1.6-0.3V9.3l-4-2.4c-0.8-0.6-0.5-2.3,0.3-2.7c-3.5,0.5-8,0.2-11.2-1.5l-1-2.7h-6.8
		c0.8,3.2-2.7,4.8-5.3,5.1l-2.7,3c-0.8,0.3-0.8-1.6-0.7-1.9c-3.1,1.7-5.6,5.9-6.5,9.2l-1.6-0.3V9.3l-6.5-3.2c-3,1.1-6.3,1.9-9.6,2
		c-1,2.3-3.3,5.2-6.1,4.2c-1.4,2.1-1.6,5.5-1.3,8l3.1,4.8l-1.1,6.6l-4.3,1.9l-6.8-1.9l-3.8,2.3l-0.9-2.2l-5-1.5v-1.6
		c-5.4-2.9-12.1-6.1-18.4-5.1c-2.5,2.1-2.7,6.1-6.3,7c0,1.7,0.1,3.7-0.3,5.3c-1.8-1.8-5.9-1.5-8.1-1.2l-1.5-3l-5-1.5v-1.6
		c-5.4-2.9-12.1-6.1-18.4-5.1c-2.5,2.1-2.7,6.1-6.3,7c0,1.7,0.1,3.7-0.3,5.3c-2.1,1.3-5.2,2.6-7.7,1.9l-1.2,4.3l-3.9,1.9l-2.1-1.9
		l-9.1,0.8l-0.3,3.6c-0.2-1.9-4.1-1.2-3.1,1.7L5416,46l0.7-1c-0.1-2.7-6,2.5-3.9-2.3l-2.5,1.1c-0.4-0.7-3-1.7-3.6-1.1
		c-1.2,1.2,1.8,3.5,0.8,4.2l-4.4,1.1l-3.4-2.3c-0.8,1,0.7,3.4,1.8,2.5c-3.4,2.7-6.7,5.1-11.1,5.7l-1.9,1.5v8.7l5,5.3
		c-1.4-1-1.5,3.3,0,2.4v4.5l-5,1.5v1.8c1,1,3.1-1.7,4,0h2.8l1.5-6.9l1.7,1.1c0.7,2.8-0.3,6.9-2.2,9h-6.9l-1.2,4.3
		c-0.8,0.5-7.2,0.6-7.8,0v3.6h-8.9l-1.7,1.9v-3c-1.4-0.5-3,0-4.5,0l-0.5,1.1l-1.5-3.1h-5v-3l-2.1,1.1l-6-3.4l0.7-1.6h-2.6l-0.9,0.8
		l-1.5-1.7l0.9-0.1l1.4-0.1l3.9-0.1l5.3-6.1c0.3,1.1,2.1,1.4,3,1.1v-3.1h4.1v3.1c1-0.5,2.9,1,2,1.9h3.2v-5h1.8l3.1-4.3l-1.9-4.5
		l1.1-2.2l-3.1-1.2l-1.2-4.3c-2.4-0.4-9.7-0.3-12,0c-0.3-2.3-3.5-4.3-5.3-5.2l4.2-6.1v-4.9l0.7-1.1l-4.9,0.1
		c-2.3-18.1,2.8-6.2-6.3-20.5h-5.8l-1.1-3.1l-2.3-0.4c0-2.8-1.5-5.8,0-7.7c-3.5,0.5-8,0.2-11.2-1.5l-1.2-2.8h-6.8
		c0.8,3.2-2.7,4.8-5.3,5.1l-2.7,3c-0.8,0.3-0.8-1.6-0.7-1.9c-3.1,1.7-5.6,5.9-6.5,9.2l-1.6-0.3V11l-6.5-3.2c-3,1.1-6.3,1.9-9.6,2
		c-1,2.3-3.3,5.2-6.1,4.2c-1.4,2.1-1.6,5.5-1.3,8l3.1,4.8l-1.1,6.6l-4.3,1.9l-6.8-1.9l-6.7,3.1l-1.6-1.1h-4.4l-1.6,1.1l-3.1-1.2
		l-4.5,1.2l-4.3,6.2h-2.5c-2.6-5.3-8.1-6.4-13.5-6.2l-1.5-3l-5-1.5v-1.6c-5.4-2.9-12.1-6.1-18.4-5.1c-2.5,2.1-2.7,6.1-6.3,7
		c0,1.7,0.1,3.7-0.3,5.3c-2.1,1.3-5.2,2.6-7.7,1.9l-1.2,4.3l-3.9,1.9l-2.1-1.9l-9.1,0.8l-0.3,3.6c-0.2-1.9-4.1-1.2-3.1,1.7l-1.6-2.1
		l0.7-1c-0.1-2.7-6,2.5-3.9-2.3l-2.5,1.1c-0.4-0.7-3-1.7-3.6-1.1c-1.2,1.2,1.8,3.5,0.8,4.2l-4.4,1.1l-3.4-2.3
		c-0.8,1,0.7,3.4,1.8,2.5c-3.4,2.7-6.7,5.1-11.1,5.7l-1.9,1.5V66l5,5.3c-1.4-1-1.5,3.3,0,2.4v4.5l-5,1.5v1.8c1,1,3.1-1.7,4,0h2.8
		l1.5-6.9l1.7,1.1c0.7,2.8-0.3,6.9-2.2,9h-6.9l-1.2,4.3c-0.8,0.5-7.2,0.6-7.8,0v8c-2.4,1.1-2.1-2.2-4.2-1.1l-4.1,5.3
		c0.4-1.5-2.6-0.8-3.1,0l-3.2-1.1c-0.3,0.8,0,2.6,1.1,2.8l-3.1-0.1c0.3,2.3,0.6,7.7-1.1,9.6l-8.7,1.9L5104.2,147.7z"/>
	<path class="st1" d="M5104,147.7h3.8v-2.5l11.1-3.5l1.7,1c6.5-2.1-2.4-5.1-2.4-5.1l5.8-3.1h-3.2l-3.9-4.7l0.9-2.3l7-1.3l1.2-1.7
		l2.5,0.6c0,0,0.6-0.8,1.4-1.5c0.8-0.8,4.2-1,4.2-1l2,2.4c0,0,1.8-0.3,2.1-0.6c0.3-0.4,1.3,1,1.3,1l0.8,2.3l2.7-0.8l2.1,1.8l1,1.9
		h-0.2c2.6,1,5.1,1.4,7.1-0.2l-4.3-3l-0.7-3l4.9,0.1l7.5,3.8l-1.2-1.1c3.2-3.9,3.9,5.2,9.3,5.4l0.9-3.2l-1-0.6l11.3-0.7l1.3-1.4
		c5.4-1.1,10.5,1.4,14.9,4l0.7-1l6.5-8.9l1.6-0.1v-2.9l4-1.2l-0.3-1.3l12.9,6l1.3-1.4c5.4-1.1,10.5,1.4,14.9,4l0.7-1l6.5,4.6
		l1.6-0.1v-2.9c7.5-1.9,13.6,10.4,20.6,13.1l1.3,4l-3.1,2.4l1.1,3.3c4.8,2.2,10.5-1.8,15,1.1l0.9-1.1l5-0.8v-0.8
		c9.2-2.5,16.2-4.3,24.7,1c-3.3,3.1,7.4,2.2,8.5,2.1l1.5-1.5l5-0.8v-0.8c9.2-2.5,16.2-4.3,24.7,1l0.3,2.7l7.8,1l1.2,2.1l4,0.9l2.1-1
		l9.1,0.4l0.3,2.1c4.4,2.2,9.7-1.5,14-2.1l-0.9,2.1l7.8-0.6l-1.9,1.2c4.2,1.7,9.1,1.6,13.2,3.6v4.4l-5,2.7v3.4l5,0.8v0.9h-6.9
		l-1.5-3.5l-1.7,3l2.3,2.1h7c1.2,0,12.4,1.9,9,4h9l1.7,1c6.5-2.1,13.1-3.6,19.7-5.2l-0.8-0.8l5-0.5l-6.2-0.2
		c-3.6-2.4-7.8-4.7-12.5-4.1v1.5l-2,0.2v0.8h-3.2l-4.9-4.7l1.9-2.3l-1.2-1.1c7.1-1.6,15.9-0.8,21.7-5.4l-4.3-3l-0.7-3l4.9,0.1v-3.6
		l-1.2-1.1c3.2-3.9,11.4-7.5,16.7-7.3l0.9-3.2l-1-0.6l11.3-0.7l1.3-1.4c5.4-1.1,10.5,1.4,14.9,4l0.7-1l6.5,4.6l1.6-0.1v-2.9
		c7.5-1.9,15.3-1.2,22.3,1.5l1.3,4l-3.1,2.4l1.1,3.3l33.7,1.5l4.3,3.1c4.8-2.2,10.7-4.3,16.1-3.1l1.5-1.5l5-0.8v-0.8
		c9.2-2.5,16.2-4.3,24.7,1l0.3,2.7l7.8,1l1.2,2.1l4,0.9l2.1-1l9.1,0.4l0.3,2.1c0.7,0.4,1.5,0.6,2.2,0.6l-2.3-3.3
		c-0.4-2.2-0.2-5.3,1.3-7.2c2.8,0.9,5.2-1.7,6.2-3.8c3.2,0,6.6-0.8,9.6-1.8l6.6,2.9v5.2l1.6,0.2c0.9-3,3.4-6.8,6.5-8.4
		c-0.1,0.3-0.2,2,0.7,1.7l2.7-2.7c2.6-0.3,6.1-1.7,5.3-4.6h6.9l1.3,2.5c3.2,1.5,7.8,1.7,11.3,1.3c-0.9,0.4-1.2,1.9-0.3,2.4l4,2.2
		v5.2l1.6,0.2c0.9-3,3.4-6.8,6.5-8.4c-0.1,0.3-0.2,2,0.7,1.7l2.7-2.7c2.6-0.3,6.1-1.7,5.3-4.6h6.9l1.3,2.5c3.2,1.5,7.8,1.7,11.3,1.3
		c-1.5,1.8,0,4.5,0,7l2.3,0.3l1.1,2.8h5.8c0.8,1.2,5,2,5.6,2.8v218H5104V147.7z"/>
</g>
<g>
	<path class="st0" d="M5742.2,147.7h3.6v-2.5l11.1-3.5l1.7,1c6.5-2.1-2.4-5.1-2.4-5.1l5.8-3.1h-3.2l-3.9-4.7l0.9-2.3l7-1.3l1.2-1.7
		l2.5,0.6c0,0,0.6-0.8,1.4-1.5c0.8-0.8,4.2-1,4.2-1l2,2.4c0,0,1.8-0.3,2.1-0.6c0.3-0.4,1.3,1,1.3,1l0.8,2.3l2.7-0.8l2.1,1.8l1,1.9
		h-0.2c2.6,1,5.1,1.4,7.1-0.2l-4.3-3l-0.7-3l4.9,0.1l7.5,3.8l-1.2-1.1c3.2-3.9,3.9,5.2,9.3,5.4l0.9-3.2l-1-0.6l11.3-0.7l1.3-1.4
		c5.4-1.1,10.5,1.4,14.9,4l0.7-1l6.5-8.9l1.6-0.1v-2.9l4-1.2l-0.3-1.3l12.9,6l1.3-1.4c5.4-1.1,10.5,1.4,14.9,4l0.7-1l6.5,4.6
		l1.6-0.1v-2.9c7.5-1.9,13.6,10.4,20.6,13.1l1.3,4l-3.1,2.4l1.1,3.3c4.8,2.2,10.5-1.8,15,1.1l0.9-1.1l5-0.8v-0.8
		c9.2-2.5,16.2-4.3,24.7,1c-3.3,3.1,7.4,2.2,8.5,2.1l1.5-1.5l5-0.8v-0.8c9.2-2.5,16.2-4.3,24.7,1l0.3,2.7l7.8,1l1.2,2.1l4,0.9l2.1-1
		l9.1,0.4l0.3,2.1c4.4,2.2,9.7-1.5,14-2.1l-0.9,2.1l7.8-0.6l-1.9,1.2c4.2,1.7,9.1,1.6,13.2,3.6v4.4l-5,2.7v3.4l5,0.8v0.9h-6.9
		l-1.5-3.5l-1.7,3l2.3,2.1h7c1.2,0,12.4,1.9,9,4h4v-0.2c-0.4-0.2-1.4-0.2-1.1-0.5c0.6-0.9,1.8-0.2,2.1,0.7h2.9
		c0.3-0.9,1.3-1.8,2-1.1c0,0.6,0,1.1-0.1,1.6l0.9,0.5c0.8-0.3,1.6-0.5,2.3-0.7c0-0.2,0-0.5,0.3-0.6c0.7-0.5,2.2-0.9,2.9-0.3
		c4.7-1.3,9.4-2.4,14.2-3.6l-0.8-0.8l5-0.5l-6.2-0.2c-3.6-2.4-7.8-4.7-12.5-4.1v1.5l-2,0.2v0.8h-3.2l-4.9-4.7l1.9-2.3l-1.2-1.1
		c7.1-1.6,15.9-0.8,21.7-5.4l-4.3-3l-0.7-3l4.9,0.1v-3.6l-1.2-1.1c3.2-3.9,11.4-7.5,16.7-7.3l0.9-3.2l-1-0.6l11.3-0.7l1.3-1.4
		c5.4-1.1,10.5,1.4,14.9,4l0.7-1l6.5,4.6l1.6-0.1v-2.9c7.5-1.9,15.3-1.2,22.3,1.5l1.3,4l-3.1,2.4l1.1,3.3l33.7,1.5l4.3,3.1
		c4.8-2.2,10.7-4.3,16.1-3.1l1.5-1.5l5-0.8v-0.8c9.2-2.5,16.2-4.3,24.7,1l0.3,2.7l7.8,1l1.2,2.1l4,0.9l2.1-1l9.1,0.4l0.3,2.1
		c0.7,0.4,1.5,0.6,2.2,0.6l-2.3-3.3c-0.4-2.2-0.2-5.3,1.3-7.2c2.8,0.9,5.2-1.7,6.2-3.8c3.2,0,6.6-0.8,9.6-1.8l6.6,2.9v5.2l1.6,0.2
		c0.9-3,3.4-6.8,6.5-8.4c-0.1,0.3-0.2,2,0.7,1.7l2.7-2.7c2.6-0.3,6.1-1.7,5.3-4.6h6.9l1.3,2.5c3.2,1.5,7.8,1.7,11.3,1.3
		c-0.9,0.4-1.2,1.9-0.3,2.4l4,2.2v5.2l1.6,0.2c0.9-3,3.4-6.8,6.5-8.4c-0.1,0.3-0.2,2,0.7,1.7l2.7-2.7c2.6-0.3,6.1-1.7,5.3-4.6h6.9
		l1.3,2.5c3.2,1.5,7.8,1.7,11.3,1.3c-1.5,1.8,0,4.5,0,7l2.3,0.3l1.1,2.8h5.8c0.8,1.1,4.6,1.9,5.5,2.7V111
		c-3.4,1.4-11.7,2.8-12.2,2.5l3-0.6v-4.5c-0.6-0.9-2.2-1-3.2-0.8v3h-5c0,0,4.9-8.3,0-8.6c0,0-2.4,1.4-3.1,0v-1.8c0,0-6.3-1.8-8,0
		c0,0-2.3,3.9,0,5.1h3.1c0.5,1.7-0.6,4-1.5,5.3c0,0-0.6,1.3-1.3,0c0.3-2.4-0.8-5.7-2.7-7.3c-1-0.9-2.8,0.8-2.2,1.9h-3.2
		c2.2-3,0.6-3.1,0.5-3.1c0,0-2.3-0.4-3.4,0.4l-2.7-0.7v-1.6c0,0-1.9-1.6-3,0l-0.5,1.1c0,0-1.7-0.2-1.5-1.7l2.2-3.4
		c0,0,1.4,0.7,2.8,0c0.8-1.2,0.8-2,0-2.3h-5.7c-0.4-1-2.4-1-2.3-0.7c0,0-3,1.5,1.8,5.2c-1.9,3.3-2.9,2.8-4.9,6.1l-2,0.7l-1.1-0.3
		v-5.6h2.2v-4.1c-3.7-1.2,2.4-2.2,0.8-4.3c-2.9-3.6-9.7,4.6-10.4,5.4c-1.1,0.8-2.2-1.5-1.6-2.4h-4.2V89h-11.1l-1.7,1.9v-3
		c-1.4-0.5-3,0-4.5,0L6293,89l-1.5-3.1h-5v-3l-2.1,1.1l-6-3.4l0.7-1.6h-2.6l-0.9,0.8l-1.5-1.7l0.9-0.1l1.4-0.1l3.9-0.1l5.3-6.1
		c0.3,1.1,2.1,1.4,3,1.1v-3.1h4.1v3.1c1-0.5,2.9,1,2,1.9h3.2v-5h1.8l3.1-4.3l-1.9-4.5l1.1-2.2l-3.1-1.2l-1.2-4.3
		c-2.4-0.4-9.7-0.3-12,0c-0.3-2.3-3.5-4.3-5.3-5.2l4.2-6.1V37l0.7-1.1l-4.9,0.1c-2.3-18.2,2.8-6.2-6.3-20.5h-5.8l-1.1-3.1L6265,12
		c0-2.7-1.5-5.8,0-7.7c-3.5,0.5-8,0.2-11.2-1.5l-1.2-2.8h-6.8c0.8,3.2-2.7,4.8-5.3,5.1l-2.7,3c-0.8,0.3-0.8-1.6-0.7-1.9
		c-3.1,1.7-5.6,5.9-6.5,9.2l-1.6-0.3V9.3l-4-2.4c-0.8-0.6-0.5-2.3,0.3-2.7c-3.5,0.5-8,0.2-11.2-1.5l-1-2.7h-6.8
		c0.8,3.2-2.7,4.8-5.3,5.1l-2.7,3c-0.8,0.3-0.8-1.6-0.7-1.9c-3.1,1.7-5.6,5.9-6.5,9.2l-1.6-0.3V9.3l-6.5-3.2c-3,1.1-6.3,1.9-9.6,2
		c-1,2.3-3.3,5.2-6.1,4.2c-1.4,2.1-1.6,5.5-1.3,8l3.1,4.8l-1.1,6.6l-4.3,1.9l-6.8-1.9l-3.8,2.3l-0.9-2.2l-5-1.5v-1.6
		c-5.4-2.9-12.1-6.1-18.4-5.1c-2.5,2.1-2.7,6.1-6.3,7c0,1.7,0.1,3.7-0.3,5.3c-1.8-1.8-5.9-1.5-8.1-1.2l-1.5-3l-5-1.5v-1.6
		c-5.4-2.9-12.1-6.1-18.4-5.1c-2.5,2.1-2.7,6.1-6.3,7c0,1.7,0.1,3.7-0.3,5.3c-2.1,1.3-5.2,2.6-7.7,1.9l-1.2,4.3l-3.9,1.9l-2.1-1.9
		l-9.1,0.8l-0.3,3.6c-0.2-1.9-4.1-1.2-3.1,1.7L6054,46l0.7-1c-0.1-2.7-6,2.5-3.9-2.3l-2.5,1.1c-0.4-0.7-3-1.7-3.6-1.1
		c-1.2,1.2,1.8,3.5,0.8,4.2l-4.4,1.1l-3.4-2.3c-0.8,1,0.7,3.4,1.8,2.5c-3.4,2.7-6.7,5.1-11.1,5.7l-1.9,1.5v8.7l5,5.3
		c-1.4-1-1.5,3.3,0,2.4v4.5l-5,1.5v1.8c1,1,3.1-1.7,4,0h2.8l1.5-6.9l1.7,1.1c0.7,2.8-0.3,6.9-2.2,9h-6.9l-1.2,4.3
		c-0.8,0.5-7.2,0.6-7.8,0v3.6h-8.9l-1.7,1.9v-3c-1.4-0.5-3,0-4.5,0l-0.5,1.1l-1.5-3.1h-5v-3l-2.1,1.1l-6-3.4l0.7-1.6h-2.6l-0.9,0.8
		l-1.5-1.7l0.9-0.1l1.4-0.1l3.9-0.1l5.3-6.1c0.3,1.1,2.1,1.4,3,1.1v-3.1h4.1v3.1c1-0.5,2.9,1,2,1.9h3.2v-5h1.8l3.1-4.3l-1.9-4.5
		l1.1-2.2l-3.1-1.2l-1.2-4.3c-2.4-0.4-9.7-0.3-12,0c-0.3-2.3-3.5-4.3-5.3-5.2l4.2-6.1v-4.9l0.7-1.1l-4.9,0.1
		c-2.3-18.1,2.8-6.2-6.3-20.5h-5.8l-1.1-3.1l-2.3-0.4c0-2.8-1.5-5.8,0-7.7c-3.5,0.5-8,0.2-11.2-1.5l-1.2-2.8h-6.8
		c0.8,3.2-2.7,4.8-5.3,5.1l-2.7,3c-0.8,0.3-0.8-1.6-0.7-1.9c-3.1,1.7-5.6,5.9-6.5,9.2l-1.6-0.3V11l-6.5-3.2c-3,1.1-6.3,1.9-9.6,2
		c-1,2.3-3.3,5.2-6.1,4.2c-1.4,2.1-1.6,5.5-1.3,8l3.1,4.8l-1.1,6.6l-4.3,1.9l-6.8-1.9l-6.7,3.1l-1.6-1.1h-4.4l-1.6,1.1l-3.1-1.2
		l-4.5,1.2l-4.3,6.2h-2.5c-2.6-5.3-8.1-6.4-13.5-6.2l-1.5-3l-5-1.5v-1.6c-5.4-2.9-12.1-6.1-18.4-5.1c-2.5,2.1-2.7,6.1-6.3,7
		c0,1.7,0.1,3.7-0.3,5.3c-2.1,1.3-5.2,2.6-7.7,1.9l-1.2,4.3l-3.9,1.9l-2.1-1.9l-9.1,0.8l-0.3,3.6c-0.2-1.9-4.1-1.2-3.1,1.7l-1.6-2.1
		l0.7-1c-0.1-2.7-6,2.5-3.9-2.3l-2.5,1.1c-0.4-0.7-3-1.7-3.6-1.1c-1.2,1.2,1.8,3.5,0.8,4.2l-4.4,1.1l-3.4-2.3
		c-0.8,1,0.7,3.4,1.8,2.5c-3.4,2.7-6.7,5.1-11.1,5.7l-1.9,1.5V66l5,5.3c-1.4-1-1.5,3.3,0,2.4v4.5l-5,1.5v1.8c1,1,3.1-1.7,4,0h2.8
		l1.5-6.9l1.7,1.1c0.7,2.8-0.3,6.9-2.2,9h-6.9l-1.2,4.3c-0.8,0.5-7.2,0.6-7.8,0v8c-2.4,1.1-2.1-2.2-4.2-1.1l-4.1,5.3
		c0.4-1.5-2.6-0.8-3.1,0l-3.2-1.1c-0.3,0.8,0,2.6,1.1,2.8l-3.1-0.1c0.3,2.3,0.6,7.7-1.1,9.6l-8.7,1.9L5742.2,147.7z"/>
	<path class="st1" d="M5742,147.7h3.8v-2.5l11.1-3.5l1.7,1c6.5-2.1-2.4-5.1-2.4-5.1l5.8-3.1h-3.2l-3.9-4.7l0.9-2.3l7-1.3l1.2-1.7
		l2.5,0.6c0,0,0.6-0.8,1.4-1.5c0.8-0.8,4.2-1,4.2-1l2,2.4c0,0,1.8-0.3,2.1-0.6c0.3-0.4,1.3,1,1.3,1l0.8,2.3l2.7-0.8l2.1,1.8l1,1.9
		h-0.2c2.6,1,5.1,1.4,7.1-0.2l-4.3-3l-0.7-3l4.9,0.1l7.5,3.8l-1.2-1.1c3.2-3.9,3.9,5.2,9.3,5.4l0.9-3.2l-1-0.6l11.3-0.7l1.3-1.4
		c5.4-1.1,10.5,1.4,14.9,4l0.7-1l6.5-8.9l1.6-0.1v-2.9l4-1.2l-0.3-1.3l12.9,6l1.3-1.4c5.4-1.1,10.5,1.4,14.9,4l0.7-1l6.5,4.6
		l1.6-0.1v-2.9c7.5-1.9,13.6,10.4,20.6,13.1l1.3,4l-3.1,2.4l1.1,3.3c4.8,2.2,10.5-1.8,15,1.1l0.9-1.1l5-0.8v-0.8
		c9.2-2.5,16.2-4.3,24.7,1c-3.3,3.1,7.4,2.2,8.5,2.1l1.5-1.5l5-0.8v-0.8c9.2-2.5,16.2-4.3,24.7,1l0.3,2.7l7.8,1l1.2,2.1l4,0.9l2.1-1
		l9.1,0.4l0.3,2.1c4.4,2.2,9.7-1.5,14-2.1l-0.9,2.1l7.8-0.6l-1.9,1.2c4.2,1.7,9.1,1.6,13.2,3.6v4.4l-5,2.7v3.4l5,0.8v0.9h-6.9
		l-1.5-3.5l-1.7,3l2.3,2.1h7c1.2,0,12.4,1.9,9,4h9l1.7,1c6.5-2.1,13.1-3.6,19.7-5.2l-0.8-0.8l5-0.5l-6.2-0.2
		c-3.6-2.4-7.8-4.7-12.5-4.1v1.5l-2,0.2v0.8h-3.2l-4.9-4.7l1.9-2.3l-1.2-1.1c7.1-1.6,15.9-0.8,21.7-5.4l-4.3-3l-0.7-3l4.9,0.1v-3.6
		l-1.2-1.1c3.2-3.9,11.4-7.5,16.7-7.3l0.9-3.2l-1-0.6l11.3-0.7l1.3-1.4c5.4-1.1,10.5,1.4,14.9,4l0.7-1l6.5,4.6l1.6-0.1v-2.9
		c7.5-1.9,15.3-1.2,22.3,1.5l1.3,4l-3.1,2.4l1.1,3.3l33.7,1.5l4.3,3.1c4.8-2.2,10.7-4.3,16.1-3.1l1.5-1.5l5-0.8v-0.8
		c9.2-2.5,16.2-4.3,24.7,1l0.3,2.7l7.8,1l1.2,2.1l4,0.9l2.1-1l9.1,0.4l0.3,2.1c0.7,0.4,1.5,0.6,2.2,0.6l-2.3-3.3
		c-0.4-2.2-0.2-5.3,1.3-7.2c2.8,0.9,5.2-1.7,6.2-3.8c3.2,0,6.6-0.8,9.6-1.8l6.6,2.9v5.2l1.6,0.2c0.9-3,3.4-6.8,6.5-8.4
		c-0.1,0.3-0.2,2,0.7,1.7l2.7-2.7c2.6-0.3,6.1-1.7,5.3-4.6h6.9l1.3,2.5c3.2,1.5,7.8,1.7,11.3,1.3c-0.9,0.4-1.2,1.9-0.3,2.4l4,2.2
		v5.2l1.6,0.2c0.9-3,3.4-6.8,6.5-8.4c-0.1,0.3-0.2,2,0.7,1.7l2.7-2.7c2.6-0.3,6.1-1.7,5.3-4.6h6.9l1.3,2.5c3.2,1.5,7.8,1.7,11.3,1.3
		c-1.5,1.8,0,4.5,0,7l2.3,0.3l1.1,2.8h5.8c0.8,1.2,5,2,5.6,2.8v218H5742V147.7z"/>
</g>
</svg>
