<?xml version="1.0" encoding="utf-8"?>
<!-- Generator: Adobe Illustrator 23.0.3, SVG Export Plug-In . SVG Version: 6.00 Build 0)  -->
<svg version="1.1" id="Logo" xmlns="http://www.w3.org/2000/svg" xmlns:xlink="http://www.w3.org/1999/xlink" x="0px" y="0px"
	 width="400px" height="215px" viewBox="0 0 400 215" style="enable-background:new 0 0 400 215;" xml:space="preserve">
<style type="text/css">
	.st0{fill:#3E0000;}
	.st1{fill:#ED1C24;}
	.st2{fill:url(#SVGID_1_);}
	.st3{fill:#007731;}
	.st4{fill:url(#SVGID_2_);}
</style>
<g>
	<path class="st0" d="M177.7,35.9c-8.7-0.6-18.9-1.3-28.1-2.2c-10.1-1-19.5-2-28.5-3.2c-19.6-2.5-37.8-5.2-55.5-8.4
		c-0.6-0.1-1-0.7-0.9-1.3l0.1-0.3c0.1-0.6,0.6-1,1.1-1c0.1,0,0.1,0,0.2,0c17.6,2.4,36.3,4.5,55.6,6.2c9,0.8,18.3,1.5,28.4,2.1
		c8,0.5,16.7,0.9,27.4,1.1c0.6,0,1.1,0.5,1.1,1.1l0.3,4.5c0,0.3-0.1,0.7-0.3,0.9C178.4,35.8,178.1,35.9,177.7,35.9
		C177.8,35.9,177.7,35.9,177.7,35.9z"/>
	<path class="st0" d="M221,35.9c-0.3,0-0.6-0.1-0.9-0.4c-0.2-0.3-0.3-0.6-0.3-1l0.9-4.5c0.1-0.5,0.6-0.9,1.1-0.9
		c10.7-0.3,19.5-0.6,27.5-1.1c10.1-0.6,19.4-1.3,28.4-2.1c19.3-1.7,38-3.8,55.6-6.2c0.1,0,0.1,0,0.2,0c0.6,0,1,0.4,1.1,1l0.1,0.3
		c0.1,0.6-0.3,1.2-0.9,1.3c-17.8,3.2-36,5.9-55.5,8.4c-9,1.2-18.4,2.2-28.5,3.2C240.8,34.7,230.3,35.3,221,35.9
		C221.1,35.9,221,35.9,221,35.9z"/>
	<path class="st1" d="M98.9,47.2L92.1,46l-1-6.8c-0.1-0.6-0.5-1.1-1.1-1.2c-0.6-0.1-1.2,0.2-1.4,0.7l-3.2,6.1l-6.8-1.1
		c-0.6-0.1-1.2,0.2-1.4,0.7c-0.3,0.5-0.2,1.2,0.2,1.6l4.8,4.9L79,57.1c-0.3,0.5-0.2,1.2,0.2,1.6c0.4,0.4,1.1,0.5,1.6,0.3l6.2-3.1
		l4.8,4.9c0.2,0.2,0.5,0.3,0.8,0.4c0.3,0,0.6,0,0.8-0.1c0.5-0.3,0.8-0.8,0.7-1.4l-1-6.8l6.2-3.1c0.5-0.3,0.8-0.8,0.7-1.4
		C99.9,47.7,99.4,47.3,98.9,47.2z"/>
	<path class="st1" d="M300.7,47.2l6.8-1.1l1-6.8c0.1-0.6,0.5-1.1,1.1-1.2c0.6-0.1,1.2,0.2,1.5,0.7l3.2,6.1l6.8-1.1
		c0.6-0.1,1.2,0.2,1.4,0.7c0.3,0.5,0.2,1.2-0.2,1.6l-4.8,4.9l3.2,6.1c0.3,0.5,0.2,1.2-0.2,1.6c-0.4,0.4-1.1,0.5-1.6,0.3l-6.2-3.1
		l-4.8,4.9c-0.2,0.2-0.5,0.3-0.8,0.4c-0.3,0-0.6,0-0.8-0.1c-0.5-0.3-0.8-0.8-0.7-1.4l1-6.8l-6.2-3.1c-0.5-0.3-0.8-0.8-0.7-1.4
		C299.6,47.7,300.1,47.3,300.7,47.2z"/>
	<g>
		<linearGradient id="SVGID_1_" gradientUnits="userSpaceOnUse" x1="199.7582" y1="38.7172" x2="199.7582" y2="0">
			<stop  offset="0" style="stop-color:#007731"/>
			<stop  offset="0.1699" style="stop-color:#1D8836"/>
			<stop  offset="0.3627" style="stop-color:#37983A"/>
			<stop  offset="0.562" style="stop-color:#49A23E"/>
			<stop  offset="0.7699" style="stop-color:#54A93F"/>
			<stop  offset="1" style="stop-color:#58AB40"/>
		</linearGradient>
		<path class="st2" d="M186.5,25.4c0-7.3,8.2-25.4,13.3-25.4c5.1,0,13.3,18.1,13.3,25.4c0,7.3-6,13.3-13.3,13.3
			C192.4,38.7,186.5,32.8,186.5,25.4z"/>
		<g>
			<g>
				<path class="st3" d="M199.7,37.5c-0.1-2.9-0.2-5.9-0.3-8.8l-0.1-8.8l0.1-8.8c0.1-2.9,0.1-5.9,0.3-8.8c0,0,0,0,0,0c0,0,0,0,0,0
					c0.1,2.9,0.2,5.9,0.3,8.8l0.1,8.8l-0.1,8.8C200,31.6,199.9,34.5,199.7,37.5C199.8,37.5,199.8,37.5,199.7,37.5
					C199.7,37.5,199.7,37.5,199.7,37.5z"/>
			</g>
			<g>
				<g>
					<path class="st3" d="M199.7,38.6c-0.2-1.5-0.5-3-1.4-4.2c-0.8-1.2-2.1-2.1-3.4-2.8c-1.3-0.8-2.7-1.4-3.9-2.4
						c-0.6-0.5-1.1-1.2-1.5-1.9c-0.1-0.4-0.2-0.8-0.3-1.1c0-0.4,0-0.8,0-1.2c0,0,0,0,0,0c0,0,0,0,0,0c0.1,1.5,0.9,2.9,2.1,3.7
						c1.2,0.9,2.6,1.5,3.9,2.3c1.3,0.8,2.7,1.7,3.5,3.1C199.7,35.4,199.9,37,199.7,38.6C199.8,38.6,199.8,38.6,199.7,38.6
						C199.7,38.6,199.7,38.6,199.7,38.6z"/>
				</g>
			</g>
			<g>
				<g>
					<path class="st3" d="M199.7,38.6c-0.1-1.5,0.2-3.2,1-4.5c0.8-1.4,2.2-2.3,3.5-3.1c1.4-0.8,2.7-1.4,3.9-2.3
						c1.2-0.8,2-2.2,2.1-3.7c0,0,0,0,0,0c0,0,0,0,0,0c0,0.4,0,0.8,0,1.2c-0.1,0.4-0.2,0.8-0.3,1.1c-0.4,0.7-0.9,1.4-1.5,1.9
						c-1.2,1-2.7,1.7-3.9,2.4c-1.3,0.7-2.5,1.6-3.4,2.8C200.4,35.6,200,37,199.7,38.6C199.8,38.6,199.8,38.6,199.7,38.6
						C199.7,38.6,199.7,38.6,199.7,38.6z"/>
				</g>
			</g>
			<g>
				<g>
					<path class="st3" d="M199.7,29.9c-0.1-1.4,0.1-2.9,0.8-4.2c0.7-1.3,1.8-2.3,2.9-3.2c1.1-0.9,2.1-1.8,2.8-2.9
						c0.7-1.1,1-2.5,1.2-3.9c0,0,0,0,0.1,0c0,0,0,0,0,0c0.1,1.4-0.1,2.9-0.8,4.2c-0.7,1.3-1.8,2.3-2.9,3.2c-1.1,0.9-2.1,1.8-2.8,2.9
						C200.3,27.1,200,28.5,199.7,29.9C199.8,29.9,199.8,29.9,199.7,29.9C199.7,29.9,199.7,29.9,199.7,29.9z"/>
				</g>
				<g>
					<path class="st3" d="M199.7,29.9c-0.2-1.4-0.5-2.8-1.2-3.9c-0.7-1.1-1.7-2.1-2.8-2.9c-1.1-0.9-2.2-1.9-2.9-3.2
						c-0.7-1.3-0.9-2.8-0.8-4.2c0,0,0,0,0.1,0c0,0,0,0,0,0c0.2,1.4,0.5,2.8,1.2,3.9c0.7,1.2,1.7,2.1,2.8,2.9
						c1.1,0.9,2.2,1.9,2.9,3.2C199.7,27,199.9,28.5,199.7,29.9C199.8,29.9,199.8,29.9,199.7,29.9C199.7,29.9,199.7,29.9,199.7,29.9z
						"/>
				</g>
			</g>
			<g>
				<g>
					<path class="st3" d="M199.7,19.3c-0.1-1.1,0-2.3,0.4-3.4c0.4-1.1,1.2-2,2-2.8c0.8-0.8,1.5-1.6,2-2.5c0.5-1,0.7-2,0.9-3.2
						c0,0,0,0,0.1,0c0,0,0,0,0,0c0.1,1.1,0,2.3-0.4,3.4c-0.4,1.1-1.2,2-2,2.8c-0.8,0.8-1.5,1.6-2,2.5
						C200.2,17.1,200,18.2,199.7,19.3C199.8,19.3,199.8,19.3,199.7,19.3C199.7,19.3,199.7,19.3,199.7,19.3z"/>
				</g>
				<g>
					<path class="st3" d="M199.7,19.3c-0.1-1.1-0.4-2.2-0.9-3.2c-0.5-1-1.2-1.7-2-2.5c-0.8-0.8-1.6-1.7-2-2.8
						c-0.4-1.1-0.5-2.3-0.4-3.4c0,0,0,0,0.1,0c0,0,0,0,0,0c0.2,1.1,0.4,2.2,0.9,3.2c0.5,1,1.2,1.8,2,2.5c0.8,0.8,1.6,1.7,2,2.8
						C199.8,17,199.9,18.2,199.7,19.3C199.8,19.3,199.8,19.3,199.7,19.3C199.7,19.3,199.7,19.3,199.7,19.3z"/>
				</g>
			</g>
		</g>
	</g>
	<g>
		<path class="st0" d="M129.8,211.2c-0.6-0.1-1.1-0.6-1-1.3l2.1-20.9c0.1-0.5-0.3-0.9-0.8-1l-6.7-0.7c-0.6-0.1-1.1-0.6-1-1.3
			l0.6-5.5c0.1-0.6,0.6-1,1.1-1c0,0,23.7,2.4,23.7,2.4c0.3,0,0.6,0.2,0.8,0.4c0.2,0.2,0.3,0.5,0.3,0.8l-0.6,5.5
			c-0.1,0.6-0.6,1-1.1,1c0,0-4.9-0.5-6.9-0.7c-0.5,0-0.9,0.3-1,0.8l-2,20.9c0,0.3-0.2,0.6-0.4,0.8c-0.2,0.2-0.5,0.3-0.7,0.3
			C135.9,211.8,129.8,211.2,129.8,211.2z"/>
		<path class="st0" d="M150.1,213.1c-0.6,0-1.1-0.6-1.1-1.2l1.7-28.5c0-0.3,0.2-0.6,0.4-0.8c0.2-0.2,0.5-0.3,0.8-0.3
			c0,0,21,1.2,21,1.2c0.6,0,1.1,0.6,1.1,1.2l-0.3,5.8c0,0.6-0.5,1.1-1.1,1.1c0,0-10.2-0.6-13.1-0.8c-0.4,0-0.7,0.3-0.7,0.7l-0.1,2.1
			c0,0.4,0.3,0.7,0.7,0.7l9.7,0.6c0.3,0,0.6,0.2,0.8,0.4c0.2,0.2,0.3,0.5,0.3,0.8l-0.3,4.8c0,0.6-0.5,1.1-1.1,1.1
			c0,0-7.5-0.4-9.8-0.6c-0.4,0-0.7,0.3-0.8,0.7l-0.1,2.6c0,0.4,0.3,0.7,0.7,0.7l13,0.8c0.3,0,0.6,0.2,0.8,0.4
			c0.2,0.2,0.3,0.5,0.3,0.8l-0.3,5.8c0,0.6-0.5,1.1-1.1,1.1C171.1,214.3,150.1,213.1,150.1,213.1z"/>
		<path class="st0" d="M197.3,214.9c-0.5,0-0.9-0.3-1.1-0.8l-1.5-5c-0.1-0.3-0.3-0.5-0.6-0.5l-7.8-0.1c-0.3,0-0.5,0.2-0.6,0.4
			l-1.6,5c-0.2,0.5-0.6,0.8-1.1,0.8c0,0-6.1-0.1-6.1-0.1c-0.4,0-0.7-0.2-0.9-0.5c-0.2-0.3-0.3-0.7-0.2-1l8.5-28.5
			c0.1-0.5,0.6-0.8,1.1-0.8c0,0,10.3,0.2,10.3,0.2c0.5,0,1,0.4,1.1,0.8l7.7,28.7c0.1,0.3,0,0.7-0.2,1c-0.2,0.3-0.6,0.4-0.9,0.4
			C203.4,215,197.3,214.9,197.3,214.9z M188.3,200.9l4.1,0.1c0.2,0,0.4-0.2,0.3-0.4l-2-8c-0.1-0.3-0.4-0.3-0.5,0l-2.2,7.9
			C187.9,200.7,188.1,200.9,188.3,200.9z"/>
		<path class="st0" d="M231.1,214.5c-6.6,0-14.6-4-15-15.3c-0.2-5.5,1.3-9.8,4.7-12.8c3.6-3.2,7.9-3.7,9.6-3.8c0.3,0,0.5,0,0.8,0
			c4.2,0,7.3,1.5,8.8,2.4c0.5,0.3,0.7,0.9,0.5,1.4l-2.1,5.1c-0.1,0.3-0.4,0.5-0.7,0.6c-0.1,0-0.3,0.1-0.4,0.1c-0.2,0-0.4,0-0.6-0.1
			c-1.1-0.6-2.8-1.3-4.8-1.3l-0.4,0c-2.1,0.1-3.9,0.9-5,2.3c-1.2,1.4-1.8,3.4-1.7,5.8c0.2,4.7,2.8,7.4,7,7.4l0.5,0
			c2.1-0.1,3.9-1,5-1.8c0.2-0.1,0.4-0.2,0.6-0.2c0.1,0,0.2,0,0.3,0c0.3,0.1,0.6,0.3,0.7,0.6l2.6,4.9c0.3,0.5,0.1,1.1-0.3,1.5
			c-1.5,1.1-4.8,3-9.3,3.2C231.5,214.5,231.3,214.5,231.1,214.5z"/>
		<path class="st0" d="M257.6,212.8c-3.2,0-13.7-1.1-14.9-14.6c-0.6-6.9,2-10.9,4.3-13.1c3.4-3.3,7.6-4,9.3-4.1
			c0.4,0,0.9-0.1,1.4-0.1c3.2,0,13.7,1.1,14.9,14.6c1.1,11.7-6.6,16.6-13.4,17.2C258.6,212.8,258.1,212.8,257.6,212.8z M257.4,188.4
			c-0.2,0-0.4,0-0.6,0c-5.2,0.5-5.2,6.4-5,8.9c0.5,5.3,2.5,8.1,6,8.1c0.2,0,0.4,0,0.6,0c3.8-0.3,5.4-3.4,4.9-9.1
			C263,193.4,261.9,188.4,257.4,188.4z"/>
		<path class="st0" d="M278.4,210.5c-2.2,0-4.1-1.6-4.3-3.8c-0.3-2.4,1.4-4.6,3.8-4.9c0.2,0,0.4,0,0.5,0c2.2,0,4.1,1.7,4.3,3.9
			c0.3,2.4-1.4,4.6-3.8,4.9C278.8,210.5,278.6,210.5,278.4,210.5z"/>
	</g>
	<path class="st0" d="M113.4,199.4c-12.6-2-23.8-4.2-34.4-6.6c-5.8-1.3-11.7-2.8-17.6-4.3c-2.2-0.6-4.5-1.2-6.7-1.8l-0.3-0.1
		c-3-0.8-6.2-1.7-9.2-2.5c-0.6-0.1-1-0.7-0.9-1.3l0.1-0.4c0.1-0.6,0.6-0.9,1.1-0.9c0.1,0,0.1,0,0.2,0c3.2,0.6,6.4,1.3,9.5,1.9
		c2.4,0.5,4.7,1,7.1,1.5c5.8,1.2,11.8,2.3,17.6,3.2c10.6,1.8,21.8,3.2,34.4,4.5c0.3,0,0.6,0.2,0.8,0.4c0.2,0.2,0.3,0.6,0.2,0.9
		l-0.6,4.5c0,0.3-0.2,0.6-0.5,0.8c-0.2,0.1-0.4,0.2-0.7,0.2C113.5,199.4,113.4,199.4,113.4,199.4z"/>
	<path class="st0" d="M286,199.4c-0.2,0-0.5-0.1-0.7-0.2c-0.2-0.2-0.4-0.5-0.4-0.8l-0.6-4.5c0-0.3,0-0.6,0.2-0.9s0.5-0.4,0.8-0.4
		c12.5-1.3,23.8-2.7,34.4-4.5c5.9-1,11.8-2,17.6-3.2c2.4-0.5,4.7-1,7.1-1.5c3.1-0.7,6.3-1.3,9.5-1.9c0.1,0,0.1,0,0.2,0
		c0.5,0,1,0.4,1.1,0.9l0.1,0.4c0.1,0.6-0.3,1.2-0.9,1.3c-3.1,0.7-6.2,1.6-9.2,2.5l-0.5,0.1c-2.2,0.6-4.4,1.2-6.6,1.8
		c-5.9,1.6-11.8,3-17.6,4.3c-10.6,2.4-21.8,4.6-34.4,6.6C286.1,199.4,286,199.4,286,199.4z"/>
	<g>
		<g>
			<linearGradient id="SVGID_2_" gradientUnits="userSpaceOnUse" x1="197.6902" y1="172.5936" x2="197.6902" y2="50.0172">
				<stop  offset="0" style="stop-color:#BA131A"/>
				<stop  offset="1" style="stop-color:#ED1C24"/>
			</linearGradient>
			<path class="st4" d="M194.5,172.6c-0.6,0-1.1-0.5-1.1-1.1v-65.2c0-0.6-0.5-1.1-1.1-1.1c-5.7-0.1-10-0.2-10-0.2
				c-0.6,0-1.1-0.5-1.1-1.1V91.8c0-0.6,0.5-1.1,1.1-1.1h33.6c0.6,0,1.1,0.5,1.1,1.1v11.9c0,0.6-0.5,1.1-1.1,1.1
				c-1.7,0.1-4.2,0.2-7.5,0.3c-0.6,0-1.1,0.5-1.1,1.2l0.8,65.1c0,0.3-0.1,0.6-0.3,0.8c-0.2,0.2-0.5,0.3-0.8,0.3H194.5z M151.5,172.6
				c-0.3,0-0.6-0.1-0.8-0.3c-0.2-0.2-0.3-0.5-0.3-0.8l2.7-79.6c0-0.6,0.5-1.1,1.1-1.1h20.5c0.6,0,1.1,0.5,1.1,1.1v10.7
				c0,0.6-0.5,1.1-1.1,1.1h-8.5c-0.6,0-1.1,0.5-1.1,1.1l-0.1,20.1c0,0.3,0.1,0.6,0.3,0.8c0.2,0.2,0.5,0.3,0.8,0.3h8.5
				c0.6,0,1.1,0.5,1.1,1.1v9.7c0,0.3-0.1,0.6-0.3,0.8c-0.2,0.2-0.5,0.3-0.8,0.3c-0.1,0-8.6-0.3-8.6-0.3c-0.3,0-0.6,0.1-0.8,0.3
				c-0.2,0.2-0.4,0.5-0.4,0.8l-0.1,18.9c0,0.3,0.1,0.6,0.3,0.8c0.2,0.2,0.5,0.3,0.8,0.3h8.7c0.6,0,1.1,0.5,1.1,1.1v11.4
				c0,0.6-0.5,1.1-1.1,1.1H151.5z M247.8,172.6c-0.6,0-1.1-0.5-1.1-1l-7.8-82.8c0-0.3,0.1-0.6,0.3-0.9c0.2-0.2,0.5-0.4,0.8-0.4
				c0,0,13.2-0.6,13.5-0.6c0.6,0,1,0.4,1.1,1l6,63.3c0.1,0.6,0.6,1,1.1,1c0,0,15.5-1.4,15.5-1.4c0.4,0,0.6,0.1,0.8,0.3
				c0.2,0.2,0.4,0.5,0.4,0.8l1.5,17.6c0,0.3-0.1,0.6-0.3,0.8c-0.2,0.2-0.5,0.4-0.8,0.4C278.7,170.8,249,172.5,247.8,172.6z
				 M136.7,171.9c-9.9,0-21.9-1.9-22-1.9c-0.6-0.1-1-0.7-1-1.3l11.5-80.8c0-0.3,0.2-0.6,0.5-0.8c0.2-0.1,0.4-0.2,0.7-0.2
				c6.2,1.2,18.5,1.6,19,1.6c0.6,0,1.1,0.5,1.1,1.1v12.2c0,0.3-0.1,0.6-0.4,0.8c-0.2,0.2-0.5,0.3-0.8,0.3c-0.5,0-4.1-0.3-8.5-0.8
				c0,0-0.1,0-0.1,0c-0.3,0-0.5,0.1-0.7,0.3c-0.2,0.2-0.4,0.5-0.4,0.8l-2.1,19.3c0,0.3,0.1,0.6,0.3,0.9c0.2,0.2,0.5,0.4,0.8,0.4
				l6.1,0.3c0.6,0,1.1,0.5,1.1,1.1v11c0,0.3-0.1,0.6-0.4,0.8c-0.2,0.2-0.5,0.3-0.8,0.3c-0.2,0-7.6-0.4-7.6-0.4c-0.6,0-1.1,0.4-1.1,1
				l-1.8,16.8c-0.1,0.6,0.4,1.2,1,1.3l6.8,0.9c0.6,0.1,1,0.6,1,1.1c0.1,11.8,0.1,12.9-0.3,13.4c-0.2,0.2-0.5,0.3-0.8,0.3
				L136.7,171.9z M289.3,169c-0.6,0-1.1-0.5-1.1-1l-7.3-79.8c-0.1-0.6,0.4-1.2,1-1.2c0,0,23.1-3.4,23.1-3.4c0.7,0,1.2,0.4,1.3,1
				l1.6,10.5c0.1,0.6-0.3,1.2-0.9,1.3l-9.3,1.8c-0.6,0.1-1,0.6-0.9,1.2l1.9,20.7c0.1,0.6,0.6,1,1.1,1c0,0,9.3-0.3,9.5-0.4
				c0.6,0,1.1,0.5,1.1,1.1l0.7,10.7c0,0.6-0.4,1.2-1,1.2l-9,0.9c-0.6,0.1-1.1,0.6-1,1.2l1.7,18.7c0.1,0.6,0.6,1,1.1,1
				c0,0,10.5-0.9,10.5-0.9c0.7,0,1.2,0.4,1.2,1l1.4,10.5c0,0.3,0,0.6-0.3,0.9c-0.2,0.2-0.5,0.4-0.8,0.4
				C314.9,167.5,290.3,168.9,289.3,169z M24.9,165.6C19.1,165.6,5,163,0,138.8c-0.1-0.6,0.2-1.2,0.8-1.3l13.9-3.6c0.1,0,0.2,0,0.3,0
				c0.2,0,0.5,0.1,0.7,0.2c0.3,0.2,0.5,0.5,0.5,0.8c0,0.5,1.2,12.4,8.5,12.4c0.7,0,1.4-0.1,2.1-0.3c2.1-0.5,3.5-1.7,4.3-3.4
				c2.1-4.9-0.9-14.8-8.1-27.1C15.7,103.9,6.2,85.6,7.6,72.1C9.1,59,18.6,50.5,31.8,50.5c7.8,0,15.9,3,22.8,8.5
				c0.4,0.4,0.6,1,0.3,1.5l-6.2,10.6c-0.2,0.3-0.6,0.6-1,0.6l0,0c-0.4,0-0.8-0.2-1-0.5c-0.2-0.2-3.5-4.9-10.7-4.9
				c-0.8,0-1.5,0.1-2.3,0.2c-3.5,0.4-5.9,2-7.1,4.5c-2,4-2.2,12.4,8,30.3c13.3,23.4,16.7,38.2,11.9,51.1
				C43.6,159.7,34.2,165.6,24.9,165.6z M87.1,165.5c-0.5,0-1-0.4-1.1-0.9l-6.1-25.9c-0.1-0.5-0.5-0.8-1-0.9c0,0,0,0-0.1,0
				c-0.5,0-0.9,0.3-1.1,0.7l-8.7,23.7c-0.2,0.4-0.6,0.7-1.1,0.7l-7.5-0.8c-0.5-0.1-1-0.5-1-1l-8.6-78.9c0-0.3,0.1-0.6,0.3-0.9
				c0.2-0.2,0.5-0.4,0.8-0.4c0,0,12.5-0.3,12.6-0.3c0.6,0,1.1,0.5,1.1,1.1l3.1,39.9c0,0.5,0.4,1,1,1c0.1,0,0.1,0,0.2,0
				c0.4,0,0.9-0.3,1.1-0.7l9.4-21.8c0.2-0.4,0.6-0.7,1.1-0.7c0.5,0,0.9,0.3,1.1,0.8l8.8,26.1c0.2,0.5,0.6,0.8,1.1,0.8c0,0,0,0,0,0
				c0.5,0,0.9-0.4,1.1-0.8l12-43.3c0.1-0.3,0.3-0.6,0.6-0.7c0.2-0.1,0.3-0.1,0.5-0.1c0.1,0,0.3,0,0.4,0.1l11.6,4.1
				c0.6,0.2,0.9,0.8,0.7,1.4l-22.6,76.7c-0.1,0.5-0.6,0.8-1.1,0.8H87.1z M322.3,164.4c-0.3,0-0.6-0.1-0.8-0.3
				c-0.2-0.2-0.4-0.5-0.3-0.9c0.1-2.4,0.5-55.9,0.7-83.9c0-0.6,0.5-1.1,1.1-1.1h4.2c0.4,0,0.8,0.2,1,0.6
				c14.6,24.2,37.4,77.6,37.7,78.1c0.1,0.3,0.1,0.7,0,1c-0.2,0.3-0.4,0.5-0.8,0.6l-12,2.9c-0.1,0-0.2,0-0.3,0
				c-0.5,0-0.9-0.3-1.1-0.8c-1.2-3.8-2.8-8.1-5.1-13.4c-0.2-0.4-0.6-0.7-1.1-0.7c-0.1,0-0.2,0-0.3,0l-9.4,2.2
				c-0.5,0.1-0.9,0.6-0.9,1.2l0.5,12.8c0,0.6-0.5,1.2-1.1,1.2C334.6,163.7,323,164.3,322.3,164.4z M335.1,120.4c-0.1,0-0.2,0-0.3,0
				c-0.5,0.1-0.9,0.6-0.9,1.1l-0.3,12.2c0,0.4,0.1,0.7,0.4,0.9c0.2,0.2,0.5,0.3,0.7,0.3c0.1,0,0.2,0,0.3,0l5.7-1.4
				c0.3-0.1,0.6-0.3,0.8-0.6c0.1-0.3,0.1-0.7,0-1c-1.6-3.3-3.4-7-5.5-10.9C336,120.7,335.6,120.4,335.1,120.4z M374.4,161.6
				c-0.5,0-1-0.4-1.1-0.9L349.8,58.6c-0.1-0.6,0.2-1.2,0.8-1.3c11-3.6,33.7-7.2,33.9-7.2c0,0,0,0,0,0c0.7,0,1.1,0.3,1.2,0.8l3.7,13
				c0.1,0.3,0,0.6-0.1,0.9c-0.2,0.3-0.4,0.5-0.7,0.5l-17.9,4.5c-0.6,0.2-1,0.8-0.8,1.4l6,25.8c0.1,0.5,0.6,0.9,1.1,0.9
				c0.1,0,0.2,0,0.2,0c7.3-1.5,14.1-2.8,14.1-2.8c0,0,0.1,0,0.1,0c0.4,0,0.6,0.1,0.7,0.2c0.3,0.2,0.4,0.4,0.5,0.7l2.7,15.2
				c0.1,0.6-0.3,1.2-0.9,1.3l-13.2,2.8c-0.3,0.1-0.6,0.2-0.7,0.5c-0.2,0.3-0.2,0.6-0.1,0.9l9.5,41.2c0.1,0.3,0,0.6-0.2,0.9
				c-0.2,0.3-0.5,0.4-0.8,0.5l-14.4,2.4L374.4,161.6z"/>
		</g>
		<g>
			<g>
				<path class="st1" d="M391.3,148.7c0-2.4,2-4.4,4.4-4.4c2.4,0,4.4,2,4.4,4.4c0,2.4-2,4.4-4.4,4.4
					C393.2,153,391.3,151.1,391.3,148.7z M392.2,148.7c0,1.9,1.5,3.4,3.4,3.4c1.9,0,3.4-1.5,3.4-3.4c0-1.9-1.6-3.4-3.4-3.4
					C393.8,145.3,392.2,146.8,392.2,148.7z M396.5,149l1.1,1.9h-1.1c-0.3-0.5-0.7-1.2-0.9-1.7H395v1.7h-0.9v-4.4h1.9
					c0.8,0,1.3,0.6,1.3,1.4C397.3,148.3,397,148.8,396.5,149z M395.9,147.2H395v1.1h0.9c0.3,0,0.5-0.3,0.5-0.6
					C396.4,147.5,396.2,147.2,395.9,147.2z"/>
			</g>
		</g>
	</g>
	<g>
		<g>
			<path class="st0" d="M121.3,72.2c-0.9,0-1.8-0.1-2.7-0.2c-3.6-0.6-7-2.4-9.2-4.9c-2.9-3.3-3.9-7.8-3-13.3
				c2.1-12.5,11.9-13.5,14.8-13.5c0.9,0,1.8,0.1,2.6,0.2c1.7,0.3,5.9,1.3,9,4.9c2.9,3.4,4,7.8,3.1,13.3
				C133.9,70.9,125,72.2,121.3,72.2z M121.5,47.9c-3.1,0-5.3,2.7-6.1,7.5c-0.4,2.7-0.3,4.8,0.4,6.4c0.7,1.7,2,2.7,3.9,3
				c0.4,0.1,0.7,0.1,1.1,0.1c1.2,0,4.7,0,6-7.7c0.3-1.6,0.4-3.9-0.2-5.8c-0.7-1.9-2-3.1-4-3.4C122.2,47.9,121.9,47.9,121.5,47.9z"/>
		</g>
		<g>
			<path class="st0" d="M155.2,76.2c-0.4,0-0.8-0.3-1-0.7c0,0-2.9-7.7-3.8-10c-0.1-0.4-0.5-0.7-0.9-0.7c0,0-1.8-0.2-2-0.2
				c-0.4,0-0.5,0.3-0.5,0.4c0,0.1-0.8,9.2-0.8,9.2c0,0.3-0.2,0.6-0.4,0.8c-0.2,0.2-0.5,0.3-0.7,0.3c0,0-6.2-0.6-6.2-0.6
				c-0.6-0.1-1.1-0.6-1-1.3l2.8-28.5c0.1-0.6,0.6-1,1.1-1c0,0,13.1,1.3,13.1,1.3c5.9,0.6,9.7,5.1,9.1,11c-0.4,3.6-2.3,6.5-5.4,7.9
				l4.8,11.2c0.2,0.4,0.1,0.8-0.1,1.1c-0.2,0.3-0.6,0.5-0.9,0.5C162.4,76.9,155.2,76.2,155.2,76.2z M148,56.8c0,0.4,0.3,0.8,0.7,0.9
				l3.8,0.4c0.2,0,0.3,0,0.4,0c1.7,0,2.7-1,2.9-2.7c0.2-1.7-1-3.1-2.8-3.3c0,0-2.5-0.2-3.8-0.4c-0.4,0-0.8,0.3-0.9,0.7L148,56.8z"/>
		</g>
		<g>
			<path class="st0" d="M181.5,78.3c-7.4-0.3-15.8-4.8-15.3-16.6c0.4-10.5,8.5-15.3,15.9-15.3c0.2,0,0.5,0,0.7,0
				c5.6,0.2,8.9,2.1,10.4,3.2c0.4,0.3,0.6,0.9,0.3,1.4L191,56c-0.1,0.3-0.4,0.5-0.7,0.6c-0.1,0-0.2,0-0.3,0c-0.2,0-0.4-0.1-0.6-0.2
				c-1.1-0.7-2.9-1.7-5-1.7l-0.4,0c-4.6,0-8.2,3.2-8.4,7.4c-0.1,2.2,0.6,4.2,1.8,5.5c1.2,1.3,3,2,5.1,2c0.6,0,1.2-0.1,1.9-0.2
				c0.2,0,0.5-0.1,0.5-0.6c0-0.5,0.3-6.4,0.3-6.4c0-0.3,0.1-0.6,0.4-0.8c0.2-0.2,0.5-0.3,0.8-0.3c0,0,6.1,0.2,6.1,0.2
				c0.6,0,1.1,0.6,1.1,1.2l-0.5,12.1c0,0.4-0.2,0.8-0.6,1c-1.5,0.8-5.3,2.6-10,2.6C182,78.3,181.8,78.3,181.5,78.3z"/>
		</g>
		<g>
			<path class="st0" d="M196.8,78.3c-0.4,0-0.7-0.2-0.9-0.4c-0.2-0.3-0.3-0.7-0.2-1l7.5-28.7c0.1-0.5,0.6-0.8,1.1-0.9
				c0,0,10.3-0.2,10.3-0.2c0.5,0,0.9,0.3,1.1,0.8l8.7,28.4c0.1,0.3,0,0.7-0.2,1c-0.2,0.3-0.5,0.5-0.9,0.5c0,0-6.1,0.1-6.1,0.1
				c-0.5,0-0.9-0.3-1.1-0.8l-1.6-4.6c-0.2-0.5-0.6-0.8-1.1-0.8l-7.1,0.1c-0.5,0-0.9,0.3-1.1,0.8l-1.4,4.7c-0.1,0.5-0.6,0.8-1.1,0.8
				C202.9,78.2,196.8,78.3,196.8,78.3z M208,64.2l3.5-0.1c0.4,0,0.6-0.4,0.5-0.7l-2.1-7.2c-0.1-0.4-0.6-0.4-0.7,0l-1.8,7.3
				C207.4,63.9,207.7,64.2,208,64.2z"/>
		</g>
		<g>
			<path class="st0" d="M229.1,77.4c-0.6,0-1.1-0.5-1.1-1.1l-2.3-28.5c0-0.3,0.1-0.6,0.3-0.8c0.2-0.2,0.5-0.4,0.8-0.4
				c0,0,6.7-0.5,6.7-0.5c0.4,0,0.7,0.2,0.9,0.5l9.4,13.3c0.2,0.3,0.7,0.1,0.7-0.2l-1.1-13.2c0-0.3,0.1-0.6,0.3-0.8
				c0.2-0.2,0.5-0.4,0.8-0.4c0,0,6.2-0.5,6.2-0.5c0.6,0,1.1,0.5,1.1,1.1l2.3,28.5c0.1,0.6-0.4,1.2-1,1.2c0,0-6.7,0.5-6.7,0.5
				c-0.4,0-0.7-0.2-0.9-0.5L236,62.7c-0.2-0.3-0.7-0.1-0.7,0.2l1.1,12.7c0,0.3-0.1,0.6-0.3,0.8c-0.2,0.2-0.5,0.4-0.8,0.4
				C235.3,76.9,229.1,77.4,229.1,77.4z"/>
		</g>
		<g>
			<path class="st0" d="M260.3,74.5c-0.3,0-0.5-0.1-0.7-0.2c-0.2-0.2-0.4-0.5-0.4-0.8l-3.6-28.4c-0.1-0.6,0.4-1.2,1-1.3l6.1-0.8
				c0,0,0.1,0,0.1,0c0.3,0,0.5,0.1,0.7,0.2c0.2,0.2,0.4,0.5,0.4,0.8l3.6,28.4c0.1,0.6-0.4,1.2-1,1.3l-6.1,0.8
				C260.4,74.5,260.3,74.5,260.3,74.5z"/>
		</g>
		<g>
			<path class="st0" d="M284,71.2c-3.8,0-12.7-1.3-14.8-13.4c-2.1-12.4,6.6-17.3,12.1-18.3c1-0.2,2-0.3,3-0.3c3.2,0,5.6,0.9,6.8,1.4
				c0.5,0.2,0.8,0.8,0.6,1.4l-1.5,5.3c-0.1,0.3-0.3,0.6-0.6,0.7c-0.2,0.1-0.3,0.1-0.5,0.1c-0.1,0-0.3,0-0.4-0.1
				c-0.9-0.3-2.3-0.8-3.8-0.8c-0.5,0-1,0-1.5,0.1c-2.1,0.4-3.7,1.4-4.7,2.9c-1,1.6-1.3,3.6-0.9,6c0.7,4.2,3.1,6.6,6.8,6.6
				c0.5,0,1,0,1.6-0.1c2.1-0.4,3.8-1.5,4.8-2.4c0.2-0.2,0.5-0.3,0.8-0.3c0,0,0.1,0,0.1,0c0.3,0,0.6,0.2,0.8,0.5l3.2,4.6
				c0.3,0.5,0.3,1.1-0.2,1.5c-1.4,1.3-4.4,3.5-8.8,4.3C285.8,71.1,284.9,71.2,284,71.2z"/>
		</g>
	</g>
</g>
</svg>
