<?xml version="1.0" encoding="utf-8"?>
<!-- Generator: Adobe Illustrator 23.0.3, SVG Export Plug-In . SVG Version: 6.00 Build 0)  -->
<svg version="1.1" id="Layer_2" xmlns="http://www.w3.org/2000/svg" xmlns:xlink="http://www.w3.org/1999/xlink" x="0px" y="0px"
	 width="860px" height="568px" viewBox="0 0 860 568" style="enable-background:new 0 0 860 568;" xml:space="preserve">
<style type="text/css">
	.st0{opacity:0.2;}
	.st1{fill:url(#SVGID_1_);}
	.st2{fill:url(#SVGID_2_);}
	.st3{fill:url(#SVGID_3_);}
	.st4{fill:url(#SVGID_4_);}
	.st5{fill:url(#SVGID_5_);}
	.st6{fill:#FFFFFF;}
	.st7{fill:url(#SVGID_6_);}
	.st8{fill:url(#SVGID_7_);}
	.st9{fill:url(#SVGID_8_);}
	.st10{fill:url(#SVGID_9_);}
	.st11{fill:url(#SVGID_10_);}
	.st12{fill:url(#SVGID_11_);}
	.st13{fill:url(#SVGID_12_);}
	.st14{fill:url(#SVGID_13_);}
	.st15{fill:url(#SVGID_14_);}
	.st16{fill:url(#SVGID_15_);}
	.st17{fill:url(#SVGID_16_);}
	.st18{fill:url(#SVGID_17_);}
	.st19{fill:url(#SVGID_18_);}
	.st20{fill:url(#SVGID_19_);}
	.st21{fill:url(#SVGID_20_);}
</style>
<g class="st0">
	
		<linearGradient id="SVGID_1_" gradientUnits="userSpaceOnUse" x1="348.3368" y1="248.9076" x2="376.1599" y2="248.9076" gradientTransform="matrix(1.928412e-02 -0.9998 -0.9998 -1.928412e-02 399.4507 502.0374)">
		<stop  offset="0" style="stop-color:#FFFFFF;stop-opacity:0"/>
		<stop  offset="1" style="stop-color:#FFFFFF"/>
	</linearGradient>
	<polygon class="st1" points="172.4,121.4 143.1,133.1 143.1,148.7 	"/>
	
		<linearGradient id="SVGID_2_" gradientUnits="userSpaceOnUse" x1="302.5774" y1="319.8014" x2="413.2563" y2="194.6159" gradientTransform="matrix(1.928412e-02 -0.9998 -0.9998 -1.928412e-02 399.4507 502.0374)">
		<stop  offset="0" style="stop-color:#FFFFFF;stop-opacity:0"/>
		<stop  offset="1" style="stop-color:#FFFFFF"/>
	</linearGradient>
	<polyline class="st2" points="-44.2,332.9 141.6,167.4 115.7,138.5 -70.7,305.3 	"/>
	
		<linearGradient id="SVGID_3_" gradientUnits="userSpaceOnUse" x1="259.6427" y1="412.9956" x2="460.6631" y2="412.9956" gradientTransform="matrix(1.928412e-02 -0.9998 -0.9998 -1.928412e-02 399.4507 502.0374)">
		<stop  offset="0.4672" style="stop-color:#FFFFFF;stop-opacity:0"/>
		<stop  offset="1" style="stop-color:#FFFFFF"/>
	</linearGradient>
	<polyline class="st3" points="-109.8,244.4 75.7,79.2 95.1,112 -90.4,277 	"/>
	
		<linearGradient id="SVGID_4_" gradientUnits="userSpaceOnUse" x1="238.4181" y1="408.8811" x2="437.2129" y2="408.8811" gradientTransform="matrix(1.928412e-02 -0.9998 -0.9998 -1.928412e-02 399.4507 502.0374)">
		<stop  offset="0.4672" style="stop-color:#FFFFFF;stop-opacity:0"/>
		<stop  offset="1" style="stop-color:#FFFFFF"/>
	</linearGradient>
	<polyline class="st4" points="-90.7,277.5 95.1,112 83,140.7 -102.8,307 	"/>
	
		<linearGradient id="SVGID_5_" gradientUnits="userSpaceOnUse" x1="199.8828" y1="398.2047" x2="372.379" y2="398.2047" gradientTransform="matrix(1.928412e-02 -0.9998 -0.9998 -1.928412e-02 399.4507 502.0374)">
		<stop  offset="0.4672" style="stop-color:#FFFFFF;stop-opacity:0"/>
		<stop  offset="1" style="stop-color:#FFFFFF"/>
	</linearGradient>
	<polyline class="st5" points="-70.7,305.3 115.7,138.5 83,140.7 -102.6,306.8 	"/>
	<polygon class="st6" points="139.5,102.2 172.4,121.4 143,133.1 141.6,167.4 115.7,138.5 83,140.7 95.1,112 75.7,79.2 110.3,89.3 
		131.8,67 	"/>
</g>
<g class="st0">
	
		<linearGradient id="SVGID_6_" gradientUnits="userSpaceOnUse" x1="445.5399" y1="-157.06" x2="465.0988" y2="-157.06" gradientTransform="matrix(1.928412e-02 -0.9998 -0.9998 -1.928412e-02 399.4507 502.0374)">
		<stop  offset="0" style="stop-color:#FFFFFF;stop-opacity:0"/>
		<stop  offset="1" style="stop-color:#FFFFFF"/>
	</linearGradient>
	<polygon class="st7" points="575.7,40.3 555.1,48.5 555.1,59.4 	"/>
	
		<linearGradient id="SVGID_7_" gradientUnits="userSpaceOnUse" x1="413.372" y1="-107.2232" x2="491.1769" y2="-195.2258" gradientTransform="matrix(1.928412e-02 -0.9998 -0.9998 -1.928412e-02 399.4507 502.0374)">
		<stop  offset="0" style="stop-color:#FFFFFF;stop-opacity:0"/>
		<stop  offset="1" style="stop-color:#FFFFFF"/>
	</linearGradient>
	<polyline class="st8" points="423.4,188.9 554,72.6 535.8,52.2 404.8,169.5 	"/>
	
		<linearGradient id="SVGID_8_" gradientUnits="userSpaceOnUse" x1="383.1899" y1="-41.7097" x2="524.5028" y2="-41.7097" gradientTransform="matrix(1.928412e-02 -0.9998 -0.9998 -1.928412e-02 399.4507 502.0374)">
		<stop  offset="0.4672" style="stop-color:#FFFFFF;stop-opacity:0"/>
		<stop  offset="1" style="stop-color:#FFFFFF"/>
	</linearGradient>
	<polyline class="st9" points="377.3,126.7 507.7,10.5 521.3,33.6 390.9,149.6 	"/>
	
		<linearGradient id="SVGID_9_" gradientUnits="userSpaceOnUse" x1="368.2694" y1="-44.6021" x2="508.0178" y2="-44.6021" gradientTransform="matrix(1.928412e-02 -0.9998 -0.9998 -1.928412e-02 399.4507 502.0374)">
		<stop  offset="0.4672" style="stop-color:#FFFFFF;stop-opacity:0"/>
		<stop  offset="1" style="stop-color:#FFFFFF"/>
	</linearGradient>
	<polyline class="st10" points="390.7,150 521.3,33.6 512.8,53.8 382.2,170.7 	"/>
	
		<linearGradient id="SVGID_10_" gradientUnits="userSpaceOnUse" x1="341.18" y1="-52.1074" x2="462.441" y2="-52.1074" gradientTransform="matrix(1.928412e-02 -0.9998 -0.9998 -1.928412e-02 399.4507 502.0374)">
		<stop  offset="0.4672" style="stop-color:#FFFFFF;stop-opacity:0"/>
		<stop  offset="1" style="stop-color:#FFFFFF"/>
	</linearGradient>
	<polyline class="st11" points="404.8,169.5 535.8,52.2 512.8,53.8 382.4,170.6 	"/>
	<polygon class="st6" points="552.6,26.8 575.7,40.3 555,48.5 554,72.6 535.8,52.2 512.8,53.8 521.3,33.6 507.7,10.6 532.1,17.7 
		547.1,2 	"/>
</g>
<g class="st0">
	
		<linearGradient id="SVGID_11_" gradientUnits="userSpaceOnUse" x1="103.7531" y1="-440.4289" x2="119.1097" y2="-440.4289" gradientTransform="matrix(4.915059e-02 -0.9988 -0.9988 -4.915059e-02 404.4218 497.5624)">
		<stop  offset="0" style="stop-color:#FFFFFF;stop-opacity:0"/>
		<stop  offset="1" style="stop-color:#FFFFFF"/>
	</linearGradient>
	<polygon class="st12" points="858.2,400.6 841.8,406.6 841.6,415.2 	"/>
	
		<linearGradient id="SVGID_12_" gradientUnits="userSpaceOnUse" x1="78.4967" y1="-401.2999" x2="139.5846" y2="-470.3946" gradientTransform="matrix(4.915059e-02 -0.9988 -0.9988 -4.915059e-02 404.4218 497.5624)">
		<stop  offset="0" style="stop-color:#FFFFFF;stop-opacity:0"/>
		<stop  offset="1" style="stop-color:#FFFFFF"/>
	</linearGradient>
	<polyline class="st13" points="735.2,513.8 840.5,425.5 826.6,409.1 721,498.1 	"/>
	
		<linearGradient id="SVGID_13_" gradientUnits="userSpaceOnUse" x1="54.7994" y1="-349.8624" x2="165.7503" y2="-349.8624" gradientTransform="matrix(4.915059e-02 -0.9988 -0.9988 -4.915059e-02 404.4218 497.5624)">
		<stop  offset="0.4672" style="stop-color:#FFFFFF;stop-opacity:0"/>
		<stop  offset="1" style="stop-color:#FFFFFF"/>
	</linearGradient>
	<polyline class="st14" points="700.5,463.8 805.5,375.7 815.7,394.2 710.6,482.1 	"/>
	
		<linearGradient id="SVGID_14_" gradientUnits="userSpaceOnUse" x1="43.0847" y1="-352.1334" x2="152.8072" y2="-352.1334" gradientTransform="matrix(4.915059e-02 -0.9988 -0.9988 -4.915059e-02 404.4218 497.5624)">
		<stop  offset="0.4672" style="stop-color:#FFFFFF;stop-opacity:0"/>
		<stop  offset="1" style="stop-color:#FFFFFF"/>
	</linearGradient>
	<polyline class="st15" points="710.5,482.4 815.7,394.2 808.6,409.8 703.3,498.5 	"/>
	
		<linearGradient id="SVGID_15_" gradientUnits="userSpaceOnUse" x1="21.8156" y1="-358.0261" x2="117.0229" y2="-358.0261" gradientTransform="matrix(4.915059e-02 -0.9988 -0.9988 -4.915059e-02 404.4218 497.5624)">
		<stop  offset="0.4672" style="stop-color:#FFFFFF;stop-opacity:0"/>
		<stop  offset="1" style="stop-color:#FFFFFF"/>
	</linearGradient>
	<polyline class="st16" points="721,498.1 826.6,409.1 808.6,409.8 703.4,498.4 	"/>
	<polygon class="st6" points="840.4,389.5 858.2,400.6 841.8,406.6 840.5,425.5 826.6,409.1 808.6,409.8 815.7,394.2 805.6,375.7 
		824.5,381.9 836.7,369.9 	"/>
</g>
<g class="st0">
	
		<linearGradient id="SVGID_16_" gradientUnits="userSpaceOnUse" x1="1.0608" y1="216.3764" x2="29.2997" y2="216.3764" gradientTransform="matrix(4.072206e-02 -0.9992 -0.9992 -4.072206e-02 400.8662 509.1477)">
		<stop  offset="0" style="stop-color:#FFFFFF;stop-opacity:0"/>
		<stop  offset="1" style="stop-color:#FFFFFF"/>
	</linearGradient>
	<polygon class="st17" points="200.6,471.7 170.6,482.9 170.3,498.7 	"/>
	
		<linearGradient id="SVGID_17_" gradientUnits="userSpaceOnUse" x1="-45.3827" y1="288.3299" x2="66.9507" y2="161.2732" gradientTransform="matrix(4.072206e-02 -0.9992 -0.9992 -4.072206e-02 400.8662 509.1477)">
		<stop  offset="0" style="stop-color:#FFFFFF;stop-opacity:0"/>
		<stop  offset="1" style="stop-color:#FFFFFF"/>
	</linearGradient>
	<polyline class="st18" points="-23.8,681.6 168.4,517.7 142.7,487.7 -50.1,653 	"/>
	
		<linearGradient id="SVGID_18_" gradientUnits="userSpaceOnUse" x1="-88.9591" y1="382.9172" x2="115.0662" y2="382.9172" gradientTransform="matrix(4.072206e-02 -0.9992 -0.9992 -4.072206e-02 400.8662 509.1477)">
		<stop  offset="0.4672" style="stop-color:#FFFFFF;stop-opacity:0"/>
		<stop  offset="1" style="stop-color:#FFFFFF"/>
	</linearGradient>
	<polyline class="st19" points="-88.4,590.3 103.4,426.7 122.4,460.4 -69.5,623.8 	"/>
	
		<linearGradient id="SVGID_19_" gradientUnits="userSpaceOnUse" x1="-110.501" y1="378.7412" x2="91.2654" y2="378.7412" gradientTransform="matrix(4.072206e-02 -0.9992 -0.9992 -4.072206e-02 400.8662 509.1477)">
		<stop  offset="0.4672" style="stop-color:#FFFFFF;stop-opacity:0"/>
		<stop  offset="1" style="stop-color:#FFFFFF"/>
	</linearGradient>
	<polyline class="st20" points="-69.8,624.4 122.4,460.4 109.5,489.3 -82.7,654 	"/>
	
		<linearGradient id="SVGID_20_" gradientUnits="userSpaceOnUse" x1="-149.6123" y1="367.9053" x2="25.4623" y2="367.9053" gradientTransform="matrix(4.072206e-02 -0.9992 -0.9992 -4.072206e-02 400.8662 509.1477)">
		<stop  offset="0.4672" style="stop-color:#FFFFFF;stop-opacity:0"/>
		<stop  offset="1" style="stop-color:#FFFFFF"/>
	</linearGradient>
	<polyline class="st21" points="-50.1,653 142.7,487.7 109.5,489.3 -82.4,653.8 	"/>
	<polygon class="st6" points="167.7,451.5 200.6,471.7 170.6,482.9 168.4,517.7 142.7,487.7 109.5,489.3 122.4,460.4 103.4,426.7 
		138.4,437.7 160.6,415.5 	"/>
</g>
</svg>
