<?xml version="1.0" encoding="utf-8"?>
<!-- Generator: Adobe Illustrator 23.0.3, SVG Export Plug-In . SVG Version: 6.00 Build 0)  -->
<svg version="1.1" id="Layer_1" xmlns="http://www.w3.org/2000/svg" xmlns:xlink="http://www.w3.org/1999/xlink" x="0px" y="0px"
	 width="242px" height="215px" viewBox="0 0 242 215" style="enable-background:new 0 0 242 215;" xml:space="preserve">
<style type="text/css">
	.st0{fill-rule:evenodd;clip-rule:evenodd;fill:#AA5E1A;}
</style>
<g>
	<path class="st0" d="M131.6,110.4c0.1-0.6-0.5-0.6-0.9-0.7c0,0.3,0,0.6,0,0.9C131.1,110.7,131.1,110.4,131.6,110.4L131.6,110.4
		L131.6,110.4z M34.8,167.5c0.3-0.7-0.7-0.2-0.5-0.9c0.7,0.3,1.4-0.2,1.8-0.7c-4.2-1.1-9.1,0.9-14.3,0c-0.6,0.1-0.8,0.6-1.4,0.7
		c-0.5-1.4-3.5,0.3-4.6,0c0.1,0,0.3,0,0.2,0.2c-0.4-0.4-0.9,0.1-1.4,0.2c-0.2-0.2-0.1-0.8-0.7-0.7c-0.6,0.3-1.3,1.1-1.8,0.7
		c-0.2,1.1,1-0.1,0.9,0.5c-0.7,0.1-0.4,0.5-0.7,0.7c-0.3,0-0.2-0.4-0.5-0.5c0,0.3-0.4,0.2-0.7,0.2c-0.4,0.8,0.8,0.1,0.7,0.7
		c-0.3,0-0.7,0-0.7,0.2c0.1,0,0.3,0,0.2,0.2c0,0.1,0,0.3,0.2,0.2c0-0.6,0.4-0.7,0.7-0.9c0.6,0.8,2.3,0.2,2.8-0.5
		c-0.2,0.8,0.4,0.8,0.7,0.5c-0.8,0.8,0.8,0.1,0.9,0.7c-0.3,0.3-0.7,0.7-0.9,1.1c0.9-0.7,1.5,0.7,2.5,0.7c-0.2-0.6,0.5-0.5,0.5-0.9
		c-0.3,0-0.5,0.1-0.7,0.2c0.3-0.6-0.9-0.7-0.2-0.9c0.2,0.6,1.1,0.4,1.4,0.9c-1,0.5,0.4,0.8,0.5,1.6c-0.4,0.5-0.8,1.9-1.6,1.4
		c-0.3,0.9,0.6,0.4,0.5,1.1c1.9-0.1,3.1-0.9,5.1-0.2c-1,0.1-0.8,1.3,0,1.4c0,0.4-0.2,0.8-0.5,0.9c-1.1-0.4-1-0.1-0.9,0.2
		c-0.4-0.1-0.5-0.4-0.5-0.9c-1.5-0.2-1.4,0.2-1.8,0.7c0-0.4,0-0.8,0-1.1c-0.4,0.1-0.5-0.3-0.9-0.2c-0.3,0.8,0.7,1.4,0.2,1.6
		c-0.7-2.2-3.1-2.4-3.2-0.2c0-0.3-0.1-0.5-0.5-0.5c-0.5,0.1-0.5,0.6-0.7,0.9c0.9,0.5,1.1,0.2,2.1,0.5c0.5-0.7-0.4-0.9,0-1.1
		c0.4,0.4,0.6-0.2,1.4,0c-0.4,0.5,0.1,0.3,0.2,0.7c-0.7,0.3-0.7,0-1.4,0.5c0.4,1-0.1,0.7-0.7,0.9c0.5,1.2,1.2,1.5,1.2,2.5
		c1.2,0.4,4,1.7,3.9,0c-0.1,0.2-0.4,0.6-0.5,0.2c0.2-0.5,0.7-0.6,1.2-0.9c-0.9-0.4-1.2,0.9-1.6,0.2c-0.1-0.5,1.1,0.1,0.7-0.7
		c-0.4,0-0.5-0.3-0.9-0.2c0.4,0.6-0.8,0.7-0.7,0.2c0.2-0.1,0.5,0,0.5-0.2c-0.6-0.6-0.7,0.3-1.4,0.2c0-0.5,0.6-0.3,0.5-0.9
		c-0.6-0.2-1.3-0.2-1.6-0.7c0.4-0.1,1.2,0.6,1.4,0c-0.6-0.2-0.9-0.8-0.2-1.1c0.5,0,0.7,0.4,1.4,0.2c0.5-1.8,1.4,0.1,2.5,0.2
		c-0.9-0.3-0.8,0.7-0.2,0.7c0.6-1.1,1.1,0,2.1-0.7c-0.6,0.6,0.2,0.6,0.5,0.9c-0.2,0.4-0.6,0.6-1.4,0.5c0,0.5,0.8,1.3,1.2,0.7
		c-0.4-0.2,0.3-1,0.7-1.1c0.2,0.5,1.7-0.1,1.4,0.9c-0.4-0.1-1-0.3-1.4,0c0.3,0.2,0.3,0.8,0.7,0.9c-0.7-0.1-1,0.2-0.9,0.9
		c1.7,0.4,2.9,1.2,4.4,1.8c-0.5-0.8,0-1.1,0.2-1.8c-2.3,0.1-0.5-2.4-0.9-2.8c0.4-0.7,0.7-0.2,1.4-0.5c-0.2-0.4-0.1-1.1-0.5-1.4
		c-0.5,0.8-1.6-1.7-1.8-2.1c-0.6,0.3-1.2-0.2-1.8-0.2c0.6,0,0.7-0.6,0.7-1.1c-0.9-0.2-0.2,1.2-1.2,0.9c0.5-0.4,0.4-1.3,1.4-1.1
		c-0.3,0.5,0.4,1.1,0.5,0.5c-0.8-0.4,0.5-0.6,0.9-0.5c-0.2-1.9-1.8-1.5-3.2-0.5c0.5-0.5,0.1-0.6-0.2-0.9c1.3-0.3,1.9-0.6,2.8-0.9
		c-0.2,0.7,0.6,0.4,0.5,1.1c0.3,0,0.6,0,0.9,0c0.4-1.1,0.4-0.4,1.2-1.4c-1.3,0.2-0.6-2.6,0.2-1.8c-0.2,0.4-0.6,0.6-0.5,1.4
		c0.7,0.2,0.3-0.8,1.1-0.5C31.5,167.3,33.7,168.2,34.8,167.5L34.8,167.5L34.8,167.5z M21.9,181.5c0.9,0.2,1.2-0.4,2.1-0.2
		C23.6,180.1,22,180.4,21.9,181.5L21.9,181.5L21.9,181.5z M25.3,180.1c-0.3-0.4-1.3-0.3-1.2,0.5C24.8,180.6,25.3,180.6,25.3,180.1
		L25.3,180.1L25.3,180.1z M1.6,165.9c0.4-0.3,1.1-0.3,1.4-0.7C2.5,164.5,1.3,165.8,1.6,165.9L1.6,165.9L1.6,165.9z M37.8,111.3
		c-0.2,0-0.5,0-0.7,0c-0.1,0.6,0.4,0.5,0.2,1.1c-0.5-0.5-0.7,0.1-1.4,0c0.3,0.8,0.4,0.5,0.5,1.6c0.9-0.1,2.2,0.8,2.5-0.2
		C38,114,37.8,112.3,37.8,111.3L37.8,111.3L37.8,111.3z M101.8,87c-0.6,0.1-1.4-0.2-2.1,0.7c0.3,0,0.7,0,0.7,0.2
		c-1.7,0.2-2.3-0.2-3.7,1.6c0.8,0.1,1.9,0.5,2.5,0c0.2,0.7,0.3,1.1,0.5,1.4c0.2-0.7,0.3,0.4,0.2,0.7c0.5-0.3,1.1-0.4,1.4-0.9
		c-0.3-0.5-0.6,0.3-0.7-0.2c0.5-0.4,0.5-1.7,0-2.3c0.2-0.1,0.5,0,0.5-0.2c-0.2-0.1-0.5,0-0.5-0.2c1.1-0.5,1.1,0.8,0.9,1.6
		c1.3-0.1,0.3,0.4,0,0.7c0.7,0.2,0.7-0.4,1.1-0.5c0,0.3-0.9,0.7-0.2,0.9c0.3-0.7,1.2-0.8,1.6-1.4c-0.7-0.9-1.3-0.2-0.9-1.8
		c-1.1,0.1-0.2-0.4-0.9-0.7c0-0.2,0.2-0.3,0.2-0.5C102,86.6,101.5,86.5,101.8,87L101.8,87L101.8,87z M97.7,91.8
		c0.2-0.3,0.3-0.6,0.2-1.1C97.1,90.4,97,91.8,97.7,91.8L97.7,91.8L97.7,91.8z M115.9,93.9c0.5,0.1,0.9-0.1,0.9-0.5
		c-1.3-0.7-0.5-1.7-0.5-2.8c-0.4,0.6-1.6,0.3-1.8,0.5C115,92.1,115.5,92.4,115.9,93.9L115.9,93.9L115.9,93.9z M94.7,92
		c0.3,0,0.6,0,0.9,0c-0.1-0.4,0.2-1.1-0.5-0.9C95.4,91.8,94.8,91.7,94.7,92L94.7,92L94.7,92z M111.5,92c1.2-0.1-0.4,1.3,0.5,1.6
		c0.7-0.7,0.1-1.1,0.7-1.8C112.1,91.7,111.9,91.5,111.5,92L111.5,92L111.5,92z M130.6,93.2c-0.4-0.7-0.6-0.2-1.4-0.2
		c0.2,1.3,0.1,1.2,0.2,2.8c-1,0.1-0.3,1.9-1.6,1.1c0.4-0.2,0.4-0.8,0.7-1.1c-0.8-0.2-0.9-0.1-1.4-0.9c-0.3,0.4,0.6,1.1-0.5,0.7
		c0.8,1.4,0.7,1.5,0.7,2.7c0.7,0.1,1-0.4,1.8-0.2c0.3-1.1,1.3-1,0.5-2.1c1.2-0.5,0.7-1.1,0.5-2.3c0.4,0,0.9,0.1,0.9-0.2
		c-0.3-0.2,0.6-0.9-0.5-1.1C130.4,92.7,131.3,93,130.6,93.2L130.6,93.2L130.6,93.2z M92.4,93.4c0,0.6,0.4,0.5,0,0.9
		c1.1-0.1,0.7-0.4,0.9-1.2C92.9,93.1,92.8,93.4,92.4,93.4L92.4,93.4L92.4,93.4z M89.6,94.3c0.4,0.3,1.6-0.1,1.6-0.9
		C90.4,93.4,90,93.9,89.6,94.3L89.6,94.3L89.6,94.3z M123.3,96.4c-0.1,0-0.3,0.2,0,0.2c0-1,1.2,0.5,1.1-0.7
		c-0.9,0.2-0.9,0.3-1.6-0.2C122.7,96.2,123.1,96.2,123.3,96.4L123.3,96.4L123.3,96.4z M62.7,97.1c0.2-0.3,1.4-0.7,0.7-1.1
		c-0.1,0.4-0.3,0-0.7,0C63,96.5,62.2,97.1,62.7,97.1L62.7,97.1L62.7,97.1z M44,96.9c0.7,0,0.7,0.6,0.7,1.1c0.6-0.1,0.8-0.5,1.2-0.9
		c-0.2-0.1-0.5,0-0.5-0.2c0.2,0,0.3-0.2,0.2-0.5C44.8,97.2,44.5,96,44,96.9L44,96.9L44,96.9z M90.5,98c0.3-0.7-1-1-1.1-0.5
		C89.7,97.8,89.8,98.2,90.5,98L90.5,98L90.5,98z M85,98.9c-0.4-0.1,0.1-0.4-0.2-0.5c-0.5,0.5,0.1-0.5,0-0.9c-1.3,1.1-2.6,1-3,2.3
		C82.6,99,84.3,98.6,85,98.9L85,98.9L85,98.9z M119.6,98.7c0.3-0.1,0.4-0.3,0.9-0.2c-0.1-0.4,0.2-1.1-0.5-0.9
		C119.9,97.9,119.3,98.7,119.6,98.7L119.6,98.7L119.6,98.7z M64.7,100.8c-0.8,0.1-0.3-0.4,0.2-0.2c0.2-0.7-0.2-0.8-0.2-1.4
		c0.4,0.2,0.7,0.8,0.9,0c-0.7,0.1-0.6-0.6-1.1-0.7c-0.5,0.9,0.3,1.6-0.7,2.1C64.1,100.5,64.5,101.5,64.7,100.8L64.7,100.8
		L64.7,100.8z M90.5,99.1c0-0.1,0-0.3,0-0.5c-0.2-0.6-0.6,0.3-0.9-0.2C89.6,99.1,89.9,99.2,90.5,99.1L90.5,99.1L90.5,99.1z
		 M45.9,99.6c-0.1,0.5,0.1,0.9,0.5,0.9c0.1-0.3,0.9-0.9,0.2-1.1C46.5,99.6,46.2,99.6,45.9,99.6L45.9,99.6L45.9,99.6z M63.4,101
		c0-0.6-0.4-1-1.2-0.9C62.2,100.8,63.1,100.5,63.4,101L63.4,101L63.4,101z M81.6,100.8c0.5,0.6-0.5,1.8,0,2.3c0-0.4,0.6-0.1,0.7-0.5
		c-0.3-0.2,0.1-0.3-0.2-0.9c0.3,0,0.3,0.3,0.7,0.2c0.2-0.8,0-0.6,0.2-1.4c-0.3,0-0.5-0.1-0.7-0.2C82.2,100.6,82,100.8,81.6,100.8
		L81.6,100.8L81.6,100.8z M57.1,101.9c0.2,0.7,0.2,0.4,0,1.1c0.5,0.1,0.7,0.6,1.4,0.5C58.6,102.4,57.8,102.3,57.1,101.9L57.1,101.9
		L57.1,101.9z M128.8,102.4c-0.6,0-0.9,0.3-0.9,0.9c1,0.9,1.6-0.9,0.7-0.7C128.7,102.6,128.8,102.6,128.8,102.4L128.8,102.4
		L128.8,102.4z M81.8,104.9c-0.7,0.5-0.7-0.4-0.9,0c0.3,1.1,2.2,0.9,1.6-0.2c-0.6,0.9-0.2-0.3,0.2-0.7c-0.5-0.8-0.7,0.9-0.9,0.2
		C81.4,103.6,81.8,104.6,81.8,104.9L81.8,104.9L81.8,104.9z M47.9,104c0.8,0,1.6,0.1,1.6-0.7c-0.4-0.1-0.6,0.3-0.7,0
		c0-0.1,0-0.3-0.2-0.2C48.8,103.8,48,103.5,47.9,104L47.9,104L47.9,104z M52.1,104.9c-0.3-0.9,0.1-1.1-0.5-1.8
		c-0.4,0-0.8,0.2-0.9,0.5c0.5,0.2-0.5,1.3,0,1.6C51.2,105.1,51.4,104.7,52.1,104.9L52.1,104.9L52.1,104.9z M46.8,104.7
		c0.5-0.1,0.5,0.3,0.7,0.5c-0.2-0.7-0.3-1.4-0.5-1.6C46.8,103.8,46.7,104.1,46.8,104.7L46.8,104.7L46.8,104.7z M120.7,104
		c0,0.7,0.5,0.9,0.9,1.1c-0.2-0.6,0.7-1.1,0-1.4C121.6,104.1,121.1,103.9,120.7,104L120.7,104L120.7,104z M121.9,105.6
		c0.3-0.4,1.2-0.2,1.2-0.9C122.3,104.4,121.6,105.5,121.9,105.6L121.9,105.6L121.9,105.6z M115.7,105.8c0-1,0.5-0.5,0.9-0.2
		C116.8,104.1,114.4,105.5,115.7,105.8L115.7,105.8L115.7,105.8z M124.9,105.6c0-0.4,0.6-0.2,0.5-0.7c-0.5,0-0.9,0-1.4,0
		c0,0.2,0,0.5-0.2,0.5c0-0.1,0-0.3-0.2-0.2c-0.2,0.7-0.2,0.4,0,1.1c0.6-0.4,0.8,0.3,1.1-0.2c-1.1,0.2,0.2-1.4,0.2-0.7
		C124.7,105.3,124.6,105.5,124.9,105.6L124.9,105.6L124.9,105.6z M116.1,106.5c0.3,0.1,0.3,0.5,0.5,0.7c0.4,0.1,0.5-0.3,0.9-0.2
		c0-0.6,0.1-1.1-0.5-1.1C116.9,106.7,116.3,105.6,116.1,106.5L116.1,106.5L116.1,106.5z M76.7,108.1c0.7,0.6,1.4-0.3,1.4-1.1
		c-0.3,0-0.5-0.1-0.7-0.2C77.5,107.5,77,107.7,76.7,108.1L76.7,108.1L76.7,108.1z M82.5,112.9c0.7,0.3,0.7,1.3,1.6,1.4
		c0.9-0.8,0.5-2,0-2.5C84,113,82.7,112.2,82.5,112.9L82.5,112.9L82.5,112.9z M96.3,112.4c-0.1,0.5-0.8,0.4-0.7,1.1
		c0.3,0.3,1.2,0.8,1.4,0C96.3,113.7,96.8,112.5,96.3,112.4L96.3,112.4L96.3,112.4z M105.5,115.2c0-0.3-0.4-0.2-0.7-0.2
		c0,0.2,0,0.3,0,0.5c0,0.1,0,0.3,0.2,0.2c0-0.1,1.3-0.3,0.7-0.7C105.7,115.1,105.7,115.2,105.5,115.2L105.5,115.2L105.5,115.2z
		 M78.6,117.5c0-0.5,0.4-0.7,0.2-1.4c-0.6,0-0.7,0.4-1.2,0C77.7,116.8,78.3,117,78.6,117.5L78.6,117.5L78.6,117.5z M44.2,117.5
		c0.4,0.4,1.2,0,0.9-0.9C44.6,116.6,44.3,116.9,44.2,117.5L44.2,117.5L44.2,117.5z M40.8,117.9c0.5-0.1,0.9,0,1.2,0.2
		c-0.2-0.6-0.3-1.2-1.2-1.1C40.8,117.3,40.8,117.6,40.8,117.9L40.8,117.9L40.8,117.9z M72.8,120c-0.4-0.4-0.1-1.4-0.9-1.4
		c0,0.4,0,0.8,0,1.1C72.6,119.3,72.6,120.7,72.8,120L72.8,120L72.8,120z M75.6,120.2c0-0.3,0-0.6,0-0.9c-0.6,0-0.5,0.4-0.9,0
		C74.5,120,75.2,120,75.6,120.2L75.6,120.2L75.6,120.2z M76,120.5c0.2-0.6,0.4,0.6,1.2,0.2c0-0.3,0-0.6,0-0.9
		C76.9,120,75.2,120,76,120.5L76,120.5L76,120.5z M115.4,120.9c0.3,0,0.6,0,0.9,0c0.1-0.6-0.1-1-0.7-0.9
		C115.6,120.3,115.3,120.4,115.4,120.9L115.4,120.9L115.4,120.9z M74.2,120.7c-0.2,1.3,0.3,2,1.4,2.1c-0.3-0.8,0.2-1-0.5-1.4
		c0.9-0.3,1,0.2,1.4-0.5c-1.1,0.3-1.1-0.6-1.8-0.7C74.6,120.5,74.6,120.8,74.2,120.7L74.2,120.7L74.2,120.7z M35.9,122.5
		c0-0.5,0.8-0.1,1.2-0.2c0.3-0.6,0.6-1.5-0.2-0.9c0.4,0.4-0.5-0.1-0.9,0.2C36.3,122.1,35.4,122.5,35.9,122.5L35.9,122.5L35.9,122.5z
		 M70.3,122.8c0-0.4,0.1-0.7,0.2-0.9c-0.8,0.1-1-0.4-1.4-0.7C69.2,122,69.8,122.3,70.3,122.8L70.3,122.8L70.3,122.8z M87.1,122.3
		c0.3,0.3,1.6,0.4,1.6-0.2c-0.5-0.1,0.3-0.6-0.5-0.7C88.2,122,87.4,121.9,87.1,122.3L87.1,122.3L87.1,122.3z M39.4,123.2
		c-0.1,0.9-1.7,1.6-0.7,2.1c-0.4,0.2-0.8,0.4-1.4,0.5c-0.1,0.6,0.3,0.8,0.9,0.7c0.5-1.7,1.6-1.5,2.3-3c0.1-0.6-0.9-0.2-0.7-0.9
		c0.2,0.2,1.5,0.7,0.9,0.2c-1.1-0.8-2.3,0.4-3.2-0.5c0.1,1.6-1,0.6-1.4,1.8c0.5-0.1,0.3,0.7,0.7,0.7c0.2-0.7,0.5,0.2,0.9,0
		c0.9-1-0.1-0.9,0.7-1.8c0.1,0.4,0.2-0.1,0.5-0.2C38.9,123.1,39.3,123,39.4,123.2L39.4,123.2L39.4,123.2z M62.4,123.9
		c0-0.3-0.1-0.8,0.2-0.9c0,0.3,0.6,0.2,0.5-0.2c-0.8,0.3-1.5-0.6-1.8,0C61.6,123.2,62,123.5,62.4,123.9L62.4,123.9L62.4,123.9z
		 M70.7,123.7c-0.4,0.4-0.6,1-1.4,0.9c0.4,0.8,0,0.4-0.5,0.9c0.6,0.2,2,0.9,2.3,0c-0.4-0.1-0.5,0.3-0.9,0.2c0.6-0.6-0.3-0.5-0.2-1.1
		c1.4,0.1,0.4-0.8,1.2-1.1c0,0.3,0,0.6,0,0.9c0.6,0,1.4,0.1,1.4-0.5c-1-0.4-2.1-1.2-2.8-0.7C70.2,123.3,70.6,123.4,70.7,123.7
		L70.7,123.7L70.7,123.7z M80.2,123.7c0,0.3-0.1,0.5-0.2,0.7c0.9,0.2,0.6-1.7-0.2-1.4C79.7,123.4,80,123.4,80.2,123.7L80.2,123.7
		L80.2,123.7z M60.6,125.5c0.6-0.7,1.1-0.7,1.6-1.1c-0.7-0.1-0.5-1-1.1-1.1C60.5,124.1,60.7,124.3,60.6,125.5L60.6,125.5L60.6,125.5
		z M36.2,126.2c-0.1-0.7,0.7,0.6,0.7-0.2c-0.2-0.2-0.7-1.2-1.2-0.5c0.3,0.1,0.4,0.3,0.5,0.5C36,126,35.9,126.2,36.2,126.2
		L36.2,126.2L36.2,126.2z M114.5,127.3c-0.1,0.7,0.5,0.7,1.1,0.7c-0.1-0.4,0.2-1.2-0.5-0.9C115.2,128,115,127.2,114.5,127.3
		L114.5,127.3L114.5,127.3z M117.7,128.7c0,0.5,1.2,1.1,1.6,0.5c-0.8-0.8-1.7-0.7-2.8-0.9c-0.2,0.5,0.2,1.4,0.5,0.7
		C116.4,128.5,117.5,129.2,117.7,128.7L117.7,128.7L117.7,128.7z M108.3,131c0.5,0.1,0.9-0.1,0.9-0.5c-0.4,0-0.8-0.2-0.9-0.5
		c0-0.3,0.3-0.4,0-0.5C107.8,130.1,108.4,130.3,108.3,131L108.3,131L108.3,131z M146.1,129.9c-0.1,0.7,0.8,0.5,1.2,0.7
		C147.4,129.7,146.5,129.5,146.1,129.9L146.1,129.9L146.1,129.9z M50.2,131.9c-0.6-0.4,0-0.4,0.5-0.2c0-0.3,0.1-0.8-0.2-0.9
		c-0.7,1.3-1-0.6-2.3-0.5c0,0.4,0,0.7-0.2,0.9C48.7,131.3,49.8,132.3,50.2,131.9L50.2,131.9L50.2,131.9z M107.4,131.5
		c-0.7-0.4-1.3,0-1.4,0.9c0.3,0,0.3,0.3,0.7,0.2C106.8,132.1,107.2,131.9,107.4,131.5L107.4,131.5L107.4,131.5z M109,133.1
		c0.9,0.1,1.4-0.2,1.4-0.9c-0.4,0-0.5-0.2-0.2-0.5C109.4,131.8,109.2,132.5,109,133.1L109,133.1L109,133.1z M132,133.3
		c0.1,0.3-0.3,1.2,0.2,1.1c0-1.3,0.9,1.1,1.4,0C132.4,134.2,133.1,133.7,132,133.3L132,133.3L132,133.3z M134.3,134.5
		c0.2,0.1,0.5,0,0.5,0.2c0,0.3-0.3,0.4,0,0.5c0.1,0.1,2.4-1.3,1.2-1.8C136.1,134.4,134.5,133.7,134.3,134.5L134.3,134.5L134.3,134.5
		z M149.1,133.3c-0.3,0.9,0.8,0.6,0.2,1.1c0.4,0,0.8,0,1.2,0c0-0.4,0-0.8,0.5-0.7C150.7,132.3,149.7,133.9,149.1,133.3L149.1,133.3
		L149.1,133.3z M103,133.8c-0.3,0-0.2-0.4-0.5-0.5c-0.1,0.3-1.5,0.6-0.7,1.1C102,133.7,102.9,134,103,133.8L103,133.8L103,133.8z
		 M51.4,134.7c0-0.7-0.1-1.3-0.9-1.1C50.6,134.1,50.7,134.7,51.4,134.7L51.4,134.7L51.4,134.7z M128.3,134c0.6,0,1.6,0.2,1.6-0.5
		C129.2,133.5,128.6,133.5,128.3,134L128.3,134L128.3,134z M138.5,133.8c-0.1,0.3-0.3,0.6-0.5,0.9c0.5,0.6,1.3-0.4,1.8,0.2
		c0.1-0.9-0.3-1.2-0.9-1.4C139,134.5,138.8,134.1,138.5,133.8L138.5,133.8L138.5,133.8z M112.4,134.5c0-0.3,0.1-0.5,0.2-0.7
		c-0.6,0.2-1.3,0.4-1.4,1.1c0.4,0.6,1.9-0.4,1.4-0.7C112.7,134.4,112.6,134.5,112.4,134.5L112.4,134.5L112.4,134.5z M49.1,135.1
		c0-0.4,0.8-0.2,0.7-0.7c-0.5-0.4-0.4,0.2-0.9-0.2C48.9,134.6,48.8,135.1,49.1,135.1L49.1,135.1L49.1,135.1z M98.2,135.1
		c0.1-0.3,0-1.4-0.2-0.7c0,0.3,0,0.6,0,0.9c0.3,0,0.5,0.1,0.7,0.2c-0.3-0.5,0.6-0.9,0-0.9C98.6,134.9,98.4,135,98.2,135.1
		L98.2,135.1L98.2,135.1z M52.8,135.6c0.6,0,1-0.1,1.2-0.5c-0.5-0.1-0.6-0.5-0.9-0.7C52.8,134.7,52.7,135.1,52.8,135.6L52.8,135.6
		L52.8,135.6z M106,136.5c-0.6-0.3-0.1-1-0.7-1.6c-0.5,0-1.1,0-1.6,0c0.3,0.7-0.7,0.2-0.5,0.9c-0.1,0.6,0.9,0.2,0.9,0.7
		c-1.1,0.1,0.1,0.7,0.2,0.9c-1.2,0.2,0.2,0.9,0.2,1.1c0-0.6-1.7,0.9-0.2,0.9c0-0.9,1.5-1.3,0.9-2.1c-0.1,0.3-1,0.8-1.2,0.2
		c0.3-0.1,0.4-0.3,0.7,0c0.2-0.8-0.9-0.3-0.7-1.2c0.2,0,0.3-0.2,0.5-0.2c0,0.4,0.1,0.7,0.2,0.9C105.4,137.2,106,137.2,106,136.5
		L106,136.5L106,136.5z M137.8,136.3c0-0.3,0.4-0.2,0.5-0.5c-0.7,0.3-1.3-0.7-1.6,0C137.3,135.7,137.1,136.5,137.8,136.3
		L137.8,136.3L137.8,136.3z M98.8,137.4c0.8-0.1,1.1-0.8,1.4-1.4c-0.6,0-0.5-0.4-0.9,0c-0.1,0.4,0.3,0.5,0.2,0.9
		C99.1,137,98.9,137.2,98.8,137.4L98.8,137.4L98.8,137.4z M88.2,137.7c0.8-0.2,1,0.4,1.4,0c0.2-1-0.5-1.2-1.2-1.4
		C88.2,136.6,88.2,137.1,88.2,137.7L88.2,137.7L88.2,137.7z M94,137.7c0.7,0,0.6-0.8,0.7-1.4c-1.3-0.3-1,1.4-0.5,1.1
		C94.1,137.5,94,137.5,94,137.7L94,137.7L94,137.7z M103.7,137.9c-0.2-0.1-0.3-0.2-0.2-0.5c-0.4-0.2-0.8,0.7-0.9,0
		c0.7,0,1-1,0.2-1.1c-1.1,1.2-0.3,2.4-1.4,3.2c0.4-0.4-0.2-0.8-0.5-1.1c-0.3,0.6-0.8,1.1-1.2,1.6c0.1,0.4,1.1,0,1.2,0.5
		c-0.4,0.1,0.1,0.2,0.2,0.5c-0.8-0.1-1.3,1.2-0.5,1.4c0-0.6-0.4-0.7,0.2-0.9c0.1,0.5,0.6,0.4,0.7,0.9c-0.2,0.4-0.6,0.6-0.5,1.4
		c0.9,0,0.1,0.2,0.2,0.7c0.9-0.1,0.8-0.3,1.4,0.2c0.6-0.7,1.2-1.1,0.5-2.1c-0.9-0.5-1.1,0.5-1.6,0c0.9,0,0.6-0.3,0.5-0.9
		c0.3,0,0.8,0.1,0.9-0.2c-0.3-0.2-0.2-1.3,0.9-1.1c0-0.7-0.4-1-0.5-1.6c-0.6,0.1-1.4,0.3-0.9-0.2
		C102.5,138.7,103.7,138.3,103.7,137.9L103.7,137.9L103.7,137.9z M15.2,137.9c0.6,0.2,0.6-0.3,1.1-0.2c-0.3-0.4-0.3-1.1-0.9-1.2
		C14.9,136.5,15.3,137.5,15.2,137.9L15.2,137.9L15.2,137.9z M72.8,137.7c-0.1,0.5-0.4,0.9-0.2,1.6c1.2-0.4,0.3,1.2,1.2,1.1
		c1-0.9,0.1-1.3,0.7-2.1c-0.7-0.5-0.9,0.4-1.2,0c0.4-0.1-0.1-0.2-0.2-0.5c0.4,0,0.6-0.2,0.7-0.5c-0.5-0.3-1-0.2-1.2,0
		C72.7,137.5,72.9,137.5,72.8,137.7L72.8,137.7L72.8,137.7z M74.7,139.5c-0.2,0.5-0.8,0.6-0.9,1.1c0.5,0.2,0.1,1.3,0.7,1.4
		c0-0.9,0.3-0.7,0-1.4c0.3,0.3,0.7,0.1,0.9-0.2C73.9,140.4,75.1,140.3,74.7,139.5L74.7,139.5L74.7,139.5z M108.5,137.4
		c-0.7,0.9-1.3,1.1-1.8,1.1c0.7,0.6,0.9,0.2,2.1,0.2c0-0.8,1.1-0.6,0.9-1.6c-0.2,0-0.3,0-0.5,0C108.9,137.7,109.2,138.2,108.5,137.4
		L108.5,137.4L108.5,137.4z M109.7,139c1.5,0.2,1.6-1,2.1-1.8C110.7,137.5,110,138.1,109.7,139L109.7,139L109.7,139z M139.6,138.8
		c0.7,0.4,1.3,0.1,1.8-0.2c-0.4-0.4,0.2-1.6-0.2-1.1C139.9,138.1,140.3,137.8,139.6,138.8L139.6,138.8L139.6,138.8z M84.3,139.3
		c0.7,0.4,1.4,0.7,2.1,1.1c-0.5-0.7,1.2-1.4,0.2-2.5c-0.2,0-0.5,0-0.7,0C85.8,138.8,84.4,138.4,84.3,139.3L84.3,139.3L84.3,139.3z
		 M92.2,138.6c-0.7-0.1-0.5-0.2-1.2-0.7c0,0.2,0,0.5,0,0.7C91.7,138.5,91.9,139.5,92.2,138.6L92.2,138.6L92.2,138.6z M98.6,139
		c0.2,0,0.5,0,0.7,0c0.2-0.7-0.6-0.4-0.5-1.1c-0.6-0.1-0.8,0.3-0.7,0.9C98.8,138.8,98.9,138.4,98.6,139L98.6,139L98.6,139z
		 M110.1,140.4c0-0.2,0-0.3,0-0.5c0-0.1,0-0.3-0.2-0.2c-0.1,0.7-0.4-0.4-0.7-0.2c-0.3,0.4-0.7,0.9,0.2,0.9
		C109.4,139.5,109.8,140.4,110.1,140.4L110.1,140.4L110.1,140.4z M94.5,140.6c0.6,1,0.2,1.5,0,2.7c1.2-1.1,0.5-1.2,1.2-2.7
		C95.3,140.4,94.8,140.4,94.5,140.6L94.5,140.6L94.5,140.6z M51.6,141.1c0.1-0.5,1.1-0.2,1.1-0.7c-0.6,0.3-1.4-0.4-1.4,0
		C52.1,140.3,50.8,141.1,51.6,141.1L51.6,141.1L51.6,141.1z M70.5,141.3c0.6,0.2,1-1,0.5-1.1C70.9,140.6,70.3,140.6,70.5,141.3
		L70.5,141.3L70.5,141.3z M46.1,141.6c0.8,0.7,0.3,0.8,0.5,1.8c0.5,0.3,0.4,0,1.2,0.2c0.1-0.5,0.5-0.7,0.7-1.1
		c-0.5,0.1-0.9-0.1-0.9-0.5c0.8-0.2,0.1-0.7,0.9-1.1c-0.2,0-0.3,0-0.5,0C47.8,141.9,46.5,141.3,46.1,141.6L46.1,141.6L46.1,141.6z
		 M48.6,142c0.6,0.6,0.1,1.1,0.7,1.8c-0.3,0.7-2.8-0.3-3.2,0.9c0.6,0.2,0.6-0.3,1.1-0.2c0,0.3,0.1,0.5,0.2,0.7c-0.3,0-0.6,0-0.9,0
		c1.5,1.2-0.5,0.8-1.4,1.8c0.9,0.6,0.3,0.6,0.2,1.8c1.6-1.2,3.5-2.2,5.3-3c1,0,1.4,1,1.8,1.6c0.8-0.6,0.1-1.8-0.2-2.5
		c1.2-0.1,2.3-0.3,2.8-1.1c-0.8,0-1.7-0.5-1.2-1.1c-0.4,0-0.8,0-0.7-0.5c-1,0.6-1.9-1-2.5,0c-0.3-0.1-0.5-0.2-0.7-0.5
		c0.3,0,0.4-0.3,0.5-0.5c-1-0.1-1.7-0.5-2.1,0.2c0.7-0.3,1.3,0.6,0.7,0.9C49,142.4,48.7,141.4,48.6,142L48.6,142L48.6,142z
		 M107.1,141.8c0.9-0.2,0.4,0.9,1.2,0.7C108.9,142,107.4,140.7,107.1,141.8L107.1,141.8L107.1,141.8z M73.7,143.4
		c-0.1-1.6-1.1-0.8-1.6-0.9C72.7,142.8,73.1,143.2,73.7,143.4L73.7,143.4L73.7,143.4z M92.9,146.1c0.3,0,0.6,0,0.9,0
		c0.3-1,0.6-2.8,0-3C93.2,145.1,93.3,144.1,92.9,146.1L92.9,146.1L92.9,146.1z M128.1,143.4c0.1,1.1,0.7,0.2,1.4,0.7
		c0.3-0.4,0.6-0.8,0-1.2C129.7,143.8,128.6,143.3,128.1,143.4L128.1,143.4L128.1,143.4z M99.5,144.1c-0.1,0.4,0.3,0.5,0.2,0.9
		c0.2,0,0.3,0,0.5,0c0.1,0,0.3,0,0.2-0.2c-0.3,0-0.1-0.3,0-0.5c-0.3,0-0.7,0-0.7-0.2c0.4,0,0.6-0.2,0.7-0.5c-0.3,0-0.5,0.1-0.7,0.2
		c0-0.2,0-0.5-0.2-0.5C99.4,143.8,99.9,144,99.5,144.1L99.5,144.1L99.5,144.1z M72.1,145.2c1,0.2,1.3-0.4,1.4-1.1
		c-0.7,0-0.8-0.6-1.6-0.5C71.7,144.4,72.2,144.5,72.1,145.2L72.1,145.2L72.1,145.2z M104.6,144.5c0.3,0.3,1.5-0.1,1.6-0.7
		C105.2,143.8,104.8,143.4,104.6,144.5L104.6,144.5L104.6,144.5z M84.8,145.5c0-0.5,0.6-0.3,0.5-0.9c-0.3,0-0.3-0.3-0.7-0.2
		C84.7,144.6,84.3,145.5,84.8,145.5L84.8,145.5L84.8,145.5z M130.4,145.2c-0.5-0.2-0.7-0.8-1.6-0.7c0.4,0.6-0.3,0.8,0.2,1.1
		C128.9,144.3,130.2,145.8,130.4,145.2L130.4,145.2L130.4,145.2z M54.4,147.8c1.4-0.2-0.5,0.7,0.7,1.1c0.3-0.4,1.1-0.2,1.4-0.7
		c0,0.2,0.2,0.3,0.2,0.5c-1.6,0-1.6,0.7-2.1,1.4c0-0.2-0.2-0.3-0.2-0.5c0.3-0.3,0.3-0.8,0-1.1c-1.3-0.1-0.5,2-2.1,1.6
		c0,0.3,0,0.6-0.2,0.7c0-0.1-0.2-0.3-0.2,0c0.6,0.6,0.6,0.4,0.2,1.1c0.4,0,0.7,0.1,0.9,0.2c0-0.8,1-0.7,1.2-1.4
		c0.3,0,0.4,0.3,0.5,0.5c-1.1-0.2-1,1.4-0.2,0.7c-0.2-0.1-0.3-0.2-0.2-0.5c1,0.1,1.4-0.3,0.7-0.7c1.1,0.1,2.5,0.5,3.5,0
		c0.1,0.3,0.3,0.6,0.5,0.9c-0.2,0-0.5,0-0.5,0.2c0.7,0.3,1-1,0.5-1.1c-0.3,0.1-1.3-1.7-0.5-2.3c-0.7-0.3-0.6,0.4-0.9,0.5
		c0-0.3-0.3-0.3-0.2-0.7c1,0,2,0,2.3-0.7c-0.4-0.1-0.6,0.3-0.7,0c1.3-0.6,0-2.1-0.9-2.8c-1.5,0.3-0.7,0.7-2.1,0.5
		c0.5,0.9-0.6,1.6-0.9,1.6C55.5,147,54.3,147.3,54.4,147.8L54.4,147.8L54.4,147.8z M61.5,149.8c-0.9-0.5,0.7-0.3,0.7-0.7
		c-1.3-0.3-1.5-0.6-3-0.9c0.2,0.9,0.1,1.1-0.5,1.6c-0.2-0.4,0.7-0.8,0-0.9c-0.1,0.2-0.2,0.3-0.5,0.2c-0.2,1.2,0.9,1.2,1.4,1.8
		c0-0.6-0.4-0.7,0.2-0.9c-0.2,0.7,0.2,0.9,0.5,1.1c-0.3,0.1-0.6,0.4-0.2,0.5c0.1-0.2,0.2-0.3,0.5-0.2c0-0.6-0.4-0.7-0.5-1.1
		C61.1,150.4,61.2,149.8,61.5,149.8L61.5,149.8L61.5,149.8z M125.8,145.7c0.7-0.2,0.9,0.2,1.2,0.5c0.6-1.1-0.7-0.7-1.2-1.1
		C125.8,145.2,125.8,145.5,125.8,145.7L125.8,145.7L125.8,145.7z M53.5,147.3c0.3,0,0.3,0.3,0.7,0.2c0.1-0.5,0.6-0.7,0.5-1.4
		c0-0.5-0.6-0.3-0.5-0.9c-1.2-0.5-1.3,1-0.7,0.5c-0.9-0.1,0.7-0.6,0.5,0C53.4,146.4,54.2,146.8,53.5,147.3L53.5,147.3L53.5,147.3z
		 M47.9,148.4c0.2-0.4,0.8-0.4,0.9-0.9C48.4,147.5,47.1,147.9,47.9,148.4L47.9,148.4L47.9,148.4z M41.5,148.7c-0.2,0-0.5,0-0.5,0.2
		c0.3,0.1,0.4,0.4,0.7,0.5c0-0.3,0.9-0.7,0.2-0.9c-0.1,1.4-0.5-1.1-0.7-0.2C41.2,148.4,41.4,148.5,41.5,148.7L41.5,148.7L41.5,148.7
		z M71.9,149.8c0.5,0.2,1-0.8,0.5-0.9c-0.7,0.7,0.4-1-0.2-0.9C71.5,148.7,71.8,149,71.9,149.8L71.9,149.8L71.9,149.8z M79.7,150.5
		c0.4-0.5-0.3-1.3,0.2-2.1c-1.2,0.6-1.2-0.9-2.3,0.5C78.7,149.8,79.2,149.9,79.7,150.5L79.7,150.5L79.7,150.5z M22.8,149.1
		c-0.2,0.1-0.4,0-0.5,0.2c0.8,0,0.5,1.2,1.6,0.9c0-0.8-0.9-1.8-1.4-1.4C22.7,148.9,22.9,148.9,22.8,149.1L22.8,149.1L22.8,149.1z
		 M55.3,153c-0.4,0-0.8,0-1.2,0c-0.2,0.9,0.8,0.4,0.9,0.9c-1.3-0.2-1.2,1-1.4,1.8c0.4-0.7,1.7,0.2,2.5-0.5c-1-0.2-0.3-0.6-0.2-1.4
		c-0.7-0.2-0.3,0.8-1.2,0.5c0.2-0.4,1.2-1.3,0.5-1.8C55.3,152.7,55.3,152.9,55.3,153L55.3,153L55.3,153z M56,153.7
		c0.9,0.3,1.4,0.2,0.9,0.9c1.3,0.4,2.2,0.4,3-0.5c-0.6-0.3-1.1,0.5-1.1,0c0-0.4,0.8-0.2,0.7-0.7c-0.7,0.2-0.4-0.5-0.5-0.9
		C56.8,153.4,57.6,152.4,56,153.7L56,153.7L56,153.7z M77.6,155.3c0.5-0.6,0-1.4,0-2.1c-0.4,0.1-1,0.1-1.2,0.5
		C77.5,153.9,76.5,154.7,77.6,155.3L77.6,155.3L77.6,155.3z M76.3,156.2c-0.5-1.1-0.3-1.7-0.9-2.3c0,0.3,0,0.6-0.2,0.7
		c0-0.6-0.4-0.7,0-1.1c-0.4,0-1.5,0.5-0.9,0.7c0-0.2,0.4-0.3,0.5,0c-0.4-0.1-1,0.7-1.1,0c0.2,0,0.2-0.3-0.2-0.2
		c0.2,0.8,0.7,1.3,1.2,1.8c-0.8-0.4-0.5,1.7-1.6,1.1c0.2,1.5,2,1.2,3,0.9c-0.5-0.1-1-0.2-1.2-0.7C75.2,156.9,75.8,155.3,76.3,156.2
		L76.3,156.2L76.3,156.2z M51.8,156.2c-0.2-0.6,0.5-0.5,0.5-0.9c-0.4,0-0.7-0.1-0.9-0.2C51.3,155.7,51.5,156,51.8,156.2L51.8,156.2
		L51.8,156.2z M53.5,156.2c-0.1-0.3,0.3-1.2-0.2-1.1C52.6,155,52.4,155.9,53.5,156.2L53.5,156.2L53.5,156.2z M59.2,156.9
		c-0.8-0.1-0.2-1.4-0.9-1.6c0,0.7-0.8,0.5-0.7,1.4C58.3,156.7,58.8,157.2,59.2,156.9L59.2,156.9L59.2,156.9z M58.1,155.1
		c-0.7,0-1.6-0.2-1.6,0.5c0.7-0.2,0.4,0.5,0.5,0.9C57.8,156.5,57.7,155.5,58.1,155.1L58.1,155.1L58.1,155.1z M20.7,157.4
		c0.5-0.1,1.1-0.2,0.9-0.9C21.1,156.5,20.8,156.8,20.7,157.4L20.7,157.4L20.7,157.4z M76.5,157.2c-0.3,0-0.1-0.3,0-0.5
		c-0.7-0.1-0.9,0.3-1.2,0.7c0.4,0,0.7-0.1,0.9-0.2C76.3,157.3,76.4,157.4,76.5,157.2L76.5,157.2L76.5,157.2z M153.2,160.6
		c0,0.2,0,0.5,0,0.7c1.1-0.2,1.7-1.6,2.8-1.1c-0.3-0.9-0.1-0.6,0.7-0.5c-0.3-0.7,0.4-0.6,0.5-0.9c-1.2,0-0.2,0-0.2-0.7
		c-0.8-0.2-1.2-0.7-1.6-1.1c0,1-0.5,0.5-1.8,0.7c-0.1,0.2,0,0.5-0.2,0.5c0,0.7,0.3,1.1,0.5,1.6c-0.3,0-0.6,0-0.9,0
		c-0.3,0.8,1.4,0.7,0.7,1.1C153.4,160.7,153.4,160.5,153.2,160.6L153.2,160.6L153.2,160.6z M56.4,158.8c0.4-0.1,0.5,0.3,0.9,0.2
		c0.3-0.3,0.4-1.1-0.2-1.1C57.1,158.3,56.7,158.5,56.4,158.8L56.4,158.8L56.4,158.8z M81.8,158.1c-0.3,2,1.1,1.7,0.7,3.2
		c0.3,0.3,1.1,0.3,1.4,0c-0.7,0.7,0.6,0.2,0.7,0.7c-0.7-0.2-0.6,0.3-1.1,0.2c0.2,0.6-0.3,0.6-0.2,1.1c1,0.3,1.3,1.3,2.3,1.6
		c0.5-1.6-0.6-2.4,0-4.1c-0.3-1.1-2.7-0.1-1.6-1.1c-0.3-0.6-1.2,0.5-1.4,0c0.4,0,0.1-0.8,0.5-0.9C82.4,158.7,82.5,158,81.8,158.1
		L81.8,158.1L81.8,158.1z M150.5,158.5c0,0.6,0.4,0.7-0.2,0.9c-0.3,0-0.2-0.4-0.5-0.5c-0.3,0.4-0.7,0.6-0.9,0.9
		c0.7,0.9,1.5,0.4,2.3,0.7c-0.5-0.9,0.6-1.1,0.5-2.3C151,158.1,151,158.6,150.5,158.5L150.5,158.5L150.5,158.5z M35.7,159.9
		c0-0.4,1.2,0.4,1.2-0.5c-0.5,0.1-0.5-0.3-0.7-0.5C36.1,159.3,35,159.6,35.7,159.9L35.7,159.9L35.7,159.9z M77,160.4
		c1.4-0.1,0.3-1.6-0.2-1.8C77.2,159.2,76.4,159.7,77,160.4L77,160.4L77,160.4z M80,163.1c-0.1-1.2-1.9-2-2.3-2.1
		C78.3,161.5,78.4,163,80,163.1L80,163.1L80,163.1z M6.2,162.9c1.2,0.3,0.5-1.1,0.2-1.4C6.6,162.2,6.2,162.3,6.2,162.9L6.2,162.9
		L6.2,162.9z M27,163.6c1.1-0.1,1-1.5,0.5-2.1c-0.6,0-1.1,0.1-1.4,0.5c0.3,0,0.1,0.3,0,0.5c0.3,0.1,1.2-0.3,1.2,0.2
		c0,0.3,0,0.7-0.2,0.7c-0.1-0.2,0-0.5-0.2-0.5C26.7,163.2,26.8,163.4,27,163.6L27,163.6L27,163.6z M62.2,162.2c0,0.3,0,0.6,0,0.9
		c1.1,0.2,1.8-1.1,1.4-1.6c0,0.4-1-0.2-1.6,0C62,162,63.3,162.5,62.2,162.2L62.2,162.2L62.2,162.2z M37.1,162
		c0.1,0.6,0.2,1.2,0.9,1.1c0-0.4,0-0.8,0.5-0.7c0.1,0.4-0.3,0.5-0.2,0.9c0.9,0.3,0.6-0.8,1.2-0.2C39.4,161.3,37.9,162.2,37.1,162
		L37.1,162L37.1,162z M30.4,163.1c0.8,0.5,1.6,0.2,1.1,1.6c0.3,0,0.5,0.1,0.5,0.5c1.9-0.3,2.6-0.4,3-2.3c-1,0.6-0.3-0.4-1.1-0.5
		c-0.4,0-0.2,0.8-0.7,0.7c0-0.2,0-0.5,0-0.7c-0.9,0.6-0.7,0.6-1.6,0c-0.5,0.5-0.2,0.5-0.7,0C30.9,162.9,30.6,162.9,30.4,163.1
		L30.4,163.1L30.4,163.1z M27.4,163.8c-0.1,0.7,0.8,0.3,0.2,0.9c1.5,0.1,1.9-0.9,2.5-1.6C29.1,163.2,28.6,163.8,27.4,163.8
		L27.4,163.8L27.4,163.8z M75.8,169.8c0.3-0.6-0.5-1.1,0-1.1c0.8,0,1.7,0,2.5,0c0.5,0.9,0.4,1.4,0.7,2.8c1.1-0.1,2,1,2.8,0.5
		c-0.2-0.7-0.6-0.5,0-1.1c-0.4-0.3-1.4-0.1-1.2-1.1c0.7,0.6,1.2-0.6,1.2-0.9c1.6,0.5,1,2.4,1.8,0c-0.3,0-0.7,0-0.7-0.2
		c0.4,0,0.6-0.2,0.7-0.5c-0.6-2.8-2.4-4.5-5.5-4.8c-1.8,0.7-1.1,2.8-1.1,3.7c-1.1-0.3-1.9,0.1-2.8-0.7c-0.1,1.1,0.8,1.2,1.2,1.8
		C75,168.5,75,169.4,75.8,169.8L75.8,169.8L75.8,169.8z M22.8,164.7c-0.2,0-0.6,0.9-1.2,0c0.3,1.3,1,0.7,2.1,0.9
		c-0.3-0.5,0.6-0.9,0-0.9C23.1,165.3,23,164.7,22.8,164.7L22.8,164.7L22.8,164.7z M38,164.5C36.7,166,39.3,165.4,38,164.5L38,164.5
		L38,164.5z M68.7,165.6c1,0.1,0.2-0.7,0.2-1.1c-1-0.1-1.3,0.6-1.6,1.1c0.5-0.1,0.5,0.3,0.7,0.5c0.7-0.5-0.2-1.1,0.9-1.1
		C68.9,165.2,68.6,165.3,68.7,165.6L68.7,165.6L68.7,165.6z M24.7,165.6c-0.1-0.5,1.4,0.5,1.6-0.2c-0.3,0-0.3-0.4-0.2-0.7
		C25.6,164.9,23.9,165,24.7,165.6L24.7,165.6L24.7,165.6z M5.3,165.9c0.7,0.2,0.3,0.3,0.2,0.9c0.6,0.2,1.3-0.5,0.7-0.7
		c0,0.1-0.2,0.3-0.2,0c0-0.3,0.3-0.3,0.2-0.7C5.7,165.3,5.4,165.5,5.3,165.9L5.3,165.9L5.3,165.9z M37.1,166.1
		c0.4,0.6-0.1,2,0.9,2.1c-0.2-1.1,1-0.9,0.9-1.8C38,166.1,38.1,165.8,37.1,166.1L37.1,166.1L37.1,166.1z M152.3,167.2
		c0.4,0,0.1-0.8,0.5-0.9c-0.5,0.1-2.1,0-1.6-0.5c-0.6,0-0.5,0.4-0.9,0c0,0.9-1.1,0.5-1.6,0.9c0.1,1.3,1.7,0.4,2.1,0
		c0,0.2,0,0.5,0,0.7c0.7,0.2,0.3-0.8,0.9-0.7c-0.1,0.3-0.3,0.4-0.2,0.9c0.6,0.3,1.1,0.6,1.8,0.7c-0.2-0.7,0.8-0.3,0.7-0.9
		C153.2,167.8,152.7,168.1,152.3,167.2L152.3,167.2L152.3,167.2z M72.6,167.9c-0.5-0.3,0.7-0.8,1.2-0.5c-0.3-0.6,0.7-1,0-1.1
		c-0.5,0.3-1.3,0.2-1.6-0.2c0,0.3-0.3,0.1-0.5,0c-0.3,0.3-0.2,1-0.2,1.6C71.7,167.7,72.6,168.4,72.6,167.9L72.6,167.9L72.6,167.9z
		 M88,167.7c0.6,0,1.1,0,1.4-0.2c0.1-0.6-0.4-0.5-0.2-1.1C88.3,166.3,88.1,167,88,167.7L88,167.7L88,167.7z M7.4,166.8
		c-0.3,0.3-0.4,0.9-0.7,1.1c-0.1-0.2,0-0.5-0.2-0.5c-0.2,0.6,0.3,0.6,0.2,1.1c0.3,0,0.8-0.1,0.9,0.2c-0.5,0.5-0.2,0.5-0.7,0
		c0.2,0.9-0.4,1-0.2,1.8c1.4,0.4,1.1-2.5,1.8-1.4c0-0.3,0.1-0.5,0.2-0.7c-0.8-0.1-1-0.2-0.7-0.9C6.8,168.3,8.1,167.3,7.4,166.8
		L7.4,166.8L7.4,166.8z M74,168.8c-0.2,0.7,0.4,0.7,0.7,0.9c0-0.5,0.4-0.7,0.2-1.4c-0.4,0.1-0.5-0.3-0.7-0.5
		c-0.2,0.9,0.6,0.7,0.5,1.4C74.2,169.4,74.2,169,74,168.8L74,168.8L74,168.8z M153.7,168.8c0.4,0.1,0,1.1,0.9,0.7c0-0.5,0-1.1,0-1.6
		c-0.3,0-0.7,0-0.7,0.2C155.1,168.6,153.7,168.2,153.7,168.8L153.7,168.8L153.7,168.8z M32.5,168.8c-1.7,0.3,0,1.2-1.4,1.6
		c1.2,0.1,0.9,0.6,0.9,1.1c0.5-0.7,2-1.9,0.9-2.8c-0.1,0.5-0.5,0.7-0.7,1.1C32.1,169.3,32.6,169.4,32.5,168.8L32.5,168.8L32.5,168.8
		z M124.4,171.1c-0.1-0.7-1.9-0.9-2.3-0.5C122.9,170.8,123.3,171.3,124.4,171.1L124.4,171.1L124.4,171.1z M13.8,171.6
		c0.3,0.5,0.6-0.3,0.7,0.2c0,0.2-0.2,0.3-0.2,0.5c0.7,0.4,0.6-1.2,0.2-1.1c0,0.1,0,0.3-0.2,0.2c0-0.3-0.1-0.5-0.5-0.5
		C13.8,171.1,13.8,171.4,13.8,171.6L13.8,171.6L13.8,171.6z M35.3,172.3c0.5,0,0.7-0.4,1.4-0.2c0-0.3,0.1-0.5,0.2-0.7
		C36.1,171.5,35.4,171.6,35.3,172.3L35.3,172.3L35.3,172.3z M7.8,172.5c-0.4-0.1-0.2-0.5,0-0.7c-0.7,0.2-0.6-0.3-1.2-0.2
		C6.6,172.2,7.7,172.8,7.8,172.5L7.8,172.5L7.8,172.5z M36.4,173c0.4-0.3,1.8-0.6,1.1-1.1c-0.1,0.4-0.2-0.1-0.5-0.2
		C36.9,172.1,36.7,172.6,36.4,173L36.4,173L36.4,173z M77.9,177.3c1.1,0.3,2-1.4,2.3-2.5c-0.6,0-0.5-0.4-0.9,0
		c0.1-0.8-0.7-0.7-0.7-1.4c-0.1-0.6,0.9-0.2,0.7-0.9c-1,0.1-1.9,0.7-2.5,1.8c1.3-0.1-0.5,0.9,0.2,0.9c-0.1-0.5,0.7,0,0.7,0.2
		c-0.5,0.5-0.1,0.6,0.2,0.9c-0.7-0.2-0.7,0.4-0.9,0.7C77.7,177.1,78.3,176.1,77.9,177.3L77.9,177.3L77.9,177.3z M17.7,173.7
		c-0.2,0.1-0.3,0.2-0.2,0.5c0.8,0.2,0.5-1.5,0-1.4C17.1,173.2,17.5,173.4,17.7,173.7L17.7,173.7L17.7,173.7z M137.8,173.7
		c0-0.5,0.6-0.3,0.5-0.9c-0.3,0-0.6,0-0.9,0C137.4,173.2,137.5,173.5,137.8,173.7L137.8,173.7L137.8,173.7z M72.6,173.4
		c0.2,0.1,0.5,0,0.5,0.2c-0.3,0.3-0.2,0.6,0.2,0.7c-0.2-0.6,0.3-0.6,0.2-1.1C73.2,172.9,72.6,172.9,72.6,173.4L72.6,173.4
		L72.6,173.4z M126.7,173.7c0.3,0.2,0.6,0.3,1.2,0.2C128.1,173,126.7,173,126.7,173.7L126.7,173.7L126.7,173.7z M126.7,173
		c-0.6,0-1.2,0-1.1,0.7C126.2,173.3,126.6,174,126.7,173L126.7,173L126.7,173z M82.7,173.4c-0.3,0-0.3-0.3-0.7-0.2
		c0.1,0.7-0.4,0.8-0.7,1.1c0.7,0.4,0.3,1.1,0,1.6c1.3-0.6,0.2,0.6,0.7,0.9c0.1-0.2,0.4-0.6,0.5-0.2c-0.5,0.6,0.6-0.2,0.7-0.5
		c-1.6-0.3-0.7-1.8-0.7-2.7C82.5,173.6,82.7,173.7,82.7,173.4L82.7,173.4L82.7,173.4z M121.9,173.2c-0.3,0-0.6,0-0.9,0
		C120.8,174.1,122.1,174.1,121.9,173.2L121.9,173.2L121.9,173.2z M128.8,174.4c-0.6,0-1.3,0.1-1.6-0.2c-0.4,0.9,0.6,0.5,0.7,0.9
		c-0.4,2.5,3,3.8,4.1,4.6c0.2-1.5-2.1-2.7-2.5-4.8c-0.9,0-1.1,0.4-1.4,0C128.4,174.3,128.8,175.3,128.8,174.4L128.8,174.4
		L128.8,174.4z M131.6,173.7c0,0.4-0.2,0.6-0.5,0.7c-0.7-0.3-1.2-0.8-1.8-1.1c0.6,2.3,1.4,4,3.5,5.3c-0.1-0.8-0.3-1.1,0-1.8
		c-0.4-0.2-1.1-0.1-1.4-0.5c0.4-0.4,0.5-1.1,0.9-1.4c-0.3-0.1-0.6-0.4-0.7-0.7C131.8,174.1,131.9,173.7,131.6,173.7L131.6,173.7
		L131.6,173.7z M134.3,174.6c0.1-0.4-0.3-0.5-0.2-0.9c-0.9,0.5-1.1-0.2-1.8-0.5c-0.3,0.5,0,0.6-0.5,1.1
		C132.8,174.7,133.3,174.1,134.3,174.6L134.3,174.6L134.3,174.6z M39.4,173.4c-0.7-0.2-0.4,0.5-0.5,0.9c0.7,0,1.1,0.4,0.7,1.4
		c0.8,0,2.2,0.1,1.6,0.7c0.7,0.2,0.6-0.3,1.2-0.2c-0.9,0.6,1.5,0.6,1.4,0.5c-0.2-0.8-1.5-0.8-1.8-0.9c0.5,0,0.1-0.8,0.2-1.1
		c-0.8,0.4-0.1-0.8-0.7-0.7C41.2,174.8,39.3,174.4,39.4,173.4L39.4,173.4L39.4,173.4z M124.6,174.8c0.4,0,0.8,0,1.2,0
		c0-0.7-0.6-0.8-1.2-0.9C124.6,174.2,124.6,174.5,124.6,174.8L124.6,174.8L124.6,174.8z M121.2,175c-0.7,0.3-1.2,0.8-2.1,0.9
		c0.1,0.5,0,0.9-0.2,1.1c1.1-0.1,1.6-0.2,2.3,0c0,0.3-0.4,0.2-0.5,0.5c1-0.3,1.7,0.4,1.8-0.7c-1.1-0.1-0.6-1.4-0.2-2.3
		c-1-0.4-0.5,1.9-1.2,1.1C121.5,175.7,121.5,175.1,121.2,175L121.2,175L121.2,175z M33.9,176.9c0.7-0.2,0.4-0.2,1.1,0
		c0-0.3,0-0.6-0.2-0.7C34.6,176.4,34,176.1,33.9,176.9L33.9,176.9L33.9,176.9z M33.6,177.8c0.2-0.5,0.8,0.4,1.2,0.5
		c-0.1-0.5,0-0.9,0.2-1.1C34.5,176.6,33.2,177.4,33.6,177.8L33.6,177.8L33.6,177.8z M33.9,175.3c0.8,0.4-0.3,0.7-0.5,0.9
		c0.3,0,0.1,0.3,0,0.5C34.4,177.1,34.7,174.5,33.9,175.3L33.9,175.3L33.9,175.3z M139.2,178.9c1.1-0.2,0.6,0.6,0.9,0.7
		c0.1-0.8,1-0.5,1.2-0.7c-0.2-0.4-0.6-0.6-0.7-1.1c-0.8-0.2-0.9,0.3-1.6,0.2c-0.2-1.5-1.9-1.6-2.3-3c-0.6,0.2-1.2,0.3-2.1,0.2
		c0,0.2,0,0.5,0,0.7c0.9-0.2,1.3-0.1,1.8,0.5c-0.2,0-0.5,0-0.5,0.2c0.3,0.1,0.5,0.3,0.5,0.7C137.8,177,139.4,178,139.2,178.9
		L139.2,178.9L139.2,178.9z M92.4,176.6c0.2-0.6,0.4-1.3-0.5-1.4C92.2,176.1,91.7,176.3,92.4,176.6L92.4,176.6L92.4,176.6z
		 M30.4,178.9c0.1-0.3,0.5-0.3,0.7-0.5c-0.6-0.7,1.2-1.5,0-2.1C31.1,177.3,30.1,178.4,30.4,178.9L30.4,178.9L30.4,178.9z
		 M12.7,177.8c0-0.5-0.6-0.3-0.5-0.9c-0.7-0.1-0.7,0.6-0.9,0.9c1.2-0.5,0.7,0.4,1.4,0.9c0-0.8,1-0.6,1.2-1.1
		c0.1,0.2,0.2,0.3,0.5,0.2C13.8,177.2,12.4,177.1,12.7,177.8L12.7,177.8L12.7,177.8z M144,177.6c-0.2-0.5-1.1-0.5-1.8-0.5
		C142.1,177.8,143.8,178.6,144,177.6L144,177.6L144,177.6z M37.1,178.2c0.1-0.2,0-0.5,0.2-0.5c0.2,0.8,0.7,0.1,1.4,0.7
		c0-0.3,0.9-0.7,0.2-0.9c-0.3,0.9-0.4,0-0.7-0.2c-0.2,0.7-0.6,0.3-1.1,0.2C37.1,177.8,36.7,178.1,37.1,178.2L37.1,178.2L37.1,178.2z
		 M145.2,178c-0.7-0.2-0.5,0.6-0.9,0.7c0-0.2-0.4-0.3-0.5,0c0.5,0.5,1.2,1,1.4,1.8c0.8,0.2,0.9-0.3,1.6-0.2c0,0.1,0.2,0.3,0.2,0
		c-0.3-0.1-0.9-1.1,0-0.9c-0.5,1,1.4,0,1.4-0.7c-0.4-0.4-0.7,0.3-1.2-0.2c-0.4,0.9-0.7-0.4-0.7,0.7c-0.5,0.1-0.9-1.2-1.4-0.5
		c0.1,0,0.3,0.2,0,0.2C144.8,178.5,145.2,178.6,145.2,178L145.2,178L145.2,178z M121.2,179.4c0.1-0.6-0.3-0.8-0.9-0.7
		C120.1,179.5,120.8,179.8,121.2,179.4L121.2,179.4L121.2,179.4z M134.6,179.4c0,0.3,0,0.7-0.2,0.7c-0.1-0.2-0.2-0.3-0.5-0.2
		c0,1.1,1,0.1,1.6,0.2C135.7,179.3,134.7,179.8,134.6,179.4L134.6,179.4L134.6,179.4z M136.2,180.5c-0.3-0.4-0.2-0.5,0.5-0.5
		c-0.2-0.7-0.2-0.4,0-1.1c-0.6,0-1.4-0.1-1.4,0.5C136.3,179.3,135.5,180.9,136.2,180.5L136.2,180.5L136.2,180.5z M135.2,184
		c0.1-0.6-1.2-0.9-0.7-2.1c-1.1,0-0.5-2-2.1-2.1c-0.2,0.5-0.6,0.8-0.5,1.6c0.8,0.4,1.3,1.1,1.8,1.8c-1.2-0.4-1.3-1.9-2.8-2.1
		c0.3,0.8,0.7,1.6,1.2,2.3c-1.2,0.3-1-0.7-2.1-0.5c0,0.4,0.1,0.7,0.2,0.9c1.2-1,2.4,1.3,2.5,0c0.7,0.6-0.2,1.4,0.9,1.6
		c-0.4-0.7-0.1-1,0.9-0.9C134.3,183.4,134.9,184.2,135.2,184L135.2,184L135.2,184z M138,179.9c-0.1,1.1-0.2,1.2-1.2,1.6
		c0.9,0.5,2.2,1.8,3.5,1.1c-0.6-0.1,1.1-0.8,0.2-1.1c0.2,0.4-1.1,0.4-0.9,0C140,180.7,139.3,179.7,138,179.9L138,179.9L138,179.9z
		 M103.2,181c-0.2,0.9,0.6,0.7,0.5,1.4c0.4,0.1,0.5-0.3,0.7-0.5c-0.5,1-1.6,1.3-2.1,2.3c-0.3-0.7,0.1-0.7-0.7-0.2
		c-0.3-0.5,0.6-0.9,0-0.9c-0.1,0.4-0.3-0.1-0.7,0c1.1,1.9,3.7,2.3,6,3c0.5-0.7,0.4-1.3,1.6-1.6c0.6,0.6,1.3,1,2.1,1.4
		c-0.7-0.2-0.9,0.2-1.2,0.5c0-1.1-0.9-0.2-1.1-0.7c0.8,0.2,0.4-0.8,0-0.7c0,0.9-0.6,1.1-0.9,1.6c1.4,0.3,2.8,1.5,4.4,0.9
		c-0.8,0.7,1.3,0.7,1.2,0c-1.2-0.3-0.4-2.1-0.7-1.8c-0.1,0.3-0.5,0.3-0.7,0.5c-0.1-2.4-2.2-4.2-4.8-4.8c-0.3,0.4-0.3,1.1-0.9,1.1
		c-0.2-0.4,0.7-0.8,0-0.9c-0.2,1-1-0.3-1.8,0.2c-0.2-0.7,0.2-0.9,0.5-1.1C103.7,180.4,103.9,181.2,103.2,181L103.2,181L103.2,181z
		 M110.8,182.8c0.4-0.3-0.4-1,0.5-1.1c0,1.4,0.5,0.2,0.9,0c0,0.3,0,0.6,0,0.9c0.7,0.1,0.5-0.7,0.7-1.1c-1.2,0.1-1-1.1-2.3-0.9
		c0,0.8-0.5,0-0.9,0.7C109.6,182.3,110.3,182.4,110.8,182.8L110.8,182.8L110.8,182.8z M113.6,182.6c0.1-0.5,0.5-0.7,0.7-1.1
		c-0.3,0-0.5-0.1-0.7-0.2C113.7,181.6,112.9,182.4,113.6,182.6L113.6,182.6L113.6,182.6z M14.7,183.1c-0.1-0.6,0.4-0.5,0.2-1.1
		c-0.3,0-0.3-0.3-0.7-0.2C14.3,182.3,14.2,183,14.7,183.1L14.7,183.1L14.7,183.1z M146.5,181.9c-0.3,0-0.3-0.3-0.7-0.2
		C145.2,183.9,146.4,182.9,146.5,181.9L146.5,181.9L146.5,181.9z M142.9,185.4c0.8-0.3,17.9-1.4-0.2-2.5c0,0.5-0.7,1.5-0.7,1.4
		C142.3,184.6,141.7,185.4,142.9,185.4L142.9,185.4L142.9,185.4z M135.9,184.9c0.3,0,0.7,0,0.7,0.2c-1.4,0,0.1,0.2,0,0.7
		c0.1-0.6-1.3,0.9,0,1.4c0.2-1.1,1.6,0.4,2.1-0.2c-0.1-0.8-1.3-1.8-1.2-2.1c0.1,0,0.3-0.2,0-0.2c-0.6,0.8-1.3-0.9-1.6-0.2
		C136.2,184.5,136.1,184.7,135.9,184.9L135.9,184.9L135.9,184.9z M138.5,187.9c-0.1-0.4-1.1-1-1.4-0.5c0.7,0.2,1.1,0.8,1.8,0.9
		c0.4-0.4,0.1-1.1-0.2-1.4C138.1,187.3,139,187.8,138.5,187.9L138.5,187.9L138.5,187.9z M14.3,185.4c0.6,0.2,1.3,0.4,1.4-0.5
		C15.1,184.9,14.3,184.8,14.3,185.4L14.3,185.4L14.3,185.4z M63.4,188.8c0-1.9-2.9-3.7-5.1-3.4C59.7,187,61.9,187.9,63.4,188.8
		L63.4,188.8L63.4,188.8z M54.4,187.6c0.8,0.4,2.2,0.3,2.8-0.2c-0.2,1.3,2.2,0.5,2.8,0.5c-0.4-1.2-2.3-0.8-2.5-2.1
		c-1,0-3.1,0.1-2.1,0.7c-0.7-0.3-0.6,0.4-0.9,0.5c0-0.3,0.1-0.5,0.2-0.7c-0.9,0.3-0.2,0.8-1.2,0.2c-0.1,0.6-1,0.9-0.5,1.4
		c1.2,0.3,1.7-1.8,2.3-0.7C54.8,187.1,54.4,187.2,54.4,187.6L54.4,187.6L54.4,187.6z M48.4,187c0.7-0.2,0.4-0.2,1.2,0
		c-0.1-1.4-1.6-0.7-2.1-0.2c0.4,0.5,0,0.7,0,1.4c-0.3-0.6-1.7,0.2-0.9,0.7c0.1-1.1,0.7,0.1,1.2,0c0.9-0.7,2.9-0.7,3.7-0.9
		c0-0.2,0-0.5,0-0.7c-0.3,0-0.5-0.1-0.7-0.2C50.6,187.6,48.8,187.6,48.4,187L48.4,187L48.4,187z M111.3,189.7
		c-1.9-1.9-5.8-2.9-8.3-3.4C105.9,187.3,108,189.1,111.3,189.7L111.3,189.7L111.3,189.7z M115.9,190.2c0.2,0.4,1.2,0,0.2,0
		c0.9-0.6-0.3-0.9,0.5-1.8c-0.3-0.2-0.8-0.2-1.2-0.5C115,189.2,116.5,189.4,115.9,190.2L115.9,190.2L115.9,190.2z M34.3,189.9
		c0.7,0.1,0.9-0.3,1.1-0.7c-0.4-0.4-0.6,0-1.1,0c0.2-0.8-0.5-0.3-0.5,0C34.3,189.2,34.4,189.5,34.3,189.9L34.3,189.9L34.3,189.9z
		 M57.1,190.6c0.1-0.3,0.3-0.1,0.5,0c0.2-0.6,0.8-0.9,0.9-1.6c-1.1,0.1-1.7-0.1-2.1,0.2C57.6,189.6,56.9,190,57.1,190.6L57.1,190.6
		L57.1,190.6z M62,191.1c0.5,0.5,0.2,0.6,0.5,1.1c0.4,0,0.8-0.2,0.9-0.5c-0.7-0.2,0.1-1,0-1.4c-0.8-1.1-2.8-1-4.4-1.4
		c-0.1,0.7-0.8,0.7-0.7,1.6c1.1-0.1,1.1,0,2.1-0.5c-0.1,0.6,0.9,0.2,0.9,0.7c-0.3,0.5-0.6-0.3-0.7,0.2C61,191.5,61.4,191.2,62,191.1
		L62,191.1L62,191.1z M112.2,189.7c0.1,0.9,1.7,0.3,2.1,0.9C114.1,189.9,112.7,189.4,112.2,189.7L112.2,189.7L112.2,189.7z
		 M30.4,190.6c0.3-0.3,1.8,0.8,0.7,1.4c0.7,0.2,0.3-0.8,1.1-0.5c0-0.9-1.3-0.4-0.7-1.4C31,190,29.8,190.3,30.4,190.6L30.4,190.6
		L30.4,190.6z M29.3,192c0.4,0,0.8,0,1.2,0c0-0.4-0.2-0.8-0.5-0.9C29.9,191.6,29.3,191.5,29.3,192L29.3,192L29.3,192z M57.4,192.9
		c0.3,0,0.6,0,0.9,0c0.1-0.4-0.3-0.6,0-0.7c0.2,0.6,1,0.4,1.4,0c-0.7,0-0.8-0.6-1.6-0.5C58.2,192.5,57.4,192.4,57.4,192.9
		L57.4,192.9L57.4,192.9z M81.1,195c-0.1,0,0.5-1.4,1.2-0.7c0,1.2,0,0.7,0.7,0.5c0.2,0.9-0.2,1.6,0.9,1.8c-0.9-1.3-0.1-3.2-0.5-4.6
		c-0.8,0.6-1.7,1-2.5,0.9c0.2,0.2,0.3,0.8-0.2,0.9c-0.2-0.2-0.1-0.8-0.7-0.7C80.3,194.1,81,195,81.1,195L81.1,195L81.1,195z
		 M127,192.9c0,0.2,0,0.5,0,0.7c0.9,0.3,0.8-0.8,1.4-0.2c0-0.3,0.1-0.8-0.2-0.9C128,193.4,127.4,193,127,192.9L127,192.9L127,192.9z
		 M58.8,193.6c0.2,0.1,0.5,0,0.5,0.2c-0.3,0-0.4,0.3-0.5,0.5c0.9,0.2,0.7-0.7,0.9-1.1C59.2,193.1,58.8,193.2,58.8,193.6L58.8,193.6
		L58.8,193.6z M119.3,195.4c0-0.7,0.5-1.1-0.5-1.1C118.5,194.6,118.6,195.6,119.3,195.4L119.3,195.4L119.3,195.4z M127.6,195.2
		c0.1-0.7-0.7-0.5-1.1-0.7C126.2,195.4,127,195.2,127.6,195.2L127.6,195.2L127.6,195.2z M118.4,197.7c1.3,0.5,0.5,1,0.7,1.8
		c0.5,0.2,0.7-1.1,1.2-0.2c-0.4,0-0.6,0.2-0.7,0.5c1-0.1,0.9-0.7,1.2-1.1c0,0.1,0.2,0.3,0.2,0C120.1,198.5,119.1,197.3,118.4,197.7
		L118.4,197.7L118.4,197.7z M120,197.5c-0.5-0.4-1.1-0.7-0.9-1.8C117.8,195.5,119.2,198.4,120,197.5L120,197.5L120,197.5z
		 M52.3,196.8c0.6,0,0.7-0.4,1.1,0c0-0.3,0.1-0.5,0.2-0.7C52.9,196.4,52.7,196,52.3,196.8L52.3,196.8L52.3,196.8z M91.8,215
		c-0.3-3.2,0.1-7.4,0.2-10.2c0.1-2.4,1.2-4.7,1.2-6.6c0-1.1-1.4-2,0-2.8c0.3,0.8-0.2,1.9,0.7,1.8c-0.1,0.3-0.4,0.4-0.5,0.7
		c1.1-0.2-0.3,0.6,0.5,0.7c0.1-0.4,0.2,0.1,0.5,0.2c0.7-0.9,1.9,0.2,2.5-0.2c-0.4-0.6,0-0.9-0.2-1.8c0.7-0.1,1-0.7,1.8-0.7
		c0.1,0.6,0.7,0.7,0.7,1.4c-0.3,0-0.2,0.4-0.5,0.5c-0.5-0.1-0.9,0.1-0.9,0.5c1.5-0.4,0,0.6,0,1.4c0.9,0,3.5,0.5,2.8,2.5
		c0.2,0,0.3,0,0.5,0c0,0.1,0,0.3,0.2,0.2c-0.2-1.1,0.7-2.1-0.2-2.5c0.8-0.5,1.6,0.4,1.2,0.7c0.9-1,1.4,0.5,2.5-0.2
		c0.1-0.7-0.4-1.4-0.9-1.1c0.2,0.4-0.1,0.6,0.5,0.7c-0.1,0.2,0,0.5-0.2,0.5c-0.8-0.2-0.7-1.3-1.2-1.8c0.2,0.4-1.1,0.4-0.9,0
		c0-0.3,0.4-0.2,0.5-0.5c-1.6-0.5-0.8-0.7-1.8-0.2c0.3-1.4-1-0.1-1.2-0.7c0.4-0.8,1.3-0.7,0.5-1.6c0.3,0.2,0.6,0.3,1.2,0.2
		c0-0.3-0.1-0.5-0.2-0.7c0.5,0.1,0.5-0.3,0.7-0.5c-0.2,0.9-0.2,1.7,0.9,1.8c0.2-0.6-0.6-2.3,0.5-1.4c-0.4-0.8,0.1-1-0.2-1.8
		c1.3,0.2,0-1,0.9-1.4c1.8-0.5,2.4-0.8,3.9,0.2c-0.1-0.8-0.4-0.6,0.5-0.5c0-0.6,0.1-1,0.5-1.1c2.1,0.5,4.8,0.4,6,1.8
		c-0.3,1-1.5,1.1-1.8,2.1c1.5-0.3-0.3,0.9,0.5,1.1c0.4-0.7,1,0.7,1.4,0c0.4,0.5,0,1.5,0.2,1.6c0.5-0.6,0.4,0.6,1.1,0
		c0.1,0.8,0.9,0.6,0.5,1.4c0.7,0.2,0.7-0.4,1.4-0.2c0,0.2,0.2,0.3,0.2,0.5c-0.2,0.4,0,1.2-0.7,1.1c0.5,1.2,1.1,2.9,1.1,3.9
		c1-0.1,3.3,0.3,2.5-2.1c-0.8,0-1.5,0-1.4-0.9c1.4,0.6,0.2-0.8,1.4-0.2c0.4-0.8-0.8-0.1-0.7-0.7c0.7-0.5,1.1-0.2,1.2-0.9
		c0.4,1.3,1.4-0.9,1.8-0.2c-0.4,0.1-0.2,0.9-0.9,0.7c0.3,1.1,0.5,1.6,0,2.5c0.6-0.3,0.7,0.1,0.9-0.2c-0.3,0-0.3-0.6,0-0.7
		c0.4,0.1,0.2,0.7,0.9,0.5c0.2-1.1-1.1-1.5,0.2-1.8c-0.8,0.7,0.4,0.5,0.7,0.9c-0.4,0.4-0.9,1.7-1.6,1.1c0.3,1.1,0,1.1-0.7,1.6
		c0.8,0-0.5,0.8,0.2,0.7c0-0.3,0.4-0.3,0.7-0.2c-0.1-0.9,0.6-1.1,0.9-1.6c0.1,0.8,0.7,1.1,1.2,1.6c0.4-0.9,0.9-0.7,1.6-0.9
		c-0.3-0.5-0.7,0.5-0.7-0.5c-0.7,0-0.8,0.6-1.4,0.7c-0.1-0.5-0.6-1.5,0.2-1.6c0.1,0.2,0,0.5,0.2,0.5c0-0.7,0.1-1.3,0.5-1.6
		c0,0.3,0.1,0.5,0.5,0.5c1-0.6,0.3-2.5-0.7-2.1c0.3,0,0.5,0.1,0.5,0.5c-0.5,0-0.9,0-1.4,0c-0.1-0.4-0.5-0.6-0.5-1.1
		c0.7-0.2,0.5-0.2,0.9,0.2c-0.2-0.9,1.1-0.6,1.4-1.6c-0.1,0.9,0.6-0.2,0.9,0.5c0.3-0.7,0-0.5,0-1.4c0.9,0.1,1.6,1,1.6,1.6
		c0.5-0.5,0.9-1,1.3-1.4l0,0l0,0l1,0.9l1.5-2.4l2.5-0.6l1.9-0.7l1.1-1.2c0,0,0.3-0.3,0.7-0.5c0.8-0.2,1.5-0.3,2.3-0.4
		c1.2-0.1,2.8-0.1,2.8-0.1s0.9-0.3,1.8-0.5c1.2-0.2,2.4-0.4,3.7-0.8l0.8-0.1c0,0,4.5,0.5,5-0.7c0.2-0.6,0.7-1.2,1.1-1.8
		c2.4-1.2,5.1-2.9,8-5.2c-2.2,0.9-5.4,2.6-6.5,0.5c-0.4,1.4,0.2-0.9,0.2-1.1c-0.6,0.1-2-0.6-1.4-1.4c0.5,1,3,0.6,4.1,0
		c-0.3-0.8-1.3-1.2-1.4-2.8c1.3-1.1,1.8-3.2,1.1-5.3c0.2,0.5,1.4-0.2,0.7-0.5c-1.2,0.6,0.2-2.5-1.2-2.8c-0.4,0.2-0.3,0.7-0.9,0.7
		c0.1-0.5-0.3-0.5-0.5-0.7c-0.4-1.7,0.5-1.9-0.2-3c0.4,0.4,1-0.2,1.8,0c0.2-0.9,0.4-0.7,0.9-0.9c-0.2-0.7-1.1-0.6-0.9-1.6
		c-0.6,0-1.1,0-1.4,0.2c0.3-0.3,0.1-0.7-0.2-0.9c-0.2,1.8-1.9,0.8-2.1,2.3c0.2-1.1,0.6-2.2-0.5-3.2c0,0.3-0.3,0.4-0.5,0.5
		c0.1-0.4-0.7-1,0-1.1c-0.2,0.8,0.8,0.2,0.9,0c-0.3,0-0.4-0.3-0.5-0.5c0.4-0.2,0.4-0.8,0.9-0.9c-0.3,1,0.2,1.2,0.9,1.6
		c0.9-0.7,1.7-1.3,2.8-1.8c0.1-1-0.8-1-0.9-1.8c0.2,0.6-0.5,0.4-0.7,0.7c0.7-0.7-0.7-0.1-0.5-0.9c1.7,0.2,1.9-1.5,2.3-2.1
		c-0.4,0.6,0.8,0.7,0.7,0.2c-0.1,0-0.3-0.2,0-0.2c0.2-0.1,0.5,0,0.5-0.2c-0.4,0-0.5-0.2-0.5-0.7c-0.9,0.2-1-0.5-1.4-0.9
		c-0.3,0.4-2,1-3.5,0.5c0.8-0.7,0.2-1.4,0-2.5c1.9,0.3,3.4-1.8,2.3-3c-0.1,1.2-1.2,0-1.8,0.7c0.4-0.6-0.1-1.3,0.2-1.6
		c0.6,0.6,1.9,0.9,2.5,0.2c-0.7-0.2-0.8-0.7-0.5-1.1c0.4,0.2,0.7,0.8,0.9,0c-0.4-0.9-3.1-0.7-2.3-2.1c0.9,0.8,1.1-0.5,1.2-0.7
		c0.3,0,0.3-0.3,0.7-0.2c0.1,0.2,0,0.5,0.2,0.5c0-0.3,0.6-0.2,0.9-0.2c0.3-0.6,0.5-0.7,0.2-1.4c0.9,0,0.8-0.4,1.2-0.5
		c-0.2-0.4-0.7-0.3-0.7-0.9c-1.2,0-2.5,0.2-2.5-0.9c1,0,0-0.4,1.1-0.5c0.1-0.6-0.4-0.5-0.2-1.1c-0.6,0.3-1.3,0.2-1.8-0.2
		c-0.2-0.7,0.6-0.4,0.5-1.1c-0.7,0.3-0.6-1.2-0.9-0.5c0.7,0.4-0.7,0.7-1.1,0.7c0-0.3,0.4-0.5,0-0.7c-0.2,0.4-0.1,1.1-0.5,1.4
		c-1.2,0.4-1.8-0.2-3.2,0.2c0-0.3-0.3-0.3-0.2-0.7c1,0.4,1.5-0.9,0.9-1.4c-0.2,0.2-1.2-0.6-1.8-0.7c0-0.6,0.5-0.6,0.7-0.9
		c1.2,0.4,2.3-0.1,3.5-0.7c0-0.4,0.1-0.7,0.2-0.9c-1.9-1.1-1.6,0.3-3.2-0.5c0.6-0.8,0.9-0.9,2.1-1.4c0-0.4,0-0.8,0-1.1
		c-1-0.1-1.7,0-1.8,0.7c0.3-0.7-0.4-0.6-0.5-0.9c0-0.4,0.6-0.2,0.5-0.7c-0.5,0.1-0.9-0.1-0.9-0.5c0.5,0.5,0.5-0.1,0.2-0.5
		c0.3,0,0.9,0.1,0.9-0.2c-0.6-0.3-0.8-0.3-0.2-0.7c-1.3-0.1-1.5-1.2-2.5-1.6c0.8,0.1,0.3-1.1,0.9-1.1c-0.4-0.4-1-0.6-1.8-0.5
		c-0.5-1-0.9-0.7-1.2-1.6c-0.1,0.6-0.7,0.4-0.9,0c-0.1-0.7,0.5-0.7,1.1-0.7c0.1-0.3,0.3-0.6,0.5-0.9c-0.3-0.5-0.9-0.7-0.9-1.4
		c0.5-0.2,1-0.4,1.1-0.9c-1,0.2,0.3-0.9-0.7-0.9c-0.7,0.4-1.1,0.5-1.6,0.7c0,0.3,0,0.6,0,0.9c-0.9,0.3-1.1,0.2-2.1-0.2
		c-0.5,0.9-1.6,1-2.3,0.7c0.3-0.5,0.5-1,1.2-1.1c-0.7-0.8-0.1-1.4,0-2.3c-1-0.8-2.3,0.2-3.2-0.7c0.9,0.2,0.9-0.5,1.2-0.9
		c-0.8,0.1-0.9-1.1-0.2-1.1c0-0.6-0.4-0.5,0-0.9c-1.2-0.2-1.4,0-2.3,0.2c0.8-0.3,0.2,1.2,0,1.4c-0.2,0-0.3,0-0.5,0
		c0.3-1.5-1.1-0.9-0.9-1.8c-1.1-0.1-1.9,1.2-1.6,2.1c-0.7-0.4-0.7-0.4-1.6-0.2c0.1,0.5-0.4,1.7-1.4,0.9c0.2-1.7-0.1-2.5-0.5-3.9
		c-1.5,0.2-2.2-0.1-3.2,0.7c0-0.2,0-0.5,0-0.7c1.5-0.1,1-1,2.3-1.1c0.2-0.4-0.7-0.8,0-0.9c0.5,0.9,0.4-0.2,1.2-0.2
		c0,0.6,0,1.1-0.2,1.4c0.8-0.3,1.3-0.8,2.1-1.1c0,0.2,0.2,0.3,0.2,0.5c-0.4,0.5-1.1,0.6-1.6,0.9c0.7,0.8,1.2,0.8,2.3,0.9
		c0.1-1,0.7-0.6,0.7-1.4c0.5,0.9,2.2-1.3,2.8-0.2c0.9,0,1.4-1.2,0.9-1.8c0.3,0,0.5,0.4,0.7,0c-0.4-0.1-0.2-0.5,0-0.7
		c-1.1-0.8-1.8-0.4-3.2,0c0.3,0,0.7,0,0.7,0.2c-0.7,0.2-1.7,0.6-1.8-0.5c0.8,0.5,1.4-0.8,2.1-1.1c-0.3,0-0.1-0.3,0-0.5
		c-0.5-0.3-1.3-0.2-1.8-0.5c-0.1,0.9,0.6-0.2,0.7,0.7c-0.5,0.3-0.6-0.1-1.2,0.5c-0.1-0.3-1.1-1.6,0-1.6c0.1-0.7-0.8-0.6-0.2-1.1
		c-1.2,0.5-1.9-0.2-2.8-0.7c-0.3,0.6-1.2,0.3-1.4,0.2c1-0.1,0.7-1.1,0-1.4c0.8-0.5,1.4-1.1,0.7-2.1c0.5,0.4,0.5-0.2,0.9,0.2
		c-0.1-0.6,0.1-0.8,0.7-0.7c-0.1-0.9-0.2-1.6-1.2-1.6c0.1,1.5-2.3,0.5-2.3,1.8c0.2,0.1,0.5,0,0.5,0.2c-1.2,0.3-0.3-1.9,0.2-1.1
		c-0.3-1.3,0.2-0.5,0.7-1.6c-0.4,0.5,0,1.3,0.5,0.7c-0.5-0.1,0.3-0.7,0.5-0.2c-0.3-1.4-2.4-0.5-2.8-1.4c1.3-0.2,1.3-1.8,2.8-1.8
		c0-0.6-0.4-0.7,0-1.1c-0.9-0.3-0.6,0.7-1.2,0.7c-0.2-0.7-0.6-0.3-1.1-0.2c0.2-0.9-0.4-1-0.7-1.4c0.4,0.1,0.5-0.3,0.9-0.2
		c-1-0.5,0.2-1.4,0.2-1.4c-0.3-2.5-2.4-1.3-4.6-1.1c0.1,2.4-0.6,0.7-1.6,0.2c0.2-0.5,0.7-0.7,0.7-1.4c-1.1-0.6-1.4,0.7-2.5,0.7
		c0.5-0.6-0.2-1.3-0.7-0.7c0.3-0.1,0.8,0.7,0.2,0.7c0-0.5-0.2-0.7-0.7-0.7c-0.1,0.3-0.4,0.4-0.5,0.7c0.5,0,0.7,0.2,0.7,0.7
		c-0.7,0.1-0.5,0.2-1.2,0.7c-0.2-0.7-0.2-0.7,0-1.4c-1-0.3-1-0.1-1.8,0.2c0.1-0.6-0.7-0.9-0.2-1.6c-0.5,0-1.1,0.9-0.7,0
		c-1-0.1-0.6,1.1-0.5,1.6c-0.8-0.2-1.2,0.6-1.4-0.2c0.3-0.1,0.5-0.3,0.5-0.7c-0.5-0.2-0.6-0.8-1.2-0.9c-0.6,0.7-0.4,0.7-1.2,1.1
		c-0.3,0.7,0.7,0.2,0.5,0.9c-0.4-0.3-0.8-0.6-1.6-0.5c-0.5,2.8-1.6,0.2-4.4,1.8c-0.1-0.6-1.1-1.3-0.2-2.5c-0.5,0.1-0.5-0.3-0.7-0.5
		c0.1,0.9-0.1,0.5-0.7,0.5c-0.2,1-0.5,1.9-2.1,1.6c-0.1,1.1-1.5,1.4-2.1,0.7c0.6-0.6,0.1-1.2,0.7-2.1c-0.5-0.2-1.4-1-0.9-1.4
		c1,0.5,2.1,1.2,2.5,0.5c0.2,0.2,0.1,0.8,0.7,0.7c0-0.3,0.1-0.5,0.2-0.7c-0.4-0.5-2.8,0.2-2.1-0.7c-0.7,0.3-1,0.1-1.8,0
		c0.1-1.2-1.5-0.8-1.2-2.3c-1.3-0.2-1.1,1.1-1.6,1.6c0.1-1-0.9-0.8-0.9-1.6c0.3-0.1,0.4-0.3,0.9-0.2c0,0.5-0.6,0.3-0.5,0.9
		c1-0.3,0.9-1.1,0.5-1.8c-1.9,1-0.4,2.2-1.8,3.2c-0.1-0.1-0.9-0.6-0.9,0c0.3,0.5,0.6-0.3,0.7,0.2c0,0.2,0,0.3,0,0.5
		c-1-0.1-0.8-0.6-1.6,0c0.9-0.7-0.3-0.9,0.2-1.8c-1-0.3-1.7,0.2-2.5-0.7c-0.5,0.5-0.2,0.5-0.7,0c-0.2,1-0.3,1.3,0.2,1.4
		c0.1,0.7-1.1,0.2-1.1,0.7c0.9,0.2,0.5,0.5,0,0.9c1.1,0.3,1.3-1.4,2.1-0.7c-0.9,0.3-0.7,1.4-0.9,1.8c-0.2-1-1.9,0.1-2.1,0.7
		c0.4,0.1,1-0.7,1.1,0c-0.1,0.5-0.9,0.2-0.9,0.7c0.4,0,0.1,0.6,0.5,0.7c0-0.2,0.8-0.7,0.7-0.2c-0.3,0.7-0.2,1.8-1.2,1.8
		c-0.4-0.2-0.2-0.7-0.7-0.2c0.1-0.3,0.3-0.4,0.2-0.9c-0.5,0.1-0.5-0.3-0.7-0.5c-0.2,1-1.1,0-1.4-0.7c-0.8,0.7-1,2-2.1,2.5
		c0.3-0.8-1.4-0.2-1.4,0.2c1.2-0.2,1.5,0.1,2.5-0.7c-0.1,0.4-0.3,1,0,1.4c-0.1-0.8,0.7-0.7,0.9-1.1c-0.3-0.5-0.6,0.3-0.7-0.2
		c0.4-0.1-0.1-0.4,0.2-0.5c0.3,0.6,1.1,0.5,1.6,0.9c-2,0.4-1.5,1.5-2.5,2.1c-0.2-0.7-0.6-0.3-1.2-0.2c0.3,0.8-0.2,1,0.2,1.4
		c0.2-0.5,0.5-0.9,1.2-0.9c-0.1,1.3,0.9-0.5,0.9,0.2c-0.7,0.9,1.1,0.8,0.9,1.8c-0.4-0.1-1.4,0.3-1.4-0.2c0.3,0,0.7,0,0.7-0.2
		c-1.3,0.2-0.5-0.4-0.9-0.7c-1.3,0.3-3.2,1.9-4.6,1.6c-1.1-0.2-2.9-0.8-3.7,0.7c-0.3-0.1-1.2,0.3-1.1-0.2c0.1-0.3,0.2-0.5,0.5-0.7
		c0.1,0.2,2-0.6,1.8-0.7c-0.6,0-1-0.1-1.2-0.5c0.9,0.2,0.6-1.4,0.2-0.7c0.1,0,0.3,0,0.2,0.2c-0.6-0.4-0.9,0.4-1.4-0.2
		c-0.1-0.5,0.7-0.3,0.7-0.7c-0.3,0-0.1-0.3,0-0.5c-0.7-0.4-0.9-0.2-1.4-0.5c0.3-0.1,0.3-0.5,0.5-0.7c-0.9,0.1-0.9-0.6-1.8-0.5
		c-0.8,0.6-1.2,0.8-0.2,0.9c-1.1,0.8-1.3-0.2-2.3,0.5c0.6-1.1-0.7-1.3,0-2.3c-1.2-0.1-2-0.7-2.1-1.8c0-0.6,0.9-0.3,0.9-0.9
		c-0.4-0.8-1.1,0.1-1.4-0.2c0-0.7,2.3-0.6,3.9-1.4c-0.9-0.8,0.7-1.4-0.5-2.1c0,0.9-0.2,0.1-0.7,0.2c-0.2,1.1-1.5,1.2-1.8,2.1
		c-0.3-0.7-0.9,0.3-1.6,0c-0.2-0.8-0.7-0.1-1.4-0.7c0.2,0.6-0.5,0.5-0.5,0.9c1.4-0.1,1.1,1.7,0.9,2.1c-1-0.1-0.8,0.7-1.6,0.2
		c-0.1,1,1.1,0.3,1.2,0.7c0,0.2,0,0.3,0,0.5c-1-0.7-0.7,1.3-1.4,1.6c-0.2-0.5-1-0.5-1.4-0.9c1-0.3,0.2-1.6-0.2-1.8
		c0.4-0.4,1.7-0.7,2.1-0.5c0-1.5-0.2-2,0.2-3.4c-1.2-0.8-2,1.1-3,1.8c0.3-0.7-0.4-0.6-0.5-0.9c0.4-1.3,0-2,0.7-3.2
		c-0.8,0.2-1.7,0.5-2.1,1.2c-0.1-1.1-0.2,0.4-0.9,0c0.1-0.6-0.4-0.5-0.2-1.2c-0.5,0.1-0.9,0.3-1.4,0.5c-0.1,0.5,0,0.9,0.2,1.1
		c-0.4,0.4-1.1,0.6-1.4,1.1c0.4,0,0.6,0.2,0.7,0.5c-0.5,0.4-1.7,0.2-2.5,0.2c-0.6,1.6,0.5,2.2,0.5,3.2c-0.4,0.1-0.6,0.5-1.1,0.5
		c-0.4-0.7-0.1-1.2,0-2.1c-0.1-0.4-1.1,0-1.2-0.5c0.3-0.1,0.5-0.2,0.7-0.5c-0.4-0.6-1.6-0.5-1.8,0.2c0.5,0.2,1-0.8,1.2-0.2
		c-0.4,0.5-0.7,1.2-1.2,1.8c0.4,0.4,1.3-0.3,1.6,0.5c-0.3,0.1-0.6,0.4-0.7,0.7c0.3,0,0.7,0,0.7,0.2c-0.3,0-0.2,0.4-0.5,0.5
		c-0.2-1.3,0,0.6-0.7,0.2c0.4-0.4,0-0.6,0-1.1c-1.6,0.1-1.8-1.2-1.4-2.1c-0.9,0.3-0.7-0.5-0.7-1.1c-0.6-0.2-0.5-0.1-1.4-0.2
		c-0.2,0.6-0.1,1.1,0,2.1c-1.5,0.6-0.7-0.5-1.4-0.7c-0.2,0.6,0,0.8-0.9,0.2c0.1,1.1-0.8,1.3-1.1,2.1c0.5-0.1,0.9,0.1,0.9,0.5
		c0,0.8-0.8,1,0,1.4c-0.7-0.2-0.3,0.8-0.9,0.7c-0.1-0.9-0.8-0.6-1.4-0.5c0.2-0.7-0.6-0.5-0.7-0.9c0.2-0.1,0.5,0,0.5-0.2
		c-0.4-0.2-0.8,0.7-0.9,0c0.2-0.3,0.6-0.4,0.7-0.9c-0.7,0-0.4-0.8-1.4-0.5c-0.3,0.8-0.7,1,0.2,1.4c-1.7,0.1-0.9,0.2-2.1-0.7
		c0.4,0.8-0.8,1.3-1.2,0.7c0.1,0,0.3-0.2,0-0.2c-0.4,0.5,0,0.3,0,0.9c0.4,0,0.9-0.1,0.9,0.2c-0.2,0.6-0.3,1.7,0.2,2.1
		c-0.7,0.1-0.9,0.6-1.4,0.9c-0.7-1-2.1-0.2-2.8-0.9c0.3-0.4-0.2-1.4-0.2-1.6c-0.8,0.6-0.8-0.3-1.6,1.2c0.8,0.7,1,1.1,0.5,2.1
		c0.6,0,0.9,0.3,0.9,0.9c-1.1,0.6,0.2,1.1-0.5,1.8c0.6,0.3,0.7-0.9,0.9-0.2c0.2,0.8-0.5,0.9-1.1,0.9c0.2,0.7,0.2,0.4,0,1.2
		c0.4,0,0.6,0.2,0.7,0.5c-0.3,0.7-0.4,1.6-0.5,2.5c0.3-0.6,0.2-0.7,0.9-0.5c0-0.6-0.4-0.7,0.2-0.9c0,0.8,0.4,1-0.2,1.4
		c-0.4-0.7-1.4,0.3-0.7,0.7c0-0.3,0.4-0.3,0.7-0.2c0,0.3,0.1,0.5,0.2,0.7c-0.3,0.4-0.9,1.2-0.5,1.6c-0.7,0.2-1.1,0.5-1.6,0.9
		c-0.1,0.6,0.4,0.5,0.2,1.1c-0.4,0.1-1.1,1-1.6,0.2c0.6-0.4-1.2-1.1-1.1-0.9c0.1,0-0.1,1.5-0.7,0.5c-0.4,0.5,0,0.3,0,0.9
		c0.9,0.3,0.8-0.8,1.4-0.2c-0.6,0.7-0.2,1.1-0.5,2.3c-1.1,0.4-0.4,0.2,0,0.5c-0.7,0.1-0.8,0.9-1.6,0.9c-0.9-0.7-0.7-1-1.6-1.6
		c0.1,0,0.3,0,0.2-0.2c-0.7,0-0.6,0.8-1.4,0.7c0,0.4,0,0.8,0,1.1c0.6,0,0.6,0.5,0.9,0.7c-0.3,0.4-0.6,0.8-1.2,0.9
		c-0.2-0.8-2.2,0.2-1.8-1.1c-1.2,0,0,0.8-0.9,0.9c-0.3-1.2-0.4-0.2-0.9,0.2c0.8-0.2,0.4,0.5,0.2,0.7c0.4,0,0.5-0.3,0.9-0.2
		c-0.5,0.5-0.2,0.6-0.5,1.1c0.9,0,0.8,0.9,1.4,0.7c0.2,1.2-0.9,1.1-0.9,2.1c1.1-0.1,0.7,1.6,1.8,0.9c0.4,0.6,1.1,1.3,0.9,1.8
		c0.4-0.5,0.6-0.9,0.7-1.1c0.6,0.7,1.3,0.7,2.3,0.2c-0.1,0.4,0.3,0.5,0.5,0.7c-0.2,0.8-1.1,0.9-1.6,1.4c0.9-0.1-0.1,0.5,0.2,1.1
		c0.5,0.4,1.2,0,1.4,0.2c-0.2,0.5-0.6,0.8-1.4,0.7c-0.2-1-0.3-0.1-0.5,0c-0.8-0.5,0.5-1.4,0-1.6c-0.2,0.6-0.4-0.6-1.2-0.2
		c0,0.5-0.6,0.3-0.5,0.9c0.9-0.1,0.8,1,0.2,1.1c0.3,0,0.1,0.3,0,0.5c1-0.4,0.4,0.8,0.9,0.9c0.8-0.7,2,0.4,2.3,0.2
		c-0.1,0.3-0.3,0.5-0.7,0.5c0-0.4-0.2-0.6-0.5-0.7c0,1.2-1.1-0.1-1.4,0.9c0.4,0,0.6,0.2,0.7,0.5c-0.6,0.2-0.6,0.4-0.5,1.1
		c-1.8-1-2.8-1.5-5.3-0.7c-0.2-1-1.4-0.9-2.1-1.4c-0.7,1-1.7,0.6-3,0.5c0.7-1-1.5-2.1-2.5-1.4c0.1,0,0.1,1.2,0,1.1
		c-1.6-0.6-2.9,1.1-3-0.9c-0.9-0.5-1.1,0.6-1.8,0.9c0.5,0,0.7,0.2,0.7,0.7c-0.9,0.2-1.4,1.1-0.9,2.1c-1.2,0.1-0.9-1.9-2.3-1.1
		c0.7,0.4,0.8,1.3,0.7,1.8c-0.4-0.4-0.4,0.1-1.2,0c0.5,1.4,0.2,3,1.4,2.7c-0.3,0.7,0.4,0.6,0.5,0.9c-0.3,0.6-0.1,1.8-1.2,1.6
		c-0.1,0.4,0.3,1.4-0.5,1.1c0,0.7,0.8,0.4,0.5,1.4c0.4,0.2,0.8-0.7,0.9,0c-0.8,1.1-2.6,0.1-3.9,0.9c-0.1,0.7,0.5,0.9-0.2,1.1
		c0-0.7-0.4-1-0.9-1.1c-0.1,1-0.5-0.4-1.1,0.2c0.2,1.2,0,2,0.9,1.6c0.5,0.9-0.6,1.3,0.2,1.4c-0.1,0.4-0.4,0.5-0.9,0.5
		c0.4,0.6-0.4,1.1,0.5,1.4c0.2-0.3,0.2-0.9,0.7-0.9c0,1-0.4,1.4-1.4,1.4c-0.2,0.9,0,0.8-0.2,1.4c0.4,0.1,0.5-0.3,0.9-0.2
		c-0.2,0.6,0.3,0.6,0.2,1.2c-0.6-0.1-0.4,0.9-0.2,1.1c-0.2-0.7,0.9-0.3,0.9-0.2c-0.4,0.4,0,0.6,0,1.1C9,149,9,149.7,8.8,150
		c1.7,0.1,0.3,1.9,0.9,2.7c0.4-1,0.7-0.7,1.6-1.1c0-0.7,0.1-1.2,0.5-1.4c0.1,0.2,1.6-0.3,2.1-0.5c-1.6-0.9,2.6-2.7,1.8-0.9
		c0.8,0,1.8,0.1,0.9-0.5c0.3,0,0.5-0.1,0.7-0.2c-0.4,1.2,1.4,0.3,1.8,0.2c0,0.3-0.4,0.5,0,0.7c0.2-0.2,0.4-0.5,0.7-0.7
		c-0.6,1.1,1.3,0.7,1.4,1.8c-0.7-0.3-0.6,0.4-0.9,0.5c-1.5-0.8-3.8,0.1-4.8,0.7c-0.3,0.7,0.4,0.6,0.5,0.9c-1.2-0.3-2.6,0.6-3.7,1.1
		c-1-0.8-2.4,0-3.5,0.7c0.8,0-0.5,0.8,0.2,0.7c0.2-0.6,1.3,0.4,0.7,0.7c0.8,0.1,1.2-1.6,2.1-0.7c0.2,2-2.3,1.1-1.6,2.1
		c-0.4-0.5-1.1-0.8-2.1-0.7c-0.5,1.1-2.1,1.3-3,2.1c0.1,0.9,0,0.8,0.5,1.6c-0.3-0.6-1.2-0.2-1.4-0.5c0.1-0.3,0.4-0.4,0.5-0.7
		c-0.9-0.1-1.4,0.2-1.6,0.9c0.3,0,0.5,0.1,0.5,0.5c0.3,0,0.5-0.1,0.7-0.2c0.8,0.8-0.4,1.1,0.5,1.6c0.1-0.3,0.5-0.4,0.9-0.5
		c-0.3,0.9,0.4,0.8,0.7,1.1c-0.6,0.8-0.1,1.5-1.6,1.6c0.3-0.4-1.2-1-2.1-0.7c0.4,0.1,0,0.3-0.5,0.2c0.6,1.5-1.3,0.8,0,1.8
		c-1,0.1-0.8-0.7-1.6-0.2c0.7,0.7,0.2,0.3-0.5,1.1c0.9,0.1,2.3-0.1,1.6,1.6c1-0.2,0.6,0.5,0.2,0.7c1.4,0,1.3,0.1,2.1,0.5
		c0.2-1,0.9-0.7,0.5-1.8c0.3,0,0.5-0.1,0.7-0.2c0,1.9,0.7,0.2,1.2,1.4c-0.8,0.5-0.8,1-0.9,1.8c-0.9,0.1-2.3,0.9-2.1,1.4
		c-0.1-0.4,1.1-0.3,0.7,0.2c0.7,0.1,0.9-0.3,1.4-0.5c0,0.2,0.2,0.3,0.2,0.5c-1.1,0.2,0.3,0.3,0.2,0.5c-0.1,0.5-0.2,1-0.7,1.1
		c0.5-0.7-0.2-0.4-0.5,0c-0.3-2-1.9,0-2.5-1.4c-1.9,0.5-0.4,0.5-0.9,1.8c0.9,0.2,0.7-0.6,1.4-0.5c-0.2,0.5-0.8,0.6-0.9,1.1
		c0.8-0.1,0.7,0.7,1.1,0.9c0-0.5,0.2-0.7,0.7-0.7c0.1,1.1,1.3,0.1,1.8,0.2c0.3,1.1,0.8,1,0.7,2.3c-0.6,0.1-0.8,0.2-1.2,0.9
		c0.5,0,0.3,0.6,0.9,0.5c-0.1-0.9,0.3-1.4,1.1-1.4c-0.2-0.7,0.2-0.9,0.5-1.1c-1.1,0.2-0.7-0.8-0.2-0.9c-0.6-0.3-1,0.7-1.1,0
		c0.7,0.2,0.3-0.8,0.9-0.7c1.1-0.2,0.6,1.3,1.8,0.7c0,0.2,0,0.5,0,0.7c-0.4,0.1-1.4-0.3-1.4,0.2c0.6,0.1-0.3,0.4,0,0.9
		c0.8-0.4,1.3,0.2,1.8,0.7c-0.7,0.1,0.2,0.4-0.5,1.1c0.7,0,1.4,0,2.1,0c0,0.6,0.4,0.8,0.7,0.5c0.4,2.3,1.4-0.3,3,1.4
		c-1.1,0.6-1.4,0.1-2.8,0.7c-0.1,0.4,0.7,1,0,1.1c-0.1-0.4-0.1-1-0.7-0.9c0.4,1,0.5,1.3,0,2.1c0.7,0.3,1.2,0,1.6,0.2
		c-0.7,0.6-1.2,1.4-1.6,2.3c1-0.1,1,0.7,1.8,0.2c-0.5,0.9,1,0.9,0.7,1.6c0.1-0.5,0.9-0.2,0.9-0.7c-0.6,0.1-0.6-0.5-0.7-0.9
		c1.5-0.2,4.1-0.9,5.5-1.8c-0.4-0.1-0.6,0.3-0.7,0c0.7-0.2,0.8-1.5,0.9-1.8c-0.2,0.2-0.5,0.5-0.7,0.7c0-0.4-0.6-0.1-0.7-0.5
		c2.4-1.4,6.7-1.7,8.8-0.7c0,0.2-0.2,0.3-0.2,0.5c1-0.2,1.4,0.3,1.6,0.9c-0.4-0.4-0.9,0.4-1.1,0.9c0.4,0.1,0.6-0.3,0.7,0
		c-1.9,1.1-2.3,1.4-3.9,2.3c1.5,3.3-1.8,6.1-3.7,5.3c0.4,1.1,0.1,0.6-0.5,0.9c1.4,1.1,0.7,1.6,0.5,2.7c0,0.4,0.6,0.1,0.7,0.5
		c-0.4,0.1-0.5,0.4-0.5,0.9c0.3,0.2,0.5,0.6,0.9,0.7c0.1-0.8-1-0.4-0.7-1.4c0.3,0,0.5,0.4,0.7,0c-0.2-1.3,1.5-2.8,2.1-3.4
		c0.7,1.3-0.9,3-0.9,3.2c0.5-0.5,1,0.8,1.4,1.1c-0.3-0.1-0.4-0.4-0.7-0.5c0.2,0.6-0.5,0.5-0.5,0.9c0.9-0.4,0.1,1,0.7,0.9
		c-0.1-0.7,0.3-1.1,0.9-1.1c-0.3-1.5,1.9-2.1,2.8-1.6c-0.1-0.4,0.3-0.5,0.5-0.7c-0.7-0.2-0.1-1.1-0.5-1.1c0,0.3-0.4,0.2-0.7,0.2
		c0.6-0.5-0.4-0.6-0.5-1.1c0.3-0.1,0.4-0.3,0.9-0.2c0.1,0.4-0.3,0.6,0,0.7c0.4-1.1,1.7-0.2,2.1,0.2c0.3-0.8,1,0.1,1.4-0.7
		c0,0.3,0,0.9,0.2,0.5c0.1-0.8-0.7-0.7-0.7-1.4c1-0.3,0.6,0.8,1.2,0.9c0.2-1.1,1.1-1.2,1.6-1.4c-0.6-0.2,0.3-0.6-0.2-0.9
		c1,0,0.6-1.3,1.6-1.4c-0.2,1.1,0.3,0.7,0.5,0.9c-0.2,0.6-0.9,0.8-1.2,1.4c1-1.1,3.1-1.8,2.5-2.8c0.6,0,0.5-0.7,1.2-0.7
		c-0.2,1.3,1.1,0.6,1.8,1.8c-0.1,0-0.3,0.2,0,0.2c0.3-1.1,0.9-0.9,1.6-1.4c-0.5,0.6,0.2,1.1,0.5,0.7c-0.2-0.1-0.3-0.2-0.2-0.5
		c4.3,0.8,8.7-0.7,12.4-0.2c-0.7,0.3-0.9-0.1-1.4,0.2c-0.4,0.4,0.1,0.4,0,1.1c-1.6,0.3-0.5,2-2.1,2.3c0-0.5-0.2-0.7-0.7-0.7
		c-0.5,0.6,0,1.5,0.7,1.6c-0.1-1.3,0.3-0.1,0.9-0.2c0.3-0.7,1.1-0.9,1.8-1.1c-0.3-1.1,0.5-1,0.9-1.4c-0.3-0.3-1-0.2-0.9-0.9
		c0.9-0.1,0.8,0,1.6-0.5c0,0.4,0.2,0.6,0.5,0.7c0.1-0.4,0.4,0.1,0.5-0.2c-0.2-0.2,0.4-0.6-0.2-1.1c2-0.1,0,1.2,1.8,1.4
		c-1.2-0.4-0.5,1-1.4,0.9c0.3-0.6-0.8-0.7-1.6-0.2c0.2,0.7-0.2,0.8-0.2,1.4c0.6,0.3,0.7,0.8,1.2,0.7c-0.2,0.5-1.2,0.2-1.2,0.9
		c0.1,0.5,1.1,0.2,1.2,0.7c-0.9-0.2-1.1,0.3-1.8,0.2c0-0.3,0.1-0.5,0.2-0.7c-0.7-0.3-0.6,0.4-0.9,0.5c0-0.8-0.9-0.7-1.2-1.4
		c0,0.3,0,0.7-0.2,0.7c-1.9,0.1-1.9,2.1-3.5,2.5c0.4,0.1,0,0.3,0,0.7c0.4,0.2,0.8-0.7,0.9,0c-0.7,0.1-1.3,1.1-1.8,0.7
		c0.3,0.9-0.8,0.6-0.2,1.1c-0.2-0.2-1.3-0.5-1.4,0c0.6,0.3,0.7-0.1,0.9,0.2c-0.3,0.5-1.8,1.7-1.4,1.4c0.7,0,0.8-0.6,1.4-0.7
		c0.1,0.6,0.6,0.8,0.9,1.1c-0.9,0.5-1.9,1-2.3,2.1c0.8,0.4,0.6-0.2,1.4-0.2c0,0.3-0.4,0.5,0,0.7c0-0.9,1.2-0.7,1.6-1.1
		c-0.3,0.5,0.2,1.1,0.2,1.4c0.4-0.7,1.3,0.1,1.6,0.2c0.1-0.3,0.2-0.5,0.5-0.7c0.5-0.1,0.3,0.7,0.7,0.7c0.3-0.7,1.3-0.7,1.6-1.4
		c-0.9,0.2-0.7-0.5-1.2-0.7c0,0.6-0.4,0.7-0.7,0.9c0-0.6-1.1-0.3-0.5-0.9c-0.8-0.1-0.3,1.1-0.9,1.1c-0.1-0.3-0.9,0-0.9-0.5
		c1.2-0.5,1.1-1.9,2.8-1.6c-0.1-0.8,0-1.2-0.9-1.6c0.1-0.8,0.6,0,0.7-0.5c-0.1,0-0.3,0-0.2-0.2c-0.3,0-0.4-0.3-0.5,0
		c0.1,0,0.3,0.2,0,0.2c0-0.5-0.6-0.3-0.5-0.9c0.9,0,1-0.4,0.7-1.1c1.2,0.2,0.1-0.5,0.7-0.7c0.3,0,0.4,0.3,0.5,0.5
		c-0.1,0.3-0.3,0.5-0.7,0.5c0.3,0.6,0.4,1.1,0.5,1.4c0.1-0.8,0.9,0.6,0.9-0.2c-0.8-0.9,1.1-1,1.4-1.1c0.1,0.3,0.3,0.6,0.5,0.9
		c-0.3,0-0.5,0.1-0.7,0.2c-0.5-0.1-0.6-1.2-0.9-0.2c1.9,0.3-0.7,1.6,0.2,2.3c0-0.6,0.8,0,0.7,0.2c-0.3,0-1.3,0.4-0.7,0.5
		c0.7-0.7,0.7,0.5,1.1,0.7c-0.3-2.1-1-2.5,0.9-3.9c-0.2-0.2-0.9-0.1-0.7-0.7c0.9,0.2,1.1-0.9,1.8-0.2c0-0.6,0-1.1,0.5-1.1
		c0.1,0.3,0.5,0.3,0.7,0.5c0.3-0.7-0.7-0.2-0.5-0.9c1,0.6,0.4-0.7,1.1-0.9c-0.2-0.1-0.5,0-0.5-0.2c0.3,0,0.9-0.1,0.9,0.2
		c-0.2,0.3-0.3,0.6-0.2,1.1c0.7-0.1,0.9,0.3,1.4,0.5c0-0.5,0.2-0.7,0.7-0.7c0.6,0.3,0.9,0.6,0.2,0.9c0.9,0.4,0.5-0.2,1.2-0.5
		c1.3,0.7,2.1,1.3,3.9,0.9c0.2,0.7,0.2,0.4,0,1.1c-0.6-0.5-1.1,0.8-0.9,1.8c0.7-0.1,0.7-1,1.2-1.4c0.1,0.2,0.9,1,0.5,0.5
		c0.2-0.7-0.6-0.4-0.5-1.1c1,0.8,1.6-0.6,1.4-0.5c0.2-0.1,0.4,0.5,0.5,0.5c0.3-0.3-0.1-1.1,0.7-1.2c0.3,0.1,0.6,0.4,0.7,0.7
		c-0.3,0-0.6,0-0.9,0c0.2,1.2,1.1,0.6,1.6,0.9c-0.1,0-0.3,0.2,0,0.2c0.8-1-1.1-0.9-0.7-2.3c0.7-0.1,2.2-0.5,3-1.1
		c0.4,0.7,1.1,1.2,1.6,1.8c-0.8-0.2-1,0.3-1.4,0.5c-0.2-0.4,0.7-0.8,0-0.9c-0.9,0.6,0.5,1.1-0.5,1.8c0.9,0.8,1.4,0.6,2.1,1.4
		c0-0.3,0-0.7,0.2-0.7c1,1.2,2.2-0.1,3.2,1.1c-1.6,1.2-0.1,2,0.5,3c0.6,0.2,0.5-0.5,0.9-0.5c0,1.2,0.2,0.2,0.5,0.2
		c0.5,0.1,3.6,3,4.6,5.5c0.6,1.5,1.1,4.5,0.9,6.9L91.8,215z M47.9,201.6c0.3-0.6-0.1-0.7,0.2-0.9c0.3,0,0.7,0,0.7-0.2
		c-0.5,0.2-1-0.8-1.2-0.2C48.4,200.3,47.1,201.4,47.9,201.6L47.9,201.6L47.9,201.6z"/>
	<path class="st0" d="M100,206.9l0.6,0c0-1,0.1-1.8,0.1-1.8L100,206.9L100,206.9L100,206.9z M39.9,204.4l0.2-3.9l0-0.7l-16.7-0.4
		l0.2,5.5L39.9,204.4L39.9,204.4L39.9,204.4z M51.8,204.7l0-0.6c0-0.5,0-1.7,0.1-2.7l0-0.7l-5.9-0.5l0,0.8c0,1,0,2.2,0,3.5
		L51.8,204.7L51.8,204.7L51.8,204.7z M64.8,205.3c0-0.7,0.1-1.9,0.1-3l0-0.3l-6-0.7l-0.1,0.5l-0.5,3.1L64.8,205.3L64.8,205.3
		L64.8,205.3z M74.9,206.1c0-1.1,0-2.2,0-2.9l-3.7-0.4l0,0.1l0.1,2.1c0,0.2,0,0.5,0,0.8L74.9,206.1L74.9,206.1L74.9,206.1z
		 M82,206.3l-0.1-2.6l-2.1-0.1l0,2.8L82,206.3L82,206.3L82,206.3z M89.4,206.3l-0.1-2.1l0-0.4l-2.3,0.1l0,0.2c0,0.6,0,1.4,0,2.2
		L89.4,206.3L89.4,206.3L89.4,206.3z M96.6,206.6l0.1-1.9l0-0.2l-2-0.3l0,0.4l-0.2,1.9L96.6,206.6L96.6,206.6L96.6,206.6z
		 M99.9,209.9l0.6,0c0-0.3,0-1.5,0.1-2.6l-0.7-0.1l-0.1,0.3L99.9,209.9L99.9,209.9L99.9,209.9z M39.7,208.2l0.1-2.7l0-0.7l-16.3,0.4
		l0.1,3.3L39.7,208.2L39.7,208.2L39.7,208.2z M51.9,207.9l-0.1-2.1l0-0.8l-5.8-0.3l0,0.9l0,2.5L51.9,207.9L51.9,207.9L51.9,207.9z
		 M64.9,208.4c0-1,0-1.8-0.1-2.2c0-0.2,0-0.3,0-0.4c0,0,0-0.1,0-0.1l-6.5-0.3l-0.1,0.7l-0.3,2L64.9,208.4L64.9,208.4L64.9,208.4z
		 M74.9,209.1c0-0.5,0-1.5,0-2.6v-0.1l-3.5-0.3c0,0.1,0,0.2,0,0.3c0,0.7,0,1.6-0.1,2.5L74.9,209.1L74.9,209.1L74.9,209.1z
		 M82.1,209.4l-0.1-2.7l0-0.1l-2.2,0v0l0,2.7L82.1,209.4L82.1,209.4L82.1,209.4z M89.6,209.4l-0.1-2.5l0-0.3l-2.3,0l0,0.3
		c0,0.8,0,1.7,0,2.6L89.6,209.4L89.6,209.4L89.6,209.4z M96.5,209.7l0.1-2.6l0-0.2l-2.1-0.2l0,0.3l-0.2,2.5L96.5,209.7L96.5,209.7
		L96.5,209.7z M100,211.6l0.4,0l0.1-1.4l-0.6,0L100,211.6L100,211.6L100,211.6z M39.6,212.3l0.1-3.3l0-0.4l-16,0.2l0.2,4.9
		L39.6,212.3L39.6,212.3L39.6,212.3z M52.1,212l-0.1-2.8l0-0.9l-6,0.2l0,0.6c0,1.1,0,2.2,0,3L52.1,212L52.1,212L52.1,212z M65,212
		c0-0.8,0-1.7-0.1-2.5l0-0.7l-7-0.5l0,1l0.1,2.6L65,212L65,212L65,212z M75,211.9c0-0.9,0-1.7,0-2.2l0-0.2l-3.7-0.3l0,0.4
		c0,0.8-0.1,1.6-0.1,2.4L75,211.9L75,211.9L75,211.9z M82.2,211.8l-0.1-2l0-0.1l-2.3,0l0,0.1l0,2.1L82.2,211.8L82.2,211.8
		L82.2,211.8z M89.7,211.7l-0.1-1.8l0-0.2l-2.4,0v0.2c0,0.7,0,1.3,0,1.9L89.7,211.7L89.7,211.7L89.7,211.7z M96.4,211.6l0.1-1.6
		l0-0.1l-2.3-0.1l0,0.2l-0.2,1.6L96.4,211.6L96.4,211.6L96.4,211.6z M100.1,213.2l0.2,0l0.1-1.3l-0.4,0L100.1,213.2L100.1,213.2
		L100.1,213.2z M39.4,216.6l0.1-3.1l0-0.9L24,214v0l0.2,4.1L39.4,216.6L39.4,216.6L39.4,216.6z M52.3,215.5
		c-0.1-0.9-0.1-1.7-0.2-2.3c0-0.1,0-0.2,0-0.3l0-0.6l-6.2,0.1c0,0.4,0,0.7,0,1c0,0.4,0,0.6,0,0.7c0,0.1-0.1,0.9-0.1,2L52.3,215.5
		L52.3,215.5L52.3,215.5z M65.1,215c0-0.5,0-1.3-0.1-2.2l0-0.5l-6.9,0l0,0.7l0.1,2.1L65.1,215L65.1,215L65.1,215z M75,214.8
		c0-0.8,0-1.5,0-2.2l0-0.3l-3.8,0c0,0.1,0,0.2,0,0.4c-0.1,0.9-0.1,1.5-0.1,1.7c0,0.1,0,0.3-0.1,0.5L75,214.8L75,214.8L75,214.8z
		 M82.3,214.1l-0.1-1.8l0-0.2l-2.3,0v0.2l0,2L82.3,214.1L82.3,214.1L82.3,214.1z M89.7,213.6l-0.1-1.5v0l-2.6,0v0.1
		c0,0.6-0.1,1-0.1,1.1c0,0.1-0.1,0.2-0.1,0.5L89.7,213.6L89.7,213.6L89.7,213.6z M96.3,213.3l0.1-1.3l-2.4,0l-0.1,1.4L96.3,213.3
		L96.3,213.3L96.3,213.3z M100.2,214.3l0.1,0c0-0.2,0-0.5,0-0.8l-0.2,0L100.2,214.3L100.2,214.3L100.2,214.3z M39.2,220.8l0.1-3.4
		l0-0.4l-15.2,1.5l0.2,4.4L39.2,220.8L39.2,220.8L39.2,220.8z M52.6,218.7c-0.1-0.7-0.1-1.5-0.2-2.2c0-0.2,0-0.5-0.1-0.7l-6.6,0.5
		l-0.1,0.7c-0.1,0.9-0.2,1.9-0.2,2.9L52.6,218.7L52.6,218.7L52.6,218.7z M64.9,217.8c0.1-0.8,0.2-1.6,0.2-2.1c0-0.1,0-0.2,0-0.4
		l0-0.1l-6.9,0.2l0,0.7l0,0.2l0.1,1.9C60.4,218.1,62.9,217.9,64.9,217.8L64.9,217.8L64.9,217.8z M75,217.1c0-0.6,0-1.3,0-2l-4.1,0.1
		l0,0.2c-0.1,0.6-0.2,1.3-0.2,2.1C71.9,217.3,73.7,217.2,75,217.1L75,217.1L75,217.1z M82.3,216.4l-0.1-1.8l0-0.1l-2.4,0.2v0.1
		l0,1.9L82.3,216.4L82.3,216.4L82.3,216.4z M89.8,215.3l-0.1-1.2l0-0.2l-2.9,0.2c0,0.1,0,0.1,0,0.2c-0.1,0.4-0.1,1-0.2,1.5
		L89.8,215.3L89.8,215.3L89.8,215.3z M96.3,214.7l0-1v-0.1l-2.5,0.1l0,0.2l-0.1,1L96.3,214.7L96.3,214.7L96.3,214.7z M100.2,215.1
		L100.2,215.1l0.1-0.5l-0.1,0L100.2,215.1L100.2,215.1L100.2,215.1z M39,225l0-0.1l0.1-3.4l0-0.3l-14.9,2l0.1,2.4l0.1,1.4
		C28.3,226.5,34.5,225.6,39,225L39,225L39,225z M52.9,222.4c-0.1-0.7-0.2-1.6-0.2-2.5c0-0.3-0.1-0.5-0.1-0.8l-7.2,1.2l0,0.5
		c-0.1,1.1-0.2,2.2-0.3,3.2C46,223.6,49.1,223,52.9,222.4L52.9,222.4L52.9,222.4z M64.6,220.4c0.1-0.6,0.2-1.3,0.3-1.9
		c0-0.1,0-0.2,0-0.3c-2.1,0.1-4.6,0.3-6.6,0.4l0,0.7l0.1,2.2C60.7,221.1,62.8,220.7,64.6,220.4L64.6,220.4L64.6,220.4z M75,219
		l0-1.6c-1.4,0.1-3.2,0.3-4.5,0.4l0,0.1c-0.1,0.6-0.1,1.2-0.2,1.7L75,219L75,219L75,219z M82.4,218.2l0-0.2l0-1.3l-2.5,0.2l0,1.5v0
		L82.4,218.2L82.4,218.2L82.4,218.2z M89.9,217l0-0.1l-0.1-1.2l-3.2,0.5c0,0.4-0.1,0.8-0.1,1.2l0,0.2L89.9,217L89.9,217L89.9,217z
		 M96.2,215.9l0-0.9l-2.6,0.2l0,0.1l-0.1,1l0,0L96.2,215.9L96.2,215.9L96.2,215.9z M15.6,196.9l7.8,1.1l0,1l16.7,0.4l0.1-2l5.8,1.1
		l0,1.3l5.9,0.5L52,199l7.1,1.1l-0.1,0.9l6,0.7l0.1-1.3l6.2,1.4l0,0.6l3.7,0.4l0-0.7l4.8,0.7v0.4l2.1,0.1l0-1.1l5.2,0.9l0,0.4
		l2.3-0.1l-0.1-1.3l5.5,1.1l-0.1,0.6l2,0.3l0-0.4l3.9,0.4l3.4,0.4c0,0-0.4,5-0.6,5.6c-0.1,0.6,0,6.7,0,6.7l-3.5,0.2l-3.7,0l0-0.8
		l-2.7,0.5l-0.2,1.9l-3.4-0.5l0-0.8l-3.5,0.6c-0.1,1.1-0.1,1.9-0.1,1.9l-3.9-0.8l0-0.6l-2.5,0.3l0,0.8l-4.2-0.3l-5.4,0.6v0
		c-0.2,1.3-0.3,2.3-0.3,2.3l-0.3,0.9l-5.5-0.7c0,0,0.1-0.7,0.3-1.7l0,0c-1.8,0.3-3.9,0.6-6.1,1l0.1,3l-5.5,0c0,0-0.1-0.8-0.2-2.1
		c-4,0.7-7.3,1.3-7.5,1.5c0,0-0.2,0.1-0.3,0.1c-0.2,2-0.3,3.5-0.3,3.5l-5.8-0.5l0.1-2c-4.7,0.7-10.9,1.5-14.5,2l0.2,5.1l-7.6-0.9
		l-0.7-16.7L15.6,196.9L15.6,196.9L15.6,196.9z"/>
	<path class="st0" d="M198.7,84.7h-3l-5.5,47.7h6.5L198.7,84.7L198.7,84.7L198.7,84.7z M203.9,84.7h-3.4l-2,47.7h7.5L203.9,84.7
		L203.9,84.7L203.9,84.7z M208.7,84.7h-3l2,47.7h6.6L208.7,84.7L208.7,84.7L208.7,84.7z M205.6,82.6h2.9l-3.1-26.3h-0.9L205.6,82.6
		L205.6,82.6L205.6,82.6z M200.5,82.6h3.3l-1.1-26.3h-1L200.5,82.6L200.5,82.6L200.5,82.6z M195.9,82.6h2.8l1.1-26.3H199L195.9,82.6
		L195.9,82.6L195.9,82.6z M203.1,153.7l3.1-13.7l1.4,33.7L203.1,153.7L203.1,153.7L203.1,153.7z M196.9,181.4l5.3-23.6l5.3,23.6
		H196.9L196.9,181.4L196.9,181.4z M201.3,153.7l-4.7,20.8l1.5-35.1L201.3,153.7L201.3,153.7L201.3,153.7z M205.6,134.5l-3.4,15.1
		l-3.4-15.1H205.6L205.6,134.5L205.6,134.5z M213.6,153.5l1.2-15.9l4.4,38L213.6,153.5L213.6,153.5L213.6,153.5z M211.4,181.4
		l1.9-23.9l6.1,23.8l0.5-0.2l0,0.3H211.4L211.4,181.4L211.4,181.4z M212.3,153.6l-2.2,27.9h-0.4l-1.9-45.3L212.3,153.6L212.3,153.6
		L212.3,153.6z M213.8,134.5l-1.2,15l-3.8-15H213.8L213.8,134.5L213.8,134.5z M191.3,153.9l-1.5-18.9l-5.2,45.2L191.3,153.9
		L191.3,153.9L191.3,153.9z M193.4,181.4l-1.8-23.4l-6,23.4H193.4L193.4,181.4L193.4,181.4z M192.6,154l2,25.9l1.7-40.4L192.6,154
		L192.6,154L192.6,154z M191.1,134.5l1.2,15.3l3.9-15.3H191.1L191.1,134.5L191.1,134.5z M200.6,23.9l-14.1-10
		c0.4-0.4,0.7-0.8,1.1-1.2l6.3,5.9l2.1-1.5l-4.7-7.2c0.7-0.4,1.4-0.8,2.2-1.1l3.6,7.7l2.1-0.8l-1.4-8.3c0.6-0.1,1.3-0.2,1.9-0.3
		l0.9,8.6l2.8,0l1.4-8.4c0.7,0.1,1.5,0.3,2.2,0.5l-2.5,8.1l2.7,1.4l4.3-7.7c0.6,0.3,1.2,0.7,1.8,1.1l-5.3,7.3l1.7,1.9l7.2-6.1
		c0.2,0.3,0.5,0.5,0.7,0.8L205.9,23c0,0-0.1-0.1-0.1-0.1c-1.1-2.9-2.4-5.9-2.4-5.9c-1-0.1-2.6-0.4-2.6,0.4c0,1.5,0,2.9-0.1,4.1h0
		l0,0.2l0,0c0,0.6-0.1,1.1-0.1,1.6L200.6,23.9L200.6,23.9L200.6,23.9z M220.5,35.9l0.1-0.1l0,0l0,0c0.1-0.3,0.3-0.6,0.4-1l-9.5-3.7
		l0.5-2.1c4.7,0.6,7.7,0.8,10.2,0.9c0.1-0.7,0.2-1.7,0.2-2.4l-10.2,0l-0.3-2.3l9.9-2.7c-0.2-0.6-0.4-1.3-0.6-1.9l-9.1,3.3l-1.4-2.2
		l8.2-5.7c-0.3-0.4-0.6-0.8-0.9-1.2l0.2,0.2l-11.8,8.4c1,1.1,1.5,2.5,1.5,4c0,0.7-0.2,1.5-0.4,2.1L220.5,35.9L220.5,35.9L220.5,35.9
		z M207.7,47c1.2-0.3,2.3-0.8,3.4-1.4l-5.1-8.6l2.2-1.8l7.1,7.5c0.4-0.3,0.7-0.7,1.1-1c0.2-0.2,0.5-0.5,0.7-0.7l-8-6.7l1.6-1.7
		l9.2,4.6c0.1-0.2,0.3-0.5,0.4-0.7l-13-6.3c-0.9,2.1-1.7,2.2-2.1,2.4l-1.3,2l0.1,3.2l1.6-0.2L207.7,47L207.7,47L207.7,47z M192,28.3
		l-0.1-1.7l7-0.3l-0.4,2.2L192,28.3L192,28.3L192,28.3z M182.8,35.5l8.9-2.9L191,30l-9.6,0.7c-0.1-0.3-0.1-0.6-0.1-1l10.1-0.4l0.7,0
		l0,0l6.4,0.2l-0.5,2.9l0.5,0c0.1-0.3,0.2,0,0.6,0.4l-3.1,3.7L195,36l-6.3,7.1c-0.6-0.5-1.2-1-1.7-1.6l1-0.9l6.4-5.4l-0.1-0.1
		l0.2-0.2l-1.6-1.8l-0.1,0h0l-0.2,0.1l-8.7,4c-0.1-0.2-0.2-0.4-0.3-0.5l-0.1,0C183.2,36.3,183,35.9,182.8,35.5L182.8,35.5
		L182.8,35.5z M180,30.7l0.6-0.8c0,0.3,0.1,0.5,0.1,0.8L180,30.7L180,30.7L180,30.7z M190.7,25.6l0.4-1.8l-8.7-3.8
		c0.2-0.5,0.4-0.8,0.6-1.2l8.7,3.3l1.8-2.4l-7.5-5.2l0.1-0.1l14.5,10.3l0,0.5c-3.8,0.2-9.3,0.5-9.3,0.5L190.7,25.6L190.7,25.6
		L190.7,25.6z M181.2,24.9l3.6,0.6l-3.6-0.1C181.2,25.2,181.2,25.1,181.2,24.9L181.2,24.9L181.2,24.9z M180.6,24.8
		c0,0.1,0,0.1,0,0.2l-0.1-0.2L180.6,24.8L180.6,24.8L180.6,24.8z M199.9,48.6l-0.6,5.4h0.7l0.2-5.4C200.1,48.6,200,48.6,199.9,48.6
		L199.9,48.6L199.9,48.6z M199.6,47.4l0.4,0l0,0.4c0.1,0,0.2,0,0.3,0l0-1l0.3,0l2-13.4v0c-1.5,0.3-2.5,0-3.1-0.3l-3.1,3.6l1.1,0.6
		l-4.9,8.3c0.1,0.1,0.3,0.1,0.4,0.2c0.6,0.3,1.3,0.6,2,0.8l3.6-9.2l2.3,0.3L199.6,47.4L199.6,47.4L199.6,47.4z M189.3,54h6.7l-4.1-1
		l2.9-5.5c-0.9-0.3-1.7-0.7-2.5-1.1l-3.1,5.3l-5-3.4l4-4.6c-0.6-0.5-1.2-1.1-1.8-1.7l-5.1,4.6l-4.4-6.1l6.2-2.9
		c-0.3-0.6-0.7-1.3-0.9-1.9l-7.2,2.4l-0.5-2.5l-16.2,4.1l-1.7-24.6c0,0,12.4,2.5,18,3.8l0.6-1.9l6.6,2.9c0.2-0.4,0.3-0.8,0.5-1.2
		l-6.7-2.5l3.3-6.4l6.3,4.4c0.5-0.6,1-1.1,1.5-1.7c0.1-0.1,0.2-0.2,0.2-0.2l-5-4.5l5-4.5l3.9,6c0.7-0.4,1.5-0.8,2.3-1.2l-2.8-6
		l6.2-2l1.1,6.6c0.7-0.1,1.3-0.2,2-0.3l-0.7-6.9l7.2,0.1L205,6.3c0.8,0.1,1.6,0.3,2.3,0.5l2.2-6.9l5.9,2.6L212,8.7
		c0.7,0.4,1.3,0.7,1.9,1.2l4.1-5.7l5,5l-5.2,4.1c0.7,0.8,1.3,1.6,1.9,2.4l5.3-3.8l3.2,6.4l-6.1,2.2c0.2,0.6,0.4,1.3,0.6,1.9l6.1-1.5
		l0.4,6.7l-5.8,0c0,0.8,0,1.5-0.1,2.3c2.2,0.6,3.8,1,5.3,1.3c-0.1,3.3-1.3,6.1-1.3,6.1l-5.3-2.1c-0.3,0.9-0.7,1.7-1.2,2.5l5,2.5
		l-3.4,5.2l-4.4-3.7c-0.6,0.6-1.2,1.3-1.8,1.8l4.1,4l-5.7,4.8l-2.7-5.8c-1.2,0.6-2.4,1.1-3.7,1.4l1.4,6.1c-0.2,0-0.4,0.1-0.6,0.1
		h6.5v2.4h-7.9l19.4,157.9l-1.8,0.2l-4.6-30.9h-10.3l1.7,31.3l-0.9,0l-0.9,0l-1.7-31.4h-11.8l-1.7,31.4l-1.8-0.1l1.7-31.3h-10.3
		l-4.6,30.9l-1.8-0.2l19.4-157.9h-7.9V54L189.3,54z"/>
	<path class="st0" d="M153,169c0,0,4.3-0.5,7.4-0.6c3.1-0.1,15.2-2.1,17.1-2.4c1.9-0.3,12.9-1.2,12.9-1.2l10.3-1.2
		c0,0,2.1,4.5,2.9,5.4c0.8,0.9,7,11.3,7,11.3l5.3,7.6l18.3,6.5l7.6,2.6v0.6l-2.3-0.4v1l-0.9-0.3l-0.2,10.1v4.1l-0.1,2.8H136.8
		c0,0-0.9-15-0.9-16c0-1-0.4-6.6-0.4-6.6l-3.2,0.4c0,0,17.3-19.6,17.8-20.4C150.6,171.5,153,169,153,169L153,169L153,169z"/>
</g>
</svg>
