<?xml version="1.0" encoding="utf-8"?>
<!-- Generator: Adobe Illustrator 23.0.3, SVG Export Plug-In . SVG Version: 6.00 Build 0)  -->
<svg version="1.1" id="Layer_1" xmlns="http://www.w3.org/2000/svg" xmlns:xlink="http://www.w3.org/1999/xlink" x="0px" y="0px"
	 width="25px" height="25px" viewBox="0 0 25 25" style="enable-background:new 0 0 25 25;" xml:space="preserve">
<style type="text/css">
	.st0{fill:url(#SVGID_1_);}
	.st1{fill:url(#SVGID_2_);}
</style>
<linearGradient id="SVGID_1_" gradientUnits="userSpaceOnUse" x1="0" y1="12.5" x2="12.5" y2="12.5">
	<stop  offset="0" style="stop-color:#370000"/>
	<stop  offset="1" style="stop-color:#370000"/>
</linearGradient>
<path class="st0" d="M12.5,22C7.3,22,3,17.7,3,12.5C3,7.3,7.3,3,12.5,3V0C5.6,0,0,5.6,0,12.5S5.6,25,12.5,25V22z"/>
<linearGradient id="SVGID_2_" gradientUnits="userSpaceOnUse" x1="11.8792" y1="9.4842" x2="23.8023" y2="20.9448">
	<stop  offset="0" style="stop-color:#370000;stop-opacity:0"/>
	<stop  offset="0.5224" style="stop-color:#370000"/>
</linearGradient>
<path class="st1" d="M12.5,25C19.4,25,25,19.4,25,12.5c0-4.9-2.8-9.1-6.9-11.2L17,4.1c3,1.6,5,4.8,5,8.4c0,5.2-4.3,9.5-9.5,9.5V25z"
	/>
</svg>
