<?xml version="1.0" encoding="utf-8"?>
<!-- Generator: Adobe Illustrator 23.0.3, SVG Export Plug-In . SVG Version: 6.00 Build 0)  -->
<svg version="1.1" id="Layer_1" xmlns="http://www.w3.org/2000/svg" xmlns:xlink="http://www.w3.org/1999/xlink" x="0px" y="0px"
	 width="25px" height="25px" viewBox="0 0 25 25" style="enable-background:new 0 0 25 25;" xml:space="preserve">
<style type="text/css">
	.st0{fill-rule:evenodd;clip-rule:evenodd;fill:#B9A6A6;}
	.st1{fill:#B9A6A6;}
</style>
<g>
	<polygon class="st0" points="18.8,8.1 17.2,6.5 12.5,11.1 7.8,6.5 6.2,8.1 10.9,12.6 6.5,16.9 8.1,18.5 12.5,14.2 16.9,18.5 
		18.5,16.9 14.1,12.6 	"/>
</g>
<path class="st1" d="M12.5,3c5.2,0,9.5,4.3,9.5,9.5S17.7,22,12.5,22S3,17.7,3,12.5S7.3,3,12.5,3 M12.5,0C5.6,0,0,5.6,0,12.5
	S5.6,25,12.5,25S25,19.4,25,12.5S19.4,0,12.5,0L12.5,0z"/>
</svg>
