<?xml version="1.0" encoding="utf-8"?>
<!-- Generator: Adobe Illustrator 23.0.3, SVG Export Plug-In . SVG Version: 6.00 Build 0)  -->
<svg version="1.1" id="Logo" xmlns="http://www.w3.org/2000/svg" xmlns:xlink="http://www.w3.org/1999/xlink" x="0px" y="0px"
	 width="484px" height="260.1px" viewBox="0 0 484 260.1" style="enable-background:new 0 0 484 260.1;" xml:space="preserve">
<style type="text/css">
	.st0{fill:#FFFFFF;}
</style>
<g>
	<path class="st0" d="M215,43.5c-10.6-0.7-22.9-1.5-34-2.6c-12.3-1.2-23.5-2.5-34.5-3.8c-23.8-3-45.7-6.3-67.2-10.1
		c-0.7-0.1-1.2-0.8-1.1-1.6l0.1-0.4c0.1-0.7,0.7-1.2,1.4-1.2c0.1,0,0.1,0,0.2,0c21.3,3,43.9,5.5,67.3,7.6c10.9,1,22.2,1.8,34.4,2.5
		c9.7,0.6,20.3,1,33.2,1.4c0.7,0,1.3,0.6,1.3,1.3l0.4,5.5c0,0.4-0.1,0.8-0.4,1.1C215.9,43.3,215.5,43.5,215,43.5
		C215.1,43.5,215.1,43.5,215,43.5z"/>
	<path class="st0" d="M267.4,43.5c-0.4,0-0.8-0.2-1-0.5c-0.3-0.3-0.4-0.8-0.3-1.2l1.1-5.5c0.1-0.6,0.7-1.1,1.3-1.1
		c13-0.3,23.5-0.8,33.3-1.4c12.3-0.7,23.5-1.6,34.4-2.5c23.4-2.1,46-4.6,67.3-7.6c0.1,0,0.1,0,0.2,0c0.7,0,1.3,0.5,1.4,1.2l0.1,0.4
		c0.1,0.8-0.4,1.5-1.1,1.6c-21.5,3.8-43.5,7.1-67.2,10.1c-10.9,1.4-22.2,2.7-34.5,3.8C291.3,41.9,278.7,42.7,267.4,43.5
		C267.5,43.5,267.5,43.5,267.4,43.5z"/>
	<path class="st0" d="M119.6,57.1l-8.2-1.4l-1.2-8.2c-0.1-0.7-0.7-1.3-1.4-1.4c-0.7-0.1-1.4,0.2-1.7,0.9l-3.8,7.4L95,52.9
		c-0.7-0.1-1.4,0.2-1.8,0.9c-0.3,0.6-0.2,1.4,0.3,1.9l5.8,5.9l-3.8,7.4c-0.3,0.6-0.2,1.4,0.3,1.9c0.5,0.5,1.3,0.6,1.9,0.3l7.4-3.7
		l5.8,5.9c0.3,0.3,0.6,0.4,0.9,0.5c0.3,0.1,0.7,0,1-0.2c0.6-0.3,1-1,0.9-1.7l-1.2-8.2l7.5-3.7c0.6-0.3,1-1,0.9-1.7
		C120.9,57.8,120.3,57.2,119.6,57.1z"/>
	<path class="st0" d="M363.8,57.1l8.2-1.4l1.2-8.2c0.1-0.7,0.7-1.3,1.4-1.4c0.7-0.1,1.4,0.2,1.8,0.9l3.8,7.4l8.2-1.4
		c0.7-0.1,1.4,0.2,1.7,0.9c0.3,0.6,0.2,1.4-0.3,1.9l-5.8,5.9l3.8,7.4c0.3,0.6,0.2,1.4-0.3,1.9c-0.5,0.5-1.3,0.6-1.9,0.3l-7.5-3.7
		l-5.8,5.9c-0.3,0.3-0.6,0.4-0.9,0.5c-0.3,0.1-0.7,0-1-0.2c-0.6-0.3-1-1-0.9-1.7l1.2-8.2l-7.4-3.7c-0.6-0.3-1-1-0.9-1.7
		C362.5,57.8,363.1,57.2,363.8,57.1z"/>
	<path class="st0" d="M241.7,0c-6.2,0-16.1,21.9-16.1,30.7c0,8.9,7.2,16.1,16.1,16.1c8.9,0,16.1-7.2,16.1-16.1
		C257.8,21.9,247.9,0,241.7,0z M252.6,35.6c-1.5,1.4-3.2,2.2-4.8,3.1c-1.6,0.9-3,1.8-4,3.1c-1,1.3-1.6,3-2,4.8
		c0,0.1-0.1,0.1-0.2,0.1c0,0,0,0,0,0c-0.1,0-0.1-0.1-0.1-0.1c-0.4-1.8-1-3.5-2-4.8c-1-1.3-2.4-2.3-4-3.1c-1.5-0.9-3.3-1.7-4.8-3.1
		c-0.8-0.6-1.4-1.5-1.8-2.5c-0.2-0.5-0.2-1-0.3-1.5c0-0.5,0-1,0.1-1.5c0-0.1,0.1-0.1,0.1-0.1c0.1,0,0.1,0.1,0.1,0.1
		c0.3,1.9,1.4,3.2,2.8,4.1c1.4,0.9,3.1,1.7,4.8,2.6c1.6,1,3.3,2.2,4.4,4c0.1,0.2,0.2,0.5,0.3,0.7c-0.2-2.3-0.3-4.6-0.4-6.9
		c0-0.3,0-0.7,0-1c-0.3-0.7-0.6-1.4-1.1-2.1c-0.9-1.3-2.1-2.3-3.4-3.3c-1.3-1.1-2.7-2.4-3.5-4.1c-0.8-1.7-0.9-3.6-0.6-5.3
		c0-0.1,0.1-0.1,0.2-0.1c0.1,0,0.1,0.1,0.1,0.1c0.4,1.7,0.9,3.2,1.8,4.5c0.9,1.3,2.1,2.3,3.4,3.3c1.1,0.9,2.2,2,3.1,3.3
		c0-2-0.1-4-0.1-6c0-1.1,0-2.1,0-3.2c-0.2-0.4-0.3-0.8-0.5-1.2c-0.6-1-1.4-1.9-2.4-2.9c-0.9-1-2-2.2-2.5-3.6c-0.5-1.4-0.5-3-0.1-4.3
		c0-0.1,0.1-0.1,0.2-0.1c0,0,0.1,0.1,0.1,0.1c0.4,1.3,0.8,2.6,1.4,3.6c0.6,1,1.4,1.9,2.4,2.9c0.5,0.5,1.1,1.2,1.6,1.9
		c0-1.3,0-2.5,0.1-3.8c0.1-3.5,0.3-7.1,0.7-10.6c0-0.1,0.1-0.1,0.1-0.1c0.1,0,0.1,0.1,0.1,0.1c0.4,3.5,0.6,7.1,0.7,10.6
		c0.1,1.3,0.1,2.5,0.1,3.8c0.5-0.7,1-1.3,1.6-1.9c1-1,1.8-1.8,2.4-2.9c0.6-1.1,1-2.3,1.4-3.6c0-0.1,0.1-0.1,0.2-0.1
		c0,0,0.1,0.1,0.1,0.1c0.3,1.4,0.4,2.9-0.1,4.3c-0.5,1.5-1.5,2.7-2.5,3.6c-1,1-1.8,1.8-2.4,2.9c-0.2,0.4-0.4,0.8-0.5,1.2
		c0,1.1,0,2.1,0,3.2c0,2-0.1,4-0.1,6c0.8-1.3,2-2.4,3.1-3.3c1.3-1.1,2.5-2.1,3.4-3.3c0.9-1.3,1.4-2.8,1.8-4.5c0-0.1,0.1-0.1,0.2-0.1
		c0.1,0,0.1,0.1,0.1,0.1c0.3,1.7,0.2,3.6-0.6,5.3c-0.8,1.7-2.2,3-3.5,4.1c-1.3,1.1-2.5,2.1-3.4,3.3c-0.4,0.6-0.8,1.3-1.1,2.1
		c0,0.3,0,0.7,0,1c-0.1,2.3-0.2,4.6-0.4,6.9c0.1-0.2,0.2-0.5,0.3-0.7c1-1.8,2.7-3.1,4.4-4c1.7-0.9,3.3-1.7,4.8-2.6
		c1.4-0.9,2.5-2.2,2.8-4.1c0-0.1,0.1-0.1,0.1-0.1c0.1,0,0.1,0.1,0.1,0.1c0.1,0.5,0.1,1,0.1,1.5c-0.1,0.5-0.2,1-0.3,1.5
		C254,34.1,253.4,35,252.6,35.6z"/>
	<g>
		<path class="st0" d="M157,255.5c-0.8-0.1-1.3-0.8-1.2-1.5l2.6-25.3c0.1-0.6-0.4-1.1-1-1.2l-8.1-0.8c-0.8-0.1-1.3-0.8-1.2-1.5
			l0.7-6.7c0.1-0.7,0.7-1.2,1.4-1.2c0,0,28.7,2.9,28.7,2.9c0.4,0,0.7,0.2,0.9,0.5c0.2,0.3,0.3,0.6,0.3,1l-0.7,6.7
			c-0.1,0.7-0.7,1.2-1.4,1.2c0,0-5.9-0.6-8.4-0.8c-0.6-0.1-1.1,0.4-1.2,1l-2.5,25.3c0,0.4-0.2,0.7-0.5,0.9c-0.2,0.2-0.6,0.3-0.9,0.3
			C164.5,256.2,157,255.5,157,255.5z"/>
		<path class="st0" d="M181.7,257.8c-0.8,0-1.3-0.7-1.3-1.5l2-34.5c0-0.4,0.2-0.7,0.5-1c0.3-0.2,0.6-0.3,0.9-0.3
			c0,0,25.4,1.5,25.4,1.5c0.8,0,1.3,0.7,1.3,1.5l-0.4,7c0,0.7-0.7,1.3-1.4,1.3c0,0-12.4-0.7-15.8-0.9c-0.5,0-0.9,0.3-0.9,0.8
			l-0.1,2.6c0,0.5,0.3,0.9,0.8,0.9l11.8,0.7c0.4,0,0.7,0.2,1,0.5c0.2,0.3,0.4,0.6,0.3,1l-0.3,5.8c0,0.7-0.7,1.3-1.4,1.3
			c0,0-9-0.5-11.9-0.7c-0.5,0-0.9,0.3-0.9,0.8l-0.1,3.2c0,0.5,0.3,0.9,0.8,0.9l15.7,0.9c0.4,0,0.7,0.2,1,0.5c0.2,0.3,0.4,0.6,0.3,1
			l-0.4,7c0,0.7-0.7,1.3-1.4,1.3C207.1,259.3,181.7,257.8,181.7,257.8z"/>
		<path class="st0" d="M238.8,260c-0.6,0-1.1-0.4-1.3-1l-1.8-6.1c-0.1-0.3-0.4-0.6-0.7-0.6l-9.5-0.1c-0.3,0-0.7,0.2-0.8,0.5l-2,6
			c-0.2,0.6-0.7,1-1.3,1c0,0-7.4-0.1-7.4-0.1c-0.4,0-0.8-0.2-1.1-0.6c-0.3-0.4-0.3-0.8-0.2-1.2l10.3-34.4c0.2-0.6,0.7-1,1.3-1
			c0,0,12.5,0.2,12.5,0.2c0.6,0,1.2,0.4,1.3,1l9.3,34.7c0.1,0.4,0,0.9-0.2,1.2c-0.3,0.3-0.7,0.5-1.1,0.5
			C246.1,260.1,238.8,260,238.8,260z M227.9,243l4.9,0.1c0.3,0,0.5-0.2,0.4-0.5l-2.4-9.7c-0.1-0.3-0.5-0.3-0.6,0l-2.7,9.6
			C227.4,242.8,227.6,243,227.9,243z"/>
		<path class="st0" d="M279.6,259.5c-8,0-17.6-4.8-18.2-18.5c-0.3-6.6,1.6-11.8,5.7-15.5c4.4-3.9,9.6-4.5,11.6-4.6
			c0.3,0,0.6,0,0.9,0c5,0,8.8,1.8,10.6,2.9c0.6,0.4,0.8,1.1,0.6,1.7l-2.6,6.2c-0.2,0.4-0.4,0.6-0.8,0.8c-0.1,0.1-0.3,0.1-0.5,0.1
			c-0.2,0-0.5-0.1-0.7-0.2c-1.3-0.7-3.4-1.6-5.8-1.6l-0.5,0c-2.5,0.1-4.7,1.1-6.1,2.8c-1.5,1.7-2.2,4.1-2,7c0.3,5.7,3.3,9,8.5,9
			l0.6,0c2.6-0.1,4.7-1.2,6-2.1c0.2-0.2,0.5-0.2,0.8-0.2c0.1,0,0.2,0,0.3,0c0.4,0.1,0.7,0.4,0.9,0.7l3.1,5.9
			c0.3,0.6,0.1,1.4-0.4,1.8c-1.8,1.3-5.8,3.6-11.2,3.8C280.2,259.5,279.9,259.5,279.6,259.5z"/>
		<path class="st0" d="M311.7,257.4c-3.9,0-16.6-1.3-18-17.7c-0.7-8.3,2.4-13.2,5.2-15.9c4.2-4,9.2-4.8,11.2-5
			c0.5,0,1.1-0.1,1.7-0.1c3.9,0,16.5,1.3,18,17.7c1.3,14.2-8,20.1-16.3,20.8C312.9,257.4,312.3,257.4,311.7,257.4z M311.5,227.9
			c-0.2,0-0.4,0-0.7,0c-6.3,0.6-6.3,7.8-6.1,10.8c0.6,6.4,3.1,9.8,7.2,9.8c0.2,0,0.5,0,0.7,0c4.5-0.4,6.5-4.1,5.9-11
			C318.3,233.9,316.9,227.9,311.5,227.9z"/>
		<path class="st0" d="M336.9,254.7c-2.7,0-4.9-2-5.2-4.6c-0.4-2.9,1.7-5.6,4.6-5.9c0.2,0,0.4,0,0.6,0c2.7,0,4.9,2,5.2,4.7
			c0.3,2.9-1.7,5.5-4.6,5.9C337.3,254.7,337.1,254.7,336.9,254.7z"/>
	</g>
	<path class="st0" d="M137.2,241.3c-15.2-2.5-28.8-5.1-41.6-8c-7-1.6-14.2-3.3-21.3-5.2c-2.7-0.7-5.4-1.4-8.1-2.2l-0.4-0.1
		c-3.7-1-7.5-2.1-11.2-3c-0.7-0.2-1.2-0.9-1-1.6l0.1-0.4c0.1-0.7,0.7-1.1,1.4-1.1c0.1,0,0.2,0,0.2,0c3.9,0.7,7.8,1.5,11.5,2.3
		c2.9,0.6,5.7,1.2,8.6,1.8c7.1,1.4,14.3,2.7,21.4,3.9c12.8,2.1,26.4,3.9,41.6,5.4c0.4,0,0.7,0.2,0.9,0.5c0.2,0.3,0.3,0.7,0.3,1
		l-0.7,5.4c0,0.4-0.2,0.7-0.5,0.9c-0.2,0.2-0.5,0.3-0.8,0.3C137.3,241.3,137.2,241.3,137.2,241.3z"/>
	<path class="st0" d="M346,241.3c-0.3,0-0.6-0.1-0.8-0.3c-0.3-0.2-0.5-0.6-0.5-0.9l-0.7-5.4c0-0.4,0.1-0.7,0.3-1
		c0.2-0.3,0.6-0.5,0.9-0.5c15.2-1.5,28.8-3.3,41.6-5.4c7.1-1.2,14.3-2.5,21.4-3.9c2.9-0.6,5.7-1.2,8.6-1.8c3.7-0.8,7.6-1.6,11.5-2.3
		c0.1,0,0.2,0,0.2,0c0.7,0,1.2,0.5,1.4,1.1l0.1,0.4c0.1,0.7-0.3,1.4-1,1.6c-3.7,0.9-7.5,2-11.2,3l-0.5,0.2c-2.7,0.7-5.3,1.5-8,2.2
		c-7.1,1.9-14.3,3.6-21.3,5.2c-12.8,2.9-26.4,5.5-41.6,8C346.2,241.3,346.1,241.3,346,241.3z"/>
	<g>
		<g>
			<path class="st0" d="M235.4,208.8c-0.8,0-1.4-0.6-1.4-1.4v-78.9c0-0.8-0.6-1.4-1.4-1.4c-6.9-0.1-12.1-0.2-12.1-0.2
				c-0.8,0-1.3-0.6-1.3-1.4v-14.4c0-0.8,0.6-1.4,1.4-1.4h40.6c0.8,0,1.4,0.6,1.4,1.4v14.4c0,0.7-0.6,1.3-1.3,1.4
				c-2,0.2-5.1,0.3-9.1,0.3c-0.8,0-1.4,0.6-1.4,1.4l1,78.8c0,0.4-0.1,0.7-0.4,1c-0.3,0.3-0.6,0.4-1,0.4H235.4z M183.4,208.8
				c-0.4,0-0.7-0.2-1-0.4c-0.3-0.3-0.4-0.6-0.4-1l3.3-96.3c0-0.8,0.6-1.3,1.4-1.3h24.8c0.8,0,1.4,0.6,1.4,1.4V124
				c0,0.8-0.6,1.4-1.4,1.4h-10.2c-0.8,0-1.4,0.6-1.4,1.4l-0.1,24.3c0,0.4,0.1,0.7,0.4,1c0.3,0.3,0.6,0.4,1,0.4h10.3
				c0.8,0,1.4,0.6,1.4,1.4v11.7c0,0.4-0.2,0.7-0.4,1c-0.3,0.3-0.6,0.4-1,0.4c-0.2,0-10.4-0.4-10.4-0.4c-0.4,0-0.7,0.1-1,0.4
				c-0.3,0.3-0.4,0.6-0.4,1l-0.1,22.9c0,0.4,0.1,0.7,0.4,1c0.3,0.3,0.6,0.4,1,0.4h10.5c0.8,0,1.4,0.6,1.4,1.4v13.7
				c0,0.8-0.6,1.4-1.4,1.4H183.4z M299.8,208.8c-0.7,0-1.3-0.5-1.3-1.3L289,107.3c0-0.4,0.1-0.8,0.3-1c0.2-0.3,0.6-0.5,1-0.5
				c0,0,16-0.7,16.3-0.7c0.7,0,1.3,0.5,1.3,1.3l7.2,76.6c0.1,0.7,0.7,1.3,1.4,1.3c0,0,18.7-1.7,18.7-1.7c0.4,0,0.7,0.1,1,0.3
				c0.3,0.2,0.5,0.6,0.5,1l1.8,21.3c0,0.4-0.1,0.7-0.3,1c-0.2,0.3-0.6,0.5-1,0.5C337.3,206.6,301.2,208.7,299.8,208.8z M165.4,207.9
				c-12,0-26.5-2.3-26.6-2.3c-0.7-0.1-1.3-0.8-1.2-1.6l13.9-97.7c0-0.4,0.3-0.7,0.6-0.9c0.2-0.2,0.5-0.3,0.8-0.3
				c7.5,1.4,22.4,1.9,23,1.9c0.8,0,1.3,0.6,1.3,1.4v14.7c0,0.4-0.2,0.8-0.4,1c-0.3,0.2-0.6,0.4-1,0.4c-0.6,0-4.9-0.3-10.3-1
				c-0.1,0-0.1,0-0.2,0c-0.3,0-0.6,0.1-0.9,0.3c-0.3,0.2-0.5,0.6-0.5,0.9l-2.5,23.4c0,0.4,0.1,0.8,0.3,1c0.2,0.3,0.6,0.5,1,0.5
				l7.4,0.4c0.7,0,1.3,0.7,1.3,1.4V165c0,0.4-0.2,0.7-0.4,1c-0.3,0.2-0.6,0.4-1,0.4c-0.2,0-9.2-0.5-9.2-0.5c-0.7,0-1.3,0.5-1.4,1.2
				l-2.2,20.3c-0.1,0.7,0.4,1.4,1.2,1.5l8.2,1.1c0.7,0.1,1.2,0.7,1.2,1.4c0.2,14.3,0.2,15.6-0.4,16.2c-0.3,0.3-0.6,0.4-1,0.4
				L165.4,207.9z M350.1,204.5c-0.7,0-1.3-0.6-1.3-1.3l-8.8-96.5c-0.1-0.7,0.5-1.4,1.2-1.5c0,0,27.9-4.1,28-4.1
				c0.9,0,1.4,0.5,1.5,1.2l1.9,12.8c0.1,0.7-0.4,1.4-1.1,1.6l-11.3,2.1c-0.7,0.1-1.2,0.8-1.1,1.5l2.3,25c0.1,0.7,0.7,1.3,1.4,1.3
				c0,0,11.3-0.4,11.5-0.4c0.7,0,1.3,0.6,1.3,1.3l0.9,13c0,0.7-0.5,1.4-1.2,1.5l-10.9,1.1c-0.8,0.1-1.3,0.8-1.2,1.5l2.1,22.6
				c0.1,0.7,0.7,1.3,1.4,1.3c0,0,12.7-1.1,12.7-1.1c0.8,0,1.4,0.5,1.5,1.2l1.7,12.7c0,0.4-0.1,0.8-0.3,1.1c-0.2,0.3-0.6,0.5-1,0.5
				C381,202.6,351.3,204.4,350.1,204.5z M30.2,200.3c-7.1,0-24.1-3.2-30.1-32.4c-0.2-0.7,0.3-1.4,1-1.6l16.8-4.3c0.1,0,0.2,0,0.3,0
				c0.3,0,0.6,0.1,0.8,0.3c0.3,0.2,0.5,0.6,0.6,1c0.1,0.6,1.4,15,10.3,15c0.8,0,1.7-0.1,2.5-0.3c2.6-0.7,4.3-2,5.2-4.2
				c2.5-5.9-1.1-17.9-9.7-32.8C19,125.7,7.5,103.6,9.2,87.2C11,71.3,22.5,61.1,38.5,61.1c9.5,0,19.2,3.6,27.6,10.2
				c0.5,0.4,0.7,1.2,0.3,1.8l-7.5,12.8c-0.2,0.4-0.7,0.7-1.2,0.7l0,0c-0.5,0-0.9-0.2-1.2-0.6c-0.2-0.3-4.3-6-13-6
				c-0.9,0-1.9,0.1-2.8,0.2c-4.2,0.5-7.1,2.4-8.6,5.5c-2.4,4.8-2.7,15,9.7,36.7c16.1,28.3,20.2,46.2,14.4,61.8
				C52.7,193.2,41.3,200.3,30.2,200.3z M105.4,200.2c-0.6,0-1.2-0.4-1.3-1.1l-7.4-31.4c-0.1-0.6-0.7-1-1.3-1.1c0,0-0.1,0-0.1,0
				c-0.6,0-1.1,0.4-1.3,0.9l-10.6,28.7c-0.2,0.5-0.7,0.9-1.3,0.9l-9.1-1c-0.6-0.1-1.2-0.6-1.2-1.2L61.3,99.6c0-0.4,0.1-0.8,0.3-1.1
				c0.3-0.3,0.6-0.5,1-0.5c0,0,15.1-0.3,15.3-0.3c0.7,0,1.3,0.6,1.4,1.3l3.7,48.3c0,0.6,0.5,1.2,1.2,1.3c0.1,0,0.2,0,0.2,0
				c0.5,0,1.1-0.3,1.3-0.8l11.4-26.3c0.2-0.5,0.7-0.8,1.3-0.8c0.6,0,1.1,0.4,1.3,0.9l10.6,31.6c0.2,0.6,0.7,0.9,1.3,0.9c0,0,0,0,0,0
				c0.6,0,1.1-0.4,1.3-1l14.5-52.3c0.1-0.4,0.4-0.7,0.7-0.9c0.2-0.1,0.4-0.2,0.6-0.2c0.2,0,0.3,0,0.5,0.1l14.1,4.9
				c0.7,0.2,1.1,1,0.9,1.7l-27.3,92.8c-0.2,0.6-0.7,1-1.3,1H105.4z M390,198.9c-0.4,0-0.7-0.1-0.9-0.4c-0.3-0.3-0.4-0.7-0.4-1.1
				c0.1-2.9,0.6-67.7,0.9-101.5c0-0.8,0.6-1.4,1.4-1.4h5.1c0.5,0,0.9,0.3,1.2,0.7c17.6,29.2,45.3,93.8,45.6,94.5
				c0.2,0.4,0.1,0.8,0,1.2c-0.2,0.4-0.5,0.6-0.9,0.7l-14.5,3.5c-0.1,0-0.2,0-0.3,0c-0.6,0-1.1-0.4-1.3-1c-1.5-4.6-3.4-9.8-6.1-16.2
				c-0.2-0.5-0.7-0.9-1.3-0.9c-0.1,0-0.2,0-0.3,0l-11.4,2.7c-0.6,0.1-1.1,0.7-1.1,1.4l0.6,15.5c0,0.8-0.6,1.4-1.3,1.4
				C404.8,198,390.8,198.8,390,198.9z M405.5,145.7c-0.1,0-0.2,0-0.3,0c-0.6,0.1-1.1,0.7-1.1,1.3l-0.4,14.8c0,0.4,0.2,0.8,0.5,1.1
				c0.2,0.2,0.6,0.3,0.9,0.3c0.1,0,0.2,0,0.3,0l6.9-1.7c0.4-0.1,0.7-0.4,0.9-0.8c0.2-0.4,0.2-0.8,0-1.2c-1.9-4-4.1-8.5-6.6-13.1
				C406.5,146,406,145.7,405.5,145.7z M453.1,195.5c-0.7,0-1.2-0.4-1.3-1.1L423.2,70.9c-0.2-0.7,0.2-1.4,0.9-1.6
				c13.3-4.3,40.8-8.7,41-8.7c0,0,0,0,0.1,0c0.8,0,1.3,0.4,1.5,1l4.4,15.7c0.1,0.4,0.1,0.8-0.1,1.1c-0.2,0.3-0.5,0.6-0.9,0.7
				l-21.6,5.4c-0.7,0.2-1.2,0.9-1,1.7l7.2,31.2c0.2,0.6,0.7,1.1,1.4,1.1c0.1,0,0.2,0,0.3,0c8.9-1.8,17.1-3.4,17.1-3.4
				c0.1,0,0.1,0,0.2,0c0.4,0,0.7,0.1,0.9,0.2c0.3,0.2,0.5,0.5,0.6,0.9l3.3,18.4c0.1,0.7-0.3,1.4-1.1,1.6l-16,3.4
				c-0.4,0.1-0.7,0.3-0.9,0.6s-0.3,0.7-0.2,1.1l11.6,49.9c0.1,0.4,0,0.8-0.2,1.1c-0.2,0.3-0.5,0.5-0.9,0.6l-17.4,2.9L453.1,195.5z"
				/>
		</g>
		<g>
			<g>
				<path class="st0" d="M473.5,179.9c0-2.9,2.4-5.3,5.3-5.3c2.9,0,5.3,2.4,5.3,5.3c0,2.9-2.4,5.3-5.3,5.3
					C475.8,185.1,473.5,182.8,473.5,179.9z M474.6,179.9c0,2.3,1.9,4.2,4.2,4.2c2.3,0,4.2-1.9,4.2-4.2c0-2.3-1.9-4.1-4.2-4.1
					C476.4,175.7,474.6,177.6,474.6,179.9z M479.8,180.3l1.3,2.3h-1.3c-0.4-0.6-0.8-1.4-1.1-2.1h-0.8v2.1h-1.1v-5.4h2.3
					c0.9,0,1.6,0.7,1.6,1.6C480.7,179.4,480.4,180,479.8,180.3z M479,178.1h-1.1v1.4h1.1c0.4,0,0.6-0.3,0.6-0.7
					C479.7,178.4,479.4,178.1,479,178.1z"/>
			</g>
		</g>
	</g>
	<g>
		<g>
			<path class="st0" d="M146.7,87.4c-1.1,0-2.2-0.1-3.3-0.3c-4.4-0.7-8.4-2.9-11.1-6c-3.5-4-4.8-9.4-3.7-16
				c2.5-15.1,14.4-16.3,18-16.3c1.1,0,2.1,0.1,3.1,0.3c2,0.3,7.1,1.6,10.9,5.9c3.6,4.1,4.8,9.5,3.7,16.1
				C162,85.8,151.2,87.4,146.7,87.4z M147.1,57.9c-3.7,0-6.4,3.3-7.4,9.1c-0.5,3.2-0.4,5.8,0.5,7.8c0.9,2,2.5,3.3,4.8,3.6
				c0.4,0.1,0.9,0.1,1.3,0.1c1.4,0,5.7,0,7.2-9.3c0.3-1.9,0.5-4.7-0.3-7.1c-0.8-2.4-2.4-3.8-4.9-4.2
				C147.9,57.9,147.5,57.9,147.1,57.9z"/>
		</g>
		<g>
			<path class="st0" d="M187.8,92.2c-0.5-0.1-1-0.4-1.2-0.9c0,0-3.5-9.3-4.5-12.2c-0.2-0.5-0.6-0.8-1.1-0.9c0,0-2.1-0.2-2.4-0.2
				c-0.5,0-0.6,0.4-0.6,0.5s-1,11.2-1,11.2c0,0.4-0.2,0.7-0.5,0.9c-0.2,0.2-0.6,0.3-0.9,0.3c0,0-7.5-0.7-7.5-0.7
				c-0.8-0.1-1.3-0.8-1.2-1.5l3.4-34.4c0.1-0.7,0.7-1.3,1.4-1.3c0,0,15.9,1.6,15.9,1.6c7.2,0.7,11.7,6.2,11,13.3
				c-0.4,4.3-2.8,7.8-6.5,9.6l5.9,13.6c0.2,0.4,0.1,1-0.2,1.4c-0.3,0.4-0.7,0.6-1.1,0.6C196.5,93,187.8,92.2,187.8,92.2z
				 M179.1,68.7c-0.1,0.5,0.3,1,0.9,1l4.6,0.4c0.2,0,0.4,0,0.5,0c2,0,3.3-1.2,3.5-3.3c0.2-2-1.3-3.7-3.3-3.9c0,0-3-0.3-4.6-0.5
				c-0.5-0.1-1,0.3-1,0.9L179.1,68.7z"/>
		</g>
		<g>
			<path class="st0" d="M219.7,94.7c-8.9-0.4-19.1-5.8-18.6-20.1c0.5-12.7,10.3-18.5,19.2-18.5c0.3,0,0.6,0,0.9,0
				c6.8,0.3,10.8,2.6,12.5,3.9c0.5,0.4,0.7,1.1,0.4,1.7l-3.1,6c-0.2,0.4-0.5,0.6-0.9,0.7c-0.1,0-0.2,0-0.3,0c-0.3,0-0.5-0.1-0.8-0.2
				c-1.4-0.9-3.5-2-6.1-2.1l-0.5,0c-5.6,0-9.9,3.9-10.2,9c-0.1,2.7,0.7,5,2.2,6.6c1.5,1.5,3.6,2.4,6.1,2.4c0.7,0,1.5-0.1,2.3-0.2
				c0.2,0,0.6-0.1,0.6-0.7c0-0.6,0.3-7.7,0.3-7.7c0-0.4,0.2-0.7,0.4-1c0.3-0.2,0.6-0.4,0.9-0.4c0,0,7.4,0.3,7.4,0.3
				c0.8,0,1.4,0.7,1.3,1.4l-0.6,14.6c0,0.5-0.3,0.9-0.7,1.2c-1.8,0.9-6.5,3.1-12.1,3.1C220.3,94.7,220,94.7,219.7,94.7z"/>
		</g>
		<g>
			<path class="st0" d="M238.1,94.7c-0.4,0-0.8-0.2-1.1-0.5c-0.3-0.3-0.4-0.8-0.3-1.2l9.1-34.8c0.2-0.6,0.7-1,1.3-1
				c0,0,12.5-0.3,12.5-0.3c0.6,0,1.1,0.4,1.3,1l10.5,34.4c0.1,0.4,0.1,0.9-0.2,1.2c-0.3,0.4-0.7,0.6-1.1,0.6c0,0-7.4,0.1-7.4,0.1
				c-0.6,0-1.1-0.4-1.3-0.9l-1.9-5.6c-0.2-0.6-0.7-0.9-1.3-0.9l-8.6,0.2c-0.6,0-1.1,0.4-1.3,1l-1.7,5.7c-0.2,0.6-0.7,1-1.3,1
				C245.5,94.6,238.1,94.7,238.1,94.7z M251.7,77.6l4.2-0.1c0.4,0,0.7-0.4,0.6-0.9l-2.5-8.7c-0.1-0.4-0.8-0.4-0.9,0l-2.1,8.8
				C250.9,77.2,251.3,77.7,251.7,77.6z"/>
		</g>
		<g>
			<path class="st0" d="M277.2,93.6c-0.7,0-1.3-0.5-1.4-1.3L273,57.9c0-0.4,0.1-0.7,0.3-1c0.2-0.3,0.6-0.5,0.9-0.5
				c0,0,8.1-0.7,8.1-0.7c0.4,0,0.9,0.2,1.1,0.6l11.4,16.1c0.3,0.4,0.8,0.2,0.8-0.3l-1.3-16c0-0.4,0.1-0.7,0.3-1
				c0.2-0.3,0.6-0.5,0.9-0.5c0,0,7.5-0.6,7.5-0.6c0.7,0,1.3,0.5,1.4,1.3l2.8,34.5c0.1,0.8-0.5,1.4-1.3,1.5c0,0-8.1,0.7-8.1,0.7
				c-0.4,0-0.9-0.2-1.1-0.6l-11.4-15.5c-0.3-0.4-0.8-0.1-0.8,0.3l1.3,15.4c0,0.4-0.1,0.7-0.3,1c-0.2,0.3-0.6,0.5-0.9,0.5
				C284.7,93,277.2,93.6,277.2,93.6z"/>
		</g>
		<g>
			<path class="st0" d="M314.9,90.1c-0.3,0-0.6-0.1-0.8-0.3c-0.3-0.2-0.5-0.6-0.5-0.9l-4.4-34.3c-0.1-0.8,0.4-1.5,1.2-1.6l7.4-0.9
				c0.1,0,0.1,0,0.2,0c0.3,0,0.6,0.1,0.9,0.3c0.3,0.2,0.5,0.6,0.5,0.9l4.4,34.3c0.1,0.8-0.4,1.5-1.2,1.6l-7.4,0.9
				C315,90.1,315,90.1,314.9,90.1z"/>
		</g>
		<g>
			<path class="st0" d="M343.7,86.1c-4.6,0-15.4-1.6-17.9-16.2c-2.6-15,8-21,14.6-22.1c1.2-0.2,2.4-0.3,3.6-0.3
				c3.8,0,6.8,1.1,8.2,1.7c0.6,0.3,1,1,0.8,1.6l-1.8,6.4c-0.1,0.4-0.4,0.7-0.7,0.9c-0.2,0.1-0.4,0.1-0.6,0.1c-0.2,0-0.3,0-0.5-0.1
				c-1.1-0.4-2.7-0.9-4.6-0.9c-0.6,0-1.2,0-1.8,0.1c-2.5,0.4-4.5,1.7-5.7,3.5c-1.2,1.9-1.6,4.4-1.1,7.2c0.9,5.1,3.8,8,8.2,8
				c0.6,0,1.2-0.1,1.9-0.2c2.6-0.4,4.5-1.8,5.8-2.9c0.3-0.2,0.6-0.3,0.9-0.3c0.1,0,0.1,0,0.2,0c0.4,0,0.7,0.3,1,0.6l3.8,5.5
				c0.4,0.6,0.3,1.3-0.2,1.8c-1.7,1.5-5.3,4.3-10.7,5.2C345.9,86,344.8,86.1,343.7,86.1z"/>
		</g>
	</g>
</g>
</svg>
