<?xml version="1.0" encoding="utf-8"?>
<!-- Generator: Adobe Illustrator 23.0.3, SVG Export Plug-In . SVG Version: 6.00 Build 0)  -->
<svg version="1.1" id="Layer_2" opacity="0.3" xmlns="http://www.w3.org/2000/svg" xmlns:xlink="http://www.w3.org/1999/xlink"
	 x="0px" y="0px" width="1513px" height="742.7px" viewBox="0 0 1513 742.7" style="enable-background:new 0 0 1513 742.7;"
	 xml:space="preserve">
<style type="text/css">
	.st0{fill:url(#SVGID_1_);}
	.st1{fill:url(#SVGID_2_);}
	.st2{fill:url(#SVGID_3_);}
	.st3{fill:url(#SVGID_4_);}
	.st4{fill:url(#SVGID_5_);}
	.st5{fill:#FFFFFF;}
	.st6{fill:url(#SVGID_6_);}
	.st7{fill:url(#SVGID_7_);}
	.st8{fill:url(#SVGID_8_);}
	.st9{fill:url(#SVGID_9_);}
	.st10{fill:url(#SVGID_10_);}
	.st11{fill:url(#SVGID_11_);}
	.st12{fill:url(#SVGID_12_);}
	.st13{fill:url(#SVGID_13_);}
	.st14{fill:url(#SVGID_14_);}
	.st15{fill:url(#SVGID_15_);}
	.st16{fill:url(#SVGID_16_);}
	.st17{fill:url(#SVGID_17_);}
	.st18{fill:url(#SVGID_18_);}
	.st19{fill:url(#SVGID_19_);}
	.st20{fill:url(#SVGID_20_);}
</style>
<g>
	
		<linearGradient id="SVGID_1_" gradientUnits="userSpaceOnUse" x1="1026.0776" y1="-137.8052" x2="1060.099" y2="-137.8052" gradientTransform="matrix(-2.266907e-02 -0.9997 -0.9997 2.266907e-02 1155.9037 1127.6172)">
		<stop  offset="0" style="stop-color:#FFFFFF;stop-opacity:0"/>
		<stop  offset="1" style="stop-color:#FFFFFF"/>
	</linearGradient>
	<polygon class="st0" points="1287.3,64.3 1252.3,80.1 1253.1,99.1 	"/>
	
		<linearGradient id="SVGID_2_" gradientUnits="userSpaceOnUse" x1="969.8767" y1="-51.8411" x2="1104.6538" y2="-204.2831" gradientTransform="matrix(-2.266907e-02 -0.9997 -0.9997 2.266907e-02 1155.9037 1127.6172)">
		<stop  offset="0" style="stop-color:#FFFFFF;stop-opacity:0"/>
		<stop  offset="1" style="stop-color:#FFFFFF"/>
	</linearGradient>
	<polyline class="st1" points="1035.2,333.7 1252.3,122 1219.4,88.1 1001.8,301.4 	"/>
	
		<linearGradient id="SVGID_3_" gradientUnits="userSpaceOnUse" x1="917.411" y1="61.3069" x2="1163.1196" y2="61.3069" gradientTransform="matrix(-2.266907e-02 -0.9997 -0.9997 2.266907e-02 1155.9037 1127.6172)">
		<stop  offset="0.4672" style="stop-color:#FFFFFF;stop-opacity:0"/>
		<stop  offset="1" style="stop-color:#FFFFFF"/>
	</linearGradient>
	<polyline class="st2" points="951.4,229.3 1168.1,17.9 1193.2,56.9 976.5,268 	"/>
	
		<linearGradient id="SVGID_4_" gradientUnits="userSpaceOnUse" x1="891.5126" y1="56.3814" x2="1134.5702" y2="56.3814" gradientTransform="matrix(-2.266907e-02 -0.9997 -0.9997 2.266907e-02 1155.9037 1127.6172)">
		<stop  offset="0.4672" style="stop-color:#FFFFFF;stop-opacity:0"/>
		<stop  offset="1" style="stop-color:#FFFFFF"/>
	</linearGradient>
	<polyline class="st3" points="976.1,268.6 1193.2,56.9 1179.9,92.5 962.9,305.3 	"/>
	
		<linearGradient id="SVGID_5_" gradientUnits="userSpaceOnUse" x1="844.4052" y1="43.46" x2="1055.4045" y2="43.46" gradientTransform="matrix(-2.266907e-02 -0.9997 -0.9997 2.266907e-02 1155.9037 1127.6172)">
		<stop  offset="0.4672" style="stop-color:#FFFFFF;stop-opacity:0"/>
		<stop  offset="1" style="stop-color:#FFFFFF"/>
	</linearGradient>
	<polyline class="st4" points="1001.8,301.4 1219.4,88.1 1179.9,92.6 963.2,304.9 	"/>
	<polygon class="st5" points="1246.5,42.6 1287.3,64.3 1252.3,80.1 1252.3,122 1219.4,88.1 1179.9,92.6 1193.2,56.9 1168.1,17.9 
		1210.5,28.4 1235.4,0 	"/>
</g>
<g>
	
		<linearGradient id="SVGID_6_" gradientUnits="userSpaceOnUse" x1="543.8159" y1="-330.2576" x2="572.3815" y2="-330.2576" gradientTransform="matrix(0.2671 -0.9637 -0.9637 -0.2671 1027.557 1046.6388)">
		<stop  offset="0" style="stop-color:#FFFFFF;stop-opacity:0"/>
		<stop  offset="1" style="stop-color:#FFFFFF"/>
	</linearGradient>
	<polygon class="st6" points="1513,587.2 1481,591.5 1477,606.9 	"/>
	
		<linearGradient id="SVGID_7_" gradientUnits="userSpaceOnUse" x1="496.6275" y1="-258.079" x2="609.7913" y2="-386.075" gradientTransform="matrix(0.2671 -0.9637 -0.9637 -0.2671 1027.557 1046.6388)">
		<stop  offset="0" style="stop-color:#FFFFFF;stop-opacity:0"/>
		<stop  offset="1" style="stop-color:#FFFFFF"/>
	</linearGradient>
	<polyline class="st7" points="1245,742.7 1470.8,625.1 1452.7,589.9 1225.9,708.6 	"/>
	
		<linearGradient id="SVGID_8_" gradientUnits="userSpaceOnUse" x1="452.5754" y1="-163.0759" x2="658.8813" y2="-163.0759" gradientTransform="matrix(0.2671 -0.9637 -0.9637 -0.2671 1027.557 1046.6388)">
		<stop  offset="0.4672" style="stop-color:#FFFFFF;stop-opacity:0"/>
		<stop  offset="1" style="stop-color:#FFFFFF"/>
	</linearGradient>
	<polyline class="st8" points="1202.9,638.4 1428.4,521 1439.1,558.5 1213.7,675.6 	"/>
	
		<linearGradient id="SVGID_9_" gradientUnits="userSpaceOnUse" x1="430.8302" y1="-167.2115" x2="634.9102" y2="-167.2115" gradientTransform="matrix(0.2671 -0.9637 -0.9637 -0.2671 1027.557 1046.6388)">
		<stop  offset="0.4672" style="stop-color:#FFFFFF;stop-opacity:0"/>
		<stop  offset="1" style="stop-color:#FFFFFF"/>
	</linearGradient>
	<polyline class="st9" points="1213.3,676 1439.1,558.5 1419.8,583.9 1193.8,702.3 	"/>
	
		<linearGradient id="SVGID_10_" gradientUnits="userSpaceOnUse" x1="391.2771" y1="-178.0608" x2="568.4398" y2="-178.0608" gradientTransform="matrix(0.2671 -0.9637 -0.9637 -0.2671 1027.557 1046.6388)">
		<stop  offset="0.4672" style="stop-color:#FFFFFF;stop-opacity:0"/>
		<stop  offset="1" style="stop-color:#FFFFFF"/>
	</linearGradient>
	<polyline class="st10" points="1225.9,708.6 1452.7,589.9 1419.8,583.9 1194.1,702.1 	"/>
	<polygon class="st5" points="1485.5,559.9 1513,587.2 1481,591.5 1470.8,625.1 1452.7,589.9 1419.8,583.9 1439.1,558.5 1428.4,521 
		1460,539.8 1486.9,523 	"/>
</g>
<g>
	
		<linearGradient id="SVGID_11_" gradientUnits="userSpaceOnUse" x1="831.8682" y1="360.3683" x2="865.8896" y2="360.3683" gradientTransform="matrix(-0.9369 -0.3496 -0.3496 0.9369 1388.1699 42.5042)">
		<stop  offset="0" style="stop-color:#FFFFFF;stop-opacity:0"/>
		<stop  offset="1" style="stop-color:#FFFFFF"/>
	</linearGradient>
	<polygon class="st11" points="457.1,60.8 458.9,99.2 476.7,105.5 	"/>
	
		<linearGradient id="SVGID_12_" gradientUnits="userSpaceOnUse" x1="775.6674" y1="446.3324" x2="910.4445" y2="293.8903" gradientTransform="matrix(-0.9369 -0.3496 -0.3496 0.9369 1388.1699 42.5042)">
		<stop  offset="0" style="stop-color:#FFFFFF;stop-opacity:0"/>
		<stop  offset="1" style="stop-color:#FFFFFF"/>
	</linearGradient>
	<polyline class="st12" points="613.9,394.9 497.7,114.8 454,132.7 571.5,414 	"/>
	
		<linearGradient id="SVGID_13_" gradientUnits="userSpaceOnUse" x1="723.2017" y1="559.4803" x2="968.9103" y2="559.4803" gradientTransform="matrix(-0.9369 -0.3496 -0.3496 0.9369 1388.1699 42.5042)">
		<stop  offset="0.4672" style="stop-color:#FFFFFF;stop-opacity:0"/>
		<stop  offset="1" style="stop-color:#FFFFFF"/>
	</linearGradient>
	<polyline class="st13" points="485.8,434 369.8,154.4 415.4,145.6 531,425.1 	"/>
	
		<linearGradient id="SVGID_14_" gradientUnits="userSpaceOnUse" x1="697.3033" y1="554.5549" x2="940.3608" y2="554.5549" gradientTransform="matrix(-0.9369 -0.3496 -0.3496 0.9369 1388.1699 42.5042)">
		<stop  offset="0.4672" style="stop-color:#FFFFFF;stop-opacity:0"/>
		<stop  offset="1" style="stop-color:#FFFFFF"/>
	</linearGradient>
	<polyline class="st14" points="531.5,425.6 415.4,145.5 443.5,171 560.6,451.5 	"/>
	
		<linearGradient id="SVGID_15_" gradientUnits="userSpaceOnUse" x1="650.1959" y1="541.6335" x2="861.1952" y2="541.6335" gradientTransform="matrix(-0.9369 -0.3496 -0.3496 0.9369 1388.1699 42.5042)">
		<stop  offset="0.4672" style="stop-color:#FFFFFF;stop-opacity:0"/>
		<stop  offset="1" style="stop-color:#FFFFFF"/>
	</linearGradient>
	<polyline class="st15" points="571.5,414 454,132.7 443.6,171.1 560.4,451.1 	"/>
	<polygon class="st5" points="421.9,90.7 457.1,60.9 458.8,99.2 497.7,114.8 454,132.7 443.6,171.1 415.4,145.5 369.8,154.4 
		395.3,118.8 378.2,85.2 	"/>
</g>
<g>
	
		<linearGradient id="SVGID_16_" gradientUnits="userSpaceOnUse" x1="1019.5896" y1="539.6662" x2="1051.0516" y2="539.6662" gradientTransform="matrix(-0.8776 0.4793 0.4793 0.8776 702.3344 -718.8006)">
		<stop  offset="0" style="stop-color:#FFFFFF;stop-opacity:0"/>
		<stop  offset="1" style="stop-color:#FFFFFF"/>
	</linearGradient>
	<polygon class="st16" points="30.8,244.3 58.6,266.3 73.9,257.6 	"/>
	
		<linearGradient id="SVGID_17_" gradientUnits="userSpaceOnUse" x1="967.6165" y1="619.1635" x2="1092.2548" y2="478.1891" gradientTransform="matrix(-0.8776 0.4793 0.4793 0.8776 702.3344 -718.8006)">
		<stop  offset="0" style="stop-color:#FFFFFF;stop-opacity:0"/>
		<stop  offset="1" style="stop-color:#FFFFFF"/>
	</linearGradient>
	<polyline class="st17" points="359.2,336.9 93.1,248.6 79.1,290 346.9,378.1 	"/>
	
		<linearGradient id="SVGID_18_" gradientUnits="userSpaceOnUse" x1="919.0977" y1="723.7996" x2="1146.3224" y2="723.7996" gradientTransform="matrix(-0.8776 0.4793 0.4793 0.8776 702.3344 -718.8006)">
		<stop  offset="0.4672" style="stop-color:#FFFFFF;stop-opacity:0"/>
		<stop  offset="1" style="stop-color:#FFFFFF"/>
	</linearGradient>
	<polyline class="st18" points="309,450.2 43.3,362 64.7,324.8 330.1,413.1 	"/>
	
		<linearGradient id="SVGID_19_" gradientUnits="userSpaceOnUse" x1="895.1475" y1="719.2447" x2="1119.9205" y2="719.2447" gradientTransform="matrix(-0.8776 0.4793 0.4793 0.8776 702.3344 -718.8006)">
		<stop  offset="0.4672" style="stop-color:#FFFFFF;stop-opacity:0"/>
		<stop  offset="1" style="stop-color:#FFFFFF"/>
	</linearGradient>
	<polyline class="st19" points="330.8,413.1 64.7,324.7 99.6,320.5 366.5,408.4 	"/>
	
		<linearGradient id="SVGID_20_" gradientUnits="userSpaceOnUse" x1="851.5839" y1="707.2953" x2="1046.7103" y2="707.2953" gradientTransform="matrix(-0.8776 0.4793 0.4793 0.8776 702.3344 -718.8006)">
		<stop  offset="0.4672" style="stop-color:#FFFFFF;stop-opacity:0"/>
		<stop  offset="1" style="stop-color:#FFFFFF"/>
	</linearGradient>
	<polyline class="st20" points="346.9,378.1 79.1,290 99.6,320.5 366.1,408.3 	"/>
	<polygon class="st5" points="30.3,287 30.8,244.3 58.6,266.3 93.1,248.6 79.1,290 99.6,320.5 64.7,324.7 43.3,361.9 33.9,322.6 
		0,314.2 	"/>
</g>
</svg>
