<?xml version="1.0" encoding="utf-8"?>
<!-- Generator: Adobe Illustrator 23.0.3, SVG Export Plug-In . SVG Version: 6.00 Build 0)  -->
<svg version="1.1" xmlns="http://www.w3.org/2000/svg" xmlns:xlink="http://www.w3.org/1999/xlink" x="0px" y="0px" width="967.9px"
	 height="481.8px" viewBox="0 0 967.9 481.8" style="enable-background:new 0 0 967.9 481.8;" xml:space="preserve">
<style type="text/css">
	.st0{opacity:0.5;fill:url(#SVGID_1_);}
	.st1{opacity:0.5;fill:url(#SVGID_2_);}
	.st2{fill:#FFFFFF;}
	.st3{fill:#370000;}
	.st4{font-family:'FaraoBlackOT';}
	.st5{font-size:68px;}
	.st6{fill:#D90B0D;}
</style>
<g id="Layer_2">
	<linearGradient id="SVGID_1_" gradientUnits="userSpaceOnUse" x1="486.5668" y1="486.9454" x2="486.5668" y2="97.7489">
		<stop  offset="0.2509" style="stop-color:#FFFFFF;stop-opacity:0"/>
		<stop  offset="0.9437" style="stop-color:#FFFFFF"/>
	</linearGradient>
	<path class="st0" d="M353.5,479.8c0,0.9,0.7,1.6,1.6,1.6h8.5c0.9,0,1.6-0.7,1.6-1.6l1.5-2.1c0.2,0.5,0.6,0.8,1.1,0.9l0.9,1.9
		c0.3,0.6,0.8,0.9,1.4,0.9h2.5c0.7,0,1.3-0.4,1.5-1.1c0.1-0.3,0.2-0.7,0.3-1c0.1,0.4,0.3,0.8,0.4,1c0.2,0.6,0.8,1.1,1.5,1.1h2.5
		c0.6,0,1.2-0.4,1.5-1l1.6-3.8c0,0,0.1,0.1,0.1,0.1c0.9,2.9,3.6,4.9,6.9,4.9c3.6,0,6.7-2.7,7.1-6c0,0,0,0.7,0,0.7h0.7v0.8
		c0,0.8,0.6,1.5,1.5,1.6v1.2c0,0.9,0.7,1.6,1.6,1.6h2.4c0.3,0,0.6-0.1,0.8-0.2c0.6,0.2,1.3,0.4,2.1,0.4c3.3,0,5.5-1.9,5.5-4.7
		c0-0.2,0-0.4,0-0.5h0.1l1.8,4c0.3,0.6,0.8,0.9,1.4,0.9h2.5c0.7,0,1.3-0.4,1.5-1.1c0.1-0.3,0.2-0.7,0.3-1c0.1,0.4,0.3,0.8,0.4,1
		c0.2,0.6,0.8,1.1,1.5,1.1h2.5c0.6,0,1.2-0.4,1.5-1l1.6-3.8c0.7,3.1,3.3,5.1,6.8,5.1c2.3,0,4-0.9,5.2-2.8c1.2,1.7,3.3,2.8,5.8,2.8
		c2.5,0,4.4-1.1,5.6-3.3c0.6,2.2,2.8,3.4,4.9,3.4c2.5,0,5.1-1.6,5.1-4.6v-0.7h1.9c0.7,3,3.3,5.3,6.4,5.3c1.4,0,2.7-0.3,3.7-0.9
		c0.3,0.3,0.7,0.6,1.2,0.6h6.4c0.1,0,0.2,0,0.2,0c0.1,0,0.1,0,0.2,0h5.8c0.4,0,0.9-0.2,1.1-0.5c0.8,0.5,1.8,0.8,2.9,0.8
		c1.2,0,2.2-0.4,3-1c0.6,0.6,1.5,0.9,2.5,0.9c0.6,0,1.3-0.1,1.8-0.4c0.2,0.1,0.5,0.2,0.8,0.2h6.4c0.1,0,0.2,0,0.2,0
		c0.1,0,0.1,0,0.2,0h5.8c0.7,0,1.3-0.5,1.5-1.1c1.1,0.9,2.5,1.4,4.1,1.4c2.2,0,4-0.7,5.2-2.2c1.2,1.4,3.1,2.2,5.3,2.2
		c1.8,0,3.4-0.6,4.5-1.8v0.1c0,0.9,0.7,1.6,1.6,1.6h2.4c0.3,0,0.6-0.1,0.8-0.2c0.6,0.2,1.3,0.4,2.1,0.4c3.2,0,5.4-1.8,5.5-4.6
		c0.6-0.8,1-1.7,1.1-2.8c0.2-0.2,0.3-0.4,0.5-0.7c0.3,0.4,0.7,0.7,1.3,0.7h0.3v2.8c0,3,2.6,4.6,5.1,4.6c1.9,0,3.7-0.8,4.6-2.5
		c1.3,1.5,3.3,2.4,5.5,2.4c3.4,0,6.3-2.4,7.1-5.4c0.7-0.8,1.2-1.8,1.5-2.8c0,0,0,0,0,0c0.3,0.5,0.8,0.9,1.4,0.9h0.1l2.8,6.1
		c0.3,0.6,0.8,0.9,1.4,0.9h2.5c0.7,0,1.3-0.4,1.5-1.1c0.1-0.3,0.2-0.7,0.3-1c0.1,0.4,0.3,0.8,0.4,1c0.2,0.6,0.8,1.1,1.5,1.1h2.5
		c0.6,0,1.2-0.4,1.5-1l0.8-1.9c0.1,0,0.3-0.1,0.4-0.2v1.5c0,0.9,0.7,1.6,1.6,1.6h6.5c0.1,0,0.1,0,0.2,0c0.1,0,0.1,0,0.2,0h6.4
		c0.1,0,0.2,0,0.2,0c0.1,0,0.1,0,0.2,0h5.8c0.6,0,1.2-0.4,1.4-0.9c0.6,0.7,1.5,1.2,2.5,1.2c1.7,0,3.1-1.3,3.3-2.9
		c0,0,347.8-417.8,348.4-418.9c2.5-2.2,4.1-5.4,4.1-9c0-3.3-1.3-6.3-3.5-8.4c0.1-0.4,0.1-0.7,0.1-1.1c0-6.2,1.2-12.1,2.2-17.4
		c0.8-4.1,1.5-7.7,1.5-10.8c0-7.3-5.4-12.8-12.6-12.8c-4.9,0-9,2.6-11,6.6c-0.9,0.9-1.6,1.9-2.2,3.1c-0.9,0.9-1.6,1.9-2.2,3
		c-0.9,0.9-1.6,1.9-2.2,3.1c-0.3,0.3-0.7,0.7-1,1.1c-3-2.5-7.1-3.8-12.1-3.8c-2.5,0-6.6,0.4-10.4,2.8c-1-0.8-2.2-1.3-3.6-1.3h-15.3
		c-0.2,0-0.3,0-0.5,0c0.1-0.6,0.2-1.3,0.2-2c0-6.6-5.5-12-12.4-12c-5.1,0-9.5,3.1-11.4,7.4c-0.8,0.9-1.4,1.9-1.9,3
		c-0.8,0.9-1.4,1.9-1.9,3c-0.1,0.1-0.2,0.3-0.4,0.5h-16.6c-1.3,0-2.4,0.4-3.4,1.1c-1-0.7-2.1-1.1-3.4-1.1h-7.5
		c-1.3,0-2.6,0.5-3.6,1.2c-1-0.8-2.2-1.2-3.6-1.2h-21.5c-2.8,0-5.1,2-5.6,4.7c-0.8,0.8-1.3,1.8-1.5,3c-0.8,0.8-1.3,1.8-1.5,3
		c-0.8,0.8-1.3,1.8-1.5,3c-0.5,0.5-0.8,1-1.1,1.6c-3.4-9.9-13.2-16.8-25-16.8c-7.1,0-13.5,2.6-18.2,6.7c-0.3-2.9-2.7-5.2-5.7-5.2
		h-8.5v-4.7c0-3.2-2.6-5.7-5.7-5.7h-5.7c-1.5,0-3,0.6-4.1,1.7c-1,1-1.5,2.3-1.6,3.6c-0.7,0.9-1.1,1.9-1.2,3c-0.7,0.9-1.1,1.9-1.2,3
		c-0.6,0.7-0.9,1.6-1.1,2.5c-1,0.4-2.1,0.6-3.6,0.6c-1.5,0-3,0.6-4.1,1.6c-1,1-1.6,2.3-1.7,3.7c-0.6,0.9-1,1.9-1.1,3
		c-0.6,0.9-1,1.9-1.1,3c-0.6,0.9-1,1.9-1.1,3c-0.6,0.9-1,1.9-1.1,3c-0.6,0.9-1,1.9-1.1,3c-0.1,0.1-0.2,0.2-0.2,0.3
		c-0.5-1.1-1.1-2.1-1.8-3c0.5-0.9,0.8-1.9,0.8-2.9V19.8c0-3.2-2.6-5.7-5.7-5.7h-8.8c-1.1,0-2.2,0.3-3.1,0.9c-2.4-1-5.2-1.6-8.3-1.6
		c-6.3,0-11.7,2.9-14.9,7.5c-4.4-4.9-11.2-7.5-18-7.5c-7.2,0-14.7,2.9-19.8,8.5c-3.1-5.2-9.5-8.5-17.4-8.5
		c-8.4,0-16.8,3.8-21.6,11.1c-2.4-7.1-8.3-11.1-16.9-11.1c-2.5,0-6.6,0.4-10.4,2.8c-1-0.8-2.2-1.3-3.6-1.3h-15.3
		c-3.2,0-5.7,2.6-5.7,5.7v0.5c-3.8-4.9-10.5-7.8-19-7.8c-9.7,0-16.9,3.5-20.3,9.4c-1.9-4.9-6-9.4-14.4-9.4c-2.4,0-5,0.5-7.5,1.5
		c0-0.4,0-0.9,0-1.3c0-0.2,0-0.5-0.1-0.7c0-0.8,0-1.6,0-2.4c0-0.2,0-0.5-0.1-0.7c0-0.8,0-1.6,0-2.4c0-3.1-2.6-5.7-5.7-5.7h-18.1
		c-3.2,0-5.7,2.6-5.7,5.7v8.2c-3-1.5-6.6-2.4-10.6-2.4c-7.8,0-15.7,3.3-20.6,9.7h-10.7c-0.1-0.5-0.2-1-0.3-1.5v-0.9
		c0-3.2-2.6-5.7-5.7-5.7h-7.8c-0.1-0.3-0.2-0.6-0.3-0.9v-0.8c0-0.8-0.2-1.6-0.5-2.2v-0.8c0-3.2-2.6-5.7-5.7-5.7h-5.7
		c-1.5,0-3,0.6-4.1,1.7c-1.1,1.1-1.7,2.5-1.7,4.1c0,2.4-0.3,5.5-2,7.2c-1,1-2.7,1.5-5,1.5c-0.6,0-1.2,0.1-1.7,0.3
		c-4.4-3.8-10.3-5.8-16.3-5.8c-7.6,0-15.5,3.2-20.5,9.3c-4.2-6.1-11.8-9.3-19.4-9.3c-5.7,0-11.5,1.8-16.1,5.2
		c-0.8-2.2-2.9-3.7-5.3-3.7h-19c-1.3,0-2.4,0.4-3.4,1.1c-1-0.7-2.1-1.1-3.4-1.1h-7.5c-1.3,0-2.6,0.5-3.6,1.2c-1-0.8-2.2-1.2-3.6-1.2
		h-21.5c-0.4,0-0.7,0-1.1,0.1c-0.9-0.6-2-0.9-3.1-0.9h-8.8c-1.1,0-2.2,0.3-3.1,0.9c-2.4-1-5.2-1.6-8.3-1.6c-10,0-17.9,7.6-17.9,17.2
		c0,3.6,0.9,6.4,2.3,8.8c-0.8,1-1.3,2.3-1.3,3.6v4.2c-0.1-0.3-0.3-0.5-0.5-0.8c-0.4-1-0.9-2-1.5-2.9c-0.4-1-0.9-2-1.5-2.9
		c-0.4-1-0.9-2-1.5-2.9c-0.4-1-0.9-2-1.5-2.9c-0.4-1-0.9-2-1.5-2.9c-0.4-1-0.9-2-1.5-2.9c-3.8-9.1-13.2-15.4-24.4-15.4
		c-6.3,0-12.1,2-16.6,5.4c-0.8-2.3-2.9-3.9-5.4-3.9h-19c-1.3,0-2.4,0.4-3.4,1.1c-1-0.7-2.1-1.1-3.4-1.1h-7.5c-1.3,0-2.6,0.5-3.6,1.2
		c-1-0.8-2.2-1.2-3.6-1.2h-6.4c-0.4-1.1-1-2-1.8-2.6c-0.3-1.2-1-2.3-2-3.1c-0.3-1.2-1-2.3-2-3.1c-0.6-2.5-2.9-4.3-5.5-4.3H11
		c-3.2,0-5.7,2.6-5.7,5.7v23.8c0,2,1.1,3.8,2.6,4.8c0.4,1.2,7.9,10.8,8.9,11.5v8.6c0,2,1,3.8,2.6,4.8L353.5,479.8z"/>
	<linearGradient id="SVGID_2_" gradientUnits="userSpaceOnUse" x1="486.5668" y1="486.9454" x2="486.5668" y2="97.7489">
		<stop  offset="0.2509" style="stop-color:#FFFFFF;stop-opacity:0"/>
		<stop  offset="0.9437" style="stop-color:#FFFFFF"/>
	</linearGradient>
	<path class="st1" d="M353.5,479.8c0,0.9,0.7,1.6,1.6,1.6h8.5c0.9,0,1.6-0.7,1.6-1.6l1.5-2.1c0.2,0.5,0.6,0.8,1.1,0.9l0.9,1.9
		c0.3,0.6,0.8,0.9,1.4,0.9h2.5c0.7,0,1.3-0.4,1.5-1.1c0.1-0.3,0.2-0.7,0.3-1c0.1,0.4,0.3,0.8,0.4,1c0.2,0.6,0.8,1.1,1.5,1.1h2.5
		c0.6,0,1.2-0.4,1.5-1l1.6-3.8c0,0,0.1,0.1,0.1,0.1c0.9,2.9,3.6,4.9,6.9,4.9c3.6,0,6.7-2.7,7.1-6c0,0,0,0.7,0,0.7h0.7v0.8
		c0,0.8,0.6,1.5,1.5,1.6v1.2c0,0.9,0.7,1.6,1.6,1.6h2.4c0.3,0,0.6-0.1,0.8-0.2c0.6,0.2,1.3,0.4,2.1,0.4c3.3,0,5.5-1.9,5.5-4.7
		c0-0.2,0-0.4,0-0.5h0.1l1.8,4c0.3,0.6,0.8,0.9,1.4,0.9h2.5c0.7,0,1.3-0.4,1.5-1.1c0.1-0.3,0.2-0.7,0.3-1c0.1,0.4,0.3,0.8,0.4,1
		c0.2,0.6,0.8,1.1,1.5,1.1h2.5c0.6,0,1.2-0.4,1.5-1l1.6-3.8c0.7,3.1,3.3,5.1,6.8,5.1c2.3,0,4-0.9,5.2-2.8c1.2,1.7,3.3,2.8,5.8,2.8
		c2.5,0,4.4-1.1,5.6-3.3c0.6,2.2,2.8,3.4,4.9,3.4c2.5,0,5.1-1.6,5.1-4.6v-0.7h1.9c0.7,3,3.3,5.3,6.4,5.3c1.4,0,2.7-0.3,3.7-0.9
		c0.3,0.3,0.7,0.6,1.2,0.6h6.4c0.1,0,0.2,0,0.2,0c0.1,0,0.1,0,0.2,0h5.8c0.4,0,0.9-0.2,1.1-0.5c0.8,0.5,1.8,0.8,2.9,0.8
		c1.2,0,2.2-0.4,3-1c0.6,0.6,1.5,0.9,2.5,0.9c0.6,0,1.3-0.1,1.8-0.4c0.2,0.1,0.5,0.2,0.8,0.2h6.4c0.1,0,0.2,0,0.2,0
		c0.1,0,0.1,0,0.2,0h5.8c0.7,0,1.3-0.5,1.5-1.1c1.1,0.9,2.5,1.4,4.1,1.4c2.2,0,4-0.7,5.2-2.2c1.2,1.4,3.1,2.2,5.3,2.2
		c1.8,0,3.4-0.6,4.5-1.8v0.1c0,0.9,0.7,1.6,1.6,1.6h2.4c0.3,0,0.6-0.1,0.8-0.2c0.6,0.2,1.3,0.4,2.1,0.4c3.2,0,5.4-1.8,5.5-4.6
		c0.6-0.8,1-1.7,1.1-2.8c0.2-0.2,0.3-0.4,0.5-0.7c0.3,0.4,0.7,0.7,1.3,0.7h0.3v2.8c0,3,2.6,4.6,5.1,4.6c1.9,0,3.7-0.8,4.6-2.5
		c1.3,1.5,3.3,2.4,5.5,2.4c3.4,0,6.3-2.4,7.1-5.4c0.7-0.8,1.2-1.8,1.5-2.8c0,0,0,0,0,0c0.3,0.5,0.8,0.9,1.4,0.9h0.1l2.8,6.1
		c0.3,0.6,0.8,0.9,1.4,0.9h2.5c0.7,0,1.3-0.4,1.5-1.1c0.1-0.3,0.2-0.7,0.3-1c0.1,0.4,0.3,0.8,0.4,1c0.2,0.6,0.8,1.1,1.5,1.1h2.5
		c0.6,0,1.2-0.4,1.5-1l0.8-1.9c0.1,0,0.3-0.1,0.4-0.2v1.5c0,0.9,0.7,1.6,1.6,1.6h6.5c0.1,0,0.1,0,0.2,0c0.1,0,0.1,0,0.2,0h6.4
		c0.1,0,0.2,0,0.2,0c0.1,0,0.1,0,0.2,0h5.8c0.6,0,1.2-0.4,1.4-0.9c0.6,0.7,1.5,1.2,2.5,1.2c1.7,0,3.1-1.3,3.3-2.9
		c0,0,347.8-417.8,348.4-418.9c2.5-2.2,4.1-5.4,4.1-9c0-3.3-1.3-6.3-3.5-8.4c0.1-0.4,0.1-0.7,0.1-1.1c0-6.2,1.2-12.1,2.2-17.4
		c0.8-4.1,1.5-7.7,1.5-10.8c0-7.3-5.4-12.8-12.6-12.8c-4.9,0-9,2.6-11,6.6c-0.9,0.9-1.6,1.9-2.2,3.1c-0.9,0.9-1.6,1.9-2.2,3
		c-0.9,0.9-1.6,1.9-2.2,3.1c-0.3,0.3-0.7,0.7-1,1.1c-3-2.5-7.1-3.8-12.1-3.8c-2.5,0-6.6,0.4-10.4,2.8c-1-0.8-2.2-1.3-3.6-1.3h-15.3
		c-0.2,0-0.3,0-0.5,0c0.1-0.6,0.2-1.3,0.2-2c0-6.6-5.5-12-12.4-12c-5.1,0-9.5,3.1-11.4,7.4c-0.8,0.9-1.4,1.9-1.9,3
		c-0.8,0.9-1.4,1.9-1.9,3c-0.1,0.1-0.2,0.3-0.4,0.5h-16.6c-1.3,0-2.4,0.4-3.4,1.1c-1-0.7-2.1-1.1-3.4-1.1h-7.5
		c-1.3,0-2.6,0.5-3.6,1.2c-1-0.8-2.2-1.2-3.6-1.2h-21.5c-2.8,0-5.1,2-5.6,4.7c-0.8,0.8-1.3,1.8-1.5,3c-0.8,0.8-1.3,1.8-1.5,3
		c-0.8,0.8-1.3,1.8-1.5,3c-0.5,0.5-0.8,1-1.1,1.6c-3.4-9.9-13.2-16.8-25-16.8c-7.1,0-13.5,2.6-18.2,6.7c-0.3-2.9-2.7-5.2-5.7-5.2
		h-8.5v-4.7c0-3.2-2.6-5.7-5.7-5.7h-5.7c-1.5,0-3,0.6-4.1,1.7c-1,1-1.5,2.3-1.6,3.6c-0.7,0.9-1.1,1.9-1.2,3c-0.7,0.9-1.1,1.9-1.2,3
		c-0.6,0.7-0.9,1.6-1.1,2.5c-1,0.4-2.1,0.6-3.6,0.6c-1.5,0-3,0.6-4.1,1.6c-1,1-1.6,2.3-1.7,3.7c-0.6,0.9-1,1.9-1.1,3
		c-0.6,0.9-1,1.9-1.1,3c-0.6,0.9-1,1.9-1.1,3c-0.6,0.9-1,1.9-1.1,3c-0.6,0.9-1,1.9-1.1,3c-0.1,0.1-0.2,0.2-0.2,0.3
		c-0.5-1.1-1.1-2.1-1.8-3c0.5-0.9,0.8-1.9,0.8-2.9V19.8c0-3.2-2.6-5.7-5.7-5.7h-8.8c-1.1,0-2.2,0.3-3.1,0.9c-2.4-1-5.2-1.6-8.3-1.6
		c-6.3,0-11.7,2.9-14.9,7.5c-4.4-4.9-11.2-7.5-18-7.5c-7.2,0-14.7,2.9-19.8,8.5c-3.1-5.2-9.5-8.5-17.4-8.5
		c-8.4,0-16.8,3.8-21.6,11.1c-2.4-7.1-8.3-11.1-16.9-11.1c-2.5,0-6.6,0.4-10.4,2.8c-1-0.8-2.2-1.3-3.6-1.3h-15.3
		c-3.2,0-5.7,2.6-5.7,5.7v0.5c-3.8-4.9-10.5-7.8-19-7.8c-9.7,0-16.9,3.5-20.3,9.4c-1.9-4.9-6-9.4-14.4-9.4c-2.4,0-5,0.5-7.5,1.5
		c0-0.4,0-0.9,0-1.3c0-0.2,0-0.5-0.1-0.7c0-0.8,0-1.6,0-2.4c0-0.2,0-0.5-0.1-0.7c0-0.8,0-1.6,0-2.4c0-3.1-2.6-5.7-5.7-5.7h-18.1
		c-3.2,0-5.7,2.6-5.7,5.7v8.2c-3-1.5-6.6-2.4-10.6-2.4c-7.8,0-15.7,3.3-20.6,9.7h-10.7c-0.1-0.5-0.2-1-0.3-1.5v-0.9
		c0-3.2-2.6-5.7-5.7-5.7h-7.8c-0.1-0.3-0.2-0.6-0.3-0.9v-0.8c0-0.8-0.2-1.6-0.5-2.2v-0.8c0-3.2-2.6-5.7-5.7-5.7h-5.7
		c-1.5,0-3,0.6-4.1,1.7c-1.1,1.1-1.7,2.5-1.7,4.1c0,2.4-0.3,5.5-2,7.2c-1,1-2.7,1.5-5,1.5c-0.6,0-1.2,0.1-1.7,0.3
		c-4.4-3.8-10.3-5.8-16.3-5.8c-7.6,0-15.5,3.2-20.5,9.3c-4.2-6.1-11.8-9.3-19.4-9.3c-5.7,0-11.5,1.8-16.1,5.2
		c-0.8-2.2-2.9-3.7-5.3-3.7h-19c-1.3,0-2.4,0.4-3.4,1.1c-1-0.7-2.1-1.1-3.4-1.1h-7.5c-1.3,0-2.6,0.5-3.6,1.2c-1-0.8-2.2-1.2-3.6-1.2
		h-21.5c-0.4,0-0.7,0-1.1,0.1c-0.9-0.6-2-0.9-3.1-0.9h-8.8c-1.1,0-2.2,0.3-3.1,0.9c-2.4-1-5.2-1.6-8.3-1.6c-10,0-17.9,7.6-17.9,17.2
		c0,3.6,0.9,6.4,2.3,8.8c-0.8,1-1.3,2.3-1.3,3.6v4.2c-0.1-0.3-0.3-0.5-0.5-0.8c-0.4-1-0.9-2-1.5-2.9c-0.4-1-0.9-2-1.5-2.9
		c-0.4-1-0.9-2-1.5-2.9c-0.4-1-0.9-2-1.5-2.9c-0.4-1-0.9-2-1.5-2.9c-0.4-1-0.9-2-1.5-2.9c-3.8-9.1-13.2-15.4-24.4-15.4
		c-6.3,0-12.1,2-16.6,5.4c-0.8-2.3-2.9-3.9-5.4-3.9h-19c-1.3,0-2.4,0.4-3.4,1.1c-1-0.7-2.1-1.1-3.4-1.1h-7.5c-1.3,0-2.6,0.5-3.6,1.2
		c-1-0.8-2.2-1.2-3.6-1.2h-6.4c-0.4-1.1-1-2-1.8-2.6c-0.3-1.2-1-2.3-2-3.1c-0.3-1.2-1-2.3-2-3.1c-0.6-2.5-2.9-4.3-5.5-4.3H11
		c-3.2,0-5.7,2.6-5.7,5.7v23.8c0,2,1.1,3.8,2.6,4.8c0.4,1.2,7.9,10.8,8.9,11.5v8.6c0,2,1,3.8,2.6,4.8L353.5,479.8z"/>
</g>
<g id="Layer_1">
	<g>
		<g>
			<g>
				<path class="st2" d="M169.2,116.4c-1.9,0-3.5-0.4-4.8-1.3c-0.5,0.4-1.1,0.6-1.8,0.6h-15.2c-1.7,0-3-1.3-3-3v-5.1
					c0-1.7,1.3-3,3-3h1.5V96h-1.5c-1.7,0-3-1.3-3-3v-5.1c0-1.7,1.3-3,3-3h16.3c8.4,0,12.3,5,12.3,9.7c0,2.4-0.9,4.8-2.9,6.5
					c0.2,0.3,0.3,0.5,0.4,0.8h2.3c1.7,0,3,1.3,3,3v2.9C178.7,113.1,175,116.4,169.2,116.4z"/>
				<path class="st2" d="M163.6,87.9c6.1,0,9.3,3.2,9.3,6.7c0,3.2-2.2,5.8-6.8,5.9v0.3c3.4,0,4.9,1.6,4.9,4.2c0,1.9-0.3,2.9-0.3,3.7
					c0,0.4,0.3,0.6,0.7,0.6c0.5,0,1.2-0.3,1.2-1.4v-3h3.2v2.9c0,4-3,5.6-6.5,5.6c-2.8,0-5-1.3-5-4.1c0-1.4,0.2-2.3,0.2-3.7
					c0-1.5-0.9-2.6-3.2-2.6h-2.6v4.7h4v5.1h-15.3v-5.1h4.5V93h-4.5v-5.1L163.6,87.9 M158.7,98.8h2.8c3.9,0,4.6-1.4,4.6-2.9
					S165,93,162.4,93h-3.7L158.7,98.8 M163.6,81.9h-16.2c-3.3,0-6,2.7-6,6V93c0,2.8,1.9,5.2,4.5,5.8v3c-2.6,0.7-4.5,3-4.5,5.8v5.1
					c0,3.3,2.7,6,6,6h15.3c0.6,0,1.2-0.1,1.7-0.3c1.4,0.6,3.1,0.9,4.9,0.9c7.4,0,12.5-4.8,12.5-11.6v-2.9c0-2.5-1.6-4.7-3.8-5.6
					c0.6-1.4,0.9-3,0.9-4.7C178.9,88.3,173.7,81.9,163.6,81.9L163.6,81.9z M162.4,92.7L162.4,92.7L162.4,92.7L162.4,92.7z"/>
			</g>
			<g>
				<path class="st2" d="M186.9,116.4c-7.7,0-13.1-5.3-13.1-12.8c0-8.3,6.8-12.7,13.3-12.7c5.8,0,11.8,3.7,11.8,10.7
					c0,0.9,0,2-0.3,3.4c-0.1,0.6-0.4,1.1-0.8,1.6c0.4,0.8,0.5,1.8,0.1,2.7C195.6,113.9,191.9,116.4,186.9,116.4z"/>
				<path class="st2" d="M187.1,93.8c4.4,0,8.8,2.6,8.8,7.7c0,0.9,0,1.7-0.2,2.9h-12.4c0.2,3.1,2.2,4.6,5.1,4.6c2,0,3.4-0.8,4.2-2.8
					l2.6,1.6c-1.7,3.6-4.3,5.5-8.2,5.5c-6.4,0-10.1-4.3-10.1-9.8C176.8,97,182.1,93.8,187.1,93.8 M183.4,101.2h7.2
					c0-2.2-1.3-3.3-3.3-3.3C185.2,98,183.8,99.4,183.4,101.2 M187.1,87.8c-7.9,0-16.3,5.5-16.3,15.7c0,9.2,6.8,15.8,16.1,15.8
					c4.3,0,10.2-1.6,13.7-8.9c0.5-1.1,0.7-2.4,0.5-3.5c0.2-0.5,0.4-1,0.5-1.5c0.3-1.7,0.3-2.9,0.3-3.9
					C201.8,93.7,195.5,87.8,187.1,87.8L187.1,87.8z"/>
			</g>
			<g>
				<path class="st2" d="M206,116.3c-6.5,0-11.8-5.7-11.8-12.7c0-6.9,4.5-12,10.8-12.4v-3.4c0-1.7,1.3-3,3-3h9.3c1.7,0,3,1.3,3,3
					v16.7h0.4c1.7,0,3,1.3,3,3v5.1c0,1.7-1.3,3-3,3h-7.9c-0.7,0-1.3-0.2-1.8-0.6C209.5,115.9,207.8,116.3,206,116.3z M207.3,101.3
					C207.2,101.3,207.2,101.3,207.3,101.3c-0.1,0.1-0.5,0.8-0.5,2.4c0,1.5,0.3,2,0.4,2.1c0,0,0.1,0,0.3,0c0.3,0,0.5,0,0.5-0.1
					c0.1-0.1,0.3-0.7,0.3-2.1C208.3,101.3,207.8,101.3,207.3,101.3z"/>
				<path class="st2" d="M217.3,87.9v19.7h3.4v5.1h-7.9c0-0.7,0.1-2.8,0.4-3.7c-0.9,2.4-3.7,4.2-7.1,4.2c-4.9,0-8.8-4.3-8.8-9.7
					c0-5.8,3.8-9.4,8.5-9.4c3.2,0,5.7,1.4,6.5,4c-0.1-1.3-0.2-4-0.3-5.2h-4v-5.1L217.3,87.9 M207.5,108.8c2.7,0,3.8-1.5,3.8-5.1
					s-1.4-5.4-4-5.4c-2.3,0-3.5,2.1-3.5,5.4C203.8,106.9,205.1,108.8,207.5,108.8 M217.3,81.9H208c-3.3,0-6,2.7-6,6v0.8
					c-6.3,1.7-10.8,7.5-10.8,14.9c0,8.6,6.6,15.7,14.8,15.7c1.7,0,3.4-0.3,5-0.8c0.6,0.2,1.2,0.3,1.8,0.3h7.9c3.3,0,6-2.7,6-6v-5.1
					c0-2.4-1.4-4.5-3.4-5.4V87.9C223.3,84.6,220.6,81.9,217.3,81.9L217.3,81.9z M209.9,102.6L209.9,102.6L209.9,102.6L209.9,102.6z
					 M205.3,102.7L205.3,102.7L205.3,102.7L205.3,102.7z"/>
			</g>
			<g>
				<path class="st2" d="M231.8,116.4c-7.7,0-13.1-5.3-13.1-12.8c0-8.3,6.8-12.7,13.3-12.7c5.8,0,11.8,3.7,11.8,10.7
					c0,0.9,0,2-0.3,3.4c-0.1,0.6-0.4,1.1-0.8,1.6c0.4,0.8,0.5,1.8,0.1,2.7C240.5,113.9,236.8,116.4,231.8,116.4z"/>
				<path class="st2" d="M232,93.8c4.4,0,8.8,2.6,8.8,7.7c0,0.9,0,1.7-0.2,2.9h-12.3c0.2,3.1,2.2,4.6,5.1,4.6c2,0,3.4-0.8,4.2-2.8
					l2.6,1.6c-1.7,3.6-4.3,5.5-8.2,5.5c-6.4,0-10.1-4.3-10.1-9.8C221.7,97,227.1,93.8,232,93.8 M228.4,101.2h7.2
					c0-2.2-1.3-3.3-3.3-3.3C230.2,98,228.7,99.4,228.4,101.2 M232,87.8c-7.9,0-16.3,5.5-16.3,15.7c0,9.2,6.8,15.8,16.1,15.8
					c4.3,0,10.2-1.6,13.7-8.9c0.5-1.1,0.7-2.4,0.5-3.5c0.2-0.5,0.4-1,0.5-1.5c0.3-1.7,0.3-2.9,0.3-3.9
					C246.8,93.7,240.4,87.8,232,87.8L232,87.8z"/>
			</g>
			<g>
				<path class="st2" d="M252.2,116.4c-7.7,0-13.1-5.3-13.1-12.8c0-8.3,6.8-12.7,13.3-12.7c5.8,0,11.8,3.7,11.8,10.7
					c0,0.9,0,2-0.3,3.4c-0.1,0.6-0.4,1.1-0.8,1.6c0.4,0.8,0.5,1.8,0.1,2.7C260.9,113.9,257.2,116.4,252.2,116.4z"/>
				<path class="st2" d="M252.4,93.8c4.4,0,8.8,2.6,8.8,7.7c0,0.9,0,1.7-0.2,2.9h-12.3c0.2,3.1,2.2,4.6,5.1,4.6c2,0,3.4-0.8,4.2-2.8
					l2.6,1.6c-1.7,3.6-4.3,5.5-8.2,5.5c-6.4,0-10.1-4.3-10.1-9.8C242.1,97,247.5,93.8,252.4,93.8 M248.8,101.2h7.2
					c0-2.2-1.3-3.3-3.3-3.3C250.6,98,249.1,99.4,248.8,101.2 M252.4,87.8c-7.9,0-16.3,5.5-16.3,15.7c0,9.2,6.8,15.8,16.1,15.8
					c4.3,0,10.2-1.6,13.7-8.9c0.5-1.1,0.7-2.4,0.5-3.5c0.2-0.5,0.4-1,0.5-1.5c0.3-1.7,0.3-2.9,0.3-3.9
					C267.2,93.7,260.8,87.8,252.4,87.8L252.4,87.8z"/>
			</g>
			<g>
				<path class="st2" d="M285.9,115.8c-0.1,0-0.3,0-0.4,0s-0.3,0-0.4,0h-10.4c-0.1,0-0.3,0-0.4,0c-0.1,0-0.3,0-0.4,0h-11.6
					c-1.7,0-3-1.3-3-3v-5.1c0-1.7,1.3-3,3-3h0.4v-2h-0.4c-1.7,0-3-1.3-3-3v-5.1c0-1.7,1.3-3,3-3h7.8c0.6,0,1.2,0.2,1.7,0.5
					c1.3-0.7,2.8-1.1,4.5-1.1c2.2,0,4,0.7,5.4,1.9c1.6-1.3,3.7-2.1,6.2-2.1c5.6,0,9.2,3.8,9.2,9.7v4.1c1.4,0.2,2.5,1.5,2.5,3v5.1
					c0,1.7-1.3,3-3,3L285.9,115.8L285.9,115.8z"/>
				<path class="st2" d="M287.8,93.8c4.3,0,6.2,2.9,6.2,6.7v7.1h2.5v5.1h-10.6v-5.1h2.3v-4.8c0-2.7-0.5-3.4-2.2-3.4
					c-2.1,0-3.2,1.1-3.2,3.5v4.8h2.3v5.1h-10.4v-5.1h2.2v-4.8c0-2.7-0.5-3.4-2.2-3.4c-2.1,0-3.2,1.1-3.2,3.5v4.8h2.3v5.1h-11.6v-5.1
					h3.4v-8h-3.4v-5.1h7.8c-0.1,1.4-0.4,5.6-0.6,6.5h0.4c0.6-4.2,2.7-7.1,6.4-7.1c3.1,0,4.7,1.9,5.1,4.8
					C282.3,95.4,284.7,93.8,287.8,93.8 M287.8,87.8c-2.2,0-4.3,0.5-6.1,1.5c-1.6-0.8-3.4-1.3-5.4-1.3c-1.6,0-3.2,0.3-4.5,0.8
					c-0.5-0.2-1.1-0.2-1.7-0.2h-7.8c-3.3,0-6,2.7-6,6v5.1c0,1.5,0.6,2.9,1.5,4c-0.9,1.1-1.5,2.5-1.5,4v5.1c0,3.3,2.7,6,6,6h11.6
					c0.1,0,0.3,0,0.4,0s0.3,0,0.4,0h10.4c0.1,0,0.3,0,0.4,0c0.1,0,0.3,0,0.4,0h10.6c3.3,0,6-2.7,6-6v-5.1c0-2-1-3.8-2.5-4.9v-2.2
					C300,92.9,295.1,87.8,287.8,87.8L287.8,87.8z"/>
			</g>
			<g>
				<path class="st2" d="M309.1,123.1c-5.4,0-9.1-3.3-9.1-8.2c0-4.4,2.8-7.4,6.9-7.4l-2.3-4.8h-0.2c-1.7,0-3-1.3-3-3v-5.1
					c0-1.7,1.3-3,3-3h11c0.1,0,0.3,0,0.4,0c0.1,0,0.3,0,0.4,0h9.7c1.7,0,3,1.3,3,3v5.1c0,1.7-1.3,3-3,3h-0.1l-6.1,13.5
					C317.6,120.4,313.6,123.1,309.1,123.1z"/>
				<path class="st2" d="M325.8,94.6v5.1h-2.1l-6.9,15.3c-1.7,3.7-4.9,5.2-7.7,5.2c-3.2,0-6.1-1.5-6.1-5.2c0-2.6,1.3-4.4,3.9-4.4
					c1.9,0,3.5,1.7,3.5,3.5c0,2-1.4,3.4-3.5,3.4c-0.5,0-0.9-0.1-1.3-0.2c0.6,0.7,1.5,1,2.8,1c2.1,0,4-1.6,4-6l-6-12.6h-2.1v-5.1h11
					v5.1h-2.2c1.1,2.7,2.1,5.7,2.6,8.2c0.7-2.4,1.6-5.4,2.7-8.2H316v-5.1L325.8,94.6 M325.8,88.6h-9.7c-0.1,0-0.3,0-0.4,0
					c-0.1,0-0.3,0-0.4,0h-11c-3.3,0-6,2.7-6,6v5.1c0,2.7,1.8,5,4.2,5.7c-3.4,1.6-5.6,5.1-5.6,9.5c0,6.6,5,11.2,12.1,11.2
					c5.7,0,10.7-3.3,13.2-8.7l5.5-12.1c2.4-0.8,4.1-3,4.1-5.7v-5.1C331.8,91.3,329.1,88.6,325.8,88.6L325.8,88.6z M306.4,113.4
					L306.4,113.4L306.4,113.4z"/>
			</g>
			<g>
				<path class="st2" d="M337.1,116.4c-7.5,0-13.5-5.8-13.5-12.9s5.9-12.7,13.5-12.7c7.6,0,13.5,5.6,13.5,12.7
					C350.6,110.5,344.4,116.4,337.1,116.4z M336.5,106.2c0.1,0,0.3,0,0.5,0s0.4,0,0.5,0c0.1-0.4,0.1-1,0.1-2.3s-0.1-2-0.2-2.3
					c-0.1,0-0.3,0-0.5,0c-0.2,0-0.3,0-0.5,0c-0.1,0.3-0.2,0.9-0.2,2.3C336.4,105.2,336.4,105.8,336.5,106.2z"/>
				<path class="st2" d="M337.1,93.8c5.9,0,10.5,4.1,10.5,9.7c0,5.3-4.7,9.9-10.5,9.9c-5.9,0-10.5-4.6-10.5-9.9
					C326.5,97.9,331.4,93.8,337.1,93.8 M337,109.2c2.7,0,3.6-0.7,3.6-5.3c0-4.2-0.9-5.3-3.6-5.3c-2.5,0-3.7,0.9-3.7,5.3
					C333.4,108.3,334.3,109.2,337,109.2 M337.1,87.8c-9.3,0-16.5,6.9-16.5,15.7s7.4,15.9,16.5,15.9c9.1,0,16.5-7.1,16.5-15.9
					S346.3,87.8,337.1,87.8L337.1,87.8z M336.8,103.2L336.8,103.2L336.8,103.2L336.8,103.2z"/>
			</g>
			<g>
				<path class="st2" d="M357.7,116.3c-6,0-9.4-3.4-9.4-9.5v-4.2c-1.5-0.1-2.7-1.4-2.7-3v-5.1c0-1.7,1.3-3,3-3h8.7
					c0.3,0,0.7,0.1,1,0.2c0.3-0.1,0.6-0.2,1-0.2h10.1c1.7,0,3,1.3,3,3v10.1c1.6,0.1,2.9,1.4,2.9,3v5.1c0,1.7-1.3,3-3,3h-7.4
					c-0.8,0-1.5-0.3-2.1-0.9C361.2,115.9,359.4,116.3,357.7,116.3z M360.3,104.6c0,0.1,0,0.3,0,0.4h0.1c0-0.1,0-0.2,0-0.4v-1.9h-0.1
					V104.6z"/>
				<path class="st2" d="M369.4,94.6v13.1h2.9v5.1h-7.4c0.1-1.5,0.3-5.6,0.6-6.5h-0.4c-0.9,5.1-4.5,7.1-7.4,7.1
					c-4.6,0-6.4-2.3-6.4-6.5v-7.2h-2.7v-5.1h8.7v10c0,2.8,0.5,3.4,2.5,3.4c2.3,0,3.6-1,3.6-3.5v-4.8h-4.2v-5.1H369.4 M369.4,88.6
					h-10.1c-0.3,0-0.7,0-1,0.1c-0.3-0.1-0.6-0.1-1-0.1h-8.7c-3.3,0-6,2.7-6,6v5.1c0,2.1,1.1,4,2.7,5v2.2c0,7.7,4.7,12.5,12.4,12.5
					c1.6,0,3.3-0.3,4.9-1c0.7,0.3,1.5,0.4,2.2,0.4h7.3c3.3,0,6-2.7,6-6v-5.1c0-2.2-1.1-4.1-2.9-5.1v-7.9
					C375.4,91.3,372.7,88.6,369.4,88.6L369.4,88.6z"/>
			</g>
			<g>
				<path class="st2" d="M372.9,115.8c-1.7,0-3-1.3-3-3v-5.1c0-1.7,1.3-3,3-3h0.4v-2h-0.4c-1.7,0-3-1.3-3-3v-5.1c0-1.7,1.3-3,3-3
					h8.1c0.6,0,1.1,0.2,1.6,0.4c1.3-0.8,2.7-1.2,4.3-1.2c5.1,0,7.8,3.7,7.8,7.3c0,3.3-2.4,6.7-6.5,6.9c1,0.5,1.6,1.5,1.6,2.7v5.1
					c0,1.7-1.3,3-3,3C386.8,115.8,372.9,115.8,372.9,115.8z M385.6,104.6c-0.1,0-0.3-0.1-0.4-0.1v0.1H385.6z"/>
				<path class="st2" d="M386.8,93.8c3.3,0,4.8,2.2,4.8,4.3c0,1.9-1.4,3.9-3.9,3.9c-2,0-3.4-1.4-3.4-3.2c0-0.7,0.1-1.2,0.4-1.6
					c-1.5,0.8-2.5,2.5-2.5,5.5v5h4.5v5.1h-13.8v-5.1h3.4v-8h-3.4v-5.1h8.1c0,1.4-0.3,3.7-0.5,5.2h0.4
					C381.4,96.7,383.6,93.8,386.8,93.8 M386.8,87.8c-1.6,0-3.1,0.3-4.5,0.9c-0.4-0.1-0.9-0.2-1.4-0.2h-8c-3.3,0-6,2.7-6,6v5.1
					c0,1.5,0.6,2.9,1.5,4c-0.9,1.1-1.5,2.5-1.5,4v5.1c0,3.3,2.7,6,6,6h13.8c3.3,0,6-2.7,6-6v-5.1c0-0.3,0-0.6-0.1-0.9
					c3-1.7,5-4.9,5-8.6C397.6,93.1,393.8,87.8,386.8,87.8L386.8,87.8z"/>
			</g>
			<g>
				<path class="st2" d="M406.7,116.4c-0.8,0-1.6-0.3-2.2-1c-0.6-0.6-0.9-1.4-0.8-2.3v-0.4h-3.1c-1.7,0-3-1.3-3-3v-7
					c0-0.7,0.2-1.3,0.6-1.9c-0.7-1.2-1.2-2.7-1.2-4.5c0-4,2.6-7.3,6.3-8.4v-0.7c0-1.7,1.3-3,3-3h4.2c0.8,0,1.6,0.4,2.2,1
					s0.9,1.4,0.8,2.3v0.4h3.1c1.7,0,3,1.3,3,3v7c0,0.5-0.1,1.1-0.4,1.5c0.9,1.2,1.5,2.8,1.5,4.9c0,4.3-2.8,7.5-7.2,8.5v0.7
					c0,1.7-1.3,3-3,3h-3.8V116.4z"/>
				<path class="st2" d="M410.6,87.2l-0.4,4.3c1.1,0.7,1.8,1.8,2.1,3.1l-0.1-3.7h4.5v7h-5.5c-0.1-3.3-1.9-4.2-3.8-4.2
					c-1.1,0-1.8,0.6-1.8,1.4c0,1.7,2.1,2.2,4.6,2.7c3.3,0.7,7.6,2.1,7.6,6.4s-3.7,5.8-7.2,5.9v3.4h-3.9l0.3-4.2
					c-1-0.6-1.8-1.4-2.1-2.8l0.2,3.3h-4.5v-7.1h5.4c0,3.1,1.4,4.4,4.2,4.4c1.3,0,2-0.6,2-1.5c0-1.8-1.8-2.1-5-2.9
					c-3.2-0.7-7-2-7-6.4c0-3.4,2.9-5.9,6.3-5.9v-3.3h4.1 M410.6,81.2h-4.2c-2.9,0-5.3,2-5.9,4.7c-3.8,2-6.4,5.9-6.4,10.5
					c0,1.4,0.2,3,0.8,4.5c-0.2,0.6-0.3,1.2-0.3,1.9v7.1c0,3.3,2.7,6,6,6h0.6c0.3,0.6,0.6,1.2,1.1,1.7c1.1,1.2,2.7,1.9,4.4,1.9h3.9
					c2.8,0,5.1-1.9,5.8-4.5c4.5-1.8,7.4-5.8,7.4-10.8c0-1.6-0.3-3.5-1.2-5.2c0.1-0.4,0.1-0.7,0.1-1.1v-7c0-3.3-2.7-6-6-6h-0.5
					c-0.3-0.6-0.6-1.2-1.1-1.7C413.8,81.9,412.2,81.2,410.6,81.2L410.6,81.2z"/>
			</g>
			<g>
				<path class="st2" d="M421.5,115.8c-1.7,0-3-1.3-3-3v-5.1c0-1.7,1.3-3,3-3h4.9v-3.2h-4.7c-1.7,0-3-1.3-3-3v-4.4c0-1.7,1.3-3,3-3
					c6.2,0,6.2-2.2,6.2-3.2c0-1.6,1.4-3,3-3h4.3c1.7,0,3,1.3,3,3v16.7h4.2c1.7,0,3,1.3,3,3v5.1c0,1.7-1.3,3-3,3L421.5,115.8
					L421.5,115.8z"/>
				<path class="st2" d="M435.3,87.9v19.7h7.2v5.1h-21v-5.1h7.9v-9.2h-7.7V94c7.4,0,9.2-3,9.2-6.1H435.3 M435.3,81.9H431
					c-3.2,0-5.9,2.5-6,5.7c-0.4,0.2-1.4,0.4-3.2,0.4c-3.3,0-6,2.7-6,6v4.4c0,1.8,0.8,3.4,2,4.5c-1.4,1.1-2.2,2.8-2.2,4.7v5.1
					c0,3.3,2.7,6,6,6h21c3.3,0,6-2.7,6-6v-5.1c0-3.3-2.7-6-6-6h-1.2V87.9C441.3,84.6,438.6,81.9,435.3,81.9L435.3,81.9z"/>
			</g>
			<g>
				<path class="st2" d="M454.7,116.4c-8,0-13.9-6.7-13.9-16s5.8-16,13.9-16s13.9,6.7,13.9,16C468.5,109.6,462.7,116.4,454.7,116.4z
					 M454.2,105.7c0,0,0.1,0.1,0.5,0.1s0.6,0,0.7-0.1c0.2-0.3,0.6-1.3,0.6-5.3c0-4.5-0.6-5.2-0.7-5.3l0,0c0,0-0.1-0.1-0.5-0.1
					c-0.5,0-0.6,0.1-0.6,0.1s-0.7,0.8-0.7,5.3C453.4,105,454.1,105.7,454.2,105.7L454.2,105.7z"/>
				<path class="st2" d="M454.7,87.4c6.4,0,10.9,5.4,10.9,13s-4.6,13-10.9,13s-10.9-5.4-10.9-13S448.3,87.4,454.7,87.4 M454.7,108.8
					c3.3,0,4.3-1.8,4.3-8.4c0-5.8-0.9-8.4-4.3-8.4c-3.2,0-4.3,2-4.3,8.4C450.4,106.3,451.5,108.8,454.7,108.8 M454.7,81.4
					c-9.8,0-16.9,8-16.9,19c0,10.8,7.3,19,16.9,19s16.9-8.2,16.9-19C471.5,89.4,464.4,81.4,454.7,81.4L454.7,81.4z"/>
			</g>
			<g>
				<path class="st2" d="M488.6,116.4c-1.9,0-3.7-0.3-5.2-1c-0.6,0.5-1.3,0.8-2,0.8h-5c-1.7,0-3-1.3-3-3v-9.8c0-1.2,0.7-2.3,1.8-2.7
					c-1-1.5-1.6-3.4-1.6-5.9c0-6.1,5-10.6,11.8-10.6c1.7,0,3.2,0.3,4.6,0.9c0.6-0.5,1.3-0.8,2-0.8h5c1.7,0,3,1.3,3,3v10
					c0,0.7-0.2,1.3-0.6,1.8c1.2,1.5,2,3.6,2,6.3C501.2,112.5,494.7,116.4,488.6,116.4z"/>
				<path class="st2" d="M485.2,87.2c3.4,0,5.9,1.6,6.9,4.1l-0.3-4h5v10h-5.9c-0.1-3.9-2.1-5.9-4.9-5.9c-1.7,0-2.7,1.1-2.7,2.5
					c0,1.6,0.8,2.5,5.9,3.5c5.6,1,9,3.1,9,8.1c0,5.1-5,7.9-9.6,7.9c-3.2,0-6.2-1.1-7.6-4.2l0.3,4h-5v-9.8h6.1
					c0.1,4.2,2.9,5.9,5.3,5.9c2,0,3.6-1.1,3.6-3c0-2.2-2.2-2.6-5.1-3.1c-5.6-1.1-9.9-2.8-9.9-8.4C476.4,90.2,480.1,87.2,485.2,87.2
					 M485.2,81.2c-8.6,0-14.8,5.7-14.8,13.6c0,2,0.3,3.8,0.9,5.2c-0.7,1-1,2.1-1,3.4v9.8c0,3.3,2.7,6,6,6h5c0.8,0,1.6-0.2,2.4-0.5
					c1.5,0.4,3.1,0.7,4.9,0.7c7.7,0,15.6-5.2,15.6-13.9c0-2.1-0.4-4.4-1.6-6.6c0.1-0.5,0.2-1,0.2-1.6v-10c0-3.3-2.7-6-6-6h-5
					c-0.8,0-1.6,0.2-2.4,0.5C488.2,81.4,486.7,81.2,485.2,81.2L485.2,81.2z"/>
			</g>
			<g>
				<path class="st2" d="M519.2,115.8c-1.3,0-2.4-0.8-2.8-2c-0.2-0.4-0.4-1-0.6-1.7c-0.2,0.6-0.4,1.2-0.6,1.7c-0.4,1.2-1.6,2-2.8,2
					h-4.7c-1.2,0-2.2-0.7-2.7-1.8l-5.2-11.4h-0.1c-1.7,0-3-1.3-3-3v-5.1c0-1.7,1.3-3,3-3h11c0.7,0,1.3,0.2,1.8,0.6
					c0.5-0.4,1.1-0.6,1.8-0.6h3.9c0.6,0,1.2,0.2,1.7,0.5c0.5-0.3,1.1-0.5,1.7-0.5h9.7c1.7,0,3,1.3,3,3v5.1c0,1.7-1.3,3-3,3h-0.1
					l-4.7,11.3c-0.5,1.1-1.6,1.9-2.8,1.9H519.2z"/>
				<path class="st2" d="M531.3,94.6v5.1h-2.1l-5.4,13.1h-4.7c-1.1-3.2-2.7-8-3.4-11.3c-0.8,3.4-2.3,8-3.4,11.3h-4.7l-6-13.1h-2.1
					v-5.1h11v5.1h-2.3c0.8,2.3,1.6,5.2,1.9,7.2c0.9-3.7,2.8-8.6,4.1-12.3h3.9c1,3.1,3.1,8.8,3.9,12.3c0.4-2,1.1-4.9,1.9-7.2h-2.3
					v-5.1H531.3 M531.3,88.6h-9.7c-0.6,0-1.2,0.1-1.7,0.2c-0.5-0.2-1.1-0.2-1.7-0.2h-3.9c-0.6,0-1.2,0.1-1.8,0.3
					c-0.6-0.2-1.2-0.3-1.8-0.3h-11c-3.3,0-6,2.7-6,6v5.1c0,2.6,1.7,4.9,4.1,5.7l4.5,9.9c1,2.1,3.1,3.5,5.5,3.5h4.7
					c1.3,0,2.4-0.4,3.4-1.1c1,0.7,2.2,1.1,3.4,1.1h4.7c2.4,0,4.6-1.5,5.5-3.7l4-9.8c2.3-0.9,3.9-3,3.9-5.6v-5.1
					C537.3,91.3,534.6,88.6,531.3,88.6L531.3,88.6z"/>
			</g>
			<g>
				<path class="st2" d="M542.1,116.4c-7.7,0-13.1-5.3-13.1-12.8c0-8.3,6.8-12.7,13.3-12.7c5.8,0,11.8,3.7,11.8,10.7
					c0,0.9,0,2-0.3,3.4c-0.1,0.6-0.4,1.1-0.8,1.6c0.4,0.8,0.5,1.8,0.1,2.7C550.8,113.9,547.1,116.4,542.1,116.4z"/>
				<path class="st2" d="M542.3,93.8c4.4,0,8.8,2.6,8.8,7.7c0,0.9,0,1.7-0.2,2.9h-12.3c0.2,3.1,2.2,4.6,5.1,4.6c2,0,3.4-0.8,4.2-2.8
					l2.6,1.6c-1.7,3.6-4.3,5.5-8.2,5.5c-6.4,0-10.1-4.3-10.1-9.8C532,97,537.3,93.8,542.3,93.8 M538.6,101.2h7.2
					c0-2.2-1.3-3.3-3.3-3.3C540.4,98,539,99.4,538.6,101.2 M542.3,87.8c-7.9,0-16.3,5.5-16.3,15.7c0,9.2,6.8,15.8,16.1,15.8
					c4.3,0,10.2-1.6,13.7-8.9c0.5-1.1,0.7-2.4,0.5-3.5c0.2-0.5,0.4-1,0.5-1.5c0.3-1.7,0.3-2.9,0.3-3.9
					C557.1,93.7,550.7,87.8,542.3,87.8L542.3,87.8z"/>
			</g>
			<g>
				<path class="st2" d="M562.5,116.4c-7.7,0-13.1-5.3-13.1-12.8c0-8.3,6.8-12.7,13.3-12.7c5.8,0,11.8,3.7,11.8,10.7
					c0,0.9,0,2-0.3,3.4c-0.1,0.6-0.4,1.1-0.8,1.6c0.4,0.8,0.5,1.8,0.1,2.7C571.2,113.9,567.5,116.4,562.5,116.4z"/>
				<path class="st2" d="M562.7,93.8c4.4,0,8.8,2.6,8.8,7.7c0,0.9,0,1.7-0.2,2.9h-12.4c0.2,3.1,2.2,4.6,5.1,4.6c2,0,3.4-0.8,4.2-2.8
					l2.6,1.6c-1.7,3.6-4.3,5.5-8.2,5.5c-6.4,0-10.1-4.3-10.1-9.8C552.4,97,557.7,93.8,562.7,93.8 M559,101.2h7.2
					c0-2.2-1.3-3.3-3.3-3.3C560.8,98,559.4,99.4,559,101.2 M562.7,87.8c-7.9,0-16.3,5.5-16.3,15.7c0,9.2,6.8,15.8,16.1,15.8
					c4.3,0,10.2-1.6,13.7-8.9c0.5-1.1,0.7-2.4,0.5-3.5c0.2-0.5,0.4-1,0.5-1.5c0.3-1.7,0.3-2.9,0.3-3.9
					C577.5,93.7,571.1,87.8,562.7,87.8L562.7,87.8z"/>
			</g>
			<g>
				<path class="st2" d="M582,116.4c-4.6,0-9.6-3.1-9.6-8.7v-5h-0.5c-1.7,0-3-1.3-3-3v-3c0-0.8,0.3-1.6,0.9-2.1
					c0.6-0.6,1.3-0.9,2.1-0.9h0.2c1.1,0,1.9-0.3,2.4-0.8c0.7-0.7,1-1.9,1-3.6c0-0.8,0.3-1.6,0.9-2.1c0.6-0.6,1.3-0.9,2.1-0.9h2.9
					c1.7,0,3,1.3,3,3v2.3h4.3c1.7,0,3,1.3,3,3v5.1c0,1-0.5,1.9-1.3,2.5c0.8,0.5,1.3,1.5,1.3,2.5v3.3
					C591.6,113.5,586.8,116.4,582,116.4z"/>
				<path class="st2" d="M581.3,89.3v5.3h7.3v5.1h-7.2v7.3c0,1.1,0.8,1.6,1.9,1.6s1.9-0.6,1.9-1.7v-2.3h3.5v3.3
					c0,3.8-3.4,5.5-6.6,5.5s-6.6-1.9-6.6-5.7v-8h-3.6v-3c0.1,0,0.1,0,0.2,0c3.8,0,6.4-2.2,6.4-7.4H581.3 M581.3,83.3h-2.9
					c-1.6,0-3.1,0.6-4.3,1.8c-1.1,1.1-1.8,2.7-1.7,4.3c0,0.7-0.1,1.1-0.1,1.3c-0.1,0-0.1,0-0.2,0H572h-0.1c-1.6,0-3.1,0.6-4.2,1.7
					c-1.1,1.1-1.8,2.7-1.8,4.3v3c0,2.4,1.5,4.6,3.6,5.5v2.6c0,6.7,5.4,11.7,12.6,11.7c7.2,0,12.6-5,12.6-11.5v-3.3
					c0-0.9-0.2-1.7-0.5-2.5c0.3-0.8,0.5-1.6,0.5-2.5v-5.1c0-3.3-2.7-6-6-6h-1.3C586.9,85.6,584.4,83.3,581.3,83.3L581.3,83.3z"/>
			</g>
			<g>
				<path class="st2" d="M597.5,115.8c-1.7,0-3-1.3-3-3v-5.1c0-1.7,1.3-3,3-3h1.1v-8.6h-1.1c-1.7,0-3-1.3-3-3V88c0-1.7,1.3-3,3-3
					h16.4c8.4,0,11.4,5.2,11.4,9.6c0,1.9-0.8,3.8-2.2,5.4c1.8,1.7,2.9,4,2.9,6.2c0,5.9-4.6,9.7-11.6,9.7L597.5,115.8L597.5,115.8z"
					/>
				<path class="st2" d="M613.9,87.9c5.6,0,8.4,2.7,8.4,6.6c0,2.2-1.8,5.3-6.6,5.3v0.4c4.8,0,7.2,3.4,7.2,6c0,4.1-3.2,6.7-8.6,6.7
					h-16.8v-5.1h4.1V93h-4.1v-5.1L613.9,87.9 M608.4,97.8h4c2.1,0,3.1-1.1,3.1-2.4c0-1.4-0.9-2.4-3.1-2.4h-4V97.8 M608.4,107.6h4.3
					c2.6,0,3.6-1.2,3.6-2.6s-0.9-2.5-3.5-2.5h-4.4L608.4,107.6 M613.9,81.9h-16.4c-3.3,0-6,2.7-6,6V93c0,2.6,1.7,4.9,4.1,5.7v3.2
					c-2.4,0.8-4.1,3-4.1,5.7v5.1c0,3.3,2.7,6,6,6h16.8c10.1,0,14.6-6.4,14.6-12.7c0-2.2-0.7-4.4-2.1-6.4c0.9-1.6,1.4-3.5,1.4-5.2
					C628.3,88.2,623.8,81.9,613.9,81.9L613.9,81.9z"/>
			</g>
			<g>
				<path class="st2" d="M633.3,116.3c-6,0-9.4-3.4-9.4-9.5v-4.2c-1.5-0.1-2.7-1.4-2.7-3v-5.1c0-1.7,1.3-3,3-3h8.7
					c0.3,0,0.7,0.1,1,0.2c0.3-0.1,0.6-0.2,1-0.2H645c1.7,0,3,1.3,3,3v10.1c1.6,0.1,2.9,1.4,2.9,3v5.1c0,1.7-1.3,3-3,3h-7.3
					c-0.8,0-1.5-0.3-2.1-0.9C636.8,115.9,635,116.3,633.3,116.3z M635.9,104.6c0,0.1,0,0.3,0,0.4h0.1
					C636,104.9,636,104.8,635.9,104.6l0.1-1.9h-0.1V104.6z"/>
				<path class="st2" d="M645,94.6v13.1h2.9v5.1h-7.3c0.1-1.5,0.3-5.6,0.6-6.5h-0.4c-0.9,5.1-4.5,7.1-7.4,7.1
					c-4.6,0-6.4-2.3-6.4-6.5v-7.2h-2.7v-5.1h8.7v10c0,2.8,0.5,3.4,2.5,3.4c2.3,0,3.6-1,3.6-3.5v-4.8h-4.2v-5.1H645 M645,88.6h-10.1
					c-0.3,0-0.7,0-1,0.1c-0.3-0.1-0.6-0.1-1-0.1h-8.7c-3.3,0-6,2.7-6,6v5.1c0,2.1,1.1,4,2.7,5v2.2c0,7.7,4.7,12.5,12.4,12.5
					c1.6,0,3.3-0.3,4.9-1c0.7,0.3,1.5,0.4,2.2,0.4h7.3c3.3,0,6-2.7,6-6v-5.1c0-2.2-1.1-4.1-2.9-5.1v-7.9
					C651,91.3,648.3,88.6,645,88.6L645,88.6z"/>
			</g>
			<g>
				<path class="st2" d="M658.3,116.4c-6.9,0-12.4-5.6-12.4-12.8c0-8.4,6.6-12.8,13.1-12.8c5.8,0,10,3.4,10,8.2
					c0,2.1-0.9,3.9-2.2,5.1l2.4,2.5c0.9,1,1.1,2.4,0.4,3.6C667.2,114.3,663.4,116.4,658.3,116.4z"/>
				<path class="st2" d="M659,93.8c3.5,0,7,1.8,7,5.2c0,2.2-1.6,3.7-3.7,3.7c-2.2,0-3.7-1.1-3.7-3.6c0-0.9,0.3-1.6,0.9-2.2
					c-3.2,0.1-4.9,2.7-4.9,5.5c0,3.6,2.6,5.6,5,5.6c1.4,0,2.8-0.7,4.1-2.7l3.3,3.4c-1.9,3.3-4.8,4.7-8.8,4.7c-5.4,0-9.4-4.5-9.4-9.8
					C648.9,96.8,654.3,93.8,659,93.8 M659,87.8c-7.8,0-16.1,5.5-16.1,15.8c0,8.8,6.8,15.8,15.4,15.8c7.9,0,11.9-4.2,14-7.7
					c1.3-2.3,1-5.2-0.9-7.2l-0.6-0.6c0.8-1.4,1.3-3.1,1.3-4.9C672,92.6,666.4,87.8,659,87.8L659,87.8z"/>
			</g>
			<g>
				<path class="st2" d="M679.3,115.8c-0.5,0-0.9-0.1-1.3-0.3c-0.4,0.2-0.8,0.3-1.3,0.3h-9.3c-1.7,0-3-1.3-3-3v-5.1c0-1.7,1.3-3,3-3
					h0.4v-8.6h-0.4c-1.7,0-3-1.3-3-3V88c0-1.7,1.3-3,3-3h9.3c1.7,0,3,1.3,3,3v3.7h10.4c1.7,0,3,1.3,3,3v5.1c0,1.7-1.3,3-3,3h-1.6
					l1.7,1.9h0.8c1.7,0,3,1.3,3,3v5.1c0,1.7-1.3,3-3,3H679.3z"/>
				<path class="st2" d="M676.7,87.9v15.3l4.1-3.4h-2.2v-5.1H690v5.1h-3.1l-3,2.4l4.9,5.5h2.1v5.1h-11.7v-5.1h1.9l-1.9-2.1l-2.7,2.1
					v5.1h-9.3v-5.1h3.4V93h-3.4v-5.1L676.7,87.9 M676.7,81.9h-9.3c-3.3,0-6,2.7-6,6V93c0,2.4,1.4,4.4,3.4,5.4v3.8
					c-2,1-3.4,3-3.4,5.4v5.1c0,3.3,2.7,6,6,6h9.3c0.5,0,0.9,0,1.3-0.1c0.4,0.1,0.9,0.1,1.3,0.1h11.6c3.3,0,6-2.7,6-6v-5.1
					c0-1.8-0.8-3.4-2-4.5c0.7-1,1.1-2.2,1.1-3.4v-5.1c0-3.3-2.7-6-6-6h-7.4v-0.7C682.7,84.6,680,81.9,676.7,81.9L676.7,81.9z"/>
			</g>
			<g>
				<path class="st2" d="M702.8,116.4c-1.4,0-2.7-0.2-3.8-0.7c-0.5,0.3-1,0.4-1.5,0.4H693c-1.7,0-3-1.3-3-3V106
					c0-0.7,0.2-1.3,0.6-1.9c-0.7-1.2-1.2-2.7-1.2-4.5c0-5,4.1-8.9,9.2-8.9c1.6,0,3,0.3,4.2,0.8c0.5-0.3,1-0.5,1.6-0.5h4.5
					c1.7,0,3,1.3,3,3v7c0,0.5-0.1,1.1-0.4,1.5c0.9,1.2,1.5,2.8,1.5,4.9C713.1,112.8,709,116.4,702.8,116.4z"/>
				<path class="st2" d="M698.7,93.8c3.4,0,5.4,1.6,6,4.1l-0.1-3.7h4.5v7h-5.5c-0.1-3.3-1.9-4.2-3.8-4.2c-1.1,0-1.8,0.6-1.8,1.4
					c0,1.7,2.1,2.2,4.6,2.7c3.3,0.7,7.6,2.1,7.6,6.4s-3.8,5.9-7.2,5.9c-2,0-4.8-0.7-5.6-3.6l0.2,3.3h-4.5V106h5.4
					c0,3.1,1.4,4.4,4.2,4.4c1.3,0,2-0.6,2-1.5c0-1.8-1.8-2.1-5-2.9c-3.2-0.7-7-2-7-6.4C692.4,96.3,695.4,93.8,698.7,93.8
					 M698.7,87.8c-6.7,0-12.2,5.3-12.2,11.9c0,1.4,0.2,3,0.8,4.5c-0.2,0.6-0.3,1.2-0.3,1.9v7.1c0,3.3,2.7,6,6,6h4.5
					c0.6,0,1.1-0.1,1.6-0.2c1.2,0.3,2.4,0.5,3.7,0.5c7.8,0,13.2-4.9,13.2-11.9c0-1.6-0.3-3.5-1.2-5.2c0.1-0.4,0.1-0.7,0.1-1.1v-7
					c0-3.3-2.7-6-6-6h-4.5c-0.6,0-1.1,0.1-1.7,0.2C701.5,88,700.2,87.8,698.7,87.8L698.7,87.8z"/>
			</g>
			<g>
				<path class="st2" d="M731.8,116.4c-7.7,0-15.5-5.6-15.5-16.2c0-10.4,8.1-16,15.6-16c1.9,0,3.7,0.4,5.3,1
					c0.6-0.6,1.3-0.9,2.2-0.9h5.2c1.7,0,3,1.3,3,3v9.1h0.6c1.7,0,3,1.3,3,3v4.3c0,1.7-1.3,3-3,3h-0.6v6.1c0,1.7-1.3,3-3,3h-3.5
					c-0.8,0-1.6-0.3-2.1-0.9c-0.1-0.1-0.1-0.1-0.1-0.2C736.8,115.8,734.4,116.4,731.8,116.4z M733.4,95.6c-1.1,0-3.8,0.4-3.8,4.5
					c0,1.1,0.2,2,0.4,2.7v-3.4c0-1.7,1.3-3,3-3h2.6C734.9,95.7,733.9,95.6,733.4,95.6z"/>
				<path class="st2" d="M732,87.2c3,0,6.4,1.3,7.6,4.1l-0.2-4h5.2v10.4h-5c-0.5-3.4-3.2-5.1-6.2-5.1c-3.3,0-6.8,2.2-6.8,7.5
					c0,5.6,3.5,8.2,6.7,8.2c2.5,0,4.9-1.5,5.5-4.6h-5.7v-4.3h15.1v4.3h-3.6v9.1h-3.5c0-1.6-0.1-3.1-0.3-4.1c-1.5,3.1-5.2,4.8-9,4.8
					c-6,0-12.5-4-12.5-13.2C719.3,91.3,726.1,87.2,732,87.2 M732,81.2c-9,0-18.6,6.7-18.6,19c0,12.6,9.3,19.2,18.5,19.2
					c2.4,0,4.7-0.4,6.7-1.2c0.8,0.4,1.7,0.6,2.6,0.6h3.5c3.3,0,6-2.7,6-6v-3.6c2.1-0.9,3.6-3,3.6-5.5v-4.3c0-2.5-1.5-4.6-3.6-5.5
					v-6.6c0-3.3-2.7-6-6-6h-5.2c-0.9,0-1.8,0.2-2.6,0.6C735.3,81.4,733.7,81.2,732,81.2L732,81.2z"/>
			</g>
			<g>
				<path class="st2" d="M748.8,115.8c-1.7,0-3-1.3-3-3v-5.1c0-1.7,1.3-3,3-3h0.4v-2h-0.4c-1.7,0-3-1.3-3-3v-5.1c0-1.7,1.3-3,3-3
					h9.3c1.7,0,3,1.3,3,3v10.1c1.6,0.1,2.8,1.4,2.8,3v5.1c0,1.7-1.3,3-3,3H748.8z"/>
				<path class="st2" d="M758.1,94.6v13.1h2.8v5.1h-12.1v-5.1h3.4v-8h-3.4v-5.1H758.1 M758.1,88.6h-9.3c-3.3,0-6,2.7-6,6v5.1
					c0,1.5,0.6,2.9,1.5,4c-1,1.1-1.5,2.5-1.5,4v5.1c0,3.3,2.7,6,6,6h12.1c3.3,0,6-2.7,6-6v-5.1c0-2.1-1.1-4-2.8-5.1v-8
					C764.1,91.3,761.4,88.6,758.1,88.6L758.1,88.6z"/>
			</g>
			<g>
				<path class="st2" d="M755.1,96.9c-3.5,0-6.4-2.8-6.4-6.3c0-3.4,2.9-6.2,6.4-6.2s6.4,2.8,6.4,6.2
					C761.5,94.1,758.6,96.9,755.1,96.9z"/>
				<path class="st2" d="M755.1,87.4c1.9,0,3.4,1.4,3.4,3.2c0,1.8-1.5,3.3-3.4,3.3s-3.4-1.5-3.4-3.3
					C751.7,88.9,753.2,87.4,755.1,87.4 M755.1,81.4c-5.2,0-9.4,4.1-9.4,9.2s4.2,9.3,9.4,9.3s9.4-4.2,9.4-9.3
					C764.5,85.6,760.3,81.4,755.1,81.4L755.1,81.4z"/>
			</g>
			<g>
				<path class="st2" d="M762.2,115.8c-1.7,0-3-1.3-3-3v-5.1c0-1.7,1.3-3,3-3h0.4v-2h-1c-1.7,0-3-1.3-3-3v-2.8c0-1.7,1.3-3,3-3h1.8
					c0.1-6.4,4.8-9.7,9.5-9.7c5.3,0,8.7,2.9,8.7,7.5c0,1.8-0.8,3.4-2,4.5v3.5c0,1.7-1.3,3-3,3h-2v2h0.9c1.7,0,3,1.3,3,3v5.1
					c0,1.7-1.3,3-3,3H762.2z"/>
				<path class="st2" d="M772.9,87.2c3.5,0,5.7,1.5,5.7,4.5c0,1.7-1.3,2.9-3.1,2.9s-3-0.7-3-2.3c0-0.9,0.4-1.7,1.1-2.1
					c-0.3,0-0.6-0.1-0.9-0.1c-1.5,0-2.6,1.4-2.6,2.9c0,1.4,0.9,3,3.4,3h3.1v3.7h-5v8h3.9v5.1h-13.2v-5.1h3.4v-8h-4v-2.8h2
					c1.9,0,2.8-1.2,2.8-2.8C766.4,89.3,769.7,87.2,772.9,87.2 M772.9,81.2c-5.4,0-10.9,3.4-12.2,9.8c-2.9,0.4-5.1,2.9-5.1,5.9v2.8
					c0,1.7,0.7,3.3,1.9,4.4c-0.8,1-1.2,2.3-1.2,3.6v5.1c0,3.3,2.7,6,6,6h13.2c3.3,0,6-2.7,6-6v-5.1c0-1.3-0.4-2.4-1-3.4
					c1.3-1.1,2.1-2.7,2.1-4.6v-2.3c1.3-1.5,2-3.5,2-5.7C784.6,86.4,781,81.2,772.9,81.2L772.9,81.2z"/>
			</g>
			<g>
				<path class="st2" d="M787.1,116.4c-4.6,0-9.6-3.1-9.6-8.7v-5h-0.6c-1.7,0-3-1.3-3-3v-3c0-0.8,0.3-1.6,0.9-2.1
					c0.6-0.6,1.3-0.9,2.1-0.9h0.2c1.1,0,1.9-0.3,2.4-0.8c0.7-0.7,1-1.9,1-3.6c0-0.8,0.3-1.6,0.9-2.1c0.6-0.6,1.3-0.9,2.1-0.9h2.9
					c1.7,0,3,1.3,3,3v2.3h4.3c1.7,0,3,1.3,3,3v5.1c0,1-0.5,1.9-1.3,2.5c0.8,0.5,1.3,1.5,1.3,2.5v3.3
					C796.7,113.5,791.8,116.4,787.1,116.4z"/>
				<path class="st2" d="M786.4,89.3v5.3h7.3v5.1h-7.2v7.3c0,1.1,0.8,1.6,1.9,1.6s1.9-0.6,1.9-1.7v-2.3h3.5v3.3
					c0,3.8-3.4,5.5-6.6,5.5c-3.2,0-6.6-1.9-6.6-5.7v-8h-3.7v-3c0.1,0,0.1,0,0.2,0c3.8,0,6.4-2.2,6.4-7.4H786.4 M786.4,83.3h-2.9
					c-1.6,0-3.1,0.6-4.3,1.8c-1.1,1.1-1.8,2.7-1.7,4.3c0,0.7-0.1,1.1-0.1,1.3c-0.1,0-0.1,0-0.2,0h-0.1H777c-1.6,0-3.1,0.6-4.2,1.7
					c-1.1,1.1-1.8,2.7-1.8,4.3v3c0,2.4,1.5,4.6,3.6,5.5v2.6c0,6.7,5.4,11.7,12.6,11.7c7.2,0,12.6-5,12.6-11.5v-3.3
					c0-0.9-0.2-1.7-0.5-2.5c0.3-0.8,0.5-1.6,0.5-2.5v-5.1c0-3.3-2.7-6-6-6h-1.3C792,85.6,789.5,83.3,786.4,83.3L786.4,83.3z"/>
			</g>
			<g>
				<path class="st2" d="M816.9,116.4c-10.3,0-17-6.4-17-16.3c0-10.5,7.7-16,15.2-16c1.6,0,3.3,0.3,4.8,1c0.6-0.6,1.3-0.9,2.1-0.9
					h5.1c1.7,0,3,1.3,3,3v11c0,1.7-1.3,3-3,3h-1.4l3.2,1.8c1.1,0.6,1.7,1.9,1.5,3.2C829.5,112.2,823.8,116.4,816.9,116.4z
					 M816.6,95.9c-1,0-3.4,0.4-3.4,4.2c0,4.2,3.2,4.5,3.8,4.5c1.5,0,2.5-0.8,3.1-2.5c0.2-0.4,0.4-0.8,0.7-1.2
					c-1-0.5-1.7-1.4-1.7-2.6C819.1,96.3,817.7,95.9,816.6,95.9z"/>
				<path class="st2" d="M815.1,87.2c2.8,0,6.1,1.4,7.1,4.1l-0.2-4h5.1v11h-5c-0.2-3.6-2.8-5.4-5.5-5.4c-3.1,0-6.4,2.1-6.4,7.2
					s3.5,7.5,6.8,7.5c2.5,0,4.8-1.3,5.9-4.5l4.6,2.6c-0.8,4.2-4.9,7.8-10.7,7.8c-9,0-14-5.4-14-13.3
					C802.9,91.1,809.5,87.2,815.1,87.2 M815.1,81.2c-8.8,0-18.2,6.7-18.2,19c0,11.5,8,19.3,20,19.3c8.4,0,15.3-5.2,16.6-12.7
					c0.3-1.8-0.2-3.7-1.4-5c0.7-1,1.1-2.2,1.1-3.4v-11c0-3.3-2.7-6-6-6h-5.1c-0.9,0-1.7,0.2-2.5,0.5
					C818.1,81.4,816.6,81.2,815.1,81.2L815.1,81.2z M817.1,101.6c-0.3,0-0.8,0-0.8-1.5c0-0.2,0-0.4,0-0.6
					C816.5,100.2,816.7,100.9,817.1,101.6C817.1,101.5,817.1,101.5,817.1,101.6L817.1,101.6L817.1,101.6z"/>
			</g>
			<g>
				<path class="st2" d="M835.7,116.4c-5.4,0-9.5-3.8-9.5-8.7c0-1.5,0.4-3.1,1.5-4.6c-0.3-0.4-0.5-0.8-0.5-1.2
					c-0.2-1.1-0.2-1.6-0.2-2.1c0-5.4,4.5-8.9,11.5-8.9c6.9,0,11.5,3.7,11.5,9.2c0,1,0,1.9-0.1,2.7h0.8c1.7,0,3,1.3,3,3v1.8
					c0,6.4-3.9,8.6-7.5,8.6c-1.9,0-3.5-0.6-4.7-1.7C839.8,115.7,837.9,116.4,835.7,116.4z"/>
				<path class="st2" d="M838.4,93.8c4.4,0,8.5,1.9,8.5,6.2c0,3.4-0.3,5.2-0.3,7.7c0,0.6,0.2,0.8,0.5,0.8c0.2,0,0.7,0,0.7-1.1v-1.7
					h2.8v1.8c0,3.4-1.4,5.6-4.5,5.6c-1.6,0-3.8-0.6-3.8-4.1c0-0.9,0-1.4,0.1-2H842c-0.4,3.9-3,6.3-6.3,6.3c-3.5,0-6.5-2.1-6.5-5.7
					c0-3.3,2.9-5.8,9-5.8c0.7,0,1.5,0,2.4,0.1v-1.5c0-1.4-1-2-2.5-2c-1.3,0-2.1,0.7-2.1,2.8h-6c-0.2-0.9-0.2-1.3-0.2-1.5
					C829.9,95.6,833.9,93.8,838.4,93.8 M837.4,108.5c1.3,0,3-0.8,3.2-4.3c-0.6-0.1-1.1-0.1-1.6-0.1c-2.8,0-3.5,1.5-3.5,2.6
					C835.4,107.9,836.3,108.5,837.4,108.5 M838.4,87.8c-8.7,0-14.5,4.8-14.5,11.9c0,0.6,0,1.3,0.3,2.7c0,0.2,0.1,0.3,0.1,0.5
					c-0.7,1.5-1.1,3.1-1.1,4.8c0,6.7,5.4,11.7,12.5,11.7c2,0,3.9-0.5,5.6-1.4c1.4,0.7,3,1.1,4.8,1.1c5.2,0,10.5-3.6,10.5-11.6v-1.8
					c0-2.5-1.5-4.6-3.7-5.5v-0.1C852.9,92.8,846.9,87.8,838.4,87.8L838.4,87.8z"/>
			</g>
			<g>
				<path class="st2" d="M851,115.8c-1.7,0-3-1.3-3-3v-5.1c0-1.7,1.3-3,3-3h0.4v-2H851c-1.7,0-3-1.3-3-3v-5.1c0-1.7,1.3-3,3-3h8.1
					c0.6,0,1.1,0.2,1.6,0.4c1.3-0.8,2.7-1.2,4.3-1.2c5.1,0,7.8,3.7,7.8,7.3c0,3.3-2.4,6.7-6.5,6.9c1,0.5,1.6,1.5,1.6,2.7v5.1
					c0,1.7-1.3,3-3,3C864.9,115.8,851,115.8,851,115.8z M863.7,104.6c-0.1,0-0.3-0.1-0.4-0.1v0.1H863.7z"/>
				<path class="st2" d="M864.9,93.8c3.3,0,4.8,2.2,4.8,4.3c0,1.9-1.4,3.9-3.9,3.9c-2,0-3.4-1.4-3.4-3.2c0-0.7,0.1-1.2,0.4-1.6
					c-1.5,0.8-2.5,2.5-2.5,5.5v5h4.5v5.1H851v-5.1h3.4v-8H851v-5.1h8.1c0,1.4-0.3,3.7-0.5,5.2h0.4C859.5,96.7,861.7,93.8,864.9,93.8
					 M864.9,87.8c-1.6,0-3.1,0.3-4.5,0.9c-0.4-0.1-0.9-0.2-1.4-0.2h-8.1c-3.3,0-6,2.7-6,6v5.1c0,1.5,0.6,2.9,1.5,4
					c-0.9,1.1-1.5,2.5-1.5,4v5.1c0,3.3,2.7,6,6,6h13.8c3.3,0,6-2.7,6-6v-5.1c0-0.3,0-0.6-0.1-0.9c3-1.7,5-4.9,5-8.6
					C875.7,93.1,871.9,87.8,864.9,87.8L864.9,87.8z"/>
			</g>
			<g>
				<path class="st2" d="M879.2,116.3c-6.5,0-11.8-5.7-11.8-12.7c0-6.9,4.5-12,10.8-12.4v-3.4c0-1.7,1.3-3,3-3h9.3c1.7,0,3,1.3,3,3
					v16.7h0.4c1.7,0,3,1.3,3,3v5.1c0,1.7-1.3,3-3,3H886c-0.7,0-1.3-0.2-1.8-0.6C882.7,115.9,881,116.3,879.2,116.3z M880.5,101.3
					C880.4,101.3,880.4,101.3,880.5,101.3c-0.1,0.1-0.5,0.8-0.5,2.4c0,1.5,0.3,2,0.4,2.1c0,0,0.1,0,0.3,0c0.3,0,0.5,0,0.5-0.1
					c0.1-0.1,0.3-0.7,0.3-2.1C881.5,101.3,881,101.3,880.5,101.3z"/>
				<path class="st2" d="M890.4,87.9v19.7h3.4v5.1h-7.9c0-0.7,0.1-2.8,0.4-3.7c-0.9,2.4-3.7,4.2-7.1,4.2c-4.9,0-8.8-4.3-8.8-9.7
					c0-5.8,3.8-9.4,8.5-9.4c3.2,0,5.7,1.4,6.5,4c-0.1-1.3-0.2-4-0.3-5.2h-4v-5.1L890.4,87.9 M880.7,108.8c2.7,0,3.8-1.5,3.8-5.1
					s-1.4-5.4-4-5.4c-2.3,0-3.5,2.1-3.5,5.4C877,106.9,878.3,108.8,880.7,108.8 M890.4,81.9h-9.3c-3.3,0-6,2.7-6,6v0.8
					c-6.3,1.7-10.8,7.5-10.8,14.9c0,8.6,6.6,15.7,14.8,15.7c1.7,0,3.4-0.3,5-0.8c0.6,0.2,1.2,0.3,1.8,0.3h7.9c3.3,0,6-2.7,6-6v-5.1
					c0-2.4-1.4-4.5-3.4-5.4V87.9C896.4,84.6,893.8,81.9,890.4,81.9L890.4,81.9z M883.1,102.6L883.1,102.6L883.1,102.6L883.1,102.6z
					 M878.4,102.7L878.4,102.7L878.4,102.7L878.4,102.7z"/>
			</g>
			<g>
				<path class="st2" d="M248,160.4c-5.4,0-9.5-3.8-9.5-8.7c0-1.5,0.4-3.1,1.5-4.6c-0.3-0.4-0.5-0.8-0.5-1.2
					c-0.2-1.1-0.2-1.6-0.2-2.1c0-5.4,4.5-8.9,11.5-8.9c6.9,0,11.5,3.7,11.5,9.2c0,1,0,1.9-0.1,2.7h0.8c1.7,0,3,1.3,3,3v1.8
					c0,6.4-3.9,8.6-7.5,8.6c-1.9,0-3.5-0.6-4.7-1.7C252.2,159.7,250.2,160.4,248,160.4z"/>
				<path class="st2" d="M250.7,137.8c4.4,0,8.5,1.9,8.5,6.2c0,3.4-0.3,5.2-0.3,7.7c0,0.6,0.2,0.8,0.5,0.8c0.2,0,0.7,0,0.7-1.1v-1.7
					h2.8v1.8c0,3.4-1.4,5.6-4.5,5.6c-1.6,0-3.8-0.6-3.8-4.1c0-0.9,0-1.4,0.1-2h-0.4c-0.4,3.9-3,6.3-6.3,6.3c-3.5,0-6.5-2.1-6.5-5.7
					c0-3.3,2.9-5.8,9-5.8c0.7,0,1.5,0,2.4,0.1v-1.5c0-1.4-1-2-2.5-2c-1.3,0-2.1,0.7-2.1,2.8h-6c-0.2-0.9-0.2-1.3-0.2-1.5
					C242.2,139.6,246.2,137.8,250.7,137.8 M249.7,152.5c1.3,0,3-0.8,3.2-4.3c-0.6-0.1-1.1-0.1-1.6-0.1c-2.8,0-3.5,1.5-3.5,2.6
					C247.7,151.9,248.6,152.5,249.7,152.5 M250.7,131.8c-8.7,0-14.5,4.8-14.5,11.9c0,0.6,0,1.3,0.3,2.7c0,0.2,0.1,0.3,0.1,0.5
					c-0.7,1.5-1.1,3.1-1.1,4.8c0,6.7,5.4,11.7,12.5,11.7c2,0,3.9-0.5,5.6-1.4c1.4,0.7,3,1.1,4.8,1.1c5.2,0,10.5-3.6,10.5-11.6v-1.8
					c0-2.5-1.5-4.6-3.7-5.5v-0.1C265.2,136.8,259.2,131.8,250.7,131.8L250.7,131.8z"/>
			</g>
			<g>
				<path class="st2" d="M276.1,159.8c-0.1,0-0.3,0-0.4,0c-0.1,0-0.3,0-0.4,0h-12c-1.7,0-3-1.3-3-3v-5.1c0-1.7,1.3-3,3-3h0.4v-2
					h-0.4c-1.7,0-3-1.3-3-3v-5.1c0-1.7,1.3-3,3-3h7.8c0.7,0,1.3,0.2,1.8,0.6c1.5-0.9,3.3-1.4,5.3-1.4c5.9,0,9.3,3.6,9.3,9.8v4.1
					c1.3,0.3,2.2,1.5,2.2,2.9v5.1c0,1.7-1.3,3-3,3L276.1,159.8L276.1,159.8z M275.7,148.7C275.8,148.7,275.8,148.7,275.7,148.7
					l0.1-1.6c0-0.1,0-0.3,0-0.4c-0.1,0-0.1,0-0.2,0c0,0.1,0,0.2,0,0.4v1.5C275.6,148.7,275.7,148.7,275.7,148.7z"/>
				<path class="st2" d="M278.3,137.8c4.6,0,6.3,2.6,6.3,6.8v7h2.2v5.1h-10.7v-5.1h2.7V147c0-2.8-0.6-3.4-2.5-3.4
					c-2.3,0-3.7,1-3.7,3.5v4.5h2.7v5.1h-12v-5.1h3.4v-8h-3.4v-5.1h7.8c0,1.4-0.2,5.6-0.5,6.9h0.4
					C271.7,140.4,274.3,137.8,278.3,137.8 M278.3,131.8c-2,0-3.7,0.4-5.3,1.1c-0.6-0.2-1.2-0.3-1.8-0.3h-7.8c-3.3,0-6,2.7-6,6v5.1
					c0,1.5,0.6,2.9,1.5,4c-0.9,1.1-1.5,2.5-1.5,4v5.1c0,3.3,2.7,6,6,6h12c0.1,0,0.3,0,0.4,0c0.1,0,0.3,0,0.4,0h10.7c3.3,0,6-2.7,6-6
					v-5.1c0-1.9-0.9-3.5-2.2-4.6v-2.4C290.7,136.7,286,131.8,278.3,131.8L278.3,131.8z"/>
			</g>
			<g>
				<path class="st2" d="M296.8,160.3c-6.5,0-11.8-5.7-11.8-12.7c0-6.9,4.5-12,10.8-12.4v-3.4c0-1.7,1.3-3,3-3h9.3c1.7,0,3,1.3,3,3
					v16.7h0.4c1.7,0,3,1.3,3,3v5.1c0,1.7-1.3,3-3,3h-7.9c-0.7,0-1.3-0.2-1.8-0.6C300.3,159.9,298.6,160.3,296.8,160.3z M298.1,145.3
					c-0.1,0-0.1,0-0.1,0c0,0.1-0.4,0.8-0.4,2.4c0,1.5,0.3,2,0.4,2.1c0,0,0.1,0,0.3,0c0.3,0,0.5,0,0.5-0.1c0.1-0.1,0.3-0.7,0.3-2.1
					C299.1,145.3,298.5,145.3,298.1,145.3z"/>
				<path class="st2" d="M308,131.9v19.7h3.4v5.1h-7.9c0-0.7,0.1-2.8,0.4-3.7c-0.9,2.4-3.7,4.2-7.1,4.2c-4.9,0-8.8-4.3-8.8-9.7
					c0-5.8,3.8-9.4,8.5-9.4c3.2,0,5.7,1.4,6.5,4c-0.1-1.3-0.2-4-0.3-5.2h-4v-5.1L308,131.9 M298.3,152.8c2.7,0,3.8-1.5,3.8-5.1
					s-1.4-5.4-4-5.4c-2.3,0-3.5,2.1-3.5,5.4C294.6,150.9,295.8,152.8,298.3,152.8 M308,125.9h-9.3c-3.3,0-6,2.7-6,6v0.8
					c-6.3,1.7-10.8,7.5-10.8,14.9c0,8.6,6.6,15.7,14.8,15.7c1.7,0,3.4-0.3,5-0.8c0.6,0.2,1.2,0.3,1.8,0.3h7.9c3.3,0,6-2.7,6-6v-5.1
					c0-2.4-1.4-4.5-3.4-5.4V132C314,128.6,311.3,125.9,308,125.9L308,125.9z M300.6,146.6L300.6,146.6L300.6,146.6L300.6,146.6z
					 M296,146.7L296,146.7L296,146.7L296,146.7z"/>
			</g>
			<g>
				<path class="st2" d="M327.1,159.8c-1.7,0-3-1.3-3-3v-5.1c0-1.7,1.3-3,3-3h1.5v-8.6h-1.5c-1.7,0-3-1.3-3-3V132c0-1.7,1.3-3,3-3
					h25.2c1.7,0,3,1.3,3,3v10.4c0,0.8-0.3,1.5-0.8,2c0.5,0.5,0.8,1.2,0.8,2v10.5c0,1.7-1.3,3-3,3L327.1,159.8L327.1,159.8z"/>
				<path class="st2" d="M352.2,131.9v10.4h-4.1v-1.6c0-2.3-0.7-3.6-3.8-3.6h-6v5h7.6v4.6h-7.6v5.1h6c3.1,0,3.8-1.4,3.8-3.6v-1.7
					h4.1V157H327v-5.1h4.5v-14.6H327v-5.1h25.2 M352.2,125.9H327c-3.3,0-6,2.7-6,6v5.1c0,2.8,1.9,5.2,4.5,5.8v3
					c-2.6,0.7-4.5,3-4.5,5.8v5.1c0,3.3,2.7,6,6,6h25.2c3.3,0,6-2.7,6-6v-10.5c0-0.7-0.1-1.4-0.3-2c0.2-0.6,0.3-1.3,0.3-2v-10.4
					C358.2,128.6,355.5,125.9,352.2,125.9L352.2,125.9z"/>
			</g>
			<g>
				<path class="st2" d="M366.8,159.8c-0.1,0-0.3,0-0.4,0s-0.3,0-0.4,0h-12c-1.7,0-3-1.3-3-3v-5.1c0-1.7,1.3-3,3-3h0.4v-2H354
					c-1.7,0-3-1.3-3-3v-5.1c0-1.7,1.3-3,3-3h7.8c0.7,0,1.3,0.2,1.8,0.6c1.5-0.9,3.3-1.4,5.3-1.4c5.9,0,9.3,3.6,9.3,9.8v4.1
					c1.3,0.3,2.2,1.5,2.2,2.9v5.1c0,1.7-1.3,3-3,3L366.8,159.8L366.8,159.8z M366.4,148.7L366.4,148.7l0.1-1.6c0-0.1,0-0.3,0-0.4
					c-0.1,0-0.1,0-0.2,0c0,0.1,0,0.2,0,0.4v1.5C366.3,148.7,366.3,148.7,366.4,148.7z"/>
				<path class="st2" d="M369,137.8c4.6,0,6.3,2.6,6.3,6.8v7h2.2v5.1h-10.7v-5.1h2.7V147c0-2.8-0.6-3.4-2.5-3.4
					c-2.3,0-3.7,1-3.7,3.5v4.5h2.7v5.1h-12v-5.1h3.4v-8H354v-5.1h7.8c0,1.4-0.2,5.6-0.5,6.9h0.4C362.3,140.4,364.9,137.8,369,137.8
					 M369,131.8c-2,0-3.7,0.4-5.3,1.1c-0.6-0.2-1.2-0.3-1.8-0.3h-7.8c-3.3,0-6,2.7-6,6v5.1c0,1.5,0.6,2.9,1.5,4
					c-0.9,1.1-1.5,2.5-1.5,4v5.1c0,3.3,2.7,6,6,6h12c0.1,0,0.3,0,0.4,0s0.3,0,0.4,0h10.7c3.3,0,6-2.7,6-6v-5.1
					c0-1.9-0.9-3.5-2.2-4.6v-2.4C381.3,136.7,376.6,131.8,369,131.8L369,131.8z"/>
			</g>
			<g>
				<path class="st2" d="M387.8,160.4c-4.6,0-9.6-3.1-9.6-8.7v-5h-0.6c-1.7,0-3-1.3-3-3v-3c0-0.8,0.3-1.6,0.9-2.1
					c0.6-0.6,1.3-0.9,2.1-0.9h0.2c1.1,0,1.9-0.3,2.4-0.8c0.7-0.7,1-1.9,1-3.6c0-0.8,0.3-1.6,0.9-2.1c0.6-0.6,1.3-0.9,2.1-0.9h2.9
					c1.7,0,3,1.3,3,3v2.3h4.3c1.7,0,3,1.3,3,3v5.1c0,1-0.5,1.9-1.3,2.5c0.8,0.5,1.3,1.5,1.3,2.5v3.3
					C397.4,157.5,392.6,160.4,387.8,160.4z"/>
				<path class="st2" d="M387.1,133.3v5.3h7.3v5.1h-7.2v7.3c0,1.1,0.8,1.6,1.9,1.6s1.9-0.6,1.9-1.7v-2.3h3.5v3.3
					c0,3.8-3.4,5.5-6.6,5.5s-6.6-1.9-6.6-5.7v-8h-3.6v-3c0.1,0,0.1,0,0.2,0c3.8,0,6.4-2.2,6.4-7.4H387.1 M387.1,127.3h-2.9
					c-1.6,0-3.1,0.6-4.3,1.8c-1.1,1.1-1.8,2.7-1.7,4.3c0,0.7-0.1,1.1-0.1,1.3c-0.1,0-0.1,0-0.2,0h-0.1h-0.1c-1.6,0-3.1,0.6-4.2,1.7
					c-1.1,1.1-1.8,2.7-1.8,4.3v3c0,2.4,1.5,4.6,3.6,5.5v2.6c0,6.7,5.4,11.7,12.6,11.7s12.6-5,12.6-11.5v-3.3c0-0.9-0.2-1.7-0.5-2.5
					c0.3-0.8,0.5-1.6,0.5-2.5v-5.1c0-3.3-2.7-6-6-6h-1.3C392.7,129.6,390.2,127.3,387.1,127.3L387.1,127.3z"/>
			</g>
			<g>
				<path class="st2" d="M406.1,160.4c-7.7,0-13.1-5.3-13.1-12.8c0-8.3,6.8-12.7,13.3-12.7c5.8,0,11.8,3.7,11.8,10.7
					c0,0.9,0,2-0.3,3.4c-0.1,0.6-0.4,1.1-0.8,1.6c0.4,0.8,0.5,1.8,0.1,2.7C414.8,157.9,411.1,160.4,406.1,160.4z"/>
				<path class="st2" d="M406.3,137.8c4.4,0,8.8,2.6,8.8,7.7c0,0.9,0,1.7-0.2,2.9h-12.3c0.2,3.1,2.2,4.6,5.1,4.6
					c2,0,3.4-0.8,4.2-2.8l2.6,1.6c-1.7,3.6-4.3,5.5-8.2,5.5c-6.4,0-10.1-4.3-10.1-9.8C396.1,141,401.4,137.8,406.3,137.8
					 M402.7,145.2h7.2c0-2.2-1.3-3.3-3.3-3.3C404.5,142,403.1,143.4,402.7,145.2 M406.3,131.8c-7.9,0-16.3,5.5-16.3,15.7
					c0,9.2,6.8,15.8,16.1,15.8c4.3,0,10.2-1.6,13.7-8.9c0.5-1.1,0.7-2.4,0.5-3.5c0.2-0.5,0.4-1,0.5-1.5c0.3-1.7,0.3-2.9,0.3-3.9
					C421.1,137.7,414.8,131.8,406.3,131.8L406.3,131.8z"/>
			</g>
			<g>
				<path class="st2" d="M416.1,159.8c-1.7,0-3-1.3-3-3v-5.1c0-1.7,1.3-3,3-3h0.4v-2h-0.4c-1.7,0-3-1.3-3-3v-5.1c0-1.7,1.3-3,3-3
					h8.1c0.6,0,1.1,0.2,1.6,0.4c1.3-0.8,2.7-1.2,4.3-1.2c5.1,0,7.8,3.7,7.8,7.3c0,3.3-2.4,6.7-6.5,6.9c1,0.5,1.6,1.5,1.6,2.7v5.1
					c0,1.7-1.3,3-3,3L416.1,159.8L416.1,159.8z M428.8,148.6c-0.1,0-0.3-0.1-0.4-0.1v0.1H428.8z"/>
				<path class="st2" d="M430,137.8c3.3,0,4.8,2.2,4.8,4.3c0,1.9-1.4,3.9-3.9,3.9c-2,0-3.4-1.4-3.4-3.2c0-0.7,0.1-1.2,0.4-1.6
					c-1.5,0.8-2.5,2.5-2.5,5.5v5h4.5v5.1h-13.8v-5.1h3.4v-8h-3.4v-5.1h8.1c0,1.4-0.3,3.7-0.5,5.2h0.4
					C424.6,140.7,426.7,137.8,430,137.8 M430,131.8c-1.6,0-3.1,0.3-4.5,0.9c-0.4-0.1-0.9-0.2-1.4-0.2H416c-3.3,0-6,2.7-6,6v5.1
					c0,1.5,0.6,2.9,1.5,4c-0.9,1.1-1.5,2.5-1.5,4v5.1c0,3.3,2.7,6,6,6h13.9c3.3,0,6-2.7,6-6v-5.1c0-0.3,0-0.6-0.1-0.9
					c3-1.7,5-4.9,5-8.6C440.8,137.1,437,131.8,430,131.8L430,131.8z"/>
			</g>
			<g>
				<path class="st2" d="M453.3,160.4c-7.5,0-13.5-5.8-13.5-12.9c0-7.1,5.9-12.7,13.5-12.7s13.5,5.6,13.5,12.7
					C466.9,154.5,460.7,160.4,453.3,160.4z M452.8,150.2c0.1,0,0.3,0,0.5,0s0.4,0,0.5,0c0.1-0.4,0.1-1,0.1-2.3s-0.1-2-0.2-2.3
					c-0.1,0-0.3,0-0.5,0s-0.3,0-0.5,0c-0.1,0.3-0.2,0.9-0.2,2.3C452.6,149.2,452.7,149.8,452.8,150.2z"/>
				<path class="st2" d="M453.3,137.8c5.9,0,10.5,4.1,10.5,9.7c0,5.3-4.7,9.9-10.5,9.9c-5.9,0-10.5-4.6-10.5-9.9
					C442.8,141.9,447.7,137.8,453.3,137.8 M453.3,153.2c2.7,0,3.6-0.7,3.6-5.3c0-4.2-0.9-5.3-3.6-5.3c-2.5,0-3.7,0.9-3.7,5.3
					C449.6,152.3,450.6,153.2,453.3,153.2 M453.3,131.8c-9.3,0-16.5,6.9-16.5,15.7s7.4,15.9,16.5,15.9s16.5-7.1,16.5-15.9
					C469.9,138.7,462.6,131.8,453.3,131.8L453.3,131.8z M453.1,147.2L453.1,147.2L453.1,147.2L453.1,147.2z"/>
			</g>
			<g>
				<path class="st2" d="M474,160.3c-6,0-9.4-3.4-9.4-9.5v-4.2c-1.5-0.1-2.7-1.4-2.7-3v-5.1c0-1.7,1.3-3,3-3h8.7
					c0.3,0,0.7,0.1,1,0.2c0.3-0.1,0.6-0.2,1-0.2h10.1c1.7,0,3,1.3,3,3v10.1c1.6,0.1,2.9,1.4,2.9,3v5.1c0,1.7-1.3,3-3,3h-7.3
					c-0.8,0-1.5-0.3-2.1-0.9C477.5,159.9,475.7,160.3,474,160.3z M476.6,148.6c0,0.1,0,0.3,0,0.4h0.1c0-0.1,0-0.2,0-0.4v-1.9h-0.1
					V148.6z"/>
				<path class="st2" d="M485.7,138.6v13.1h2.9v5.1h-7.3c0.1-1.5,0.3-5.6,0.6-6.5h-0.4c-0.9,5.1-4.5,7.1-7.4,7.1
					c-4.6,0-6.4-2.3-6.4-6.5v-7.2h-2.8v-5.1h8.7v10c0,2.8,0.5,3.4,2.5,3.4c2.3,0,3.6-1,3.6-3.5v-4.8h-4.2v-5.1H485.7 M485.7,132.6
					h-10.1c-0.3,0-0.7,0-1,0.1c-0.3-0.1-0.6-0.1-1-0.1h-8.7c-3.3,0-6,2.7-6,6v5.1c0,2.1,1.1,4,2.7,5v2.2c0,7.7,4.7,12.5,12.4,12.5
					c1.6,0,3.3-0.3,4.9-1c0.7,0.3,1.5,0.4,2.2,0.4h7.3c3.3,0,6-2.7,6-6v-5.1c0-2.2-1.1-4.1-2.9-5.1v-7.9
					C491.7,135.3,489,132.6,485.7,132.6L485.7,132.6z"/>
			</g>
			<g>
				<path class="st2" d="M489.2,159.8c-1.7,0-3-1.3-3-3v-5.1c0-1.7,1.3-3,3-3h0.4v-2h-0.4c-1.7,0-3-1.3-3-3v-5.1c0-1.7,1.3-3,3-3
					h8.1c0.6,0,1.1,0.2,1.6,0.4c1.3-0.8,2.7-1.2,4.3-1.2c5.1,0,7.8,3.7,7.8,7.3c0,3.3-2.4,6.7-6.5,6.9c1,0.5,1.6,1.5,1.6,2.7v5.1
					c0,1.7-1.3,3-3,3L489.2,159.8L489.2,159.8z M501.9,148.6c-0.1,0-0.3-0.1-0.4-0.1v0.1H501.9z"/>
				<path class="st2" d="M503.1,137.8c3.3,0,4.8,2.2,4.8,4.3c0,1.9-1.4,3.9-3.9,3.9c-2,0-3.4-1.4-3.4-3.2c0-0.7,0.1-1.2,0.4-1.6
					c-1.5,0.8-2.5,2.5-2.5,5.5v5h4.5v5.1h-13.8v-5.1h3.4v-8h-3.4v-5.1h8.1c0,1.4-0.3,3.7-0.5,5.2h0.4
					C497.7,140.7,499.9,137.8,503.1,137.8 M503.1,131.8c-1.6,0-3.1,0.3-4.5,0.9c-0.4-0.1-0.9-0.2-1.4-0.2h-8.1c-3.3,0-6,2.7-6,6v5.1
					c0,1.5,0.6,2.9,1.5,4c-0.9,1.1-1.5,2.5-1.5,4v5.1c0,3.3,2.7,6,6,6h13.8c3.3,0,6-2.7,6-6v-5.1c0-0.3,0-0.6-0.1-0.9
					c3-1.7,5-4.9,5-8.6C513.9,137.1,510.1,131.8,503.1,131.8L503.1,131.8z"/>
			</g>
			<g>
				<path class="st2" d="M529.9,160.4c-1.9,0-3.7-0.3-5.2-1c-0.6,0.5-1.3,0.8-2,0.8h-5c-1.7,0-3-1.3-3-3v-9.8c0-1.2,0.7-2.3,1.8-2.7
					c-1-1.5-1.6-3.4-1.6-5.9c0-6.1,5-10.6,11.8-10.6c1.7,0,3.2,0.3,4.6,0.9c0.6-0.5,1.3-0.8,2-0.8h5c1.7,0,3,1.3,3,3v10
					c0,0.7-0.2,1.3-0.6,1.8c1.2,1.5,2,3.6,2,6.3C542.5,156.5,536,160.4,529.9,160.4z"/>
				<path class="st2" d="M526.5,131.2c3.4,0,5.9,1.6,6.9,4.1l-0.3-4h5v10h-5.9c-0.1-3.9-2.1-5.9-4.9-5.9c-1.7,0-2.7,1.1-2.7,2.5
					c0,1.6,0.8,2.5,5.9,3.5c5.6,1,9,3.1,9,8.1c0,5.1-5,7.9-9.6,7.9c-3.2,0-6.2-1.1-7.6-4.2l0.3,4h-5v-9.8h6.1
					c0.1,4.2,2.9,5.9,5.3,5.9c2,0,3.6-1.1,3.6-3c0-2.2-2.2-2.6-5.1-3.1c-5.6-1.1-9.9-2.8-9.9-8.4
					C517.7,134.2,521.5,131.2,526.5,131.2 M526.5,125.2c-8.6,0-14.8,5.7-14.8,13.6c0,2,0.3,3.8,0.9,5.2c-0.7,1-1,2.1-1,3.4v9.8
					c0,3.3,2.7,6,6,6h5c0.8,0,1.6-0.2,2.4-0.5c1.5,0.4,3.1,0.7,4.9,0.7c7.7,0,15.6-5.2,15.6-13.9c0-2.1-0.4-4.4-1.6-6.6
					c0.1-0.5,0.2-1,0.2-1.6v-10c0-3.3-2.7-6-6-6h-5c-0.8,0-1.6,0.2-2.4,0.5C529.5,125.4,528,125.2,526.5,125.2L526.5,125.2z"/>
			</g>
			<g>
				<path class="st2" d="M564.7,159.8c-1.3,0-2.5-0.9-2.9-2.2c-0.2-0.6-0.4-1.3-0.6-1.9c-0.2,0.7-0.4,1.3-0.6,1.9
					c-0.4,1.3-1.5,2.2-2.9,2.2H552c-1.2,0-2.3-0.7-2.8-1.9l-7.3-17.9h-1c-1.7,0-3-1.3-3-3v-5.1c0-1.7,1.3-3,3-3h13.5
					c0.2,0,0.4,0,0.6,0.1c0.2,0,0.4-0.1,0.6-0.1h11.8c0.2,0,0.4,0,0.6,0.1c0.2,0,0.4-0.1,0.6-0.1h12.8c1.7,0,3,1.3,3,3v5.1
					c0,1.7-1.3,3-3,3h-1.1l-7.3,17.9c-0.5,1.1-1.6,1.9-2.8,1.9H564.7z"/>
				<path class="st2" d="M581.5,131.9v5.1h-3.1l-8.1,19.7h-5.7c-1-3.7-2.6-8.6-3.4-12.6c-0.8,4-2.4,8.9-3.5,12.6H552l-8.1-19.7h-3
					v-5.1h13.5v5.1h-3.3l2.3,6.8c0.6,1.8,1.4,4.5,1.7,6.3c0.1-1.4,0.7-3.7,1.4-6.4l1.8-6.7h-2.7v-5.1h11.8v5.1h-2.7l1.8,6.8
					c0.7,2.6,1.2,4.9,1.4,6.3c0.3-1.8,1.1-4.5,1.7-6.3l2.3-6.8h-3.3v-5.1L581.5,131.9 M581.5,125.9h-12.8c-0.2,0-0.4,0-0.6,0
					s-0.4,0-0.6,0h-11.8c-0.2,0-0.4,0-0.6,0s-0.4,0-0.6,0H541c-3.3,0-6,2.7-6,6v5.1c0,3,2.2,5.4,5,5.9l6.6,16.1
					c0.9,2.3,3.1,3.7,5.6,3.7h5.7c1.3,0,2.5-0.4,3.4-1.1c1,0.7,2.2,1.1,3.4,1.1h5.7c2.4,0,4.6-1.5,5.6-3.7l6.6-16.1
					c2.8-0.5,5-2.9,5-5.9v-5.1C587.5,128.6,584.8,125.9,581.5,125.9L581.5,125.9z"/>
			</g>
			<g>
				<path class="st2" d="M582.1,159.8c-1.7,0-3-1.3-3-3v-5.1c0-1.7,1.3-3,3-3h1.5v-8.6h-1.5c-1.7,0-3-1.3-3-3V132c0-1.7,1.3-3,3-3
					h25.2c1.7,0,3,1.3,3,3v10.4c0,0.8-0.3,1.5-0.8,2c0.5,0.5,0.8,1.2,0.8,2v10.5c0,1.7-1.3,3-3,3L582.1,159.8L582.1,159.8z"/>
				<path class="st2" d="M607.3,131.9v10.4h-4.1v-1.6c0-2.3-0.7-3.6-3.8-3.6h-6v5h7.6v4.6h-7.6v5.1h6c3.1,0,3.8-1.4,3.8-3.6v-1.7
					h4.1V157h-25.2v-5.1h4.5v-14.6h-4.5v-5.1h25.2 M607.3,125.9h-25.2c-3.3,0-6,2.7-6,6v5.1c0,2.8,1.9,5.2,4.5,5.8v3
					c-2.6,0.7-4.5,3-4.5,5.8v5.1c0,3.3,2.7,6,6,6h25.2c3.3,0,6-2.7,6-6v-10.5c0-0.7-0.1-1.4-0.3-2c0.2-0.6,0.3-1.3,0.3-2v-10.4
					C613.3,128.6,610.6,125.9,607.3,125.9L607.3,125.9z"/>
			</g>
			<g>
				<path class="st2" d="M609.3,159.8c-1.7,0-3-1.3-3-3v-5.1c0-1.7,1.3-3,3-3h1.5v-8.6h-1.5c-1.7,0-3-1.3-3-3V132c0-1.7,1.3-3,3-3
					h25.2c1.7,0,3,1.3,3,3v10.4c0,0.8-0.3,1.5-0.8,2c0.5,0.5,0.8,1.2,0.8,2v10.5c0,1.7-1.3,3-3,3L609.3,159.8L609.3,159.8z"/>
				<path class="st2" d="M634.4,131.9v10.4h-4.1v-1.6c0-2.3-0.7-3.6-3.8-3.6h-6v5h7.6v4.6h-7.6v5.1h6c3.1,0,3.8-1.4,3.8-3.6v-1.7
					h4.1V157h-25.2v-5.1h4.5v-14.6h-4.5v-5.1h25.2 M634.4,125.9h-25.2c-3.3,0-6,2.7-6,6v5.1c0,2.8,1.9,5.2,4.5,5.8v3
					c-2.6,0.7-4.5,3-4.5,5.8v5.1c0,3.3,2.7,6,6,6h25.2c3.3,0,6-2.7,6-6v-10.5c0-0.7-0.1-1.4-0.3-2c0.2-0.6,0.3-1.3,0.3-2v-10.4
					C640.4,128.6,637.7,125.9,634.4,125.9L634.4,125.9z"/>
			</g>
			<g>
				<path class="st2" d="M641.7,159.8c-1.7,0-3-1.3-3-3v-5.1c0-1.7,1.3-3,3-3h1.5v-3.3c-0.5,1-1.5,1.7-2.7,1.7h-4.7
					c-1.7,0-3-1.3-3-3v-12.2c0-1.7,1.3-3,3-3h27.7c1.7,0,3,1.3,3,3v12.2c0,1.7-1.3,3-3,3h-4.7c-1.2,0-2.3-0.7-2.7-1.8v3.3h1.6
					c1.7,0,3,1.3,3,3v5.1c0,1.7-1.3,3-3,3h-16V159.8z"/>
				<path class="st2" d="M663.5,131.9v12.2h-4.7v-3.4c0-2.3-0.7-3.6-3.8-3.6h-2v14.6h4.6v5.1h-15.9v-5.1h4.5v-14.6h-1.9
					c-3.1,0-3.8,1.4-3.8,3.6v3.4h-4.7v-12.2H663.5 M663.5,125.9h-27.7c-3.3,0-6,2.7-6,6v12.2c0,3.3,2.7,6,6,6h0.1
					c-0.1,0.5-0.2,1-0.2,1.6v5.1c0,3.3,2.7,6,6,6h15.9c3.3,0,6-2.7,6-6v-5.1c0-0.5-0.1-1.1-0.2-1.6h0.1c3.3,0,6-2.7,6-6v-12.2
					C669.5,128.6,666.8,125.9,663.5,125.9L663.5,125.9z"/>
			</g>
			<g>
				<path class="st2" d="M674,160.4c-1.4,0-2.7-0.2-3.8-0.7c-0.5,0.3-1,0.4-1.5,0.4h-4.5c-1.7,0-3-1.3-3-3V150
					c0-0.7,0.2-1.3,0.6-1.9c-0.7-1.2-1.2-2.7-1.2-4.5c0-5,4.1-8.9,9.2-8.9c1.6,0,3,0.3,4.2,0.8c0.5-0.3,1-0.5,1.6-0.5h4.5
					c1.7,0,3,1.3,3,3v7c0,0.5-0.1,1.1-0.4,1.5c0.9,1.2,1.5,2.8,1.5,4.9C684.2,156.8,680.1,160.4,674,160.4z"/>
				<path class="st2" d="M669.8,137.8c3.4,0,5.4,1.6,6,4.1l-0.1-3.7h4.5v7h-5.5c-0.1-3.3-1.9-4.2-3.8-4.2c-1.1,0-1.8,0.6-1.8,1.4
					c0,1.7,2.1,2.2,4.6,2.7c3.3,0.7,7.6,2.1,7.6,6.4c0,4.3-3.8,5.9-7.2,5.9c-2,0-4.8-0.7-5.6-3.6l0.2,3.3h-4.5V150h5.4
					c0,3.1,1.4,4.4,4.2,4.4c1.3,0,2-0.6,2-1.5c0-1.8-1.8-2.1-5-2.9c-3.2-0.7-7-2-7-6.4C663.6,140.3,666.5,137.8,669.8,137.8
					 M669.8,131.8c-6.7,0-12.2,5.3-12.2,11.9c0,1.4,0.2,3,0.8,4.5c-0.2,0.6-0.3,1.2-0.3,1.9v7.1c0,3.3,2.7,6,6,6h4.5
					c0.6,0,1.1-0.1,1.6-0.2c1.2,0.3,2.4,0.5,3.7,0.5c7.8,0,13.2-4.9,13.2-11.9c0-1.6-0.3-3.5-1.2-5.2c0.1-0.4,0.1-0.7,0.1-1.1v-7
					c0-3.3-2.7-6-6-6h-4.5c-0.6,0-1.1,0.1-1.7,0.2C672.7,132,671.3,131.8,669.8,131.8L669.8,131.8z"/>
			</g>
			<g>
				<path class="st2" d="M692.1,160.4c-4.6,0-9.6-3.1-9.6-8.7v-5h-0.6c-1.7,0-3-1.3-3-3v-3c0-0.8,0.3-1.6,0.9-2.1
					c0.6-0.6,1.3-0.9,2.1-0.9h0.2c1.1,0,1.9-0.3,2.4-0.8c0.7-0.7,1-1.9,1-3.6c0-0.8,0.3-1.6,0.9-2.1c0.6-0.6,1.3-0.9,2.1-0.9h2.9
					c1.7,0,3,1.3,3,3v2.3h4.3c1.7,0,3,1.3,3,3v5.1c0,1-0.5,1.9-1.3,2.5c0.8,0.5,1.3,1.5,1.3,2.5v3.3
					C701.7,157.5,696.9,160.4,692.1,160.4z"/>
				<path class="st2" d="M691.4,133.3v5.3h7.3v5.1h-7.2v7.3c0,1.1,0.8,1.6,1.9,1.6s1.9-0.6,1.9-1.7v-2.3h3.5v3.3
					c0,3.8-3.4,5.5-6.6,5.5c-3.2,0-6.6-1.9-6.6-5.7v-8H682v-3c0.1,0,0.1,0,0.2,0c3.8,0,6.4-2.2,6.4-7.4H691.4 M691.4,127.3h-2.9
					c-1.6,0-3.1,0.6-4.3,1.8c-1.1,1.1-1.8,2.7-1.7,4.3c0,0.7-0.1,1.1-0.1,1.3c-0.1,0-0.1,0-0.2,0h-0.1H682c-1.6,0-3.1,0.6-4.2,1.7
					c-1.1,1.1-1.8,2.7-1.8,4.3v3c0,2.4,1.5,4.6,3.6,5.5v2.6c0,6.7,5.4,11.7,12.6,11.7c7.2,0,12.6-5,12.6-11.5v-3.3
					c0-0.9-0.2-1.7-0.5-2.5c0.3-0.8,0.5-1.6,0.5-2.5v-5.1c0-3.3-2.7-6-6-6h-1.3C697.1,129.6,694.5,127.3,691.4,127.3L691.4,127.3z"
					/>
			</g>
			<g>
				<path class="st2" d="M707,160.4c-5.4,0-9.5-3.8-9.5-8.7c0-1.5,0.4-3.1,1.5-4.6c-0.3-0.4-0.5-0.8-0.5-1.2
					c-0.2-1.1-0.2-1.6-0.2-2.1c0-5.4,4.5-8.9,11.5-8.9c6.9,0,11.5,3.7,11.5,9.2c0,1,0,1.9-0.1,2.7h0.8c1.7,0,3,1.3,3,3v1.8
					c0,6.4-3.9,8.6-7.5,8.6c-1.9,0-3.5-0.6-4.7-1.7C711.1,159.7,709.1,160.4,707,160.4z"/>
				<path class="st2" d="M709.6,137.8c4.4,0,8.5,1.9,8.5,6.2c0,3.4-0.3,5.2-0.3,7.7c0,0.6,0.2,0.8,0.5,0.8c0.2,0,0.7,0,0.7-1.1v-1.7
					h2.8v1.8c0,3.4-1.4,5.6-4.5,5.6c-1.6,0-3.8-0.6-3.8-4.1c0-0.9,0-1.4,0.1-2h-0.4c-0.4,3.9-3,6.3-6.3,6.3c-3.5,0-6.5-2.1-6.5-5.7
					c0-3.3,2.9-5.8,9-5.8c0.7,0,1.5,0,2.4,0.1v-1.5c0-1.4-1-2-2.5-2c-1.3,0-2.1,0.7-2.1,2.8h-6c-0.2-0.9-0.2-1.3-0.2-1.5
					C701.1,139.6,705.1,137.8,709.6,137.8 M708.6,152.5c1.3,0,3-0.8,3.2-4.3c-0.6-0.1-1.1-0.1-1.6-0.1c-2.8,0-3.5,1.5-3.5,2.6
					C706.6,151.9,707.5,152.5,708.6,152.5 M709.6,131.8c-8.7,0-14.5,4.8-14.5,11.9c0,0.6,0,1.3,0.3,2.7c0,0.2,0.1,0.3,0.1,0.5
					c-0.7,1.5-1.1,3.1-1.1,4.8c0,6.7,5.4,11.7,12.5,11.7c2,0,3.9-0.5,5.6-1.4c1.4,0.7,3,1.1,4.8,1.1c5.2,0,10.5-3.6,10.5-11.6v-1.8
					c0-2.5-1.5-4.6-3.7-5.5v-0.1C724.1,136.8,718.1,131.8,709.6,131.8L709.6,131.8z"/>
			</g>
			<g>
				<path class="st2" d="M734.2,159.8c-0.5,0-0.9-0.1-1.3-0.3c-0.4,0.2-0.8,0.3-1.3,0.3h-9.3c-1.7,0-3-1.3-3-3v-5.1c0-1.7,1.3-3,3-3
					h0.4v-8.6h-0.4c-1.7,0-3-1.3-3-3V132c0-1.7,1.3-3,3-3h9.3c1.7,0,3,1.3,3,3v3.7h10.3c1.7,0,3,1.3,3,3v5.1c0,1.7-1.3,3-3,3h-1.6
					l1.7,1.9h0.8c1.7,0,3,1.3,3,3v5.1c0,1.7-1.3,3-3,3L734.2,159.8L734.2,159.8z"/>
				<path class="st2" d="M731.6,131.9v15.3l4.1-3.4h-2.2v-5.1h11.4v5.1h-3.1l-3,2.4l4.9,5.5h2.1v5.1h-11.7v-5.1h1.9l-1.9-2.1
					l-2.7,2.1v5.1h-9.3v-5.1h3.4v-14.6h-3.4V132L731.6,131.9 M731.6,125.9h-9.3c-3.3,0-6,2.7-6,6v5.1c0,2.4,1.4,4.4,3.4,5.4v3.8
					c-2,1-3.4,3-3.4,5.4v5.1c0,3.3,2.7,6,6,6h9.3c0.5,0,0.9,0,1.3-0.1c0.4,0.1,0.9,0.1,1.3,0.1h11.7c3.3,0,6-2.7,6-6v-5.1
					c0-1.8-0.8-3.4-2-4.5c0.7-1,1.1-2.2,1.1-3.4v-5.1c0-3.3-2.7-6-6-6h-7.4v-0.7C737.6,128.6,734.9,125.9,731.6,125.9L731.6,125.9z"
					/>
			</g>
			<g>
				<path class="st2" d="M757,160.4c-7.7,0-13.1-5.3-13.1-12.8c0-8.3,6.8-12.7,13.3-12.7c5.8,0,11.8,3.7,11.8,10.7
					c0,0.9,0,2-0.3,3.4c-0.1,0.6-0.4,1.1-0.8,1.6c0.4,0.8,0.5,1.8,0.1,2.7C765.7,157.9,762,160.4,757,160.4z"/>
				<path class="st2" d="M757.2,137.8c4.4,0,8.8,2.6,8.8,7.7c0,0.9,0,1.7-0.2,2.9h-12.3c0.2,3.1,2.2,4.6,5.1,4.6
					c2,0,3.4-0.8,4.2-2.8l2.6,1.6c-1.7,3.6-4.3,5.5-8.2,5.5c-6.4,0-10.1-4.3-10.1-9.8C746.9,141,752.2,137.8,757.2,137.8
					 M753.5,145.2h7.2c0-2.2-1.3-3.3-3.3-3.3C755.3,142,753.9,143.4,753.5,145.2 M757.2,131.8c-7.9,0-16.3,5.5-16.3,15.7
					c0,9.2,6.8,15.8,16.1,15.8c4.3,0,10.2-1.6,13.7-8.9c0.5-1.1,0.7-2.4,0.5-3.5c0.2-0.5,0.4-1,0.5-1.5c0.3-1.7,0.3-2.9,0.3-3.9
					C771.9,137.7,765.6,131.8,757.2,131.8L757.2,131.8z"/>
			</g>
			<g>
				<path class="st2" d="M778.1,160.4c-1.4,0-2.7-0.2-3.8-0.7c-0.5,0.3-1,0.4-1.5,0.4h-4.5c-1.7,0-3-1.3-3-3V150
					c0-0.7,0.2-1.3,0.6-1.9c-0.7-1.2-1.2-2.7-1.2-4.5c0-5,4.1-8.9,9.2-8.9c1.6,0,3,0.3,4.2,0.8c0.5-0.3,1-0.5,1.6-0.5h4.5
					c1.7,0,3,1.3,3,3v7c0,0.5-0.1,1.1-0.4,1.5c0.9,1.2,1.5,2.8,1.5,4.9C788.4,156.8,784.3,160.4,778.1,160.4z"/>
				<path class="st2" d="M774,137.8c3.4,0,5.4,1.6,6,4.1l-0.1-3.7h4.5v7h-5.5c-0.1-3.3-1.9-4.2-3.8-4.2c-1.1,0-1.8,0.6-1.8,1.4
					c0,1.7,2.1,2.2,4.6,2.7c3.3,0.7,7.6,2.1,7.6,6.4c0,4.3-3.8,5.9-7.2,5.9c-2,0-4.8-0.7-5.6-3.6l0.2,3.3h-4.5V150h5.4
					c0,3.1,1.4,4.4,4.2,4.4c1.3,0,2-0.6,2-1.5c0-1.8-1.8-2.1-5-2.9c-3.2-0.7-7-2-7-6.4C767.7,140.3,770.7,137.8,774,137.8
					 M774,131.8c-6.7,0-12.2,5.3-12.2,11.9c0,1.4,0.2,3,0.8,4.5c-0.2,0.6-0.3,1.2-0.3,1.9v7.1c0,3.3,2.7,6,6,6h4.5
					c0.6,0,1.1-0.1,1.6-0.2c1.2,0.3,2.4,0.5,3.7,0.5c7.8,0,13.2-4.9,13.2-11.9c0-1.6-0.3-3.5-1.2-5.2c0.1-0.4,0.1-0.7,0.1-1.1v-7
					c0-3.3-2.7-6-6-6h-4.5c-0.6,0-1.1,0.1-1.7,0.2C776.8,132,775.5,131.8,774,131.8L774,131.8z"/>
			</g>
			<g>
				<path class="st2" d="M793.3,160.3c-3.4,0-6.2-2.8-6.2-6.2s2.8-6.2,6.2-6.2s6.2,2.8,6.2,6.2S796.8,160.3,793.3,160.3z"/>
				<path class="st2" d="M793.3,150.8c1.8,0,3.2,1.4,3.2,3.2s-1.4,3.2-3.2,3.2s-3.2-1.4-3.2-3.2S791.5,150.8,793.3,150.8
					 M793.3,144.8c-5.1,0-9.2,4.1-9.2,9.2c0,5.1,4.1,9.2,9.2,9.2s9.2-4.1,9.2-9.2C802.6,149,798.4,144.8,793.3,144.8L793.3,144.8z"
					/>
			</g>
			<g>
				<path class="st2" d="M791.8,152.2c-1.7,0-3-1.3-3-3c0-3.1-0.6-6.1-1.2-8.8c-0.4-2.2-0.8-4.1-0.8-5.7c0-3.7,2.8-6.5,6.4-6.5
					c3.7,0,6.5,2.8,6.5,6.6c0,1.6-0.4,3.4-0.8,5.5c-0.5,2.7-1.1,5.7-1.1,8.9c0,1.7-1.3,3-3,3H791.8z"/>
				<path class="st2" d="M793.3,131.2c1.8,0,3.5,1.2,3.5,3.6c0,3.1-1.9,8.5-1.9,14.4h-3c0-5.9-2-11.3-2-14.5
					C789.8,132.3,791.5,131.2,793.3,131.2 M793.3,125.2c-5.3,0-9.4,4.2-9.4,9.5c0,1.9,0.4,4,0.9,6.3c0.5,2.5,1.1,5.4,1.1,8.2
					c0,3.3,2.7,6,6,6h3c3.3,0,6-2.7,6-6c0-2.9,0.6-5.8,1.1-8.3c0.5-2.3,0.8-4.2,0.8-6.1C802.8,129.3,798.7,125.2,793.3,125.2
					L793.3,125.2z"/>
			</g>
		</g>
		<g>
			<path class="st3" d="M172.6,107.8c0,1.2-0.7,1.4-1.2,1.4c-0.4,0-0.7-0.2-0.7-0.6c0-0.9,0.3-1.9,0.3-3.7c0-2.6-1.5-4.2-4.9-4.2
				v-0.3c4.6-0.1,6.8-2.7,6.8-5.9c0-3.5-3.2-6.7-9.3-6.7h-16.2v5.1h4.5v14.6h-4.5v5.1h15.3v-5.1h-4v-4.7h2.6c2.3,0,3.2,1.2,3.2,2.6
				s-0.2,2.4-0.2,3.7c0,2.9,2.2,4.1,5,4.1c3.5,0,6.5-1.6,6.5-5.6v-2.9h-3.2C172.6,104.7,172.6,107.8,172.6,107.8z M161.5,98.8h-2.8
				V93h3.7c2.6,0,3.7,1.4,3.7,2.9C166.1,97.4,165.4,98.8,161.5,98.8z"/>
			<path class="st3" d="M187.1,93.8c-5,0-10.3,3.2-10.3,9.7c0,5.5,3.7,9.8,10.1,9.8c4,0,6.5-1.9,8.2-5.5l-2.6-1.6
				c-0.8,1.9-2.2,2.8-4.2,2.8c-2.9,0-4.9-1.5-5.1-4.6h12.3c0.2-1.2,0.2-2,0.2-2.9C195.8,96.4,191.5,93.8,187.1,93.8z M183.4,101.2
				c0.4-1.8,1.8-3.3,4-3.3c2,0,3.3,1,3.3,3.3H183.4z"/>
			<path class="st3" d="M217.3,87.9H208V93h4c0,1.2,0.1,3.9,0.3,5.2c-0.8-2.6-3.3-4-6.5-4c-4.7,0-8.5,3.6-8.5,9.4
				c0,5.3,3.9,9.7,8.8,9.7c3.5,0,6.2-1.8,7.1-4.2c-0.2,0.9-0.4,3-0.4,3.7h7.9v-5.1h-3.4V87.9z M207.5,108.8c-2.4,0-3.7-1.9-3.7-5.1
				c0-3.3,1.2-5.4,3.5-5.4c2.7,0,4,1.8,4,5.4S210.2,108.8,207.5,108.8z"/>
			<path class="st3" d="M232,93.8c-5,0-10.3,3.2-10.3,9.7c0,5.5,3.7,9.8,10.1,9.8c4,0,6.5-1.9,8.2-5.5l-2.6-1.6
				c-0.8,1.9-2.2,2.8-4.2,2.8c-2.9,0-4.9-1.5-5.1-4.6h12.3c0.2-1.2,0.2-2,0.2-2.9C240.8,96.4,236.4,93.8,232,93.8z M228.4,101.2
				c0.4-1.8,1.8-3.3,4-3.3c2,0,3.3,1,3.3,3.3H228.4z"/>
			<path class="st3" d="M252.2,113.4c4,0,6.5-1.9,8.2-5.5l-2.6-1.6c-0.8,1.9-2.2,2.8-4.2,2.8c-2.9,0-4.9-1.5-5.1-4.6h12.4
				c0.2-1.2,0.2-2,0.2-2.9c0-5.1-4.3-7.7-8.8-7.7c-5,0-10.3,3.2-10.3,9.7C242.1,109.1,245.9,113.4,252.2,113.4z M252.7,98
				c2,0,3.3,1,3.3,3.3h-7.2C249.1,99.4,250.6,98,252.7,98z"/>
			<path class="st3" d="M273.8,107.6h-2.3v-4.8c0-2.3,1-3.5,3.2-3.5c1.8,0,2.2,0.8,2.2,3.4v4.8h-2.2v5.1h10.4v-5.1h-2.3v-4.8
				c0-2.3,1-3.5,3.2-3.5c1.8,0,2.2,0.8,2.2,3.4v4.8h-2.3v5.1h10.6v-5.1H294v-7.1c0-3.9-1.9-6.7-6.2-6.7c-3,0-5.5,1.6-6.5,4.9
				c-0.4-2.9-1.9-4.8-5.1-4.8c-3.8,0-5.9,2.8-6.4,7.1h-0.4c0.2-0.9,0.5-5,0.6-6.5h-7.8v5.1h3.4v8h-3.4v5.1h11.6L273.8,107.6
				L273.8,107.6z"/>
			<path class="st3" d="M316.1,99.7h2.4c-1.1,2.7-2.1,5.8-2.7,8.2c-0.6-2.4-1.5-5.4-2.6-8.2h2.2v-5.1h-11v5.1h2.1l6,12.6
				c0,4.3-1.9,6-4,6c-1.3,0-2.2-0.3-2.8-1c0.4,0.1,0.8,0.2,1.3,0.2c2,0,3.5-1.4,3.5-3.4c0-1.9-1.6-3.5-3.5-3.5
				c-2.6,0-3.9,1.9-3.9,4.4c0,3.7,2.9,5.2,6.1,5.2c2.9,0,6.1-1.5,7.7-5.2l6.9-15.3h2.1v-5.1h-9.7L316.1,99.7L316.1,99.7z"/>
			<path class="st3" d="M337.1,113.4c5.8,0,10.5-4.6,10.5-9.9c0-5.6-4.6-9.7-10.5-9.7c-5.7,0-10.5,4.1-10.5,9.7
				C326.5,108.8,331.1,113.4,337.1,113.4z M337,98.6c2.7,0,3.6,1.1,3.6,5.3c0,4.5-0.9,5.3-3.6,5.3s-3.7-0.9-3.7-5.3
				C333.4,99.5,334.6,98.6,337,98.6z"/>
			<path class="st3" d="M365.2,106.3h0.4c-0.2,0.9-0.5,5-0.6,6.5h7.3v-5.1h-2.9V94.6h-10.1v5.1h4.2v4.9c0,2.5-1.3,3.5-3.6,3.5
				c-2,0-2.5-0.6-2.5-3.4v-10h-8.7v5.1h2.7v7.2c0,4.2,1.8,6.5,6.4,6.5C360.7,113.3,364.2,111.4,365.2,106.3z"/>
			<path class="st3" d="M386.7,107.6h-4.5v-5c0-2.9,1-4.7,2.5-5.5c-0.2,0.5-0.4,0.9-0.4,1.6c0,1.8,1.4,3.2,3.4,3.2
				c2.5,0,3.9-2,3.9-3.9c0-2.1-1.4-4.3-4.8-4.3c-3.3,0-5.4,2.9-6,6h-0.4c0.2-1.5,0.5-3.7,0.5-5.2h-8v5.1h3.4v8h-3.4v5.1h13.8V107.6z
				"/>
			<path class="st3" d="M407.1,102.8c3.3,0.8,5,1,5,2.9c0,0.9-0.7,1.5-2,1.5c-2.8,0-4.2-1.4-4.2-4.4h-5.4v7.1h4.5l-0.2-3.3
				c0.3,1.3,1.1,2.2,2.1,2.8l-0.3,4.2h3.9v-3.4c3.4,0,7.2-1.6,7.2-5.9s-4.3-5.7-7.6-6.4c-2.4-0.5-4.6-1-4.6-2.7
				c0-0.8,0.7-1.4,1.8-1.4c2,0,3.7,0.9,3.8,4.2h5.5v-7h-4.5l0.1,3.7c-0.3-1.3-1-2.3-2.1-3.1l0.4-4.3h-4.2v3.3
				c-3.4,0-6.3,2.5-6.3,5.9C400.1,100.7,404,102,407.1,102.8z"/>
			<path class="st3" d="M435.3,87.9H431c0,3.1-1.9,6.1-9.2,6.1v4.4h7.7v9.2h-7.9v5.1h21v-5.1h-7.2V87.9H435.3z"/>
			<path class="st3" d="M454.7,113.4c6.3,0,10.9-5.4,10.9-13s-4.4-13-10.9-13c-6.4,0-10.9,5.4-10.9,13
				C443.8,107.9,448.3,113.4,454.7,113.4z M454.7,92c3.4,0,4.3,2.6,4.3,8.4c0,6.5-1,8.4-4.3,8.4c-3.2,0-4.3-2.5-4.3-8.4
				C450.4,94,451.5,92,454.7,92z"/>
			<path class="st3" d="M498.2,105.5c0-5-3.4-7.1-9-8.1c-5-0.9-5.9-1.8-5.9-3.5c0-1.4,1-2.5,2.7-2.5c2.8,0,4.8,2,4.9,5.9h5.9v-10h-5
				l0.3,4c-1-2.5-3.6-4.1-6.9-4.1c-5.1,0-8.8,3-8.8,7.6c0,5.7,4.3,7.4,9.9,8.4c2.9,0.5,5.1,0.8,5.1,3.1c0,1.9-1.6,3-3.6,3
				c-2.4,0-5.2-1.6-5.3-5.9h-6.1v9.8h5l-0.3-4c1.4,3.1,4.4,4.2,7.6,4.2C493.2,113.4,498.2,110.6,498.2,105.5z"/>
			<path class="st3" d="M523.8,112.8l5.4-13.1h2.1v-5.1h-9.7v5.1h2.3c-0.8,2.3-1.5,5.2-1.9,7.2c-0.8-3.5-2.9-9.2-3.9-12.3h-3.9
				c-1.2,3.7-3.1,8.6-4.1,12.3c-0.4-2-1.1-4.9-1.9-7.2h2.3v-5.1h-11v5.1h2.1l6,13.1h4.7c1.1-3.3,2.6-7.9,3.4-11.3
				c0.7,3.3,2.3,8.1,3.4,11.3H523.8z"/>
			<path class="st3" d="M542.1,113.4c4,0,6.5-1.9,8.2-5.5l-2.6-1.6c-0.8,1.9-2.2,2.8-4.2,2.8c-2.9,0-4.9-1.5-5.1-4.6h12.3
				c0.2-1.2,0.2-2,0.2-2.9c0-5.1-4.3-7.7-8.8-7.7c-5,0-10.3,3.2-10.3,9.7C532,109.1,535.7,113.4,542.1,113.4z M542.6,98
				c2,0,3.3,1,3.3,3.3h-7.2C539,99.4,540.4,98,542.6,98z"/>
			<path class="st3" d="M562.5,113.4c4,0,6.5-1.9,8.2-5.5l-2.6-1.6c-0.8,1.9-2.2,2.8-4.2,2.8c-2.9,0-4.9-1.5-5.1-4.6h12.3
				c0.2-1.2,0.2-2,0.2-2.9c0-5.1-4.3-7.7-8.8-7.7c-5,0-10.3,3.2-10.3,9.7C552.4,109.1,556.1,113.4,562.5,113.4z M563,98
				c2,0,3.3,1,3.3,3.3h-7.2C559.4,99.4,560.8,98,563,98z"/>
			<path class="st3" d="M588.6,107.9v-3.3h-3.5v2.3c0,1.1-0.9,1.7-1.9,1.7s-1.9-0.6-1.9-1.6v-7.3h7.2v-5.1h-7.3v-5.3h-2.9
				c0,5.3-2.7,7.5-6.5,7.4v3h3.6v8.1c0,3.8,3.4,5.7,6.6,5.7C585.2,113.4,588.6,111.7,588.6,107.9z"/>
			<path class="st3" d="M622.9,106.1c0-2.6-2.4-6-7.2-6v-0.4c4.8,0,6.6-3,6.6-5.3c0-3.9-2.8-6.6-8.4-6.6h-16.4v5.1h4.1v14.6h-4.1
				v5.1h16.8C619.8,112.8,622.9,110.2,622.9,106.1z M608.4,93h4c2.1,0,3.1,1,3.1,2.4c0,1.3-0.9,2.4-3.1,2.4h-4V93z M608.4,107.6
				v-5.1h4.4c2.6,0,3.6,1.2,3.5,2.5c0,1.4-1,2.6-3.6,2.6H608.4z"/>
			<path class="st3" d="M627,106.9c0,4.2,1.8,6.5,6.4,6.5c2.9,0,6.5-2,7.4-7.1h0.4c-0.2,0.9-0.5,5-0.6,6.5h7.3v-5.1H645V94.6h-10.1
				v5.1h4.2v4.9c0,2.5-1.3,3.5-3.6,3.5c-2,0-2.5-0.6-2.5-3.4v-10h-8.7v5.1h2.7L627,106.9L627,106.9z"/>
			<path class="st3" d="M658.3,113.4c4,0,6.9-1.4,8.8-4.7l-3.3-3.4c-1.2,2.1-2.6,2.7-4.1,2.7c-2.5,0-5-2-5-5.6
				c0-2.8,1.6-5.4,4.9-5.5c-0.6,0.6-0.9,1.3-0.9,2.2c0,2.5,1.5,3.6,3.7,3.6c2,0,3.7-1.5,3.7-3.7c0-3.4-3.5-5.2-7-5.2
				c-4.7,0-10.1,3-10.1,9.8C648.9,108.9,652.8,113.4,658.3,113.4z"/>
			<polygon class="st3" points="676.7,107.6 679.4,105.5 681.2,107.6 679.3,107.6 679.3,112.8 690.9,112.8 690.9,107.6 688.8,107.6 
				683.9,102.1 686.9,99.7 690,99.7 690,94.6 678.6,94.6 678.6,99.7 680.8,99.7 676.7,103.2 676.7,87.9 667.4,87.9 667.4,93 
				670.7,93 670.7,107.6 667.4,107.6 667.4,112.8 676.7,112.8 			"/>
			<path class="st3" d="M699.5,106.1c3.3,0.8,5,1,5,2.9c0,0.9-0.7,1.5-2,1.5c-2.8,0-4.2-1.4-4.2-4.4h-5.4v7.1h4.5l-0.2-3.3
				c0.7,2.9,3.5,3.6,5.6,3.6c3.5,0,7.2-1.6,7.2-5.9s-4.3-5.7-7.6-6.4c-2.4-0.5-4.6-1-4.6-2.7c0-0.8,0.7-1.4,1.8-1.4
				c2,0,3.7,0.9,3.8,4.2h5.5v-7h-4.5l0.1,3.7c-0.6-2.5-2.6-4.1-6-4.1c-3.3,0-6.2,2.5-6.2,5.9C692.4,104.1,696.3,105.4,699.5,106.1z"
				/>
			<path class="st3" d="M731.8,113.4c3.9,0,7.6-1.7,9-4.8c0.2,1,0.3,2.5,0.3,4.1h3.5v-9.1h3.6v-4.3h-15.1v4.3h5.7
				c-0.5,3.1-3,4.6-5.5,4.6c-3.2,0-6.7-2.5-6.7-8.2c0-5.3,3.5-7.5,6.8-7.5c2.9,0,5.7,1.8,6.2,5.1h5V87.3h-5.2l0.2,4
				c-1.2-2.8-4.6-4.1-7.6-4.1c-5.8,0-12.6,4.2-12.6,13C719.3,109.3,725.8,113.4,731.8,113.4z"/>
			<polygon class="st3" points="760.9,107.6 758.1,107.6 758.1,94.6 748.8,94.6 748.8,99.7 752.2,99.7 752.2,107.6 748.8,107.6 
				748.8,112.8 760.9,112.8 			"/>
			<path class="st3" d="M755.1,93.9c1.9,0,3.4-1.5,3.4-3.3s-1.5-3.2-3.4-3.2s-3.4,1.4-3.4,3.2S753.2,93.9,755.1,93.9z"/>
			<path class="st3" d="M765.6,107.6h-3.4v5.1h13.2v-5.1h-3.9v-8h5v-3.7h-3.1c-2.5,0-3.4-1.7-3.4-3c0-1.5,1-2.9,2.6-2.9
				c0.4,0,0.7,0,0.9,0.1c-0.7,0.5-1.1,1.3-1.1,2.1c0,1.5,1.2,2.3,3,2.3c1.9,0,3.1-1.2,3.1-2.9c0-3-2.2-4.5-5.7-4.5
				c-3.2,0-6.5,2.1-6.5,6.9c0,1.6-0.9,2.8-2.8,2.8h-2v2.8h4v8H765.6z"/>
			<path class="st3" d="M793.7,107.9v-3.3h-3.5v2.3c0,1.1-0.9,1.7-1.9,1.7s-1.9-0.6-1.9-1.6v-7.3h7.2v-5.1h-7.3v-5.3h-2.9
				c0,5.3-2.7,7.5-6.5,7.4v3h3.6v8.1c0,3.8,3.4,5.7,6.6,5.7C790.3,113.4,793.7,111.7,793.7,107.9z"/>
			<path class="st3" d="M817.1,107.6c-3.3,0-6.8-2.3-6.8-7.5c0-5.1,3.3-7.2,6.4-7.2c2.8,0,5.4,1.7,5.5,5.4h5v-11h-5.1l0.2,4
				c-1-2.7-4.3-4.1-7.1-4.1c-5.6,0-12.2,4-12.2,13c0,7.8,5,13.3,14,13.3c5.8,0,10-3.6,10.7-7.8l-4.6-2.6
				C821.9,106.3,819.5,107.6,817.1,107.6z"/>
			<path class="st3" d="M847.8,107.4c0,1-0.5,1.1-0.7,1.1c-0.3,0-0.5-0.2-0.5-0.8c0-2.5,0.3-4.3,0.3-7.7c0-4.3-4.2-6.2-8.5-6.2
				c-4.5,0-8.5,1.8-8.5,5.9c0,0.3,0,0.6,0.2,1.5h6c0-2.1,0.8-2.8,2.1-2.8c1.5,0,2.5,0.6,2.5,2v1.5c-0.9-0.1-1.7-0.1-2.4-0.1
				c-6.1,0-9,2.5-9,5.8c0,3.6,3.1,5.7,6.5,5.7c3.3,0,6-2.5,6.3-6.3h0.4c-0.1,0.5-0.1,1.1-0.1,2c0,3.5,2.2,4.1,3.8,4.1
				c3.2,0,4.5-2.2,4.5-5.6v-1.8h-2.8L847.8,107.4L847.8,107.4z M837.4,108.5c-1.1,0-2-0.6-2-1.8c0-1,0.7-2.6,3.5-2.6
				c0.5,0,1,0,1.6,0.1C840.4,107.7,838.7,108.5,837.4,108.5z"/>
			<path class="st3" d="M864.9,93.8c-3.3,0-5.4,2.9-6,6h-0.4c0.2-1.5,0.5-3.7,0.5-5.2h-8.1v5.1h3.4v8h-3.4v5.1h13.8v-5.1h-4.5v-5
				c0-2.9,1-4.7,2.5-5.5c-0.2,0.5-0.4,0.9-0.4,1.6c0,1.8,1.4,3.2,3.4,3.2c2.5,0,3.9-2,3.9-3.9C869.7,96,868.2,93.8,864.9,93.8z"/>
			<path class="st3" d="M890.4,107.6V87.9h-9.3V93h4c0,1.2,0.1,3.9,0.3,5.2c-0.8-2.6-3.3-4-6.5-4c-4.7,0-8.5,3.6-8.5,9.4
				c0,5.3,3.9,9.7,8.8,9.7c3.5,0,6.2-1.8,7.1-4.2c-0.2,0.9-0.4,3-0.4,3.7h7.9v-5.1L890.4,107.6L890.4,107.6z M880.7,108.8
				c-2.4,0-3.7-1.9-3.7-5.1c0-3.3,1.2-5.4,3.5-5.4c2.7,0,4,1.8,4,5.4S883.4,108.8,880.7,108.8z"/>
			<path class="st3" d="M260.1,151.4c0,1-0.5,1.1-0.7,1.1c-0.3,0-0.5-0.2-0.5-0.8c0-2.5,0.3-4.3,0.3-7.7c0-4.3-4.2-6.2-8.5-6.2
				c-4.5,0-8.5,1.8-8.5,5.9c0,0.3,0,0.6,0.2,1.5h6c0-2.1,0.8-2.8,2.1-2.8c1.5,0,2.5,0.6,2.5,2v1.5c-0.9-0.1-1.7-0.1-2.4-0.1
				c-6.1,0-9,2.5-9,5.8c0,3.6,3.1,5.7,6.5,5.7c3.3,0,6-2.5,6.3-6.3h0.4c-0.1,0.5-0.1,1.1-0.1,2c0,3.5,2.2,4.1,3.8,4.1
				c3.2,0,4.5-2.2,4.5-5.6v-1.8h-2.8L260.1,151.4L260.1,151.4z M249.7,152.5c-1.1,0-2-0.6-2-1.8c0-1,0.7-2.6,3.5-2.6
				c0.5,0,1,0,1.6,0.1C252.7,151.7,251,152.5,249.7,152.5z"/>
			<path class="st3" d="M284.7,144.6c0-4.2-1.7-6.8-6.3-6.8c-4.1,0-6.7,2.6-7.3,7.6h-0.4c0.2-1.3,0.5-5.4,0.5-6.9h-7.8v5.1h3.4v8
				h-3.4v5.1h12v-5.1h-2.7v-4.5c0-2.5,1.3-3.5,3.7-3.5c2,0,2.5,0.6,2.5,3.4v4.6h-2.7v5.1h10.7v-5.1h-2.2V144.6z"/>
			<path class="st3" d="M308,131.9h-9.3v5.1h4c0,1.2,0.1,3.9,0.3,5.2c-0.8-2.6-3.3-4-6.5-4c-4.7,0-8.5,3.6-8.5,9.4
				c0,5.3,3.9,9.7,8.8,9.7c3.5,0,6.2-1.8,7.1-4.2c-0.2,0.9-0.4,3-0.4,3.7h7.9v-5.1H308L308,131.9L308,131.9z M298.3,152.8
				c-2.4,0-3.7-1.9-3.7-5.1c0-3.3,1.2-5.4,3.5-5.4c2.7,0,4,1.8,4,5.4S300.9,152.8,298.3,152.8z"/>
			<path class="st3" d="M327.1,137h4.5v14.6h-4.5v5.1h25.2v-10.5h-4.1v1.7c0,2.3-0.7,3.6-3.8,3.6h-6v-5.1h7.6v-4.6h-7.6v-5h6
				c3.1,0,3.8,1.4,3.8,3.6v1.6h4.1v-10.4h-25.2L327.1,137L327.1,137z"/>
			<path class="st3" d="M375.3,144.6c0-4.2-1.7-6.8-6.3-6.8c-4.1,0-6.7,2.6-7.3,7.6h-0.4c0.2-1.3,0.5-5.4,0.5-6.9H354v5.1h3.4v8H354
				v5.1h12v-5.1h-2.7v-4.5c0-2.5,1.3-3.5,3.7-3.5c2,0,2.5,0.6,2.5,3.4v4.6h-2.7v5.1h10.7v-5.1h-2.2L375.3,144.6L375.3,144.6z"/>
			<path class="st3" d="M387.1,133.3h-2.9c0,5.3-2.7,7.5-6.5,7.4v3h3.6v8.1c0,3.8,3.4,5.7,6.6,5.7s6.6-1.8,6.6-5.5v-3.3h-3.6v2.3
				c0,1.1-0.9,1.7-1.9,1.7s-1.9-0.6-1.9-1.6v-7.4h7.2v-5.1H387L387.1,133.3L387.1,133.3z"/>
			<path class="st3" d="M406.3,137.8c-5,0-10.3,3.2-10.3,9.7c0,5.5,3.7,9.8,10.1,9.8c4,0,6.5-1.9,8.2-5.5l-2.6-1.6
				c-0.8,1.9-2.2,2.8-4.2,2.8c-2.9,0-4.9-1.5-5.1-4.6h12.3c0.2-1.2,0.2-2,0.2-2.9C415.1,140.4,410.8,137.8,406.3,137.8z
				 M402.7,145.2c0.4-1.8,1.8-3.3,4-3.3c2,0,3.3,1,3.3,3.3H402.7z"/>
			<path class="st3" d="M430,137.8c-3.3,0-5.4,2.9-6,6h-0.4c0.2-1.5,0.5-3.7,0.5-5.2H416v5.1h3.4v8H416v5.1h13.9v-5.1h-4.5v-5
				c0-2.9,1-4.7,2.5-5.5c-0.2,0.5-0.4,0.9-0.4,1.6c0,1.8,1.4,3.2,3.4,3.2c2.5,0,3.9-2,3.9-3.9C434.8,140,433.3,137.8,430,137.8z"/>
			<path class="st3" d="M453.3,137.8c-5.7,0-10.5,4.1-10.5,9.7c0,5.3,4.6,9.9,10.5,9.9c5.8,0,10.5-4.6,10.5-9.9
				C463.9,141.9,459.3,137.8,453.3,137.8z M453.3,153.2c-2.7,0-3.7-0.9-3.7-5.3c0-4.4,1.2-5.3,3.7-5.3c2.7,0,3.6,1.1,3.6,5.3
				C457,152.4,456,153.2,453.3,153.2z"/>
			<path class="st3" d="M485.7,138.6h-10.1v5.1h4.2v4.9c0,2.5-1.3,3.5-3.6,3.5c-2,0-2.5-0.6-2.5-3.4v-10h-8.8v5.1h2.7v7.2
				c0,4.2,1.8,6.5,6.4,6.5c2.9,0,6.5-2,7.4-7.1h0.4c-0.2,0.9-0.5,5-0.6,6.5h7.3v-5.1h-2.9v-13.2H485.7z"/>
			<path class="st3" d="M503.1,137.8c-3.3,0-5.4,2.9-6,6h-0.4c0.2-1.5,0.5-3.7,0.5-5.2h-8.1v5.1h3.4v8h-3.4v5.1h13.8v-5.1h-4.5v-5
				c0-2.9,1-4.7,2.5-5.5c-0.2,0.5-0.4,0.9-0.4,1.6c0,1.8,1.4,3.2,3.4,3.2c2.5,0,3.9-2,3.9-3.9C507.9,140,506.4,137.8,503.1,137.8z"
				/>
			<path class="st3" d="M530.5,141.4c-5-0.9-5.9-1.8-5.9-3.5c0-1.4,1-2.5,2.7-2.5c2.8,0,4.8,2,4.9,5.9h5.9v-10h-5l0.3,4
				c-1-2.5-3.6-4.1-6.9-4.1c-5.1,0-8.8,3-8.8,7.6c0,5.7,4.3,7.4,9.9,8.4c2.9,0.5,5.1,0.8,5.1,3.1c0,1.9-1.6,3-3.6,3
				c-2.4,0-5.2-1.6-5.3-5.9h-6.1v9.8h5l-0.3-4c1.4,3.1,4.4,4.2,7.6,4.2c4.6,0,9.6-2.8,9.6-7.9C539.5,144.5,536.1,142.4,530.5,141.4z
				"/>
			<path class="st3" d="M568.7,137h3.3l-2.3,6.8c-0.6,1.8-1.4,4.5-1.7,6.3c-0.1-1.4-0.7-3.7-1.4-6.3l-1.8-6.8h2.7v-5.1h-11.8v5.1
				h2.7l-1.8,6.7c-0.7,2.7-1.3,5-1.4,6.4c-0.3-1.8-1.1-4.5-1.7-6.3l-2.3-6.8h3.3v-5.1H541v5.1h3l8.1,19.7h5.7
				c1.1-3.7,2.7-8.6,3.5-12.6c0.8,4,2.4,9,3.4,12.6h5.7l8.1-19.7h3.1v-5.1h-12.8v5.1H568.7z"/>
			<path class="st3" d="M582.1,137h4.5v14.6h-4.5v5.1h25.2v-10.5h-4.1v1.7c0,2.3-0.7,3.6-3.8,3.6h-6v-5.1h7.6v-4.6h-7.6v-5h6
				c3.1,0,3.8,1.4,3.8,3.6v1.6h4.1v-10.4h-25.2V137z"/>
			<path class="st3" d="M609.3,137h4.5v14.6h-4.5v5.1h25.2v-10.5h-4.1v1.7c0,2.3-0.7,3.6-3.8,3.6h-6v-5.1h7.6v-4.6h-7.6v-5h6
				c3.1,0,3.8,1.4,3.8,3.6v1.6h4.1v-10.4h-25.2V137z"/>
			<path class="st3" d="M635.8,144.1h4.7v-3.4c0-2.3,0.7-3.6,3.8-3.6h1.9v14.6h-4.5v5.1h15.9v-5.1H653v-14.6h2
				c3.1,0,3.8,1.4,3.8,3.6v3.4h4.7v-12.2h-27.7L635.8,144.1L635.8,144.1z"/>
			<path class="st3" d="M673.6,145.1c-2.4-0.5-4.6-1-4.6-2.7c0-0.8,0.7-1.4,1.8-1.4c2,0,3.7,0.9,3.8,4.2h5.5v-7h-4.5l0.1,3.7
				c-0.6-2.5-2.6-4.1-6-4.1c-3.3,0-6.2,2.5-6.2,5.9c0,4.4,3.9,5.7,7,6.4c3.3,0.8,5,1,5,2.9c0,0.9-0.7,1.5-2,1.5
				c-2.8,0-4.2-1.4-4.2-4.4h-5.4v7.1h4.5l-0.2-3.3c0.7,2.9,3.5,3.6,5.6,3.6c3.5,0,7.2-1.6,7.2-5.9
				C681.2,147.2,677,145.8,673.6,145.1z"/>
			<path class="st3" d="M691.4,133.3h-2.9c0,5.3-2.7,7.5-6.5,7.4v3h3.6v8.1c0,3.8,3.4,5.7,6.6,5.7c3.2,0,6.6-1.8,6.6-5.5v-3.3h-3.5
				v2.3c0,1.1-0.9,1.7-1.9,1.7s-1.9-0.6-1.9-1.6v-7.4h7.2v-5.1h-7.3L691.4,133.3L691.4,133.3z"/>
			<path class="st3" d="M719,151.4c0,1-0.5,1.1-0.7,1.1c-0.3,0-0.5-0.2-0.5-0.8c0-2.5,0.3-4.3,0.3-7.7c0-4.3-4.2-6.2-8.5-6.2
				c-4.5,0-8.5,1.8-8.5,5.9c0,0.3,0,0.6,0.2,1.5h6c0-2.1,0.8-2.8,2.1-2.8c1.5,0,2.5,0.6,2.5,2v1.5c-0.9-0.1-1.7-0.1-2.4-0.1
				c-6.1,0-9,2.5-9,5.8c0,3.6,3.1,5.7,6.5,5.7c3.3,0,6-2.5,6.3-6.3h0.4c-0.1,0.5-0.1,1.1-0.1,2c0,3.5,2.2,4.1,3.8,4.1
				c3.2,0,4.5-2.2,4.5-5.6v-1.8h-2.8L719,151.4L719,151.4z M708.6,152.5c-1.1,0-2-0.6-2-1.8c0-1,0.7-2.6,3.5-2.6c0.5,0,1,0,1.6,0.1
				C711.6,151.7,710,152.5,708.6,152.5z"/>
			<polygon class="st3" points="738.8,146.1 741.8,143.7 744.9,143.7 744.9,138.6 733.5,138.6 733.5,143.7 735.7,143.7 731.6,147.2 
				731.6,131.9 722.2,131.9 722.2,137 725.6,137 725.6,151.6 722.2,151.6 722.2,156.8 731.6,156.8 731.6,151.6 734.3,149.5 
				736.1,151.6 734.2,151.6 734.2,156.8 745.8,156.8 745.8,151.6 743.7,151.6 			"/>
			<path class="st3" d="M757.2,137.8c-5,0-10.3,3.2-10.3,9.7c0,5.5,3.7,9.8,10.1,9.8c4,0,6.5-1.9,8.2-5.5l-2.6-1.6
				c-0.8,1.9-2.2,2.8-4.2,2.8c-2.9,0-4.9-1.5-5.1-4.6h12.3c0.2-1.2,0.2-2,0.2-2.9C765.9,140.4,761.6,137.8,757.2,137.8z
				 M753.5,145.2c0.4-1.8,1.8-3.3,4-3.3c2,0,3.3,1,3.3,3.3H753.5z"/>
			<path class="st3" d="M777.8,145.1c-2.4-0.5-4.6-1-4.6-2.7c0-0.8,0.7-1.4,1.8-1.4c2,0,3.7,0.9,3.8,4.2h5.5v-7h-4.5l0.1,3.7
				c-0.6-2.5-2.6-4.1-6-4.1c-3.3,0-6.2,2.5-6.2,5.9c0,4.4,3.9,5.7,7,6.4c3.3,0.8,5,1,5,2.9c0,0.9-0.7,1.5-2,1.5
				c-2.8,0-4.2-1.4-4.2-4.4h-5.4v7.1h4.5l-0.2-3.3c0.7,2.9,3.5,3.6,5.6,3.6c3.5,0,7.2-1.6,7.2-5.9
				C785.4,147.2,781.1,145.8,777.8,145.1z"/>
			<path class="st3" d="M793.3,150.8c-1.8,0-3.2,1.4-3.2,3.2s1.4,3.2,3.2,3.2s3.2-1.4,3.2-3.2S795.1,150.8,793.3,150.8z"/>
			<path class="st3" d="M793.3,131.2c-1.7,0-3.4,1.2-3.4,3.5c0,3.2,2,8.6,2,14.5h3c0-6,1.9-11.3,1.9-14.4
				C796.8,132.3,795,131.2,793.3,131.2z"/>
		</g>
	</g>
	<g>
		<g>
			<path class="st2" d="M25.7,62.2c-2.2,0-4-1.8-4-4v-10c0-2.2,1.8-4,4-4h4.8V23.8c-3.1,0-3.1,0.4-3.1,3.1v6.6c0,2.2-1.8,4-4,4h-9.1
				c-2.2,0-4-1.8-4-4V9.8c0-2.2,1.8-4,4-4H68c2.2,0,4,1.8,4,4v23.7c0,2.2-1.8,4-4,4h-9.2c-2.2,0-4-1.8-4-4v-6.6c0-2.7,0-3.1-3.2-3.1
				v20.4h4.9c2.2,0,4,1.8,4,4v10c0,2.2-1.8,4-4,4H25.7z"/>
			<path class="st2" d="M68,9.8v23.7h-9.2v-6.6c0-4.4-1.3-7.1-7.3-7.1h-3.8v28.4h8.9v10H25.7v-10h8.8V19.8h-3.7
				c-6.1,0-7.3,2.7-7.3,7.1v6.6h-9.1V9.8H68 M68,1.8H14.3c-4.4,0-8,3.6-8,8v23.7c0,4.4,3.6,8,8,8h7c-2.2,1.4-3.6,3.9-3.6,6.7v10
				c0,4.4,3.6,8,8,8h30.9c4.4,0,8-3.6,8-8v-10c0-2.8-1.4-5.3-3.6-6.7h7c4.4,0,8-3.6,8-8V9.8C76,5.4,72.4,1.8,68,1.8L68,1.8z"/>
		</g>
		<g>
			<path class="st2" d="M102.1,62.2c-1.7,0-3.2-1.1-3.8-2.7c-0.7-1.9-1.7-5-2.9-8.6c-1,3.1-1.9,6-2.8,8.5c-0.6,1.6-2.1,2.7-3.8,2.7
				h-9c-1.6,0-3-0.9-3.6-2.3L65.7,36.7h-1.4c-2.2,0-4-1.8-4-4v-9.9c0-2.2,1.8-4,4-4h21.3c1.5,0,2.9,0.9,3.5,2.1
				c0.7-1.3,2-2.1,3.5-2.1h7.5c1.4,0,2.6,0.7,3.3,1.8c0.7-1.1,1.9-1.8,3.3-1.8h18.9c2.2,0,4,1.8,4,4v9.9c0,2.2-1.8,4-4,4h-1.3
				l-9.5,23c-0.6,1.5-2.1,2.5-3.7,2.5H102.1z"/>
			<path class="st2" d="M125.7,22.8v9.9h-4l-10.5,25.5h-9c-2.2-6.2-5.2-15.5-6.7-22c-1.5,6.5-4.4,15.6-6.6,22h-9L68.3,32.7h-4v-9.9
				h21.3v9.9h-4.6c1.6,4.4,3.1,10.1,3.7,14c1.8-7.1,5.5-16.7,7.9-23.9h7.5c2,6.1,6,17.1,7.5,23.9c0.7-3.9,2.1-9.6,3.6-14h-4.5v-9.9
				H125.7 M125.7,14.8h-18.9c-1.2,0-2.3,0.3-3.3,0.7c-1-0.5-2.2-0.7-3.3-0.7h-7.5c-1.3,0-2.5,0.3-3.5,0.8c-1.1-0.5-2.3-0.8-3.5-0.8
				H64.3c-4.4,0-8,3.6-8,8v9.9c0,4,3,7.3,6.8,7.9l9.5,20.9c1.3,2.9,4.1,4.7,7.3,4.7h9c2.7,0,5.2-1.4,6.6-3.5
				c1.5,2.2,3.9,3.5,6.6,3.5h9c3.2,0,6.2-2,7.4-4.9l8.5-20.7c3.8-0.7,6.6-3.9,6.6-7.9v-9.9C133.7,18.4,130.1,14.8,125.7,14.8
				L125.7,14.8z"/>
		</g>
		<g>
			<path class="st2" d="M147.6,63.3c-13.5,0-24.5-10.4-24.5-23.2c0-12.8,10.7-22.8,24.5-22.8s24.5,10,24.5,22.8
				C172,52.7,160.8,63.3,147.6,63.3z M147.5,34.6c-2.2,0-3.1,0-3.1,6.3c0,4.4,0.6,5.6,0.8,5.9c0,0,0.3,0.3,2.4,0.3
				c1.8,0,2.3-0.2,2.4-0.3c0.1-0.1,0.7-1.1,0.7-6C150.6,34.6,149.9,34.6,147.5,34.6z"/>
			<path class="st2" d="M147.6,21.3c11.5,0,20.5,8,20.5,18.8c0,10.3-9.2,19.2-20.5,19.2c-11.5,0-20.5-8.9-20.5-19.2
				C127.1,29.3,136.5,21.3,147.6,21.3 M147.5,51.2c5.3,0,7.1-1.4,7.1-10.3c0-8.2-1.8-10.3-7.1-10.3c-4.8,0-7.1,1.8-7.1,10.3
				C140.3,49.4,142.2,51.2,147.5,51.2 M147.6,13.3c-7.4,0-14.4,2.6-19.7,7.4c-5.7,5.1-8.8,12-8.8,19.5c0,15,12.8,27.2,28.5,27.2
				c7.5,0,14.6-2.8,20-7.9c5.4-5.1,8.5-12.1,8.5-19.2C176,25.1,163.5,13.3,147.6,13.3L147.6,13.3z"/>
		</g>
		<g>
			<path class="st2" d="M206.1,63.3c-2.9,0-5.5-0.5-7.7-1.6c-0.7,0.7-1.7,1.1-2.7,1.1h-8.8c-2.2,0-4-1.8-4-4V45.1
				c0-1.4,0.7-2.6,1.8-3.3c-1.7-2.2-2.8-5.1-2.8-9c0-8.6,7.1-15.4,16.1-15.4c3.2,0,6.1,0.6,8.5,1.9c0.7-0.8,1.8-1.2,2.8-1.2h8.7
				c2.2,0,4,1.8,4,4v13.5c0,1.2-0.5,2.2-1.3,2.9c2.1,2.3,3.5,5.4,3.5,9.4C224.2,57.1,216.9,63.3,206.1,63.3z"/>
			<path class="st2" d="M198,21.3c6.6,0,10.4,3.1,11.6,8l-0.3-7.3h8.7v13.5h-10.6c-0.1-6.3-3.6-8.1-7.4-8.1c-2.1,0-3.4,1.1-3.4,2.7
				c0,3.3,4.1,4.2,8.8,5.2c6.5,1.4,14.8,4.1,14.8,12.5c0,8.4-7.3,11.4-14.1,11.4c-3.9,0-9.4-1.4-10.8-6.9l0.4,6.5h-8.8V45.1h10.4
				c-0.1,6,2.8,8.6,8.2,8.6c2.6,0,3.9-1.2,3.9-2.9c0-3.5-3.5-4.1-9.8-5.6c-6.1-1.4-13.7-3.9-13.7-12.5
				C185.9,26.1,191.6,21.3,198,21.3 M197.3,45.1L197.3,45.1 M198,13.3c-11.3,0-20.1,8.5-20.1,19.4c0,3.2,0.7,6,1.9,8.6
				c-0.6,1.1-0.9,2.4-0.9,3.7v13.8c0,4.4,3.6,8,8,8h8.8c1.1,0,2.2-0.2,3.1-0.6c2.2,0.7,4.6,1.1,7.3,1.1c13,0,22.1-8,22.1-19.4
				c0-3.6-0.9-6.8-2.7-9.6c0.3-0.9,0.5-1.8,0.5-2.7V22c0-4.4-3.6-8-8-8h-8.7c-1.1,0-2.2,0.2-3.2,0.7C203.7,13.8,201,13.3,198,13.3
				L198,13.3z"/>
		</g>
		<g>
			<path class="st2" d="M260,62.2c-1.7,0-3.2-1.1-3.8-2.7c-0.7-1.9-1.7-5-2.9-8.6c-1,3.1-1.9,6-2.8,8.5c-0.6,1.6-2.1,2.7-3.8,2.7h-9
				c-1.6,0-3-0.9-3.6-2.3l-10.5-23.1h-1.4c-2.2,0-4-1.8-4-4v-9.9c0-2.2,1.8-4,4-4h21.3c1.5,0,2.9,0.9,3.5,2.1c0.7-1.3,2-2.1,3.5-2.1
				h7.5c1.4,0,2.6,0.7,3.3,1.8c0.7-1.1,1.9-1.8,3.3-1.8h18.9c2.2,0,4,1.8,4,4v9.9c0,2.2-1.8,4-4,4h-1.3l-9.5,23
				c-0.6,1.5-2.1,2.5-3.7,2.5H260z"/>
			<path class="st2" d="M283.6,22.8v9.9h-4l-10.5,25.5h-9c-2.2-6.2-5.2-15.5-6.7-22c-1.5,6.5-4.4,15.6-6.6,22h-9l-11.6-25.5h-4v-9.9
				h21.3v9.9h-4.6c1.6,4.4,3.1,10.1,3.7,14c1.8-7.1,5.5-16.7,7.9-23.9h7.5c2,6.1,6,17.1,7.5,23.9c0.7-3.9,2.1-9.6,3.6-14h-4.5v-9.9
				H283.6 M283.6,14.8h-18.9c-1.2,0-2.3,0.3-3.3,0.7c-1-0.5-2.2-0.7-3.3-0.7h-7.5c-1.3,0-2.5,0.3-3.5,0.8c-1.1-0.5-2.3-0.8-3.5-0.8
				h-21.3c-4.4,0-8,3.6-8,8v9.9c0,4,3,7.3,6.8,7.9l9.5,20.9c1.3,2.9,4.1,4.7,7.3,4.7h9c2.7,0,5.2-1.4,6.6-3.5
				c1.5,2.2,3.9,3.5,6.6,3.5h9c3.2,0,6.2-2,7.4-4.9l8.5-20.7c3.8-0.7,6.6-3.9,6.6-7.9v-9.9C291.6,18.4,288,14.8,283.6,14.8
				L283.6,14.8z"/>
		</g>
		<g>
			<path class="st2" d="M304.6,63.3c-13.9,0-23.6-9.5-23.6-23.1c0-15,12.1-22.9,24-22.9c10.4,0,21,6.5,21,18.9c0,2-0.1,3.8-0.5,6.3
				c-0.2,1.4-1.2,2.5-2.4,3c1.4,1.1,1.9,3.1,1.1,4.8C320.1,59.1,313.6,63.3,304.6,63.3z M303.6,45.9c0.9,0.6,2.1,1,3.9,1
				c1.5,0,2.5-0.3,3.3-1H303.6z"/>
			<path class="st2" d="M305,21.3c8.6,0,17,5,17,14.9c0,1.7-0.1,3.3-0.5,5.6h-23.9c0.4,6,4.3,9,9.9,9c3.9,0,6.7-1.6,8.2-5.4l5,3.2
				c-3.3,7.1-8.3,10.7-16,10.7c-12.4,0-19.6-8.4-19.6-19.1C285,27.6,295.3,21.3,305,21.3 M297.8,35.7h14.1c0.1-4.3-2.5-6.3-6.3-6.3
				C301.4,29.4,298.6,32.3,297.8,35.7 M305,13.3c-13.6,0-28,9.4-28,26.9c0,7.5,2.6,14.3,7.4,19.2c5.1,5.2,12,7.9,20.2,7.9
				c10.6,0,18.4-5.1,23.2-15.3c0.9-1.9,1-3.9,0.4-5.8c0.6-0.9,1-1.9,1.2-3c0.5-3,0.6-5.1,0.6-7C330,22.9,319.5,13.3,305,13.3
				L305,13.3z"/>
		</g>
		<g>
			<path class="st2" d="M344.2,63.3c-13.9,0-23.6-9.5-23.6-23.1c0-15,12.1-22.9,24-22.9c10.4,0,21,6.5,21,18.9c0,2-0.1,3.8-0.5,6.3
				c-0.2,1.4-1.2,2.5-2.4,3c1.4,1.1,1.9,3.1,1.1,4.8C359.7,59.1,353.3,63.3,344.2,63.3z M343.2,45.9c0.9,0.6,2.1,1,3.9,1
				c1.5,0,2.5-0.3,3.3-1H343.2z"/>
			<path class="st2" d="M344.6,21.3c8.6,0,17,5,17,14.9c0,1.7-0.1,3.3-0.5,5.6h-23.9c0.4,6,4.3,9,9.9,9c3.9,0,6.7-1.6,8.2-5.4l5,3.2
				c-3.3,7.1-8.3,10.7-16,10.7c-12.4,0-19.6-8.4-19.6-19.1C324.6,27.6,335,21.3,344.6,21.3 M337.5,35.7h14.1
				c0.1-4.3-2.5-6.3-6.3-6.3C341,29.4,338.2,32.3,337.5,35.7 M344.6,13.3c-13.6,0-28,9.4-28,26.9c0,7.5,2.6,14.3,7.4,19.2
				c5.1,5.2,12,7.9,20.2,7.9c10.6,0,18.4-5.1,23.2-15.3c0.9-1.9,1-3.9,0.4-5.8c0.6-0.9,1-1.9,1.2-3c0.5-3,0.6-5.1,0.6-7
				C369.6,22.9,359.1,13.3,344.6,13.3L344.6,13.3z"/>
		</g>
		<g>
			<path class="st2" d="M382.2,63.5c-8.3,0-16.8-5.2-16.8-15.1V36.7h-2.9c-2.2,0-4-1.8-4-4v-5.8c0-1.1,0.4-2.1,1.2-2.9
				c0.7-0.7,1.8-1.1,2.8-1.1c0,0,0.4,0,0.4,0c2.6,0,4.6-0.7,5.9-2c1.6-1.6,2.5-4.5,2.4-8.3c0-1.1,0.4-2.1,1.2-2.8
				c0.8-0.8,1.8-1.2,2.8-1.2h5.6c2.2,0,4,1.8,4,4v6.3h10.1c2.2,0,4,1.8,4,4v9.9c0,2.2-1.8,4-4,4h-10V40c0.7-1,1.9-1.7,3.3-1.7h6.7
				c2.2,0,4,1.8,4,4v6.4C398.9,58.4,390.5,63.5,382.2,63.5z"/>
			<path class="st2" d="M380.8,12.5v10.3h14.1v9.9h-14v14.2c0,2.1,1.6,3.2,3.6,3.2c2,0,3.7-1.1,3.7-3.3v-4.5h6.7v6.4
				c0,7.3-6.6,10.7-12.8,10.7c-6.2,0-12.8-3.6-12.8-11.1V32.7h-6.9v-5.8c0.1,0,0.2,0,0.4,0c7.3,0,12.4-4.2,12.4-14.3H380.8
				 M380.8,4.5h-5.6c-2.1,0-4.2,0.9-5.7,2.4c-1.5,1.5-2.3,3.6-2.3,5.7c0,2.6-0.5,4.7-1.3,5.5c-0.7,0.7-2.2,0.8-3.1,0.8l-0.2,0
				c0,0-0.1,0-0.1,0c-2.1,0-4.1,0.8-5.6,2.3c-1.5,1.5-2.4,3.6-2.4,5.7v5.8c0,4.1,3,7.4,6.9,7.9v7.8c0,10.9,8.9,19.1,20.8,19.1
				c5,0,9.8-1.5,13.4-4.2c4.7-3.5,7.4-8.6,7.4-14.6v-6.4c0-1.8-0.6-3.5-1.6-4.8c1-1.3,1.6-3,1.6-4.8v-9.9c0-4.4-3.6-8-8-8h-6.1v-2.3
				C388.8,8.1,385.2,4.5,380.8,4.5L380.8,4.5z"/>
		</g>
		<g>
			<path class="st2" d="M430.7,63.3c-12.5,0-22.2-10.1-22.2-23c0-15.1,11.9-23,23.6-23c10.2,0,17.6,5.9,17.6,14.1
				c0,4.2-2.1,7.7-5.3,9.6l6.2,6.4c1.2,1.3,1.5,3.2,0.6,4.8C446.8,59.7,440.2,63.3,430.7,63.3z M428,35.5c-0.3,1-0.3,2-0.3,2.5
				c0,4.5,3,6.9,5.8,6.9c0.7,0,2.1,0,3.9-2.5C432.7,42.1,429.3,39.5,428,35.5z"/>
			<path class="st2" d="M432.1,21.3c6.9,0,13.6,3.5,13.6,10.1c0,4.3-3.2,7.1-7.1,7.1c-4.2,0-7.1-2.2-7.1-6.9c0-1.7,0.6-3.2,1.7-4.3
				c-6.3,0.2-9.5,5.2-9.5,10.7c0,7,5,10.9,9.8,10.9c2.8,0,5.5-1.3,7.9-5.3l6.3,6.5c-3.7,6.4-9.2,9.2-17,9.2
				c-10.5,0-18.2-8.7-18.2-19C412.5,27.1,423,21.3,432.1,21.3 M432.1,13.3c-13.7,0-27.6,9.3-27.6,27c0,15.1,11.5,27,26.2,27
				c10.9,0,18.9-4.4,23.9-13.2c1.8-3.1,1.3-7-1.2-9.6l-3.3-3.4c2.2-2.6,3.5-6,3.5-9.8C453.7,20.9,444.6,13.3,432.1,13.3L432.1,13.3z
				"/>
		</g>
		<g>
			<path class="st2" d="M473.3,62.2c-0.3,0-0.6,0-0.8-0.1c-0.3,0.1-0.5,0.1-0.8,0.1h-23.3c-2.2,0-4-1.8-4-4v-10c0-2.2,1.8-4,4-4h2.5
				V23.8h-2.5c-2.2,0-4-1.8-4-4v-10c0-2.2,1.8-4,4-4h18c2.2,0,4,1.8,4,4c0,2.8-0.2,6.5-0.6,10.4c3.1-2,6.6-2.9,9.7-2.9
				c5.3,0,14.3,2.2,14.3,17.3v9.6h0.3c2.2,0,4,1.8,4,4v10c0,2.2-1.8,4-4,4H473.3z M471.6,44.2c0.3,0,0.6,0,0.8,0.1
				c0.3-0.1,0.5-0.1,0.8-0.1h1.2v-5.1c0-1.9-0.2-2.8-0.3-3.2c-0.1,0-0.3,0-0.6,0c-0.8,0-3.1,0-3.1,5.9v2.5H471.6z"/>
			<path class="st2" d="M466.4,9.8c0.1,6.9-1.4,19.2-3.2,27.7h0.7c2.2-12.6,9.9-16.2,15.6-16.2c7.7,0,10.3,5.3,10.3,13.3v13.6h4.3
				v10h-20.9v-10h5.2v-9.1c0-5.6-1.2-7.3-4.9-7.3c-4.1,0-7.1,3-7.1,9.9v6.5h5.2v10h-23.3v-10h6.5V19.8h-6.5v-10H466.4 M466.4,1.8
				h-18c-4.4,0-8,3.6-8,8v10c0,3.9,2.8,7.2,6.5,7.9v12.6c-3.7,0.7-6.5,3.9-6.5,7.9v10c0,4.4,3.6,8,8,8h23.3c0.3,0,0.5,0,0.8,0
				c0.3,0,0.5,0,0.8,0h20.9c4.4,0,8-3.6,8-8v-10c0-3.1-1.7-5.7-4.3-7.1v-6.5c0-6-1.2-10.6-3.7-14.2c-2.2-3.2-6.6-7.1-14.6-7.1
				c-1.7,0-3.5,0.2-5.3,0.6c0.1-1.5,0.1-2.9,0.1-4.2C474.4,5.4,470.8,1.8,466.4,1.8L466.4,1.8z"/>
		</g>
		<g>
			<path class="st2" d="M508.9,63.3c-9.7,0-16.7-6.4-16.7-15.2c0-3,1.1-6.3,3.5-9c-0.9-0.6-1.5-1.5-1.8-2.6c-0.4-2-0.4-2.9-0.4-3.7
				c0-9.4,8-15.5,20.5-15.5c12.3,0,20.6,6.5,20.6,16.1c0,2.7-0.1,5-0.2,7h3.4c2.2,0,4,1.8,4,4v3.4c0,9.4-4.8,14.9-12.8,14.9
				c-3.9,0-7-1.4-9-4C517.1,61.7,513.3,63.3,508.9,63.3z M513.1,45.6c-0.2,0.1-0.3,0.1-0.5,0.2C512.7,45.8,512.9,45.7,513.1,45.6z"
				/>
			<path class="st2" d="M514,21.3c8.5,0,16.6,3.7,16.6,12.1c0,6.5-0.6,10.1-0.6,15c0,1.1,0.3,1.5,0.9,1.5c0.5,0,1.4-0.1,1.4-2.1
				v-3.3h5.5v3.4c0,6.7-2.7,10.9-8.8,10.9c-3.1,0-7.4-1.1-7.4-8c0-1.7,0.1-2.8,0.3-3.8h-0.7c-0.7,7.5-5.9,12.3-12.3,12.3
				c-6.7,0-12.7-4.1-12.7-11.2c0-6.3,5.7-11.2,17.5-11.2c1.4,0,3,0.1,4.7,0.3v-3c0-2.8-2-3.9-4.9-3.9c-2.5,0-4.1,1.4-4,5.5h-11.6
				c-0.3-1.8-0.3-2.4-0.3-3C497.6,24.7,505.3,21.3,514,21.3 M512.2,49.9c2.6,0,5.8-1.5,6.1-8.3c-1.2-0.2-2.2-0.3-3.1-0.3
				c-5.4,0-6.9,3-6.9,5C508.3,48.7,510,49.9,512.2,49.9 M514,13.3c-14.6,0-24.5,7.8-24.5,19.5c0,1,0,2.2,0.5,4.5
				c0.1,0.7,0.3,1.3,0.6,1.9c-1.7,2.9-2.5,6-2.5,9c0,10.9,8.9,19.2,20.7,19.2c4.1,0,7.8-1.1,10.9-3.2c2.5,1.7,5.6,2.6,9.2,2.6
				c5.4,0,10.1-2.2,13.1-6.2c2.4-3.3,3.7-7.6,3.7-12.8v-3.4c0-4.2-3.2-7.6-7.2-8c0-1,0-2,0-3c0-6.7-3.1-12.3-8.8-16
				C524.4,14,518.2,13.3,514,13.3L514,13.3z"/>
		</g>
		<g>
			<path class="st2" d="M563.5,62.2c-0.3,0-0.6,0-0.8-0.1c-0.3,0.1-0.5,0.1-0.8,0.1h-23.3c-2.2,0-4-1.8-4-4v-10c0-2.2,1.8-4,4-4h2.5
				v-7.5h-2.5c-2.2,0-4-1.8-4-4v-9.9c0-2.2,1.8-4,4-4h15.2c1.4,0,2.6,0.7,3.3,1.8c2.9-2.2,6.4-3.3,10.6-3.3
				c10.5,0,16.3,6.1,16.3,17.2v9.7h0.3c2.2,0,4,1.8,4,4v10c0,2.2-1.8,4-4,4H563.5z M561.9,44.2c0.3,0,0.6,0,0.8,0.1
				c0.3-0.1,0.5-0.1,0.8-0.1h1.2v-4.8c0-1.4-0.1-2.2-0.2-2.6c-0.2,0-0.4,0-0.7,0c-3,0-3.1,0.8-3.1,2.7v4.8H561.9z"/>
			<path class="st2" d="M567.8,21.3c9,0,12.3,5.1,12.3,13.2v13.7h4.3v10h-20.9v-10h5.2v-8.8c0-5.4-1.1-6.7-4.9-6.7
				c-4.6,0-7.1,2-7.1,6.7v8.8h5.2v10h-23.3v-10h6.5V32.7h-6.5v-9.9h15.2c0.1,2.8-0.5,10.8-1,13.3h0.7
				C554.8,26.4,559.8,21.3,567.8,21.3 M567.8,13.3c-3.9,0-7.3,0.8-10.3,2.4c-1.1-0.6-2.3-0.9-3.6-0.9h-15.2c-4.4,0-8,3.6-8,8v9.9
				c0,3.7,2.6,6.9,6,7.8c-3.5,0.9-6,4-6,7.8v10c0,4.4,3.6,8,8,8h23.3c0.3,0,0.5,0,0.8,0c0.3,0,0.5,0,0.8,0h20.9c4.4,0,8-3.6,8-8v-10
				c0-3.1-1.7-5.7-4.3-7.1v-6.6C588.1,21.2,580.5,13.3,567.8,13.3L567.8,13.3z M564.7,39C564.7,39,564.7,39,564.7,39L564.7,39
				L564.7,39z"/>
		</g>
		<g>
			<path class="st2" d="M604.6,63.3c-12.5,0-22.2-10.1-22.2-23c0-15.1,11.9-23,23.7-23c10.2,0,17.6,5.9,17.6,14.1
				c0,4.2-2.1,7.7-5.3,9.6l6.2,6.4c1.2,1.3,1.5,3.2,0.6,4.8C620.8,59.7,614.1,63.3,604.6,63.3z M602,35.5c-0.3,1-0.3,2-0.3,2.5
				c0,4.5,3,6.9,5.8,6.9c0.7,0,2.1,0,3.9-2.5C606.6,42.1,603.3,39.5,602,35.5z"/>
			<path class="st2" d="M606.1,21.3c6.9,0,13.6,3.5,13.6,10.1c0,4.3-3.2,7.1-7.1,7.1c-4.2,0-7.1-2.2-7.1-6.9c0-1.7,0.6-3.2,1.7-4.3
				c-6.3,0.2-9.5,5.2-9.5,10.7c0,7,5,10.9,9.8,10.9c2.8,0,5.5-1.3,7.9-5.3l6.3,6.5c-3.7,6.4-9.2,9.2-17,9.2
				c-10.5,0-18.2-8.7-18.2-19C586.4,27.1,597,21.3,606.1,21.3 M606.1,13.3c-13.7,0-27.7,9.3-27.7,27c0,15.1,11.5,27,26.2,27
				c10.9,0,18.9-4.4,23.9-13.2c1.8-3.1,1.3-7-1.2-9.6l-3.3-3.4c2.2-2.6,3.5-6,3.5-9.8C627.7,20.9,618.6,13.3,606.1,13.3L606.1,13.3z
				"/>
		</g>
		<g>
			<path class="st2" d="M642.6,63.3c-13.9,0-23.6-9.5-23.6-23.1c0-15,12.1-22.9,24-22.9c10.4,0,21,6.5,21,18.9c0,2-0.1,3.8-0.5,6.3
				c-0.2,1.4-1.2,2.5-2.4,3c1.4,1.1,1.9,3.1,1.1,4.8C658.1,59.1,651.7,63.3,642.6,63.3z M641.6,45.9c0.9,0.6,2.1,1,3.9,1
				c1.5,0,2.5-0.3,3.3-1H641.6z"/>
			<path class="st2" d="M643,21.3c8.6,0,17,5,17,14.9c0,1.7-0.1,3.3-0.5,5.6h-23.9c0.4,6,4.3,9,9.9,9c3.9,0,6.7-1.6,8.2-5.4l5,3.2
				c-3.3,7.1-8.3,10.7-16,10.7c-12.4,0-19.6-8.4-19.6-19.1C623,27.6,633.3,21.3,643,21.3 M635.9,35.7h14.1c0.1-4.3-2.5-6.3-6.3-6.3
				C639.4,29.4,636.6,32.3,635.9,35.7 M643,13.3c-13.6,0-28,9.4-28,26.9c0,7.5,2.6,14.3,7.4,19.2c5.1,5.2,12,7.9,20.2,7.9
				c10.6,0,18.4-5.1,23.2-15.3c0.9-1.9,1-3.9,0.4-5.8c0.6-0.9,1-1.9,1.2-3c0.5-3,0.6-5.1,0.6-7C668,22.9,657.5,13.3,643,13.3
				L643,13.3z"/>
		</g>
		<g>
			<path class="st2" d="M683.7,63.3c-2.9,0-5.5-0.5-7.7-1.6c-0.7,0.7-1.7,1.1-2.7,1.1h-8.8c-2.2,0-4-1.8-4-4V45.1
				c0-1.4,0.7-2.6,1.8-3.3c-1.7-2.2-2.8-5.1-2.8-9c0-8.6,7.1-15.4,16.1-15.4c3.2,0,6.1,0.6,8.5,1.9c0.8-0.8,1.8-1.2,2.8-1.2h8.7
				c2.2,0,4,1.8,4,4v13.5c0,1.2-0.5,2.2-1.3,2.9c2.1,2.3,3.5,5.4,3.5,9.4C701.8,57.1,694.5,63.3,683.7,63.3z"/>
			<path class="st2" d="M675.6,21.3c6.6,0,10.4,3.1,11.6,8l-0.3-7.3h8.7v13.5H685c-0.1-6.3-3.6-8.1-7.4-8.1c-2.1,0-3.4,1.1-3.4,2.7
				c0,3.3,4.1,4.2,8.8,5.2c6.5,1.4,14.8,4.1,14.8,12.5c0,8.4-7.3,11.4-14.1,11.4c-3.9,0-9.4-1.4-10.8-6.9l0.4,6.5h-8.8V45.1H675
				c-0.1,6,2.8,8.6,8.2,8.6c2.6,0,3.9-1.2,3.9-2.9c0-3.5-3.5-4.1-9.8-5.6c-6.1-1.4-13.7-3.9-13.7-12.5
				C663.5,26.1,669.2,21.3,675.6,21.3 M675,45.1L675,45.1 M675.6,13.3c-11.3,0-20.1,8.5-20.1,19.4c0,3.2,0.7,6,1.9,8.6
				c-0.6,1.1-0.9,2.4-0.9,3.7v13.8c0,4.4,3.6,8,8,8h8.8c1.1,0,2.2-0.2,3.1-0.6c2.2,0.7,4.6,1.1,7.3,1.1c13,0,22.1-8,22.1-19.4
				c0-3.6-0.9-6.8-2.7-9.6c0.3-0.9,0.5-1.8,0.5-2.7V22c0-4.4-3.6-8-8-8h-8.7c-1.1,0-2.2,0.2-3.2,0.7
				C681.3,13.8,678.6,13.3,675.6,13.3L675.6,13.3z"/>
		</g>
		<g>
			<path class="st2" d="M733.3,63.5c-8.3,0-16.8-5.2-16.8-15.1V36.7h-2.9c-2.2,0-4-1.8-4-4v-5.8c0-1.1,0.4-2.1,1.2-2.9
				c0.7-0.7,1.8-1.1,2.8-1.1c0,0,0.4,0,0.4,0c2.6,0,4.6-0.7,5.9-2c1.6-1.6,2.5-4.5,2.4-8.3c0-1.1,0.4-2.1,1.2-2.8s1.8-1.2,2.8-1.2
				h5.6c2.2,0,4,1.8,4,4v6.3h10.1c2.2,0,4,1.8,4,4v9.9c0,2.2-1.8,4-4,4h-10V40c0.7-1,1.9-1.7,3.3-1.7h6.7c2.2,0,4,1.8,4,4v6.4
				C750.1,58.4,741.6,63.5,733.3,63.5z"/>
			<path class="st2" d="M731.9,12.5v10.3h14.1v9.9h-14v14.2c0,2.1,1.6,3.2,3.6,3.2c2,0,3.7-1.1,3.7-3.3v-4.5h6.7v6.4
				c0,7.3-6.6,10.7-12.8,10.7s-12.8-3.6-12.8-11.1V32.7h-6.9v-5.8c0.1,0,0.2,0,0.4,0c7.3,0,12.4-4.2,12.4-14.3H731.9 M731.9,4.5
				h-5.6c-2.1,0-4.2,0.9-5.7,2.4c-1.5,1.5-2.3,3.6-2.3,5.7c0,2.6-0.5,4.7-1.3,5.5c-0.7,0.7-2.2,0.8-3.1,0.8l-0.2,0c0,0-0.1,0-0.1,0
				c-2.1,0-4.1,0.8-5.6,2.3c-1.5,1.5-2.4,3.6-2.4,5.7v5.8c0,4.1,3,7.4,6.9,7.9v7.8c0,10.9,8.9,19.1,20.8,19.1c5,0,9.8-1.5,13.4-4.2
				c4.7-3.5,7.4-8.6,7.4-14.6v-6.4c0-1.8-0.6-3.5-1.6-4.8c1-1.3,1.6-3,1.6-4.8v-9.9c0-4.4-3.6-8-8-8h-6.1v-2.3
				C739.9,8.1,736.4,4.5,731.9,4.5L731.9,4.5z"/>
		</g>
		<g>
			<path class="st2" d="M769.8,63.3c-13.5,0-24.5-10.4-24.5-23.2c0-12.8,10.7-22.8,24.5-22.8c13.7,0,24.5,10,24.5,22.8
				C794.3,52.7,783.1,63.3,769.8,63.3z M769.7,34.6c-2.2,0-3.1,0-3.1,6.3c0,4.4,0.6,5.6,0.8,5.9c0,0,0.3,0.3,2.4,0.3
				c1.8,0,2.3-0.2,2.4-0.3c0.1-0.1,0.7-1.1,0.7-6C772.8,34.6,772.2,34.6,769.7,34.6z"/>
			<path class="st2" d="M769.8,21.3c11.5,0,20.5,8,20.5,18.8c0,10.3-9.2,19.2-20.5,19.2c-11.5,0-20.5-8.9-20.5-19.2
				C749.4,29.3,758.8,21.3,769.8,21.3 M769.7,51.2c5.3,0,7.1-1.4,7.1-10.3c0-8.2-1.8-10.3-7.1-10.3c-4.8,0-7.1,1.8-7.1,10.3
				C762.6,49.4,764.4,51.2,769.7,51.2 M769.8,13.3c-7.4,0-14.4,2.6-19.7,7.4c-5.7,5.1-8.8,12-8.8,19.5c0,15,12.8,27.2,28.5,27.2
				c7.5,0,14.6-2.8,20-7.9c5.4-5.1,8.5-12.1,8.5-19.2C798.3,25.1,785.8,13.3,769.8,13.3L769.8,13.3z"/>
		</g>
		<g>
			<path class="st2" d="M843.8,62.2c-1.7,0-3.2-1.1-3.8-2.7c-0.7-1.9-1.7-5-2.9-8.6c-1,3.1-1.9,6-2.8,8.5c-0.6,1.6-2.1,2.7-3.8,2.7
				h-9c-1.6,0-3-0.9-3.6-2.3l-10.5-23.1h-1.4c-2.2,0-4-1.8-4-4v-9.9c0-2.2,1.8-4,4-4h21.4c1.5,0,2.9,0.9,3.5,2.1
				c0.7-1.3,2-2.1,3.5-2.1h7.5c1.4,0,2.6,0.7,3.3,1.8c0.7-1.1,1.9-1.8,3.3-1.8h18.9c2.2,0,4,1.8,4,4v9.9c0,2.2-1.8,4-4,4h-1.3
				l-9.5,23c-0.6,1.5-2.1,2.5-3.7,2.5H843.8z"/>
			<path class="st2" d="M867.4,22.8v9.9h-4l-10.5,25.5h-9c-2.2-6.2-5.2-15.5-6.7-22c-1.5,6.5-4.4,15.6-6.6,22h-9l-11.6-25.5h-4v-9.9
				h21.4v9.9h-4.6c1.6,4.4,3.1,10.1,3.7,14c1.8-7.1,5.5-16.7,7.9-23.9h7.5c2,6.1,6,17.1,7.5,23.9c0.7-3.9,2.1-9.6,3.6-14h-4.5v-9.9
				H867.4 M867.4,14.8h-18.9c-1.2,0-2.3,0.3-3.3,0.7c-1-0.5-2.2-0.7-3.3-0.7h-7.5c-1.3,0-2.5,0.3-3.5,0.8c-1.1-0.5-2.3-0.8-3.5-0.8
				h-21.4c-4.4,0-8,3.6-8,8v9.9c0,4,3,7.3,6.8,7.9l9.5,20.9c1.3,2.9,4.1,4.7,7.3,4.7h9c2.7,0,5.2-1.4,6.6-3.5
				c1.5,2.2,3.9,3.5,6.6,3.5h9c3.2,0,6.2-2,7.4-4.9l8.5-20.7c3.8-0.7,6.6-3.9,6.6-7.9v-9.9C875.4,18.4,871.8,14.8,867.4,14.8
				L867.4,14.8z"/>
		</g>
		<g>
			<path class="st2" d="M868.1,62.2c-2.2,0-4-1.8-4-4v-10c0-2.2,1.8-4,4-4h2.6v-7.5h-2.5c-2.2,0-4-1.8-4-4v-9.9c0-2.2,1.8-4,4-4h2.4
				c-0.4-1.1-0.7-2.3-0.7-3.6c0-5.7,4.7-10.3,10.5-10.3c5.8,0,10.6,4.6,10.6,10.3c0,2-0.6,3.8-1.5,5.3c0.4,0.6,0.7,1.4,0.7,2.3v21.4
				h1.4c2.2,0,4,1.8,4,4v10c0,2.2-1.8,4-4,4H868.1z"/>
			<path class="st2" d="M880.4,8.9c3.6,0,6.6,2.8,6.6,6.3s-3,6.3-6.6,6.3s-6.5-2.9-6.5-6.3S876.8,8.9,880.4,8.9 M886.2,22.8v25.4
				h5.4v10h-23.5v-10h6.6V32.7h-6.5v-9.9H886.2 M880.4,0.9c-8,0-14.5,6.4-14.5,14.2c-3.3,1-5.7,4-5.7,7.7v9.9c0,3.7,2.5,6.8,6,7.7
				c-3.5,0.9-6,4-6,7.8v10c0,4.4,3.6,8,8,8h23.5c4.4,0,8-3.6,8-8v-10c0-3.5-2.3-6.5-5.4-7.6V22.8c0-0.7-0.1-1.5-0.3-2.1
				c0.7-1.7,1.1-3.5,1.1-5.5C895,7.3,888.4,0.9,880.4,0.9L880.4,0.9z"/>
		</g>
		<g>
			<path class="st2" d="M917.9,62.2c-0.3,0-0.6,0-0.8-0.1c-0.3,0.1-0.5,0.1-0.8,0.1H893c-2.2,0-4-1.8-4-4v-10c0-2.2,1.8-4,4-4h2.5
				v-7.5H893c-2.2,0-4-1.8-4-4v-9.9c0-2.2,1.8-4,4-4h15.2c1.4,0,2.6,0.7,3.3,1.8c2.9-2.2,6.4-3.3,10.6-3.3
				c10.5,0,16.3,6.1,16.3,17.2v9.7h0.3c2.2,0,4,1.8,4,4v10c0,2.2-1.8,4-4,4H917.9z M916.2,44.2c0.3,0,0.6,0,0.8,0.1
				c0.3-0.1,0.5-0.1,0.8-0.1h1.2v-4.8c0-1.4-0.1-2.2-0.2-2.6c-0.2,0-0.4,0-0.7,0c-3,0-3.1,0.8-3.1,2.7v4.8H916.2z"/>
			<path class="st2" d="M922.1,21.3c9,0,12.3,5.1,12.3,13.2v13.7h4.3v10h-20.9v-10h5.2v-8.8c0-5.4-1.1-6.7-4.9-6.7
				c-4.6,0-7.1,2-7.1,6.7v8.8h5.2v10H893v-10h6.5V32.7H893v-9.9h15.2c0.1,2.8-0.5,10.8-1,13.3h0.7C909.1,26.4,914.2,21.3,922.1,21.3
				 M922.1,13.3c-3.9,0-7.3,0.8-10.3,2.4c-1.1-0.6-2.3-0.9-3.6-0.9H893c-4.4,0-8,3.6-8,8v9.9c0,3.7,2.6,6.9,6,7.8
				c-3.5,0.9-6,4-6,7.8v10c0,4.4,3.6,8,8,8h23.3c0.3,0,0.5,0,0.8,0c0.3,0,0.5,0,0.8,0h20.9c4.4,0,8-3.6,8-8v-10
				c0-3.1-1.7-5.7-4.3-7.1v-6.6C942.4,21.2,934.9,13.3,922.1,13.3L922.1,13.3z M919,39C919,39,919,39,919,39L919,39L919,39z"/>
		</g>
		<g>
			<path class="st2" d="M952.9,63.1c-5.7,0-10.3-4.6-10.3-10.3c0-3.1,1.4-6,3.7-7.9c-0.2-0.5-0.3-1-0.3-1.6c0-6.2-1.2-12.2-2.3-17.5
				c-0.8-4.1-1.6-7.7-1.6-10.7c0-7.1,5.5-10.9,10.7-10.9c5.4,0,10.8,3.8,10.8,11c0,2.9-0.7,6.4-1.5,10.4c-1.1,5.3-2.2,11.3-2.2,17.6
				c0,0.6-0.1,1.1-0.3,1.6c2.2,1.9,3.7,4.7,3.7,7.9C963.1,58.5,958.5,63.1,952.9,63.1z"/>
			<path class="st2" d="M952.7,8.4c3.4,0,6.8,2.3,6.8,7c0,6-3.7,16.5-3.7,28h-5.8c0-11.4-3.9-22-3.9-28.1
				C946.1,10.7,949.4,8.4,952.7,8.4 M952.9,46.6c3.5,0,6.3,2.8,6.3,6.3s-2.8,6.3-6.3,6.3s-6.3-2.8-6.3-6.3S949.4,46.6,952.9,46.6
				 M952.7,0.4c-8.4,0-14.7,6.4-14.7,14.9c0,3.4,0.8,7.1,1.7,11.5c1,5.1,2.2,10.9,2.2,16.7c0,0.1,0,0.2,0,0.3
				c-2.1,2.5-3.3,5.7-3.3,9.2c0,7.9,6.4,14.3,14.3,14.3c7.9,0,14.3-6.4,14.3-14.3c0-3.5-1.3-6.7-3.3-9.2c0-0.1,0-0.2,0-0.3
				c0-5.9,1.2-11.7,2.2-16.8c0.8-4.2,1.6-7.9,1.6-11.2C967.5,6.9,961.2,0.4,952.7,0.4L952.7,0.4z"/>
		</g>
	</g>
	<text transform="matrix(1 0 0 1 -1.8703 58.1738)"><tspan x="0" y="0" class="st3 st4 st5"> </tspan><tspan x="14.3" y="0" class="st6 st4 st5">Two sweet chances to win!</tspan></text>
</g>
</svg>
