<?xml version="1.0" encoding="utf-8"?>
<!-- Generator: Adobe Illustrator 23.0.3, SVG Export Plug-In . SVG Version: 6.00 Build 0)  -->
<svg version="1.1" xmlns="http://www.w3.org/2000/svg" xmlns:xlink="http://www.w3.org/1999/xlink" x="0px" y="0px" width="859.2px"
	 height="482px" viewBox="0 0 859.2 482" style="enable-background:new 0 0 859.2 482;" xml:space="preserve">
<style type="text/css">
	.st0{opacity:0.5;}
	.st1{fill:url(#SVGID_1_);}
	.st2{fill:url(#SVGID_2_);}
	.st3{fill:#FFFFFF;}
	.st4{fill:#D90B0D;}
	.st5{fill:#370000;}
</style>
<g id="Layer_3">
	<g class="st0">
		<linearGradient id="SVGID_1_" gradientUnits="userSpaceOnUse" x1="429" y1="520.5742" x2="429" y2="86.3047">
			<stop  offset="0.2509" style="stop-color:#FFFFFF;stop-opacity:0"/>
			<stop  offset="0.9437" style="stop-color:#FFFFFF"/>
		</linearGradient>
		<path class="st1" d="M853.6,59.6c2.5-2.2,4-5.4,4-8.9c0-3.3-1.3-6.3-3.5-8.4c0.1-0.4,0.1-0.7,0.1-1.1c0-6.2,1.2-12.1,2.2-17.4
			c0.8-4.1,1.5-7.7,1.5-10.8c0-7.3-5.4-12.8-12.6-12.8c-5.3,0-9.6,3-11.5,7.6c-1,1.1-6.1,9-6.5,9.8c-3.1-2.9-7.4-4.4-12.8-4.4
			c-2.5,0-6.6,0.4-10.4,2.8c-1-0.8-2.2-1.3-3.6-1.3h-15.3c-0.2,0-0.3,0-0.5,0c0.1-0.6,0.2-1.3,0.2-2c0-6.6-5.5-12-12.4-12
			c-5.7,0-10.5,3.8-11.9,9c-0.8,1.1-1.4,2.4-1.8,3.7c-0.3,0.4-0.5,0.8-0.8,1.3h-17.7c-1.3,0-2.4,0.4-3.4,1.1c-1-0.7-2.1-1.1-3.4-1.1
			h-7.5c-1.3,0-2.6,0.5-3.6,1.2c-1-0.8-2.2-1.2-3.6-1.2h-21.5c-3.2,0-5.7,2.6-5.7,5.7c0,0-4.5,13.2-4.5,14.4
			c-1.6-12.3-12.5-21.6-26.1-21.6c-7.1,0-13.5,2.5-18.2,6.7c-0.3-2.9-2.7-5.2-5.7-5.2h-8.5V10c0-3.2-2.6-5.7-5.7-5.7h-5.7
			c-1.5,0-3,0.6-4.1,1.7c-1.1,1.1-1.7,2.5-1.7,4.1c0,0.3,0,0.5,0,0.8c-0.5,0.9-0.8,1.9-0.8,2.9c0,0.3,0,0.5,0,0.8
			c-0.4,0.7-0.7,1.4-0.8,2.2c-0.1,0.2-0.2,0.3-0.4,0.5c-1,1-2.7,1.5-5,1.5c-1.6,0-3,0.6-4.1,1.6c-1.1,1.1-1.7,2.5-1.7,4.1
			c0,0-3.6,17.1-3.6,18c0,0-0.7,2.7-0.7,3.6v1c-0.1,0.1-0.1,0.2-0.2,0.3c0-0.6,0.1-1.1,0.1-1.7c0-4-1.2-7.1-3-9.5
			c0.5-0.9,0.8-1.9,0.8-2.9V19.6c0-3.2-2.6-5.7-5.7-5.7h-8.8c-1.1,0-2.2,0.3-3.1,0.9c-2.4-1-5.2-1.6-8.3-1.6
			c-3.9,0-7.5,1.2-10.4,3.2c-1-1-2.4-1.6-4-1.6h-18.9c-0.3,0-0.5,0-0.8,0.1c-0.3,0-0.5-0.1-0.8-0.1h-21.4c-3.2,0-5.7,2.6-5.7,5.7
			v0.1c-3.8-4.6-10.4-7.3-18.7-7.3c-6,0-11,1.3-14.8,3.7c-1-1.3-2.7-2.2-4.5-2.2h-19c-1.3,0-2.4,0.4-3.4,1.1c-1-0.7-2.1-1.1-3.4-1.1
			h-7.5c-1.3,0-2.6,0.5-3.6,1.2c-1-0.8-2.2-1.2-3.6-1.2h-21.5h-16.3h-8.4v-0.9c0-0.3,0-0.5-0.1-0.8V10c0-3.2-2.6-5.7-5.7-5.7h-5.7
			c-1.5,0-3,0.6-4.1,1.7c-1.1,1.1-1.7,2.5-1.7,4.1c0,2.4-0.3,5.5-2,7.2c-1,1-2.7,1.5-5,1.5c-0.6,0-1.2,0.1-1.8,0.3
			c-4.3-3.8-10.3-5.8-16.3-5.8c-7.6,0-15.5,3.2-20.5,9.3c-4.2-6.1-11.8-9.3-19.4-9.3c-5.7,0-11.5,1.8-16.1,5.2
			c-0.8-2.2-2.9-3.7-5.3-3.7h-19c-1.3,0-2.4,0.4-3.4,1.1c-1-0.7-2.1-1.1-3.4-1.1h-7.5c-1.3,0-2.6,0.5-3.6,1.2
			c-1-0.8-2.2-1.2-3.6-1.2h-21.5c-0.4,0-0.7,0-1.1,0.1c-0.9-0.6-2-0.9-3.1-0.9h-8.8c-1.1,0-2.2,0.3-3.1,0.9c-2.4-1-5.2-1.6-8.3-1.6
			c-10,0-17.9,7.6-17.9,17.2c0,1.2,0.1,2.3,0.3,3.4c-0.2-0.2-0.3-0.3-0.5-0.5c-0.3-0.2-8.4-7.6-8.4-7.6c-1-1.2-2.2-2.3-3.5-3.3
			c-0.1-0.1-0.2-0.2-0.3-0.2c-4.8-5.5-12.1-9-20.4-9c-6.3,0-12.1,2-16.5,5.4c0,0,0,0,0,0c-0.8-2.2-2.9-3.9-5.4-3.9h-19
			c-1.3,0-2.4,0.4-3.4,1.1c-1-0.7-2.1-1.1-3.4-1.1h-7.5c-1.3,0-2.6,0.5-3.6,1.2c-1-0.8-2.2-1.2-3.6-1.2h-4.4c-0.5-0.5-1-0.9-1.6-1.2
			c-0.2-0.8-5.4-7.1-6.2-7.5c-0.6-2.5-2.9-4.3-5.5-4.3h-54C2.6,1.6,0,4.2,0,7.4v23.8c0,2.1,1.1,3.9,2.8,4.9
			c0.3,1.5,8.4,12.1,8.7,12.6V56c0,2.1,1.2,3.9,2.8,4.9l257,366.1c0,2.6,1.7,4.8,4.1,5.5v3.3c0,3.2,2.6,5.7,5.7,5.7h8.5
			c0,0.1,0,0.2,0,0.4c-0.5,0.8-0.7,1.8-0.7,2.8v2.5c0,1.1,0.3,2.1,0.8,2.9c0,0.2-0.1,0.4-0.1,0.6c0,0.1,0,0.2,0,0.3c0,0,0,0.2,0,0.5
			c-0.5,0.8-0.7,1.8-0.7,2.8v2.5c0,3.2,2.6,5.7,5.7,5.7h7.4c0.2,0,0.4,0,0.6,0c0.8,0.2,1.7,0.4,2.6,0.4c0.3,0,0.6,0,1,0
			c-0.1,0.3-0.1,0.7-0.1,1v2.5c0,1.1,0.3,2.1,0.8,2.9c-0.1,0.3-0.1,0.6-0.1,1l0,0.4c-0.5,0.8-0.7,1.8-0.7,2.8v2.5
			c0,3.2,2.6,5.7,5.7,5.7h12.3c0.1,0,0.3,0,0.4,0c0.1,0,0.3,0,0.4,0h5.8c0.1,0,0.1,0,0.2,0c0.1,0,0.1,0,0.2,0h5.2
			c0.6,0,1.1-0.1,1.7-0.3c1,0.4,2.1,0.6,3.3,0.6c1.6,0,3.1-0.4,4.4-1c1.4,0.6,2.9,1,4.6,1c1.2,0,2.3-0.2,3.3-0.5
			c0.5,0.1,1,0.2,1.6,0.2h6.7c1.8,0,3.4-0.9,4.5-2.2c1.9,1.5,4.3,2.5,7,2.5c1.9,0,3.7-0.5,5.2-1.3c1.4,0.8,3,1.3,4.9,1.3
			c0.9,0,1.7-0.1,2.5-0.4c0.3,0.1,0.6,0.1,1,0.1h3.6c0.1,0,0.1,0,0.2,0c0.1,0,0.1,0,0.2,0h6.7c1.3,0,2.5-0.4,3.4-1.2
			c1,0.9,2.3,1.4,3.7,1.4h2.5c0.4,0,0.8,0,1.3-0.1c0.7,0.1,1.5,0.2,2.3,0.2c2.5,0,4.8-0.8,6.6-2.1c1.1,1.1,2.6,1.8,4.2,1.8h2.8
			c0.6,0,1.1-0.1,1.7-0.3c0.5,0.2,1.1,0.3,1.7,0.3h2.8c1,0,2-0.3,2.9-0.8c0.8,0.5,1.8,0.8,2.9,0.8h12.3c0.2,0,0.3,0,0.5,0
			c0.2,0,0.3,0,0.5,0h12.3c0.6,0,1.2-0.1,1.8-0.3c0.6,0.2,1.1,0.3,1.8,0.3h7.7c0.5,0,0.9-0.1,1.3-0.2c0.6,0.2,1.2,0.3,1.9,0.3h2.2
			c0.3,0,0.5,0,0.8-0.1c0.6,0.1,1.2,0.2,1.8,0.2c1.7,0,3.2-0.4,4.5-1c1.3,0.7,2.7,1,4.3,1c1.3,0,2.6-0.3,3.7-0.7
			c1.1,0.4,2.3,0.7,3.5,0.7c1,0,1.9-0.2,2.8-0.4c0.7,0.2,1.5,0.3,2.3,0.3c0.7,0,1.3-0.1,1.9-0.2c0.2,0,0.3,0.1,0.5,0.1h4.5
			c0.2,0,0.4,0,0.6,0c0.2,0,0.4,0,0.6,0h5.7c0.6,0,1.2-0.1,1.8-0.3c1.1,0.4,2.3,0.6,3.6,0.6c1.2,0,2.3-0.2,3.3-0.5
			c0.7,0.3,1.4,0.4,2.2,0.4h2.2c0.3,0,0.5,0,0.8-0.1c0.6,0.1,1.2,0.2,1.8,0.2c1.5,0,2.9-0.3,4.2-0.8c1,0.5,2.1,0.8,3.2,0.8
			c4,0,7.3-3.3,7.3-7.3c0-1-0.2-2-0.6-2.9c0-0.1,0-0.2,0-0.4c0-0.4,0-0.7-0.1-1c0.1-0.5,0.2-1.1,0.3-1.6c0.2-1.2,0.5-2.3,0.5-3.5
			c0-0.9-0.2-1.8-0.5-2.6c1.2,0,2.4-0.2,3.5-0.5c1.2,0.4,2.3,0.6,3.3,0.6c4.9,0,8.4-3.3,8.4-8.1v-1.6c0-0.3,0-0.6-0.1-0.9
			c0.1-0.3,0.1-0.6,0.1-0.9v-2.5c0-0.8-0.2-1.6-0.5-2.3c0-0.4,0-0.7,0-0.7c0-0.8-0.2-1.6-0.5-2.4c0-0.4,0-0.7,0-0.7
			c0-0.4,0-0.7-0.1-1.1h0.6c0.1,0,0.2,0,0.3,0c0.1,0,0.2,0,0.3,0h7.4c0.6,0,1.3-0.1,1.8-0.3c1,0.4,2,0.7,3.2,0.7
			c4.4,0,7.9-3.6,7.9-7.9L853.6,59.6z"/>
	</g>
	<g class="st0">
		<linearGradient id="SVGID_2_" gradientUnits="userSpaceOnUse" x1="429" y1="520.5742" x2="429" y2="86.3047">
			<stop  offset="0.2509" style="stop-color:#FFFFFF;stop-opacity:0"/>
			<stop  offset="0.9437" style="stop-color:#FFFFFF"/>
		</linearGradient>
		<path class="st2" d="M853.6,59.6c2.5-2.2,4-5.4,4-8.9c0-3.3-1.3-6.3-3.5-8.4c0.1-0.4,0.1-0.7,0.1-1.1c0-6.2,1.2-12.1,2.2-17.4
			c0.8-4.1,1.5-7.7,1.5-10.8c0-7.3-5.4-12.8-12.6-12.8c-5.3,0-9.6,3-11.5,7.6c-1,1.1-6.1,9-6.5,9.8c-3.1-2.9-7.4-4.4-12.8-4.4
			c-2.5,0-6.6,0.4-10.4,2.8c-1-0.8-2.2-1.3-3.6-1.3h-15.3c-0.2,0-0.3,0-0.5,0c0.1-0.6,0.2-1.3,0.2-2c0-6.6-5.5-12-12.4-12
			c-5.7,0-10.5,3.8-11.9,9c-0.8,1.1-1.4,2.4-1.8,3.7c-0.3,0.4-0.5,0.8-0.8,1.3h-17.7c-1.3,0-2.4,0.4-3.4,1.1c-1-0.7-2.1-1.1-3.4-1.1
			h-7.5c-1.3,0-2.6,0.5-3.6,1.2c-1-0.8-2.2-1.2-3.6-1.2h-21.5c-3.2,0-5.7,2.6-5.7,5.7c0,0-4.5,13.2-4.5,14.4
			c-1.6-12.3-12.5-21.6-26.1-21.6c-7.1,0-13.5,2.5-18.2,6.7c-0.3-2.9-2.7-5.2-5.7-5.2h-8.5V10c0-3.2-2.6-5.7-5.7-5.7h-5.7
			c-1.5,0-3,0.6-4.1,1.7c-1.1,1.1-1.7,2.5-1.7,4.1c0,0.3,0,0.5,0,0.8c-0.5,0.9-0.8,1.9-0.8,2.9c0,0.3,0,0.5,0,0.8
			c-0.4,0.7-0.7,1.4-0.8,2.2c-0.1,0.2-0.2,0.3-0.4,0.5c-1,1-2.7,1.5-5,1.5c-1.6,0-3,0.6-4.1,1.6c-1.1,1.1-1.7,2.5-1.7,4.1
			c0,0-3.6,17.1-3.6,18c0,0-0.7,2.7-0.7,3.6v1c-0.1,0.1-0.1,0.2-0.2,0.3c0-0.6,0.1-1.1,0.1-1.7c0-4-1.2-7.1-3-9.5
			c0.5-0.9,0.8-1.9,0.8-2.9V19.6c0-3.2-2.6-5.7-5.7-5.7h-8.8c-1.1,0-2.2,0.3-3.1,0.9c-2.4-1-5.2-1.6-8.3-1.6
			c-3.9,0-7.5,1.2-10.4,3.2c-1-1-2.4-1.6-4-1.6h-18.9c-0.3,0-0.5,0-0.8,0.1c-0.3,0-0.5-0.1-0.8-0.1h-21.4c-3.2,0-5.7,2.6-5.7,5.7
			v0.1c-3.8-4.6-10.4-7.3-18.7-7.3c-6,0-11,1.3-14.8,3.7c-1-1.3-2.7-2.2-4.5-2.2h-19c-1.3,0-2.4,0.4-3.4,1.1c-1-0.7-2.1-1.1-3.4-1.1
			h-7.5c-1.3,0-2.6,0.5-3.6,1.2c-1-0.8-2.2-1.2-3.6-1.2h-21.5h-16.3h-8.4v-0.9c0-0.3,0-0.5-0.1-0.8V10c0-3.2-2.6-5.7-5.7-5.7h-5.7
			c-1.5,0-3,0.6-4.1,1.7c-1.1,1.1-1.7,2.5-1.7,4.1c0,2.4-0.3,5.5-2,7.2c-1,1-2.7,1.5-5,1.5c-0.6,0-1.2,0.1-1.8,0.3
			c-4.3-3.8-10.3-5.8-16.3-5.8c-7.6,0-15.5,3.2-20.5,9.3c-4.2-6.1-11.8-9.3-19.4-9.3c-5.7,0-11.5,1.8-16.1,5.2
			c-0.8-2.2-2.9-3.7-5.3-3.7h-19c-1.3,0-2.4,0.4-3.4,1.1c-1-0.7-2.1-1.1-3.4-1.1h-7.5c-1.3,0-2.6,0.5-3.6,1.2
			c-1-0.8-2.2-1.2-3.6-1.2h-21.5c-0.4,0-0.7,0-1.1,0.1c-0.9-0.6-2-0.9-3.1-0.9h-8.8c-1.1,0-2.2,0.3-3.1,0.9c-2.4-1-5.2-1.6-8.3-1.6
			c-10,0-17.9,7.6-17.9,17.2c0,1.2,0.1,2.3,0.3,3.4c-0.2-0.2-0.3-0.3-0.5-0.5c-0.3-0.2-8.4-7.6-8.4-7.6c-1-1.2-2.2-2.3-3.5-3.3
			c-0.1-0.1-0.2-0.2-0.3-0.2c-4.8-5.5-12.1-9-20.4-9c-6.3,0-12.1,2-16.5,5.4c0,0,0,0,0,0c-0.8-2.2-2.9-3.9-5.4-3.9h-19
			c-1.3,0-2.4,0.4-3.4,1.1c-1-0.7-2.1-1.1-3.4-1.1h-7.5c-1.3,0-2.6,0.5-3.6,1.2c-1-0.8-2.2-1.2-3.6-1.2h-4.4c-0.5-0.5-1-0.9-1.6-1.2
			c-0.2-0.8-5.4-7.1-6.2-7.5c-0.6-2.5-2.9-4.3-5.5-4.3h-54C2.6,1.6,0,4.2,0,7.4v23.8c0,2.1,1.1,3.9,2.8,4.9
			c0.3,1.5,8.4,12.1,8.7,12.6V56c0,2.1,1.2,3.9,2.8,4.9l257,366.1c0,2.6,1.7,4.8,4.1,5.5v3.3c0,3.2,2.6,5.7,5.7,5.7h8.5
			c0,0.1,0,0.2,0,0.4c-0.5,0.8-0.7,1.8-0.7,2.8v2.5c0,1.1,0.3,2.1,0.8,2.9c0,0.2-0.1,0.4-0.1,0.6c0,0.1,0,0.2,0,0.3c0,0,0,0.2,0,0.5
			c-0.5,0.8-0.7,1.8-0.7,2.8v2.5c0,3.2,2.6,5.7,5.7,5.7h7.4c0.2,0,0.4,0,0.6,0c0.8,0.2,1.7,0.4,2.6,0.4c0.3,0,0.6,0,1,0
			c-0.1,0.3-0.1,0.7-0.1,1v2.5c0,1.1,0.3,2.1,0.8,2.9c-0.1,0.3-0.1,0.6-0.1,1l0,0.4c-0.5,0.8-0.7,1.8-0.7,2.8v2.5
			c0,3.2,2.6,5.7,5.7,5.7h12.3c0.1,0,0.3,0,0.4,0c0.1,0,0.3,0,0.4,0h5.8c0.1,0,0.1,0,0.2,0c0.1,0,0.1,0,0.2,0h5.2
			c0.6,0,1.1-0.1,1.7-0.3c1,0.4,2.1,0.6,3.3,0.6c1.6,0,3.1-0.4,4.4-1c1.4,0.6,2.9,1,4.6,1c1.2,0,2.3-0.2,3.3-0.5
			c0.5,0.1,1,0.2,1.6,0.2h6.7c1.8,0,3.4-0.9,4.5-2.2c1.9,1.5,4.3,2.5,7,2.5c1.9,0,3.7-0.5,5.2-1.3c1.4,0.8,3,1.3,4.9,1.3
			c0.9,0,1.7-0.1,2.5-0.4c0.3,0.1,0.6,0.1,1,0.1h3.6c0.1,0,0.1,0,0.2,0c0.1,0,0.1,0,0.2,0h6.7c1.3,0,2.5-0.4,3.4-1.2
			c1,0.9,2.3,1.4,3.7,1.4h2.5c0.4,0,0.8,0,1.3-0.1c0.7,0.1,1.5,0.2,2.3,0.2c2.5,0,4.8-0.8,6.6-2.1c1.1,1.1,2.6,1.8,4.2,1.8h2.8
			c0.6,0,1.1-0.1,1.7-0.3c0.5,0.2,1.1,0.3,1.7,0.3h2.8c1,0,2-0.3,2.9-0.8c0.8,0.5,1.8,0.8,2.9,0.8h12.3c0.2,0,0.3,0,0.5,0
			c0.2,0,0.3,0,0.5,0h12.3c0.6,0,1.2-0.1,1.8-0.3c0.6,0.2,1.1,0.3,1.8,0.3h7.7c0.5,0,0.9-0.1,1.3-0.2c0.6,0.2,1.2,0.3,1.9,0.3h2.2
			c0.3,0,0.5,0,0.8-0.1c0.6,0.1,1.2,0.2,1.8,0.2c1.7,0,3.2-0.4,4.5-1c1.3,0.7,2.7,1,4.3,1c1.3,0,2.6-0.3,3.7-0.7
			c1.1,0.4,2.3,0.7,3.5,0.7c1,0,1.9-0.2,2.8-0.4c0.7,0.2,1.5,0.3,2.3,0.3c0.7,0,1.3-0.1,1.9-0.2c0.2,0,0.3,0.1,0.5,0.1h4.5
			c0.2,0,0.4,0,0.6,0c0.2,0,0.4,0,0.6,0h5.7c0.6,0,1.2-0.1,1.8-0.3c1.1,0.4,2.3,0.6,3.6,0.6c1.2,0,2.3-0.2,3.3-0.5
			c0.7,0.3,1.4,0.4,2.2,0.4h2.2c0.3,0,0.5,0,0.8-0.1c0.6,0.1,1.2,0.2,1.8,0.2c1.5,0,2.9-0.3,4.2-0.8c1,0.5,2.1,0.8,3.2,0.8
			c4,0,7.3-3.3,7.3-7.3c0-1-0.2-2-0.6-2.9c0-0.1,0-0.2,0-0.4c0-0.4,0-0.7-0.1-1c0.1-0.5,0.2-1.1,0.3-1.6c0.2-1.2,0.5-2.3,0.5-3.5
			c0-0.9-0.2-1.8-0.5-2.6c1.2,0,2.4-0.2,3.5-0.5c1.2,0.4,2.3,0.6,3.3,0.6c4.9,0,8.4-3.3,8.4-8.1v-1.6c0-0.3,0-0.6-0.1-0.9
			c0.1-0.3,0.1-0.6,0.1-0.9v-2.5c0-0.8-0.2-1.6-0.5-2.3c0-0.4,0-0.7,0-0.7c0-0.8-0.2-1.6-0.5-2.4c0-0.4,0-0.7,0-0.7
			c0-0.4,0-0.7-0.1-1.1h0.6c0.1,0,0.2,0,0.3,0c0.1,0,0.2,0,0.3,0h7.4c0.6,0,1.3-0.1,1.8-0.3c1,0.4,2,0.7,3.2,0.7
			c4.4,0,7.9-3.6,7.9-7.9L853.6,59.6z"/>
	</g>
</g>
<g id="Layer_2">
	<g>
		<g>
			<g>
				<path class="st3" d="M97.3,61.8c-1.7,0-3.2-1.1-3.8-2.7c-0.7-1.9-1.7-5-2.9-8.6c-1,3.1-1.9,6-2.8,8.5c-0.6,1.6-2.1,2.7-3.8,2.7
					h-9c-1.6,0-3-0.9-3.6-2.3L61.3,37.1H54c-2.2,0-4-1.8-4-4v-6.6c0-2.7,0-3.1-3.2-3.1v20.4h4.9c2.2,0,4,1.8,4,4v10c0,2.2-1.8,4-4,4
					H20.9c-2.2,0-4-1.8-4-4v-10c0-2.2,1.8-4,4-4h4.8V23.4c-3.1,0-3.1,0.4-3.1,3.1v6.6c0,2.2-1.8,4-4,4H9.5c-2.2,0-4-1.8-4-4V9.4
					c0-2.2,1.8-4,4-4h53.7c2.2,0,4,1.8,4,4v9h13.6c1.5,0,2.9,0.9,3.5,2.1c0.7-1.3,2-2.1,3.5-2.1h7.5c1.4,0,2.6,0.7,3.3,1.8
					c0.7-1.1,1.9-1.8,3.3-1.8h18.9c2.2,0,4,1.8,4,4v9.9c0,2.2-1.8,4-4,4h-1.3l-9.5,23c-0.6,1.5-2.1,2.5-3.7,2.5H97.3z"/>
				<path class="st3" d="M63.2,9.4v13h17.6v9.9h-4.6c1.6,4.4,3.1,10.1,3.7,14c1.8-7.1,5.5-16.7,7.9-23.9h7.5c2,6.1,6,17.1,7.5,23.9
					c0.7-3.9,2.1-9.6,3.6-14H102v-9.9h18.9v9.9h-4l-10.5,25.5h-9c-2.2-6.2-5.2-15.5-6.7-22c-1.5,6.5-4.4,15.6-6.6,22h-9L63.5,32.3
					h-0.3v0.8H54v-6.6c0-4.4-1.3-7.1-7.3-7.1h-3.8v28.4h8.9v10H20.9v-10h8.8V19.4h-3.7c-6.1,0-7.3,2.7-7.3,7.1v6.6H9.5V9.4H63.2
					 M63.2,1.4H9.5c-4.4,0-8,3.6-8,8v23.7c0,4.4,3.6,8,8,8h7c-2.2,1.4-3.6,3.9-3.6,6.7v10c0,4.4,3.6,8,8,8h30.9c4.4,0,8-3.6,8-8v-10
					c0-2.8-1.4-5.3-3.6-6.7h2.5l9.1,20c1.3,2.9,4.1,4.7,7.3,4.7h9c2.7,0,5.2-1.4,6.6-3.5c1.5,2.2,3.9,3.5,6.6,3.5h9
					c3.2,0,6.2-2,7.4-4.9l8.5-20.7c3.8-0.7,6.6-3.9,6.6-7.9v-9.9c0-4.4-3.6-8-8-8H102c-1.2,0-2.3,0.3-3.3,0.7
					c-1-0.5-2.2-0.7-3.3-0.7h-7.5c-1.3,0-2.5,0.3-3.5,0.8c-1.1-0.5-2.3-0.8-3.5-0.8h-9.6v-5C71.2,5,67.6,1.4,63.2,1.4L63.2,1.4z"/>
			</g>
			<g>
				<path class="st3" d="M142.7,62.9c-13.5,0-24.5-10.4-24.5-23.2c0-12.8,10.7-22.8,24.5-22.8s24.5,10,24.5,22.8
					C167.2,52.3,156,62.9,142.7,62.9z M142.7,34.2c-2.2,0-3.1,0-3.1,6.3c0,4.4,0.6,5.6,0.8,5.9c0,0,0.3,0.3,2.4,0.3
					c1.8,0,2.3-0.2,2.4-0.3c0.1-0.1,0.7-1.1,0.7-6C145.8,34.2,145.1,34.2,142.7,34.2z"/>
				<path class="st3" d="M142.7,20.9c11.5,0,20.5,8,20.5,18.8c0,10.3-9.2,19.2-20.5,19.2c-11.5,0-20.5-8.9-20.5-19.2
					C122.3,28.9,131.7,20.9,142.7,20.9 M142.7,50.8c5.3,0,7.1-1.4,7.1-10.3c0-8.2-1.8-10.3-7.1-10.3c-4.8,0-7.1,1.8-7.1,10.3
					C135.5,49,137.4,50.8,142.7,50.8 M142.7,12.9c-7.4,0-14.4,2.6-19.7,7.4c-5.7,5.1-8.8,12-8.8,19.5c0,15,12.8,27.2,28.5,27.2
					c7.5,0,14.6-2.8,20-7.9c5.4-5.1,8.5-12.1,8.5-19.2C171.2,24.7,158.7,12.9,142.7,12.9L142.7,12.9z"/>
			</g>
			<g>
				<path class="st3" d="M201.3,62.9c-2.9,0-5.5-0.5-7.7-1.6c-0.7,0.7-1.7,1.1-2.7,1.1h-8.8c-2.2,0-4-1.8-4-4V44.6
					c0-1.4,0.7-2.6,1.8-3.3c-1.7-2.2-2.8-5.1-2.8-9c0-8.6,7.1-15.4,16.1-15.4c3.2,0,6.1,0.6,8.5,1.9c0.8-0.8,1.8-1.2,2.8-1.2h8.7
					c2.2,0,4,1.8,4,4v13.5c0,1.2-0.5,2.2-1.3,2.9c2.1,2.3,3.5,5.4,3.5,9.4C219.4,56.7,212.1,62.9,201.3,62.9z"/>
				<path class="st3" d="M193.2,20.9c6.6,0,10.4,3.1,11.6,8l-0.3-7.3h8.7v13.5h-10.6c-0.1-6.3-3.6-8.1-7.4-8.1
					c-2.1,0-3.4,1.1-3.4,2.7c0,3.3,4.1,4.2,8.8,5.2c6.5,1.4,14.8,4.1,14.8,12.5c0,8.4-7.3,11.4-14.1,11.4c-3.9,0-9.4-1.4-10.8-6.9
					l0.4,6.5h-8.8V44.6h10.4c-0.1,6,2.8,8.6,8.2,8.6c2.6,0,3.9-1.2,3.9-2.9c0-3.5-3.5-4.1-9.8-5.6c-6.1-1.4-13.7-3.9-13.7-12.5
					C181.1,25.7,186.7,20.9,193.2,20.9 M193.2,12.9c-11.3,0-20.1,8.5-20.1,19.4c0,3.2,0.7,6,1.9,8.6c-0.6,1.1-0.9,2.4-0.9,3.7v13.8
					c0,4.4,3.6,8,8,8h8.8c1.1,0,2.2-0.2,3.1-0.6c2.2,0.7,4.6,1.1,7.3,1.1c13,0,22.1-8,22.1-19.4c0-3.6-0.9-6.8-2.7-9.6
					c0.3-0.9,0.5-1.8,0.5-2.7V21.6c0-4.4-3.6-8-8-8h-8.7c-1.1,0-2.2,0.2-3.2,0.7C198.9,13.4,196.2,12.9,193.2,12.9L193.2,12.9z"/>
			</g>
			<g>
				<path class="st3" d="M255.2,61.8c-1.7,0-3.2-1.1-3.8-2.7c-0.7-1.9-1.7-5-2.9-8.6c-1,3.1-1.9,6-2.8,8.5c-0.6,1.6-2.1,2.7-3.8,2.7
					h-9c-1.6,0-3-0.9-3.6-2.3l-10.5-23.1h-1.4c-2.2,0-4-1.8-4-4v-9.9c0-2.2,1.8-4,4-4h21.4c1.5,0,2.9,0.9,3.5,2.1
					c0.7-1.3,2-2.1,3.5-2.1h7.5c1.4,0,2.6,0.7,3.3,1.8c0.7-1.1,1.9-1.8,3.3-1.8h18.9c2.2,0,4,1.8,4,4v9.9c0,2.2-1.8,4-4,4h-1.3
					l-9.5,23c-0.6,1.5-2.1,2.5-3.7,2.5H255.2z"/>
				<path class="st3" d="M278.8,22.4v9.9h-4l-10.5,25.5h-9c-2.2-6.2-5.2-15.5-6.7-22c-1.5,6.5-4.4,15.6-6.6,22h-9l-11.6-25.5h-4
					v-9.9h21.4v9.9h-4.6c1.6,4.4,3.1,10.1,3.7,14c1.8-7.1,5.5-16.7,7.9-23.9h7.5c2,6.1,6,17.1,7.5,23.9c0.7-3.9,2.1-9.6,3.6-14h-4.5
					v-9.9H278.8 M278.8,14.4h-18.9c-1.2,0-2.3,0.3-3.3,0.7c-1-0.5-2.2-0.7-3.3-0.7h-7.5c-1.3,0-2.5,0.3-3.5,0.8
					c-1.1-0.5-2.3-0.8-3.5-0.8h-21.4c-4.4,0-8,3.6-8,8v9.9c0,4,3,7.3,6.8,7.9l9.5,20.9c1.3,2.9,4.1,4.7,7.3,4.7h9
					c2.7,0,5.2-1.4,6.6-3.5c1.5,2.2,3.9,3.5,6.6,3.5h9c3.2,0,6.2-2,7.4-4.9l8.5-20.7c3.8-0.7,6.6-3.9,6.6-7.9v-9.9
					C286.8,18,283.2,14.4,278.8,14.4L278.8,14.4z"/>
			</g>
			<g>
				<path class="st3" d="M299.8,62.9c-13.9,0-23.6-9.5-23.6-23.1c0-15,12.1-22.9,24-22.9c10.4,0,21,6.5,21,18.9c0,2-0.1,3.8-0.5,6.3
					c-0.2,1.4-1.2,2.5-2.4,3c1.4,1.1,1.9,3.1,1.1,4.8C315.2,58.7,308.8,62.9,299.8,62.9z M298.8,45.5c0.9,0.6,2.1,1,3.9,1
					c1.5,0,2.5-0.3,3.3-1H298.8z"/>
				<path class="st3" d="M300.2,20.9c8.6,0,17,5,17,14.9c0,1.7-0.1,3.3-0.5,5.6h-23.9c0.4,6,4.3,9,9.9,9c3.9,0,6.7-1.6,8.2-5.4
					l5,3.2c-3.3,7.1-8.3,10.7-16,10.7c-12.4,0-19.6-8.4-19.6-19.1C280.2,27.2,290.5,20.9,300.2,20.9 M293,35.3h14.1
					c0.1-4.3-2.5-6.3-6.3-6.3C296.6,29,293.8,31.9,293,35.3 M300.2,12.9c-13.6,0-28,9.4-28,26.9c0,7.5,2.6,14.3,7.4,19.2
					c5.1,5.2,12,7.9,20.2,7.9c10.6,0,18.4-5.1,23.2-15.3c0.9-1.9,1-3.9,0.4-5.8c0.6-0.9,1-1.9,1.2-3c0.5-3,0.6-5.1,0.6-7
					C325.2,22.5,314.7,12.9,300.2,12.9L300.2,12.9z"/>
			</g>
			<g>
				<path class="st3" d="M339.4,62.9c-13.9,0-23.6-9.5-23.6-23.1c0-15,12.1-22.9,24-22.9c10.4,0,21,6.5,21,18.9c0,2-0.1,3.8-0.5,6.3
					c-0.2,1.4-1.2,2.5-2.4,3c1.4,1.1,1.9,3.1,1.1,4.8C354.9,58.7,348.5,62.9,339.4,62.9z M338.4,45.5c0.9,0.6,2.1,1,3.9,1
					c1.5,0,2.5-0.3,3.3-1H338.4z"/>
				<path class="st3" d="M339.8,20.9c8.6,0,17,5,17,14.9c0,1.7-0.1,3.3-0.5,5.6h-23.9c0.4,6,4.3,9,9.9,9c3.9,0,6.7-1.6,8.2-5.4
					l5,3.2c-3.3,7.1-8.3,10.7-16,10.7c-12.4,0-19.6-8.4-19.6-19.1C319.8,27.2,330.2,20.9,339.8,20.9 M332.7,35.3h14.1
					c0.1-4.3-2.5-6.3-6.3-6.3C336.2,29,333.4,31.9,332.7,35.3 M339.8,12.9c-13.6,0-28,9.4-28,26.9c0,7.5,2.6,14.3,7.4,19.2
					c5.1,5.2,12,7.9,20.2,7.9c10.6,0,18.4-5.1,23.2-15.3c0.9-1.9,1-3.9,0.4-5.8c0.6-0.9,1-1.9,1.2-3c0.5-3,0.6-5.1,0.6-7
					C364.8,22.5,354.3,12.9,339.8,12.9L339.8,12.9z"/>
			</g>
			<g>
				<path class="st3" d="M377.3,63.1c-8.3,0-16.8-5.2-16.8-15.1V36.3h-2.9c-2.2,0-4-1.8-4-4v-5.8c0-1.1,0.4-2.1,1.2-2.9
					c0.7-0.7,1.8-1.1,2.8-1.1c0,0,0.4,0,0.4,0c2.6,0,4.6-0.7,5.9-2c1.6-1.6,2.5-4.5,2.4-8.3c0-1.1,0.4-2.1,1.2-2.8
					c0.8-0.8,1.8-1.2,2.8-1.2h5.6c2.2,0,4,1.8,4,4v6.3h10.1c2.2,0,4,1.8,4,4v9.9c0,2.2-1.8,4-4,4h-10v3.4c0.7-1,1.9-1.7,3.3-1.7h6.7
					c2.2,0,4,1.8,4,4v6.4C394.1,58,385.7,63.1,377.3,63.1z"/>
				<path class="st3" d="M376,12.1v10.3h14.1v9.9h-14v14.2c0,2.1,1.6,3.2,3.6,3.2c2,0,3.7-1.1,3.7-3.3v-4.5h6.7v6.4
					c0,7.3-6.6,10.7-12.8,10.7s-12.8-3.6-12.8-11.1V32.3h-6.9v-5.8c0.1,0,0.2,0,0.4,0c7.3,0,12.4-4.2,12.4-14.3H376 M376,4.1h-5.6
					c-2.1,0-4.2,0.9-5.7,2.4s-2.3,3.6-2.3,5.7c0,2.6-0.5,4.7-1.3,5.5c-0.7,0.7-2.2,0.8-3.1,0.8l-0.2,0c0,0-0.1,0-0.1,0
					c-2.1,0-4.1,0.8-5.6,2.3c-1.5,1.5-2.4,3.6-2.4,5.7v5.8c0,4.1,3,7.4,6.9,7.9V48c0,10.9,8.9,19.1,20.8,19.1c5,0,9.8-1.5,13.4-4.2
					c4.7-3.5,7.4-8.6,7.4-14.6v-6.4c0-1.8-0.6-3.5-1.6-4.8c1-1.3,1.6-3,1.6-4.8v-9.9c0-4.4-3.6-8-8-8H384v-2.3
					C384,7.7,380.4,4.1,376,4.1L376,4.1z"/>
			</g>
			<g>
				<path class="st3" d="M444.2,61.8c-1.7,0-3.2-1.1-3.8-2.7c-0.7-1.9-1.7-5-2.9-8.6c-1,3.1-1.9,6-2.8,8.5c-0.6,1.6-2.1,2.7-3.8,2.7
					h-9c-1.6,0-3-0.9-3.6-2.3l-10.5-23.1h-1.4c-2.2,0-4-1.8-4-4v-9.9c0-2.2,1.8-4,4-4h21.3c1.5,0,2.9,0.9,3.5,2.1
					c0.7-1.3,2-2.1,3.5-2.1h7.5c1.4,0,2.6,0.7,3.3,1.8c0.7-1.1,1.9-1.8,3.3-1.8h18.9c2.2,0,4,1.8,4,4v9.9c0,2.2-1.8,4-4,4h-1.3
					l-9.5,23c-0.6,1.5-2.1,2.5-3.7,2.5H444.2z"/>
				<path class="st3" d="M467.8,22.4v9.9h-4l-10.5,25.5h-9c-2.2-6.2-5.2-15.5-6.7-22c-1.5,6.5-4.4,15.6-6.6,22h-9l-11.6-25.5h-4
					v-9.9h21.3v9.9h-4.6c1.6,4.4,3.1,10.1,3.7,14c1.8-7.1,5.5-16.7,7.9-23.9h7.5c2,6.1,6,17.1,7.5,23.9c0.7-3.9,2.1-9.6,3.6-14h-4.5
					v-9.9H467.8 M467.8,14.4h-18.9c-1.2,0-2.3,0.3-3.3,0.7c-1-0.5-2.2-0.7-3.3-0.7h-7.5c-1.3,0-2.5,0.3-3.5,0.8
					c-1.1-0.5-2.3-0.8-3.5-0.8h-21.3c-4.4,0-8,3.6-8,8v9.9c0,4,3,7.3,6.8,7.9l9.5,20.9c1.3,2.9,4.1,4.7,7.3,4.7h9
					c2.7,0,5.2-1.4,6.6-3.5c1.5,2.2,3.9,3.5,6.6,3.5h9c3.2,0,6.2-2,7.4-4.9l8.5-20.7c3.8-0.7,6.6-3.9,6.6-7.9v-9.9
					C475.8,18,472.2,14.4,467.8,14.4L467.8,14.4z"/>
			</g>
			<g>
				<path class="st3" d="M481.9,62.9c-9.7,0-16.7-6.4-16.7-15.2c0-3,1.1-6.3,3.5-9c-0.9-0.6-1.5-1.5-1.8-2.6c-0.4-2-0.4-2.9-0.4-3.7
					c0-9.4,8-15.5,20.5-15.5c12.3,0,20.6,6.5,20.6,16.1c0,2.7-0.1,5-0.2,7h3.4c2.2,0,4,1.8,4,4v3.4c0,9.4-4.8,14.9-12.8,14.9
					c-3.9,0-7-1.4-9-4C490.1,61.3,486.2,62.9,481.9,62.9z M486,45.2c-0.2,0.1-0.3,0.1-0.5,0.2C485.7,45.4,485.9,45.3,486,45.2z"/>
				<path class="st3" d="M487,20.9c8.5,0,16.6,3.7,16.6,12.1c0,6.5-0.6,10.1-0.6,15c0,1.1,0.3,1.5,0.9,1.5c0.5,0,1.4-0.1,1.4-2.1V44
					h5.5v3.4c0,6.7-2.7,10.9-8.8,10.9c-3.1,0-7.4-1.1-7.4-8c0-1.7,0.1-2.8,0.3-3.8h-0.7c-0.7,7.5-5.9,12.3-12.3,12.3
					c-6.7,0-12.7-4.1-12.7-11.2c0-6.3,5.7-11.2,17.5-11.2c1.4,0,3,0.1,4.7,0.3v-3c0-2.8-2-3.9-4.9-3.9c-2.5,0-4.1,1.4-4,5.5h-11.6
					c-0.3-1.8-0.3-2.4-0.3-3C470.5,24.3,478.3,20.9,487,20.9 M485.1,49.5c2.6,0,5.8-1.5,6.1-8.3c-1.2-0.2-2.2-0.3-3.1-0.3
					c-5.4,0-6.9,3-6.9,5C481.2,48.3,482.9,49.5,485.1,49.5 M487,12.9c-14.6,0-24.5,7.8-24.5,19.5c0,1,0,2.2,0.5,4.5
					c0.1,0.7,0.3,1.3,0.6,1.9c-1.7,2.9-2.5,6-2.5,9c0,10.9,8.9,19.2,20.7,19.2c4.1,0,7.8-1.1,10.9-3.2c2.5,1.7,5.6,2.6,9.2,2.6
					c5.4,0,10.1-2.2,13.1-6.2c2.4-3.3,3.7-7.6,3.7-12.8V44c0-4.2-3.2-7.6-7.2-8c0-1,0-2,0-3c0-6.7-3.1-12.3-8.8-16
					C497.4,13.6,491.2,12.9,487,12.9L487,12.9z"/>
			</g>
			<g>
				<path class="st3" d="M520.4,76c-9.4,0-15.8-5.7-15.8-14.1c0-7.6,4.7-12.6,11.6-12.6c1,0,2,0.2,3,0.4l-6.4-13.4h-1.6
					c-2.2,0-4-1.8-4-4v-9.9c0-2.2,1.8-4,4-4h21.3c0.3,0,0.5,0,0.8,0.1c0.3,0,0.5-0.1,0.8-0.1h18.8c2.2,0,4,1.8,4,4v9.9
					c0,2.2-1.8,4-4,4h-1.4l-12.4,27.3C535.5,71.3,528.6,76,520.4,76z"/>
				<path class="st3" d="M552.9,22.4v9.9h-4l-13.5,29.6c-3.3,7.1-9.5,10.1-15,10.1c-6.1,0-11.8-3-11.8-10.1c0-5,2.6-8.6,7.6-8.6
					c3.7,0,6.9,3.3,6.9,6.9c0,3.9-2.8,6.7-6.7,6.7c-0.9,0-1.7-0.1-2.4-0.4c1.2,1.3,2.9,1.9,5.4,1.9c4.1,0,7.8-3.2,7.8-11.6
					l-11.7-24.4h-4.1v-9.9h21.3v9.9h-4.2c2.1,5.3,4,11.2,5.1,15.8c1.3-4.6,3.2-10.5,5.3-15.8h-4.6v-9.9H552.9 M552.9,14.4h-18.8
					c-0.3,0-0.5,0-0.8,0c-0.3,0-0.5,0-0.8,0h-21.3c-4.4,0-8,3.6-8,8v9.9c0,4.1,3.1,7.5,7.1,7.9l2.6,5.3c-7.3,1.5-12.2,7.8-12.2,16.3
					c0,10.7,8.1,18.1,19.8,18.1c9.6,0,18.1-5.6,22.3-14.7l11.4-25.1c3.9-0.6,6.8-3.9,6.8-7.9v-9.9C560.9,18,557.3,14.4,552.9,14.4
					L552.9,14.4z"/>
			</g>
			<g>
				<path class="st3" d="M575.4,62.9c-2.9,0-5.5-0.5-7.7-1.6c-0.7,0.7-1.7,1.1-2.7,1.1h-8.8c-2.2,0-4-1.8-4-4V44.6
					c0-1.4,0.7-2.6,1.8-3.3c-1.7-2.2-2.8-5.1-2.8-9c0-8.6,7.1-15.4,16.1-15.4c3.2,0,6.1,0.6,8.5,1.9c0.8-0.8,1.8-1.2,2.8-1.2h8.7
					c2.2,0,4,1.8,4,4v13.5c0,1.2-0.5,2.2-1.3,2.9c2.1,2.3,3.5,5.4,3.5,9.4C593.4,56.7,586.2,62.9,575.4,62.9z"/>
				<path class="st3" d="M567.3,20.9c6.6,0,10.4,3.1,11.6,8l-0.3-7.3h8.7v13.5h-10.6c-0.1-6.3-3.6-8.1-7.4-8.1
					c-2.1,0-3.4,1.1-3.4,2.7c0,3.3,4.1,4.2,8.8,5.2c6.5,1.4,14.8,4.1,14.8,12.5c0,8.4-7.3,11.4-14.1,11.4c-3.9,0-9.4-1.4-10.8-6.9
					l0.4,6.5h-8.8V44.6h10.4c-0.1,6,2.8,8.6,8.2,8.6c2.6,0,3.9-1.2,3.9-2.9c0-3.5-3.5-4.1-9.8-5.6c-6.1-1.4-13.7-3.9-13.7-12.5
					C555.2,25.7,560.8,20.9,567.3,20.9 M567.3,12.9c-11.3,0-20.1,8.5-20.1,19.4c0,3.2,0.7,6,1.9,8.6c-0.6,1.1-0.9,2.4-0.9,3.7v13.8
					c0,4.4,3.6,8,8,8h8.8c1.1,0,2.2-0.2,3.1-0.6c2.2,0.7,4.6,1.1,7.3,1.1c13,0,22.1-8,22.1-19.4c0-3.6-0.9-6.8-2.7-9.6
					c0.3-0.9,0.5-1.8,0.5-2.7V21.6c0-4.4-3.6-8-8-8h-8.7c-1.1,0-2.2,0.2-3.2,0.7C572.9,13.4,570.2,12.9,567.3,12.9L567.3,12.9z"/>
			</g>
			<g>
				<path class="st3" d="M624.9,63.1c-8.3,0-16.8-5.2-16.8-15.1V36.3h-2.9c-2.2,0-4-1.8-4-4v-5.8c0-1.1,0.4-2.1,1.2-2.9
					c0.7-0.7,1.8-1.1,2.8-1.1c0,0,0.4,0,0.4,0c2.6,0,4.6-0.7,5.9-2c1.6-1.6,2.5-4.5,2.4-8.3c0-1.1,0.4-2.1,1.2-2.8
					c0.8-0.8,1.8-1.2,2.8-1.2h5.6c2.2,0,4,1.8,4,4v6.3h10.1c2.2,0,4,1.8,4,4v9.9c0,2.2-1.8,4-4,4h-10v3.4c0.7-1,1.9-1.7,3.3-1.7h6.7
					c2.2,0,4,1.8,4,4v6.4C641.7,58,633.3,63.1,624.9,63.1z"/>
				<path class="st3" d="M623.6,12.1v10.3h14.1v9.9h-14v14.2c0,2.1,1.6,3.2,3.6,3.2c2,0,3.7-1.1,3.7-3.3v-4.5h6.7v6.4
					c0,7.3-6.6,10.7-12.8,10.7c-6.2,0-12.8-3.6-12.8-11.1V32.3h-6.9v-5.8c0.1,0,0.2,0,0.4,0c7.3,0,12.4-4.2,12.4-14.3H623.6
					 M623.6,4.1h-5.6c-2.1,0-4.2,0.9-5.7,2.4s-2.3,3.6-2.3,5.7c0,2.6-0.5,4.7-1.3,5.5c-0.7,0.7-2.2,0.8-3.1,0.8l-0.2,0
					c0,0-0.1,0-0.1,0c-2.1,0-4.1,0.8-5.6,2.3c-1.5,1.5-2.4,3.6-2.4,5.7v5.8c0,4.1,3,7.4,6.9,7.9V48c0,10.9,8.9,19.1,20.8,19.1
					c5,0,9.8-1.5,13.4-4.2c4.7-3.5,7.4-8.6,7.4-14.6v-6.4c0-1.8-0.6-3.5-1.6-4.8c1-1.3,1.6-3,1.6-4.8v-9.9c0-4.4-3.6-8-8-8h-6.1
					v-2.3C631.6,7.7,628,4.1,623.6,4.1L623.6,4.1z"/>
			</g>
			<g>
				<path class="st3" d="M661.4,62.9C648,62.9,637,52.5,637,39.8c0-12.8,10.7-22.8,24.5-22.8s24.5,10,24.5,22.8
					C685.9,52.3,674.7,62.9,661.4,62.9z M661.4,34.2c-2.2,0-3.1,0-3.1,6.3c0,4.4,0.6,5.6,0.8,5.9c0,0,0.3,0.3,2.4,0.3
					c1.8,0,2.3-0.2,2.4-0.3c0.1-0.1,0.7-1.1,0.7-6C664.4,34.2,663.8,34.2,661.4,34.2z"/>
				<path class="st3" d="M661.4,20.9c11.5,0,20.5,8,20.5,18.8c0,10.3-9.2,19.2-20.5,19.2C650,58.9,641,50,641,39.8
					C641,28.9,650.4,20.9,661.4,20.9 M661.4,50.8c5.3,0,7.1-1.4,7.1-10.3c0-8.2-1.8-10.3-7.1-10.3c-4.8,0-7.1,1.8-7.1,10.3
					C654.2,49,656.1,50.8,661.4,50.8 M661.4,12.9c-7.4,0-14.4,2.6-19.7,7.4c-5.7,5.1-8.8,12-8.8,19.5c0,15,12.8,27.2,28.5,27.2
					c7.5,0,14.6-2.8,20-7.9c5.4-5.1,8.5-12.1,8.5-19.2C689.9,24.7,677.4,12.9,661.4,12.9L661.4,12.9z"/>
			</g>
			<g>
				<path class="st3" d="M735.4,61.8c-1.7,0-3.2-1.1-3.8-2.7c-0.7-1.9-1.7-5-2.9-8.6c-1,3.1-1.9,6-2.8,8.5c-0.6,1.6-2.1,2.7-3.8,2.7
					h-9c-1.6,0-3-0.9-3.6-2.3L699,36.3h-1.4c-2.2,0-4-1.8-4-4v-9.9c0-2.2,1.8-4,4-4h21.3c1.5,0,2.9,0.9,3.5,2.1
					c0.7-1.3,2-2.1,3.5-2.1h7.5c1.4,0,2.6,0.7,3.3,1.8c0.7-1.1,1.9-1.8,3.3-1.8H759c2.2,0,4,1.8,4,4v9.9c0,2.2-1.8,4-4,4h-1.3
					l-9.5,23c-0.6,1.5-2.1,2.5-3.7,2.5H735.4z"/>
				<path class="st3" d="M759,22.4v9.9h-4l-10.5,25.5h-9c-2.2-6.2-5.2-15.5-6.7-22c-1.5,6.5-4.4,15.6-6.6,22h-9l-11.6-25.5h-4v-9.9
					h21.3v9.9h-4.6c1.6,4.4,3.1,10.1,3.7,14c1.8-7.1,5.5-16.7,7.9-23.9h7.5c2,6.1,6,17.1,7.5,23.9c0.7-3.9,2.1-9.6,3.6-14h-4.5v-9.9
					H759 M759,14.4h-18.9c-1.2,0-2.3,0.3-3.3,0.7c-1-0.5-2.2-0.7-3.3-0.7H726c-1.3,0-2.5,0.3-3.5,0.8c-1.1-0.5-2.3-0.8-3.5-0.8
					h-21.3c-4.4,0-8,3.6-8,8v9.9c0,4,3,7.3,6.8,7.9l9.5,20.9c1.3,2.9,4.1,4.7,7.3,4.7h9c2.7,0,5.2-1.4,6.6-3.5
					c1.5,2.2,3.9,3.5,6.6,3.5h9c3.2,0,6.2-2,7.4-4.9l8.5-20.7c3.8-0.7,6.6-3.9,6.6-7.9v-9.9C767,18,763.4,14.4,759,14.4L759,14.4z"
					/>
			</g>
			<g>
				<path class="st3" d="M759.7,61.8c-2.2,0-4-1.8-4-4v-10c0-2.2,1.8-4,4-4h2.6v-7.5h-2.5c-2.2,0-4-1.8-4-4v-9.9c0-2.2,1.8-4,4-4h18
					c2.2,0,4,1.8,4,4v21.4h1.4c2.2,0,4,1.8,4,4v10c0,2.2-1.8,4-4,4H759.7z"/>
				<path class="st3" d="M777.8,22.4v25.4h5.4v10h-23.5v-10h6.6V32.3h-6.5v-9.9H777.8 M777.8,14.4h-18c-4.4,0-8,3.6-8,8v9.9
					c0,3.7,2.5,6.8,6,7.7c-3.5,0.9-6,4-6,7.8v10c0,4.4,3.6,8,8,8h23.5c4.4,0,8-3.6,8-8v-10c0-3.5-2.3-6.5-5.4-7.6V22.4
					C785.8,18,782.2,14.4,777.8,14.4L777.8,14.4z"/>
			</g>
			<g>
				<path class="st3" d="M772,25.1c-5.8,0-10.5-4.6-10.5-10.3c0-5.7,4.7-10.3,10.5-10.3c5.8,0,10.6,4.6,10.6,10.3
					C782.6,20.5,777.9,25.1,772,25.1z"/>
				<path class="st3" d="M772,8.5c3.6,0,6.6,2.8,6.6,6.3c0,3.5-3,6.3-6.6,6.3c-3.6,0-6.5-2.9-6.5-6.3C765.5,11.3,768.4,8.5,772,8.5
					 M772,0.5c-8,0-14.5,6.4-14.5,14.3c0,7.9,6.5,14.3,14.5,14.3c8,0,14.6-6.4,14.6-14.3C786.6,6.9,780.1,0.5,772,0.5L772,0.5z"/>
			</g>
			<g>
				<path class="st3" d="M809.5,61.8c-0.3,0-0.6,0-0.8-0.1c-0.3,0.1-0.5,0.1-0.8,0.1h-23.3c-2.2,0-4-1.8-4-4v-10c0-2.2,1.8-4,4-4
					h2.5v-7.5h-2.5c-2.2,0-4-1.8-4-4v-9.9c0-2.2,1.8-4,4-4h15.2c1.4,0,2.6,0.7,3.3,1.8c2.9-2.2,6.4-3.3,10.6-3.3
					c10.5,0,16.3,6.1,16.3,17.2v9.7h0.3c2.2,0,4,1.8,4,4v10c0,2.2-1.8,4-4,4H809.5z M807.8,43.8c0.3,0,0.6,0,0.8,0.1
					c0.3-0.1,0.5-0.1,0.8-0.1h1.2v-4.8c0-1.4-0.1-2.2-0.2-2.6c-0.2,0-0.4,0-0.7,0c-3,0-3.1,0.8-3.1,2.7v4.8H807.8z"/>
				<path class="st3" d="M813.8,20.9c9,0,12.3,5.1,12.3,13.2v13.7h4.3v10h-20.9v-10h5.2v-8.8c0-5.4-1.1-6.7-4.9-6.7
					c-4.6,0-7.1,2-7.1,6.7v8.8h5.2v10h-23.3v-10h6.5V32.3h-6.5v-9.9h15.2c0.1,2.8-0.5,10.8-1,13.3h0.7
					C800.8,25.9,805.8,20.9,813.8,20.9 M813.8,12.9c-3.9,0-7.3,0.8-10.3,2.4c-1.1-0.6-2.3-0.9-3.6-0.9h-15.2c-4.4,0-8,3.6-8,8v9.9
					c0,3.7,2.6,6.9,6,7.8c-3.5,0.9-6,4-6,7.8v10c0,4.4,3.6,8,8,8h23.3c0.3,0,0.5,0,0.8,0c0.3,0,0.5,0,0.8,0h20.9c4.4,0,8-3.6,8-8
					v-10c0-3.1-1.7-5.7-4.3-7.1v-6.6C834.1,20.8,826.5,12.9,813.8,12.9L813.8,12.9z M810.6,38.6C810.6,38.6,810.6,38.6,810.6,38.6
					L810.6,38.6L810.6,38.6z"/>
			</g>
			<g>
				<path class="st3" d="M841.6,47c-2.2,0-4-1.8-4-4c0-6.2-1.2-12.2-2.3-17.5c-0.8-4.1-1.6-7.7-1.6-10.7c0-7.1,5.5-10.9,10.7-10.9
					c5.4,0,10.8,3.8,10.8,11c0,2.9-0.7,6.4-1.5,10.4c-1.1,5.3-2.2,11.3-2.2,17.6c0,2.2-1.8,4-4,4H841.6z"/>
				<path class="st3" d="M844.4,8c3.4,0,6.8,2.3,6.8,7c0,6-3.7,16.5-3.7,28h-5.8c0-11.4-3.9-22-3.9-28.1C837.7,10.3,841,8,844.4,8
					 M844.4,0c-8.4,0-14.7,6.4-14.7,14.9c0,3.4,0.8,7.1,1.7,11.5c1,5.1,2.2,10.9,2.2,16.7c0,4.4,3.6,8,8,8h5.8c4.4,0,8-3.6,8-8
					c0-5.9,1.2-11.7,2.2-16.8c0.8-4.2,1.6-7.9,1.6-11.2C859.2,6.4,852.8,0,844.4,0L844.4,0z"/>
			</g>
			<g>
				<path class="st3" d="M844.5,62.7c-5.7,0-10.3-4.6-10.3-10.3c0-5.7,4.6-10.3,10.3-10.3c5.7,0,10.3,4.6,10.3,10.3
					C854.8,58.1,850.2,62.7,844.5,62.7z"/>
				<path class="st3" d="M844.5,46.2c3.5,0,6.3,2.8,6.3,6.3c0,3.5-2.8,6.3-6.3,6.3c-3.5,0-6.3-2.8-6.3-6.3
					C838.2,49,841,46.2,844.5,46.2 M844.5,38.2c-7.9,0-14.3,6.4-14.3,14.3c0,7.9,6.4,14.3,14.3,14.3c7.9,0,14.3-6.4,14.3-14.3
					C858.8,44.6,852.4,38.2,844.5,38.2L844.5,38.2z"/>
			</g>
		</g>
	</g>
	<g>
		<path class="st4" d="M102,32.3h4.5c-1.5,4.4-2.9,10.1-3.6,14c-1.6-6.7-5.6-17.8-7.5-23.9h-7.5c-2.4,7.1-6.1,16.7-7.9,23.9
			c-0.7-3.9-2.2-9.6-3.7-14h4.6v-9.9H63.2v-13H9.5v23.7h9.1v-6.6c0-4.4,1.3-7.1,7.3-7.1h3.7v28.4h-8.8v10h30.9v-10h-8.9V19.4h3.8
			c6.1,0,7.3,2.7,7.3,7.1v6.6h9.2v-0.8h0.3L75,57.8h9c2.2-6.4,5.1-15.4,6.6-22c1.4,6.5,4.5,15.8,6.7,22h9l10.5-25.5h4v-9.9H102V32.3
			z"/>
		<path class="st4" d="M142.7,20.9c-11,0-20.5,8-20.5,18.8c0,10.3,9,19.2,20.5,19.2c11.3,0,20.5-8.9,20.5-19.2
			C163.2,28.9,154.2,20.9,142.7,20.9z M142.7,50.8c-5.3,0-7.1-1.8-7.1-10.3c0-8.6,2.4-10.3,7.1-10.3c5.2,0,7.1,2.1,7.1,10.3
			C149.8,49.3,148,50.8,142.7,50.8z"/>
		<path class="st4" d="M200.6,35c-4.7-1-8.8-2-8.8-5.2c0-1.6,1.3-2.7,3.4-2.7c3.8,0,7.3,1.8,7.4,8.1h10.6V21.6h-8.7l0.3,7.3
			c-1.2-4.8-5-8-11.6-8c-6.5,0-12.1,4.8-12.1,11.4c0,8.6,7.5,11.1,13.7,12.5c6.3,1.5,9.8,2,9.8,5.6c0,1.7-1.3,2.9-3.9,2.9
			c-5.4,0-8.2-2.7-8.2-8.6h-10.4v13.8h8.8l-0.4-6.5c1.4,5.6,6.9,6.9,10.8,6.9c6.7,0,14.1-3.1,14.1-11.4
			C215.4,39.1,207.1,36.4,200.6,35z"/>
		<path class="st4" d="M259.9,32.3h4.5c-1.5,4.4-2.9,10.1-3.6,14c-1.6-6.7-5.6-17.8-7.5-23.9h-7.5c-2.4,7.1-6.1,16.7-7.9,23.9
			c-0.7-3.9-2.2-9.6-3.7-14h4.6v-9.9h-21.4v9.9h4l11.6,25.5h9c2.2-6.4,5.1-15.4,6.6-22c1.4,6.5,4.5,15.8,6.7,22h9l10.5-25.5h4v-9.9
			h-18.9V32.3z"/>
		<path class="st4" d="M300.2,20.9c-9.7,0-20,6.3-20,18.9c0,10.7,7.2,19.1,19.6,19.1c7.7,0,12.6-3.6,16-10.7l-5-3.2
			c-1.5,3.7-4.2,5.4-8.2,5.4c-5.6,0-9.5-3-9.9-9h23.9c0.4-2.3,0.5-3.9,0.5-5.6C317.2,25.9,308.7,20.9,300.2,20.9z M293,35.3
			c0.7-3.5,3.5-6.3,7.8-6.3c3.8,0,6.4,2,6.3,6.3H293z"/>
		<path class="st4" d="M339.8,20.9c-9.7,0-20,6.3-20,18.9c0,10.7,7.2,19.1,19.6,19.1c7.7,0,12.6-3.6,16-10.7l-5-3.2
			c-1.5,3.7-4.2,5.4-8.2,5.4c-5.6,0-9.5-3-9.9-9h23.9c0.4-2.3,0.5-3.9,0.5-5.6C356.8,25.9,348.4,20.9,339.8,20.9z M332.7,35.3
			c0.7-3.5,3.5-6.3,7.8-6.3c3.8,0,6.4,2,6.3,6.3H332.7z"/>
		<path class="st4" d="M376,12.1h-5.6c0.1,10.3-5.2,14.5-12.7,14.3v5.8h6.9V48c0,7.5,6.6,11.1,12.8,11.1s12.8-3.4,12.8-10.7v-6.4
			h-6.7v4.5c0,2.2-1.7,3.3-3.7,3.3c-2,0-3.6-1.1-3.6-3.2V32.3h14v-9.9H376V12.1z"/>
		<path class="st4" d="M448.9,32.3h4.5c-1.5,4.4-2.9,10.1-3.6,14c-1.6-6.7-5.6-17.8-7.5-23.9h-7.5c-2.4,7.1-6.1,16.7-7.9,23.9
			c-0.7-3.9-2.2-9.6-3.7-14h4.6v-9.9h-21.3v9.9h4l11.6,25.5h9c2.2-6.4,5.1-15.4,6.6-22c1.4,6.5,4.5,15.8,6.7,22h9l10.5-25.5h4v-9.9
			h-18.9V32.3z"/>
		<path class="st4" d="M510.8,44h-5.5v3.3c0,2-1,2.1-1.4,2.1c-0.5,0-0.9-0.4-0.9-1.5c0-4.8,0.6-8.4,0.6-15c0-8.4-8.1-12.1-16.6-12.1
			c-8.7,0-16.5,3.4-16.5,11.5c0,0.5,0,1.2,0.3,3h11.6c-0.1-4.1,1.5-5.5,4-5.5c2.9,0,4.9,1.2,4.9,3.9v3c-1.7-0.2-3.3-0.3-4.7-0.3
			c-11.8,0-17.5,4.9-17.5,11.2c0,7.1,6,11.2,12.7,11.2c6.4,0,11.6-4.8,12.3-12.3h0.7c-0.2,1-0.3,2.1-0.3,3.8c0,6.9,4.4,8,7.4,8
			c6.1,0,8.8-4.3,8.8-10.9V44z M485.1,49.5c-2.2,0-3.9-1.2-3.9-3.5c0-2,1.4-5,6.9-5c1,0,2,0.1,3.1,0.3C491,48,487.7,49.5,485.1,49.5
			z"/>
		<path class="st4" d="M534.1,32.3h4.6c-2.1,5.3-4,11.2-5.3,15.8c-1.1-4.7-3-10.5-5.1-15.8h4.2v-9.9h-21.3v9.9h4.1l11.7,24.4
			c0,8.4-3.6,11.6-7.8,11.6c-2.5,0-4.2-0.6-5.4-1.9c0.7,0.3,1.6,0.4,2.4,0.4c3.9,0,6.7-2.7,6.7-6.7c0-3.6-3.1-6.9-6.9-6.9
			c-5,0-7.6,3.6-7.6,8.6c0,7.1,5.6,10.1,11.8,10.1c5.6,0,11.8-2.9,15-10.1l13.5-29.6h4v-9.9h-18.8V32.3z"/>
		<path class="st4" d="M574.7,35c-4.7-1-8.8-2-8.8-5.2c0-1.6,1.3-2.7,3.4-2.7c3.8,0,7.3,1.8,7.4,8.1h10.6V21.6h-8.7l0.3,7.3
			c-1.2-4.8-5-8-11.6-8c-6.5,0-12.1,4.8-12.1,11.4c0,8.6,7.5,11.1,13.7,12.5c6.3,1.5,9.8,2,9.8,5.6c0,1.7-1.3,2.9-3.9,2.9
			c-5.4,0-8.2-2.7-8.2-8.6h-10.4v13.8h8.8l-0.4-6.5c1.4,5.6,6.9,6.9,10.8,6.9c6.7,0,14.1-3.1,14.1-11.4
			C589.4,39.1,581.1,36.4,574.7,35z"/>
		<path class="st4" d="M623.6,12.1h-5.6c0.1,10.3-5.2,14.5-12.7,14.3v5.8h6.9V48c0,7.5,6.6,11.1,12.8,11.1c6.2,0,12.8-3.4,12.8-10.7
			v-6.4H631v4.5c0,2.2-1.7,3.3-3.7,3.3c-2,0-3.6-1.1-3.6-3.2V32.3h14v-9.9h-14.1V12.1z"/>
		<path class="st4" d="M661.4,20.9c-11,0-20.5,8-20.5,18.8c0,10.3,9,19.2,20.5,19.2c11.3,0,20.5-8.9,20.5-19.2
			C681.9,28.9,672.9,20.9,661.4,20.9z M661.4,50.8c-5.3,0-7.1-1.8-7.1-10.3c0-8.6,2.4-10.3,7.1-10.3c5.2,0,7.1,2.1,7.1,10.3
			C668.4,49.3,666.7,50.8,661.4,50.8z"/>
		<path class="st4" d="M740.1,32.3h4.5c-1.5,4.4-2.9,10.1-3.6,14c-1.6-6.7-5.6-17.8-7.5-23.9H726c-2.4,7.1-6.1,16.7-7.9,23.9
			c-0.7-3.9-2.2-9.6-3.7-14h4.6v-9.9h-21.3v9.9h4l11.6,25.5h9c2.2-6.4,5.1-15.4,6.6-22c1.4,6.5,4.5,15.8,6.7,22h9L755,32.3h4v-9.9
			h-18.9V32.3z"/>
		<polygon class="st4" points="777.8,22.4 759.8,22.4 759.8,32.3 766.3,32.3 766.3,47.8 759.7,47.8 759.7,57.8 783.2,57.8 
			783.2,47.8 777.8,47.8 		"/>
		<path class="st4" d="M772,21.1c3.6,0,6.6-2.9,6.6-6.3s-3-6.3-6.6-6.3c-3.6,0-6.5,2.8-6.5,6.3S768.4,21.1,772,21.1z"/>
		<path class="st4" d="M826.1,34.1c0-8.1-3.3-13.2-12.3-13.2c-8,0-13,5-14.2,14.8h-0.7c0.5-2.5,1-10.5,1-13.3h-15.2v9.9h6.5v15.5
			h-6.5v10h23.3v-10h-5.2V39c0-4.8,2.6-6.7,7.1-6.7c3.8,0,4.9,1.2,4.9,6.7v8.8h-5.2v10h20.9v-10h-4.3V34.1z"/>
		<path class="st4" d="M847.4,43c0-11.6,3.7-22,3.7-28c0-4.7-3.4-7-6.8-7c-3.3,0-6.7,2.3-6.7,6.9c0,6.1,3.9,16.7,3.9,28.1H847.4z"/>
		<path class="st4" d="M844.5,46.2c-3.5,0-6.3,2.8-6.3,6.3c0,3.5,2.8,6.3,6.3,6.3c3.5,0,6.3-2.8,6.3-6.3
			C850.8,49,848,46.2,844.5,46.2z"/>
	</g>
	<g>
		<g>
			<path class="st3" d="M79.3,116.7c-1.9,0-3.5-0.4-4.8-1.3c-0.5,0.4-1.1,0.6-1.8,0.6H57.5c-1.7,0-3-1.3-3-3v-5.1c0-1.7,1.3-3,3-3
				H59v-8.6h-1.5c-1.7,0-3-1.3-3-3v-5.1c0-1.7,1.3-3,3-3h16.3c8.4,0,12.3,5,12.3,9.7c0,2.4-0.9,4.8-2.9,6.5c0.2,0.3,0.3,0.5,0.4,0.8
				h2.3c1.7,0,3,1.3,3,3v2.9C88.8,113.4,85.1,116.7,79.3,116.7z"/>
			<path class="st3" d="M73.7,88.2c6.1,0,9.3,3.2,9.3,6.7c0,3.2-2.2,5.8-6.8,5.9v0.3c3.4,0,4.9,1.6,4.9,4.2c0,1.9-0.3,2.9-0.3,3.7
				c0,0.4,0.3,0.6,0.7,0.6c0.5,0,1.2-0.3,1.2-1.4v-3h3.2v2.9c0,4-3,5.6-6.5,5.6c-2.8,0-5-1.3-5-4.1c0-1.4,0.2-2.3,0.2-3.7
				c0-1.5-0.9-2.6-3.2-2.6h-2.6v4.7h4v5.1H57.5v-5.1H62V93.3h-4.5v-5.1H73.7 M68.8,99.1h2.8c3.9,0,4.6-1.4,4.6-2.9
				c0-1.5-1.1-2.9-3.7-2.9h-3.7V99.1 M73.7,82.2H57.5c-3.3,0-6,2.7-6,6v5.1c0,2.8,1.9,5.2,4.5,5.8v3c-2.6,0.7-4.5,3-4.5,5.8v5.1
				c0,3.3,2.7,6,6,6h15.3c0.6,0,1.2-0.1,1.7-0.3c1.4,0.6,3.1,0.9,4.9,0.9c7.4,0,12.5-4.8,12.5-11.6v-2.9c0-2.5-1.6-4.7-3.8-5.6
				c0.6-1.4,0.9-3,0.9-4.7C89,88.6,83.8,82.2,73.7,82.2L73.7,82.2z M72.5,93C72.5,93,72.5,93,72.5,93L72.5,93L72.5,93z"/>
		</g>
		<g>
			<path class="st3" d="M97,116.7c-7.7,0-13.1-5.3-13.1-12.8c0-8.3,6.8-12.7,13.3-12.7c5.8,0,11.8,3.7,11.8,10.7c0,0.9,0,2-0.3,3.4
				c-0.1,0.6-0.4,1.1-0.8,1.6c0.4,0.8,0.5,1.8,0.1,2.7C105.7,114.2,102,116.7,97,116.7z"/>
			<path class="st3" d="M97.2,94.1c4.4,0,8.8,2.6,8.8,7.7c0,0.9,0,1.7-0.2,2.9H93.4c0.2,3.1,2.2,4.6,5.1,4.6c2,0,3.4-0.8,4.2-2.8
				l2.6,1.6c-1.7,3.6-4.3,5.5-8.2,5.5c-6.4,0-10.1-4.3-10.1-9.8C86.9,97.3,92.2,94.1,97.2,94.1 M93.5,101.5h7.2
				c0-2.2-1.3-3.3-3.3-3.3C95.3,98.3,93.9,99.7,93.5,101.5 M97.2,88.1c-7.9,0-16.3,5.5-16.3,15.7c0,9.2,6.8,15.8,16.1,15.8
				c4.3,0,10.2-1.6,13.7-8.9c0.5-1.1,0.7-2.4,0.5-3.5c0.2-0.5,0.4-1,0.5-1.5c0.3-1.7,0.3-2.9,0.3-3.9C111.9,94,105.6,88.1,97.2,88.1
				L97.2,88.1z"/>
		</g>
		<g>
			<path class="st3" d="M116.1,116.6c-6.5,0-11.8-5.7-11.8-12.7c0-6.9,4.5-12,10.8-12.4v-3.4c0-1.7,1.3-3,3-3h9.3c1.7,0,3,1.3,3,3
				v16.7h0.4c1.7,0,3,1.3,3,3v5.1c0,1.7-1.3,3-3,3h-7.9c-0.7,0-1.3-0.2-1.8-0.6C119.6,116.2,117.9,116.6,116.1,116.6z M117.4,101.6
				c-0.1,0-0.1,0-0.1,0c0,0.1-0.4,0.8-0.4,2.4c0,1.5,0.3,2,0.4,2.1c0,0,0.1,0,0.3,0c0.3,0,0.5,0,0.5-0.1c0.1-0.1,0.3-0.7,0.3-2.1
				C118.4,101.6,117.9,101.6,117.4,101.6z"/>
			<path class="st3" d="M127.4,88.2v19.7h3.4v5.1h-7.9c0-0.7,0.1-2.8,0.4-3.7c-0.9,2.4-3.7,4.2-7.1,4.2c-4.9,0-8.8-4.3-8.8-9.7
				c0-5.8,3.8-9.4,8.5-9.4c3.2,0,5.7,1.4,6.5,4c-0.1-1.3-0.2-4-0.3-5.2h-4v-5.1H127.4 M117.6,109.1c2.7,0,3.8-1.5,3.8-5.1
				c0-3.6-1.4-5.4-4-5.4c-2.3,0-3.5,2.1-3.5,5.4C113.9,107.2,115.2,109.1,117.6,109.1 M127.4,82.2h-9.3c-3.3,0-6,2.7-6,6V89
				c-6.3,1.7-10.8,7.5-10.8,14.9c0,8.6,6.6,15.7,14.8,15.7c1.7,0,3.4-0.3,5-0.8c0.6,0.2,1.2,0.3,1.8,0.3h7.9c3.3,0,6-2.7,6-6v-5.1
				c0-2.4-1.4-4.5-3.4-5.4V88.2C133.4,84.9,130.7,82.2,127.4,82.2L127.4,82.2z M120,102.9C120,102.9,120,102.9,120,102.9L120,102.9
				L120,102.9z M115.4,103C115.4,103,115.4,103,115.4,103L115.4,103L115.4,103z"/>
		</g>
		<g>
			<path class="st3" d="M141.9,116.7c-7.7,0-13.1-5.3-13.1-12.8c0-8.3,6.8-12.7,13.3-12.7c5.8,0,11.8,3.7,11.8,10.7
				c0,0.9,0,2-0.3,3.4c-0.1,0.6-0.4,1.1-0.8,1.6c0.4,0.8,0.5,1.8,0.1,2.7C150.6,114.2,146.9,116.7,141.9,116.7z"/>
			<path class="st3" d="M142.1,94.1c4.4,0,8.8,2.6,8.8,7.7c0,0.9,0,1.7-0.2,2.9h-12.3c0.2,3.1,2.2,4.6,5.1,4.6c2,0,3.4-0.8,4.2-2.8
				l2.6,1.6c-1.7,3.6-4.3,5.5-8.2,5.5c-6.4,0-10.1-4.3-10.1-9.8C131.8,97.3,137.2,94.1,142.1,94.1 M138.5,101.5h7.2
				c0-2.2-1.3-3.3-3.3-3.3C140.3,98.3,138.8,99.7,138.5,101.5 M142.1,88.1c-7.9,0-16.3,5.5-16.3,15.7c0,9.2,6.8,15.8,16.1,15.8
				c4.3,0,10.2-1.6,13.7-8.9c0.5-1.1,0.7-2.4,0.5-3.5c0.2-0.5,0.4-1,0.5-1.5c0.3-1.7,0.3-2.9,0.3-3.9
				C156.9,94,150.5,88.1,142.1,88.1L142.1,88.1z"/>
		</g>
		<g>
			<path class="st3" d="M162.3,116.7c-7.7,0-13.1-5.3-13.1-12.8c0-8.3,6.8-12.7,13.3-12.7c5.8,0,11.8,3.7,11.8,10.7
				c0,0.9,0,2-0.3,3.4c-0.1,0.6-0.4,1.1-0.8,1.6c0.4,0.8,0.5,1.8,0.1,2.7C171,114.2,167.3,116.7,162.3,116.7z"/>
			<path class="st3" d="M162.5,94.1c4.4,0,8.8,2.6,8.8,7.7c0,0.9,0,1.7-0.2,2.9h-12.3c0.2,3.1,2.2,4.6,5.1,4.6c2,0,3.4-0.8,4.2-2.8
				l2.6,1.6c-1.7,3.6-4.3,5.5-8.2,5.5c-6.4,0-10.1-4.3-10.1-9.8C152.2,97.3,157.6,94.1,162.5,94.1 M158.9,101.5h7.2
				c0-2.2-1.3-3.3-3.3-3.3C160.7,98.3,159.2,99.7,158.9,101.5 M162.5,88.1c-7.9,0-16.3,5.5-16.3,15.7c0,9.2,6.8,15.8,16.1,15.8
				c4.3,0,10.2-1.6,13.7-8.9c0.5-1.1,0.7-2.4,0.5-3.5c0.2-0.5,0.4-1,0.5-1.5c0.3-1.7,0.3-2.9,0.3-3.9
				C177.3,94,170.9,88.1,162.5,88.1L162.5,88.1z"/>
		</g>
		<g>
			<path class="st3" d="M196,116.1c-0.1,0-0.3,0-0.4,0c-0.1,0-0.3,0-0.4,0h-10.4c-0.1,0-0.3,0-0.4,0c-0.1,0-0.3,0-0.4,0h-11.6
				c-1.7,0-3-1.3-3-3v-5.1c0-1.7,1.3-3,3-3h0.4v-2h-0.4c-1.7,0-3-1.3-3-3v-5.1c0-1.7,1.3-3,3-3h7.8c0.6,0,1.2,0.2,1.7,0.5
				c1.3-0.7,2.8-1.1,4.5-1.1c2.2,0,4,0.7,5.4,1.9c1.6-1.3,3.7-2.1,6.2-2.1c5.6,0,9.2,3.8,9.2,9.7v4.1c1.4,0.2,2.5,1.5,2.5,3v5.1
				c0,1.7-1.3,3-3,3H196z"/>
			<path class="st3" d="M197.9,94.1c4.3,0,6.2,2.9,6.2,6.7v7.1h2.5v5.1H196v-5.1h2.3v-4.8c0-2.7-0.5-3.4-2.2-3.4
				c-2.1,0-3.2,1.1-3.2,3.5v4.8h2.3v5.1h-10.4v-5.1h2.2v-4.8c0-2.7-0.5-3.4-2.2-3.4c-2.1,0-3.2,1.1-3.2,3.5v4.8h2.3v5.1h-11.6v-5.1
				h3.4v-8h-3.4v-5.1h7.8c-0.1,1.4-0.4,5.6-0.6,6.5h0.4c0.6-4.2,2.7-7.1,6.4-7.1c3.1,0,4.7,1.9,5.1,4.8
				C192.4,95.7,194.8,94.1,197.9,94.1 M197.9,88.1c-2.2,0-4.3,0.5-6.1,1.5c-1.6-0.8-3.4-1.3-5.4-1.3c-1.6,0-3.2,0.3-4.5,0.8
				c-0.5-0.2-1.1-0.2-1.7-0.2h-7.8c-3.3,0-6,2.7-6,6v5.1c0,1.5,0.6,2.9,1.5,4c-0.9,1.1-1.5,2.5-1.5,4v5.1c0,3.3,2.7,6,6,6h11.6
				c0.1,0,0.3,0,0.4,0c0.1,0,0.3,0,0.4,0h10.4c0.1,0,0.3,0,0.4,0c0.1,0,0.3,0,0.4,0h10.6c3.3,0,6-2.7,6-6v-5.1c0-2-1-3.8-2.5-4.9
				v-2.2C210.1,93.2,205.2,88.1,197.9,88.1L197.9,88.1z"/>
		</g>
		<g>
			<path class="st3" d="M219.2,123.4c-5.4,0-9.1-3.3-9.1-8.2c0-4.4,2.8-7.4,6.9-7.4l-2.3-4.8h-0.2c-1.7,0-3-1.3-3-3v-5.1
				c0-1.7,1.3-3,3-3h11c0.1,0,0.3,0,0.4,0c0.1,0,0.3,0,0.4,0h9.7c1.7,0,3,1.3,3,3v5.1c0,1.7-1.3,3-3,3h-0.1l-6.1,13.5
				C227.7,120.7,223.7,123.4,219.2,123.4z"/>
			<path class="st3" d="M235.9,94.9v5.1h-2.1l-6.9,15.3c-1.7,3.7-4.9,5.2-7.7,5.2c-3.2,0-6.1-1.5-6.1-5.2c0-2.6,1.3-4.4,3.9-4.4
				c1.9,0,3.5,1.7,3.5,3.5c0,2-1.4,3.4-3.5,3.4c-0.5,0-0.9-0.1-1.3-0.2c0.6,0.7,1.5,1,2.8,1c2.1,0,4-1.6,4-6l-6-12.6h-2.1v-5.1h11
				v5.1h-2.2c1.1,2.7,2.1,5.7,2.6,8.2c0.7-2.4,1.6-5.4,2.7-8.2h-2.4v-5.1H235.9 M235.9,88.9h-9.7c-0.1,0-0.3,0-0.4,0
				c-0.1,0-0.3,0-0.4,0h-11c-3.3,0-6,2.7-6,6v5.1c0,2.7,1.8,5,4.2,5.7c-3.4,1.6-5.6,5.1-5.6,9.5c0,6.6,5,11.2,12.1,11.2
				c5.7,0,10.7-3.3,13.2-8.7l5.5-12.1c2.4-0.8,4.1-3,4.1-5.7v-5.1C241.9,91.6,239.2,88.9,235.9,88.9L235.9,88.9z M216.5,113.7
				C216.5,113.7,216.5,113.7,216.5,113.7L216.5,113.7z"/>
		</g>
		<g>
			<path class="st3" d="M247.2,116.7c-7.5,0-13.5-5.8-13.5-12.9c0-7.1,5.9-12.7,13.5-12.7s13.5,5.6,13.5,12.7
				C260.7,110.8,254.5,116.7,247.2,116.7z M246.6,106.5c0.1,0,0.3,0,0.5,0c0.2,0,0.4,0,0.5,0c0.1-0.4,0.1-1,0.1-2.3
				c0-1.3-0.1-2-0.2-2.3c-0.1,0-0.3,0-0.5,0c-0.2,0-0.3,0-0.5,0c-0.1,0.3-0.2,0.9-0.2,2.3C246.5,105.5,246.5,106.1,246.6,106.5z"/>
			<path class="st3" d="M247.2,94.1c5.9,0,10.5,4.1,10.5,9.7c0,5.3-4.7,9.9-10.5,9.9c-5.9,0-10.5-4.6-10.5-9.9
				C236.6,98.2,241.5,94.1,247.2,94.1 M247.1,109.5c2.7,0,3.6-0.7,3.6-5.3c0-4.2-0.9-5.3-3.6-5.3c-2.5,0-3.7,0.9-3.7,5.3
				C243.5,108.6,244.4,109.5,247.1,109.5 M247.2,88.1c-9.3,0-16.5,6.9-16.5,15.7c0,8.8,7.4,15.9,16.5,15.9c9.1,0,16.5-7.1,16.5-15.9
				C263.7,95,256.4,88.1,247.2,88.1L247.2,88.1z M246.9,103.5C246.9,103.5,246.9,103.5,246.9,103.5L246.9,103.5L246.9,103.5z"/>
		</g>
		<g>
			<path class="st3" d="M267.8,116.6c-6,0-9.4-3.4-9.4-9.5v-4.2c-1.5-0.1-2.7-1.4-2.7-3v-5.1c0-1.7,1.3-3,3-3h8.7
				c0.3,0,0.7,0.1,1,0.2c0.3-0.1,0.6-0.2,1-0.2h10.1c1.7,0,3,1.3,3,3v10.1c1.6,0.1,2.9,1.4,2.9,3v5.1c0,1.7-1.3,3-3,3H275
				c-0.8,0-1.5-0.3-2.1-0.9C271.3,116.2,269.5,116.6,267.8,116.6z M270.4,104.9c0,0.1,0,0.3,0,0.4c0,0,0.1,0,0.1,0
				c0-0.1,0-0.2,0-0.4V103h-0.1V104.9z"/>
			<path class="st3" d="M279.5,94.9v13.1h2.9v5.1H275c0.1-1.5,0.3-5.6,0.6-6.5h-0.4c-0.9,5.1-4.5,7.1-7.4,7.1
				c-4.6,0-6.4-2.3-6.4-6.5V100h-2.7v-5.1h8.7v10c0,2.8,0.5,3.4,2.5,3.4c2.3,0,3.6-1,3.6-3.5V100h-4.2v-5.1H279.5 M279.5,88.9h-10.1
				c-0.3,0-0.7,0-1,0.1c-0.3-0.1-0.6-0.1-1-0.1h-8.7c-3.3,0-6,2.7-6,6v5.1c0,2.1,1.1,4,2.7,5v2.2c0,7.7,4.7,12.5,12.4,12.5
				c1.6,0,3.3-0.3,4.9-1c0.7,0.3,1.5,0.4,2.2,0.4h7.3c3.3,0,6-2.7,6-6v-5.1c0-2.2-1.1-4.1-2.9-5.1v-7.9
				C285.5,91.6,282.8,88.9,279.5,88.9L279.5,88.9z"/>
		</g>
		<g>
			<path class="st3" d="M283,116.1c-1.7,0-3-1.3-3-3v-5.1c0-1.7,1.3-3,3-3h0.4v-2H283c-1.7,0-3-1.3-3-3v-5.1c0-1.7,1.3-3,3-3h8.1
				c0.6,0,1.1,0.2,1.6,0.4c1.3-0.8,2.7-1.2,4.3-1.2c5.1,0,7.8,3.7,7.8,7.3c0,3.3-2.4,6.7-6.5,6.9c1,0.5,1.6,1.5,1.6,2.7v5.1
				c0,1.7-1.3,3-3,3H283z M295.7,104.9c-0.1,0-0.3-0.1-0.4-0.1v0.1H295.7z"/>
			<path class="st3" d="M296.9,94.1c3.3,0,4.8,2.2,4.8,4.3c0,1.9-1.4,3.9-3.9,3.9c-2,0-3.4-1.4-3.4-3.2c0-0.7,0.1-1.2,0.4-1.6
				c-1.5,0.8-2.5,2.5-2.5,5.5v5h4.5v5.1H283v-5.1h3.4v-8H283v-5.1h8.1c0,1.4-0.3,3.7-0.5,5.2h0.4C291.5,97,293.7,94.1,296.9,94.1
				 M296.9,88.1c-1.6,0-3.1,0.3-4.5,0.9c-0.4-0.1-0.9-0.2-1.4-0.2H283c-3.3,0-6,2.7-6,6v5.1c0,1.5,0.6,2.9,1.5,4
				c-0.9,1.1-1.5,2.5-1.5,4v5.1c0,3.3,2.7,6,6,6h13.8c3.3,0,6-2.7,6-6v-5.1c0-0.3,0-0.6-0.1-0.9c3-1.7,5-4.9,5-8.6
				C307.7,93.4,303.9,88.1,296.9,88.1L296.9,88.1z"/>
		</g>
		<g>
			<path class="st3" d="M316.8,116.7c-0.8,0-1.6-0.3-2.2-1c-0.6-0.6-0.9-1.4-0.8-2.3l0-0.4h-3.1c-1.7,0-3-1.3-3-3V103
				c0-0.7,0.2-1.3,0.6-1.9c-0.7-1.2-1.2-2.7-1.2-4.5c0-4,2.6-7.3,6.3-8.4v-0.7c0-1.7,1.3-3,3-3h4.2c0.8,0,1.6,0.4,2.2,1
				c0.6,0.6,0.9,1.4,0.8,2.3l0,0.4h3.1c1.7,0,3,1.3,3,3v7c0,0.5-0.1,1.1-0.4,1.5c0.9,1.2,1.5,2.8,1.5,4.9c0,4.3-2.8,7.5-7.2,8.5v0.7
				c0,1.7-1.3,3-3,3H316.8z"/>
			<path class="st3" d="M320.7,87.5l-0.4,4.3c1.1,0.7,1.8,1.8,2.1,3.1l-0.1-3.7h4.5v7h-5.5c-0.1-3.3-1.9-4.2-3.8-4.2
				c-1.1,0-1.8,0.6-1.8,1.4c0,1.7,2.1,2.2,4.6,2.7c3.3,0.7,7.6,2.1,7.6,6.4c0,4.3-3.7,5.8-7.2,5.9v3.4h-3.9l0.3-4.2
				c-1-0.6-1.8-1.4-2.1-2.8l0.2,3.3h-4.5V103h5.4c0,3.1,1.4,4.4,4.2,4.4c1.3,0,2-0.6,2-1.5c0-1.8-1.8-2.1-5-2.9c-3.2-0.7-7-2-7-6.4
				c0-3.4,2.9-5.9,6.3-5.9v-3.3H320.7 M320.7,81.5h-4.2c-2.9,0-5.3,2-5.9,4.7c-3.8,2-6.4,5.9-6.4,10.5c0,1.4,0.2,3,0.8,4.5
				c-0.2,0.6-0.3,1.2-0.3,1.9v7.1c0,3.3,2.7,6,6,6h0.6c0.3,0.6,0.6,1.2,1.1,1.7c1.1,1.2,2.7,1.9,4.4,1.9h3.9c2.8,0,5.1-1.9,5.8-4.5
				c4.5-1.8,7.4-5.8,7.4-10.8c0-1.6-0.3-3.5-1.2-5.2c0.1-0.4,0.1-0.7,0.1-1.1v-7c0-3.3-2.7-6-6-6h-0.5c-0.3-0.6-0.6-1.2-1.1-1.7
				C323.9,82.2,322.3,81.5,320.7,81.5L320.7,81.5z"/>
		</g>
		<g>
			<path class="st3" d="M331.6,116.1c-1.7,0-3-1.3-3-3v-5.1c0-1.7,1.3-3,3-3h4.9v-3.2h-4.7c-1.7,0-3-1.3-3-3v-4.4c0-1.7,1.3-3,3-3
				c6.2,0,6.2-2.2,6.2-3.2c0-1.6,1.4-3,3-3h4.3c1.7,0,3,1.3,3,3v16.7h4.2c1.7,0,3,1.3,3,3v5.1c0,1.7-1.3,3-3,3H331.6z"/>
			<path class="st3" d="M345.4,88.2v19.7h7.2v5.1h-21v-5.1h7.9v-9.2h-7.7v-4.4c7.4,0,9.2-3,9.2-6.1H345.4 M345.4,82.2h-4.3
				c-3.2,0-5.9,2.5-6,5.7c-0.4,0.2-1.4,0.4-3.2,0.4c-3.3,0-6,2.7-6,6v4.4c0,1.8,0.8,3.4,2,4.5c-1.4,1.1-2.2,2.8-2.2,4.7v5.1
				c0,3.3,2.7,6,6,6h21c3.3,0,6-2.7,6-6v-5.1c0-3.3-2.7-6-6-6h-1.2V88.2C351.4,84.9,348.7,82.2,345.4,82.2L345.4,82.2z"/>
		</g>
		<g>
			<path class="st3" d="M364.8,116.7c-8,0-13.9-6.7-13.9-16c0-9.3,5.8-16,13.9-16s13.9,6.7,13.9,16
				C378.6,109.9,372.8,116.7,364.8,116.7z M364.3,106c0,0,0.1,0.1,0.5,0.1c0.4,0,0.6,0,0.7-0.1c0.2-0.3,0.6-1.3,0.6-5.3
				c0-4.5-0.6-5.2-0.7-5.3l0,0c0,0-0.1-0.1-0.5-0.1c-0.5,0-0.6,0.1-0.6,0.1c0,0-0.7,0.8-0.7,5.3C363.5,105.3,364.2,106,364.3,106
				L364.3,106z"/>
			<path class="st3" d="M364.8,87.7c6.4,0,10.9,5.4,10.9,13c0,7.6-4.6,13-10.9,13c-6.3,0-10.9-5.4-10.9-13
				C353.9,93.1,358.4,87.7,364.8,87.7 M364.8,109.1c3.3,0,4.3-1.8,4.3-8.4c0-5.8-0.9-8.4-4.3-8.4c-3.2,0-4.3,2-4.3,8.4
				C360.5,106.6,361.6,109.1,364.8,109.1 M364.8,81.7c-9.8,0-16.9,8-16.9,19c0,10.8,7.3,19,16.9,19s16.9-8.2,16.9-19
				C381.6,89.7,374.5,81.7,364.8,81.7L364.8,81.7z"/>
		</g>
		<g>
			<path class="st3" d="M398.7,116.7c-1.9,0-3.7-0.3-5.2-1c-0.6,0.5-1.3,0.8-2,0.8h-5c-1.7,0-3-1.3-3-3v-9.8c0-1.2,0.7-2.3,1.8-2.7
				c-1-1.5-1.6-3.4-1.6-5.9c0-6.1,5-10.6,11.8-10.6c1.7,0,3.2,0.3,4.6,0.9c0.6-0.5,1.3-0.8,2-0.8h5c1.7,0,3,1.3,3,3v10
				c0,0.7-0.2,1.3-0.6,1.8c1.2,1.5,2,3.6,2,6.3C411.3,112.8,404.8,116.7,398.7,116.7z"/>
			<path class="st3" d="M395.3,87.5c3.4,0,5.9,1.6,6.9,4.1l-0.3-4h5v10H401c-0.1-3.9-2.1-5.9-4.9-5.9c-1.7,0-2.7,1.1-2.7,2.5
				c0,1.6,0.8,2.5,5.9,3.5c5.6,1,9,3.1,9,8.1c0,5.1-5,7.9-9.6,7.9c-3.2,0-6.2-1.1-7.6-4.2l0.3,4h-5v-9.8h6.1
				c0.1,4.2,2.9,5.9,5.3,5.9c2,0,3.6-1.1,3.6-3c0-2.2-2.2-2.6-5.1-3.1c-5.6-1.1-9.9-2.8-9.9-8.4C386.5,90.5,390.2,87.5,395.3,87.5
				 M395.3,81.5c-8.6,0-14.8,5.7-14.8,13.6c0,2,0.3,3.8,0.9,5.2c-0.7,1-1,2.1-1,3.4v9.8c0,3.3,2.7,6,6,6h5c0.8,0,1.6-0.2,2.4-0.5
				c1.5,0.4,3.1,0.7,4.9,0.7c7.7,0,15.6-5.2,15.6-13.9c0-2.1-0.4-4.4-1.6-6.6c0.1-0.5,0.2-1,0.2-1.6v-10c0-3.3-2.7-6-6-6h-5
				c-0.8,0-1.6,0.2-2.4,0.5C398.3,81.7,396.8,81.5,395.3,81.5L395.3,81.5z"/>
		</g>
		<g>
			<path class="st3" d="M429.3,116.1c-1.3,0-2.4-0.8-2.8-2c-0.2-0.4-0.4-1-0.6-1.7c-0.2,0.6-0.4,1.2-0.6,1.7c-0.4,1.2-1.6,2-2.8,2
				h-4.7c-1.2,0-2.2-0.7-2.7-1.8l-5.2-11.4h-0.1c-1.7,0-3-1.3-3-3v-5.1c0-1.7,1.3-3,3-3h11c0.7,0,1.3,0.2,1.8,0.6
				c0.5-0.4,1.1-0.6,1.8-0.6h3.9c0.6,0,1.2,0.2,1.7,0.5c0.5-0.3,1.1-0.5,1.7-0.5h9.7c1.7,0,3,1.3,3,3v5.1c0,1.7-1.3,3-3,3h-0.1
				l-4.7,11.3c-0.5,1.1-1.6,1.9-2.8,1.9H429.3z"/>
			<path class="st3" d="M441.4,94.9v5.1h-2.1l-5.4,13.1h-4.7c-1.1-3.2-2.7-8-3.4-11.3c-0.8,3.4-2.3,8-3.4,11.3h-4.7l-6-13.1h-2.1
				v-5.1h11v5.1h-2.3c0.8,2.3,1.6,5.2,1.9,7.2c0.9-3.7,2.8-8.6,4.1-12.3h3.9c1,3.1,3.1,8.8,3.9,12.3c0.4-2,1.1-4.9,1.9-7.2h-2.3
				v-5.1H441.4 M441.4,88.9h-9.7c-0.6,0-1.2,0.1-1.7,0.2c-0.5-0.2-1.1-0.2-1.7-0.2h-3.9c-0.6,0-1.2,0.1-1.8,0.3
				c-0.6-0.2-1.2-0.3-1.8-0.3h-11c-3.3,0-6,2.7-6,6v5.1c0,2.6,1.7,4.9,4.1,5.7l4.5,9.9c1,2.1,3.1,3.5,5.5,3.5h4.7
				c1.3,0,2.4-0.4,3.4-1.1c1,0.7,2.2,1.1,3.4,1.1h4.7c2.4,0,4.6-1.5,5.5-3.7l4-9.8c2.3-0.9,3.9-3,3.9-5.6v-5.1
				C447.4,91.6,444.7,88.9,441.4,88.9L441.4,88.9z"/>
		</g>
		<g>
			<path class="st3" d="M452.2,116.7c-7.7,0-13.1-5.3-13.1-12.8c0-8.3,6.8-12.7,13.3-12.7c5.8,0,11.8,3.7,11.8,10.7
				c0,0.9,0,2-0.3,3.4c-0.1,0.6-0.4,1.1-0.8,1.6c0.4,0.8,0.5,1.8,0.1,2.7C460.9,114.2,457.2,116.7,452.2,116.7z"/>
			<path class="st3" d="M452.4,94.1c4.4,0,8.8,2.6,8.8,7.7c0,0.9,0,1.7-0.2,2.9h-12.3c0.2,3.1,2.2,4.6,5.1,4.6c2,0,3.4-0.8,4.2-2.8
				l2.6,1.6c-1.7,3.6-4.3,5.5-8.2,5.5c-6.4,0-10.1-4.3-10.1-9.8C442.1,97.3,447.4,94.1,452.4,94.1 M448.7,101.5h7.2
				c0-2.2-1.3-3.3-3.3-3.3C450.5,98.3,449.1,99.7,448.7,101.5 M452.4,88.1c-7.9,0-16.3,5.5-16.3,15.7c0,9.2,6.8,15.8,16.1,15.8
				c4.3,0,10.2-1.6,13.7-8.9c0.5-1.1,0.7-2.4,0.5-3.5c0.2-0.5,0.4-1,0.5-1.5c0.3-1.7,0.3-2.9,0.3-3.9
				C467.2,94,460.8,88.1,452.4,88.1L452.4,88.1z"/>
		</g>
		<g>
			<path class="st3" d="M472.6,116.7c-7.7,0-13.1-5.3-13.1-12.8c0-8.3,6.8-12.7,13.3-12.7c5.8,0,11.8,3.7,11.8,10.7
				c0,0.9,0,2-0.3,3.4c-0.1,0.6-0.4,1.1-0.8,1.6c0.4,0.8,0.5,1.8,0.1,2.7C481.3,114.2,477.6,116.7,472.6,116.7z"/>
			<path class="st3" d="M472.8,94.1c4.4,0,8.8,2.6,8.8,7.7c0,0.9,0,1.7-0.2,2.9H469c0.2,3.1,2.2,4.6,5.1,4.6c2,0,3.4-0.8,4.2-2.8
				l2.6,1.6c-1.7,3.6-4.3,5.5-8.2,5.5c-6.4,0-10.1-4.3-10.1-9.8C462.5,97.3,467.8,94.1,472.8,94.1 M469.1,101.5h7.2
				c0-2.2-1.3-3.3-3.3-3.3C470.9,98.3,469.5,99.7,469.1,101.5 M472.8,88.1c-7.9,0-16.3,5.5-16.3,15.7c0,9.2,6.8,15.8,16.1,15.8
				c4.3,0,10.2-1.6,13.7-8.9c0.5-1.1,0.7-2.4,0.5-3.5c0.2-0.5,0.4-1,0.5-1.5c0.3-1.7,0.3-2.9,0.3-3.9
				C487.6,94,481.2,88.1,472.8,88.1L472.8,88.1z"/>
		</g>
		<g>
			<path class="st3" d="M492.1,116.7c-4.6,0-9.6-3.1-9.6-8.7V103H482c-1.7,0-3-1.3-3-3v-3c0-0.8,0.3-1.6,0.9-2.1
				c0.6-0.6,1.3-0.9,2.1-0.9c0,0,0.2,0,0.2,0c1.1,0,1.9-0.3,2.4-0.8c0.7-0.7,1-1.9,1-3.6c0-0.8,0.3-1.6,0.9-2.1
				c0.6-0.6,1.3-0.9,2.1-0.9h2.9c1.7,0,3,1.3,3,3v2.3h4.3c1.7,0,3,1.3,3,3v5.1c0,1-0.5,1.9-1.3,2.5c0.8,0.5,1.3,1.5,1.3,2.5v3.3
				C501.7,113.8,496.9,116.7,492.1,116.7z"/>
			<path class="st3" d="M491.4,89.6v5.3h7.3v5.1h-7.2v7.3c0,1.1,0.8,1.6,1.9,1.6s1.9-0.6,1.9-1.7v-2.3h3.5v3.3
				c0,3.8-3.4,5.5-6.6,5.5c-3.2,0-6.6-1.9-6.6-5.7V100H482v-3c0.1,0,0.1,0,0.2,0c3.8,0,6.4-2.2,6.4-7.4H491.4 M491.4,83.6h-2.9
				c-1.6,0-3.1,0.6-4.3,1.8c-1.1,1.1-1.8,2.7-1.7,4.3c0,0.7-0.1,1.1-0.1,1.3c-0.1,0-0.1,0-0.2,0l-0.1,0c0,0-0.1,0-0.1,0
				c-1.6,0-3.1,0.6-4.2,1.7c-1.1,1.1-1.8,2.7-1.8,4.3v3c0,2.4,1.5,4.6,3.6,5.5v2.6c0,6.7,5.4,11.7,12.6,11.7c7.2,0,12.6-5,12.6-11.5
				v-3.3c0-0.9-0.2-1.7-0.5-2.5c0.3-0.8,0.5-1.6,0.5-2.5v-5.1c0-3.3-2.7-6-6-6h-1.3C497,85.9,494.5,83.6,491.4,83.6L491.4,83.6z"/>
		</g>
		<g>
			<path class="st3" d="M507.6,116.1c-1.7,0-3-1.3-3-3v-5.1c0-1.7,1.3-3,3-3h1.1v-8.6h-1.1c-1.7,0-3-1.3-3-3v-5.1c0-1.7,1.3-3,3-3
				H524c8.4,0,11.4,5.2,11.4,9.6c0,1.9-0.8,3.8-2.2,5.4c1.8,1.7,2.9,4,2.9,6.2c0,5.9-4.6,9.7-11.6,9.7H507.6z"/>
			<path class="st3" d="M524,88.2c5.6,0,8.4,2.7,8.4,6.6c0,2.2-1.8,5.3-6.6,5.3v0.4c4.8,0,7.2,3.4,7.2,6c0,4.1-3.2,6.7-8.6,6.7
				h-16.8v-5.1h4.1V93.3h-4.1v-5.1H524 M518.5,98.1h4c2.1,0,3.1-1.1,3.1-2.4c0-1.4-0.9-2.4-3.1-2.4h-4V98.1 M518.5,107.9h4.3
				c2.6,0,3.6-1.2,3.6-2.6c0-1.4-0.9-2.5-3.5-2.5h-4.4V107.9 M524,82.2h-16.4c-3.3,0-6,2.7-6,6v5.1c0,2.6,1.7,4.9,4.1,5.7v3.2
				c-2.4,0.8-4.1,3-4.1,5.7v5.1c0,3.3,2.7,6,6,6h16.8c10.1,0,14.6-6.4,14.6-12.7c0-2.2-0.7-4.4-2.1-6.4c0.9-1.6,1.4-3.5,1.4-5.2
				C538.4,88.5,533.9,82.2,524,82.2L524,82.2z"/>
		</g>
		<g>
			<path class="st3" d="M543.4,116.6c-6,0-9.4-3.4-9.4-9.5v-4.2c-1.5-0.1-2.7-1.4-2.7-3v-5.1c0-1.7,1.3-3,3-3h8.7
				c0.3,0,0.7,0.1,1,0.2c0.3-0.1,0.6-0.2,1-0.2h10.1c1.7,0,3,1.3,3,3v10.1c1.6,0.1,2.9,1.4,2.9,3v5.1c0,1.7-1.3,3-3,3h-7.3
				c-0.8,0-1.5-0.3-2.1-0.9C546.9,116.2,545.1,116.6,543.4,116.6z M546,104.9c0,0.1,0,0.3,0,0.4c0,0,0.1,0,0.1,0c0-0.1,0-0.2,0-0.4
				V103H546V104.9z"/>
			<path class="st3" d="M555.1,94.9v13.1h2.9v5.1h-7.3c0.1-1.5,0.3-5.6,0.6-6.5h-0.4c-0.9,5.1-4.5,7.1-7.4,7.1
				c-4.6,0-6.4-2.3-6.4-6.5V100h-2.7v-5.1h8.7v10c0,2.8,0.5,3.4,2.5,3.4c2.3,0,3.6-1,3.6-3.5V100H545v-5.1H555.1 M555.1,88.9H545
				c-0.3,0-0.7,0-1,0.1c-0.3-0.1-0.6-0.1-1-0.1h-8.7c-3.3,0-6,2.7-6,6v5.1c0,2.1,1.1,4,2.7,5v2.2c0,7.7,4.7,12.5,12.4,12.5
				c1.6,0,3.3-0.3,4.9-1c0.7,0.3,1.5,0.4,2.2,0.4h7.3c3.3,0,6-2.7,6-6v-5.1c0-2.2-1.1-4.1-2.9-5.1v-7.9
				C561.1,91.6,558.4,88.9,555.1,88.9L555.1,88.9z"/>
		</g>
		<g>
			<path class="st3" d="M568.4,116.7c-6.9,0-12.4-5.6-12.4-12.8c0-8.4,6.6-12.8,13.1-12.8c5.8,0,10,3.4,10,8.2
				c0,2.1-0.9,3.9-2.2,5.1l2.4,2.5c0.9,1,1.1,2.4,0.4,3.6C577.3,114.6,573.5,116.7,568.4,116.7z"/>
			<path class="st3" d="M569.1,94.1c3.5,0,7,1.8,7,5.2c0,2.2-1.6,3.7-3.7,3.7c-2.2,0-3.7-1.1-3.7-3.6c0-0.9,0.3-1.6,0.9-2.2
				c-3.2,0.1-4.9,2.7-4.9,5.5c0,3.6,2.6,5.6,5,5.6c1.4,0,2.8-0.7,4.1-2.7l3.3,3.4c-1.9,3.3-4.8,4.7-8.8,4.7c-5.4,0-9.4-4.5-9.4-9.8
				C559,97.1,564.4,94.1,569.1,94.1 M569.1,88.1c-7.8,0-16.1,5.5-16.1,15.8c0,8.8,6.8,15.8,15.4,15.8c7.9,0,11.9-4.2,14-7.7
				c1.3-2.3,1-5.2-0.9-7.2l-0.6-0.6c0.8-1.4,1.3-3.1,1.3-4.9C582.1,92.9,576.5,88.1,569.1,88.1L569.1,88.1z"/>
		</g>
		<g>
			<path class="st3" d="M589.4,116.1c-0.5,0-0.9-0.1-1.3-0.3c-0.4,0.2-0.8,0.3-1.3,0.3h-9.3c-1.7,0-3-1.3-3-3v-5.1c0-1.7,1.3-3,3-3
				h0.4v-8.6h-0.4c-1.7,0-3-1.3-3-3v-5.1c0-1.7,1.3-3,3-3h9.3c1.7,0,3,1.3,3,3v3.7h10.4c1.7,0,3,1.3,3,3v5.1c0,1.7-1.3,3-3,3h-1.6
				l1.7,1.9h0.8c1.7,0,3,1.3,3,3v5.1c0,1.7-1.3,3-3,3H589.4z"/>
			<path class="st3" d="M586.8,88.2v15.3l4.1-3.4h-2.2v-5.1h11.4v5.1H597l-3,2.4l4.9,5.5h2.1v5.1h-11.7v-5.1h1.9l-1.9-2.1l-2.7,2.1
				v5.1h-9.3v-5.1h3.4V93.3h-3.4v-5.1H586.8 M586.8,82.2h-9.3c-3.3,0-6,2.7-6,6v5.1c0,2.4,1.4,4.4,3.4,5.4v3.8c-2,1-3.4,3-3.4,5.4
				v5.1c0,3.3,2.7,6,6,6h9.3c0.5,0,0.9,0,1.3-0.1c0.4,0.1,0.9,0.1,1.3,0.1H601c3.3,0,6-2.7,6-6v-5.1c0-1.8-0.8-3.4-2-4.5
				c0.7-1,1.1-2.2,1.1-3.4v-5.1c0-3.3-2.7-6-6-6h-7.4v-0.7C592.8,84.9,590.1,82.2,586.8,82.2L586.8,82.2z"/>
		</g>
		<g>
			<path class="st3" d="M612.9,116.7c-1.4,0-2.7-0.2-3.8-0.7c-0.5,0.3-1,0.4-1.5,0.4h-4.5c-1.7,0-3-1.3-3-3v-7.1
				c0-0.7,0.2-1.3,0.6-1.9c-0.7-1.2-1.2-2.7-1.2-4.5c0-5,4.1-8.9,9.2-8.9c1.6,0,3,0.3,4.2,0.8c0.5-0.3,1-0.5,1.6-0.5h4.5
				c1.7,0,3,1.3,3,3v7c0,0.5-0.1,1.1-0.4,1.5c0.9,1.2,1.5,2.8,1.5,4.9C623.2,113.1,619.1,116.7,612.9,116.7z"/>
			<path class="st3" d="M608.8,94.1c3.4,0,5.4,1.6,6,4.1l-0.1-3.7h4.5v7h-5.5c-0.1-3.3-1.9-4.2-3.8-4.2c-1.1,0-1.8,0.6-1.8,1.4
				c0,1.7,2.1,2.2,4.6,2.7c3.3,0.7,7.6,2.1,7.6,6.4c0,4.3-3.8,5.9-7.2,5.9c-2,0-4.8-0.7-5.6-3.6l0.2,3.3h-4.5v-7.1h5.4
				c0,3.1,1.4,4.4,4.2,4.4c1.3,0,2-0.6,2-1.5c0-1.8-1.8-2.1-5-2.9c-3.2-0.7-7-2-7-6.4C602.5,96.6,605.5,94.1,608.8,94.1 M608.8,88.1
				c-6.7,0-12.2,5.3-12.2,11.9c0,1.4,0.2,3,0.8,4.5c-0.2,0.6-0.3,1.2-0.3,1.9v7.1c0,3.3,2.7,6,6,6h4.5c0.6,0,1.1-0.1,1.6-0.2
				c1.2,0.3,2.4,0.5,3.7,0.5c7.8,0,13.2-4.9,13.2-11.9c0-1.6-0.3-3.5-1.2-5.2c0.1-0.4,0.1-0.7,0.1-1.1v-7c0-3.3-2.7-6-6-6h-4.5
				c-0.6,0-1.1,0.1-1.7,0.2C611.6,88.3,610.3,88.1,608.8,88.1L608.8,88.1z"/>
		</g>
		<g>
			<path class="st3" d="M641.9,116.7c-7.7,0-15.5-5.6-15.5-16.2c0-10.4,8.1-16,15.6-16c1.9,0,3.7,0.4,5.3,1c0.6-0.6,1.3-0.9,2.2-0.9
				h5.2c1.7,0,3,1.3,3,3v9.1h0.6c1.7,0,3,1.3,3,3v4.3c0,1.7-1.3,3-3,3h-0.6v6.1c0,1.7-1.3,3-3,3h-3.5c-0.8,0-1.6-0.3-2.1-0.9
				c-0.1-0.1-0.1-0.1-0.1-0.2C646.9,116.1,644.5,116.7,641.9,116.7z M643.5,95.9c-1.1,0-3.8,0.4-3.8,4.5c0,1.1,0.2,2,0.4,2.7v-3.4
				c0-1.7,1.3-3,3-3h2.6C645,96,644,95.9,643.5,95.9z"/>
			<path class="st3" d="M642.1,87.5c3,0,6.4,1.3,7.6,4.1l-0.2-4h5.2V98h-5c-0.5-3.4-3.2-5.1-6.2-5.1c-3.3,0-6.8,2.2-6.8,7.5
				c0,5.6,3.5,8.2,6.7,8.2c2.5,0,4.9-1.5,5.5-4.6h-5.7v-4.3h15.1v4.3h-3.6v9.1h-3.5c0-1.6-0.1-3.1-0.3-4.1c-1.5,3.1-5.2,4.8-9,4.8
				c-6,0-12.5-4-12.5-13.2C629.4,91.6,636.2,87.5,642.1,87.5 M642.1,81.5c-9,0-18.6,6.7-18.6,19c0,12.6,9.3,19.2,18.5,19.2
				c2.4,0,4.7-0.4,6.7-1.2c0.8,0.4,1.7,0.6,2.6,0.6h3.5c3.3,0,6-2.7,6-6v-3.6c2.1-0.9,3.6-3,3.6-5.5v-4.3c0-2.5-1.5-4.6-3.6-5.5
				v-6.6c0-3.3-2.7-6-6-6h-5.2c-0.9,0-1.8,0.2-2.6,0.6C645.4,81.7,643.8,81.5,642.1,81.5L642.1,81.5z"/>
		</g>
		<g>
			<path class="st3" d="M658.9,116.1c-1.7,0-3-1.3-3-3v-5.1c0-1.7,1.3-3,3-3h0.4v-2h-0.4c-1.7,0-3-1.3-3-3v-5.1c0-1.7,1.3-3,3-3h9.3
				c1.7,0,3,1.3,3,3v10.1c1.6,0.1,2.8,1.4,2.8,3v5.1c0,1.7-1.3,3-3,3H658.9z"/>
			<path class="st3" d="M668.2,94.9v13.1h2.8v5.1h-12.1v-5.1h3.4v-8h-3.4v-5.1H668.2 M668.2,88.9h-9.3c-3.3,0-6,2.7-6,6v5.1
				c0,1.5,0.6,2.9,1.5,4c-1,1.1-1.5,2.5-1.5,4v5.1c0,3.3,2.7,6,6,6H671c3.3,0,6-2.7,6-6v-5.1c0-2.1-1.1-4-2.8-5.1v-8
				C674.2,91.6,671.5,88.9,668.2,88.9L668.2,88.9z"/>
		</g>
		<g>
			<path class="st3" d="M665.2,97.2c-3.5,0-6.4-2.8-6.4-6.3c0-3.4,2.9-6.2,6.4-6.2c3.5,0,6.4,2.8,6.4,6.2
				C671.6,94.4,668.7,97.2,665.2,97.2z"/>
			<path class="st3" d="M665.2,87.7c1.9,0,3.4,1.4,3.4,3.2c0,1.8-1.5,3.3-3.4,3.3c-1.9,0-3.4-1.5-3.4-3.3
				C661.8,89.2,663.3,87.7,665.2,87.7 M665.2,81.7c-5.2,0-9.4,4.1-9.4,9.2c0,5.1,4.2,9.3,9.4,9.3c5.2,0,9.4-4.2,9.4-9.3
				C674.6,85.9,670.4,81.7,665.2,81.7L665.2,81.7z"/>
		</g>
		<g>
			<path class="st3" d="M672.3,116.1c-1.7,0-3-1.3-3-3v-5.1c0-1.7,1.3-3,3-3h0.4v-2h-1c-1.7,0-3-1.3-3-3v-2.8c0-1.7,1.3-3,3-3h1.8
				c0.1-6.4,4.8-9.7,9.5-9.7c5.3,0,8.7,2.9,8.7,7.5c0,1.8-0.8,3.4-2,4.5v3.5c0,1.7-1.3,3-3,3h-2v2h0.9c1.7,0,3,1.3,3,3v5.1
				c0,1.7-1.3,3-3,3H672.3z"/>
			<path class="st3" d="M683,87.5c3.5,0,5.7,1.5,5.7,4.5c0,1.7-1.3,2.9-3.1,2.9c-1.8,0-3-0.7-3-2.3c0-0.9,0.4-1.7,1.1-2.1
				c-0.3,0-0.6-0.1-0.9-0.1c-1.5,0-2.6,1.4-2.6,2.9c0,1.4,0.9,3,3.4,3h3.1v3.7h-5v8h3.9v5.1h-13.2v-5.1h3.4v-8h-4v-2.8h2
				c1.9,0,2.8-1.2,2.8-2.8C676.5,89.6,679.8,87.5,683,87.5 M683,81.5c-5.4,0-10.9,3.4-12.2,9.8c-2.9,0.4-5.1,2.9-5.1,5.9v2.8
				c0,1.7,0.7,3.3,1.9,4.4c-0.8,1-1.2,2.3-1.2,3.6v5.1c0,3.3,2.7,6,6,6h13.2c3.3,0,6-2.7,6-6v-5.1c0-1.3-0.4-2.4-1-3.4
				c1.3-1.1,2.1-2.7,2.1-4.6v-2.3c1.3-1.5,2-3.5,2-5.7C694.7,86.7,691.1,81.5,683,81.5L683,81.5z"/>
		</g>
		<g>
			<path class="st3" d="M697.2,116.7c-4.6,0-9.6-3.1-9.6-8.7V103H687c-1.7,0-3-1.3-3-3v-3c0-0.8,0.3-1.6,0.9-2.1
				c0.6-0.6,1.3-0.9,2.1-0.9c0,0,0.2,0,0.2,0c1.1,0,1.9-0.3,2.4-0.8c0.7-0.7,1-1.9,1-3.6c0-0.8,0.3-1.6,0.9-2.1
				c0.6-0.6,1.3-0.9,2.1-0.9h2.9c1.7,0,3,1.3,3,3v2.3h4.3c1.7,0,3,1.3,3,3v5.1c0,1-0.5,1.9-1.3,2.5c0.8,0.5,1.3,1.5,1.3,2.5v3.3
				C706.8,113.8,701.9,116.7,697.2,116.7z"/>
			<path class="st3" d="M696.5,89.6v5.3h7.3v5.1h-7.2v7.3c0,1.1,0.8,1.6,1.9,1.6s1.9-0.6,1.9-1.7v-2.3h3.5v3.3
				c0,3.8-3.4,5.5-6.6,5.5c-3.2,0-6.6-1.9-6.6-5.7V100H687v-3c0.1,0,0.1,0,0.2,0c3.8,0,6.4-2.2,6.4-7.4H696.5 M696.5,83.6h-2.9
				c-1.6,0-3.1,0.6-4.3,1.8c-1.1,1.1-1.8,2.7-1.7,4.3c0,0.7-0.1,1.1-0.1,1.3c-0.1,0-0.1,0-0.2,0l-0.1,0c0,0-0.1,0-0.1,0
				c-1.6,0-3.1,0.6-4.2,1.7c-1.1,1.1-1.8,2.7-1.8,4.3v3c0,2.4,1.5,4.6,3.6,5.5v2.6c0,6.7,5.4,11.7,12.6,11.7c7.2,0,12.6-5,12.6-11.5
				v-3.3c0-0.9-0.2-1.7-0.5-2.5c0.3-0.8,0.5-1.6,0.5-2.5v-5.1c0-3.3-2.7-6-6-6h-1.3C702.1,85.9,699.6,83.6,696.5,83.6L696.5,83.6z"
				/>
		</g>
		<g>
			<path class="st3" d="M727,116.7c-10.3,0-17-6.4-17-16.3c0-10.5,7.7-16,15.2-16c1.6,0,3.3,0.3,4.8,1c0.6-0.6,1.3-0.9,2.1-0.9h5.1
				c1.7,0,3,1.3,3,3v11c0,1.7-1.3,3-3,3h-1.4l3.2,1.8c1.1,0.6,1.7,1.9,1.5,3.2C739.6,112.5,733.9,116.7,727,116.7z M726.7,96.2
				c-1,0-3.4,0.4-3.4,4.2c0,4.2,3.2,4.5,3.8,4.5c1.5,0,2.5-0.8,3.1-2.5c0.2-0.4,0.4-0.8,0.7-1.2c-1-0.5-1.7-1.4-1.7-2.6
				C729.2,96.6,727.8,96.2,726.7,96.2z"/>
			<path class="st3" d="M725.2,87.5c2.8,0,6.1,1.4,7.1,4.1l-0.2-4h5.1v11h-5c-0.2-3.6-2.8-5.4-5.5-5.4c-3.1,0-6.4,2.1-6.4,7.2
				c0,5.1,3.5,7.5,6.8,7.5c2.5,0,4.8-1.3,5.9-4.5l4.6,2.6c-0.8,4.2-4.9,7.8-10.7,7.8c-9,0-14-5.4-14-13.3
				C713,91.4,719.6,87.5,725.2,87.5 M725.2,81.5c-8.8,0-18.2,6.7-18.2,19c0,11.5,8,19.3,20,19.3c8.4,0,15.3-5.2,16.6-12.7
				c0.3-1.8-0.2-3.7-1.4-5c0.7-1,1.1-2.2,1.1-3.4v-11c0-3.3-2.7-6-6-6h-5.1c-0.9,0-1.7,0.2-2.5,0.5
				C728.2,81.7,726.7,81.5,725.2,81.5L725.2,81.5z M727.2,101.9c-0.3,0-0.8,0-0.8-1.5c0-0.2,0-0.4,0-0.6
				C726.6,100.5,726.8,101.2,727.2,101.9C727.2,101.8,727.2,101.8,727.2,101.9C727.2,101.9,727.2,101.9,727.2,101.9L727.2,101.9z"/>
		</g>
		<g>
			<path class="st3" d="M745.8,116.7c-5.4,0-9.5-3.8-9.5-8.7c0-1.5,0.4-3.1,1.5-4.6c-0.3-0.4-0.5-0.8-0.5-1.2
				c-0.2-1.1-0.2-1.6-0.2-2.1c0-5.4,4.5-8.9,11.5-8.9c6.9,0,11.5,3.7,11.5,9.2c0,1,0,1.9-0.1,2.7h0.8c1.7,0,3,1.3,3,3v1.8
				c0,6.4-3.9,8.6-7.5,8.6c-1.9,0-3.5-0.6-4.7-1.7C749.9,116,748,116.7,745.8,116.7z"/>
			<path class="st3" d="M748.5,94.1c4.4,0,8.5,1.9,8.5,6.2c0,3.4-0.3,5.2-0.3,7.7c0,0.6,0.2,0.8,0.5,0.8c0.2,0,0.7,0,0.7-1.1V106
				h2.8v1.8c0,3.4-1.4,5.6-4.5,5.6c-1.6,0-3.8-0.6-3.8-4.1c0-0.9,0-1.4,0.1-2h-0.4c-0.4,3.9-3,6.3-6.3,6.3c-3.5,0-6.5-2.1-6.5-5.7
				c0-3.3,2.9-5.8,9-5.8c0.7,0,1.5,0,2.4,0.1v-1.5c0-1.4-1-2-2.5-2c-1.3,0-2.1,0.7-2.1,2.8h-6c-0.2-0.9-0.2-1.3-0.2-1.5
				C740,95.9,744,94.1,748.5,94.1 M747.5,108.8c1.3,0,3-0.8,3.2-4.3c-0.6-0.1-1.1-0.1-1.6-0.1c-2.8,0-3.5,1.5-3.5,2.6
				C745.5,108.2,746.4,108.8,747.5,108.8 M748.5,88.1c-8.7,0-14.5,4.8-14.5,11.9c0,0.6,0,1.3,0.3,2.7c0,0.2,0.1,0.3,0.1,0.5
				c-0.7,1.5-1.1,3.1-1.1,4.8c0,6.7,5.4,11.7,12.5,11.7c2,0,3.9-0.5,5.6-1.4c1.4,0.7,3,1.1,4.8,1.1c5.2,0,10.5-3.6,10.5-11.6V106
				c0-2.5-1.5-4.6-3.7-5.5c0,0,0-0.1,0-0.1C763,93.1,757,88.1,748.5,88.1L748.5,88.1z"/>
		</g>
		<g>
			<path class="st3" d="M761.1,116.1c-1.7,0-3-1.3-3-3v-5.1c0-1.7,1.3-3,3-3h0.4v-2h-0.4c-1.7,0-3-1.3-3-3v-5.1c0-1.7,1.3-3,3-3h8.1
				c0.6,0,1.1,0.2,1.6,0.4c1.3-0.8,2.7-1.2,4.3-1.2c5.1,0,7.8,3.7,7.8,7.3c0,3.3-2.4,6.7-6.5,6.9c1,0.5,1.6,1.5,1.6,2.7v5.1
				c0,1.7-1.3,3-3,3H761.1z M773.8,104.9c-0.1,0-0.3-0.1-0.4-0.1v0.1H773.8z"/>
			<path class="st3" d="M775,94.1c3.3,0,4.8,2.2,4.8,4.3c0,1.9-1.4,3.9-3.9,3.9c-2,0-3.4-1.4-3.4-3.2c0-0.7,0.1-1.2,0.4-1.6
				c-1.5,0.8-2.5,2.5-2.5,5.5v5h4.5v5.1h-13.8v-5.1h3.4v-8h-3.4v-5.1h8.1c0,1.4-0.3,3.7-0.5,5.2h0.4C769.6,97,771.8,94.1,775,94.1
				 M775,88.1c-1.6,0-3.1,0.3-4.5,0.9c-0.4-0.1-0.9-0.2-1.4-0.2h-8.1c-3.3,0-6,2.7-6,6v5.1c0,1.5,0.6,2.9,1.5,4
				c-0.9,1.1-1.5,2.5-1.5,4v5.1c0,3.3,2.7,6,6,6h13.8c3.3,0,6-2.7,6-6v-5.1c0-0.3,0-0.6-0.1-0.9c3-1.7,5-4.9,5-8.6
				C785.8,93.4,782,88.1,775,88.1L775,88.1z"/>
		</g>
		<g>
			<path class="st3" d="M789.3,116.6c-6.5,0-11.8-5.7-11.8-12.7c0-6.9,4.5-12,10.8-12.4v-3.4c0-1.7,1.3-3,3-3h9.3c1.7,0,3,1.3,3,3
				v16.7h0.4c1.7,0,3,1.3,3,3v5.1c0,1.7-1.3,3-3,3h-7.9c-0.7,0-1.3-0.2-1.8-0.6C792.8,116.2,791.1,116.6,789.3,116.6z M790.6,101.6
				c-0.1,0-0.1,0-0.1,0c0,0.1-0.4,0.8-0.4,2.4c0,1.5,0.3,2,0.4,2.1c0,0,0.1,0,0.3,0c0.3,0,0.5,0,0.5-0.1c0.1-0.1,0.3-0.7,0.3-2.1
				C791.6,101.6,791.1,101.6,790.6,101.6z"/>
			<path class="st3" d="M800.5,88.2v19.7h3.4v5.1h-7.9c0-0.7,0.1-2.8,0.4-3.7c-0.9,2.4-3.7,4.2-7.1,4.2c-4.9,0-8.8-4.3-8.8-9.7
				c0-5.8,3.8-9.4,8.5-9.4c3.2,0,5.7,1.4,6.5,4c-0.1-1.3-0.2-4-0.3-5.2h-4v-5.1H800.5 M790.8,109.1c2.7,0,3.8-1.5,3.8-5.1
				c0-3.6-1.4-5.4-4-5.4c-2.3,0-3.5,2.1-3.5,5.4C787.1,107.2,788.4,109.1,790.8,109.1 M800.5,82.2h-9.3c-3.3,0-6,2.7-6,6V89
				c-6.3,1.7-10.8,7.5-10.8,14.9c0,8.6,6.6,15.7,14.8,15.7c1.7,0,3.4-0.3,5-0.8c0.6,0.2,1.2,0.3,1.8,0.3h7.9c3.3,0,6-2.7,6-6v-5.1
				c0-2.4-1.4-4.5-3.4-5.4V88.2C806.5,84.9,803.9,82.2,800.5,82.2L800.5,82.2z M793.2,102.9C793.2,102.9,793.2,102.9,793.2,102.9
				L793.2,102.9L793.2,102.9z M788.5,103C788.5,103,788.5,103,788.5,103L788.5,103L788.5,103z"/>
		</g>
		<g>
			<path class="st3" d="M158.1,160.7c-5.4,0-9.5-3.8-9.5-8.7c0-1.5,0.4-3.1,1.5-4.6c-0.3-0.4-0.5-0.8-0.5-1.2
				c-0.2-1.1-0.2-1.6-0.2-2.1c0-5.4,4.5-8.9,11.5-8.9c6.9,0,11.5,3.7,11.5,9.2c0,1,0,1.9-0.1,2.7h0.8c1.7,0,3,1.3,3,3v1.8
				c0,6.4-3.9,8.6-7.5,8.6c-1.9,0-3.5-0.6-4.7-1.7C162.3,160,160.3,160.7,158.1,160.7z"/>
			<path class="st3" d="M160.8,138.1c4.4,0,8.5,1.9,8.5,6.2c0,3.4-0.3,5.2-0.3,7.7c0,0.6,0.2,0.8,0.5,0.8c0.2,0,0.7,0,0.7-1.1V150
				h2.8v1.8c0,3.4-1.4,5.6-4.5,5.6c-1.6,0-3.8-0.6-3.8-4.1c0-0.9,0-1.4,0.1-2h-0.4c-0.4,3.9-3,6.3-6.3,6.3c-3.5,0-6.5-2.1-6.5-5.7
				c0-3.3,2.9-5.8,9-5.8c0.7,0,1.5,0,2.4,0.1v-1.5c0-1.4-1-2-2.5-2c-1.3,0-2.1,0.7-2.1,2.8h-6c-0.2-0.9-0.2-1.3-0.2-1.5
				C152.3,139.9,156.3,138.1,160.8,138.1 M159.8,152.8c1.3,0,3-0.8,3.2-4.3c-0.6-0.1-1.1-0.1-1.6-0.1c-2.8,0-3.5,1.5-3.5,2.6
				C157.8,152.2,158.7,152.8,159.8,152.8 M160.8,132.1c-8.7,0-14.5,4.8-14.5,11.9c0,0.6,0,1.3,0.3,2.7c0,0.2,0.1,0.3,0.1,0.5
				c-0.7,1.5-1.1,3.1-1.1,4.8c0,6.7,5.4,11.7,12.5,11.7c2,0,3.9-0.5,5.6-1.4c1.4,0.7,3,1.1,4.8,1.1c5.2,0,10.5-3.6,10.5-11.6V150
				c0-2.5-1.5-4.6-3.7-5.5c0,0,0-0.1,0-0.1C175.3,137.1,169.3,132.1,160.8,132.1L160.8,132.1z"/>
		</g>
		<g>
			<path class="st3" d="M186.2,160.1c-0.1,0-0.3,0-0.4,0c-0.1,0-0.3,0-0.4,0h-12c-1.7,0-3-1.3-3-3v-5.1c0-1.7,1.3-3,3-3h0.4v-2h-0.4
				c-1.7,0-3-1.3-3-3v-5.1c0-1.7,1.3-3,3-3h7.8c0.7,0,1.3,0.2,1.8,0.6c1.5-0.9,3.3-1.4,5.3-1.4c5.9,0,9.3,3.6,9.3,9.8v4.1
				c1.3,0.3,2.2,1.5,2.2,2.9v5.1c0,1.7-1.3,3-3,3H186.2z M185.8,149C185.9,149,185.9,149,185.8,149l0.1-1.6c0-0.1,0-0.3,0-0.4
				c-0.1,0-0.1,0-0.2,0c0,0.1,0,0.2,0,0.4v1.5C185.7,149,185.8,149,185.8,149z"/>
			<path class="st3" d="M188.4,138.1c4.6,0,6.3,2.6,6.3,6.8v7h2.2v5.1h-10.7v-5.1h2.7v-4.6c0-2.8-0.6-3.4-2.5-3.4
				c-2.3,0-3.7,1-3.7,3.5v4.5h2.7v5.1h-12v-5.1h3.4v-8h-3.4v-5.1h7.8c0,1.4-0.2,5.6-0.5,6.9h0.4
				C181.8,140.7,184.4,138.1,188.4,138.1 M188.4,132.1c-2,0-3.7,0.4-5.3,1.1c-0.6-0.2-1.2-0.3-1.8-0.3h-7.8c-3.3,0-6,2.7-6,6v5.1
				c0,1.5,0.6,2.9,1.5,4c-0.9,1.1-1.5,2.5-1.5,4v5.1c0,3.3,2.7,6,6,6h12c0.1,0,0.3,0,0.4,0c0.1,0,0.3,0,0.4,0H197c3.3,0,6-2.7,6-6
				v-5.1c0-1.9-0.9-3.5-2.2-4.6v-2.4C200.8,137,196.1,132.1,188.4,132.1L188.4,132.1z"/>
		</g>
		<g>
			<path class="st3" d="M206.9,160.6c-6.5,0-11.8-5.7-11.8-12.7c0-6.9,4.5-12,10.8-12.4v-3.4c0-1.7,1.3-3,3-3h9.3c1.7,0,3,1.3,3,3
				v16.7h0.4c1.7,0,3,1.3,3,3v5.1c0,1.7-1.3,3-3,3h-7.9c-0.7,0-1.3-0.2-1.8-0.6C210.4,160.2,208.7,160.6,206.9,160.6z M208.2,145.6
				c-0.1,0-0.1,0-0.1,0c0,0.1-0.4,0.8-0.4,2.4c0,1.5,0.3,2,0.4,2.1c0,0,0.1,0,0.3,0c0.3,0,0.5,0,0.5-0.1c0.1-0.1,0.3-0.7,0.3-2.1
				C209.2,145.6,208.6,145.6,208.2,145.6z"/>
			<path class="st3" d="M218.1,132.2v19.7h3.4v5.1h-7.9c0-0.7,0.1-2.8,0.4-3.7c-0.9,2.4-3.7,4.2-7.1,4.2c-4.9,0-8.8-4.3-8.8-9.7
				c0-5.8,3.8-9.4,8.5-9.4c3.2,0,5.7,1.4,6.5,4c-0.1-1.3-0.2-4-0.3-5.2h-4v-5.1H218.1 M208.4,153.1c2.7,0,3.8-1.5,3.8-5.1
				c0-3.6-1.4-5.4-4-5.4c-2.3,0-3.5,2.1-3.5,5.4C204.7,151.2,205.9,153.1,208.4,153.1 M218.1,126.2h-9.3c-3.3,0-6,2.7-6,6v0.8
				c-6.3,1.7-10.8,7.5-10.8,14.9c0,8.6,6.6,15.7,14.8,15.7c1.7,0,3.4-0.3,5-0.8c0.6,0.2,1.2,0.3,1.8,0.3h7.9c3.3,0,6-2.7,6-6v-5.1
				c0-2.4-1.4-4.5-3.4-5.4v-14.3C224.1,128.9,221.4,126.2,218.1,126.2L218.1,126.2z M210.7,146.9
				C210.7,146.9,210.7,146.9,210.7,146.9L210.7,146.9L210.7,146.9z M206.1,147C206.1,147,206.1,147,206.1,147L206.1,147L206.1,147z"
				/>
		</g>
		<g>
			<path class="st3" d="M237.2,160.1c-1.7,0-3-1.3-3-3v-5.1c0-1.7,1.3-3,3-3h1.5v-8.6h-1.5c-1.7,0-3-1.3-3-3v-5.1c0-1.7,1.3-3,3-3
				h25.2c1.7,0,3,1.3,3,3v10.4c0,0.8-0.3,1.5-0.8,2c0.5,0.5,0.8,1.2,0.8,2v10.5c0,1.7-1.3,3-3,3H237.2z"/>
			<path class="st3" d="M262.3,132.2v10.4h-4.1V141c0-2.3-0.7-3.6-3.8-3.6h-6v5h7.6v4.6h-7.6v5.1h6c3.1,0,3.8-1.4,3.8-3.6v-1.7h4.1
				v10.5h-25.2v-5.1h4.5v-14.6h-4.5v-5.1H262.3 M262.3,126.2h-25.2c-3.3,0-6,2.7-6,6v5.1c0,2.8,1.9,5.2,4.5,5.8v3
				c-2.6,0.7-4.5,3-4.5,5.8v5.1c0,3.3,2.7,6,6,6h25.2c3.3,0,6-2.7,6-6v-10.5c0-0.7-0.1-1.4-0.3-2c0.2-0.6,0.3-1.3,0.3-2v-10.4
				C268.3,128.9,265.6,126.2,262.3,126.2L262.3,126.2z"/>
		</g>
		<g>
			<path class="st3" d="M276.9,160.1c-0.1,0-0.3,0-0.4,0c-0.1,0-0.3,0-0.4,0h-12c-1.7,0-3-1.3-3-3v-5.1c0-1.7,1.3-3,3-3h0.4v-2h-0.4
				c-1.7,0-3-1.3-3-3v-5.1c0-1.7,1.3-3,3-3h7.8c0.7,0,1.3,0.2,1.8,0.6c1.5-0.9,3.3-1.4,5.3-1.4c5.9,0,9.3,3.6,9.3,9.8v4.1
				c1.3,0.3,2.2,1.5,2.2,2.9v5.1c0,1.7-1.3,3-3,3H276.9z M276.5,149C276.5,149,276.5,149,276.5,149l0.1-1.6c0-0.1,0-0.3,0-0.4
				c-0.1,0-0.1,0-0.2,0c0,0.1,0,0.2,0,0.4v1.5C276.4,149,276.4,149,276.5,149z"/>
			<path class="st3" d="M279.1,138.1c4.6,0,6.3,2.6,6.3,6.8v7h2.2v5.1h-10.7v-5.1h2.7v-4.6c0-2.8-0.6-3.4-2.5-3.4
				c-2.3,0-3.7,1-3.7,3.5v4.5h2.7v5.1h-12v-5.1h3.4v-8h-3.4v-5.1h7.8c0,1.4-0.2,5.6-0.5,6.9h0.4C272.4,140.7,275,138.1,279.1,138.1
				 M279.1,132.1c-2,0-3.7,0.4-5.3,1.1c-0.6-0.2-1.2-0.3-1.8-0.3h-7.8c-3.3,0-6,2.7-6,6v5.1c0,1.5,0.6,2.9,1.5,4
				c-0.9,1.1-1.5,2.5-1.5,4v5.1c0,3.3,2.7,6,6,6h12c0.1,0,0.3,0,0.4,0c0.1,0,0.3,0,0.4,0h10.7c3.3,0,6-2.7,6-6v-5.1
				c0-1.9-0.9-3.5-2.2-4.6v-2.4C291.4,137,286.7,132.1,279.1,132.1L279.1,132.1z"/>
		</g>
		<g>
			<path class="st3" d="M297.9,160.7c-4.6,0-9.6-3.1-9.6-8.7V147h-0.6c-1.7,0-3-1.3-3-3v-3c0-0.8,0.3-1.6,0.9-2.1
				c0.6-0.6,1.3-0.9,2.1-0.9c0,0,0.2,0,0.2,0c1.1,0,1.9-0.3,2.4-0.8c0.7-0.7,1-1.9,1-3.6c0-0.8,0.3-1.6,0.9-2.1
				c0.6-0.6,1.3-0.9,2.1-0.9h2.9c1.7,0,3,1.3,3,3v2.3h4.3c1.7,0,3,1.3,3,3v5.1c0,1-0.5,1.9-1.3,2.5c0.8,0.5,1.3,1.5,1.3,2.5v3.3
				C307.5,157.8,302.7,160.7,297.9,160.7z"/>
			<path class="st3" d="M297.2,133.6v5.3h7.3v5.1h-7.2v7.3c0,1.1,0.8,1.6,1.9,1.6s1.9-0.6,1.9-1.7v-2.3h3.5v3.3
				c0,3.8-3.4,5.5-6.6,5.5c-3.2,0-6.6-1.9-6.6-5.7V144h-3.6v-3c0.1,0,0.1,0,0.2,0c3.8,0,6.4-2.2,6.4-7.4H297.2 M297.2,127.6h-2.9
				c-1.6,0-3.1,0.6-4.3,1.8c-1.1,1.1-1.8,2.7-1.7,4.3c0,0.7-0.1,1.1-0.1,1.3c-0.1,0-0.1,0-0.2,0l-0.1,0c0,0-0.1,0-0.1,0
				c-1.6,0-3.1,0.6-4.2,1.7c-1.1,1.1-1.8,2.7-1.8,4.3v3c0,2.4,1.5,4.6,3.6,5.5v2.6c0,6.7,5.4,11.7,12.6,11.7c7.2,0,12.6-5,12.6-11.5
				v-3.3c0-0.9-0.2-1.7-0.5-2.5c0.3-0.8,0.5-1.6,0.5-2.5v-5.1c0-3.3-2.7-6-6-6h-1.3C302.8,129.9,300.3,127.6,297.2,127.6
				L297.2,127.6z"/>
		</g>
		<g>
			<path class="st3" d="M316.2,160.7c-7.7,0-13.1-5.3-13.1-12.8c0-8.3,6.8-12.7,13.3-12.7c5.8,0,11.8,3.7,11.8,10.7
				c0,0.9,0,2-0.3,3.4c-0.1,0.6-0.4,1.1-0.8,1.6c0.4,0.8,0.5,1.8,0.1,2.7C324.9,158.2,321.2,160.7,316.2,160.7z"/>
			<path class="st3" d="M316.4,138.1c4.4,0,8.8,2.6,8.8,7.7c0,0.9,0,1.7-0.2,2.9h-12.3c0.2,3.1,2.2,4.6,5.1,4.6c2,0,3.4-0.8,4.2-2.8
				l2.6,1.6c-1.7,3.6-4.3,5.5-8.2,5.5c-6.4,0-10.1-4.3-10.1-9.8C306.2,141.3,311.5,138.1,316.4,138.1 M312.8,145.5h7.2
				c0-2.2-1.3-3.3-3.3-3.3C314.6,142.3,313.2,143.7,312.8,145.5 M316.4,132.1c-7.9,0-16.3,5.5-16.3,15.7c0,9.2,6.8,15.8,16.1,15.8
				c4.3,0,10.2-1.6,13.7-8.9c0.5-1.1,0.7-2.4,0.5-3.5c0.2-0.5,0.4-1,0.5-1.5c0.3-1.7,0.3-2.9,0.3-3.9
				C331.2,138,324.9,132.1,316.4,132.1L316.4,132.1z"/>
		</g>
		<g>
			<path class="st3" d="M326.2,160.1c-1.7,0-3-1.3-3-3v-5.1c0-1.7,1.3-3,3-3h0.4v-2h-0.4c-1.7,0-3-1.3-3-3v-5.1c0-1.7,1.3-3,3-3h8.1
				c0.6,0,1.1,0.2,1.6,0.4c1.3-0.8,2.7-1.2,4.3-1.2c5.1,0,7.8,3.7,7.8,7.3c0,3.3-2.4,6.7-6.5,6.9c1,0.5,1.6,1.5,1.6,2.7v5.1
				c0,1.7-1.3,3-3,3H326.2z M338.9,148.9c-0.1,0-0.3-0.1-0.4-0.1v0.1H338.9z"/>
			<path class="st3" d="M340.1,138.1c3.3,0,4.8,2.2,4.8,4.3c0,1.9-1.4,3.9-3.9,3.9c-2,0-3.4-1.4-3.4-3.2c0-0.7,0.1-1.2,0.4-1.6
				c-1.5,0.8-2.5,2.5-2.5,5.5v5h4.5v5.1h-13.8v-5.1h3.4v-8h-3.4v-5.1h8.1c0,1.4-0.3,3.7-0.5,5.2h0.4
				C334.7,141,336.8,138.1,340.1,138.1 M340.1,132.1c-1.6,0-3.1,0.3-4.5,0.9c-0.4-0.1-0.9-0.2-1.4-0.2h-8.1c-3.3,0-6,2.7-6,6v5.1
				c0,1.5,0.6,2.9,1.5,4c-0.9,1.1-1.5,2.5-1.5,4v5.1c0,3.3,2.7,6,6,6H340c3.3,0,6-2.7,6-6v-5.1c0-0.3,0-0.6-0.1-0.9
				c3-1.7,5-4.9,5-8.6C350.9,137.4,347.1,132.1,340.1,132.1L340.1,132.1z"/>
		</g>
		<g>
			<path class="st3" d="M363.4,160.7c-7.5,0-13.5-5.8-13.5-12.9c0-7.1,5.9-12.7,13.5-12.7s13.5,5.6,13.5,12.7
				C377,154.8,370.8,160.7,363.4,160.7z M362.9,150.5c0.1,0,0.3,0,0.5,0c0.2,0,0.4,0,0.5,0c0.1-0.4,0.1-1,0.1-2.3
				c0-1.3-0.1-2-0.2-2.3c-0.1,0-0.3,0-0.5,0c-0.2,0-0.3,0-0.5,0c-0.1,0.3-0.2,0.9-0.2,2.3C362.7,149.5,362.8,150.1,362.9,150.5z"/>
			<path class="st3" d="M363.4,138.1c5.9,0,10.5,4.1,10.5,9.7c0,5.3-4.7,9.9-10.5,9.9c-5.9,0-10.5-4.6-10.5-9.9
				C352.9,142.2,357.8,138.1,363.4,138.1 M363.4,153.5c2.7,0,3.6-0.7,3.6-5.3c0-4.2-0.9-5.3-3.6-5.3c-2.5,0-3.7,0.9-3.7,5.3
				C359.7,152.6,360.7,153.5,363.4,153.5 M363.4,132.1c-9.3,0-16.5,6.9-16.5,15.7c0,8.8,7.4,15.9,16.5,15.9s16.5-7.1,16.5-15.9
				C380,139,372.7,132.1,363.4,132.1L363.4,132.1z M363.2,147.5C363.2,147.5,363.2,147.5,363.2,147.5L363.2,147.5L363.2,147.5z"/>
		</g>
		<g>
			<path class="st3" d="M384.1,160.6c-6,0-9.4-3.4-9.4-9.5v-4.2c-1.5-0.1-2.7-1.4-2.7-3v-5.1c0-1.7,1.3-3,3-3h8.7
				c0.3,0,0.7,0.1,1,0.2c0.3-0.1,0.6-0.2,1-0.2h10.1c1.7,0,3,1.3,3,3v10.1c1.6,0.1,2.9,1.4,2.9,3v5.1c0,1.7-1.3,3-3,3h-7.3
				c-0.8,0-1.5-0.3-2.1-0.9C387.6,160.2,385.8,160.6,384.1,160.6z M386.7,148.9c0,0.1,0,0.3,0,0.4c0,0,0.1,0,0.1,0
				c0-0.1,0-0.2,0-0.4V147h-0.1V148.9z"/>
			<path class="st3" d="M395.8,138.9v13.1h2.9v5.1h-7.3c0.1-1.5,0.3-5.6,0.6-6.5h-0.4c-0.9,5.1-4.5,7.1-7.4,7.1
				c-4.6,0-6.4-2.3-6.4-6.5V144H375v-5.1h8.7v10c0,2.8,0.5,3.4,2.5,3.4c2.3,0,3.6-1,3.6-3.5V144h-4.2v-5.1H395.8 M395.8,132.9h-10.1
				c-0.3,0-0.7,0-1,0.1c-0.3-0.1-0.6-0.1-1-0.1H375c-3.3,0-6,2.7-6,6v5.1c0,2.1,1.1,4,2.7,5v2.2c0,7.7,4.7,12.5,12.4,12.5
				c1.6,0,3.3-0.3,4.9-1c0.7,0.3,1.5,0.4,2.2,0.4h7.3c3.3,0,6-2.7,6-6v-5.1c0-2.2-1.1-4.1-2.9-5.1v-7.9
				C401.8,135.6,399.1,132.9,395.8,132.9L395.8,132.9z"/>
		</g>
		<g>
			<path class="st3" d="M399.3,160.1c-1.7,0-3-1.3-3-3v-5.1c0-1.7,1.3-3,3-3h0.4v-2h-0.4c-1.7,0-3-1.3-3-3v-5.1c0-1.7,1.3-3,3-3h8.1
				c0.6,0,1.1,0.2,1.6,0.4c1.3-0.8,2.7-1.2,4.3-1.2c5.1,0,7.8,3.7,7.8,7.3c0,3.3-2.4,6.7-6.5,6.9c1,0.5,1.6,1.5,1.6,2.7v5.1
				c0,1.7-1.3,3-3,3H399.3z M412,148.9c-0.1,0-0.3-0.1-0.4-0.1v0.1H412z"/>
			<path class="st3" d="M413.2,138.1c3.3,0,4.8,2.2,4.8,4.3c0,1.9-1.4,3.9-3.9,3.9c-2,0-3.4-1.4-3.4-3.2c0-0.7,0.1-1.2,0.4-1.6
				c-1.5,0.8-2.5,2.5-2.5,5.5v5h4.5v5.1h-13.8v-5.1h3.4v-8h-3.4v-5.1h8.1c0,1.4-0.3,3.7-0.5,5.2h0.4
				C407.8,141,410,138.1,413.2,138.1 M413.2,132.1c-1.6,0-3.1,0.3-4.5,0.9c-0.4-0.1-0.9-0.2-1.4-0.2h-8.1c-3.3,0-6,2.7-6,6v5.1
				c0,1.5,0.6,2.9,1.5,4c-0.9,1.1-1.5,2.5-1.5,4v5.1c0,3.3,2.7,6,6,6h13.8c3.3,0,6-2.7,6-6v-5.1c0-0.3,0-0.6-0.1-0.9
				c3-1.7,5-4.9,5-8.6C424,137.4,420.2,132.1,413.2,132.1L413.2,132.1z"/>
		</g>
		<g>
			<path class="st3" d="M440,160.7c-1.9,0-3.7-0.3-5.2-1c-0.6,0.5-1.3,0.8-2,0.8h-5c-1.7,0-3-1.3-3-3v-9.8c0-1.2,0.7-2.3,1.8-2.7
				c-1-1.5-1.6-3.4-1.6-5.9c0-6.1,5-10.6,11.8-10.6c1.7,0,3.2,0.3,4.6,0.9c0.6-0.5,1.3-0.8,2-0.8h5c1.7,0,3,1.3,3,3v10
				c0,0.7-0.2,1.3-0.6,1.8c1.2,1.5,2,3.6,2,6.3C452.6,156.8,446.1,160.7,440,160.7z"/>
			<path class="st3" d="M436.6,131.5c3.4,0,5.9,1.6,6.9,4.1l-0.3-4h5v10h-5.9c-0.1-3.9-2.1-5.9-4.9-5.9c-1.7,0-2.7,1.1-2.7,2.5
				c0,1.6,0.8,2.5,5.9,3.5c5.6,1,9,3.1,9,8.1c0,5.1-5,7.9-9.6,7.9c-3.2,0-6.2-1.1-7.6-4.2l0.3,4h-5v-9.8h6.1
				c0.1,4.2,2.9,5.9,5.3,5.9c2,0,3.6-1.1,3.6-3c0-2.2-2.2-2.6-5.1-3.1c-5.6-1.1-9.9-2.8-9.9-8.4
				C427.8,134.5,431.6,131.5,436.6,131.5 M436.6,125.5c-8.6,0-14.8,5.7-14.8,13.6c0,2,0.3,3.8,0.9,5.2c-0.7,1-1,2.1-1,3.4v9.8
				c0,3.3,2.7,6,6,6h5c0.8,0,1.6-0.2,2.4-0.5c1.5,0.4,3.1,0.7,4.9,0.7c7.7,0,15.6-5.2,15.6-13.9c0-2.1-0.4-4.4-1.6-6.6
				c0.1-0.5,0.2-1,0.2-1.6v-10c0-3.3-2.7-6-6-6h-5c-0.8,0-1.6,0.2-2.4,0.5C439.6,125.7,438.1,125.5,436.6,125.5L436.6,125.5z"/>
		</g>
		<g>
			<path class="st3" d="M474.8,160.1c-1.3,0-2.5-0.9-2.9-2.2c-0.2-0.6-0.4-1.3-0.6-1.9c-0.2,0.7-0.4,1.3-0.6,1.9
				c-0.4,1.3-1.5,2.2-2.9,2.2h-5.7c-1.2,0-2.3-0.7-2.8-1.9l-7.3-17.9h-1c-1.7,0-3-1.3-3-3v-5.1c0-1.7,1.3-3,3-3h13.5
				c0.2,0,0.4,0,0.6,0.1c0.2,0,0.4-0.1,0.6-0.1h11.8c0.2,0,0.4,0,0.6,0.1c0.2,0,0.4-0.1,0.6-0.1h12.8c1.7,0,3,1.3,3,3v5.1
				c0,1.7-1.3,3-3,3h-1.1l-7.3,17.9c-0.5,1.1-1.6,1.9-2.8,1.9H474.8z"/>
			<path class="st3" d="M491.6,132.2v5.1h-3.1l-8.1,19.7h-5.7c-1-3.7-2.6-8.6-3.4-12.6c-0.8,4-2.4,8.9-3.5,12.6h-5.7l-8.1-19.7h-3
				v-5.1h13.5v5.1h-3.3l2.3,6.8c0.6,1.8,1.4,4.5,1.7,6.3c0.1-1.4,0.7-3.7,1.4-6.4l1.8-6.7h-2.7v-5.1h11.8v5.1h-2.7l1.8,6.8
				c0.7,2.6,1.2,4.9,1.4,6.3c0.3-1.8,1.1-4.5,1.7-6.3l2.3-6.8h-3.3v-5.1H491.6 M491.6,126.2h-12.8c-0.2,0-0.4,0-0.6,0
				c-0.2,0-0.4,0-0.6,0h-11.8c-0.2,0-0.4,0-0.6,0c-0.2,0-0.4,0-0.6,0h-13.5c-3.3,0-6,2.7-6,6v5.1c0,3,2.2,5.4,5,5.9l6.6,16.1
				c0.9,2.3,3.1,3.7,5.6,3.7h5.7c1.3,0,2.5-0.4,3.4-1.1c1,0.7,2.2,1.1,3.4,1.1h5.7c2.4,0,4.6-1.5,5.6-3.7l6.6-16.1
				c2.8-0.5,5-2.9,5-5.9v-5.1C497.6,128.9,494.9,126.2,491.6,126.2L491.6,126.2z"/>
		</g>
		<g>
			<path class="st3" d="M492.2,160.1c-1.7,0-3-1.3-3-3v-5.1c0-1.7,1.3-3,3-3h1.5v-8.6h-1.5c-1.7,0-3-1.3-3-3v-5.1c0-1.7,1.3-3,3-3
				h25.2c1.7,0,3,1.3,3,3v10.4c0,0.8-0.3,1.5-0.8,2c0.5,0.5,0.8,1.2,0.8,2v10.5c0,1.7-1.3,3-3,3H492.2z"/>
			<path class="st3" d="M517.4,132.2v10.4h-4.1V141c0-2.3-0.7-3.6-3.8-3.6h-6v5h7.6v4.6h-7.6v5.1h6c3.1,0,3.8-1.4,3.8-3.6v-1.7h4.1
				v10.5h-25.2v-5.1h4.5v-14.6h-4.5v-5.1H517.4 M517.4,126.2h-25.2c-3.3,0-6,2.7-6,6v5.1c0,2.8,1.9,5.2,4.5,5.8v3
				c-2.6,0.7-4.5,3-4.5,5.8v5.1c0,3.3,2.7,6,6,6h25.2c3.3,0,6-2.7,6-6v-10.5c0-0.7-0.1-1.4-0.3-2c0.2-0.6,0.3-1.3,0.3-2v-10.4
				C523.4,128.9,520.7,126.2,517.4,126.2L517.4,126.2z"/>
		</g>
		<g>
			<path class="st3" d="M519.4,160.1c-1.7,0-3-1.3-3-3v-5.1c0-1.7,1.3-3,3-3h1.5v-8.6h-1.5c-1.7,0-3-1.3-3-3v-5.1c0-1.7,1.3-3,3-3
				h25.2c1.7,0,3,1.3,3,3v10.4c0,0.8-0.3,1.5-0.8,2c0.5,0.5,0.8,1.2,0.8,2v10.5c0,1.7-1.3,3-3,3H519.4z"/>
			<path class="st3" d="M544.5,132.2v10.4h-4.1V141c0-2.3-0.7-3.6-3.8-3.6h-6v5h7.6v4.6h-7.6v5.1h6c3.1,0,3.8-1.4,3.8-3.6v-1.7h4.1
				v10.5h-25.2v-5.1h4.5v-14.6h-4.5v-5.1H544.5 M544.5,126.2h-25.2c-3.3,0-6,2.7-6,6v5.1c0,2.8,1.9,5.2,4.5,5.8v3
				c-2.6,0.7-4.5,3-4.5,5.8v5.1c0,3.3,2.7,6,6,6h25.2c3.3,0,6-2.7,6-6v-10.5c0-0.7-0.1-1.4-0.3-2c0.2-0.6,0.3-1.3,0.3-2v-10.4
				C550.5,128.9,547.8,126.2,544.5,126.2L544.5,126.2z"/>
		</g>
		<g>
			<path class="st3" d="M551.8,160.1c-1.7,0-3-1.3-3-3v-5.1c0-1.7,1.3-3,3-3h1.5v-3.3c-0.5,1-1.5,1.7-2.7,1.7h-4.7c-1.7,0-3-1.3-3-3
				v-12.2c0-1.7,1.3-3,3-3h27.7c1.7,0,3,1.3,3,3v12.2c0,1.7-1.3,3-3,3h-4.7c-1.2,0-2.3-0.7-2.7-1.8v3.3h1.6c1.7,0,3,1.3,3,3v5.1
				c0,1.7-1.3,3-3,3H551.8z"/>
			<path class="st3" d="M573.6,132.2v12.2h-4.7V141c0-2.3-0.7-3.6-3.8-3.6h-2v14.6h4.6v5.1h-15.9v-5.1h4.5v-14.6h-1.9
				c-3.1,0-3.8,1.4-3.8,3.6v3.4h-4.7v-12.2H573.6 M573.6,126.2h-27.7c-3.3,0-6,2.7-6,6v12.2c0,3.3,2.7,6,6,6h0.1
				c-0.1,0.5-0.2,1-0.2,1.6v5.1c0,3.3,2.7,6,6,6h15.9c3.3,0,6-2.7,6-6v-5.1c0-0.5-0.1-1.1-0.2-1.6h0.1c3.3,0,6-2.7,6-6v-12.2
				C579.6,128.9,576.9,126.2,573.6,126.2L573.6,126.2z"/>
		</g>
		<g>
			<path class="st3" d="M584.1,160.7c-1.4,0-2.7-0.2-3.8-0.7c-0.5,0.3-1,0.4-1.5,0.4h-4.5c-1.7,0-3-1.3-3-3v-7.1
				c0-0.7,0.2-1.3,0.6-1.9c-0.7-1.2-1.2-2.7-1.2-4.5c0-5,4.1-8.9,9.2-8.9c1.6,0,3,0.3,4.2,0.8c0.5-0.3,1-0.5,1.6-0.5h4.5
				c1.7,0,3,1.3,3,3v7c0,0.5-0.1,1.1-0.4,1.5c0.9,1.2,1.5,2.8,1.5,4.9C594.3,157.1,590.2,160.7,584.1,160.7z"/>
			<path class="st3" d="M579.9,138.1c3.4,0,5.4,1.6,6,4.1l-0.1-3.7h4.5v7h-5.5c-0.1-3.3-1.9-4.2-3.8-4.2c-1.1,0-1.8,0.6-1.8,1.4
				c0,1.7,2.1,2.2,4.6,2.7c3.3,0.7,7.6,2.1,7.6,6.4c0,4.3-3.8,5.9-7.2,5.9c-2,0-4.8-0.7-5.6-3.6l0.2,3.3h-4.5v-7.1h5.4
				c0,3.1,1.4,4.4,4.2,4.4c1.3,0,2-0.6,2-1.5c0-1.8-1.8-2.1-5-2.9c-3.2-0.7-7-2-7-6.4C573.7,140.6,576.6,138.1,579.9,138.1
				 M579.9,132.1c-6.7,0-12.2,5.3-12.2,11.9c0,1.4,0.2,3,0.8,4.5c-0.2,0.6-0.3,1.2-0.3,1.9v7.1c0,3.3,2.7,6,6,6h4.5
				c0.6,0,1.1-0.1,1.6-0.2c1.2,0.3,2.4,0.5,3.7,0.5c7.8,0,13.2-4.9,13.2-11.9c0-1.6-0.3-3.5-1.2-5.2c0.1-0.4,0.1-0.7,0.1-1.1v-7
				c0-3.3-2.7-6-6-6h-4.5c-0.6,0-1.1,0.1-1.7,0.2C582.8,132.3,581.4,132.1,579.9,132.1L579.9,132.1z"/>
		</g>
		<g>
			<path class="st3" d="M602.2,160.7c-4.6,0-9.6-3.1-9.6-8.7V147h-0.6c-1.7,0-3-1.3-3-3v-3c0-0.8,0.3-1.6,0.9-2.1
				c0.6-0.6,1.3-0.9,2.1-0.9c0,0,0.2,0,0.2,0c1.1,0,1.9-0.3,2.4-0.8c0.7-0.7,1-1.9,1-3.6c0-0.8,0.3-1.6,0.9-2.1
				c0.6-0.6,1.3-0.9,2.1-0.9h2.9c1.7,0,3,1.3,3,3v2.3h4.3c1.7,0,3,1.3,3,3v5.1c0,1-0.5,1.9-1.3,2.5c0.8,0.5,1.3,1.5,1.3,2.5v3.3
				C611.8,157.8,607,160.7,602.2,160.7z"/>
			<path class="st3" d="M601.5,133.6v5.3h7.3v5.1h-7.2v7.3c0,1.1,0.8,1.6,1.9,1.6s1.9-0.6,1.9-1.7v-2.3h3.5v3.3
				c0,3.8-3.4,5.5-6.6,5.5c-3.2,0-6.6-1.9-6.6-5.7V144h-3.6v-3c0.1,0,0.1,0,0.2,0c3.8,0,6.4-2.2,6.4-7.4H601.5 M601.5,127.6h-2.9
				c-1.6,0-3.1,0.6-4.3,1.8c-1.1,1.1-1.8,2.7-1.7,4.3c0,0.7-0.1,1.1-0.1,1.3c-0.1,0-0.1,0-0.2,0l-0.1,0c0,0-0.1,0-0.1,0
				c-1.6,0-3.1,0.6-4.2,1.7c-1.1,1.1-1.8,2.7-1.8,4.3v3c0,2.4,1.5,4.6,3.6,5.5v2.6c0,6.7,5.4,11.7,12.6,11.7c7.2,0,12.6-5,12.6-11.5
				v-3.3c0-0.9-0.2-1.7-0.5-2.5c0.3-0.8,0.5-1.6,0.5-2.5v-5.1c0-3.3-2.7-6-6-6h-1.3C607.2,129.9,604.6,127.6,601.5,127.6
				L601.5,127.6z"/>
		</g>
		<g>
			<path class="st3" d="M617.1,160.7c-5.4,0-9.5-3.8-9.5-8.7c0-1.5,0.4-3.1,1.5-4.6c-0.3-0.4-0.5-0.8-0.5-1.2
				c-0.2-1.1-0.2-1.6-0.2-2.1c0-5.4,4.5-8.9,11.5-8.9c6.9,0,11.5,3.7,11.5,9.2c0,1,0,1.9-0.1,2.7h0.8c1.7,0,3,1.3,3,3v1.8
				c0,6.4-3.9,8.6-7.5,8.6c-1.9,0-3.5-0.6-4.7-1.7C621.2,160,619.2,160.7,617.1,160.7z"/>
			<path class="st3" d="M619.7,138.1c4.4,0,8.5,1.9,8.5,6.2c0,3.4-0.3,5.2-0.3,7.7c0,0.6,0.2,0.8,0.5,0.8c0.2,0,0.7,0,0.7-1.1V150
				h2.8v1.8c0,3.4-1.4,5.6-4.5,5.6c-1.6,0-3.8-0.6-3.8-4.1c0-0.9,0-1.4,0.1-2h-0.4c-0.4,3.9-3,6.3-6.3,6.3c-3.5,0-6.5-2.1-6.5-5.7
				c0-3.3,2.9-5.8,9-5.8c0.7,0,1.5,0,2.4,0.1v-1.5c0-1.4-1-2-2.5-2c-1.3,0-2.1,0.7-2.1,2.8h-6c-0.2-0.9-0.2-1.3-0.2-1.5
				C611.2,139.9,615.2,138.1,619.7,138.1 M618.7,152.8c1.3,0,3-0.8,3.2-4.3c-0.6-0.1-1.1-0.1-1.6-0.1c-2.8,0-3.5,1.5-3.5,2.6
				C616.7,152.2,617.6,152.8,618.7,152.8 M619.7,132.1c-8.7,0-14.5,4.8-14.5,11.9c0,0.6,0,1.3,0.3,2.7c0,0.2,0.1,0.3,0.1,0.5
				c-0.7,1.5-1.1,3.1-1.1,4.8c0,6.7,5.4,11.7,12.5,11.7c2,0,3.9-0.5,5.6-1.4c1.4,0.7,3,1.1,4.8,1.1c5.2,0,10.5-3.6,10.5-11.6V150
				c0-2.5-1.5-4.6-3.7-5.5c0,0,0-0.1,0-0.1C634.2,137.1,628.2,132.1,619.7,132.1L619.7,132.1z"/>
		</g>
		<g>
			<path class="st3" d="M644.3,160.1c-0.5,0-0.9-0.1-1.3-0.3c-0.4,0.2-0.8,0.3-1.3,0.3h-9.3c-1.7,0-3-1.3-3-3v-5.1c0-1.7,1.3-3,3-3
				h0.4v-8.6h-0.4c-1.7,0-3-1.3-3-3v-5.1c0-1.7,1.3-3,3-3h9.3c1.7,0,3,1.3,3,3v3.7H655c1.7,0,3,1.3,3,3v5.1c0,1.7-1.3,3-3,3h-1.6
				l1.7,1.9h0.8c1.7,0,3,1.3,3,3v5.1c0,1.7-1.3,3-3,3H644.3z"/>
			<path class="st3" d="M641.7,132.2v15.3l4.1-3.4h-2.2v-5.1H655v5.1h-3.1l-3,2.4l4.9,5.5h2.1v5.1h-11.7v-5.1h1.9l-1.9-2.1l-2.7,2.1
				v5.1h-9.3v-5.1h3.4v-14.6h-3.4v-5.1H641.7 M641.7,126.2h-9.3c-3.3,0-6,2.7-6,6v5.1c0,2.4,1.4,4.4,3.4,5.4v3.8c-2,1-3.4,3-3.4,5.4
				v5.1c0,3.3,2.7,6,6,6h9.3c0.5,0,0.9,0,1.3-0.1c0.4,0.1,0.9,0.1,1.3,0.1h11.7c3.3,0,6-2.7,6-6v-5.1c0-1.8-0.8-3.4-2-4.5
				c0.7-1,1.1-2.2,1.1-3.4v-5.1c0-3.3-2.7-6-6-6h-7.4v-0.7C647.7,128.9,645,126.2,641.7,126.2L641.7,126.2z"/>
		</g>
		<g>
			<path class="st3" d="M667.1,160.7c-7.7,0-13.1-5.3-13.1-12.8c0-8.3,6.8-12.7,13.3-12.7c5.8,0,11.8,3.7,11.8,10.7
				c0,0.9,0,2-0.3,3.4c-0.1,0.6-0.4,1.1-0.8,1.6c0.4,0.8,0.5,1.8,0.1,2.7C675.8,158.2,672.1,160.7,667.1,160.7z"/>
			<path class="st3" d="M667.3,138.1c4.4,0,8.8,2.6,8.8,7.7c0,0.9,0,1.7-0.2,2.9h-12.3c0.2,3.1,2.2,4.6,5.1,4.6c2,0,3.4-0.8,4.2-2.8
				l2.6,1.6c-1.7,3.6-4.3,5.5-8.2,5.5c-6.4,0-10.1-4.3-10.1-9.8C657,141.3,662.3,138.1,667.3,138.1 M663.6,145.5h7.2
				c0-2.2-1.3-3.3-3.3-3.3C665.4,142.3,664,143.7,663.6,145.5 M667.3,132.1c-7.9,0-16.3,5.5-16.3,15.7c0,9.2,6.8,15.8,16.1,15.8
				c4.3,0,10.2-1.6,13.7-8.9c0.5-1.1,0.7-2.4,0.5-3.5c0.2-0.5,0.4-1,0.5-1.5c0.3-1.7,0.3-2.9,0.3-3.9
				C682,138,675.7,132.1,667.3,132.1L667.3,132.1z"/>
		</g>
		<g>
			<path class="st3" d="M688.2,160.7c-1.4,0-2.7-0.2-3.8-0.7c-0.5,0.3-1,0.4-1.5,0.4h-4.5c-1.7,0-3-1.3-3-3v-7.1
				c0-0.7,0.2-1.3,0.6-1.9c-0.7-1.2-1.2-2.7-1.2-4.5c0-5,4.1-8.9,9.2-8.9c1.6,0,3,0.3,4.2,0.8c0.5-0.3,1-0.5,1.6-0.5h4.5
				c1.7,0,3,1.3,3,3v7c0,0.5-0.1,1.1-0.4,1.5c0.9,1.2,1.5,2.8,1.5,4.9C698.5,157.1,694.4,160.7,688.2,160.7z"/>
			<path class="st3" d="M684.1,138.1c3.4,0,5.4,1.6,6,4.1l-0.1-3.7h4.5v7h-5.5c-0.1-3.3-1.9-4.2-3.8-4.2c-1.1,0-1.8,0.6-1.8,1.4
				c0,1.7,2.1,2.2,4.6,2.7c3.3,0.7,7.6,2.1,7.6,6.4c0,4.3-3.8,5.9-7.2,5.9c-2,0-4.8-0.7-5.6-3.6l0.2,3.3h-4.5v-7.1h5.4
				c0,3.1,1.4,4.4,4.2,4.4c1.3,0,2-0.6,2-1.5c0-1.8-1.8-2.1-5-2.9c-3.2-0.7-7-2-7-6.4C677.8,140.6,680.8,138.1,684.1,138.1
				 M684.1,132.1c-6.7,0-12.2,5.3-12.2,11.9c0,1.4,0.2,3,0.8,4.5c-0.2,0.6-0.3,1.2-0.3,1.9v7.1c0,3.3,2.7,6,6,6h4.5
				c0.6,0,1.1-0.1,1.6-0.2c1.2,0.3,2.4,0.5,3.7,0.5c7.8,0,13.2-4.9,13.2-11.9c0-1.6-0.3-3.5-1.2-5.2c0.1-0.4,0.1-0.7,0.1-1.1v-7
				c0-3.3-2.7-6-6-6h-4.5c-0.6,0-1.1,0.1-1.7,0.2C686.9,132.3,685.6,132.1,684.1,132.1L684.1,132.1z"/>
		</g>
		<g>
			<path class="st3" d="M703.4,160.6c-3.4,0-6.2-2.8-6.2-6.2s2.8-6.2,6.2-6.2s6.2,2.8,6.2,6.2S706.9,160.6,703.4,160.6z"/>
			<path class="st3" d="M703.4,151.1c1.8,0,3.2,1.4,3.2,3.2s-1.4,3.2-3.2,3.2s-3.2-1.4-3.2-3.2S701.6,151.1,703.4,151.1
				 M703.4,145.1c-5.1,0-9.2,4.1-9.2,9.2c0,5.1,4.1,9.2,9.2,9.2s9.2-4.1,9.2-9.2C712.7,149.3,708.5,145.1,703.4,145.1L703.4,145.1z"
				/>
		</g>
		<g>
			<path class="st3" d="M701.9,152.5c-1.7,0-3-1.3-3-3c0-3.1-0.6-6.1-1.2-8.8c-0.4-2.2-0.8-4.1-0.8-5.7c0-3.7,2.8-6.5,6.4-6.5
				c3.7,0,6.5,2.8,6.5,6.6c0,1.6-0.4,3.4-0.8,5.5c-0.5,2.7-1.1,5.7-1.1,8.9c0,1.7-1.3,3-3,3H701.9z"/>
			<path class="st3" d="M703.4,131.5c1.8,0,3.5,1.2,3.5,3.6c0,3.1-1.9,8.5-1.9,14.4h-3c0-5.9-2-11.3-2-14.5
				C699.9,132.6,701.6,131.5,703.4,131.5 M703.4,125.5c-5.3,0-9.4,4.2-9.4,9.5c0,1.9,0.4,4,0.9,6.3c0.5,2.5,1.1,5.4,1.1,8.2
				c0,3.3,2.7,6,6,6h3c3.3,0,6-2.7,6-6c0-2.9,0.6-5.8,1.1-8.3c0.5-2.3,0.8-4.2,0.8-6.1C712.9,129.6,708.8,125.5,703.4,125.5
				L703.4,125.5z"/>
		</g>
	</g>
	<g>
		<path class="st5" d="M82.7,108.1c0,1.2-0.7,1.4-1.2,1.4c-0.4,0-0.7-0.2-0.7-0.6c0-0.9,0.3-1.9,0.3-3.7c0-2.6-1.5-4.2-4.9-4.2v-0.3
			c4.6-0.1,6.8-2.7,6.8-5.9c0-3.5-3.2-6.7-9.3-6.7H57.5v5.1H62v14.6h-4.5v5.1h15.3v-5.1h-4v-4.7h2.6c2.3,0,3.2,1.2,3.2,2.6
			c0,1.4-0.2,2.4-0.2,3.7c0,2.9,2.2,4.1,5,4.1c3.5,0,6.5-1.6,6.5-5.6v-2.9h-3.2V108.1z M71.6,99.1h-2.8v-5.8h3.7
			c2.6,0,3.7,1.4,3.7,2.9C76.2,97.7,75.5,99.1,71.6,99.1z"/>
		<path class="st5" d="M97.2,94.1c-5,0-10.3,3.2-10.3,9.7c0,5.5,3.7,9.8,10.1,9.8c4,0,6.5-1.9,8.2-5.5l-2.6-1.6
			c-0.8,1.9-2.2,2.8-4.2,2.8c-2.9,0-4.9-1.5-5.1-4.6h12.3c0.2-1.2,0.2-2,0.2-2.9C105.9,96.7,101.6,94.1,97.2,94.1z M93.5,101.5
			c0.4-1.8,1.8-3.3,4-3.3c2,0,3.3,1,3.3,3.3H93.5z"/>
		<path class="st5" d="M127.4,88.2h-9.3v5.1h4c0,1.2,0.1,3.9,0.3,5.2c-0.8-2.6-3.3-4-6.5-4c-4.7,0-8.5,3.6-8.5,9.4
			c0,5.3,3.9,9.7,8.8,9.7c3.5,0,6.2-1.8,7.1-4.2c-0.2,0.9-0.4,3-0.4,3.7h7.9v-5.1h-3.4V88.2z M117.6,109.1c-2.4,0-3.7-1.9-3.7-5.1
			c0-3.3,1.2-5.4,3.5-5.4c2.7,0,4,1.8,4,5.4S120.3,109.1,117.6,109.1z"/>
		<path class="st5" d="M142.1,94.1c-5,0-10.3,3.2-10.3,9.7c0,5.5,3.7,9.8,10.1,9.8c4,0,6.5-1.9,8.2-5.5l-2.6-1.6
			c-0.8,1.9-2.2,2.8-4.2,2.8c-2.9,0-4.9-1.5-5.1-4.6h12.3c0.2-1.2,0.2-2,0.2-2.9C150.9,96.7,146.5,94.1,142.1,94.1z M138.5,101.5
			c0.4-1.8,1.8-3.3,4-3.3c2,0,3.3,1,3.3,3.3H138.5z"/>
		<path class="st5" d="M162.3,113.7c4,0,6.5-1.9,8.2-5.5l-2.6-1.6c-0.8,1.9-2.2,2.8-4.2,2.8c-2.9,0-4.9-1.5-5.1-4.6H171
			c0.2-1.2,0.2-2,0.2-2.9c0-5.1-4.3-7.7-8.8-7.7c-5,0-10.3,3.2-10.3,9.7C152.2,109.4,156,113.7,162.3,113.7z M162.8,98.3
			c2,0,3.3,1,3.3,3.3h-7.2C159.2,99.7,160.7,98.3,162.8,98.3z"/>
		<path class="st5" d="M183.9,107.9h-2.3v-4.8c0-2.3,1-3.5,3.2-3.5c1.8,0,2.2,0.8,2.2,3.4v4.8h-2.2v5.1h10.4v-5.1h-2.3v-4.8
			c0-2.3,1-3.5,3.2-3.5c1.8,0,2.2,0.8,2.2,3.4v4.8H196v5.1h10.6v-5.1h-2.5v-7.1c0-3.9-1.9-6.7-6.2-6.7c-3,0-5.5,1.6-6.5,4.9
			c-0.4-2.9-1.9-4.8-5.1-4.8c-3.8,0-5.9,2.8-6.4,7.1h-0.4c0.2-0.9,0.5-5,0.6-6.5h-7.8v5.1h3.4v8h-3.4v5.1h11.6V107.9z"/>
		<path class="st5" d="M226.2,100h2.4c-1.1,2.7-2.1,5.8-2.7,8.2c-0.6-2.4-1.5-5.4-2.6-8.2h2.2v-5.1h-11v5.1h2.1l6,12.6
			c0,4.3-1.9,6-4,6c-1.3,0-2.2-0.3-2.8-1c0.4,0.1,0.8,0.2,1.3,0.2c2,0,3.5-1.4,3.5-3.4c0-1.9-1.6-3.5-3.5-3.5
			c-2.6,0-3.9,1.9-3.9,4.4c0,3.7,2.9,5.2,6.1,5.2c2.9,0,6.1-1.5,7.7-5.2l6.9-15.3h2.1v-5.1h-9.7V100z"/>
		<path class="st5" d="M247.2,113.7c5.8,0,10.5-4.6,10.5-9.9c0-5.6-4.6-9.7-10.5-9.7c-5.7,0-10.5,4.1-10.5,9.7
			C236.6,109.1,241.2,113.7,247.2,113.7z M247.1,98.9c2.7,0,3.6,1.1,3.6,5.3c0,4.5-0.9,5.3-3.6,5.3s-3.7-0.9-3.7-5.3
			C243.5,99.8,244.7,98.9,247.1,98.9z"/>
		<path class="st5" d="M275.3,106.6h0.4c-0.2,0.9-0.5,5-0.6,6.5h7.3v-5.1h-2.9V94.9h-10.1v5.1h4.2v4.9c0,2.5-1.3,3.5-3.6,3.5
			c-2,0-2.5-0.6-2.5-3.4v-10h-8.7v5.1h2.7v7.2c0,4.2,1.8,6.5,6.4,6.5C270.8,113.6,274.3,111.7,275.3,106.6z"/>
		<path class="st5" d="M296.8,107.9h-4.5v-5c0-2.9,1-4.7,2.5-5.5c-0.2,0.5-0.4,0.9-0.4,1.6c0,1.8,1.4,3.2,3.4,3.2
			c2.5,0,3.9-2,3.9-3.9c0-2.1-1.4-4.3-4.8-4.3c-3.3,0-5.4,2.9-6,6h-0.4c0.2-1.5,0.5-3.7,0.5-5.2H283v5.1h3.4v8H283v5.1h13.8V107.9z"
			/>
		<path class="st5" d="M317.2,103.1c3.3,0.8,5,1,5,2.9c0,0.9-0.7,1.5-2,1.5c-2.8,0-4.2-1.4-4.2-4.4h-5.4v7.1h4.5l-0.2-3.3
			c0.3,1.3,1.1,2.2,2.1,2.8l-0.3,4.2h3.9v-3.4c3.4,0,7.2-1.6,7.2-5.9c0-4.3-4.3-5.7-7.6-6.4c-2.4-0.5-4.6-1-4.6-2.7
			c0-0.8,0.7-1.4,1.8-1.4c2,0,3.7,0.9,3.8,4.2h5.5v-7h-4.5l0.1,3.7c-0.3-1.3-1-2.3-2.1-3.1l0.4-4.3h-4.2v3.3c-3.4,0-6.3,2.5-6.3,5.9
			C310.2,101,314.1,102.3,317.2,103.1z"/>
		<path class="st5" d="M345.4,88.2h-4.3c0,3.1-1.9,6.1-9.2,6.1v4.4h7.7v9.2h-7.9v5.1h21v-5.1h-7.2V88.2z"/>
		<path class="st5" d="M364.8,113.7c6.3,0,10.9-5.4,10.9-13c0-7.6-4.4-13-10.9-13c-6.4,0-10.9,5.4-10.9,13
			C353.9,108.2,358.4,113.7,364.8,113.7z M364.8,92.3c3.4,0,4.3,2.6,4.3,8.4c0,6.5-1,8.4-4.3,8.4c-3.2,0-4.3-2.5-4.3-8.4
			C360.5,94.3,361.6,92.3,364.8,92.3z"/>
		<path class="st5" d="M408.3,105.8c0-5-3.4-7.1-9-8.1c-5-0.9-5.9-1.8-5.9-3.5c0-1.4,1-2.5,2.7-2.5c2.8,0,4.8,2,4.9,5.9h5.9v-10h-5
			l0.3,4c-1-2.5-3.6-4.1-6.9-4.1c-5.1,0-8.8,3-8.8,7.6c0,5.7,4.3,7.4,9.9,8.4c2.9,0.5,5.1,0.8,5.1,3.1c0,1.9-1.6,3-3.6,3
			c-2.4,0-5.2-1.6-5.3-5.9h-6.1v9.8h5l-0.3-4c1.4,3.1,4.4,4.2,7.6,4.2C403.3,113.7,408.3,110.9,408.3,105.8z"/>
		<path class="st5" d="M433.9,113.1l5.4-13.1h2.1v-5.1h-9.7v5.1h2.3c-0.8,2.3-1.5,5.2-1.9,7.2c-0.8-3.5-2.9-9.2-3.9-12.3h-3.9
			c-1.2,3.7-3.1,8.6-4.1,12.3c-0.4-2-1.1-4.9-1.9-7.2h2.3v-5.1h-11v5.1h2.1l6,13.1h4.7c1.1-3.3,2.6-7.9,3.4-11.3
			c0.7,3.3,2.3,8.1,3.4,11.3H433.9z"/>
		<path class="st5" d="M452.2,113.7c4,0,6.5-1.9,8.2-5.5l-2.6-1.6c-0.8,1.9-2.2,2.8-4.2,2.8c-2.9,0-4.9-1.5-5.1-4.6h12.3
			c0.2-1.2,0.2-2,0.2-2.9c0-5.1-4.3-7.7-8.8-7.7c-5,0-10.3,3.2-10.3,9.7C442.1,109.4,445.8,113.7,452.2,113.7z M452.7,98.3
			c2,0,3.3,1,3.3,3.3h-7.2C449.1,99.7,450.5,98.3,452.7,98.3z"/>
		<path class="st5" d="M472.6,113.7c4,0,6.5-1.9,8.2-5.5l-2.6-1.6c-0.8,1.9-2.2,2.8-4.2,2.8c-2.9,0-4.9-1.5-5.1-4.6h12.3
			c0.2-1.2,0.2-2,0.2-2.9c0-5.1-4.3-7.7-8.8-7.7c-5,0-10.3,3.2-10.3,9.7C462.5,109.4,466.2,113.7,472.6,113.7z M473.1,98.3
			c2,0,3.3,1,3.3,3.3h-7.2C469.5,99.7,470.9,98.3,473.1,98.3z"/>
		<path class="st5" d="M498.7,108.2v-3.3h-3.5v2.3c0,1.1-0.9,1.7-1.9,1.7s-1.9-0.6-1.9-1.6V100h7.2v-5.1h-7.3v-5.3h-2.9
			c0,5.3-2.7,7.5-6.5,7.4v3h3.6v8.1c0,3.8,3.4,5.7,6.6,5.7C495.3,113.7,498.7,112,498.7,108.2z"/>
		<path class="st5" d="M533,106.4c0-2.6-2.4-6-7.2-6V100c4.8,0,6.6-3,6.6-5.3c0-3.9-2.8-6.6-8.4-6.6h-16.4v5.1h4.1v14.6h-4.1v5.1
			h16.8C529.9,113.1,533,110.5,533,106.4z M518.5,93.3h4c2.1,0,3.1,1,3.1,2.4c0,1.3-0.9,2.4-3.1,2.4h-4V93.3z M518.5,107.9v-5.1h4.4
			c2.6,0,3.6,1.2,3.5,2.5c0,1.4-1,2.6-3.6,2.6H518.5z"/>
		<path class="st5" d="M537.1,107.2c0,4.2,1.8,6.5,6.4,6.5c2.9,0,6.5-2,7.4-7.1h0.4c-0.2,0.9-0.5,5-0.6,6.5h7.3v-5.1h-2.9V94.9H545
			v5.1h4.2v4.9c0,2.5-1.3,3.5-3.6,3.5c-2,0-2.5-0.6-2.5-3.4v-10h-8.7v5.1h2.7V107.2z"/>
		<path class="st5" d="M568.4,113.7c4,0,6.9-1.4,8.8-4.7l-3.3-3.4c-1.2,2.1-2.6,2.7-4.1,2.7c-2.5,0-5-2-5-5.6c0-2.8,1.6-5.4,4.9-5.5
			c-0.6,0.6-0.9,1.3-0.9,2.2c0,2.5,1.5,3.6,3.7,3.6c2,0,3.7-1.5,3.7-3.7c0-3.4-3.5-5.2-7-5.2c-4.7,0-10.1,3-10.1,9.8
			C559,109.2,562.9,113.7,568.4,113.7z"/>
		<polygon class="st5" points="586.8,107.9 589.5,105.8 591.3,107.9 589.4,107.9 589.4,113.1 601,113.1 601,107.9 598.9,107.9 
			594,102.4 597,100 600.1,100 600.1,94.9 588.7,94.9 588.7,100 590.9,100 586.8,103.5 586.8,88.2 577.5,88.2 577.5,93.3 
			580.8,93.3 580.8,107.9 577.5,107.9 577.5,113.1 586.8,113.1 		"/>
		<path class="st5" d="M609.6,106.4c3.3,0.8,5,1,5,2.9c0,0.9-0.7,1.5-2,1.5c-2.8,0-4.2-1.4-4.2-4.4h-5.4v7.1h4.5l-0.2-3.3
			c0.7,2.9,3.5,3.6,5.6,3.6c3.5,0,7.2-1.6,7.2-5.9c0-4.3-4.3-5.7-7.6-6.4c-2.4-0.5-4.6-1-4.6-2.7c0-0.8,0.7-1.4,1.8-1.4
			c2,0,3.7,0.9,3.8,4.2h5.5v-7h-4.5l0.1,3.7c-0.6-2.5-2.6-4.1-6-4.1c-3.3,0-6.2,2.5-6.2,5.9C602.5,104.4,606.4,105.7,609.6,106.4z"
			/>
		<path class="st5" d="M641.9,113.7c3.9,0,7.6-1.7,9-4.8c0.2,1,0.3,2.5,0.3,4.1h3.5v-9.1h3.6v-4.3h-15.1v4.3h5.7
			c-0.5,3.1-3,4.6-5.5,4.6c-3.2,0-6.7-2.5-6.7-8.2c0-5.3,3.5-7.5,6.8-7.5c2.9,0,5.7,1.8,6.2,5.1h5V87.6h-5.2l0.2,4
			c-1.2-2.8-4.6-4.1-7.6-4.1c-5.8,0-12.6,4.2-12.6,13C629.4,109.6,635.9,113.7,641.9,113.7z"/>
		<polygon class="st5" points="671,107.9 668.2,107.9 668.2,94.9 658.9,94.9 658.9,100 662.3,100 662.3,107.9 658.9,107.9 
			658.9,113.1 671,113.1 		"/>
		<path class="st5" d="M665.2,94.2c1.9,0,3.4-1.5,3.4-3.3s-1.5-3.2-3.4-3.2c-1.9,0-3.4,1.4-3.4,3.2S663.3,94.2,665.2,94.2z"/>
		<path class="st5" d="M675.7,107.9h-3.4v5.1h13.2v-5.1h-3.9v-8h5v-3.7h-3.1c-2.5,0-3.4-1.7-3.4-3c0-1.5,1-2.9,2.6-2.9
			c0.4,0,0.7,0,0.9,0.1c-0.7,0.5-1.1,1.3-1.1,2.1c0,1.5,1.2,2.3,3,2.3c1.9,0,3.1-1.2,3.1-2.9c0-3-2.2-4.5-5.7-4.5
			c-3.2,0-6.5,2.1-6.5,6.9c0,1.6-0.9,2.8-2.8,2.8h-2v2.8h4V107.9z"/>
		<path class="st5" d="M703.8,108.2v-3.3h-3.5v2.3c0,1.1-0.9,1.7-1.9,1.7s-1.9-0.6-1.9-1.6V100h7.2v-5.1h-7.3v-5.3h-2.9
			c0,5.3-2.7,7.5-6.5,7.4v3h3.6v8.1c0,3.8,3.4,5.7,6.6,5.7C700.4,113.7,703.8,112,703.8,108.2z"/>
		<path class="st5" d="M727.2,107.9c-3.3,0-6.8-2.3-6.8-7.5c0-5.1,3.3-7.2,6.4-7.2c2.8,0,5.4,1.7,5.5,5.4h5v-11h-5.1l0.2,4
			c-1-2.7-4.3-4.1-7.1-4.1c-5.6,0-12.2,4-12.2,13c0,7.8,5,13.3,14,13.3c5.8,0,10-3.6,10.7-7.8l-4.6-2.6
			C732,106.6,729.6,107.9,727.2,107.9z"/>
		<path class="st5" d="M757.9,107.7c0,1-0.5,1.1-0.7,1.1c-0.3,0-0.5-0.2-0.5-0.8c0-2.5,0.3-4.3,0.3-7.7c0-4.3-4.2-6.2-8.5-6.2
			c-4.5,0-8.5,1.8-8.5,5.9c0,0.3,0,0.6,0.2,1.5h6c0-2.1,0.8-2.8,2.1-2.8c1.5,0,2.5,0.6,2.5,2v1.5c-0.9-0.1-1.7-0.1-2.4-0.1
			c-6.1,0-9,2.5-9,5.8c0,3.6,3.1,5.7,6.5,5.7c3.3,0,6-2.5,6.3-6.3h0.4c-0.1,0.5-0.1,1.1-0.1,2c0,3.5,2.2,4.1,3.8,4.1
			c3.2,0,4.5-2.2,4.5-5.6V106h-2.8V107.7z M747.5,108.8c-1.1,0-2-0.6-2-1.8c0-1,0.7-2.6,3.5-2.6c0.5,0,1,0,1.6,0.1
			C750.5,108,748.8,108.8,747.5,108.8z"/>
		<path class="st5" d="M775,94.1c-3.3,0-5.4,2.9-6,6h-0.4c0.2-1.5,0.5-3.7,0.5-5.2h-8.1v5.1h3.4v8h-3.4v5.1h13.8v-5.1h-4.5v-5
			c0-2.9,1-4.7,2.5-5.5c-0.2,0.5-0.4,0.9-0.4,1.6c0,1.8,1.4,3.2,3.4,3.2c2.5,0,3.9-2,3.9-3.9C779.8,96.3,778.3,94.1,775,94.1z"/>
		<path class="st5" d="M800.5,107.9V88.2h-9.3v5.1h4c0,1.2,0.1,3.9,0.3,5.2c-0.8-2.6-3.3-4-6.5-4c-4.7,0-8.5,3.6-8.5,9.4
			c0,5.3,3.9,9.7,8.8,9.7c3.5,0,6.2-1.8,7.1-4.2c-0.2,0.9-0.4,3-0.4,3.7h7.9v-5.1H800.5z M790.8,109.1c-2.4,0-3.7-1.9-3.7-5.1
			c0-3.3,1.2-5.4,3.5-5.4c2.7,0,4,1.8,4,5.4S793.5,109.1,790.8,109.1z"/>
		<path class="st5" d="M170.2,151.7c0,1-0.5,1.1-0.7,1.1c-0.3,0-0.5-0.2-0.5-0.8c0-2.5,0.3-4.3,0.3-7.7c0-4.3-4.2-6.2-8.5-6.2
			c-4.5,0-8.5,1.8-8.5,5.9c0,0.3,0,0.6,0.2,1.5h6c0-2.1,0.8-2.8,2.1-2.8c1.5,0,2.5,0.6,2.5,2v1.5c-0.9-0.1-1.7-0.1-2.4-0.1
			c-6.1,0-9,2.5-9,5.8c0,3.6,3.1,5.7,6.5,5.7c3.3,0,6-2.5,6.3-6.3h0.4c-0.1,0.5-0.1,1.1-0.1,2c0,3.5,2.2,4.1,3.8,4.1
			c3.2,0,4.5-2.2,4.5-5.6V150h-2.8V151.7z M159.8,152.8c-1.1,0-2-0.6-2-1.8c0-1,0.7-2.6,3.5-2.6c0.5,0,1,0,1.6,0.1
			C162.8,152,161.1,152.8,159.8,152.8z"/>
		<path class="st5" d="M194.8,144.9c0-4.2-1.7-6.8-6.3-6.8c-4.1,0-6.7,2.6-7.3,7.6h-0.4c0.2-1.3,0.5-5.4,0.5-6.9h-7.8v5.1h3.4v8
			h-3.4v5.1h12v-5.1h-2.7v-4.5c0-2.5,1.3-3.5,3.7-3.5c2,0,2.5,0.6,2.5,3.4v4.6h-2.7v5.1H197v-5.1h-2.2V144.9z"/>
		<path class="st5" d="M218.1,132.2h-9.3v5.1h4c0,1.2,0.1,3.9,0.3,5.2c-0.8-2.6-3.3-4-6.5-4c-4.7,0-8.5,3.6-8.5,9.4
			c0,5.3,3.9,9.7,8.8,9.7c3.5,0,6.2-1.8,7.1-4.2c-0.2,0.9-0.4,3-0.4,3.7h7.9v-5.1h-3.4V132.2z M208.4,153.1c-2.4,0-3.7-1.9-3.7-5.1
			c0-3.3,1.2-5.4,3.5-5.4c2.7,0,4,1.8,4,5.4S211,153.1,208.4,153.1z"/>
		<path class="st5" d="M237.2,137.3h4.5v14.6h-4.5v5.1h25.2v-10.5h-4.1v1.7c0,2.3-0.7,3.6-3.8,3.6h-6v-5.1h7.6v-4.6h-7.6v-5h6
			c3.1,0,3.8,1.4,3.8,3.6v1.6h4.1v-10.4h-25.2V137.3z"/>
		<path class="st5" d="M285.4,144.9c0-4.2-1.7-6.8-6.3-6.8c-4.1,0-6.7,2.6-7.3,7.6h-0.4c0.2-1.3,0.5-5.4,0.5-6.9h-7.8v5.1h3.4v8
			h-3.4v5.1h12v-5.1h-2.7v-4.5c0-2.5,1.3-3.5,3.7-3.5c2,0,2.5,0.6,2.5,3.4v4.6h-2.7v5.1h10.7v-5.1h-2.2V144.9z"/>
		<path class="st5" d="M297.2,133.6h-2.9c0,5.3-2.7,7.5-6.5,7.4v3h3.6v8.1c0,3.8,3.4,5.7,6.6,5.7c3.2,0,6.6-1.8,6.6-5.5v-3.3H301
			v2.3c0,1.1-0.9,1.7-1.9,1.7s-1.9-0.6-1.9-1.6V144h7.2v-5.1h-7.3V133.6z"/>
		<path class="st5" d="M316.4,138.1c-5,0-10.3,3.2-10.3,9.7c0,5.5,3.7,9.8,10.1,9.8c4,0,6.5-1.9,8.2-5.5l-2.6-1.6
			c-0.8,1.9-2.2,2.8-4.2,2.8c-2.9,0-4.9-1.5-5.1-4.6h12.3c0.2-1.2,0.2-2,0.2-2.9C325.2,140.7,320.9,138.1,316.4,138.1z M312.8,145.5
			c0.4-1.8,1.8-3.3,4-3.3c2,0,3.3,1,3.3,3.3H312.8z"/>
		<path class="st5" d="M340.1,138.1c-3.3,0-5.4,2.9-6,6h-0.4c0.2-1.5,0.5-3.7,0.5-5.2h-8.1v5.1h3.4v8h-3.4v5.1H340v-5.1h-4.5v-5
			c0-2.9,1-4.7,2.5-5.5c-0.2,0.5-0.4,0.9-0.4,1.6c0,1.8,1.4,3.2,3.4,3.2c2.5,0,3.9-2,3.9-3.9C344.9,140.3,343.4,138.1,340.1,138.1z"
			/>
		<path class="st5" d="M363.4,138.1c-5.7,0-10.5,4.1-10.5,9.7c0,5.3,4.6,9.9,10.5,9.9c5.8,0,10.5-4.6,10.5-9.9
			C374,142.2,369.4,138.1,363.4,138.1z M363.4,153.5c-2.7,0-3.7-0.9-3.7-5.3c0-4.4,1.2-5.3,3.7-5.3c2.7,0,3.6,1.1,3.6,5.3
			C367.1,152.7,366.1,153.5,363.4,153.5z"/>
		<path class="st5" d="M395.8,138.9h-10.1v5.1h4.2v4.9c0,2.5-1.3,3.5-3.6,3.5c-2,0-2.5-0.6-2.5-3.4v-10H375v5.1h2.7v7.2
			c0,4.2,1.8,6.5,6.4,6.5c2.9,0,6.5-2,7.4-7.1h0.4c-0.2,0.9-0.5,5-0.6,6.5h7.3v-5.1h-2.9V138.9z"/>
		<path class="st5" d="M413.2,138.1c-3.3,0-5.4,2.9-6,6h-0.4c0.2-1.5,0.5-3.7,0.5-5.2h-8.1v5.1h3.4v8h-3.4v5.1h13.8v-5.1h-4.5v-5
			c0-2.9,1-4.7,2.5-5.5c-0.2,0.5-0.4,0.9-0.4,1.6c0,1.8,1.4,3.2,3.4,3.2c2.5,0,3.9-2,3.9-3.9C418,140.3,416.5,138.1,413.2,138.1z"/>
		<path class="st5" d="M440.6,141.7c-5-0.9-5.9-1.8-5.9-3.5c0-1.4,1-2.5,2.7-2.5c2.8,0,4.8,2,4.9,5.9h5.9v-10h-5l0.3,4
			c-1-2.5-3.6-4.1-6.9-4.1c-5.1,0-8.8,3-8.8,7.6c0,5.7,4.3,7.4,9.9,8.4c2.9,0.5,5.1,0.8,5.1,3.1c0,1.9-1.6,3-3.6,3
			c-2.4,0-5.2-1.6-5.3-5.9h-6.1v9.8h5l-0.3-4c1.4,3.1,4.4,4.2,7.6,4.2c4.6,0,9.6-2.8,9.6-7.9C449.6,144.8,446.2,142.7,440.6,141.7z"
			/>
		<path class="st5" d="M478.8,137.3h3.3l-2.3,6.8c-0.6,1.8-1.4,4.5-1.7,6.3c-0.1-1.4-0.7-3.7-1.4-6.3l-1.8-6.8h2.7v-5.1h-11.8v5.1
			h2.7l-1.8,6.7c-0.7,2.7-1.3,5-1.4,6.4c-0.3-1.8-1.1-4.5-1.7-6.3l-2.3-6.8h3.3v-5.1h-13.5v5.1h3l8.1,19.7h5.7
			c1.1-3.7,2.7-8.6,3.5-12.6c0.8,4,2.4,9,3.4,12.6h5.7l8.1-19.7h3.1v-5.1h-12.8V137.3z"/>
		<path class="st5" d="M492.2,137.3h4.5v14.6h-4.5v5.1h25.2v-10.5h-4.1v1.7c0,2.3-0.7,3.6-3.8,3.6h-6v-5.1h7.6v-4.6h-7.6v-5h6
			c3.1,0,3.8,1.4,3.8,3.6v1.6h4.1v-10.4h-25.2V137.3z"/>
		<path class="st5" d="M519.4,137.3h4.5v14.6h-4.5v5.1h25.2v-10.5h-4.1v1.7c0,2.3-0.7,3.6-3.8,3.6h-6v-5.1h7.6v-4.6h-7.6v-5h6
			c3.1,0,3.8,1.4,3.8,3.6v1.6h4.1v-10.4h-25.2V137.3z"/>
		<path class="st5" d="M545.9,144.4h4.7V141c0-2.3,0.7-3.6,3.8-3.6h1.9v14.6h-4.5v5.1h15.9v-5.1h-4.6v-14.6h2c3.1,0,3.8,1.4,3.8,3.6
			v3.4h4.7v-12.2h-27.7V144.4z"/>
		<path class="st5" d="M583.7,145.4c-2.4-0.5-4.6-1-4.6-2.7c0-0.8,0.7-1.4,1.8-1.4c2,0,3.7,0.9,3.8,4.2h5.5v-7h-4.5l0.1,3.7
			c-0.6-2.5-2.6-4.1-6-4.1c-3.3,0-6.2,2.5-6.2,5.9c0,4.4,3.9,5.7,7,6.4c3.3,0.8,5,1,5,2.9c0,0.9-0.7,1.5-2,1.5
			c-2.8,0-4.2-1.4-4.2-4.4h-5.4v7.1h4.5l-0.2-3.3c0.7,2.9,3.5,3.6,5.6,3.6c3.5,0,7.2-1.6,7.2-5.9
			C591.3,147.5,587.1,146.1,583.7,145.4z"/>
		<path class="st5" d="M601.5,133.6h-2.9c0,5.3-2.7,7.5-6.5,7.4v3h3.6v8.1c0,3.8,3.4,5.7,6.6,5.7c3.2,0,6.6-1.8,6.6-5.5v-3.3h-3.5
			v2.3c0,1.1-0.9,1.7-1.9,1.7s-1.9-0.6-1.9-1.6V144h7.2v-5.1h-7.3V133.6z"/>
		<path class="st5" d="M629.1,151.7c0,1-0.5,1.1-0.7,1.1c-0.3,0-0.5-0.2-0.5-0.8c0-2.5,0.3-4.3,0.3-7.7c0-4.3-4.2-6.2-8.5-6.2
			c-4.5,0-8.5,1.8-8.5,5.9c0,0.3,0,0.6,0.2,1.5h6c0-2.1,0.8-2.8,2.1-2.8c1.5,0,2.5,0.6,2.5,2v1.5c-0.9-0.1-1.7-0.1-2.4-0.1
			c-6.1,0-9,2.5-9,5.8c0,3.6,3.1,5.7,6.5,5.7c3.3,0,6-2.5,6.3-6.3h0.4c-0.1,0.5-0.1,1.1-0.1,2c0,3.5,2.2,4.1,3.8,4.1
			c3.2,0,4.5-2.2,4.5-5.6V150h-2.8V151.7z M618.7,152.8c-1.1,0-2-0.6-2-1.8c0-1,0.7-2.6,3.5-2.6c0.5,0,1,0,1.6,0.1
			C621.7,152,620.1,152.8,618.7,152.8z"/>
		<polygon class="st5" points="648.9,146.4 651.9,144 655,144 655,138.9 643.6,138.9 643.6,144 645.8,144 641.7,147.5 641.7,132.2 
			632.3,132.2 632.3,137.3 635.7,137.3 635.7,151.9 632.3,151.9 632.3,157.1 641.7,157.1 641.7,151.9 644.4,149.8 646.2,151.9 
			644.3,151.9 644.3,157.1 655.9,157.1 655.9,151.9 653.8,151.9 		"/>
		<path class="st5" d="M667.3,138.1c-5,0-10.3,3.2-10.3,9.7c0,5.5,3.7,9.8,10.1,9.8c4,0,6.5-1.9,8.2-5.5l-2.6-1.6
			c-0.8,1.9-2.2,2.8-4.2,2.8c-2.9,0-4.9-1.5-5.1-4.6h12.3c0.2-1.2,0.2-2,0.2-2.9C676,140.7,671.7,138.1,667.3,138.1z M663.6,145.5
			c0.4-1.8,1.8-3.3,4-3.3c2,0,3.3,1,3.3,3.3H663.6z"/>
		<path class="st5" d="M687.9,145.4c-2.4-0.5-4.6-1-4.6-2.7c0-0.8,0.7-1.4,1.8-1.4c2,0,3.7,0.9,3.8,4.2h5.5v-7h-4.5l0.1,3.7
			c-0.6-2.5-2.6-4.1-6-4.1c-3.3,0-6.2,2.5-6.2,5.9c0,4.4,3.9,5.7,7,6.4c3.3,0.8,5,1,5,2.9c0,0.9-0.7,1.5-2,1.5
			c-2.8,0-4.2-1.4-4.2-4.4h-5.4v7.1h4.5l-0.2-3.3c0.7,2.9,3.5,3.6,5.6,3.6c3.5,0,7.2-1.6,7.2-5.9
			C695.5,147.5,691.2,146.1,687.9,145.4z"/>
		<path class="st5" d="M703.4,151.1c-1.8,0-3.2,1.4-3.2,3.2s1.4,3.2,3.2,3.2s3.2-1.4,3.2-3.2S705.2,151.1,703.4,151.1z"/>
		<path class="st5" d="M703.4,131.5c-1.7,0-3.4,1.2-3.4,3.5c0,3.2,2,8.6,2,14.5h3c0-6,1.9-11.3,1.9-14.4
			C706.9,132.6,705.1,131.5,703.4,131.5z"/>
	</g>
</g>
</svg>
