<?xml version="1.0" encoding="utf-8"?>
<!-- Generator: Adobe Illustrator 23.0.3, SVG Export Plug-In . SVG Version: 6.00 Build 0)  -->
<svg version="1.1" id="Layer_1" xmlns="http://www.w3.org/2000/svg" xmlns:xlink="http://www.w3.org/1999/xlink" x="0px" y="0px"
	 width="967.9px" height="481.8px" viewBox="0 0 967.9 481.8" style="enable-background:new 0 0 967.9 481.8;" xml:space="preserve"
	>
<style type="text/css">
	.st0{opacity:0.5;fill:url(#SVGID_1_);enable-background:new    ;}
	.st1{opacity:0.5;fill:url(#SVGID_2_);enable-background:new    ;}
	.st2{fill:#FFFFFF;stroke:#FFFFFF;stroke-width:12;stroke-linecap:round;stroke-linejoin:round;stroke-miterlimit:10;}
	.st3{fill:#370000;}
	.st4{fill:#FFFFFF;}
	.st5{fill:#D90B0D;}
</style>
<g>
	
		<linearGradient id="SVGID_1_" gradientUnits="userSpaceOnUse" x1="486.5499" y1="-4.9454" x2="486.5499" y2="384.2511" gradientTransform="matrix(1 0 0 -1 0 482)">
		<stop  offset="0.2509" style="stop-color:#FFFFFF;stop-opacity:0"/>
		<stop  offset="0.9437" style="stop-color:#FFFFFF"/>
	</linearGradient>
	<path class="st0" d="M353.5,479.8c0,0.9,0.7,1.6,1.6,1.6h8.5c0.9,0,1.6-0.7,1.6-1.6l1.5-2.1c0.2,0.5,0.6,0.8,1.1,0.9l0.9,1.9
		c0.3,0.6,0.8,0.9,1.4,0.9h2.5c0.7,0,1.3-0.4,1.5-1.1c0.1-0.3,0.2-0.7,0.3-1c0.1,0.4,0.3,0.8,0.4,1c0.2,0.6,0.8,1.1,1.5,1.1h2.5
		c0.6,0,1.2-0.4,1.5-1l1.6-3.8l0.1,0.1c0.9,2.9,3.6,4.9,6.9,4.9c3.6,0,6.7-2.7,7.1-6v0.7h0.7v0.8c0,0.8,0.6,1.5,1.5,1.6v1.2
		c0,0.9,0.7,1.6,1.6,1.6h2.4c0.3,0,0.6-0.1,0.8-0.2c0.6,0.2,1.3,0.4,2.1,0.4c3.3,0,5.5-1.9,5.5-4.7c0-0.2,0-0.4,0-0.5h0.1l1.8,4
		c0.3,0.6,0.8,0.9,1.4,0.9h2.5c0.7,0,1.3-0.4,1.5-1.1c0.1-0.3,0.2-0.7,0.3-1c0.1,0.4,0.3,0.8,0.4,1c0.2,0.6,0.8,1.1,1.5,1.1h2.5
		c0.6,0,1.2-0.4,1.5-1l1.6-3.8c0.7,3.1,3.3,5.1,6.8,5.1c2.3,0,4-0.9,5.2-2.8c1.2,1.7,3.3,2.8,5.8,2.8s4.4-1.1,5.6-3.3
		c0.6,2.2,2.8,3.4,4.9,3.4c2.5,0,5.1-1.6,5.1-4.6v-0.7h1.9c0.7,3,3.3,5.3,6.4,5.3c1.4,0,2.7-0.3,3.7-0.9c0.3,0.3,0.7,0.6,1.2,0.6
		h6.4c0.1,0,0.2,0,0.2,0c0.1,0,0.1,0,0.2,0h5.8c0.4,0,0.9-0.2,1.1-0.5c0.8,0.5,1.8,0.8,2.9,0.8c1.2,0,2.2-0.4,3-1
		c0.6,0.6,1.5,0.9,2.5,0.9c0.6,0,1.3-0.1,1.8-0.4c0.2,0.1,0.5,0.2,0.8,0.2h6.4c0.1,0,0.2,0,0.2,0c0.1,0,0.1,0,0.2,0h5.8
		c0.7,0,1.3-0.5,1.5-1.1c1.1,0.9,2.5,1.4,4.1,1.4c2.2,0,4-0.7,5.2-2.2c1.2,1.4,3.1,2.2,5.3,2.2c1.8,0,3.4-0.6,4.5-1.8v0.1
		c0,0.9,0.7,1.6,1.6,1.6h2.4c0.3,0,0.6-0.1,0.8-0.2c0.6,0.2,1.3,0.4,2.1,0.4c3.2,0,5.4-1.8,5.5-4.6c0.6-0.8,1-1.7,1.1-2.8
		c0.2-0.2,0.3-0.4,0.5-0.7c0.3,0.4,0.7,0.7,1.3,0.7h0.3v2.8c0,3,2.6,4.6,5.1,4.6c1.9,0,3.7-0.8,4.6-2.5c1.3,1.5,3.3,2.4,5.5,2.4
		c3.4,0,6.3-2.4,7.1-5.4c0.7-0.8,1.2-1.8,1.5-2.8l0,0c0.3,0.5,0.8,0.9,1.4,0.9h0.1l2.8,6.1c0.3,0.6,0.8,0.9,1.4,0.9h2.5
		c0.7,0,1.3-0.4,1.5-1.1c0.1-0.3,0.2-0.7,0.3-1c0.1,0.4,0.3,0.8,0.4,1c0.2,0.6,0.8,1.1,1.5,1.1h2.5c0.6,0,1.2-0.4,1.5-1l0.8-1.9
		c0.1,0,0.3-0.1,0.4-0.2v1.5c0,0.9,0.7,1.6,1.6,1.6h6.5c0.1,0,0.1,0,0.2,0c0.1,0,0.1,0,0.2,0h6.4c0.1,0,0.2,0,0.2,0
		c0.1,0,0.1,0,0.2,0h5.8c0.6,0,1.2-0.4,1.4-0.9c0.6,0.7,1.5,1.2,2.5,1.2c1.7,0,3.1-1.3,3.3-2.9c0,0,347.8-417.8,348.4-418.9
		c2.5-2.2,4.1-5.4,4.1-9c0-3.3-1.3-6.3-3.5-8.4c0.1-0.4,0.1-0.7,0.1-1.1c0-6.2,1.2-12.1,2.2-17.4c0.8-4.1,1.5-7.7,1.5-10.8
		c0-7.3-5.4-12.8-12.6-12.8c-4.9,0-9,2.6-11,6.6c-0.9,0.9-1.6,1.9-2.2,3.1c-0.9,0.9-1.6,1.9-2.2,3c-0.9,0.9-1.6,1.9-2.2,3.1
		c-0.3,0.3-0.7,0.7-1,1.1c-3-2.5-7.1-3.8-12.1-3.8c-2.5,0-6.6,0.4-10.4,2.8c-1-0.8-2.2-1.3-3.6-1.3h-15.3c-0.2,0-0.3,0-0.5,0
		c0.1-0.6,0.2-1.3,0.2-2c0-6.6-5.5-12-12.4-12c-5.1,0-9.5,3.1-11.4,7.4c-0.8,0.9-1.4,1.9-1.9,3c-0.8,0.9-1.4,1.9-1.9,3
		c-0.1,0.1-0.2,0.3-0.4,0.5h-16.6c-1.3,0-2.4,0.4-3.4,1.1c-1-0.7-2.1-1.1-3.4-1.1H836c-1.3,0-2.6,0.5-3.6,1.2
		c-1-0.8-2.2-1.2-3.6-1.2h-21.5c-2.8,0-5.1,2-5.6,4.7c-0.8,0.8-1.3,1.8-1.5,3c-0.8,0.8-1.3,1.8-1.5,3c-0.8,0.8-1.3,1.8-1.5,3
		c-0.5,0.5-0.8,1-1.1,1.6c-3.4-9.9-13.2-16.8-25-16.8c-7.1,0-13.5,2.6-18.2,6.7c-0.3-2.9-2.7-5.2-5.7-5.2h-8.5v-4.7
		c0-3.2-2.6-5.7-5.7-5.7h-5.7c-1.5,0-3,0.6-4.1,1.7c-1,1-1.5,2.3-1.6,3.6c-0.7,0.9-1.1,1.9-1.2,3c-0.7,0.9-1.1,1.9-1.2,3
		c-0.6,0.7-0.9,1.6-1.1,2.5c-1,0.4-2.1,0.6-3.6,0.6s-3,0.6-4.1,1.6c-1,1-1.6,2.3-1.7,3.7c-0.6,0.9-1,1.9-1.1,3c-0.6,0.9-1,1.9-1.1,3
		c-0.6,0.9-1,1.9-1.1,3c-0.6,0.9-1,1.9-1.1,3c-0.6,0.9-1,1.9-1.1,3c-0.1,0.1-0.2,0.2-0.2,0.3c-0.5-1.1-1.1-2.1-1.8-3
		c0.5-0.9,0.8-1.9,0.8-2.9V19.8c0-3.2-2.6-5.7-5.7-5.7h-8.8c-1.1,0-2.2,0.3-3.1,0.9c-2.4-1-5.2-1.6-8.3-1.6
		c-6.3,0-11.7,2.9-14.9,7.5c-4.4-4.9-11.2-7.5-18-7.5c-7.2,0-14.7,2.9-19.8,8.5c-3.1-5.2-9.5-8.5-17.4-8.5
		c-8.4,0-16.8,3.8-21.6,11.1c-2.4-7.1-8.3-11.1-16.9-11.1c-2.5,0-6.6,0.4-10.4,2.8c-1-0.8-2.2-1.3-3.6-1.3h-15.3
		c-3.2,0-5.7,2.6-5.7,5.7v0.5c-3.8-4.9-10.5-7.8-19-7.8c-9.7,0-16.9,3.5-20.3,9.4c-1.9-4.9-6-9.4-14.4-9.4c-2.4,0-5,0.5-7.5,1.5
		c0-0.4,0-0.9,0-1.3c0-0.2,0-0.5-0.1-0.7c0-0.8,0-1.6,0-2.4c0-0.2,0-0.5-0.1-0.7c0-0.8,0-1.6,0-2.4c0-3.1-2.6-5.7-5.7-5.7h-18.1
		c-3.2,0-5.7,2.6-5.7,5.7v8.2c-3-1.5-6.6-2.4-10.6-2.4c-7.8,0-15.7,3.3-20.6,9.7h-10.7c-0.1-0.5-0.2-1-0.3-1.5v-0.9
		c0-3.2-2.6-5.7-5.7-5.7h-7.8c-0.1-0.3-0.2-0.6-0.3-0.9V13c0-0.8-0.2-1.6-0.5-2.2V10c0-3.2-2.6-5.7-5.7-5.7h-5.7
		c-1.5,0-3,0.6-4.1,1.7s-1.7,2.5-1.7,4.1c0,2.4-0.3,5.5-2,7.2c-1,1-2.7,1.5-5,1.5c-0.6,0-1.2,0.1-1.7,0.3
		c-4.4-3.8-10.3-5.8-16.3-5.8c-7.6,0-15.5,3.2-20.5,9.3c-4.2-6.1-11.8-9.3-19.4-9.3c-5.7,0-11.5,1.8-16.1,5.2
		c-0.8-2.2-2.9-3.7-5.3-3.7h-19c-1.3,0-2.4,0.4-3.4,1.1c-1-0.7-2.1-1.1-3.4-1.1h-7.5c-1.3,0-2.6,0.5-3.6,1.2c-1-0.8-2.2-1.2-3.6-1.2
		h-21.5c-0.4,0-0.7,0-1.1,0.1c-0.9-0.6-2-0.9-3.1-0.9h-8.8c-1.1,0-2.2,0.3-3.1,0.9c-2.4-1-5.2-1.6-8.3-1.6c-10,0-17.9,7.6-17.9,17.2
		c0,3.6,0.9,6.4,2.3,8.8c-0.8,1-1.3,2.3-1.3,3.6v4.2c-0.1-0.3-0.3-0.5-0.5-0.8c-0.4-1-0.9-2-1.5-2.9c-0.4-1-0.9-2-1.5-2.9
		c-0.4-1-0.9-2-1.5-2.9c-0.4-1-0.9-2-1.5-2.9c-0.4-1-0.9-2-1.5-2.9c-0.4-1-0.9-2-1.5-2.9c-3.8-9.1-13.2-15.4-24.4-15.4
		c-6.3,0-12.1,2-16.6,5.4c-0.8-2.3-2.9-3.9-5.4-3.9h-19c-1.3,0-2.4,0.4-3.4,1.1c-1-0.7-2.1-1.1-3.4-1.1h-7.5c-1.3,0-2.6,0.5-3.6,1.2
		c-1-0.8-2.2-1.2-3.6-1.2h-6.4c-0.4-1.1-1-2-1.8-2.6c-0.3-1.2-1-2.3-2-3.1c-0.3-1.2-1-2.3-2-3.1c-0.6-2.5-2.9-4.3-5.5-4.3H11
		c-3.2,0-5.7,2.6-5.7,5.7v23.8c0,2,1.1,3.8,2.6,4.8c0.4,1.2,7.9,10.8,8.9,11.5v8.6c0,2,1,3.8,2.6,4.8L353.5,479.8z"/>
	
		<linearGradient id="SVGID_2_" gradientUnits="userSpaceOnUse" x1="486.5499" y1="-4.9454" x2="486.5499" y2="384.2511" gradientTransform="matrix(1 0 0 -1 0 482)">
		<stop  offset="0.2509" style="stop-color:#FFFFFF;stop-opacity:0"/>
		<stop  offset="0.9437" style="stop-color:#FFFFFF"/>
	</linearGradient>
	<path class="st1" d="M353.5,479.8c0,0.9,0.7,1.6,1.6,1.6h8.5c0.9,0,1.6-0.7,1.6-1.6l1.5-2.1c0.2,0.5,0.6,0.8,1.1,0.9l0.9,1.9
		c0.3,0.6,0.8,0.9,1.4,0.9h2.5c0.7,0,1.3-0.4,1.5-1.1c0.1-0.3,0.2-0.7,0.3-1c0.1,0.4,0.3,0.8,0.4,1c0.2,0.6,0.8,1.1,1.5,1.1h2.5
		c0.6,0,1.2-0.4,1.5-1l1.6-3.8l0.1,0.1c0.9,2.9,3.6,4.9,6.9,4.9c3.6,0,6.7-2.7,7.1-6v0.7h0.7v0.8c0,0.8,0.6,1.5,1.5,1.6v1.2
		c0,0.9,0.7,1.6,1.6,1.6h2.4c0.3,0,0.6-0.1,0.8-0.2c0.6,0.2,1.3,0.4,2.1,0.4c3.3,0,5.5-1.9,5.5-4.7c0-0.2,0-0.4,0-0.5h0.1l1.8,4
		c0.3,0.6,0.8,0.9,1.4,0.9h2.5c0.7,0,1.3-0.4,1.5-1.1c0.1-0.3,0.2-0.7,0.3-1c0.1,0.4,0.3,0.8,0.4,1c0.2,0.6,0.8,1.1,1.5,1.1h2.5
		c0.6,0,1.2-0.4,1.5-1l1.6-3.8c0.7,3.1,3.3,5.1,6.8,5.1c2.3,0,4-0.9,5.2-2.8c1.2,1.7,3.3,2.8,5.8,2.8s4.4-1.1,5.6-3.3
		c0.6,2.2,2.8,3.4,4.9,3.4c2.5,0,5.1-1.6,5.1-4.6v-0.7h1.9c0.7,3,3.3,5.3,6.4,5.3c1.4,0,2.7-0.3,3.7-0.9c0.3,0.3,0.7,0.6,1.2,0.6
		h6.4c0.1,0,0.2,0,0.2,0c0.1,0,0.1,0,0.2,0h5.8c0.4,0,0.9-0.2,1.1-0.5c0.8,0.5,1.8,0.8,2.9,0.8c1.2,0,2.2-0.4,3-1
		c0.6,0.6,1.5,0.9,2.5,0.9c0.6,0,1.3-0.1,1.8-0.4c0.2,0.1,0.5,0.2,0.8,0.2h6.4c0.1,0,0.2,0,0.2,0c0.1,0,0.1,0,0.2,0h5.8
		c0.7,0,1.3-0.5,1.5-1.1c1.1,0.9,2.5,1.4,4.1,1.4c2.2,0,4-0.7,5.2-2.2c1.2,1.4,3.1,2.2,5.3,2.2c1.8,0,3.4-0.6,4.5-1.8v0.1
		c0,0.9,0.7,1.6,1.6,1.6h2.4c0.3,0,0.6-0.1,0.8-0.2c0.6,0.2,1.3,0.4,2.1,0.4c3.2,0,5.4-1.8,5.5-4.6c0.6-0.8,1-1.7,1.1-2.8
		c0.2-0.2,0.3-0.4,0.5-0.7c0.3,0.4,0.7,0.7,1.3,0.7h0.3v2.8c0,3,2.6,4.6,5.1,4.6c1.9,0,3.7-0.8,4.6-2.5c1.3,1.5,3.3,2.4,5.5,2.4
		c3.4,0,6.3-2.4,7.1-5.4c0.7-0.8,1.2-1.8,1.5-2.8l0,0c0.3,0.5,0.8,0.9,1.4,0.9h0.1l2.8,6.1c0.3,0.6,0.8,0.9,1.4,0.9h2.5
		c0.7,0,1.3-0.4,1.5-1.1c0.1-0.3,0.2-0.7,0.3-1c0.1,0.4,0.3,0.8,0.4,1c0.2,0.6,0.8,1.1,1.5,1.1h2.5c0.6,0,1.2-0.4,1.5-1l0.8-1.9
		c0.1,0,0.3-0.1,0.4-0.2v1.5c0,0.9,0.7,1.6,1.6,1.6h6.5c0.1,0,0.1,0,0.2,0c0.1,0,0.1,0,0.2,0h6.4c0.1,0,0.2,0,0.2,0
		c0.1,0,0.1,0,0.2,0h5.8c0.6,0,1.2-0.4,1.4-0.9c0.6,0.7,1.5,1.2,2.5,1.2c1.7,0,3.1-1.3,3.3-2.9c0,0,347.8-417.8,348.4-418.9
		c2.5-2.2,4.1-5.4,4.1-9c0-3.3-1.3-6.3-3.5-8.4c0.1-0.4,0.1-0.7,0.1-1.1c0-6.2,1.2-12.1,2.2-17.4c0.8-4.1,1.5-7.7,1.5-10.8
		c0-7.3-5.4-12.8-12.6-12.8c-4.9,0-9,2.6-11,6.6c-0.9,0.9-1.6,1.9-2.2,3.1c-0.9,0.9-1.6,1.9-2.2,3c-0.9,0.9-1.6,1.9-2.2,3.1
		c-0.3,0.3-0.7,0.7-1,1.1c-3-2.5-7.1-3.8-12.1-3.8c-2.5,0-6.6,0.4-10.4,2.8c-1-0.8-2.2-1.3-3.6-1.3h-15.3c-0.2,0-0.3,0-0.5,0
		c0.1-0.6,0.2-1.3,0.2-2c0-6.6-5.5-12-12.4-12c-5.1,0-9.5,3.1-11.4,7.4c-0.8,0.9-1.4,1.9-1.9,3c-0.8,0.9-1.4,1.9-1.9,3
		c-0.1,0.1-0.2,0.3-0.4,0.5h-16.6c-1.3,0-2.4,0.4-3.4,1.1c-1-0.7-2.1-1.1-3.4-1.1H836c-1.3,0-2.6,0.5-3.6,1.2
		c-1-0.8-2.2-1.2-3.6-1.2h-21.5c-2.8,0-5.1,2-5.6,4.7c-0.8,0.8-1.3,1.8-1.5,3c-0.8,0.8-1.3,1.8-1.5,3c-0.8,0.8-1.3,1.8-1.5,3
		c-0.5,0.5-0.8,1-1.1,1.6c-3.4-9.9-13.2-16.8-25-16.8c-7.1,0-13.5,2.6-18.2,6.7c-0.3-2.9-2.7-5.2-5.7-5.2h-8.5v-4.7
		c0-3.2-2.6-5.7-5.7-5.7h-5.7c-1.5,0-3,0.6-4.1,1.7c-1,1-1.5,2.3-1.6,3.6c-0.7,0.9-1.1,1.9-1.2,3c-0.7,0.9-1.1,1.9-1.2,3
		c-0.6,0.7-0.9,1.6-1.1,2.5c-1,0.4-2.1,0.6-3.6,0.6s-3,0.6-4.1,1.6c-1,1-1.6,2.3-1.7,3.7c-0.6,0.9-1,1.9-1.1,3c-0.6,0.9-1,1.9-1.1,3
		c-0.6,0.9-1,1.9-1.1,3c-0.6,0.9-1,1.9-1.1,3c-0.6,0.9-1,1.9-1.1,3c-0.1,0.1-0.2,0.2-0.2,0.3c-0.5-1.1-1.1-2.1-1.8-3
		c0.5-0.9,0.8-1.9,0.8-2.9V19.8c0-3.2-2.6-5.7-5.7-5.7h-8.8c-1.1,0-2.2,0.3-3.1,0.9c-2.4-1-5.2-1.6-8.3-1.6
		c-6.3,0-11.7,2.9-14.9,7.5c-4.4-4.9-11.2-7.5-18-7.5c-7.2,0-14.7,2.9-19.8,8.5c-3.1-5.2-9.5-8.5-17.4-8.5
		c-8.4,0-16.8,3.8-21.6,11.1c-2.4-7.1-8.3-11.1-16.9-11.1c-2.5,0-6.6,0.4-10.4,2.8c-1-0.8-2.2-1.3-3.6-1.3h-15.3
		c-3.2,0-5.7,2.6-5.7,5.7v0.5c-3.8-4.9-10.5-7.8-19-7.8c-9.7,0-16.9,3.5-20.3,9.4c-1.9-4.9-6-9.4-14.4-9.4c-2.4,0-5,0.5-7.5,1.5
		c0-0.4,0-0.9,0-1.3c0-0.2,0-0.5-0.1-0.7c0-0.8,0-1.6,0-2.4c0-0.2,0-0.5-0.1-0.7c0-0.8,0-1.6,0-2.4c0-3.1-2.6-5.7-5.7-5.7h-18.1
		c-3.2,0-5.7,2.6-5.7,5.7v8.2c-3-1.5-6.6-2.4-10.6-2.4c-7.8,0-15.7,3.3-20.6,9.7h-10.7c-0.1-0.5-0.2-1-0.3-1.5v-0.9
		c0-3.2-2.6-5.7-5.7-5.7h-7.8c-0.1-0.3-0.2-0.6-0.3-0.9V13c0-0.8-0.2-1.6-0.5-2.2V10c0-3.2-2.6-5.7-5.7-5.7h-5.7
		c-1.5,0-3,0.6-4.1,1.7s-1.7,2.5-1.7,4.1c0,2.4-0.3,5.5-2,7.2c-1,1-2.7,1.5-5,1.5c-0.6,0-1.2,0.1-1.7,0.3
		c-4.4-3.8-10.3-5.8-16.3-5.8c-7.6,0-15.5,3.2-20.5,9.3c-4.2-6.1-11.8-9.3-19.4-9.3c-5.7,0-11.5,1.8-16.1,5.2
		c-0.8-2.2-2.9-3.7-5.3-3.7h-19c-1.3,0-2.4,0.4-3.4,1.1c-1-0.7-2.1-1.1-3.4-1.1h-7.5c-1.3,0-2.6,0.5-3.6,1.2c-1-0.8-2.2-1.2-3.6-1.2
		h-21.5c-0.4,0-0.7,0-1.1,0.1c-0.9-0.6-2-0.9-3.1-0.9h-8.8c-1.1,0-2.2,0.3-3.1,0.9c-2.4-1-5.2-1.6-8.3-1.6c-10,0-17.9,7.6-17.9,17.2
		c0,3.6,0.9,6.4,2.3,8.8c-0.8,1-1.3,2.3-1.3,3.6v4.2c-0.1-0.3-0.3-0.5-0.5-0.8c-0.4-1-0.9-2-1.5-2.9c-0.4-1-0.9-2-1.5-2.9
		c-0.4-1-0.9-2-1.5-2.9c-0.4-1-0.9-2-1.5-2.9c-0.4-1-0.9-2-1.5-2.9c-0.4-1-0.9-2-1.5-2.9c-3.8-9.1-13.2-15.4-24.4-15.4
		c-6.3,0-12.1,2-16.6,5.4c-0.8-2.3-2.9-3.9-5.4-3.9h-19c-1.3,0-2.4,0.4-3.4,1.1c-1-0.7-2.1-1.1-3.4-1.1h-7.5c-1.3,0-2.6,0.5-3.6,1.2
		c-1-0.8-2.2-1.2-3.6-1.2h-6.4c-0.4-1.1-1-2-1.8-2.6c-0.3-1.2-1-2.3-2-3.1c-0.3-1.2-1-2.3-2-3.1c-0.6-2.5-2.9-4.3-5.5-4.3H11
		c-3.2,0-5.7,2.6-5.7,5.7v23.8c0,2,1.1,3.8,2.6,4.8c0.4,1.2,7.9,10.8,8.9,11.5v8.6c0,2,1,3.8,2.6,4.8L353.5,479.8z"/>
</g>
<g>
	<g>
		<g>
			<path class="st2" d="M237.6,108c0,1.2-0.7,1.4-1.2,1.4c-0.4,0-0.7-0.2-0.7-0.6c0-0.9,0.3-1.9,0.3-3.7c0-2.6-1.5-4.2-4.9-4.2v-0.3
				c4.6-0.1,6.8-2.7,6.8-5.9c0-3.5-3.2-6.7-9.3-6.7h-16.3v5.1h4.5v14.6h-4.5v5.1h15.3v-5.1h-4v-4.7h2.6c2.3,0,3.2,1.2,3.2,2.6
				c0,1.4-0.2,2.4-0.2,3.7c0,2.9,2.2,4.1,5,4.1c3.5,0,6.5-1.6,6.5-5.6V105h-3.2V108z M226.5,99h-2.8v-5.8h3.7c2.6,0,3.7,1.4,3.7,2.9
				C231.1,97.6,230.4,99,226.5,99z"/>
			<path class="st2" d="M251.9,113.5c4,0,6.5-1.9,8.2-5.5l-2.6-1.6c-0.8,1.9-2.2,2.8-4.2,2.8c-2.9,0-4.9-1.5-5.1-4.6h12.3
				c0.2-1.2,0.2-2,0.2-2.9c0-5.1-4.3-7.7-8.8-7.7c-5,0-10.3,3.2-10.3,9.7C241.8,109.2,245.5,113.5,251.9,113.5z M252.4,98.1
				c2,0,3.3,1,3.3,3.3h-7.2C248.8,99.6,250.2,98.1,252.4,98.1z"/>
			<path class="st2" d="M271,113.4c3.5,0,6.2-1.8,7.1-4.2c-0.2,0.9-0.4,3-0.4,3.7h7.9v-5.1h-3.4V88H273v5.1h4c0,1.2,0.1,3.9,0.3,5.2
				c-0.8-2.6-3.3-4-6.5-4c-4.7,0-8.5,3.6-8.5,9.4C262.2,109.1,266.1,113.4,271,113.4z M272.3,98.4c2.7,0,4,1.8,4,5.4
				s-1.2,5.1-3.8,5.1c-2.4,0-3.7-1.9-3.7-5.1C268.8,100.5,270,98.4,272.3,98.4z"/>
			<path class="st2" d="M296.8,113.5c4,0,6.5-1.9,8.2-5.5l-2.6-1.6c-0.8,1.9-2.2,2.8-4.2,2.8c-2.9,0-4.9-1.5-5.1-4.6h12.3
				c0.2-1.2,0.2-2,0.2-2.9c0-5.1-4.3-7.7-8.8-7.7c-5,0-10.3,3.2-10.3,9.7C286.7,109.2,290.4,113.5,296.8,113.5z M297.3,98.1
				c2,0,3.3,1,3.3,3.3h-7.2C293.7,99.6,295.2,98.1,297.3,98.1z"/>
			<path class="st2" d="M317.4,94c-5,0-10.3,3.2-10.3,9.7c0,5.5,3.7,9.8,10.1,9.8c4,0,6.5-1.9,8.2-5.5l-2.6-1.6
				c-0.8,1.9-2.2,2.8-4.2,2.8c-2.9,0-4.9-1.5-5.1-4.6h12.3c0.2-1.2,0.2-2,0.2-2.9C326.2,96.5,321.8,94,317.4,94z M313.8,101.4
				c0.4-1.8,1.8-3.3,4-3.3c2,0,3.3,1,3.3,3.3H313.8z"/>
			<path class="st2" d="M338.8,107.8h-2.3V103c0-2.3,1-3.5,3.2-3.5c1.8,0,2.2,0.8,2.2,3.4v4.8h-2.2v5.1H350v-5.1h-2.3V103
				c0-2.3,1-3.5,3.2-3.5c1.8,0,2.2,0.8,2.2,3.4v4.8h-2.3v5.1h10.6v-5.1H359v-7.1c0-3.9-1.9-6.7-6.2-6.7c-3,0-5.5,1.6-6.5,4.9
				c-0.4-2.9-1.9-4.8-5.1-4.8c-3.8,0-5.9,2.8-6.4,7.1h-0.4c0.2-0.9,0.5-5,0.6-6.5h-7.8v5.1h3.4v8h-3.4v5.1h11.6V107.8z"/>
			<path class="st2" d="M374.1,120.2c2.9,0,6.1-1.5,7.7-5.2l6.9-15.3h2.1v-5.1h-9.7v5.1h2.4c-1.1,2.7-2.1,5.8-2.7,8.2
				c-0.6-2.4-1.5-5.4-2.6-8.2h2.2v-5.1h-11v5.1h2.1l6,12.6c0,4.3-1.9,6-4,6c-1.3,0-2.2-0.3-2.8-1c0.4,0.1,0.8,0.2,1.3,0.2
				c2,0,3.5-1.4,3.5-3.4c0-1.9-1.6-3.5-3.5-3.5c-2.6,0-3.9,1.9-3.9,4.4C368,118.7,370.9,120.2,374.1,120.2z"/>
			<path class="st2" d="M412.6,103.6c0-5.6-4.6-9.7-10.5-9.7c-5.7,0-10.5,4.1-10.5,9.7c0,5.3,4.6,9.9,10.5,9.9
				C407.9,113.5,412.6,108.9,412.6,103.6z M398.3,104c0-4.4,1.2-5.3,3.7-5.3c2.7,0,3.6,1.1,3.6,5.3c0,4.5-0.9,5.3-3.6,5.3
				S398.3,108.4,398.3,104z"/>
			<path class="st2" d="M434.4,94.7h-10.1v5.1h4.2v4.9c0,2.5-1.3,3.5-3.6,3.5c-2,0-2.5-0.6-2.5-3.4v-10h-8.7v5.1h2.7v7.2
				c0,4.2,1.8,6.5,6.4,6.5c2.9,0,6.5-2,7.4-7.1h0.4c-0.2,0.9-0.5,5-0.6,6.5h7.3v-5.1h-2.9V94.7z"/>
			<path class="st2" d="M451.7,107.8h-4.5v-5c0-2.9,1-4.7,2.5-5.5c-0.2,0.5-0.4,0.9-0.4,1.6c0,1.8,1.4,3.2,3.4,3.2
				c2.5,0,3.9-2,3.9-3.9c0-2.1-1.4-4.3-4.8-4.3c-3.3,0-5.4,2.9-6,6h-0.4c0.2-1.5,0.5-3.7,0.5-5.2h-8.1v5.1h3.4v8h-3.4v5.1h13.8
				V107.8z"/>
			<path class="st2" d="M471,109.4c1.4,3.1,4.4,4.2,7.6,4.2c4.6,0,9.6-2.8,9.6-7.9c0-5-3.4-7.1-9-8.1c-5-0.9-5.9-1.8-5.9-3.5
				c0-1.4,1-2.5,2.7-2.5c2.8,0,4.8,2,4.9,5.9h5.9v-10h-5l0.3,4c-1-2.5-3.6-4.1-6.9-4.1c-5.1,0-8.8,3-8.8,7.6c0,5.7,4.3,7.4,9.9,8.4
				c2.9,0.5,5.1,0.8,5.1,3.1c0,1.9-1.6,3-3.6,3c-2.4,0-5.2-1.6-5.3-5.9h-6.1v9.8h5L471,109.4z"/>
			<path class="st2" d="M521.3,99.8v-5.1h-9.7v5.1h2.3c-0.8,2.3-1.5,5.2-1.9,7.2c-0.8-3.5-2.9-9.2-3.9-12.3h-3.9
				c-1.2,3.7-3.1,8.6-4.1,12.3c-0.4-2-1.1-4.9-1.9-7.2h2.3v-5.1h-11v5.1h2.1l6,13.1h4.7c1.1-3.3,2.6-7.9,3.4-11.3
				c0.7,3.3,2.3,8.1,3.4,11.3h4.7l5.4-13.1H521.3z"/>
			<path class="st2" d="M533.6,109.1c-2.9,0-4.9-1.5-5.1-4.6h12.3c0.2-1.2,0.2-2,0.2-2.9c0-5.1-4.3-7.7-8.8-7.7
				c-5,0-10.3,3.2-10.3,9.7c0,5.5,3.7,9.8,10.1,9.8c4,0,6.5-1.9,8.2-5.5l-2.6-1.6C537,108.3,535.6,109.1,533.6,109.1z M532.6,98.1
				c2,0,3.3,1,3.3,3.3h-7.2C529,99.6,530.5,98.1,532.6,98.1z"/>
			<path class="st2" d="M552.5,113.5c4,0,6.5-1.9,8.2-5.5l-2.6-1.6c-0.8,1.9-2.2,2.8-4.2,2.8c-2.9,0-4.9-1.5-5.1-4.6h12.3
				c0.2-1.2,0.2-2,0.2-2.9c0-5.1-4.3-7.7-8.8-7.7c-5,0-10.3,3.2-10.3,9.7C542.4,109.2,546.1,113.5,552.5,113.5z M553,98.1
				c2,0,3.3,1,3.3,3.3h-7.2C549.4,99.6,550.9,98.1,553,98.1z"/>
			<path class="st2" d="M565.5,107.9c0,3.9,3.4,5.7,6.6,5.7c3.2,0,6.6-1.8,6.6-5.5v-3.3h-3.5v2.3c0,1.1-0.9,1.7-1.9,1.7
				c-1,0-1.9-0.6-1.9-1.6v-7.3h7.2v-5.1h-7.3v-5.3h-2.9c0,5.3-2.7,7.5-6.5,7.4v3h3.6V107.9z"/>
			<path class="st2" d="M595.1,102.9c3.3,0.8,5,1,5,2.9c0,0.9-0.7,1.5-2,1.5c-2.8,0-4.2-1.4-4.2-4.4h-5.4v7.1h4.5l-0.2-3.3
				c0.3,1.3,1.1,2.2,2.1,2.8l-0.3,4.2h3.9v-3.4c3.4,0,7.2-1.6,7.2-5.9c0-4.3-4.3-5.7-7.6-6.4c-2.4-0.5-4.6-1-4.6-2.7
				c0-0.8,0.7-1.4,1.8-1.4c2,0,3.7,0.9,3.8,4.2h5.5v-7h-4.5l0.1,3.7c-0.3-1.3-1-2.3-2.1-3.1l0.4-4.3h-4.2v3.3
				c-3.4,0-6.3,2.5-6.3,5.9C588.1,100.9,592,102.2,595.1,102.9z"/>
			<path class="st2" d="M630.5,107.8h-7.2V88H619c0,3.1-1.9,6.1-9.2,6.1v4.4h7.7v9.2h-7.9v5.1h21V107.8z"/>
			<path class="st2" d="M653.6,100.5c0-7.6-4.4-13-10.9-13c-6.4,0-10.9,5.4-10.9,13c0,7.6,4.5,13,10.9,13
				C649,113.5,653.6,108.1,653.6,100.5z M638.4,100.5c0-6.4,1.1-8.4,4.3-8.4c3.4,0,4.3,2.6,4.3,8.4c0,6.5-1,8.4-4.3,8.4
				C639.5,108.9,638.4,106.4,638.4,100.5z"/>
			<path class="st2" d="M677.8,107.8h-4v-4.7h2.6c2.3,0,3.2,1.2,3.2,2.6c0,1.4-0.2,2.4-0.2,3.7c0,2.9,2.2,4.1,5,4.1
				c3.5,0,6.5-1.6,6.5-5.6V105h-3.2v3c0,1.2-0.7,1.4-1.2,1.4c-0.4,0-0.7-0.2-0.7-0.6c0-0.9,0.3-1.9,0.3-3.7c0-2.6-1.5-4.2-4.9-4.2
				v-0.3c4.6-0.1,6.8-2.7,6.8-5.9c0-3.5-3.2-6.7-9.3-6.7h-16.3v5.1h4.5v14.6h-4.5v5.1h15.3V107.8z M673.8,93.2h3.7
				c2.6,0,3.7,1.4,3.7,2.9c0,1.5-0.7,2.9-4.6,2.9h-2.8V93.2z"/>
			<path class="st2" d="M702,113.5c4,0,6.5-1.9,8.2-5.5l-2.6-1.6c-0.8,1.9-2.2,2.8-4.2,2.8c-2.9,0-4.9-1.5-5.1-4.6h12.3
				c0.2-1.2,0.2-2,0.2-2.9c0-5.1-4.3-7.7-8.8-7.7c-5,0-10.3,3.2-10.3,9.7C692,109.2,695.7,113.5,702,113.5z M702.6,98.1
				c2,0,3.3,1,3.3,3.3h-7.2C699,99.6,700.4,98.1,702.6,98.1z"/>
			<path class="st2" d="M719.7,112.9h4.7c1.1-3.3,2.6-7.9,3.4-11.3c0.7,3.3,2.3,8.1,3.4,11.3h4.7l5.4-13.1h2.1v-5.1h-9.7v5.1h2.3
				c-0.8,2.3-1.5,5.2-1.9,7.2c-0.8-3.5-2.9-9.2-3.9-12.3h-3.9c-1.2,3.7-3.1,8.6-4.1,12.3c-0.4-2-1.1-4.9-1.9-7.2h2.3v-5.1h-11v5.1
				h2.1L719.7,112.9z"/>
			<path class="st2" d="M753,102c-6.1,0-9,2.5-9,5.8c0,3.6,3.1,5.7,6.5,5.7c3.3,0,6-2.5,6.3-6.3h0.4c-0.1,0.5-0.1,1.1-0.1,2
				c0,3.5,2.2,4.1,3.8,4.1c3.2,0,4.5-2.2,4.5-5.6v-1.8h-2.8v1.7c0,1-0.5,1.1-0.7,1.1c-0.3,0-0.5-0.2-0.5-0.8c0-2.5,0.3-4.3,0.3-7.7
				c0-4.3-4.2-6.2-8.5-6.2c-4.5,0-8.5,1.8-8.5,5.9c0,0.3,0,0.6,0.2,1.5h6c0-2.1,0.8-2.8,2.1-2.8c1.5,0,2.5,0.6,2.5,2v1.5
				C754.5,102,753.7,102,753,102z M752.2,108.7c-1.1,0-2-0.6-2-1.8c0-1,0.7-2.6,3.5-2.6c0.5,0,1,0,1.6,0.1
				C755.2,107.9,753.6,108.7,752.2,108.7z"/>
			<path class="st2" d="M779.6,107.8h-4.5v-5c0-2.9,1-4.7,2.5-5.5c-0.2,0.5-0.4,0.9-0.4,1.6c0,1.8,1.4,3.2,3.4,3.2
				c2.5,0,3.9-2,3.9-3.9c0-2.1-1.4-4.3-4.8-4.3c-3.3,0-5.4,2.9-6,6h-0.3c0.2-1.5,0.5-3.7,0.5-5.2h-8.1v5.1h3.4v8h-3.4v5.1h13.8
				V107.8z"/>
			<path class="st2" d="M805.3,88H796v5.1h4c0,1.2,0.1,3.9,0.3,5.2c-0.8-2.6-3.3-4-6.5-4c-4.7,0-8.5,3.6-8.5,9.4
				c0,5.3,3.9,9.7,8.8,9.7c3.5,0,6.2-1.8,7.1-4.2c-0.2,0.9-0.4,3-0.4,3.7h7.9v-5.1h-3.4V88z M795.5,108.9c-2.4,0-3.7-1.9-3.7-5.1
				c0-3.3,1.2-5.4,3.5-5.4c2.7,0,4,1.8,4,5.4S798.2,108.9,795.5,108.9z"/>
			<path class="st2" d="M820.2,101.2c-2.4-0.5-4.5-1-4.5-2.7c0-0.8,0.7-1.4,1.8-1.4c2,0,3.7,0.9,3.8,4.2h5.5v-7h-4.5l0.1,3.7
				c-0.6-2.5-2.6-4.1-6-4.1c-3.3,0-6.2,2.5-6.2,5.9c0,4.4,3.9,5.7,7,6.4c3.3,0.8,5,1,5,2.9c0,0.9-0.7,1.5-2,1.5
				c-2.8,0-4.2-1.4-4.2-4.4h-5.4v7.1h4.5l-0.2-3.3c0.7,2.9,3.5,3.6,5.6,3.6c3.5,0,7.2-1.6,7.2-5.9
				C827.8,103.3,823.6,101.9,820.2,101.2z"/>
			<path class="st2" d="M259.9,151.6c0,1-0.5,1.1-0.7,1.1c-0.3,0-0.5-0.2-0.5-0.8c0-2.5,0.3-4.3,0.3-7.7c0-4.3-4.2-6.2-8.5-6.2
				c-4.5,0-8.5,1.8-8.5,5.9c0,0.3,0,0.6,0.2,1.5h6c0-2.1,0.8-2.8,2.1-2.8c1.5,0,2.5,0.6,2.5,2v1.5c-0.9-0.1-1.7-0.1-2.4-0.1
				c-6.1,0-9,2.5-9,5.8c0,3.6,3.1,5.7,6.5,5.7c3.3,0,6-2.5,6.3-6.3h0.4c-0.1,0.5-0.1,1.1-0.1,2c0,3.5,2.2,4.1,3.8,4.1
				c3.2,0,4.5-2.2,4.5-5.6v-1.8h-2.8V151.6z M249.5,152.7c-1.1,0-2-0.6-2-1.8c0-1,0.7-2.6,3.5-2.6c0.5,0,1,0,1.6,0.1
				C252.5,151.9,250.9,152.7,249.5,152.7z"/>
			<path class="st2" d="M284.5,144.7c0-4.2-1.7-6.8-6.3-6.8c-4.1,0-6.7,2.6-7.3,7.6h-0.4c0.2-1.3,0.5-5.4,0.5-6.9h-7.8v5.1h3.4v8
				h-3.4v5.1h12v-5.1h-2.7v-4.5c0-2.5,1.3-3.5,3.7-3.5c2,0,2.5,0.6,2.5,3.4v4.6H276v5.1h10.7v-5.1h-2.2V144.7z"/>
			<path class="st2" d="M307.8,132h-9.3v5.1h4c0,1.2,0.1,3.9,0.3,5.2c-0.8-2.6-3.3-4-6.5-4c-4.7,0-8.5,3.6-8.5,9.4
				c0,5.3,3.9,9.7,8.8,9.7c3.5,0,6.2-1.8,7.1-4.2c-0.2,0.9-0.4,3-0.4,3.7h7.9v-5.1h-3.4V132z M298.1,152.9c-2.4,0-3.7-1.9-3.7-5.1
				c0-3.3,1.2-5.4,3.5-5.4c2.7,0,4,1.8,4,5.4S300.7,152.9,298.1,152.9z"/>
			<path class="st2" d="M326.9,137.2h4.5v14.6h-4.5v5.1H352v-10.5H348v1.7c0,2.3-0.7,3.6-3.8,3.6h-6v-5.1h7.6v-4.6h-7.6v-5h6
				c3.1,0,3.8,1.4,3.8,3.6v1.6h4.1V132h-25.2V137.2z"/>
			<path class="st2" d="M375.1,144.7c0-4.2-1.7-6.8-6.3-6.8c-4.1,0-6.7,2.6-7.3,7.6h-0.4c0.2-1.3,0.5-5.4,0.5-6.9h-7.8v5.1h3.4v8
				h-3.4v5.1h12v-5.1h-2.7v-4.5c0-2.5,1.3-3.5,3.7-3.5c2,0,2.5,0.6,2.5,3.4v4.6h-2.7v5.1h10.7v-5.1h-2.2V144.7z"/>
			<path class="st2" d="M386.9,133.4H384c0,5.3-2.7,7.5-6.5,7.4v3h3.6v8.1c0,3.9,3.4,5.7,6.6,5.7c3.2,0,6.6-1.8,6.6-5.5v-3.3h-3.5
				v2.3c0,1.1-0.9,1.7-1.9,1.7s-1.9-0.6-1.9-1.6v-7.3h7.2v-5.1h-7.3V133.4z"/>
			<path class="st2" d="M406.1,138c-5,0-10.3,3.2-10.3,9.7c0,5.5,3.7,9.8,10.1,9.8c4,0,6.5-1.9,8.2-5.5l-2.6-1.6
				c-0.8,1.9-2.2,2.8-4.2,2.8c-2.9,0-4.9-1.5-5.1-4.6h12.3c0.2-1.2,0.2-2,0.2-2.9C414.9,140.5,410.6,138,406.1,138z M402.5,145.4
				c0.4-1.8,1.8-3.3,4-3.3c2,0,3.3,1,3.3,3.3H402.5z"/>
			<path class="st2" d="M429.8,138c-3.3,0-5.4,2.9-6,6h-0.4c0.2-1.5,0.5-3.7,0.5-5.2h-8.1v5.1h3.4v8h-3.4v5.1h13.8v-5.1h-4.5v-5
				c0-2.9,1-4.7,2.5-5.5c-0.2,0.5-0.4,0.9-0.4,1.6c0,1.8,1.4,3.2,3.4,3.2c2.5,0,3.9-2,3.9-3.9C434.6,140.2,433.1,138,429.8,138z"/>
			<path class="st2" d="M453.2,138c-5.7,0-10.5,4.1-10.5,9.7c0,5.3,4.6,9.9,10.5,9.9c5.8,0,10.5-4.6,10.5-9.9
				C463.7,142.1,459.1,138,453.2,138z M453.1,153.3c-2.7,0-3.7-0.9-3.7-5.3c0-4.4,1.2-5.3,3.7-5.3c2.7,0,3.6,1.1,3.6,5.3
				C456.8,152.6,455.8,153.3,453.1,153.3z"/>
			<path class="st2" d="M485.5,138.7h-10.1v5.1h4.2v4.9c0,2.5-1.3,3.5-3.6,3.5c-2,0-2.5-0.6-2.5-3.4v-10h-8.7v5.1h2.7v7.2
				c0,4.2,1.8,6.5,6.4,6.5c2.9,0,6.5-2,7.4-7.1h0.4c-0.2,0.9-0.5,5-0.6,6.5h7.3v-5.1h-2.9V138.7z"/>
			<path class="st2" d="M502.9,138c-3.3,0-5.4,2.9-6,6h-0.3c0.2-1.5,0.5-3.7,0.5-5.2H489v5.1h3.4v8H489v5.1h13.8v-5.1h-4.5v-5
				c0-2.9,1-4.7,2.5-5.5c-0.2,0.5-0.4,0.9-0.4,1.6c0,1.8,1.4,3.2,3.4,3.2c2.5,0,3.9-2,3.9-3.9C507.7,140.2,506.2,138,502.9,138z"/>
			<path class="st2" d="M530.3,141.5c-5-0.9-5.9-1.8-5.9-3.5c0-1.4,1-2.5,2.7-2.5c2.8,0,4.8,2,4.9,5.9h5.9v-10h-5l0.3,4
				c-1-2.5-3.6-4.1-6.9-4.1c-5.1,0-8.8,3-8.8,7.6c0,5.7,4.3,7.4,9.9,8.4c2.9,0.5,5.1,0.8,5.1,3.1c0,1.9-1.6,3-3.6,3
				c-2.4,0-5.2-1.6-5.3-5.9h-6.1v9.8h5l-0.3-4c1.4,3.1,4.4,4.2,7.6,4.2c4.6,0,9.6-2.8,9.6-7.9C539.3,144.6,535.9,142.5,530.3,141.5z
				"/>
			<path class="st2" d="M568.5,137.2h3.3l-2.3,6.8c-0.6,1.8-1.4,4.5-1.7,6.3c-0.1-1.4-0.7-3.7-1.4-6.3l-1.8-6.8h2.7V132h-11.8v5.1
				h2.7l-1.8,6.7c-0.7,2.7-1.3,5-1.4,6.4c-0.3-1.8-1.1-4.5-1.7-6.3l-2.3-6.8h3.3V132h-13.5v5.1h3l8.1,19.7h5.7
				c1-3.7,2.7-8.6,3.5-12.6c0.8,4,2.4,9,3.4,12.6h5.7l8.1-19.7h3.1V132h-12.8V137.2z"/>
			<path class="st2" d="M581.9,137.2h4.5v14.6h-4.5v5.1h25.2v-10.5H603v1.7c0,2.3-0.7,3.6-3.8,3.6h-6v-5.1h7.6v-4.6h-7.6v-5h6
				c3.1,0,3.8,1.4,3.8,3.6v1.6h4.1V132h-25.2V137.2z"/>
			<path class="st2" d="M609.1,137.2h4.5v14.6h-4.5v5.1h25.2v-10.5h-4.1v1.7c0,2.3-0.7,3.6-3.8,3.6h-6v-5.1h7.6v-4.6h-7.6v-5h6
				c3.1,0,3.8,1.4,3.8,3.6v1.6h4.1V132h-25.2V137.2z"/>
			<path class="st2" d="M635.6,144.2h4.7v-3.4c0-2.3,0.7-3.6,3.8-3.6h1.9v14.6h-4.5v5.1h15.9v-5.1h-4.6v-14.6h2
				c3.1,0,3.8,1.4,3.8,3.6v3.4h4.7V132h-27.7V144.2z"/>
			<path class="st2" d="M673.4,145.2c-2.4-0.5-4.5-1-4.5-2.7c0-0.8,0.7-1.4,1.8-1.4c2,0,3.7,0.9,3.8,4.2h5.5v-7h-4.5l0.1,3.7
				c-0.6-2.5-2.6-4.1-6-4.1c-3.3,0-6.2,2.5-6.2,5.9c0,4.4,3.9,5.7,7,6.4c3.3,0.8,5,1,5,2.9c0,0.9-0.7,1.5-2,1.5
				c-2.8,0-4.2-1.4-4.2-4.4h-5.4v7.1h4.5l-0.2-3.3c0.7,2.9,3.5,3.6,5.6,3.6c3.5,0,7.2-1.6,7.2-5.9
				C681,147.3,676.8,145.9,673.4,145.2z"/>
			<path class="st2" d="M691.3,133.4h-2.9c0,5.3-2.7,7.5-6.5,7.4v3h3.6v8.1c0,3.9,3.4,5.7,6.6,5.7s6.6-1.8,6.6-5.5v-3.3h-3.5v2.3
				c0,1.1-0.9,1.7-1.9,1.7c-1,0-1.9-0.6-1.9-1.6v-7.3h7.2v-5.1h-7.3V133.4z"/>
			<path class="st2" d="M718.8,151.6c0,1-0.5,1.1-0.7,1.1c-0.3,0-0.5-0.2-0.5-0.8c0-2.5,0.3-4.3,0.3-7.7c0-4.3-4.2-6.2-8.5-6.2
				c-4.5,0-8.5,1.8-8.5,5.9c0,0.3,0,0.6,0.2,1.5h6c0-2.1,0.8-2.8,2.1-2.8c1.5,0,2.5,0.6,2.5,2v1.5c-0.9-0.1-1.7-0.1-2.4-0.1
				c-6.1,0-9,2.5-9,5.8c0,3.6,3.1,5.7,6.5,5.7c3.3,0,6-2.5,6.3-6.3h0.3c-0.1,0.5-0.1,1.1-0.1,2c0,3.5,2.2,4.1,3.8,4.1
				c3.2,0,4.5-2.2,4.5-5.6v-1.8h-2.8V151.6z M708.4,152.7c-1.1,0-2-0.6-2-1.8c0-1,0.7-2.6,3.5-2.6c0.5,0,1,0,1.6,0.1
				C711.5,151.9,709.8,152.7,708.4,152.7z"/>
			<polygon class="st2" points="738.6,146.2 741.6,143.9 744.7,143.9 744.7,138.7 733.3,138.7 733.3,143.9 735.5,143.9 731.4,147.3 
				731.4,132 722.1,132 722.1,137.2 725.4,137.2 725.4,151.8 722.1,151.8 722.1,156.9 731.4,156.9 731.4,151.8 734.1,149.7 
				735.9,151.8 734,151.8 734,156.9 745.6,156.9 745.6,151.8 743.5,151.8 			"/>
			<path class="st2" d="M757,138c-5,0-10.3,3.2-10.3,9.7c0,5.5,3.7,9.8,10.1,9.8c4,0,6.5-1.9,8.2-5.5l-2.6-1.6
				c-0.8,1.9-2.2,2.8-4.2,2.8c-2.9,0-4.9-1.5-5.1-4.6h12.3c0.2-1.2,0.2-2,0.2-2.9C765.7,140.5,761.4,138,757,138z M753.3,145.4
				c0.4-1.8,1.8-3.3,4-3.3c2,0,3.3,1,3.3,3.3H753.3z"/>
			<path class="st2" d="M777.6,145.2c-2.4-0.5-4.5-1-4.5-2.7c0-0.8,0.7-1.4,1.8-1.4c2,0,3.7,0.9,3.8,4.2h5.5v-7h-4.5l0.1,3.7
				c-0.6-2.5-2.6-4.1-6-4.1c-3.3,0-6.2,2.5-6.2,5.9c0,4.4,3.9,5.7,7,6.4c3.3,0.8,5,1,5,2.9c0,0.9-0.7,1.5-2,1.5
				c-2.8,0-4.2-1.4-4.2-4.4h-5.4v7.1h4.5l-0.2-3.3c0.7,2.9,3.5,3.6,5.6,3.6c3.5,0,7.2-1.6,7.2-5.9
				C785.2,147.3,780.9,145.9,777.6,145.2z"/>
			<path class="st2" d="M793.1,151c-1.8,0-3.2,1.4-3.2,3.2s1.4,3.2,3.2,3.2s3.2-1.4,3.2-3.2S794.9,151,793.1,151z"/>
			<path class="st2" d="M793.1,131.3c-1.7,0-3.4,1.2-3.4,3.5c0,3.2,2,8.6,2,14.5h3c0-6,1.9-11.3,1.9-14.4
				C796.6,132.5,794.8,131.3,793.1,131.3z"/>
		</g>
		<g>
			<path class="st3" d="M237.6,108c0,1.2-0.7,1.4-1.2,1.4c-0.4,0-0.7-0.2-0.7-0.6c0-0.9,0.3-1.9,0.3-3.7c0-2.6-1.5-4.2-4.9-4.2v-0.3
				c4.6-0.1,6.8-2.7,6.8-5.9c0-3.5-3.2-6.7-9.3-6.7h-16.3v5.1h4.5v14.6h-4.5v5.1h15.3v-5.1h-4v-4.7h2.6c2.3,0,3.2,1.2,3.2,2.6
				c0,1.4-0.2,2.4-0.2,3.7c0,2.9,2.2,4.1,5,4.1c3.5,0,6.5-1.6,6.5-5.6V105h-3.2V108z M226.5,99h-2.8v-5.8h3.7c2.6,0,3.7,1.4,3.7,2.9
				C231.1,97.6,230.4,99,226.5,99z"/>
			<path class="st3" d="M251.9,113.5c4,0,6.5-1.9,8.2-5.5l-2.6-1.6c-0.8,1.9-2.2,2.8-4.2,2.8c-2.9,0-4.9-1.5-5.1-4.6h12.3
				c0.2-1.2,0.2-2,0.2-2.9c0-5.1-4.3-7.7-8.8-7.7c-5,0-10.3,3.2-10.3,9.7C241.8,109.2,245.5,113.5,251.9,113.5z M252.4,98.1
				c2,0,3.3,1,3.3,3.3h-7.2C248.8,99.6,250.2,98.1,252.4,98.1z"/>
			<path class="st3" d="M271,113.4c3.5,0,6.2-1.8,7.1-4.2c-0.2,0.9-0.4,3-0.4,3.7h7.9v-5.1h-3.4V88H273v5.1h4c0,1.2,0.1,3.9,0.3,5.2
				c-0.8-2.6-3.3-4-6.5-4c-4.7,0-8.5,3.6-8.5,9.4C262.2,109.1,266.1,113.4,271,113.4z M272.3,98.4c2.7,0,4,1.8,4,5.4
				s-1.2,5.1-3.8,5.1c-2.4,0-3.7-1.9-3.7-5.1C268.8,100.5,270,98.4,272.3,98.4z"/>
			<path class="st3" d="M296.8,113.5c4,0,6.5-1.9,8.2-5.5l-2.6-1.6c-0.8,1.9-2.2,2.8-4.2,2.8c-2.9,0-4.9-1.5-5.1-4.6h12.3
				c0.2-1.2,0.2-2,0.2-2.9c0-5.1-4.3-7.7-8.8-7.7c-5,0-10.3,3.2-10.3,9.7C286.7,109.2,290.4,113.5,296.8,113.5z M297.3,98.1
				c2,0,3.3,1,3.3,3.3h-7.2C293.7,99.6,295.2,98.1,297.3,98.1z"/>
			<path class="st3" d="M317.4,94c-5,0-10.3,3.2-10.3,9.7c0,5.5,3.7,9.8,10.1,9.8c4,0,6.5-1.9,8.2-5.5l-2.6-1.6
				c-0.8,1.9-2.2,2.8-4.2,2.8c-2.9,0-4.9-1.5-5.1-4.6h12.3c0.2-1.2,0.2-2,0.2-2.9C326.2,96.5,321.8,94,317.4,94z M313.8,101.4
				c0.4-1.8,1.8-3.3,4-3.3c2,0,3.3,1,3.3,3.3H313.8z"/>
			<path class="st3" d="M338.8,107.8h-2.3V103c0-2.3,1-3.5,3.2-3.5c1.8,0,2.2,0.8,2.2,3.4v4.8h-2.2v5.1H350v-5.1h-2.3V103
				c0-2.3,1-3.5,3.2-3.5c1.8,0,2.2,0.8,2.2,3.4v4.8h-2.3v5.1h10.6v-5.1H359v-7.1c0-3.9-1.9-6.7-6.2-6.7c-3,0-5.5,1.6-6.5,4.9
				c-0.4-2.9-1.9-4.8-5.1-4.8c-3.8,0-5.9,2.8-6.4,7.1h-0.4c0.2-0.9,0.5-5,0.6-6.5h-7.8v5.1h3.4v8h-3.4v5.1h11.6V107.8z"/>
			<path class="st3" d="M374.1,120.2c2.9,0,6.1-1.5,7.7-5.2l6.9-15.3h2.1v-5.1h-9.7v5.1h2.4c-1.1,2.7-2.1,5.8-2.7,8.2
				c-0.6-2.4-1.5-5.4-2.6-8.2h2.2v-5.1h-11v5.1h2.1l6,12.6c0,4.3-1.9,6-4,6c-1.3,0-2.2-0.3-2.8-1c0.4,0.1,0.8,0.2,1.3,0.2
				c2,0,3.5-1.4,3.5-3.4c0-1.9-1.6-3.5-3.5-3.5c-2.6,0-3.9,1.9-3.9,4.4C368,118.7,370.9,120.2,374.1,120.2z"/>
			<path class="st3" d="M412.6,103.6c0-5.6-4.6-9.7-10.5-9.7c-5.7,0-10.5,4.1-10.5,9.7c0,5.3,4.6,9.9,10.5,9.9
				C407.9,113.5,412.6,108.9,412.6,103.6z M398.3,104c0-4.4,1.2-5.3,3.7-5.3c2.7,0,3.6,1.1,3.6,5.3c0,4.5-0.9,5.3-3.6,5.3
				S398.3,108.4,398.3,104z"/>
			<path class="st3" d="M434.4,94.7h-10.1v5.1h4.2v4.9c0,2.5-1.3,3.5-3.6,3.5c-2,0-2.5-0.6-2.5-3.4v-10h-8.7v5.1h2.7v7.2
				c0,4.2,1.8,6.5,6.4,6.5c2.9,0,6.5-2,7.4-7.1h0.4c-0.2,0.9-0.5,5-0.6,6.5h7.3v-5.1h-2.9V94.7z"/>
			<path class="st3" d="M451.7,107.8h-4.5v-5c0-2.9,1-4.7,2.5-5.5c-0.2,0.5-0.4,0.9-0.4,1.6c0,1.8,1.4,3.2,3.4,3.2
				c2.5,0,3.9-2,3.9-3.9c0-2.1-1.4-4.3-4.8-4.3c-3.3,0-5.4,2.9-6,6h-0.4c0.2-1.5,0.5-3.7,0.5-5.2h-8.1v5.1h3.4v8h-3.4v5.1h13.8
				V107.8z"/>
			<path class="st3" d="M471,109.4c1.4,3.1,4.4,4.2,7.6,4.2c4.6,0,9.6-2.8,9.6-7.9c0-5-3.4-7.1-9-8.1c-5-0.9-5.9-1.8-5.9-3.5
				c0-1.4,1-2.5,2.7-2.5c2.8,0,4.8,2,4.9,5.9h5.9v-10h-5l0.3,4c-1-2.5-3.6-4.1-6.9-4.1c-5.1,0-8.8,3-8.8,7.6c0,5.7,4.3,7.4,9.9,8.4
				c2.9,0.5,5.1,0.8,5.1,3.1c0,1.9-1.6,3-3.6,3c-2.4,0-5.2-1.6-5.3-5.9h-6.1v9.8h5L471,109.4z"/>
			<path class="st3" d="M521.3,99.8v-5.1h-9.7v5.1h2.3c-0.8,2.3-1.5,5.2-1.9,7.2c-0.8-3.5-2.9-9.2-3.9-12.3h-3.9
				c-1.2,3.7-3.1,8.6-4.1,12.3c-0.4-2-1.1-4.9-1.9-7.2h2.3v-5.1h-11v5.1h2.1l6,13.1h4.7c1.1-3.3,2.6-7.9,3.4-11.3
				c0.7,3.3,2.3,8.1,3.4,11.3h4.7l5.4-13.1H521.3z"/>
			<path class="st3" d="M533.6,109.1c-2.9,0-4.9-1.5-5.1-4.6h12.3c0.2-1.2,0.2-2,0.2-2.9c0-5.1-4.3-7.7-8.8-7.7
				c-5,0-10.3,3.2-10.3,9.7c0,5.5,3.7,9.8,10.1,9.8c4,0,6.5-1.9,8.2-5.5l-2.6-1.6C537,108.3,535.6,109.1,533.6,109.1z M532.6,98.1
				c2,0,3.3,1,3.3,3.3h-7.2C529,99.6,530.5,98.1,532.6,98.1z"/>
			<path class="st3" d="M552.5,113.5c4,0,6.5-1.9,8.2-5.5l-2.6-1.6c-0.8,1.9-2.2,2.8-4.2,2.8c-2.9,0-4.9-1.5-5.1-4.6h12.3
				c0.2-1.2,0.2-2,0.2-2.9c0-5.1-4.3-7.7-8.8-7.7c-5,0-10.3,3.2-10.3,9.7C542.4,109.2,546.1,113.5,552.5,113.5z M553,98.1
				c2,0,3.3,1,3.3,3.3h-7.2C549.4,99.6,550.9,98.1,553,98.1z"/>
			<path class="st3" d="M565.5,107.9c0,3.9,3.4,5.7,6.6,5.7c3.2,0,6.6-1.8,6.6-5.5v-3.3h-3.5v2.3c0,1.1-0.9,1.7-1.9,1.7
				c-1,0-1.9-0.6-1.9-1.6v-7.3h7.2v-5.1h-7.3v-5.3h-2.9c0,5.3-2.7,7.5-6.5,7.4v3h3.6V107.9z"/>
			<path class="st3" d="M595.1,102.9c3.3,0.8,5,1,5,2.9c0,0.9-0.7,1.5-2,1.5c-2.8,0-4.2-1.4-4.2-4.4h-5.4v7.1h4.5l-0.2-3.3
				c0.3,1.3,1.1,2.2,2.1,2.8l-0.3,4.2h3.9v-3.4c3.4,0,7.2-1.6,7.2-5.9c0-4.3-4.3-5.7-7.6-6.4c-2.4-0.5-4.6-1-4.6-2.7
				c0-0.8,0.7-1.4,1.8-1.4c2,0,3.7,0.9,3.8,4.2h5.5v-7h-4.5l0.1,3.7c-0.3-1.3-1-2.3-2.1-3.1l0.4-4.3h-4.2v3.3
				c-3.4,0-6.3,2.5-6.3,5.9C588.1,100.9,592,102.2,595.1,102.9z"/>
			<path class="st3" d="M630.5,107.8h-7.2V88H619c0,3.1-1.9,6.1-9.2,6.1v4.4h7.7v9.2h-7.9v5.1h21V107.8z"/>
			<path class="st3" d="M653.6,100.5c0-7.6-4.4-13-10.9-13c-6.4,0-10.9,5.4-10.9,13c0,7.6,4.5,13,10.9,13
				C649,113.5,653.6,108.1,653.6,100.5z M638.4,100.5c0-6.4,1.1-8.4,4.3-8.4c3.4,0,4.3,2.6,4.3,8.4c0,6.5-1,8.4-4.3,8.4
				C639.5,108.9,638.4,106.4,638.4,100.5z"/>
			<path class="st3" d="M677.8,107.8h-4v-4.7h2.6c2.3,0,3.2,1.2,3.2,2.6c0,1.4-0.2,2.4-0.2,3.7c0,2.9,2.2,4.1,5,4.1
				c3.5,0,6.5-1.6,6.5-5.6V105h-3.2v3c0,1.2-0.7,1.4-1.2,1.4c-0.4,0-0.7-0.2-0.7-0.6c0-0.9,0.3-1.9,0.3-3.7c0-2.6-1.5-4.2-4.9-4.2
				v-0.3c4.6-0.1,6.8-2.7,6.8-5.9c0-3.5-3.2-6.7-9.3-6.7h-16.3v5.1h4.5v14.6h-4.5v5.1h15.3V107.8z M673.8,93.2h3.7
				c2.6,0,3.7,1.4,3.7,2.9c0,1.5-0.7,2.9-4.6,2.9h-2.8V93.2z"/>
			<path class="st3" d="M702,113.5c4,0,6.5-1.9,8.2-5.5l-2.6-1.6c-0.8,1.9-2.2,2.8-4.2,2.8c-2.9,0-4.9-1.5-5.1-4.6h12.3
				c0.2-1.2,0.2-2,0.2-2.9c0-5.1-4.3-7.7-8.8-7.7c-5,0-10.3,3.2-10.3,9.7C692,109.2,695.7,113.5,702,113.5z M702.6,98.1
				c2,0,3.3,1,3.3,3.3h-7.2C699,99.6,700.4,98.1,702.6,98.1z"/>
			<path class="st3" d="M719.7,112.9h4.7c1.1-3.3,2.6-7.9,3.4-11.3c0.7,3.3,2.3,8.1,3.4,11.3h4.7l5.4-13.1h2.1v-5.1h-9.7v5.1h2.3
				c-0.8,2.3-1.5,5.2-1.9,7.2c-0.8-3.5-2.9-9.2-3.9-12.3h-3.9c-1.2,3.7-3.1,8.6-4.1,12.3c-0.4-2-1.1-4.9-1.9-7.2h2.3v-5.1h-11v5.1
				h2.1L719.7,112.9z"/>
			<path class="st3" d="M753,102c-6.1,0-9,2.5-9,5.8c0,3.6,3.1,5.7,6.5,5.7c3.3,0,6-2.5,6.3-6.3h0.4c-0.1,0.5-0.1,1.1-0.1,2
				c0,3.5,2.2,4.1,3.8,4.1c3.2,0,4.5-2.2,4.5-5.6v-1.8h-2.8v1.7c0,1-0.5,1.1-0.7,1.1c-0.3,0-0.5-0.2-0.5-0.8c0-2.5,0.3-4.3,0.3-7.7
				c0-4.3-4.2-6.2-8.5-6.2c-4.5,0-8.5,1.8-8.5,5.9c0,0.3,0,0.6,0.2,1.5h6c0-2.1,0.8-2.8,2.1-2.8c1.5,0,2.5,0.6,2.5,2v1.5
				C754.5,102,753.7,102,753,102z M752.2,108.7c-1.1,0-2-0.6-2-1.8c0-1,0.7-2.6,3.5-2.6c0.5,0,1,0,1.6,0.1
				C755.2,107.9,753.6,108.7,752.2,108.7z"/>
			<path class="st3" d="M779.6,107.8h-4.5v-5c0-2.9,1-4.7,2.5-5.5c-0.2,0.5-0.4,0.9-0.4,1.6c0,1.8,1.4,3.2,3.4,3.2
				c2.5,0,3.9-2,3.9-3.9c0-2.1-1.4-4.3-4.8-4.3c-3.3,0-5.4,2.9-6,6h-0.3c0.2-1.5,0.5-3.7,0.5-5.2h-8.1v5.1h3.4v8h-3.4v5.1h13.8
				V107.8z"/>
			<path class="st3" d="M805.3,88H796v5.1h4c0,1.2,0.1,3.9,0.3,5.2c-0.8-2.6-3.3-4-6.5-4c-4.7,0-8.5,3.6-8.5,9.4
				c0,5.3,3.9,9.7,8.8,9.7c3.5,0,6.2-1.8,7.1-4.2c-0.2,0.9-0.4,3-0.4,3.7h7.9v-5.1h-3.4V88z M795.5,108.9c-2.4,0-3.7-1.9-3.7-5.1
				c0-3.3,1.2-5.4,3.5-5.4c2.7,0,4,1.8,4,5.4S798.2,108.9,795.5,108.9z"/>
			<path class="st3" d="M820.2,101.2c-2.4-0.5-4.5-1-4.5-2.7c0-0.8,0.7-1.4,1.8-1.4c2,0,3.7,0.9,3.8,4.2h5.5v-7h-4.5l0.1,3.7
				c-0.6-2.5-2.6-4.1-6-4.1c-3.3,0-6.2,2.5-6.2,5.9c0,4.4,3.9,5.7,7,6.4c3.3,0.8,5,1,5,2.9c0,0.9-0.7,1.5-2,1.5
				c-2.8,0-4.2-1.4-4.2-4.4h-5.4v7.1h4.5l-0.2-3.3c0.7,2.9,3.5,3.6,5.6,3.6c3.5,0,7.2-1.6,7.2-5.9
				C827.8,103.3,823.6,101.9,820.2,101.2z"/>
			<path class="st3" d="M259.9,151.6c0,1-0.5,1.1-0.7,1.1c-0.3,0-0.5-0.2-0.5-0.8c0-2.5,0.3-4.3,0.3-7.7c0-4.3-4.2-6.2-8.5-6.2
				c-4.5,0-8.5,1.8-8.5,5.9c0,0.3,0,0.6,0.2,1.5h6c0-2.1,0.8-2.8,2.1-2.8c1.5,0,2.5,0.6,2.5,2v1.5c-0.9-0.1-1.7-0.1-2.4-0.1
				c-6.1,0-9,2.5-9,5.8c0,3.6,3.1,5.7,6.5,5.7c3.3,0,6-2.5,6.3-6.3h0.4c-0.1,0.5-0.1,1.1-0.1,2c0,3.5,2.2,4.1,3.8,4.1
				c3.2,0,4.5-2.2,4.5-5.6v-1.8h-2.8V151.6z M249.5,152.7c-1.1,0-2-0.6-2-1.8c0-1,0.7-2.6,3.5-2.6c0.5,0,1,0,1.6,0.1
				C252.5,151.9,250.9,152.7,249.5,152.7z"/>
			<path class="st3" d="M284.5,144.7c0-4.2-1.7-6.8-6.3-6.8c-4.1,0-6.7,2.6-7.3,7.6h-0.4c0.2-1.3,0.5-5.4,0.5-6.9h-7.8v5.1h3.4v8
				h-3.4v5.1h12v-5.1h-2.7v-4.5c0-2.5,1.3-3.5,3.7-3.5c2,0,2.5,0.6,2.5,3.4v4.6H276v5.1h10.7v-5.1h-2.2V144.7z"/>
			<path class="st3" d="M307.8,132h-9.3v5.1h4c0,1.2,0.1,3.9,0.3,5.2c-0.8-2.6-3.3-4-6.5-4c-4.7,0-8.5,3.6-8.5,9.4
				c0,5.3,3.9,9.7,8.8,9.7c3.5,0,6.2-1.8,7.1-4.2c-0.2,0.9-0.4,3-0.4,3.7h7.9v-5.1h-3.4V132z M298.1,152.9c-2.4,0-3.7-1.9-3.7-5.1
				c0-3.3,1.2-5.4,3.5-5.4c2.7,0,4,1.8,4,5.4S300.7,152.9,298.1,152.9z"/>
			<path class="st3" d="M326.9,137.2h4.5v14.6h-4.5v5.1H352v-10.5H348v1.7c0,2.3-0.7,3.6-3.8,3.6h-6v-5.1h7.6v-4.6h-7.6v-5h6
				c3.1,0,3.8,1.4,3.8,3.6v1.6h4.1V132h-25.2V137.2z"/>
			<path class="st3" d="M375.1,144.7c0-4.2-1.7-6.8-6.3-6.8c-4.1,0-6.7,2.6-7.3,7.6h-0.4c0.2-1.3,0.5-5.4,0.5-6.9h-7.8v5.1h3.4v8
				h-3.4v5.1h12v-5.1h-2.7v-4.5c0-2.5,1.3-3.5,3.7-3.5c2,0,2.5,0.6,2.5,3.4v4.6h-2.7v5.1h10.7v-5.1h-2.2V144.7z"/>
			<path class="st3" d="M386.9,133.4H384c0,5.3-2.7,7.5-6.5,7.4v3h3.6v8.1c0,3.9,3.4,5.7,6.6,5.7c3.2,0,6.6-1.8,6.6-5.5v-3.3h-3.5
				v2.3c0,1.1-0.9,1.7-1.9,1.7s-1.9-0.6-1.9-1.6v-7.3h7.2v-5.1h-7.3V133.4z"/>
			<path class="st3" d="M406.1,138c-5,0-10.3,3.2-10.3,9.7c0,5.5,3.7,9.8,10.1,9.8c4,0,6.5-1.9,8.2-5.5l-2.6-1.6
				c-0.8,1.9-2.2,2.8-4.2,2.8c-2.9,0-4.9-1.5-5.1-4.6h12.3c0.2-1.2,0.2-2,0.2-2.9C414.9,140.5,410.6,138,406.1,138z M402.5,145.4
				c0.4-1.8,1.8-3.3,4-3.3c2,0,3.3,1,3.3,3.3H402.5z"/>
			<path class="st3" d="M429.8,138c-3.3,0-5.4,2.9-6,6h-0.4c0.2-1.5,0.5-3.7,0.5-5.2h-8.1v5.1h3.4v8h-3.4v5.1h13.8v-5.1h-4.5v-5
				c0-2.9,1-4.7,2.5-5.5c-0.2,0.5-0.4,0.9-0.4,1.6c0,1.8,1.4,3.2,3.4,3.2c2.5,0,3.9-2,3.9-3.9C434.6,140.2,433.1,138,429.8,138z"/>
			<path class="st3" d="M453.2,138c-5.7,0-10.5,4.1-10.5,9.7c0,5.3,4.6,9.9,10.5,9.9c5.8,0,10.5-4.6,10.5-9.9
				C463.7,142.1,459.1,138,453.2,138z M453.1,153.3c-2.7,0-3.7-0.9-3.7-5.3c0-4.4,1.2-5.3,3.7-5.3c2.7,0,3.6,1.1,3.6,5.3
				C456.8,152.6,455.8,153.3,453.1,153.3z"/>
			<path class="st3" d="M485.5,138.7h-10.1v5.1h4.2v4.9c0,2.5-1.3,3.5-3.6,3.5c-2,0-2.5-0.6-2.5-3.4v-10h-8.7v5.1h2.7v7.2
				c0,4.2,1.8,6.5,6.4,6.5c2.9,0,6.5-2,7.4-7.1h0.4c-0.2,0.9-0.5,5-0.6,6.5h7.3v-5.1h-2.9V138.7z"/>
			<path class="st3" d="M502.9,138c-3.3,0-5.4,2.9-6,6h-0.3c0.2-1.5,0.5-3.7,0.5-5.2H489v5.1h3.4v8H489v5.1h13.8v-5.1h-4.5v-5
				c0-2.9,1-4.7,2.5-5.5c-0.2,0.5-0.4,0.9-0.4,1.6c0,1.8,1.4,3.2,3.4,3.2c2.5,0,3.9-2,3.9-3.9C507.7,140.2,506.2,138,502.9,138z"/>
			<path class="st3" d="M530.3,141.5c-5-0.9-5.9-1.8-5.9-3.5c0-1.4,1-2.5,2.7-2.5c2.8,0,4.8,2,4.9,5.9h5.9v-10h-5l0.3,4
				c-1-2.5-3.6-4.1-6.9-4.1c-5.1,0-8.8,3-8.8,7.6c0,5.7,4.3,7.4,9.9,8.4c2.9,0.5,5.1,0.8,5.1,3.1c0,1.9-1.6,3-3.6,3
				c-2.4,0-5.2-1.6-5.3-5.9h-6.1v9.8h5l-0.3-4c1.4,3.1,4.4,4.2,7.6,4.2c4.6,0,9.6-2.8,9.6-7.9C539.3,144.6,535.9,142.5,530.3,141.5z
				"/>
			<path class="st3" d="M568.5,137.2h3.3l-2.3,6.8c-0.6,1.8-1.4,4.5-1.7,6.3c-0.1-1.4-0.7-3.7-1.4-6.3l-1.8-6.8h2.7V132h-11.8v5.1
				h2.7l-1.8,6.7c-0.7,2.7-1.3,5-1.4,6.4c-0.3-1.8-1.1-4.5-1.7-6.3l-2.3-6.8h3.3V132h-13.5v5.1h3l8.1,19.7h5.7
				c1-3.7,2.7-8.6,3.5-12.6c0.8,4,2.4,9,3.4,12.6h5.7l8.1-19.7h3.1V132h-12.8V137.2z"/>
			<path class="st3" d="M581.9,137.2h4.5v14.6h-4.5v5.1h25.2v-10.5H603v1.7c0,2.3-0.7,3.6-3.8,3.6h-6v-5.1h7.6v-4.6h-7.6v-5h6
				c3.1,0,3.8,1.4,3.8,3.6v1.6h4.1V132h-25.2V137.2z"/>
			<path class="st3" d="M609.1,137.2h4.5v14.6h-4.5v5.1h25.2v-10.5h-4.1v1.7c0,2.3-0.7,3.6-3.8,3.6h-6v-5.1h7.6v-4.6h-7.6v-5h6
				c3.1,0,3.8,1.4,3.8,3.6v1.6h4.1V132h-25.2V137.2z"/>
			<path class="st3" d="M635.6,144.2h4.7v-3.4c0-2.3,0.7-3.6,3.8-3.6h1.9v14.6h-4.5v5.1h15.9v-5.1h-4.6v-14.6h2
				c3.1,0,3.8,1.4,3.8,3.6v3.4h4.7V132h-27.7V144.2z"/>
			<path class="st3" d="M673.4,145.2c-2.4-0.5-4.5-1-4.5-2.7c0-0.8,0.7-1.4,1.8-1.4c2,0,3.7,0.9,3.8,4.2h5.5v-7h-4.5l0.1,3.7
				c-0.6-2.5-2.6-4.1-6-4.1c-3.3,0-6.2,2.5-6.2,5.9c0,4.4,3.9,5.7,7,6.4c3.3,0.8,5,1,5,2.9c0,0.9-0.7,1.5-2,1.5
				c-2.8,0-4.2-1.4-4.2-4.4h-5.4v7.1h4.5l-0.2-3.3c0.7,2.9,3.5,3.6,5.6,3.6c3.5,0,7.2-1.6,7.2-5.9
				C681,147.3,676.8,145.9,673.4,145.2z"/>
			<path class="st3" d="M691.3,133.4h-2.9c0,5.3-2.7,7.5-6.5,7.4v3h3.6v8.1c0,3.9,3.4,5.7,6.6,5.7s6.6-1.8,6.6-5.5v-3.3h-3.5v2.3
				c0,1.1-0.9,1.7-1.9,1.7c-1,0-1.9-0.6-1.9-1.6v-7.3h7.2v-5.1h-7.3V133.4z"/>
			<path class="st3" d="M718.8,151.6c0,1-0.5,1.1-0.7,1.1c-0.3,0-0.5-0.2-0.5-0.8c0-2.5,0.3-4.3,0.3-7.7c0-4.3-4.2-6.2-8.5-6.2
				c-4.5,0-8.5,1.8-8.5,5.9c0,0.3,0,0.6,0.2,1.5h6c0-2.1,0.8-2.8,2.1-2.8c1.5,0,2.5,0.6,2.5,2v1.5c-0.9-0.1-1.7-0.1-2.4-0.1
				c-6.1,0-9,2.5-9,5.8c0,3.6,3.1,5.7,6.5,5.7c3.3,0,6-2.5,6.3-6.3h0.3c-0.1,0.5-0.1,1.1-0.1,2c0,3.5,2.2,4.1,3.8,4.1
				c3.2,0,4.5-2.2,4.5-5.6v-1.8h-2.8V151.6z M708.4,152.7c-1.1,0-2-0.6-2-1.8c0-1,0.7-2.6,3.5-2.6c0.5,0,1,0,1.6,0.1
				C711.5,151.9,709.8,152.7,708.4,152.7z"/>
			<polygon class="st3" points="738.6,146.2 741.6,143.9 744.7,143.9 744.7,138.7 733.3,138.7 733.3,143.9 735.5,143.9 731.4,147.3 
				731.4,132 722.1,132 722.1,137.2 725.4,137.2 725.4,151.8 722.1,151.8 722.1,156.9 731.4,156.9 731.4,151.8 734.1,149.7 
				735.9,151.8 734,151.8 734,156.9 745.6,156.9 745.6,151.8 743.5,151.8 			"/>
			<path class="st3" d="M757,138c-5,0-10.3,3.2-10.3,9.7c0,5.5,3.7,9.8,10.1,9.8c4,0,6.5-1.9,8.2-5.5l-2.6-1.6
				c-0.8,1.9-2.2,2.8-4.2,2.8c-2.9,0-4.9-1.5-5.1-4.6h12.3c0.2-1.2,0.2-2,0.2-2.9C765.7,140.5,761.4,138,757,138z M753.3,145.4
				c0.4-1.8,1.8-3.3,4-3.3c2,0,3.3,1,3.3,3.3H753.3z"/>
			<path class="st3" d="M777.6,145.2c-2.4-0.5-4.5-1-4.5-2.7c0-0.8,0.7-1.4,1.8-1.4c2,0,3.7,0.9,3.8,4.2h5.5v-7h-4.5l0.1,3.7
				c-0.6-2.5-2.6-4.1-6-4.1c-3.3,0-6.2,2.5-6.2,5.9c0,4.4,3.9,5.7,7,6.4c3.3,0.8,5,1,5,2.9c0,0.9-0.7,1.5-2,1.5
				c-2.8,0-4.2-1.4-4.2-4.4h-5.4v7.1h4.5l-0.2-3.3c0.7,2.9,3.5,3.6,5.6,3.6c3.5,0,7.2-1.6,7.2-5.9
				C785.2,147.3,780.9,145.9,777.6,145.2z"/>
			<path class="st3" d="M793.1,131.3c-1.7,0-3.4,1.2-3.4,3.5c0,3.2,2,8.6,2,14.5h3c0-6,1.9-11.3,1.9-14.4
				C796.6,132.5,794.8,131.3,793.1,131.3z"/>
			<path class="st3" d="M793.1,151c-1.8,0-3.2,1.4-3.2,3.2s1.4,3.2,3.2,3.2s3.2-1.4,3.2-3.2S794.9,151,793.1,151z"/>
		</g>
	</g>
	<g>
		<g>
			<path class="st4" d="M25.7,62.2c-2.2,0-4-1.8-4-4v-10c0-2.2,1.8-4,4-4h4.8V23.8c-3.1,0-3.1,0.4-3.1,3.1v6.6c0,2.2-1.8,4-4,4h-9.1
				c-2.2,0-4-1.8-4-4V9.8c0-2.2,1.8-4,4-4H68c2.2,0,4,1.8,4,4v23.7c0,2.2-1.8,4-4,4h-9.2c-2.2,0-4-1.8-4-4v-6.6c0-2.7,0-3.1-3.2-3.1
				v20.4h4.9c2.2,0,4,1.8,4,4v10c0,2.2-1.8,4-4,4C56.5,62.2,25.7,62.2,25.7,62.2z"/>
			<path class="st4" d="M68,9.8v23.7h-9.2v-6.6c0-4.4-1.3-7.1-7.3-7.1h-3.8v28.4h8.9v10H25.7v-10h8.8V19.8h-3.7
				c-6.1,0-7.3,2.7-7.3,7.1v6.6h-9.1V9.8H68 M68,1.8H14.3c-4.4,0-8,3.6-8,8v23.7c0,4.4,3.6,8,8,8h7c-2.2,1.4-3.6,3.9-3.6,6.7v10
				c0,4.4,3.6,8,8,8h30.9c4.4,0,8-3.6,8-8v-10c0-2.8-1.4-5.3-3.6-6.7h7c4.4,0,8-3.6,8-8V9.8C76,5.4,72.4,1.8,68,1.8L68,1.8z"/>
		</g>
		<g>
			<path class="st4" d="M102.1,62.2c-1.7,0-3.2-1.1-3.8-2.7c-0.7-1.9-1.7-5-2.9-8.6c-1,3.1-1.9,6-2.8,8.5c-0.6,1.6-2.1,2.7-3.8,2.7
				h-9c-1.6,0-3-0.9-3.6-2.3L65.7,36.7h-1.4c-2.2,0-4-1.8-4-4v-9.9c0-2.2,1.8-4,4-4h21.3c1.5,0,2.9,0.9,3.5,2.1
				c0.7-1.3,2-2.1,3.5-2.1h7.5c1.4,0,2.6,0.7,3.3,1.8c0.7-1.1,1.9-1.8,3.3-1.8h18.9c2.2,0,4,1.8,4,4v9.9c0,2.2-1.8,4-4,4h-1.3
				l-9.5,23c-0.6,1.5-2.1,2.5-3.7,2.5H102.1z"/>
			<path class="st4" d="M125.7,22.8v9.9h-4l-10.5,25.5h-9c-2.2-6.2-5.2-15.5-6.7-22c-1.5,6.5-4.4,15.6-6.6,22h-9L68.3,32.7h-4v-9.9
				h21.3v9.9H81c1.6,4.4,3.1,10.1,3.7,14c1.8-7.1,5.5-16.7,7.9-23.9h7.5c2,6.1,6,17.1,7.5,23.9c0.7-3.9,2.1-9.6,3.6-14h-4.5v-9.9
				L125.7,22.8 M125.7,14.8h-18.9c-1.2,0-2.3,0.3-3.3,0.7c-1-0.5-2.2-0.7-3.3-0.7h-7.5c-1.3,0-2.5,0.3-3.5,0.8
				c-1.1-0.5-2.3-0.8-3.5-0.8H64.3c-4.4,0-8,3.6-8,8v9.9c0,4,3,7.3,6.8,7.9l9.5,20.9c1.3,2.9,4.1,4.7,7.3,4.7h9
				c2.7,0,5.2-1.4,6.6-3.5c1.5,2.2,3.9,3.5,6.6,3.5h9c3.2,0,6.2-2,7.4-4.9l8.5-20.7c3.8-0.7,6.6-3.9,6.6-7.9v-9.9
				C133.7,18.4,130.1,14.8,125.7,14.8L125.7,14.8z"/>
		</g>
		<g>
			<path class="st4" d="M147.6,63.3c-13.5,0-24.5-10.4-24.5-23.2s10.7-22.8,24.5-22.8s24.5,10,24.5,22.8
				C172,52.7,160.8,63.3,147.6,63.3z M147.5,34.6c-2.2,0-3.1,0-3.1,6.3c0,4.4,0.6,5.6,0.8,5.9c0,0,0.3,0.3,2.4,0.3
				c1.8,0,2.3-0.2,2.4-0.3c0.1-0.1,0.7-1.1,0.7-6C150.6,34.6,149.9,34.6,147.5,34.6z"/>
			<path class="st4" d="M147.6,21.3c11.5,0,20.5,8,20.5,18.8c0,10.3-9.2,19.2-20.5,19.2c-11.5,0-20.5-8.9-20.5-19.2
				C127.1,29.3,136.5,21.3,147.6,21.3 M147.5,51.2c5.3,0,7.1-1.4,7.1-10.3c0-8.2-1.8-10.3-7.1-10.3c-4.8,0-7.1,1.8-7.1,10.3
				C140.3,49.4,142.2,51.2,147.5,51.2 M147.6,13.3c-7.4,0-14.4,2.6-19.7,7.4c-5.7,5.1-8.8,12-8.8,19.5c0,15,12.8,27.2,28.5,27.2
				c7.5,0,14.6-2.8,20-7.9s8.5-12.1,8.5-19.2C176,25.1,163.5,13.3,147.6,13.3L147.6,13.3z"/>
		</g>
		<g>
			<path class="st4" d="M206.1,63.3c-2.9,0-5.5-0.5-7.7-1.6c-0.7,0.7-1.7,1.1-2.7,1.1h-8.8c-2.2,0-4-1.8-4-4V45.1
				c0-1.4,0.7-2.6,1.8-3.3c-1.7-2.2-2.8-5.1-2.8-9c0-8.6,7.1-15.4,16.1-15.4c3.2,0,6.1,0.6,8.5,1.9c0.7-0.8,1.8-1.2,2.8-1.2h8.7
				c2.2,0,4,1.8,4,4v13.5c0,1.2-0.5,2.2-1.3,2.9c2.1,2.3,3.5,5.4,3.5,9.4C224.2,57.1,216.9,63.3,206.1,63.3z"/>
			<path class="st4" d="M198,21.3c6.6,0,10.4,3.1,11.6,8l-0.3-7.3h8.7v13.5h-10.6c-0.1-6.3-3.6-8.1-7.4-8.1c-2.1,0-3.4,1.1-3.4,2.7
				c0,3.3,4.1,4.2,8.8,5.2c6.5,1.4,14.8,4.1,14.8,12.5s-7.3,11.4-14.1,11.4c-3.9,0-9.4-1.4-10.8-6.9l0.4,6.5h-8.8V45.1h10.4
				c-0.1,6,2.8,8.6,8.2,8.6c2.6,0,3.9-1.2,3.9-2.9c0-3.5-3.5-4.1-9.8-5.6c-6.1-1.4-13.7-3.9-13.7-12.5
				C185.9,26.1,191.6,21.3,198,21.3 M197.3,45.1L197.3,45.1 M198,13.3c-11.3,0-20.1,8.5-20.1,19.4c0,3.2,0.7,6,1.9,8.6
				c-0.6,1.1-0.9,2.4-0.9,3.7v13.8c0,4.4,3.6,8,8,8h8.8c1.1,0,2.2-0.2,3.1-0.6c2.2,0.7,4.6,1.1,7.3,1.1c13,0,22.1-8,22.1-19.4
				c0-3.6-0.9-6.8-2.7-9.6c0.3-0.9,0.5-1.8,0.5-2.7V22c0-4.4-3.6-8-8-8h-8.7c-1.1,0-2.2,0.2-3.2,0.7C203.7,13.8,201,13.3,198,13.3
				L198,13.3z"/>
		</g>
		<g>
			<path class="st4" d="M260,62.2c-1.7,0-3.2-1.1-3.8-2.7c-0.7-1.9-1.7-5-2.9-8.6c-1,3.1-1.9,6-2.8,8.5c-0.6,1.6-2.1,2.7-3.8,2.7h-9
				c-1.6,0-3-0.9-3.6-2.3l-10.5-23.1h-1.4c-2.2,0-4-1.8-4-4v-9.9c0-2.2,1.8-4,4-4h21.3c1.5,0,2.9,0.9,3.5,2.1c0.7-1.3,2-2.1,3.5-2.1
				h7.5c1.4,0,2.6,0.7,3.3,1.8c0.7-1.1,1.9-1.8,3.3-1.8h18.9c2.2,0,4,1.8,4,4v9.9c0,2.2-1.8,4-4,4h-1.3l-9.5,23
				c-0.6,1.5-2.1,2.5-3.7,2.5C269,62.2,260,62.2,260,62.2z"/>
			<path class="st4" d="M283.6,22.8v9.9h-4l-10.5,25.5h-9c-2.2-6.2-5.2-15.5-6.7-22c-1.5,6.5-4.4,15.6-6.6,22h-9l-11.6-25.5h-4v-9.9
				h21.3v9.9h-4.6c1.6,4.4,3.1,10.1,3.7,14c1.8-7.1,5.5-16.7,7.9-23.9h7.5c2,6.1,6,17.1,7.5,23.9c0.7-3.9,2.1-9.6,3.6-14h-4.5v-9.9
				L283.6,22.8 M283.6,14.8h-18.9c-1.2,0-2.3,0.3-3.3,0.7c-1-0.5-2.2-0.7-3.3-0.7h-7.5c-1.3,0-2.5,0.3-3.5,0.8
				c-1.1-0.5-2.3-0.8-3.5-0.8h-21.3c-4.4,0-8,3.6-8,8v9.9c0,4,3,7.3,6.8,7.9l9.5,20.9c1.3,2.9,4.1,4.7,7.3,4.7h9
				c2.7,0,5.2-1.4,6.6-3.5c1.5,2.2,3.9,3.5,6.6,3.5h9c3.2,0,6.2-2,7.4-4.9l8.5-20.7c3.8-0.7,6.6-3.9,6.6-7.9v-9.9
				C291.6,18.4,288,14.8,283.6,14.8L283.6,14.8z"/>
		</g>
		<g>
			<path class="st4" d="M304.6,63.3c-13.9,0-23.6-9.5-23.6-23.1c0-15,12.1-22.9,24-22.9c10.4,0,21,6.5,21,18.9c0,2-0.1,3.8-0.5,6.3
				c-0.2,1.4-1.2,2.5-2.4,3c1.4,1.1,1.9,3.1,1.1,4.8C320.1,59.1,313.6,63.3,304.6,63.3z M303.6,45.9c0.9,0.6,2.1,1,3.9,1
				c1.5,0,2.5-0.3,3.3-1H303.6z"/>
			<path class="st4" d="M305,21.3c8.6,0,17,5,17,14.9c0,1.7-0.1,3.3-0.5,5.6h-23.9c0.4,6,4.3,9,9.9,9c3.9,0,6.7-1.6,8.2-5.4l5,3.2
				c-3.3,7.1-8.3,10.7-16,10.7c-12.4,0-19.6-8.4-19.6-19.1C285,27.6,295.3,21.3,305,21.3 M297.8,35.7h14.1c0.1-4.3-2.5-6.3-6.3-6.3
				C301.4,29.4,298.6,32.3,297.8,35.7 M305,13.3c-13.6,0-28,9.4-28,26.9c0,7.5,2.6,14.3,7.4,19.2c5.1,5.2,12,7.9,20.2,7.9
				c10.6,0,18.4-5.1,23.2-15.3c0.9-1.9,1-3.9,0.4-5.8c0.6-0.9,1-1.9,1.2-3c0.5-3,0.6-5.1,0.6-7C330,22.9,319.5,13.3,305,13.3
				L305,13.3z"/>
		</g>
		<g>
			<path class="st4" d="M344.2,63.3c-13.9,0-23.6-9.5-23.6-23.1c0-15,12.1-22.9,24-22.9c10.4,0,21,6.5,21,18.9c0,2-0.1,3.8-0.5,6.3
				c-0.2,1.4-1.2,2.5-2.4,3c1.4,1.1,1.9,3.1,1.1,4.8C359.7,59.1,353.3,63.3,344.2,63.3z M343.2,45.9c0.9,0.6,2.1,1,3.9,1
				c1.5,0,2.5-0.3,3.3-1H343.2z"/>
			<path class="st4" d="M344.6,21.3c8.6,0,17,5,17,14.9c0,1.7-0.1,3.3-0.5,5.6h-23.9c0.4,6,4.3,9,9.9,9c3.9,0,6.7-1.6,8.2-5.4l5,3.2
				c-3.3,7.1-8.3,10.7-16,10.7c-12.4,0-19.6-8.4-19.6-19.1C324.6,27.6,335,21.3,344.6,21.3 M337.5,35.7h14.1
				c0.1-4.3-2.5-6.3-6.3-6.3C341,29.4,338.2,32.3,337.5,35.7 M344.6,13.3c-13.6,0-28,9.4-28,26.9c0,7.5,2.6,14.3,7.4,19.2
				c5.1,5.2,12,7.9,20.2,7.9c10.6,0,18.4-5.1,23.2-15.3c0.9-1.9,1-3.9,0.4-5.8c0.6-0.9,1-1.9,1.2-3c0.5-3,0.6-5.1,0.6-7
				C369.6,22.9,359.1,13.3,344.6,13.3L344.6,13.3z"/>
		</g>
		<g>
			<path class="st4" d="M382.2,63.5c-8.3,0-16.8-5.2-16.8-15.1V36.7h-2.9c-2.2,0-4-1.8-4-4v-5.8c0-1.1,0.4-2.1,1.2-2.9
				c0.7-0.7,1.8-1.1,2.8-1.1h0.4c2.6,0,4.6-0.7,5.9-2c1.6-1.6,2.5-4.5,2.4-8.3c0-1.1,0.4-2.1,1.2-2.8c0.8-0.8,1.8-1.2,2.8-1.2h5.6
				c2.2,0,4,1.8,4,4v6.3h10.1c2.2,0,4,1.8,4,4v9.9c0,2.2-1.8,4-4,4h-10V40c0.7-1,1.9-1.7,3.3-1.7h6.7c2.2,0,4,1.8,4,4v6.4
				C398.9,58.4,390.5,63.5,382.2,63.5z"/>
			<path class="st4" d="M380.8,12.5v10.3h14.1v9.9h-14v14.2c0,2.1,1.6,3.2,3.6,3.2s3.7-1.1,3.7-3.3v-4.5h6.7v6.4
				c0,7.3-6.6,10.7-12.8,10.7c-6.2,0-12.8-3.6-12.8-11.1V32.7h-6.9v-5.8c0.1,0,0.2,0,0.4,0c7.3,0,12.4-4.2,12.4-14.3h5.6 M380.8,4.5
				h-5.6c-2.1,0-4.2,0.9-5.7,2.4s-2.3,3.6-2.3,5.7c0,2.6-0.5,4.7-1.3,5.5c-0.7,0.7-2.2,0.8-3.1,0.8h-0.2h-0.1
				c-2.1,0-4.1,0.8-5.6,2.3s-2.4,3.6-2.4,5.7v5.8c0,4.1,3,7.4,6.9,7.9v7.8c0,10.9,8.9,19.1,20.8,19.1c5,0,9.8-1.5,13.4-4.2
				c4.7-3.5,7.4-8.6,7.4-14.6v-6.4c0-1.8-0.6-3.5-1.6-4.8c1-1.3,1.6-3,1.6-4.8v-9.9c0-4.4-3.6-8-8-8h-6.1v-2.3
				C388.8,8.1,385.2,4.5,380.8,4.5L380.8,4.5z"/>
		</g>
		<g>
			<path class="st4" d="M430.7,63.3c-12.5,0-22.2-10.1-22.2-23c0-15.1,11.9-23,23.6-23c10.2,0,17.6,5.9,17.6,14.1
				c0,4.2-2.1,7.7-5.3,9.6l6.2,6.4c1.2,1.3,1.5,3.2,0.6,4.8C446.8,59.7,440.2,63.3,430.7,63.3z M428,35.5c-0.3,1-0.3,2-0.3,2.5
				c0,4.5,3,6.9,5.8,6.9c0.7,0,2.1,0,3.9-2.5C432.7,42.1,429.3,39.5,428,35.5z"/>
			<path class="st4" d="M432.1,21.3c6.9,0,13.6,3.5,13.6,10.1c0,4.3-3.2,7.1-7.1,7.1c-4.2,0-7.1-2.2-7.1-6.9c0-1.7,0.6-3.2,1.7-4.3
				c-6.3,0.2-9.5,5.2-9.5,10.7c0,7,5,10.9,9.8,10.9c2.8,0,5.5-1.3,7.9-5.3l6.3,6.5c-3.7,6.4-9.2,9.2-17,9.2
				c-10.5,0-18.2-8.7-18.2-19C412.5,27.1,423,21.3,432.1,21.3 M432.1,13.3c-13.7,0-27.6,9.3-27.6,27c0,15.1,11.5,27,26.2,27
				c10.9,0,18.9-4.4,23.9-13.2c1.8-3.1,1.3-7-1.2-9.6l-3.3-3.4c2.2-2.6,3.5-6,3.5-9.8C453.7,20.9,444.6,13.3,432.1,13.3L432.1,13.3z
				"/>
		</g>
		<g>
			<path class="st4" d="M473.3,62.2c-0.3,0-0.6,0-0.8-0.1c-0.3,0.1-0.5,0.1-0.8,0.1h-23.3c-2.2,0-4-1.8-4-4v-10c0-2.2,1.8-4,4-4h2.5
				V23.8h-2.5c-2.2,0-4-1.8-4-4v-10c0-2.2,1.8-4,4-4h18c2.2,0,4,1.8,4,4c0,2.8-0.2,6.5-0.6,10.4c3.1-2,6.6-2.9,9.7-2.9
				c5.3,0,14.3,2.2,14.3,17.3v9.6h0.3c2.2,0,4,1.8,4,4v10c0,2.2-1.8,4-4,4C494.1,62.2,473.3,62.2,473.3,62.2z M471.6,44.2
				c0.3,0,0.6,0,0.8,0.1c0.3-0.1,0.5-0.1,0.8-0.1h1.2v-5.1c0-1.9-0.2-2.8-0.3-3.2c-0.1,0-0.3,0-0.6,0c-0.8,0-3.1,0-3.1,5.9v2.5h1.2
				V44.2z"/>
			<path class="st4" d="M466.4,9.8c0.1,6.9-1.4,19.2-3.2,27.7h0.7c2.2-12.6,9.9-16.2,15.6-16.2c7.7,0,10.3,5.3,10.3,13.3v13.6h4.3
				v10h-20.9v-10h5.2v-9.1c0-5.6-1.2-7.3-4.9-7.3c-4.1,0-7.1,3-7.1,9.9v6.5h5.2v10h-23.3v-10h6.5V19.8h-6.5v-10L466.4,9.8
				 M466.4,1.8h-18c-4.4,0-8,3.6-8,8v10c0,3.9,2.8,7.2,6.5,7.9v12.6c-3.7,0.7-6.5,3.9-6.5,7.9v10c0,4.4,3.6,8,8,8h23.3
				c0.3,0,0.5,0,0.8,0s0.5,0,0.8,0h20.9c4.4,0,8-3.6,8-8v-10c0-3.1-1.7-5.7-4.3-7.1v-6.5c0-6-1.2-10.6-3.7-14.2
				c-2.2-3.2-6.6-7.1-14.6-7.1c-1.7,0-3.5,0.2-5.3,0.6c0.1-1.5,0.1-2.9,0.1-4.2C474.4,5.4,470.8,1.8,466.4,1.8L466.4,1.8z"/>
		</g>
		<g>
			<path class="st4" d="M508.9,63.3c-9.7,0-16.7-6.4-16.7-15.2c0-3,1.1-6.3,3.5-9c-0.9-0.6-1.5-1.5-1.8-2.6c-0.4-2-0.4-2.9-0.4-3.7
				c0-9.4,8-15.5,20.5-15.5c12.3,0,20.6,6.5,20.6,16.1c0,2.7-0.1,5-0.2,7h3.4c2.2,0,4,1.8,4,4v3.4c0,9.4-4.8,14.9-12.8,14.9
				c-3.9,0-7-1.4-9-4C517.1,61.7,513.3,63.3,508.9,63.3z M513.1,45.6c-0.2,0.1-0.3,0.1-0.5,0.2C512.7,45.8,512.9,45.7,513.1,45.6z"
				/>
			<path class="st4" d="M514,21.3c8.5,0,16.6,3.7,16.6,12.1c0,6.5-0.6,10.1-0.6,15c0,1.1,0.3,1.5,0.9,1.5c0.5,0,1.4-0.1,1.4-2.1
				v-3.3h5.5v3.4c0,6.7-2.7,10.9-8.8,10.9c-3.1,0-7.4-1.1-7.4-8c0-1.7,0.1-2.8,0.3-3.8h-0.7c-0.7,7.5-5.9,12.3-12.3,12.3
				c-6.7,0-12.7-4.1-12.7-11.2c0-6.3,5.7-11.2,17.5-11.2c1.4,0,3,0.1,4.7,0.3v-3c0-2.8-2-3.9-4.9-3.9c-2.5,0-4.1,1.4-4,5.5h-11.6
				c-0.3-1.8-0.3-2.4-0.3-3C497.6,24.7,505.3,21.3,514,21.3 M512.2,49.9c2.6,0,5.8-1.5,6.1-8.3c-1.2-0.2-2.2-0.3-3.1-0.3
				c-5.4,0-6.9,3-6.9,5C508.3,48.7,510,49.9,512.2,49.9 M514,13.3c-14.6,0-24.5,7.8-24.5,19.5c0,1,0,2.2,0.5,4.5
				c0.1,0.7,0.3,1.3,0.6,1.9c-1.7,2.9-2.5,6-2.5,9c0,10.9,8.9,19.2,20.7,19.2c4.1,0,7.8-1.1,10.9-3.2c2.5,1.7,5.6,2.6,9.2,2.6
				c5.4,0,10.1-2.2,13.1-6.2c2.4-3.3,3.7-7.6,3.7-12.8v-3.4c0-4.2-3.2-7.6-7.2-8c0-1,0-2,0-3c0-6.7-3.1-12.3-8.8-16
				C524.4,14,518.2,13.3,514,13.3L514,13.3z"/>
		</g>
		<g>
			<path class="st4" d="M563.5,62.2c-0.3,0-0.6,0-0.8-0.1c-0.3,0.1-0.5,0.1-0.8,0.1h-23.3c-2.2,0-4-1.8-4-4v-10c0-2.2,1.8-4,4-4h2.5
				v-7.5h-2.5c-2.2,0-4-1.8-4-4v-9.9c0-2.2,1.8-4,4-4h15.2c1.4,0,2.6,0.7,3.3,1.8c2.9-2.2,6.4-3.3,10.6-3.3
				c10.5,0,16.3,6.1,16.3,17.2v9.7h0.3c2.2,0,4,1.8,4,4v10c0,2.2-1.8,4-4,4H563.5z M561.9,44.2c0.3,0,0.6,0,0.8,0.1
				c0.3-0.1,0.5-0.1,0.8-0.1h1.2v-4.8c0-1.4-0.1-2.2-0.2-2.6c-0.2,0-0.4,0-0.7,0c-3,0-3.1,0.8-3.1,2.7v4.8h1.2V44.2z"/>
			<path class="st4" d="M567.8,21.3c9,0,12.3,5.1,12.3,13.2v13.7h4.3v10h-20.9v-10h5.2v-8.8c0-5.4-1.1-6.7-4.9-6.7
				c-4.6,0-7.1,2-7.1,6.7v8.8h5.2v10h-23.3v-10h6.5V32.7h-6.5v-9.9h15.2c0.1,2.8-0.5,10.8-1,13.3h0.7
				C554.8,26.4,559.8,21.3,567.8,21.3 M567.8,13.3c-3.9,0-7.3,0.8-10.3,2.4c-1.1-0.6-2.3-0.9-3.6-0.9h-15.2c-4.4,0-8,3.6-8,8v9.9
				c0,3.7,2.6,6.9,6,7.8c-3.5,0.9-6,4-6,7.8v10c0,4.4,3.6,8,8,8H562c0.3,0,0.5,0,0.8,0s0.5,0,0.8,0h20.9c4.4,0,8-3.6,8-8v-10
				c0-3.1-1.7-5.7-4.3-7.1v-6.6C588.1,21.2,580.5,13.3,567.8,13.3L567.8,13.3z M564.7,39L564.7,39L564.7,39L564.7,39z"/>
		</g>
		<g>
			<path class="st4" d="M604.6,63.3c-12.5,0-22.2-10.1-22.2-23c0-15.1,11.9-23,23.7-23c10.2,0,17.6,5.9,17.6,14.1
				c0,4.2-2.1,7.7-5.3,9.6l6.2,6.4c1.2,1.3,1.5,3.2,0.6,4.8C620.8,59.7,614.1,63.3,604.6,63.3z M602,35.5c-0.3,1-0.3,2-0.3,2.5
				c0,4.5,3,6.9,5.8,6.9c0.7,0,2.1,0,3.9-2.5C606.6,42.1,603.3,39.5,602,35.5z"/>
			<path class="st4" d="M606.1,21.3c6.9,0,13.6,3.5,13.6,10.1c0,4.3-3.2,7.1-7.1,7.1c-4.2,0-7.1-2.2-7.1-6.9c0-1.7,0.6-3.2,1.7-4.3
				c-6.3,0.2-9.5,5.2-9.5,10.7c0,7,5,10.9,9.8,10.9c2.8,0,5.5-1.3,7.9-5.3l6.3,6.5c-3.7,6.4-9.2,9.2-17,9.2
				c-10.5,0-18.2-8.7-18.2-19C586.4,27.1,597,21.3,606.1,21.3 M606.1,13.3c-13.7,0-27.7,9.3-27.7,27c0,15.1,11.5,27,26.2,27
				c10.9,0,18.9-4.4,23.9-13.2c1.8-3.1,1.3-7-1.2-9.6l-3.3-3.4c2.2-2.6,3.5-6,3.5-9.8C627.7,20.9,618.6,13.3,606.1,13.3L606.1,13.3z
				"/>
		</g>
		<g>
			<path class="st4" d="M642.6,63.3c-13.9,0-23.6-9.5-23.6-23.1c0-15,12.1-22.9,24-22.9c10.4,0,21,6.5,21,18.9c0,2-0.1,3.8-0.5,6.3
				c-0.2,1.4-1.2,2.5-2.4,3c1.4,1.1,1.9,3.1,1.1,4.8C658.1,59.1,651.7,63.3,642.6,63.3z M641.6,45.9c0.9,0.6,2.1,1,3.9,1
				c1.5,0,2.5-0.3,3.3-1H641.6z"/>
			<path class="st4" d="M643,21.3c8.6,0,17,5,17,14.9c0,1.7-0.1,3.3-0.5,5.6h-23.9c0.4,6,4.3,9,9.9,9c3.9,0,6.7-1.6,8.2-5.4l5,3.2
				c-3.3,7.1-8.3,10.7-16,10.7c-12.4,0-19.6-8.4-19.6-19.1C623,27.6,633.3,21.3,643,21.3 M635.9,35.7H650c0.1-4.3-2.5-6.3-6.3-6.3
				C639.4,29.4,636.6,32.3,635.9,35.7 M643,13.3c-13.6,0-28,9.4-28,26.9c0,7.5,2.6,14.3,7.4,19.2c5.1,5.2,12,7.9,20.2,7.9
				c10.6,0,18.4-5.1,23.2-15.3c0.9-1.9,1-3.9,0.4-5.8c0.6-0.9,1-1.9,1.2-3c0.5-3,0.6-5.1,0.6-7C668,22.9,657.5,13.3,643,13.3
				L643,13.3z"/>
		</g>
		<g>
			<path class="st4" d="M683.7,63.3c-2.9,0-5.5-0.5-7.7-1.6c-0.7,0.7-1.7,1.1-2.7,1.1h-8.8c-2.2,0-4-1.8-4-4V45.1
				c0-1.4,0.7-2.6,1.8-3.3c-1.7-2.2-2.8-5.1-2.8-9c0-8.6,7.1-15.4,16.1-15.4c3.2,0,6.1,0.6,8.5,1.9c0.8-0.8,1.8-1.2,2.8-1.2h8.7
				c2.2,0,4,1.8,4,4v13.5c0,1.2-0.5,2.2-1.3,2.9c2.1,2.3,3.5,5.4,3.5,9.4C701.8,57.1,694.5,63.3,683.7,63.3z"/>
			<path class="st4" d="M675.6,21.3c6.6,0,10.4,3.1,11.6,8l-0.3-7.3h8.7v13.5H685c-0.1-6.3-3.6-8.1-7.4-8.1c-2.1,0-3.4,1.1-3.4,2.7
				c0,3.3,4.1,4.2,8.8,5.2c6.5,1.4,14.8,4.1,14.8,12.5s-7.3,11.4-14.1,11.4c-3.9,0-9.4-1.4-10.8-6.9l0.4,6.5h-8.8V45.1H675
				c-0.1,6,2.8,8.6,8.2,8.6c2.6,0,3.9-1.2,3.9-2.9c0-3.5-3.5-4.1-9.8-5.6c-6.1-1.4-13.7-3.9-13.7-12.5
				C663.5,26.1,669.2,21.3,675.6,21.3 M675,45.1L675,45.1 M675.6,13.3c-11.3,0-20.1,8.5-20.1,19.4c0,3.2,0.7,6,1.9,8.6
				c-0.6,1.1-0.9,2.4-0.9,3.7v13.8c0,4.4,3.6,8,8,8h8.8c1.1,0,2.2-0.2,3.1-0.6c2.2,0.7,4.6,1.1,7.3,1.1c13,0,22.1-8,22.1-19.4
				c0-3.6-0.9-6.8-2.7-9.6c0.3-0.9,0.5-1.8,0.5-2.7V22c0-4.4-3.6-8-8-8h-8.7c-1.1,0-2.2,0.2-3.2,0.7
				C681.3,13.8,678.6,13.3,675.6,13.3L675.6,13.3z"/>
		</g>
		<g>
			<path class="st4" d="M733.3,63.5c-8.3,0-16.8-5.2-16.8-15.1V36.7h-2.9c-2.2,0-4-1.8-4-4v-5.8c0-1.1,0.4-2.1,1.2-2.9
				c0.7-0.7,1.8-1.1,2.8-1.1h0.4c2.6,0,4.6-0.7,5.9-2c1.6-1.6,2.5-4.5,2.4-8.3c0-1.1,0.4-2.1,1.2-2.8s1.8-1.2,2.8-1.2h5.6
				c2.2,0,4,1.8,4,4v6.3H746c2.2,0,4,1.8,4,4v9.9c0,2.2-1.8,4-4,4h-10V40c0.7-1,1.9-1.7,3.3-1.7h6.7c2.2,0,4,1.8,4,4v6.4
				C750.1,58.4,741.6,63.5,733.3,63.5z"/>
			<path class="st4" d="M731.9,12.5v10.3H746v9.9h-14v14.2c0,2.1,1.6,3.2,3.6,3.2s3.7-1.1,3.7-3.3v-4.5h6.7v6.4
				c0,7.3-6.6,10.7-12.8,10.7s-12.8-3.6-12.8-11.1V32.7h-6.9v-5.8c0.1,0,0.2,0,0.4,0c7.3,0,12.4-4.2,12.4-14.3h5.6 M731.9,4.5h-5.6
				c-2.1,0-4.2,0.9-5.7,2.4s-2.3,3.6-2.3,5.7c0,2.6-0.5,4.7-1.3,5.5c-0.7,0.7-2.2,0.8-3.1,0.8h-0.2h-0.1c-2.1,0-4.1,0.8-5.6,2.3
				s-2.4,3.6-2.4,5.7v5.8c0,4.1,3,7.4,6.9,7.9v7.8c0,10.9,8.9,19.1,20.8,19.1c5,0,9.8-1.5,13.4-4.2c4.7-3.5,7.4-8.6,7.4-14.6v-6.4
				c0-1.8-0.6-3.5-1.6-4.8c1-1.3,1.6-3,1.6-4.8v-9.9c0-4.4-3.6-8-8-8H740v-2.3C739.9,8.1,736.4,4.5,731.9,4.5L731.9,4.5z"/>
		</g>
		<g>
			<path class="st4" d="M769.8,63.3c-13.5,0-24.5-10.4-24.5-23.2s10.7-22.8,24.5-22.8c13.7,0,24.5,10,24.5,22.8
				C794.3,52.7,783.1,63.3,769.8,63.3z M769.7,34.6c-2.2,0-3.1,0-3.1,6.3c0,4.4,0.6,5.6,0.8,5.9c0,0,0.3,0.3,2.4,0.3
				c1.8,0,2.3-0.2,2.4-0.3c0.1-0.1,0.7-1.1,0.7-6C772.8,34.6,772.2,34.6,769.7,34.6z"/>
			<path class="st4" d="M769.8,21.3c11.5,0,20.5,8,20.5,18.8c0,10.3-9.2,19.2-20.5,19.2c-11.5,0-20.5-8.9-20.5-19.2
				C749.4,29.3,758.8,21.3,769.8,21.3 M769.7,51.2c5.3,0,7.1-1.4,7.1-10.3c0-8.2-1.8-10.3-7.1-10.3c-4.8,0-7.1,1.8-7.1,10.3
				C762.6,49.4,764.4,51.2,769.7,51.2 M769.8,13.3c-7.4,0-14.4,2.6-19.7,7.4c-5.7,5.1-8.8,12-8.8,19.5c0,15,12.8,27.2,28.5,27.2
				c7.5,0,14.6-2.8,20-7.9s8.5-12.1,8.5-19.2C798.3,25.1,785.8,13.3,769.8,13.3L769.8,13.3z"/>
		</g>
		<g>
			<path class="st4" d="M843.8,62.2c-1.7,0-3.2-1.1-3.8-2.7c-0.7-1.9-1.7-5-2.9-8.6c-1,3.1-1.9,6-2.8,8.5c-0.6,1.6-2.1,2.7-3.8,2.7
				h-9c-1.6,0-3-0.9-3.6-2.3l-10.5-23.1H806c-2.2,0-4-1.8-4-4v-9.9c0-2.2,1.8-4,4-4h21.4c1.5,0,2.9,0.9,3.5,2.1
				c0.7-1.3,2-2.1,3.5-2.1h7.5c1.4,0,2.6,0.7,3.3,1.8c0.7-1.1,1.9-1.8,3.3-1.8h18.9c2.2,0,4,1.8,4,4v9.9c0,2.2-1.8,4-4,4h-1.3
				l-9.5,23c-0.6,1.5-2.1,2.5-3.7,2.5C852.9,62.2,843.8,62.2,843.8,62.2z"/>
			<path class="st4" d="M867.4,22.8v9.9h-4l-10.5,25.5h-9c-2.2-6.2-5.2-15.5-6.7-22c-1.5,6.5-4.4,15.6-6.6,22h-9L810,32.7h-4v-9.9
				h21.4v9.9h-4.6c1.6,4.4,3.1,10.1,3.7,14c1.8-7.1,5.5-16.7,7.9-23.9h7.5c2,6.1,6,17.1,7.5,23.9c0.7-3.9,2.1-9.6,3.6-14h-4.5v-9.9
				L867.4,22.8 M867.4,14.8h-18.9c-1.2,0-2.3,0.3-3.3,0.7c-1-0.5-2.2-0.7-3.3-0.7h-7.5c-1.3,0-2.5,0.3-3.5,0.8
				c-1.1-0.5-2.3-0.8-3.5-0.8H806c-4.4,0-8,3.6-8,8v9.9c0,4,3,7.3,6.8,7.9l9.5,20.9c1.3,2.9,4.1,4.7,7.3,4.7h9
				c2.7,0,5.2-1.4,6.6-3.5c1.5,2.2,3.9,3.5,6.6,3.5h9c3.2,0,6.2-2,7.4-4.9l8.5-20.7c3.8-0.7,6.6-3.9,6.6-7.9v-9.9
				C875.4,18.4,871.8,14.8,867.4,14.8L867.4,14.8z"/>
		</g>
		<g>
			<path class="st4" d="M868.1,62.2c-2.2,0-4-1.8-4-4v-10c0-2.2,1.8-4,4-4h2.6v-7.5h-2.5c-2.2,0-4-1.8-4-4v-9.9c0-2.2,1.8-4,4-4h2.4
				c-0.4-1.1-0.7-2.3-0.7-3.6c0-5.7,4.7-10.3,10.5-10.3S891,9.5,891,15.2c0,2-0.6,3.8-1.5,5.3c0.4,0.6,0.7,1.4,0.7,2.3v21.4h1.4
				c2.2,0,4,1.8,4,4v10c0,2.2-1.8,4-4,4C891.6,62.2,868.1,62.2,868.1,62.2z"/>
			<path class="st4" d="M880.4,8.9c3.6,0,6.6,2.8,6.6,6.3s-3,6.3-6.6,6.3s-6.5-2.9-6.5-6.3S876.8,8.9,880.4,8.9 M886.2,22.8v25.4
				h5.4v10h-23.5v-10h6.6V32.7h-6.5v-9.9L886.2,22.8 M880.4,0.9c-8,0-14.5,6.4-14.5,14.2c-3.3,1-5.7,4-5.7,7.7v9.9
				c0,3.7,2.5,6.8,6,7.7c-3.5,0.9-6,4-6,7.8v10c0,4.4,3.6,8,8,8h23.5c4.4,0,8-3.6,8-8v-10c0-3.5-2.3-6.5-5.4-7.6V22.8
				c0-0.7-0.1-1.5-0.3-2.1c0.7-1.7,1.1-3.5,1.1-5.5C895,7.3,888.4,0.9,880.4,0.9L880.4,0.9z"/>
		</g>
		<g>
			<path class="st4" d="M917.9,62.2c-0.3,0-0.6,0-0.8-0.1c-0.3,0.1-0.5,0.1-0.8,0.1H893c-2.2,0-4-1.8-4-4v-10c0-2.2,1.8-4,4-4h2.5
				v-7.5H893c-2.2,0-4-1.8-4-4v-9.9c0-2.2,1.8-4,4-4h15.2c1.4,0,2.6,0.7,3.3,1.8c2.9-2.2,6.4-3.3,10.6-3.3
				c10.5,0,16.3,6.1,16.3,17.2v9.7h0.3c2.2,0,4,1.8,4,4v10c0,2.2-1.8,4-4,4H917.9z M916.2,44.2c0.3,0,0.6,0,0.8,0.1
				c0.3-0.1,0.5-0.1,0.8-0.1h1.2v-4.8c0-1.4-0.1-2.2-0.2-2.6c-0.2,0-0.4,0-0.7,0c-3,0-3.1,0.8-3.1,2.7v4.8h1.2V44.2z"/>
			<path class="st4" d="M922.1,21.3c9,0,12.3,5.1,12.3,13.2v13.7h4.3v10h-20.9v-10h5.2v-8.8c0-5.4-1.1-6.7-4.9-6.7
				c-4.6,0-7.1,2-7.1,6.7v8.8h5.2v10H893v-10h6.5V32.7H893v-9.9h15.2c0.1,2.8-0.5,10.8-1,13.3h0.7C909.1,26.4,914.2,21.3,922.1,21.3
				 M922.1,13.3c-3.9,0-7.3,0.8-10.3,2.4c-1.1-0.6-2.3-0.9-3.6-0.9H893c-4.4,0-8,3.6-8,8v9.9c0,3.7,2.6,6.9,6,7.8
				c-3.5,0.9-6,4-6,7.8v10c0,4.4,3.6,8,8,8h23.3c0.3,0,0.5,0,0.8,0s0.5,0,0.8,0h20.9c4.4,0,8-3.6,8-8v-10c0-3.1-1.7-5.7-4.3-7.1
				v-6.6C942.4,21.2,934.9,13.3,922.1,13.3L922.1,13.3z M919,39L919,39L919,39L919,39z"/>
		</g>
		<g>
			<path class="st4" d="M952.9,63.1c-5.7,0-10.3-4.6-10.3-10.3c0-3.1,1.4-6,3.7-7.9c-0.2-0.5-0.3-1-0.3-1.6c0-6.2-1.2-12.2-2.3-17.5
				c-0.8-4.1-1.6-7.7-1.6-10.7c0-7.1,5.5-10.9,10.7-10.9c5.4,0,10.8,3.8,10.8,11c0,2.9-0.7,6.4-1.5,10.4c-1.1,5.3-2.2,11.3-2.2,17.6
				c0,0.6-0.1,1.1-0.3,1.6c2.2,1.9,3.7,4.7,3.7,7.9C963.1,58.5,958.5,63.1,952.9,63.1z"/>
			<path class="st4" d="M952.7,8.4c3.4,0,6.8,2.3,6.8,7c0,6-3.7,16.5-3.7,28H950c0-11.4-3.9-22-3.9-28.1
				C946.1,10.7,949.4,8.4,952.7,8.4 M952.9,46.6c3.5,0,6.3,2.8,6.3,6.3s-2.8,6.3-6.3,6.3s-6.3-2.8-6.3-6.3S949.4,46.6,952.9,46.6
				 M952.7,0.4c-8.4,0-14.7,6.4-14.7,14.9c0,3.4,0.8,7.1,1.7,11.5c1,5.1,2.2,10.9,2.2,16.7c0,0.1,0,0.2,0,0.3
				c-2.1,2.5-3.3,5.7-3.3,9.2c0,7.9,6.4,14.3,14.3,14.3c7.9,0,14.3-6.4,14.3-14.3c0-3.5-1.3-6.7-3.3-9.2c0-0.1,0-0.2,0-0.3
				c0-5.9,1.2-11.7,2.2-16.8c0.8-4.2,1.6-7.9,1.6-11.2C967.5,6.9,961.2,0.4,952.7,0.4L952.7,0.4z"/>
		</g>
	</g>
	<g>
		<path class="st5" d="M106.8,32.7h4.5c-1.5,4.4-2.9,10.1-3.6,14c-1.6-6.7-5.6-17.8-7.5-23.9h-7.5c-2.4,7.1-6.1,16.7-7.9,23.9
			c-0.7-3.9-2.2-9.6-3.7-14h4.6v-9.9H68v-13H14.3v23.7h9.1v-6.6c0-4.4,1.3-7.1,7.3-7.1h3.7v28.4h-8.8v10h30.9v-10h-8.9V19.8h3.8
			c6.1,0,7.3,2.7,7.3,7.1v6.6H68v-0.8h0.3l11.6,25.5h9c2.2-6.4,5.1-15.4,6.6-22c1.4,6.5,4.5,15.8,6.7,22h9l10.5-25.5h4v-9.9h-18.9
			C106.8,22.8,106.8,32.7,106.8,32.7z"/>
		<path class="st5" d="M147.6,21.3c-11,0-20.5,8-20.5,18.8c0,10.3,9,19.2,20.5,19.2c11.3,0,20.5-8.9,20.5-19.2
			C168,29.3,159,21.3,147.6,21.3z M147.5,51.2c-5.3,0-7.1-1.8-7.1-10.3c0-8.6,2.4-10.3,7.1-10.3c5.2,0,7.1,2.1,7.1,10.3
			C154.6,49.7,152.8,51.2,147.5,51.2z"/>
		<path class="st5" d="M205.4,35.4c-4.7-1-8.8-2-8.8-5.2c0-1.6,1.3-2.7,3.4-2.7c3.8,0,7.3,1.8,7.4,8.1H218V22h-8.7l0.3,7.3
			c-1.2-4.8-5-8-11.6-8c-6.5,0-12.1,4.8-12.1,11.4c0,8.6,7.5,11.1,13.7,12.5c6.3,1.5,9.8,2,9.8,5.6c0,1.7-1.3,2.9-3.9,2.9
			c-5.4,0-8.2-2.7-8.2-8.6h-10.4v13.8h8.8l-0.4-6.5c1.4,5.6,6.9,6.9,10.8,6.9c6.7,0,14.1-3.1,14.1-11.4
			C220.2,39.5,211.9,36.8,205.4,35.4z"/>
		<path class="st5" d="M264.7,32.7h4.5c-1.5,4.4-2.9,10.1-3.6,14c-1.6-6.7-5.6-17.8-7.5-23.9h-7.5c-2.4,7.1-6.1,16.7-7.9,23.9
			c-0.7-3.9-2.2-9.6-3.7-14h4.6v-9.9h-21.3v9.9h4l11.6,25.5h9c2.2-6.4,5.1-15.4,6.6-22c1.4,6.5,4.5,15.8,6.7,22h9l10.5-25.5h4v-9.9
			h-18.9v9.9H264.7z"/>
		<path class="st5" d="M305,21.3c-9.7,0-20,6.3-20,18.9c0,10.7,7.2,19.1,19.6,19.1c7.7,0,12.6-3.6,16-10.7l-5-3.2
			c-1.5,3.7-4.2,5.4-8.2,5.4c-5.6,0-9.5-3-9.9-9h23.9c0.4-2.3,0.5-3.9,0.5-5.6C322,26.3,313.5,21.3,305,21.3z M297.8,35.7
			c0.7-3.5,3.5-6.3,7.8-6.3c3.8,0,6.4,2,6.3,6.3H297.8z"/>
		<path class="st5" d="M344.6,21.3c-9.7,0-20,6.3-20,18.9c0,10.7,7.2,19.1,19.6,19.1c7.7,0,12.6-3.6,16-10.7l-5-3.2
			c-1.5,3.7-4.2,5.4-8.2,5.4c-5.6,0-9.5-3-9.9-9H361c0.4-2.3,0.5-3.9,0.5-5.6C361.6,26.3,353.2,21.3,344.6,21.3z M337.5,35.7
			c0.7-3.5,3.5-6.3,7.8-6.3c3.8,0,6.4,2,6.3,6.3H337.5z"/>
		<path class="st5" d="M380.8,12.5h-5.6c0.1,10.3-5.2,14.5-12.7,14.3v5.8h6.9v15.7c0,7.5,6.6,11.1,12.8,11.1
			c6.2,0,12.8-3.4,12.8-10.7v-6.4h-6.7v4.5c0,2.2-1.7,3.3-3.7,3.3S381,49,381,46.9V32.7h14v-9.9h-14.1L380.8,12.5L380.8,12.5z"/>
		<path class="st5" d="M433.5,48.9c-4.8,0-9.8-3.9-9.8-10.9c0-5.5,3.2-10.5,9.5-10.7c-1.1,1.1-1.7,2.6-1.7,4.3
			c0,4.8,2.9,6.9,7.1,6.9c3.9,0,7.1-2.9,7.1-7.1c0-6.6-6.7-10.1-13.6-10.1c-9.1,0-19.6,5.8-19.6,19c0,10.3,7.7,19,18.2,19
			c7.8,0,13.3-2.8,17-9.2l-6.3-6.5C439,47.6,436.3,48.9,433.5,48.9z"/>
		<path class="st5" d="M489.9,34.6c0-8-2.6-13.3-10.3-13.3c-5.8,0-13.4,3.5-15.6,16.2h-0.7c1.8-8.4,3.3-20.7,3.2-27.7h-18v10h6.5
			v28.4h-6.5v10h23.3v-10h-5.2v-6.5c0-6.9,3.1-9.9,7.1-9.9c3.7,0,4.9,1.6,4.9,7.3v9.1h-5.2v10h20.9v-10H490L489.9,34.6L489.9,34.6z"
			/>
		<path class="st5" d="M532.3,47.8c0,2-1,2.1-1.4,2.1c-0.5,0-0.9-0.4-0.9-1.5c0-4.8,0.6-8.4,0.6-15c0-8.4-8.1-12.1-16.6-12.1
			c-8.7,0-16.5,3.4-16.5,11.5c0,0.5,0,1.2,0.3,3h11.6c-0.1-4.1,1.5-5.5,4-5.5c2.9,0,4.9,1.2,4.9,3.9v3c-1.7-0.2-3.3-0.3-4.7-0.3
			c-11.8,0-17.5,4.9-17.5,11.2c0,7.1,6,11.2,12.7,11.2c6.4,0,11.6-4.8,12.3-12.3h0.7c-0.2,1-0.3,2.1-0.3,3.8c0,6.9,4.4,8,7.4,8
			c6.1,0,8.8-4.3,8.8-10.9v-3.4h-5.5v3.3H532.3z M512.2,49.9c-2.2,0-3.9-1.2-3.9-3.5c0-2,1.4-5,6.9-5c1,0,2,0.1,3.1,0.3
			C518,48.4,514.8,49.9,512.2,49.9z"/>
		<path class="st5" d="M580.1,34.5c0-8.1-3.3-13.2-12.3-13.2c-8,0-13,5-14.2,14.8h-0.7c0.5-2.5,1-10.5,1-13.3h-15.2v9.9h6.5v15.5
			h-6.5v10H562v-10h-5.2v-8.8c0-4.8,2.6-6.7,7.1-6.7c3.8,0,4.9,1.2,4.9,6.7v8.8h-5.2v10h20.9v-10h-4.3L580.1,34.5L580.1,34.5z"/>
		<path class="st5" d="M607.4,48.9c-4.8,0-9.8-3.9-9.8-10.9c0-5.5,3.2-10.5,9.5-10.7c-1.1,1.1-1.7,2.6-1.7,4.3
			c0,4.8,2.9,6.9,7.1,6.9c3.9,0,7.1-2.9,7.1-7.1c0-6.6-6.7-10.1-13.6-10.1c-9.1,0-19.7,5.8-19.7,19c0,10.3,7.7,19,18.2,19
			c7.8,0,13.3-2.8,17-9.2l-6.3-6.5C612.9,47.6,610.2,48.9,607.4,48.9z"/>
		<path class="st5" d="M643,21.3c-9.7,0-20,6.3-20,18.9c0,10.7,7.2,19.1,19.6,19.1c7.7,0,12.6-3.6,16-10.7l-5-3.2
			c-1.5,3.7-4.2,5.4-8.2,5.4c-5.6,0-9.5-3-9.9-9h23.9c0.4-2.3,0.5-3.9,0.5-5.6C660,26.3,651.6,21.3,643,21.3z M635.9,35.7
			c0.7-3.5,3.5-6.3,7.8-6.3c3.8,0,6.4,2,6.3,6.3H635.9z"/>
		<path class="st5" d="M683,35.4c-4.7-1-8.8-2-8.8-5.2c0-1.6,1.3-2.7,3.4-2.7c3.8,0,7.3,1.8,7.4,8.1h10.6V22h-8.7l0.3,7.3
			c-1.2-4.8-5-8-11.6-8c-6.5,0-12.1,4.8-12.1,11.4c0,8.6,7.5,11.1,13.7,12.5c6.3,1.5,9.8,2,9.8,5.6c0,1.7-1.3,2.9-3.9,2.9
			c-5.4,0-8.2-2.7-8.2-8.6h-10.4v13.8h8.8l-0.4-6.5c1.4,5.6,6.9,6.9,10.8,6.9c6.7,0,14.1-3.1,14.1-11.4
			C697.8,39.5,689.5,36.8,683,35.4z"/>
		<path class="st5" d="M731.9,12.5h-5.6c0.1,10.3-5.2,14.5-12.7,14.3v5.8h6.9v15.7c0,7.5,6.6,11.1,12.8,11.1s12.8-3.4,12.8-10.7
			v-6.4h-6.7v4.5c0,2.2-1.7,3.3-3.7,3.3s-3.6-1.1-3.6-3.2V32.7h14v-9.9H732V12.5H731.9z"/>
		<path class="st5" d="M769.8,21.3c-11,0-20.5,8-20.5,18.8c0,10.3,9,19.2,20.5,19.2c11.3,0,20.5-8.9,20.5-19.2
			C790.3,29.3,781.3,21.3,769.8,21.3z M769.7,51.2c-5.3,0-7.1-1.8-7.1-10.3c0-8.6,2.4-10.3,7.1-10.3c5.2,0,7.1,2.1,7.1,10.3
			C776.8,49.7,775.1,51.2,769.7,51.2z"/>
		<path class="st5" d="M848.5,32.7h4.5c-1.5,4.4-2.9,10.1-3.6,14c-1.6-6.7-5.6-17.8-7.5-23.9h-7.5c-2.4,7.1-6.1,16.7-7.9,23.9
			c-0.7-3.9-2.2-9.6-3.7-14h4.6v-9.9H806v9.9h4l11.6,25.5h9c2.2-6.4,5.1-15.4,6.6-22c1.4,6.5,4.5,15.8,6.7,22h9l10.5-25.5h4v-9.9
			h-18.9L848.5,32.7L848.5,32.7z"/>
		<path class="st5" d="M880.4,21.5c3.6,0,6.6-2.9,6.6-6.3s-3-6.3-6.6-6.3s-6.5,2.8-6.5,6.3S876.8,21.5,880.4,21.5z"/>
		<polygon class="st5" points="886.2,22.8 868.1,22.8 868.1,32.7 874.7,32.7 874.7,48.2 868.1,48.2 868.1,58.2 891.6,58.2 
			891.6,48.2 886.2,48.2 		"/>
		<path class="st5" d="M934.4,34.5c0-8.1-3.3-13.2-12.3-13.2c-8,0-13,5-14.2,14.8h-0.7c0.5-2.5,1-10.5,1-13.3H893v9.9h6.5v15.5H893
			v10h23.3v-10H911v-8.8c0-4.8,2.6-6.7,7.1-6.7c3.8,0,4.9,1.2,4.9,6.7v8.8h-5.2v10h20.9v-10h-4.3V34.5z"/>
		<path class="st5" d="M955.8,43.4c0-11.6,3.7-22,3.7-28c0-4.7-3.4-7-6.8-7c-3.3,0-6.7,2.3-6.7,6.9c0,6.1,3.9,16.7,3.9,28.1H955.8z"
			/>
		<path class="st5" d="M952.9,46.6c-3.5,0-6.3,2.8-6.3,6.3s2.8,6.3,6.3,6.3s6.3-2.8,6.3-6.3S956.3,46.6,952.9,46.6z"/>
	</g>
</g>
</svg>
