<?xml version="1.0" encoding="utf-8"?>
<!-- Generator: Adobe Illustrator 23.0.3, SVG Export Plug-In . SVG Version: 6.00 Build 0)  -->
<svg version="1.1" id="Layer_1" xmlns="http://www.w3.org/2000/svg" xmlns:xlink="http://www.w3.org/1999/xlink" x="0px" y="0px"
	 width="1416.5px" height="937.5px" viewBox="0 0 1416.5 937.5" style="enable-background:new 0 0 1416.5 937.5;"
	 xml:space="preserve">
<style type="text/css">
	.st0{opacity:0.5;}
	.st1{fill:#FBD0B5;}
	.st2{fill:#FFFFFF;}
	.st3{opacity:0.5;fill:#FFFFFF;enable-background:new    ;}
	.st4{fill:#FFE8CD;}
</style>
<g id="Ppxovp.tif_3_" class="st0">
	<g>
		<path class="st1" d="M650.5,2.8c-3.5,7.1-7,14.3-10.7,21.5c-0.2,0.3,0,0.6,0.2,0.7c3.3,2.4,6.4,5,9.7,7.3c2.8,2.3,5.9,4.5,8.7,6.6
			c0.1,0.1,0.2,0.1,0.3,0.3l-0.1,0.1c-0.2,0-0.3,0-0.6-0.2c-7.5-1-15.3-1.9-22.8-2.9c-0.5,0-0.7,0.1-0.7,0.4c-2.5,7-5,14.1-7.5,21
			c-0.2,0.3-0.2,0.9-0.2,1.7c-0.2-0.2-0.3-0.5-0.3-0.5c-0.2-1.2-0.2-2.3-0.5-3.4c-1-6.5-2.2-13-3.2-19.5c0-0.2,0-0.5-0.2-0.2
			c-0.2,0-0.3-0.2-0.6-0.2c-7.8-0.1-15.8-0.2-23.6-0.3l-0.2,0l-0.1-0.1c0.1-0.2,0.4-0.4,0.6-0.6c6.8-3.8,13.7-7.3,20.6-11.2
			c0.1-0.1,0.3-0.2,0.4-0.2c0-0.2-0.2-0.2-0.1-0.5c-2-6.7-3.9-13.4-6-20c-0.3-0.8-0.5-1.7-0.9-2.5l0.1-0.1c0.5,0.5,1,0.9,1.5,1.4
			c1.7,1.6,3.6,3.5,5.2,5.1c2.3,2.1,4.3,4.2,6.6,6.5c1.3,1.2,2.6,2.4,3.8,3.6c0.2,0.1,0.3,0.3,0.6,0c6.4-4.6,13-9.1,19.6-13.8
			c0,0,0,0,0.1-0.1C650.3,2.6,650.4,2.7,650.5,2.8z M629,27.4c-10,2.5-19.9,5-29.6,7.5c0.1,0.1,0.3,0,0.6,0
			c7.3,0.2,14.6,0.2,21.9,0.4c0.3,0,0.5-0.1,0.7-0.4c2-2.4,4-4.8,6.1-7.1C628.7,27.7,628.9,27.6,629,27.4z M613.5,1.2L613.5,1.2
			c0,0.2,0,0.3,0,0.5c1.9,7,4.2,14,6.1,21.1c0.2,0.2,0.3,0.5,0.6,0.6c2.8,1,5.6,2,8.4,3.1c0.1,0.1,0.3,0,0.6,0
			C623.8,18,618.7,9.6,613.5,1.2z M629.9,26.5c6.5-7.7,13-15.2,19.4-22.7c-0.2,0-0.3,0.2-0.3,0.2c-6,4.2-12.1,8.6-18.1,12.8
			c-0.1,0.1-0.3,0.3-0.4,0.7c-0.1,1-0.2,2.2-0.1,3.2C630,22.4,629.9,24.3,629.9,26.5z M630.3,26.9C630.4,26.9,630.3,27,630.3,26.9
			c9,4,18,7.9,27.1,11.6c-0.4-0.4-0.9-0.8-1.4-1.1c-2.2-1.6-4.2-3.2-6.2-4.7c-2.2-1.6-4.4-3.3-6.4-5c-1.1-0.8-2.2-1.8-3.4-2.4
			c-0.2-0.1-0.6-0.3-0.8-0.2c-1.6,0.3-3.4,0.8-5,1.1C632.6,26.4,631.5,26.6,630.3,26.9z M627.1,56.7L627.1,56.7
			c0.1-0.1,0.1-0.1,0.1-0.2c2.3-6.7,4.9-13.4,7.2-20.1c0-0.2,0-0.6-0.1-0.7c-1.1-2.2-2.1-4-3.4-6.1c-0.3-0.6-0.7-1.2-1-1.8
			c0,0,0,0-0.2,0C628.9,37.5,628,47,627.1,56.7z"/>
		<path class="st2" d="M629,27.4c-0.1,0.2-0.3,0.3-0.4,0.4c-2,2.4-4,4.8-6.1,7.1c-0.1,0.2-0.5,0.3-0.7,0.4
			c-7.3-0.2-14.6-0.2-21.9-0.4c-0.2,0-0.3,0-0.6,0C609.1,32.3,619.1,29.9,629,27.4z"/>
		<path class="st2" d="M613.5,1.2c5.3,8.4,10.4,16.9,15.7,25.4c-0.2,0-0.3,0-0.6,0c-2.8-1-5.6-2-8.4-3.1c-0.3,0-0.6-0.3-0.6-0.6
			c-1.9-7-4.2-14-6.1-21.1C613.6,1.4,613.3,1.2,613.5,1.2L613.5,1.2z"/>
		<path class="st2" d="M629.9,26.5c0-2.2,0.3-4,0.4-6c0.1-1,0.2-2.2,0.1-3.2c0-0.2,0.2-0.3,0.4-0.7c6-4.2,12.1-8.6,18.1-12.8
			c0.1-0.1,0.3-0.2,0.3-0.2C642.8,11.3,636.3,18.8,629.9,26.5z"/>
		<path class="st2" d="M630.3,26.9c1.3-0.3,2.3-0.5,3.6-0.8c1.6-0.3,3.4-0.8,5-1.1c0.3-0.2,0.7-0.1,0.8,0.2c1,0.9,2.2,1.8,3.4,2.4
			c2.2,1.6,4.4,3.3,6.4,5c2.2,1.6,4.2,3.2,6.2,4.7c0.4,0.4,0.9,0.8,1.4,1.1C648.3,34.6,639.2,30.9,630.3,26.9
			C630.3,27,630.4,26.9,630.3,26.9z"/>
		<path class="st2" d="M627.1,56.7c1-9.6,1.9-19.2,2.9-28.9c0,0,0,0,0.2,0c0.3,0.6,0.7,1.2,1,1.8c1.1,2.2,2.1,4,3.4,6.1
			c0,0.2,0.1,0.5,0.1,0.7c-2.3,6.7-4.9,13.4-7.2,20.1C627.2,56.6,627.2,56.6,627.1,56.7L627.1,56.7z"/>
	</g>
</g>
<g id="Ppxovp.tif_1_" class="st0">
	<g>
		<path class="st1" d="M34,555.9c-2.3,4.6-4.5,9.3-7,13.9c-0.1,0.2,0,0.4,0.1,0.5c2.1,1.5,4.1,3.2,6.2,4.8c1.8,1.5,3.8,2.9,5.6,4.3
			c0.1,0,0.1,0.1,0.2,0.2l0,0.1c-0.1,0-0.2,0-0.4-0.1c-4.8-0.6-9.9-1.3-14.7-1.9c-0.3,0-0.4,0-0.4,0.2c-1.7,4.5-3.3,9.1-4.9,13.6
			c-0.1,0.2-0.2,0.6-0.2,1.1c-0.1-0.2-0.2-0.3-0.2-0.3c-0.1-0.8-0.1-1.5-0.3-2.2c-0.6-4.2-1.4-8.4-2-12.6c0-0.1,0-0.3-0.1-0.2
			c-0.1,0-0.2-0.1-0.4-0.1c-5.1-0.1-10.2-0.2-15.3-0.3l-0.1,0l-0.1,0c0.1-0.1,0.2-0.3,0.4-0.4c4.4-2.4,8.9-4.7,13.4-7.2
			c0-0.1,0.2-0.1,0.3-0.1c0-0.1-0.1-0.2-0.1-0.4c-1.3-4.3-2.5-8.7-3.8-13c-0.2-0.5-0.4-1.1-0.5-1.6l0-0.1c0.3,0.3,0.7,0.6,1,0.9
			c1.1,1,2.3,2.2,3.4,3.3c1.5,1.4,2.8,2.7,4.2,4.2c0.8,0.8,1.7,1.6,2.4,2.3c0.1,0.1,0.2,0.2,0.4,0c4.2-3,8.5-5.9,12.7-8.9
			c0,0,0,0,0-0.1C33.9,555.8,33.9,555.8,34,555.9z M20.1,571.8c-6.5,1.6-12.9,3.2-19.2,4.8c0.1,0,0.2,0,0.4,0
			c4.7,0.2,9.4,0.1,14.2,0.3c0.2,0,0.4-0.1,0.4-0.2c1.3-1.5,2.6-3.1,4-4.6C19.9,571.9,20,571.9,20.1,571.8z M10.1,554.8L10.1,554.8
			c0,0.1,0,0.2,0,0.3c1.2,4.5,2.7,9.1,3.9,13.6c0.1,0.2,0.2,0.3,0.4,0.4c1.8,0.7,3.6,1.3,5.4,2c0.1,0,0.2,0,0.4,0
			C16.7,565.7,13.4,560.2,10.1,554.8z M20.6,571.2c4.2-4.9,8.5-9.8,12.6-14.6c-0.1,0-0.2,0.1-0.2,0.1c-3.9,2.7-7.9,5.5-11.8,8.2
			c0,0.1-0.2,0.2-0.3,0.4c-0.1,0.7-0.1,1.4-0.1,2C20.7,568.5,20.6,569.8,20.6,571.2z M20.9,571.4C20.9,571.5,20.9,571.5,20.9,571.4
			c5.8,2.6,11.6,5.1,17.5,7.6c-0.3-0.2-0.6-0.5-0.9-0.7c-1.4-1-2.7-2.1-4-3.1c-1.4-1-2.8-2.2-4.1-3.2c-0.7-0.5-1.4-1.1-2.2-1.6
			c-0.1-0.1-0.4-0.2-0.5-0.1c-1,0.2-2.2,0.5-3.2,0.7C22.4,571.1,21.6,571.3,20.9,571.4z M18.7,590.7L18.7,590.7c0-0.1,0-0.1,0.1-0.1
			c1.5-4.3,3.2-8.7,4.7-13c0-0.1,0-0.4,0-0.4c-0.7-1.4-1.4-2.6-2.2-4c-0.2-0.4-0.5-0.8-0.6-1.2c0,0,0,0-0.1,0
			C19.9,578.3,19.3,584.5,18.7,590.7z"/>
		<path class="st2" d="M20.1,571.8c-0.1,0.1-0.2,0.2-0.2,0.3c-1.3,1.5-2.6,3.1-4,4.6c-0.1,0.1-0.3,0.2-0.4,0.2
			c-4.7-0.2-9.4-0.1-14.2-0.3c-0.1,0-0.2,0-0.4,0C7.2,574.9,13.6,573.4,20.1,571.8z"/>
		<path class="st2" d="M10.1,554.8c3.4,5.4,6.7,11,10.1,16.5c-0.1,0-0.2,0-0.4,0c-1.8-0.7-3.6-1.3-5.4-2c-0.2,0-0.4-0.2-0.4-0.4
			c-1.2-4.5-2.7-9.1-3.9-13.6C10.1,554.9,10,554.8,10.1,554.8L10.1,554.8z"/>
		<path class="st2" d="M20.6,571.2c0-1.4,0.2-2.6,0.3-3.9c0.1-0.7,0.1-1.4,0.1-2c0-0.1,0.1-0.2,0.3-0.4c3.9-2.7,7.9-5.5,11.8-8.2
			c0-0.1,0.2-0.1,0.2-0.1C29,561.4,24.8,566.2,20.6,571.2z"/>
		<path class="st2" d="M20.9,571.4c0.8-0.2,1.5-0.3,2.3-0.5c1-0.2,2.2-0.5,3.2-0.7c0.2-0.1,0.4,0,0.5,0.1c0.7,0.6,1.4,1.1,2.2,1.6
			c1.4,1,2.8,2.2,4.1,3.2c1.4,1,2.7,2.1,4,3.1c0.3,0.2,0.6,0.5,0.9,0.7C32.5,576.5,26.7,574,20.9,571.4
			C20.9,571.5,20.9,571.5,20.9,571.4z"/>
		<path class="st2" d="M18.7,590.7c0.7-6.2,1.3-12.4,2-18.7c0,0,0,0,0.1,0c0.2,0.4,0.5,0.8,0.6,1.2c0.7,1.4,1.4,2.6,2.2,4
			c0,0.1,0.1,0.4,0,0.4c-1.5,4.3-3.2,8.7-4.7,13C18.8,590.7,18.8,590.7,18.7,590.7L18.7,590.7z"/>
	</g>
</g>
<g id="Ppxovp.tif_10_" class="st0">
	<g>
		<path class="st1" d="M1273.3,882.4c5.2,5.3,10.4,10.5,15.8,15.7c0.3,0.4,0.4,0.3,0.8,0c3.1-2.2,6.3-4.3,9.3-6.3
			c2.8-1.9,5.8-4,8.5-5.9c0.1-0.1,0.1-0.1,0.4-0.3l0.1,0.1c-0.1,0.1-0.1,0.3-0.3,0.4c-3.3,6.4-6.2,12.8-9.6,19.1
			c-0.1,0.3-0.2,0.5,0.2,0.7c5.4,4.3,10.8,8.7,16.2,13c0.4,0.3,0.9,0.5,1.4,0.7c-0.1,0.1-0.4,0.3-0.7,0.2c-1.1-0.1-2-0.4-3.2-0.6
			c-6.1-1.1-12.1-1.9-18.1-3c-0.1,0.1-0.3-0.1-0.3-0.1c-0.1,0.1-0.3,0.4-0.3,0.4c-2.4,7-5.1,13.9-7.6,20.5c0,0,0,0-0.1,0.3l-0.1,0.1
			c-0.1-0.1-0.3-0.6-0.3-0.8c-1-7.2-2.4-14.3-3.5-21.6c-0.1-0.1-0.1-0.1-0.1-0.6c-0.1,0.1-0.3-0.1-0.6,0.1c-6.5-0.4-13.1-0.6-19.6-1
			c-0.8,0-1.6-0.1-2.3-0.1l-0.1-0.1c0.6-0.3,1.1-0.7,1.8-1.1c2.1-0.9,4-2.1,6-2.9c2.6-1.3,5-2.3,7.6-4c1.4-0.8,3.1-1.5,4.3-2.3
			c0.1-0.1,0.4-0.3,0.3-0.4c-2.2-7-4.2-14.2-6-21.3l0,0C1273.1,882.5,1273.3,882.4,1273.3,882.4z M1288.6,908.8
			c-0.9,9.6-1.6,18.8-2.3,28.4c0.1-0.1,0.1-0.3,0.3-0.4c2.2-6.2,4.7-12.9,6.9-19.1c0.1-0.3-0.1-0.6-0.2-0.7c-1.5-2.5-2.9-5-4.4-7.5
			C1288.7,908.9,1288.7,908.9,1288.6,908.8z M1260.8,914.4L1260.8,914.4c0.1,0.1,0.3,0.1,0.3,0.1c6.7,0.4,13.7,0.6,20.4,1
			c0.3,0.1,0.6-0.1,0.6-0.3c1.9-2.2,3.4-4.3,5.3-6.5c0.1-0.1,0.1-0.3,0.3-0.4C1278.7,910.4,1269.6,912.4,1260.8,914.4z M1288,907.8
			c-4.8-8.2-9.4-16-14.1-23.9l-0.1,0.3c1.9,6.7,3.8,13.3,5.7,19.7c0.1,0.1,0.3,0.4,0.5,0.4c1,0.4,1.7,0.8,2.8,1.2
			C1284.5,906.3,1286.1,907.2,1288,907.8z M1288.6,907.5L1288.6,907.5c6.1-6.7,12.2-13.5,18.5-20.3c-0.6,0.3-1,0.6-1.5,0.9
			c-2,1.5-4.2,2.7-6,3.9c-2,1.5-4.3,2.8-6.3,4.3c-1.1,0.7-2.2,1.6-3.1,2.2c-0.1,0.1-0.3,0.4-0.4,0.7c-0.1,1.6-0.3,3.3-0.5,4.8
			C1288.8,905.1,1288.7,906.4,1288.6,907.5z M1313.8,919.5L1313.8,919.5l-0.1-0.1c-5.3-4.2-10.4-8.2-15.6-12.3
			c-0.1-0.1-0.4-0.3-0.5-0.2c-2.1,0.5-4.3,0.7-6.3,1.1c-0.7,0.2-1.3,0.2-1.8,0.3l0,0C1297.4,911.9,1305.6,915.6,1313.8,919.5z"/>
		<path class="st2" d="M1288.6,908.8c0.1,0.1,0.3,0.4,0.3,0.6c1.5,2.5,2.9,5,4.4,7.5c0.1,0.1,0.3,0.4,0.2,0.7
			c-2.2,6.2-4.7,12.9-6.9,19.1c-0.1,0.1-0.1,0.3-0.3,0.4C1287,927.6,1287.6,918.2,1288.6,908.8z"/>
		<path class="st2" d="M1260.8,914.4c9-2.1,17.9-4,27.1-6.1c-0.1,0.1-0.1,0.3-0.3,0.4c-1.9,2.2-3.4,4.3-5.3,6.5
			c-0.1,0.1-0.4,0.3-0.6,0.3c-6.7-0.4-13.7-0.6-20.4-1C1261.1,914.6,1260.8,914.4,1260.8,914.4L1260.8,914.4z"/>
		<path class="st2" d="M1288,907.8c-1.7-0.8-3.4-1.3-5.1-2.1c-1-0.4-1.7-0.8-2.8-1.2c-0.3-0.1-0.4-0.3-0.5-0.4
			c-1.9-6.7-3.8-13.3-5.7-19.7c-0.1-0.1-0.1-0.1,0.1-0.3C1278.6,891.8,1283.3,899.6,1288,907.8z"/>
		<path class="st2" d="M1288.6,907.5c0.1-1.1,0.2-2.2,0.3-3.3c0.1-1.6,0.5-3.1,0.5-4.8c0.1-0.3,0.2-0.5,0.4-0.7
			c1.1-0.7,2.2-1.6,3.1-2.2c2-1.5,4.3-2.8,6.3-4.3c2-1.5,4.2-2.7,6-3.9c0.6-0.3,1-0.6,1.5-0.9C1301,893.9,1294.7,900.8,1288.6,907.5
			L1288.6,907.5z"/>
		<path class="st2" d="M1313.8,919.5c-8.2-3.7-16.4-7.6-24.6-11.2l0,0c0.7-0.2,1.3-0.2,1.8-0.3c2.1-0.5,4.3-0.7,6.3-1.1
			c0.1-0.1,0.6-0.1,0.5,0.2c5.3,4.2,10.4,8.2,15.6,12.3C1313.7,919.1,1313.7,919.1,1313.8,919.5L1313.8,919.5z"/>
	</g>
</g>
<path class="st3" d="M1415,499.9h-0.8c-0.5,0-0.8,0-1,0.1l-0.9-0.8c0.8-0.9,1.4-1.8,2.3-2.7c0,0-1-0.5-1.5-1.5
	c-0.4-0.5-1.4-2.3-3.2-3.5l0,0l0,0l0,0l0,0c-2.2-1-4.1-1.5-4.7-1.5c-1.3,0-1.9-0.9-1.9-0.9c-0.5,1-1,2.2-1.5,3.2l-0.9-0.5
	c0-0.4,0-0.8-0.1-1l-0.4-0.8c-0.5-1.3-1.8-1.3-2.4-0.1l-0.5,0.8c-0.8,1-0.1,2.2,1,2.2h0.8c0.5,0,0.8-0.1,1-0.4l1,0.8
	c-0.8,1.4-1.5,2.7-2.3,3.9l-1.3-0.8c0-0.4,0-0.8-0.1-1l-0.4-0.8c-0.5-1.3-1.8-1.3-2.4-0.1l-0.1,0.8c-0.8,1-0.1,2.2,1,2.2h0.8
	c0.5,0,0.8-0.1,1-0.4l1.3,0.8c-0.9,1.4-1.8,2.7-2.4,3.7l-1-0.5c0-0.4,0-0.8-0.1-1l-0.4-0.8c-0.5-1.3-1.8-1.3-2.4-0.1l-0.5,0.8
	c-0.5,1.3,0,2.2,1.3,2.3h0.8c0.5,0,0.8-0.1,1-0.4l1,0.8c-1,1.4-1.8,2.2-1.8,2.2c0.9,2.3-0.1,5.1-0.1,5.1l-40.9,56
	c-1.3-1-8.1-6.7-15.8-5.5c-8.6,1.4-11,9.6-12.3,16c-1.4,6.3-4.6,7.6-13.7,10.5c-9.1,2.7-34.2,19.5-14.2,43.6l0,0c0,0,0,0,0.1,0.1
	c0.1,0.1,0.1,0.4,0.4,0.4l0.1,0.1c2.4,2.7,12.2,12.2,23.6,15.5h0.1c29.2,9.5,35.5-19.9,34.9-29.4c-0.6-9.5-0.8-13.1,4.7-16.5
	s12.3-9,10.5-17.4c-1.5-7-8.5-11.4-10.5-12.4l39-57.2c0,0,0.9-1,4.2-1.5c0,0,0.5-1,1.5-2.8l0.9,0.8c0,0.4,0,0.8,0.1,1l0.1,0.8
	c0.5,1.3,1.5,1.4,2.4,0.4l0.5-0.8c0.9-1,0.4-2.2-1-2.3h-0.5c-0.5,0-0.8,0-1,0.1l-0.9-0.8c0.8-1,1.4-2.3,2.4-3.7l1,0.8
	c0,0.4,0,0.8,0.1,1l0.4,0.8c0.5,1.3,1.5,1.4,2.4,0.4l0.5-0.8c0.9-1,0.4-2.2-1-2.3h-0.8c-0.5,0-0.8,0-1,0.1l-1-0.8
	c0.9-1,1.8-2.3,2.7-3.5l0.9,0.8c0,0.4,0,0.8,0.1,1l0.4,0.8c0.5,1.3,1.5,1.4,2.4,0.4l0.5-0.8C1416.8,500.9,1416.3,500,1415,499.9z
	 M1342.2,578.8c4.7,0,8.6,3.9,8.6,8.6s-3.9,8.6-8.6,8.6c-4.7,0-8.6-3.9-8.6-8.6C1333.6,582.6,1337.5,578.8,1342.2,578.8z
	 M1337.7,612.2l-1,1.5c-0.4,0.5-1,0.5-1.4,0.1l-1-0.8c-1.4-0.9-3.3-0.1-4.7-0.5c-1.8-0.5-5.6-3.3-6.5-4.7c-0.8-1.3-0.8-3.5-2.2-4.4
	l0,0l-0.9-0.8c-0.5-0.4-0.5-1-0.1-1.4l1-1.5c0.4-0.5,1-0.5,1.4-0.1l15.5,11.3C1338.1,610.9,1338.1,611.7,1337.7,612.2z
	 M1353.1,601.8c-0.1,2.2,2.8,11.4-6,15.1c0,0-1-4.1-7.7-7.7c-4.9-2.8-1.3-8.6,0.8-10c0,0,10.4,3,14.2-10.1c0,0,3,1.4,2.2,6.7
	c-0.1,0.4-0.4,1.5,0.4,3C1356.8,598.6,1353.5,599.5,1353.1,601.8z"/>
<g class="st0">
	<path class="st2" d="M199.5,853.9c-2,0.7,4.6,13.5,2.1,14.4c-1.3,0.5-2.6-2.4-4.2-1.8c-1.5,0.5-0.3,5.1,2.6,9.5s8.2,8.8,6.5,10.1
		c-1.7,1.2-12-8.1-15-12.6c-3-4.5-5.6-10.8-7.3-15.5c-1.4-0.6-2.9-2-4.9-3.9c-4.5-4.9-3.1-8.5-1.4-12.8c-3.6,0.8-8.3,1.4-13.2,1.3
		c-8.5-0.3-16.6-3.7-21.3-4.5c-7.7-1-14.5,3.9-15,2.5c-0.5-1.4,3.6-5.6,10.7-7.4c7.7-2,18.1,0.7,25.4,0.7c6.2,0,10.7-1.8,17.2-4.1
		c1.5-2.9,3.5-5.2,6.9-6.5s6.4-0.7,9.4,0.6c6.5-2.2,11.1-3.7,15.8-7.8c5.8-4.8,12.1-13.4,19.1-16.7c6.6-3.2,12.4-2.5,13-1.1
		c0.5,1.4-7.9,1.9-13.2,7.6c-3.3,3.6-7.2,11.3-13.7,17c-3.8,3.3-7.7,5.8-11,7.4c4.1,2.4,7.3,4.1,7,10.8c-0.1,2.9-0.7,4.8-1.3,6.2
		c1.7,4.7,3.7,11.2,4.2,16.6c0.4,5.3-1.5,19.2-3.6,19.2c-2,0.1-0.8-6.7-1.4-11.9c-0.6-5.4-2.5-9.6-4-9c-1.5,0.5-0.8,3.6-2,4
		C204.4,867.3,201.5,853.2,199.5,853.9z"/>
	<path class="st4" d="M187.8,843.8c-1-0.5-3.1,8.2-5.8,12.6c0.9,0.8,1.7,1.3,2.3,1.7c0.6,1.7,1.3,3.5,2.1,5.4
		C189.2,857.1,188.9,844.4,187.8,843.8z M155.8,838c-7.1-1.6-10.7-1.4-11.6,0.2c4.7,0.9,12.6,4.1,20.8,4.4c5,0.1,9.7-0.5,13.2-1.3
		C184.6,831.5,168.3,840.8,155.8,838z M197.4,866.4c1.5-0.5,2.9,2.3,4.2,1.8c-1.6-3.1-3.1-4.3-4.9-3.6c-2,0.7-4.5,3.8,0.3,10.4
		c3.8,5.3,6.9,9.1,10,10.7c0.5-1.6-4.1-5.7-6.8-9.8C197.1,871.4,195.9,867,197.4,866.4z M234.2,802.4c-10.1,4.7-12.6,15.2-22.1,20.8
		c-2.8,1.8-7.8,4.5-8.5,6.2c-0.2,0.6-0.3,1.2-0.3,1.7c-9.3,2.9,7.4,15.6,10.5,26.7c3.4,11.1,1.9,18.7,0.5,25.4c0,0,0.2,0,0.2,0.1
		c2.1-0.1,4.1-13.8,3.6-19.2c-0.5-5.4-2.5-12-4.2-16.6c0.6-1.4,1-3.4,1.3-6.2c0.3-6.7-3.1-8.5-7-10.8c3.2-1.6,7.3-4.1,11-7.4
		c6.4-5.6,10.5-13.4,13.7-17c5.2-5.5,13.5-6.1,13.2-7.4C243.5,798.9,239.6,799.9,234.2,802.4z"/>
</g>
</svg>
